<svg width="44" height="32" viewBox="0 0 44 32" fill="none" xmlns="http://www.w3.org/2000/svg">
<path d="M21.9969 14.1294L42.0798 1.22801C41.2724 0.622407 40.2919 0.291915 39.2826 0.285156H4.71121C3.70193 0.291915 2.72147 0.622407 1.91406 1.22801L21.9969 14.1294Z" fill="#0072EF"/>
<path d="M22.8486 17.3207L22.5814 17.4465H22.4557C22.311 17.5111 22.1574 17.5535 22 17.5722C21.8696 17.5886 21.7376 17.5886 21.6071 17.5722H21.4814L21.2143 17.4465L0.157143 3.83789C0.056537 4.21745 0.00374739 4.6081 0 5.00075V27.0007C0 28.2511 0.496682 29.4502 1.38078 30.3343C2.26488 31.2184 3.46398 31.715 4.71429 31.715H39.2857C40.536 31.715 41.7351 31.2184 42.6192 30.3343C43.5033 29.4502 44 28.2511 44 27.0007V5.00075C43.9963 4.6081 43.9435 4.21745 43.8429 3.83789L22.8486 17.3207Z" fill="#0072EF"/>
</svg>
