<svg width="20" height="16" viewBox="0 0 20 16" fill="none" xmlns="http://www.w3.org/2000/svg">
<path d="M17.4997 0.5H2.49967C1.58301 0.5 0.833008 1.25 0.833008 2.16667V13.8333C0.833008 14.75 1.58301 15.5 2.49967 15.5H17.4997C18.4163 15.5 19.1663 14.75 19.1663 13.8333V2.16667C19.1663 1.25 18.4163 0.5 17.4997 0.5ZM17.4997 13.8333H2.49967V2.16667H17.4997V13.8333ZM7.84134 11.2917L9.99967 9.13333L12.158 11.2917L13.333 10.1167L11.1747 7.95833L13.333 5.8L12.158 4.625L9.99967 6.78333L7.84134 4.625L6.66634 5.8L8.82467 7.95833L6.66634 10.1167L7.84134 11.2917Z" fill="#8C8C8C"/>
</svg>
