<svg width="644" height="350" viewBox="0 0 644 350" fill="none" xmlns="http://www.w3.org/2000/svg">
<g clip-path="url(#clip0)">
<path d="M324.067 350C498.693 350 640.255 340.633 640.255 329.079C640.255 317.525 498.693 308.158 324.067 308.158C149.441 308.158 7.87891 317.525 7.87891 329.079C7.87891 340.633 149.441 350 324.067 350Z" fill="#F2F2F2"/>
<path d="M311.948 100.052C260.432 100.052 223.444 133.085 223.444 210.161C223.444 297.515 260.432 320.638 311.948 320.638C363.463 320.638 402.654 295.312 402.654 210.161C402.654 119.137 363.463 100.052 311.948 100.052ZM312.286 291.642C276.605 291.642 257.964 270.721 257.964 210.218C257.964 156.833 277.368 128.68 313.049 128.68C348.73 128.68 368.134 147.173 368.134 210.218C368.134 269.195 347.967 291.642 312.286 291.642Z" fill="#2F2E41"/>
<path d="M192.596 259.71H171.297V197.023C171.297 193.694 169.973 190.5 167.618 188.146C165.262 185.792 162.067 184.469 158.736 184.469H153.745C152.095 184.469 150.462 184.794 148.938 185.425C147.414 186.056 146.029 186.98 144.863 188.146C143.696 189.312 142.771 190.696 142.14 192.219C141.508 193.742 141.184 195.375 141.184 197.023V259.71H81.1047C79.8688 259.71 78.6538 259.391 77.5777 258.783C76.5016 258.176 75.6009 257.301 74.9629 256.243C74.325 255.185 73.9714 253.98 73.9367 252.745C73.9019 251.51 74.187 250.287 74.7644 249.195L138.351 128.912C139.144 127.413 139.624 125.768 139.764 124.078C139.903 122.387 139.698 120.686 139.161 119.077C138.625 117.468 137.767 115.985 136.641 114.716C135.515 113.447 134.143 112.42 132.609 111.695L128.855 109.924C125.94 108.548 122.608 108.345 119.548 109.356C116.487 110.368 113.933 112.516 112.414 115.357L34.8611 260.354C33.5405 262.823 32.8496 265.579 32.8496 268.379C32.8496 270.615 33.2902 272.828 34.1461 274.894C35.0021 276.959 36.2567 278.836 37.8384 280.416C39.42 281.997 41.2977 283.251 43.3642 284.107C45.4307 284.962 47.6455 285.402 49.8823 285.402H141.184V325.042C141.184 327.018 141.573 328.975 142.33 330.801C143.086 332.626 144.195 334.285 145.593 335.683C146.992 337.08 148.651 338.188 150.478 338.945C152.305 339.701 154.263 340.09 156.24 340.09C158.217 340.09 160.175 339.701 162.002 338.945C163.829 338.188 165.489 337.08 166.887 335.683C168.285 334.285 169.394 332.626 170.151 330.801C170.907 328.975 171.297 327.018 171.297 325.042V285.402H192.596C196.005 285.402 199.274 284.049 201.685 281.64C204.095 279.231 205.449 275.963 205.449 272.556C205.449 269.149 204.095 265.882 201.685 263.473C199.274 261.064 196.005 259.71 192.596 259.71Z" fill="#0072EF"/>
<path d="M587.005 259.71H565.706V197.023C565.706 193.694 564.382 190.5 562.027 188.146C559.671 185.792 556.476 184.469 553.145 184.469H548.154C546.504 184.469 544.871 184.794 543.347 185.425C541.823 186.056 540.438 186.98 539.272 188.146C538.105 189.312 537.18 190.696 536.549 192.219C535.918 193.742 535.593 195.375 535.593 197.023V259.71H475.514C474.278 259.71 473.063 259.391 471.987 258.783C470.911 258.176 470.01 257.301 469.372 256.243C468.734 255.185 468.381 253.98 468.346 252.745C468.311 251.51 468.596 250.287 469.174 249.195L532.76 128.912C533.553 127.413 534.034 125.768 534.173 124.078C534.312 122.387 534.107 120.686 533.57 119.077C533.034 117.468 532.176 115.985 531.05 114.716C529.924 113.447 528.552 112.42 527.018 111.695L523.264 109.924C520.349 108.548 517.017 108.345 513.957 109.356C510.896 110.368 508.342 112.516 506.823 115.357L429.27 260.354C427.95 262.823 427.259 265.579 427.259 268.379C427.259 272.894 429.053 277.224 432.248 280.416C435.442 283.609 439.774 285.402 444.291 285.402H535.593V325.042C535.593 329.033 537.179 332.86 540.003 335.683C542.826 338.505 546.656 340.09 550.649 340.09C554.642 340.09 558.472 338.505 561.296 335.683C564.12 332.86 565.706 329.033 565.706 325.042V285.402H587.005C590.414 285.402 593.684 284.049 596.094 281.64C598.504 279.231 599.859 275.963 599.859 272.556C599.859 269.149 598.504 265.882 596.094 263.473C593.684 261.064 590.414 259.71 587.005 259.71Z" fill="#0072EF"/>
<path d="M198.472 252.37H177.173V189.683C177.173 188.034 176.848 186.401 176.217 184.878C175.585 183.355 174.66 181.971 173.494 180.805C172.327 179.64 170.942 178.715 169.418 178.084C167.894 177.453 166.261 177.128 164.612 177.128H159.621C156.289 177.128 153.094 178.451 150.739 180.805C148.383 183.16 147.06 186.353 147.06 189.683V252.37H86.9807C85.7448 252.37 84.5298 252.05 83.4537 251.443C82.3776 250.835 81.4768 249.96 80.8389 248.902C80.2009 247.844 79.8474 246.639 79.8127 245.404C79.7779 244.17 80.063 242.947 80.6404 241.855L144.227 121.572C145.02 120.072 145.5 118.427 145.64 116.737C145.779 115.047 145.574 113.346 145.037 111.737C144.501 110.128 143.643 108.644 142.517 107.375C141.391 106.107 140.019 105.079 138.485 104.355L134.731 102.583C131.816 101.208 128.484 101.004 125.424 102.016C122.363 103.027 119.809 105.176 118.29 108.017L40.7371 253.013C39.4165 255.482 38.7256 258.239 38.7256 261.039V261.039C38.7256 265.553 40.5201 269.883 43.7144 273.076C46.9086 276.268 51.2409 278.062 55.7583 278.062H147.06V317.701C147.06 319.677 147.449 321.634 148.206 323.46C148.962 325.286 150.071 326.945 151.469 328.342C152.868 329.739 154.527 330.848 156.354 331.604C158.181 332.36 160.139 332.75 162.116 332.75H162.116C166.109 332.75 169.939 331.164 172.763 328.342C175.586 325.52 177.173 321.692 177.173 317.701V278.062H198.472C200.16 278.062 201.831 277.73 203.391 277.084C204.95 276.438 206.367 275.492 207.561 274.299C208.754 273.107 209.701 271.69 210.347 270.132C210.993 268.573 211.325 266.903 211.325 265.216V265.216C211.325 263.529 210.993 261.858 210.347 260.3C209.701 258.741 208.754 257.325 207.561 256.132C206.367 254.939 204.95 253.993 203.391 253.348C201.832 252.702 200.16 252.37 198.472 252.37V252.37Z" stroke="#161624" stroke-miterlimit="10"/>
<path d="M598.023 252.37H576.723V189.683C576.723 186.353 575.4 183.16 573.044 180.805C570.689 178.451 567.494 177.128 564.162 177.128H559.171C557.522 177.128 555.888 177.453 554.364 178.084C552.841 178.715 551.456 179.64 550.289 180.805C549.123 181.971 548.198 183.355 547.566 184.878C546.935 186.401 546.61 188.034 546.61 189.683V252.37H486.531C485.296 252.37 484.081 252.05 483.004 251.443C481.928 250.835 481.028 249.96 480.39 248.902C479.752 247.844 479.398 246.639 479.363 245.404C479.329 244.17 479.614 242.947 480.191 241.855L543.778 121.572C544.571 120.072 545.051 118.427 545.19 116.737C545.33 115.047 545.125 113.346 544.588 111.737C544.051 110.128 543.194 108.644 542.068 107.375C540.942 106.107 539.57 105.079 538.035 104.355L534.282 102.583C531.367 101.208 528.035 101.004 524.974 102.016C521.914 103.027 519.36 105.176 517.84 108.017L440.288 253.013C438.967 255.482 438.276 258.239 438.276 261.039C438.276 265.553 440.071 269.883 443.265 273.076C446.459 276.268 450.792 278.062 455.309 278.062H546.61V317.701C546.61 321.692 548.197 325.52 551.02 328.342C553.844 331.164 557.674 332.75 561.667 332.75V332.75C565.66 332.75 569.49 331.164 572.313 328.342C575.137 325.52 576.723 321.692 576.723 317.701V278.062H598.023C599.711 278.062 601.382 277.73 602.942 277.084C604.501 276.438 605.918 275.492 607.112 274.299C608.305 273.107 609.252 271.69 609.898 270.132C610.544 268.573 610.876 266.903 610.876 265.216V265.216C610.876 261.809 609.522 258.541 607.112 256.132C604.701 253.723 601.432 252.37 598.023 252.37V252.37Z" stroke="#161624" stroke-miterlimit="10"/>
<path d="M323.7 93.4453C272.184 93.4453 235.196 126.478 235.196 203.555C235.196 290.908 272.184 314.031 323.7 314.031C375.215 314.031 414.406 288.706 414.406 203.555C414.406 112.531 375.215 93.4453 323.7 93.4453ZM324.038 285.035C288.357 285.035 269.716 264.114 269.716 203.611C269.716 150.226 289.12 122.074 324.801 122.074C360.482 122.074 379.886 140.566 379.886 203.611C379.886 262.589 359.719 285.035 324.038 285.035V285.035Z" stroke="#161624" stroke-miterlimit="10"/>
<path d="M282.406 18.6623C286.677 18.6623 290.139 15.202 290.139 10.9335C290.139 6.66502 286.677 3.20471 282.406 3.20471C278.135 3.20471 274.673 6.66502 274.673 10.9335C274.673 15.202 278.135 18.6623 282.406 18.6623Z" fill="#2F2E41"/>
<path d="M301.267 56.1753C313.246 56.1753 322.957 43.6 322.957 28.0876C322.957 12.5753 313.246 0 301.267 0C289.287 0 279.576 12.5753 279.576 28.0876C279.576 43.6 289.287 56.1753 301.267 56.1753Z" fill="#2F2E41"/>
<path opacity="0.1" d="M301.267 47.6925C290.401 47.6925 281.401 37.3461 279.822 23.8463C279.658 25.2542 279.576 26.6704 279.576 28.0877C279.576 43.6001 289.287 56.1754 301.267 56.1754C313.246 56.1754 322.957 43.6001 322.957 28.0877C322.957 26.6704 322.875 25.2542 322.711 23.8463C321.132 37.3461 312.132 47.6925 301.267 47.6925Z" fill="black"/>
<path d="M345.405 110.343C344.939 112.256 342.93 113.789 340.706 114.859C336.029 117.11 330.261 117.781 324.666 118.007C323.239 118.093 321.807 118.067 320.383 117.928C317.626 117.661 315.038 116.472 313.04 114.554C312.898 114.461 312.781 114.334 312.701 114.183C312.621 114.033 312.581 113.865 312.583 113.695C312.586 113.525 312.631 113.358 312.716 113.21C312.801 113.063 312.921 112.939 313.067 112.85C316.045 109.58 321.016 107.575 326.023 106.131C329.82 105.036 336.442 102.201 340.583 102.583C344.594 102.954 345.993 107.928 345.405 110.343Z" fill="#161624"/>
<path opacity="0.1" d="M345.405 110.343C344.939 112.256 342.93 113.789 340.706 114.859C336.029 117.11 330.261 117.781 324.666 118.007C323.239 118.093 321.807 118.067 320.383 117.928C317.626 117.661 315.038 116.472 313.04 114.554C312.898 114.461 312.781 114.334 312.701 114.183C312.621 114.033 312.581 113.865 312.583 113.695C312.586 113.525 312.631 113.358 312.716 113.21C312.801 113.063 312.921 112.939 313.067 112.85C316.045 109.58 321.016 107.575 326.023 106.131C329.82 105.036 336.442 102.201 340.583 102.583C344.594 102.954 345.993 107.928 345.405 110.343Z" fill="black"/>
<path d="M285.944 96.045C284.517 98.8412 284.258 102.089 285.226 105.076C286.21 108.04 288.051 110.645 290.518 112.563C296.569 117.41 304.896 118.077 312.651 118.01C319.447 117.951 326.233 117.486 332.974 116.618C335.233 116.418 337.452 115.902 339.568 115.087C342.099 113.993 344.323 111.986 345.224 109.381C346.125 106.776 345.486 103.586 343.346 101.848C341.466 100.32 338.873 100.11 336.454 99.9649L322.615 99.1337C323.982 97.7508 325.803 96.9686 327.468 95.9633C329.677 94.6295 331.144 92.3901 332.751 90.3711C335.225 87.415 337.918 84.6482 340.806 82.0936C341.256 84.6759 342.891 86.7963 344.814 88.578C346.738 90.3598 348.955 91.7942 350.955 93.4906C355.797 97.5993 359.284 103.176 364.377 106.97C367.88 106.05 371.155 104.416 373.996 102.17L372.017 98.5868C371.852 98.218 371.595 97.8977 371.271 97.6565C370.711 97.3121 369.988 97.4896 369.338 97.3921C367.599 97.1315 366.84 95.1252 366.157 93.5056C364.284 89.0595 360.698 85.6098 357.635 81.8813C355.374 79.1289 353.369 76.1767 351.644 73.0611C350.615 71.203 349.673 69.2683 348.276 67.6675C346.88 66.0667 344.924 64.8081 342.799 64.8036C340.921 64.7996 339.19 65.7523 337.575 66.7105C332.659 69.6293 327.928 72.8503 323.411 76.355C321.047 78.1892 318.698 80.1271 315.925 81.2519C314.758 81.7253 313.527 82.049 312.407 82.6251C310.445 83.6342 308.956 85.3415 307.353 86.8571C301.636 92.2626 293.809 95.7649 285.944 96.045Z" fill="#161624"/>
<path d="M314.881 57.5702C314.817 59.2226 314.465 60.8511 313.842 62.3828C313.526 63.1468 313.056 63.8375 312.461 64.4119C311.866 64.9863 311.159 65.432 310.384 65.7213C309.284 66.0159 308.131 66.0533 307.014 65.8306C306.04 65.729 305.101 65.4094 304.268 64.8956C302.97 64.004 302.323 62.413 302.087 60.8559C301.852 59.3007 301.957 57.7116 301.806 56.1451C301.659 54.8798 301.418 53.6272 301.086 52.3976C300.984 51.9885 300.88 51.5814 300.778 51.1742C300.678 50.767 300.58 50.3598 300.49 49.9527C300.407 49.57 300.329 49.1854 300.263 48.799C300.209 48.4729 300.16 48.1449 300.124 47.815C300.091 46.837 299.928 45.8677 299.639 44.9327C299.368 44.3263 299.029 43.7527 298.628 43.2229C298.457 42.9779 298.291 42.7328 298.138 42.4783C297.696 41.817 297.491 41.0258 297.555 40.2332C297.573 40.1107 297.603 39.9901 297.644 39.8732C297.659 39.8279 297.676 39.7827 297.695 39.7393C297.864 39.6933 298.02 39.6065 298.149 39.4866C298.277 39.3667 298.374 39.2173 298.432 39.0512C298.497 38.6946 298.466 38.3272 298.343 37.9862C298.202 37.5097 298.01 37.0501 297.768 36.6157C297.61 36.3292 297.072 35.8127 297.068 35.4847C297.061 34.8249 298.351 34.2933 298.873 34.0331C300.468 33.235 302.246 32.8746 304.026 32.9888C305.167 33.0661 306.405 33.4167 307.035 34.3725C307.601 35.2339 307.525 36.3499 307.766 37.3509C307.792 37.4964 307.853 37.6332 307.946 37.7486C308.069 37.8607 308.224 37.9319 308.389 37.9522C308.668 38.0078 308.955 38.0192 309.238 37.9862H309.24C309.314 37.9802 309.389 37.9695 309.462 37.9541C309.903 37.8728 310.319 37.6931 310.681 37.4282C310.914 37.366 311.15 37.3151 311.388 37.2755C311.397 37.2745 311.407 37.2726 311.416 37.2698C312.361 40.2501 312.484 43.4453 313.257 46.4803C313.64 47.9902 314.189 49.4813 314.266 51.0346C314.272 51.1025 314.274 51.1722 314.275 51.242C314.287 51.7415 314.247 52.2449 314.268 52.7425C314.275 52.9666 314.3 53.1898 314.343 53.4098C314.428 53.7638 314.533 54.1125 314.658 54.4542L314.664 54.4711C314.7 54.5805 314.734 54.6917 314.762 54.8029C314.783 54.884 314.802 54.9631 314.817 55.0442L314.819 55.0498C314.958 55.8828 314.979 56.7314 314.881 57.5702Z" fill="#FBBEBE"/>
<path d="M301.645 38.0785C307.791 38.0785 312.773 33.099 312.773 26.9565C312.773 20.8141 307.791 15.8346 301.645 15.8346C295.499 15.8346 290.517 20.8141 290.517 26.9565C290.517 33.099 295.499 38.0785 301.645 38.0785Z" fill="#FBBEBE"/>
<path d="M372.294 87.5542C371.972 84.5198 370.893 81.6148 369.156 79.1053C369.444 80.8207 369.734 82.5355 370.023 84.2496C369.663 84.3538 369.28 84.3506 368.922 84.2405C368.563 84.1303 368.245 83.9179 368.005 83.6294C367.537 83.0447 367.178 82.3798 366.947 81.6671C365.683 78.5303 364.03 75.5645 362.026 72.8393C354.942 72.2492 347.939 69.3142 341.709 65.8928C335.477 62.4732 329.645 58.3732 323.497 54.8085C322.431 54.1645 321.32 53.5975 320.173 53.1119C318.25 52.3409 316.09 51.9413 314.266 51.0346C314.143 50.9742 314.021 50.9102 313.9 50.8442C313.488 50.6202 313.098 50.3583 312.735 50.0619C312.538 49.9025 312.352 49.7313 312.176 49.5491C311.266 48.491 310.545 47.2847 310.043 45.9826C309.064 43.8185 308.715 41.2077 307.738 39.0436C308.187 38.6242 308.692 38.2683 309.238 37.9861H309.24C309.319 37.9446 309.398 37.905 309.479 37.8673C309.866 37.6854 310.268 37.5384 310.681 37.4281C310.914 37.3659 311.15 37.315 311.388 37.2754C311.397 37.2744 311.407 37.2725 311.416 37.2697C312.518 37.0903 313.647 37.1795 314.707 37.5299C316.258 38.0539 317.565 39.1002 318.868 40.0898C320.986 41.5807 323.016 43.1906 324.951 44.9118C326.026 45.9411 327.007 47.0721 328.163 48.0071C329.124 48.7482 330.137 49.4192 331.194 50.0147C337.45 53.7396 343.707 57.4639 349.965 61.1876C352.083 62.4487 354.203 63.7098 356.274 65.0445C359.42 67.0728 362.453 69.2708 365.484 71.4669C367.27 72.7601 369.055 74.0539 370.84 75.3483C371.426 75.7217 371.94 76.1966 372.358 76.7508C372.728 77.38 372.958 78.0814 373.032 78.8074C373.48 81.7403 373.227 84.7376 372.294 87.5542Z" fill="#FBBEBE"/>
<path d="M317.64 65.9342C316.89 69.299 313.487 71.3331 311.709 74.2888C309.498 77.9572 310.4 82.2212 311.23 86.4231C309.713 87.7294 308.196 89.0358 306.678 90.3421C305.841 91.0604 305.003 91.7823 304.102 92.4176C302.787 93.298 301.413 94.0865 299.99 94.7777C298.647 95.4677 297.304 96.1582 295.961 96.8494C294.713 97.551 293.39 98.1112 292.018 98.5196C289.371 99.1982 286.561 98.7232 283.943 97.9371C283.634 97.8562 283.338 97.7351 283.06 97.5771C282.897 97.4797 282.755 97.3509 282.642 97.1982C282.384 96.7357 282.29 96.1995 282.376 95.6769C282.642 91.2734 283.719 86.9622 284.792 82.6831C285.366 80.1159 286.137 77.5969 287.099 75.1484C288.042 73.0505 289.127 71.0187 290.345 69.0672C291.689 66.6117 293.282 64.3005 295.098 62.1697C295.982 61.3496 296.726 60.3906 297.301 59.3307C297.97 57.8038 297.712 56.0526 297.848 54.39C297.951 53.1408 298.283 51.9212 298.826 50.7914V50.7895C299.117 50.1809 299.467 49.6025 299.871 49.0627C300.054 49.4888 300.237 49.9142 300.42 50.3389C300.541 50.6179 300.66 50.8963 300.779 51.1741C300.933 51.5322 301.087 51.8891 301.239 52.2448C301.678 53.2665 302.117 54.2876 302.555 55.308C303.029 56.5933 303.704 57.7953 304.555 58.869C304.944 59.4187 305.469 59.8583 306.078 60.1448C306.688 60.4312 307.362 60.5547 308.033 60.5033C308.705 60.4518 309.352 60.2271 309.911 59.8511C310.47 59.4751 310.921 58.9607 311.222 58.3581C311.856 57.2332 312.315 56.0185 312.584 54.7557C312.956 53.2181 313.008 51.6202 312.735 50.0619C312.28 47.0608 311.003 43.9957 310.075 41.2077C309.698 40.2781 309.479 39.2916 309.428 38.2896C309.43 38.177 309.442 38.0647 309.462 37.954C309.468 37.9257 309.474 37.8956 309.479 37.8673C309.866 37.6854 310.268 37.5384 310.681 37.4281C310.915 37.3659 311.15 37.315 311.388 37.2754C312.205 41.694 313.023 46.1126 313.842 50.5312C313.861 50.6349 313.881 50.7386 313.9 50.8442C314.017 51.4775 314.136 52.1109 314.268 52.7424C314.387 53.3155 314.515 53.8867 314.659 54.4541L314.664 54.471C314.713 54.6634 314.764 54.8537 314.817 55.0441L314.819 55.0498C314.964 55.5701 315.126 56.0866 315.309 56.5955C316.418 59.6625 318.352 62.7503 317.64 65.9342Z" fill="#2F49D1"/>
<path d="M362.803 113.221C362.768 113.869 362.893 114.516 363.168 115.104C363.865 116.377 365.536 116.666 366.982 116.785C375.429 117.479 383.927 117.22 392.316 116.013C392.772 115.982 393.213 115.845 393.606 115.613C394.799 114.777 394.063 112.741 392.761 112.089C391.459 111.436 389.913 111.594 388.484 111.311C387.064 110.954 385.712 110.368 384.481 109.576C381.583 107.912 378.727 106.177 375.914 104.371C374.239 103.296 372.262 102.149 370.375 102.786C365.265 104.514 362.769 107.712 362.803 113.221Z" fill="#161624"/>
<path d="M300.533 49.717V49.7189C300.52 49.7981 300.507 49.8754 300.49 49.9527C300.469 50.0809 300.445 50.2109 300.42 50.3391C300.186 51.5361 299.9 52.7275 299.569 53.9113C298.664 57.1819 297.451 60.3997 296.248 63.5704C293.019 72.0721 289.789 80.5744 286.559 89.0774C285.744 91.2188 284.931 93.3621 284.005 95.4602C283.696 96.1596 283.377 96.8646 283.06 97.5772C281.925 100.128 280.835 102.761 280.473 105.476C280.135 107.262 280.096 109.092 280.358 110.891C280.72 112.671 281.8 114.409 283.492 115.067C284.318 115.389 285.501 115.821 285.275 116.679C285.152 117.15 284.616 117.38 284.135 117.459C283.5 117.56 282.851 117.52 282.233 117.343C281.615 117.165 281.043 116.853 280.559 116.43C279.656 115.629 278.962 114.383 277.76 114.249C276.929 114.158 276.163 114.656 275.401 115.005C272.292 116.424 268.671 115.431 265.406 114.422C265.663 113.101 266.991 112.23 268.309 111.966C269.627 111.7 270.991 111.889 272.336 111.853C272.766 111.876 273.194 111.766 273.56 111.538C273.888 111.237 274.118 110.844 274.22 110.411C275.086 107.845 275.731 105.21 276.146 102.535C276.58 99.7394 276.761 96.9004 277.379 94.1388C277.86 91.9842 278.603 89.8974 279.241 87.7823C280.474 83.4275 281.486 79.0134 282.274 74.5567C282.672 72.7051 282.957 70.831 283.128 68.9448C283.236 67.3802 283.185 65.808 283.336 64.249C283.589 62.2208 284.012 60.2175 284.601 58.2602C285.178 56.1244 285.755 53.9898 286.331 51.8566C287.185 48.6991 288.102 45.419 290.267 42.9647C291.019 42.1006 291.941 41.4001 292.975 40.9066C294.009 40.4131 295.133 40.137 296.278 40.0956C296.708 40.0951 297.136 40.1412 297.555 40.2332C297.625 40.2501 297.695 40.2671 297.764 40.286C298.221 40.4054 298.66 40.5868 299.068 40.8251C299.735 40.401 300.075 40.5499 300.518 41.204C300.907 41.8963 301.09 42.6849 301.046 43.4774C301.084 45.5692 300.912 47.6594 300.533 49.717Z" fill="#FBBEBE"/>
<path d="M301.267 52.2165L301.239 52.2448L301.086 52.3975L299.57 53.9112L298.826 50.7914L296.278 40.0955C296.708 40.095 297.136 40.1411 297.555 40.2331C297.573 40.1106 297.603 39.99 297.644 39.873L297.765 40.2859L298.628 43.2228L300.264 48.7989L300.533 49.7169V49.7188L301.267 52.2165Z" fill="#2F49D1"/>
<path d="M310.89 18.0939C310.889 19.0843 310.692 20.0647 310.311 20.9791C309.931 21.8936 309.374 22.7241 308.672 23.4232C308.418 23.6776 308.145 23.9132 307.856 24.1279C306.555 25.1085 304.97 25.6393 303.34 25.6401H294.291C292.291 25.637 290.375 24.841 288.962 23.4268C287.549 22.0126 286.756 20.0959 286.756 18.0976C286.756 16.0992 287.549 14.1825 288.962 12.7683C290.375 11.3542 292.291 10.5581 294.291 10.5551H303.34C305.339 10.5603 307.255 11.356 308.67 12.7684C310.085 14.1809 310.883 16.0954 310.89 18.0939Z" fill="#2F2E41"/>
<path d="M319.374 18.6623C323.645 18.6623 327.107 15.202 327.107 10.9335C327.107 6.66502 323.645 3.20471 319.374 3.20471C315.103 3.20471 311.641 6.66502 311.641 10.9335C311.641 15.202 315.103 18.6623 319.374 18.6623Z" fill="#2F2E41"/>
<path opacity="0.1" d="M319.186 3.20471C319.091 3.20471 318.997 3.20848 318.903 3.21186C320.904 3.28455 322.798 4.12989 324.187 5.57004C325.577 7.01019 326.353 8.93287 326.353 10.9335C326.353 12.9342 325.577 14.8569 324.187 16.297C322.798 17.7372 320.904 18.5825 318.903 18.6552C318.997 18.6586 319.091 18.6623 319.186 18.6623C321.237 18.6623 323.204 17.848 324.654 16.3986C326.105 14.9492 326.919 12.9833 326.919 10.9335C326.919 8.88372 326.105 6.91786 324.654 5.46843C323.204 4.019 321.237 3.20471 319.186 3.20471Z" fill="black"/>
<path opacity="0.1" d="M282.406 3.20471C282.501 3.20471 282.595 3.20848 282.689 3.21186C280.688 3.28455 278.794 4.12989 277.405 5.57004C276.015 7.01019 275.239 8.93287 275.239 10.9335C275.239 12.9342 276.015 14.8569 277.405 16.297C278.794 17.7372 280.688 18.5825 282.689 18.6552C282.595 18.6586 282.501 18.6623 282.406 18.6623C280.356 18.6605 278.391 17.8454 276.942 16.3962C275.493 14.947 274.68 12.9822 274.68 10.9335C274.68 8.8849 275.493 6.92007 276.942 5.47083C278.391 4.0216 280.356 3.20652 282.406 3.20471Z" fill="black"/>
<path opacity="0.1" d="M307.857 24.1279C306.555 25.1086 304.97 25.6393 303.34 25.6401H294.291C292.661 25.6393 291.076 25.1086 289.774 24.1279H307.857Z" fill="black"/>
<path d="M366.29 80.1303C366.29 80.1303 368.239 85.7446 370.024 84.2497L368.602 76.9111L366.29 80.1303Z" fill="#FBBEBE"/>
<path d="M603.524 251.343C605.34 252.003 607.284 252.232 609.203 252.012C611.123 251.793 612.965 251.131 614.585 250.079C616.205 249.026 617.558 247.612 618.538 245.948C619.518 244.284 620.097 242.415 620.231 240.489C620.365 238.562 620.05 236.631 619.309 234.848C618.569 233.064 617.424 231.477 615.965 230.21C614.507 228.944 612.774 228.034 610.903 227.552C609.032 227.069 607.075 227.028 605.185 227.431L605.497 233.848L602.459 228.348C599.478 229.748 597.174 232.274 596.055 235.371C595.658 236.456 595.416 237.591 595.338 238.744C595.146 241.448 595.842 244.14 597.319 246.414C598.796 248.688 600.974 250.418 603.524 251.343Z" fill="#4BDE97"/>
<path d="M618.555 325.774C617.483 320.317 622.13 315.478 626.72 312.333C631.31 309.188 636.673 306.098 638.239 300.761C640.49 293.09 633.785 286.066 628.567 280.008C624.696 275.512 621.371 270.574 618.663 265.296C617.577 263.18 616.579 260.968 616.294 258.607C615.882 255.207 616.975 251.823 618.076 248.58C621.745 237.776 625.666 227.062 629.842 216.439" stroke="#161624" stroke-miterlimit="10"/>
<path d="M604.037 249.691C605.853 250.351 607.797 250.58 609.717 250.36C611.636 250.141 613.479 249.479 615.099 248.427C616.719 247.374 618.072 245.96 619.052 244.296C620.031 242.632 620.611 240.763 620.745 238.837C620.879 236.91 620.563 234.979 619.823 233.195C619.082 231.412 617.938 229.824 616.479 228.558C615.02 227.292 613.287 226.382 611.416 225.9C609.546 225.417 607.588 225.376 605.699 225.779L606.011 232.196L602.973 226.696C599.991 228.096 597.688 230.622 596.569 233.719C596.172 234.804 595.93 235.939 595.852 237.092C595.66 239.796 596.355 242.488 597.832 244.762C599.309 247.036 601.488 248.766 604.037 249.691V249.691Z" stroke="#161624" stroke-miterlimit="10"/>
<path d="M617.03 214.223C617.743 212.258 618.939 210.504 620.508 209.122C622.077 207.74 623.969 206.776 626.009 206.317L627.037 212.418L628.941 206.01C631.585 206.049 634.148 206.927 636.26 208.517C638.373 210.107 639.925 212.327 640.692 214.856C641.46 217.385 641.404 220.093 640.532 222.588C639.659 225.083 638.016 227.236 635.84 228.737C633.663 230.238 631.066 231.009 628.422 230.938C625.779 230.867 623.226 229.959 621.133 228.343C619.04 226.728 617.515 224.49 616.777 221.952C616.04 219.414 616.128 216.707 617.03 214.223H617.03Z" fill="#4BDE97"/>
<path d="M617.715 212.02C618.428 210.055 619.623 208.301 621.193 206.919C622.762 205.538 624.654 204.573 626.694 204.114L627.721 210.215L629.625 203.807C632.27 203.846 634.833 204.724 636.945 206.314C639.057 207.905 640.609 210.124 641.377 212.653C642.145 215.182 642.088 217.89 641.216 220.385C640.344 222.88 638.701 225.033 636.524 226.534C634.348 228.035 631.75 228.806 629.107 228.735C626.463 228.664 623.911 227.756 621.818 226.141C619.725 224.526 618.199 222.287 617.462 219.749C616.724 217.211 616.813 214.505 617.715 212.02H617.715Z" stroke="#161624" stroke-miterlimit="10"/>
<path d="M626.377 280.132C629.257 281.176 632.42 281.124 635.264 279.987C638.108 278.85 640.434 276.706 641.798 273.965C643.163 271.224 643.47 268.077 642.662 265.124C641.854 262.171 639.987 259.618 637.417 257.952L635.954 262.876L634.917 256.703C634.906 256.698 634.896 256.694 634.885 256.691C633.345 256.132 631.709 255.881 630.072 255.954C628.435 256.026 626.828 256.42 625.343 257.114C623.858 257.807 622.525 258.786 621.419 259.994C620.313 261.203 619.456 262.618 618.897 264.157C618.338 265.697 618.088 267.332 618.162 268.968C618.235 270.604 618.631 272.21 619.325 273.693C620.02 275.177 621 276.509 622.21 277.614C623.42 278.718 624.836 279.574 626.377 280.132H626.377Z" fill="#4BDE97"/>
<path d="M626.97 277.9C629.849 278.944 633.013 278.893 635.857 277.755C638.701 276.618 641.027 274.475 642.391 271.734C643.756 268.993 644.063 265.846 643.255 262.892C642.447 259.939 640.58 257.386 638.01 255.721L636.547 260.645L635.509 254.472C635.499 254.467 635.488 254.463 635.478 254.46C633.937 253.9 632.302 253.65 630.665 253.722C629.028 253.795 627.421 254.189 625.936 254.882C624.451 255.575 623.118 256.554 622.012 257.763C620.906 258.972 620.049 260.386 619.49 261.926C618.931 263.466 618.681 265.1 618.755 266.736C618.828 268.373 619.224 269.978 619.918 271.462C620.613 272.945 621.593 274.278 622.803 275.382C624.013 276.487 625.429 277.343 626.97 277.9H626.97Z" stroke="#161624" stroke-miterlimit="10"/>
<path d="M613.389 300.837C613.884 303.653 615.333 306.213 617.492 308.088C619.652 309.963 622.391 311.039 625.25 311.135C628.108 311.231 630.914 310.342 633.194 308.616C635.475 306.891 637.093 304.434 637.777 301.658C638.46 298.882 638.168 295.955 636.949 293.369C635.729 290.783 633.658 288.694 631.081 287.453C628.503 286.213 625.578 285.895 622.794 286.554C620.011 287.214 617.539 288.809 615.793 291.074L621.351 299.435L613.757 294.997C613.168 296.886 613.042 298.889 613.389 300.837Z" fill="#4BDE97"/>
<path d="M613.903 299.185C614.398 302.001 615.846 304.561 618.006 306.436C620.165 308.311 622.904 309.386 625.763 309.483C628.622 309.579 631.427 308.69 633.708 306.964C635.989 305.239 637.607 302.782 638.29 300.006C638.974 297.23 638.681 294.303 637.462 291.717C636.243 289.131 634.171 287.042 631.594 285.801C629.017 284.56 626.091 284.243 623.308 284.902C620.525 285.561 618.053 287.157 616.307 289.422L621.865 297.783L614.27 293.345C613.681 295.234 613.555 297.237 613.903 299.185V299.185Z" stroke="#161624" stroke-miterlimit="10"/>
<path d="M5.39969 281.716C6.59269 282.149 7.87012 282.3 9.13129 282.156C10.3925 282.012 11.6029 281.577 12.6672 280.885C13.7315 280.194 14.6206 279.265 15.2643 278.171C15.9081 277.078 16.289 275.85 16.3769 274.584C16.4648 273.319 16.2574 272.05 15.7711 270.878C15.2847 269.706 14.5326 268.663 13.5741 267.831C12.6157 267 11.477 266.402 10.2478 266.085C9.0187 265.768 7.7327 265.74 6.49121 266.005L6.69637 270.221L4.70041 266.608C2.7415 267.528 1.22816 269.187 0.492948 271.222C0.231845 271.935 0.0731129 272.681 0.0214887 273.438C-0.104497 275.215 0.352378 276.984 1.32288 278.477C2.29338 279.971 3.72461 281.108 5.39969 281.716Z" fill="#4BDE97"/>
<path d="M15.2746 330.619C14.57 327.033 17.623 323.854 20.6388 321.787C23.6545 319.721 27.1782 317.691 28.2071 314.184C29.686 309.145 25.281 304.529 21.8526 300.549C19.309 297.595 17.1246 294.351 15.3452 290.883C14.5716 289.521 14.0447 288.033 13.7887 286.488C13.5184 284.254 14.2365 282.031 14.9599 279.9C17.3699 272.802 19.9466 265.763 22.69 258.783" stroke="#161624" stroke-miterlimit="10"/>
<path d="M5.73661 280.63C6.92961 281.064 8.20704 281.214 9.46821 281.07C10.7294 280.926 11.9398 280.491 13.0041 279.8C14.0684 279.108 14.9575 278.179 15.6012 277.086C16.245 275.992 16.6259 274.764 16.7138 273.499C16.8017 272.233 16.5943 270.964 16.108 269.792C15.6216 268.621 14.8695 267.578 13.911 266.746C12.9526 265.914 11.8139 265.316 10.5848 264.999C9.35562 264.682 8.06962 264.655 6.82813 264.919L7.03329 269.136L5.03733 265.522C3.07842 266.442 1.56507 268.102 0.829863 270.136C0.568762 270.849 0.410032 271.595 0.358405 272.352C0.232411 274.129 0.689283 275.898 1.65978 277.392C2.63029 278.886 4.06152 280.023 5.73661 280.63V280.63Z" stroke="#161624" stroke-miterlimit="10"/>
<path d="M14.2737 257.327C14.7419 256.036 15.5277 254.884 16.5587 253.976C17.5896 253.068 18.8326 252.434 20.1731 252.133L20.848 256.141L22.0992 251.931C23.8364 251.957 25.5205 252.534 26.9082 253.578C28.296 254.623 29.3157 256.082 29.8201 257.743C30.3245 259.405 30.2875 261.184 29.7144 262.823C29.1413 264.462 28.0618 265.877 26.6318 266.863C25.2017 267.849 23.4951 268.356 21.7584 268.309C20.0216 268.263 18.3445 267.666 16.9693 266.605C15.5941 265.543 14.5919 264.073 14.1074 262.405C13.6228 260.738 13.6811 258.96 14.2737 257.327Z" fill="#4BDE97"/>
<path d="M14.7229 255.88C15.1911 254.589 15.9769 253.436 17.0079 252.528C18.0389 251.621 19.2819 250.987 20.6224 250.685L21.2972 254.694L22.5484 250.484C24.2856 250.51 25.9697 251.086 27.3575 252.131C28.7452 253.176 29.7649 254.634 30.2693 256.296C30.7737 257.957 30.7367 259.736 30.1636 261.376C29.5905 263.015 28.511 264.43 27.081 265.416C25.6509 266.402 23.9443 266.908 22.2076 266.862C20.4708 266.815 18.7938 266.218 17.4185 265.157C16.0433 264.096 15.0411 262.626 14.5566 260.958C14.0721 259.29 14.1303 257.512 14.7229 255.88V255.88Z" stroke="#161624" stroke-miterlimit="10"/>
<path d="M20.4148 300.63C22.3067 301.316 24.3851 301.282 26.2537 300.535C28.1223 299.788 29.6505 298.38 30.5469 296.579C31.4434 294.778 31.6455 292.71 31.1147 290.77C30.5838 288.83 29.3572 287.152 27.6686 286.058L26.7072 289.293L26.0255 285.237C26.0187 285.234 26.0118 285.232 26.0046 285.23C24.9926 284.862 23.918 284.697 22.8422 284.744C21.7664 284.792 20.7105 285.051 19.7349 285.506C18.7593 285.962 17.883 286.605 17.1562 287.399C16.4294 288.193 15.8663 289.123 15.4991 290.134C15.1319 291.146 14.9677 292.22 15.0161 293.295C15.0644 294.371 15.3242 295.426 15.7808 296.4C16.2373 297.375 16.8815 298.25 17.6766 298.976C18.4718 299.702 19.4022 300.264 20.4148 300.63Z" fill="#4BDE97"/>
<path d="M20.8043 299.164C22.6963 299.85 24.7746 299.816 26.6432 299.069C28.5118 298.322 30.04 296.914 30.9365 295.113C31.8329 293.312 32.035 291.244 31.5042 289.304C30.9734 287.364 29.7467 285.686 28.0581 284.592L27.0967 287.827L26.415 283.772C26.4083 283.768 26.4013 283.766 26.3941 283.764C25.3824 283.397 24.3082 283.233 23.233 283.281C22.1577 283.329 21.1025 283.588 20.1275 284.044C18.1585 284.964 16.6359 286.628 15.8946 288.671C15.1533 290.713 15.2542 292.966 16.1749 294.934C17.0957 296.902 18.7609 298.423 20.8043 299.164V299.164Z" stroke="#161624" stroke-miterlimit="10"/>
<path d="M11.8818 314.234C12.2071 316.084 13.159 317.766 14.5778 318.998C15.9966 320.23 17.7961 320.937 19.6744 321C21.5528 321.063 23.3958 320.479 24.8943 319.345C26.3928 318.212 27.4557 316.598 27.9048 314.774C28.3539 312.95 28.1619 311.027 27.3609 309.328C26.5599 307.628 25.1986 306.256 23.5054 305.441C21.8122 304.626 19.8901 304.417 18.0613 304.85C16.2325 305.283 14.6084 306.332 13.4612 307.82L17.113 313.313L12.1233 310.397C11.7364 311.639 11.6536 312.954 11.8818 314.234Z" fill="#4BDE97"/>
<path d="M12.2187 313.149C12.544 314.999 13.4959 316.681 14.9147 317.912C16.3335 319.144 18.133 319.851 20.0114 319.914C21.8897 319.978 23.7327 319.393 25.2312 318.26C26.7297 317.126 27.7927 315.512 28.2418 313.688C28.6909 311.864 28.4988 309.941 27.6978 308.242C26.8968 306.543 25.5355 305.17 23.8423 304.355C22.1491 303.54 20.227 303.331 18.3982 303.765C16.5695 304.198 14.9453 305.246 13.7981 306.734L17.4499 312.227L12.4602 309.312C12.0733 310.553 11.9905 311.869 12.2187 313.149V313.149Z" stroke="#161624" stroke-miterlimit="10"/>
<path d="M288.284 204.355C293.911 204.355 298.474 198.454 298.474 191.175C298.474 183.896 293.911 177.995 288.284 177.995C282.656 177.995 278.094 183.896 278.094 191.175C278.094 198.454 282.656 204.355 288.284 204.355Z" fill="#2F2E41"/>
<path d="M343.729 204.654C349.357 204.654 353.919 198.753 353.919 191.475C353.919 184.196 349.357 178.295 343.729 178.295C338.101 178.295 333.539 184.196 333.539 191.475C333.539 198.753 338.101 204.654 343.729 204.654Z" fill="#2F2E41"/>
<path d="M335.937 230.415C335.937 236.37 327.617 241.198 317.355 241.198C307.093 241.198 298.773 236.37 298.773 230.415C298.773 225.257 305.013 220.943 313.351 219.889C314.679 219.714 316.016 219.628 317.355 219.631C319.599 219.624 321.836 219.865 324.027 220.35C330.992 221.902 335.937 225.826 335.937 230.415Z" fill="#2F2E41"/>
<path d="M290.681 201.359C296.309 201.359 300.871 195.459 300.871 188.18C300.871 180.901 296.309 175 290.681 175C285.053 175 280.491 180.901 280.491 188.18C280.491 195.459 285.053 201.359 290.681 201.359Z" stroke="#161624" stroke-miterlimit="10"/>
<path d="M346.126 201.659C351.754 201.659 356.316 195.758 356.316 188.479C356.316 181.2 351.754 175.299 346.126 175.299C340.499 175.299 335.937 181.2 335.937 188.479C335.937 195.758 340.499 201.659 346.126 201.659Z" stroke="#161624" stroke-miterlimit="10"/>
<path d="M319.753 238.203C330.015 238.203 338.334 233.375 338.334 227.419C338.334 221.464 330.015 216.636 319.753 216.636C309.49 216.636 301.171 221.464 301.171 227.419C301.171 233.375 309.49 238.203 319.753 238.203Z" stroke="#161624" stroke-miterlimit="10"/>
<path d="M324.248 221.249C324.253 222.002 323.97 222.729 323.457 223.281C323.215 223.545 322.92 223.757 322.592 223.902C322.264 224.047 321.91 224.123 321.551 224.124H315.557C314.818 224.099 314.12 223.782 313.615 223.243C313.109 222.704 312.838 221.987 312.86 221.249C312.857 220.665 313.028 220.093 313.351 219.607C314.678 219.42 316.016 219.328 317.355 219.332C319.601 219.324 321.841 219.582 324.027 220.099C324.175 220.464 324.25 220.855 324.248 221.249Z" fill="white"/>
<path d="M290.682 187.581C292.337 187.581 293.679 186.239 293.679 184.585C293.679 182.931 292.337 181.59 290.682 181.59C289.026 181.59 287.685 182.931 287.685 184.585C287.685 186.239 289.026 187.581 290.682 187.581Z" fill="white"/>
<path d="M346.426 187.581C348.081 187.581 349.423 186.239 349.423 184.585C349.423 182.931 348.081 181.59 346.426 181.59C344.771 181.59 343.429 182.931 343.429 184.585C343.429 186.239 344.771 187.581 346.426 187.581Z" fill="white"/>
<path opacity="0.3" d="M349.423 215.737C351.078 215.737 352.42 214.396 352.42 212.742C352.42 211.088 351.078 209.746 349.423 209.746C347.768 209.746 346.426 211.088 346.426 212.742C346.426 214.396 347.768 215.737 349.423 215.737Z" fill="#2F49D1"/>
<path opacity="0.3" d="M276.296 215.737C277.951 215.737 279.293 214.396 279.293 212.742C279.293 211.088 277.951 209.746 276.296 209.746C274.641 209.746 273.299 211.088 273.299 212.742C273.299 214.396 274.641 215.737 276.296 215.737Z" fill="#2F49D1"/>
</g>
<defs>
<clipPath id="clip0">
<rect width="644" height="350" fill="white"/>
</clipPath>
</defs>
</svg>
