<svg width="472" height="326" viewBox="0 0 472 326" fill="none" xmlns="http://www.w3.org/2000/svg">
<circle cx="236" cy="186" r="140" fill="#F5F5F5"/>
<g clip-path="url(#clip0)">
<path d="M26.4281 299.124C19.1553 298.525 12.7343 293.264 9.08276 286.946C7.8582 284.827 7.01917 282.048 8.40589 280.031C8.80282 279.454 9.35137 278.998 9.9911 278.712C10.6308 278.427 11.3369 278.324 12.0315 278.414C12.7261 278.504 13.3823 278.785 13.9278 279.224C14.4733 279.664 14.8869 280.245 15.1231 280.905C14.6764 278.429 14.4845 275.915 14.5503 273.4C14.6062 271.271 15.0085 268.864 16.7786 267.681C18.8322 266.307 21.7923 267.398 23.2861 269.365C24.7798 271.333 25.1851 273.893 25.5436 276.338C25.2509 275.303 25.2224 274.211 25.4606 273.163C25.6988 272.114 26.1962 271.142 26.9072 270.336C27.6182 269.529 28.5201 268.914 29.5305 268.546C30.5408 268.178 31.6272 268.069 32.6904 268.23C35.6983 268.684 38.0546 271.288 38.974 274.188C39.8934 277.088 39.6064 280.232 39.0146 283.216C38.3207 286.715 37.1946 290.186 35.1671 293.12C33.1397 296.055 30.1282 298.421 26.6342 299.139L26.4281 299.124Z" fill="#F2F2F2"/>
<path d="M425.128 40.9629H136.019C134.917 40.9641 133.861 41.4023 133.082 42.1814C132.303 42.9604 131.865 44.0167 131.863 45.1185V241.024C131.865 242.126 132.303 243.182 133.082 243.961C133.861 244.74 134.917 245.179 136.019 245.18H425.128C426.23 245.179 427.286 244.74 428.065 243.961C428.844 243.182 429.283 242.126 429.284 241.024V45.1185C429.283 44.0167 428.844 42.9604 428.065 42.1814C427.286 41.4023 426.23 40.9641 425.128 40.9629ZM428.096 241.024C428.096 241.811 427.783 242.566 427.227 243.123C426.67 243.679 425.915 243.992 425.128 243.992H136.019C135.232 243.992 134.477 243.679 133.92 243.123C133.364 242.566 133.051 241.811 133.051 241.024V45.1185C133.051 44.3313 133.364 43.5765 133.92 43.0199C134.477 42.4633 135.232 42.1505 136.019 42.1502H425.128C425.915 42.1505 426.67 42.4633 427.227 43.0199C427.783 43.5765 428.096 44.3313 428.096 45.1185V241.024Z" fill="#3F3D56"/>
<path d="M471.433 62.9274C471.433 75.9781 467.377 88.7061 459.826 99.3503C452.274 109.994 441.601 118.028 429.284 122.34C428.892 122.477 428.494 122.613 428.096 122.738V58.7956H345.715C345.739 58.3979 345.768 58.0001 345.804 57.6083H428.096V45.1178C428.096 44.3307 427.783 43.5759 427.226 43.0193C426.67 42.4627 425.915 42.1499 425.128 42.1495H349.093C349.229 41.7518 349.372 41.354 349.526 40.9622C354.677 27.1362 364.522 15.5596 377.341 8.25468C390.16 0.949806 405.139 -1.61885 419.659 0.997463C434.18 3.61378 447.319 11.2487 456.783 22.5685C466.246 33.8882 471.432 48.173 471.433 62.9274Z" fill="#F2F2F2"/>
<path d="M428.69 57.6074H132.457V58.7947H428.69V57.6074Z" fill="#3F3D56"/>
<path d="M142.548 53.4285C144.515 53.4285 146.11 51.8338 146.11 49.8666C146.11 47.8994 144.515 46.3047 142.548 46.3047C140.581 46.3047 138.986 47.8994 138.986 49.8666C138.986 51.8338 140.581 53.4285 142.548 53.4285Z" fill="#3F3D56"/>
<path d="M213.194 81.9238H160.952C159.851 81.9251 158.794 82.3633 158.015 83.1423C157.236 83.9214 156.798 84.9777 156.797 86.0794V138.321C156.798 139.423 157.236 140.479 158.015 141.258C158.794 142.037 159.851 142.475 160.952 142.476H213.194C214.296 142.475 215.352 142.037 216.131 141.258C216.91 140.479 217.348 139.423 217.35 138.321V86.0794C217.348 84.9777 216.91 83.9214 216.131 83.1423C215.352 82.3633 214.296 81.9251 213.194 81.9238ZM216.162 138.321C216.162 139.108 215.849 139.863 215.292 140.419C214.736 140.976 213.981 141.289 213.194 141.289H160.952C160.165 141.289 159.41 140.976 158.854 140.419C158.297 139.863 157.984 139.108 157.984 138.321V86.0794C157.984 85.2923 158.297 84.5375 158.854 83.9809C159.41 83.4243 160.165 83.1114 160.952 83.1111H213.194C213.981 83.1114 214.736 83.4243 215.292 83.9809C215.849 84.5375 216.162 85.2923 216.162 86.0794V138.321Z" fill="#3F3D56"/>
<path d="M152.79 53.4285C154.758 53.4285 156.352 51.8338 156.352 49.8666C156.352 47.8994 154.758 46.3047 152.79 46.3047C150.823 46.3047 149.229 47.8994 149.229 49.8666C149.229 51.8338 150.823 53.4285 152.79 53.4285Z" fill="#3F3D56"/>
<path d="M163.031 53.4285C164.998 53.4285 166.593 51.8338 166.593 49.8666C166.593 47.8994 164.998 46.3047 163.031 46.3047C161.063 46.3047 159.469 47.8994 159.469 49.8666C159.469 51.8338 161.063 53.4285 163.031 53.4285Z" fill="#3F3D56"/>
<path d="M213.194 160.584H160.952C159.93 160.586 158.949 160.993 158.226 161.716C157.503 162.44 157.096 163.42 157.094 164.443V216.684C157.096 217.707 157.503 218.687 158.226 219.411C158.949 220.134 159.93 220.541 160.952 220.543H213.194C214.217 220.541 215.197 220.134 215.92 219.411C216.644 218.687 217.051 217.707 217.053 216.684V164.443C217.051 163.42 216.644 162.44 215.92 161.716C215.197 160.993 214.217 160.586 213.194 160.584Z" fill="#E6E6E6"/>
<path d="M306.991 82.2207H254.749C253.727 82.2227 252.746 82.6299 252.023 83.3531C251.3 84.0763 250.893 85.0567 250.891 86.0795V138.321C250.893 139.344 251.3 140.324 252.023 141.047C252.746 141.771 253.727 142.178 254.749 142.18H306.991C308.014 142.178 308.994 141.771 309.717 141.047C310.441 140.324 310.848 139.344 310.85 138.321V86.0795C310.848 85.0567 310.441 84.0763 309.717 83.3531C308.994 82.6299 308.014 82.2227 306.991 82.2207Z" fill="#0072EF"/>
<path d="M199.887 168.389H147.646C146.623 168.388 145.642 167.981 144.919 167.257C144.195 166.534 143.788 165.553 143.787 164.53V112.288C143.788 111.265 144.195 110.285 144.919 109.561C145.642 108.838 146.623 108.431 147.646 108.43H199.887C200.91 108.431 201.891 108.838 202.615 109.561C203.338 110.285 203.745 111.265 203.746 112.288V164.53C203.745 165.553 203.338 166.534 202.615 167.257C201.891 167.981 200.91 168.388 199.887 168.389Z" fill="#0072EF"/>
<path d="M120.361 292.129L127.319 289.994L122.394 262.141L112.125 265.292L120.361 292.129Z" fill="#FFB6B6"/>
<path d="M142.721 292.338L120.853 299.049L118.261 290.6L131.679 286.482C132.789 286.142 133.954 286.023 135.11 286.133C136.265 286.243 137.387 286.579 138.413 287.123C139.438 287.667 140.346 288.407 141.085 289.302C141.824 290.197 142.38 291.228 142.721 292.338Z" fill="#262626"/>
<path d="M60.9973 292.29L68.2755 292.29L71.7377 264.217L60.9961 264.217L60.9973 292.29Z" fill="#FFB6B6"/>
<path d="M82.3105 299.047L59.4366 299.048L59.4362 290.21L73.4725 290.21C74.6331 290.21 75.7823 290.438 76.8545 290.882C77.9268 291.326 78.9011 291.977 79.7218 292.798C80.5425 293.618 81.1935 294.593 81.6377 295.665C82.0818 296.737 82.3105 297.886 82.3105 299.047L82.3105 299.047Z" fill="#262626"/>
<path d="M60.4747 210.913C59.8768 210.389 59.4011 209.74 59.081 209.012C58.761 208.284 58.6045 207.495 58.6225 206.7C58.6405 205.905 58.8326 205.123 59.1852 204.411C59.5379 203.698 60.0425 203.071 60.6635 202.575L66.3064 131.518L77.7822 134.385L68.5939 203.699C69.359 204.797 69.6945 206.139 69.5368 207.468C69.3792 208.798 68.7394 210.023 67.7386 210.912C66.7378 211.801 65.4456 212.293 64.1068 212.293C62.768 212.293 61.4757 211.802 60.4747 210.913Z" fill="#FFB6B6"/>
<path d="M83.4558 103.958C91.5085 103.958 98.0365 97.4303 98.0365 89.3776C98.0365 81.3249 91.5085 74.7969 83.4558 74.7969C75.403 74.7969 68.875 81.3249 68.875 89.3776C68.875 97.4303 75.403 103.958 83.4558 103.958Z" fill="#FFB6B6"/>
<path d="M62.3555 141.151L68.2384 121.905C68.6324 120.616 69.3046 119.429 70.2076 118.429C71.1106 117.429 72.2223 116.639 73.4641 116.115C74.7059 115.592 76.0475 115.347 77.3942 115.399C78.7408 115.451 80.0596 115.799 81.2573 116.416C83.3353 117.493 84.9263 119.319 85.7076 121.525C86.489 123.73 86.4023 126.151 85.4651 128.295L77.986 145.328L62.3555 141.151Z" fill="#0050B3"/>
<path d="M70.7775 129.332C67.4875 124.816 67.3861 118.595 70.9301 114.275C73.2429 111.455 77.1115 109.199 83.5705 109.199C100.786 109.199 107.317 122.853 107.317 122.853C107.317 122.853 114.44 135.914 110.285 147.787C106.129 159.66 106.129 160.847 106.129 160.847L78.8212 158.472C78.8212 158.472 83.4281 146.699 70.7775 129.332Z" fill="#80D89F"/>
<path d="M105.535 157.879L128.687 277.797L116.221 281.359L85.9443 202.403L72.2903 283.14L59.2299 284.921C59.2299 284.921 53.5009 178.096 78.8205 158.473L105.535 157.879Z" fill="#0050B3"/>
<path d="M138.857 152.257C138.646 152.509 138.455 152.777 138.286 153.058L108.879 154.484L103.217 137.197L93.3848 141.87L102.638 167.618L139.007 160.505C139.862 161.438 140.98 162.089 142.213 162.371C143.447 162.653 144.737 162.553 145.912 162.083C147.087 161.614 148.091 160.799 148.792 159.745C149.492 158.691 149.854 157.449 149.831 156.184C149.809 154.919 149.401 153.691 148.663 152.663C147.925 151.635 146.892 150.856 145.701 150.43C144.509 150.004 143.216 149.95 141.994 150.277C140.772 150.603 139.678 151.294 138.857 152.257Z" fill="#FFB6B6"/>
<path d="M89.2701 124.576C89.1126 123.238 89.251 121.881 89.6755 120.602C90.1 119.323 90.8003 118.153 91.7269 117.174C92.6534 116.196 93.7836 115.433 95.0376 114.939C96.2915 114.445 97.6386 114.233 98.9837 114.317C101.319 114.467 103.51 115.499 105.112 117.205C106.715 118.91 107.608 121.161 107.612 123.502V142.104L91.6215 144.564L89.2701 124.576Z" fill="#0050B3"/>
<path d="M183.133 300H0.70696C0.613962 300 0.521819 299.982 0.435823 299.946C0.349827 299.911 0.271666 299.859 0.205811 299.793C0.139956 299.728 0.0877044 299.65 0.0520533 299.564C0.0164022 299.478 -0.00195312 299.386 -0.00195312 299.293C-0.00195312 299.2 0.0164022 299.108 0.0520533 299.022C0.0877044 298.936 0.139956 298.858 0.205811 298.792C0.271666 298.727 0.349827 298.675 0.435823 298.639C0.521819 298.604 0.613962 298.586 0.70696 298.586H183.133C183.226 298.586 183.318 298.604 183.404 298.639C183.49 298.675 183.568 298.727 183.634 298.792C183.7 298.858 183.752 298.936 183.788 299.022C183.824 299.108 183.842 299.2 183.842 299.293C183.842 299.386 183.824 299.478 183.788 299.564C183.752 299.65 183.7 299.728 183.634 299.793C183.568 299.859 183.49 299.911 183.404 299.946C183.318 299.982 183.226 300 183.133 300Z" fill="#3F3D56"/>
<path d="M400.788 82.2207H348.546C347.523 82.2227 346.543 82.6299 345.82 83.3531C345.097 84.0763 344.689 85.0567 344.688 86.0795V138.321C344.689 139.344 345.097 140.324 345.82 141.047C346.543 141.771 347.523 142.178 348.546 142.18H400.788C401.811 142.178 402.791 141.771 403.514 141.047C404.237 140.324 404.645 139.344 404.647 138.321V86.0795C404.645 85.0567 404.237 84.0763 403.514 83.3531C402.791 82.6299 401.811 82.2227 400.788 82.2207Z" fill="#E6E6E6"/>
<path d="M86.6627 104.091C84.4743 104.082 82.7861 101.777 82.8841 99.5912C82.9822 97.405 84.4506 95.4815 86.2197 94.1932C87.9888 92.9049 90.0635 92.1202 92.0363 91.173C94.0091 90.2259 95.9648 89.0444 97.1828 87.2263C97.9187 86.0363 98.3579 84.687 98.4636 83.2919C98.5694 81.8968 98.3384 80.4967 97.7903 79.2094C96.6568 76.6348 94.7105 74.5027 92.2496 73.1398C88.5941 70.9999 84.2666 70.3157 80.1292 71.2234C75.9918 72.1311 72.3481 74.564 69.9241 78.0376L67.4259 84.8396C64.8804 87.9006 64.4766 92.4463 66.0414 96.107C67.6062 99.7677 70.9379 102.522 74.6975 103.831C78.512 105.057 82.5953 105.179 86.4763 104.184" fill="#262626"/>
<path d="M60.2487 91.9524C66.7642 91.9524 72.0462 86.6705 72.0462 80.1549C72.0462 73.6393 66.7642 68.3574 60.2487 68.3574C53.7331 68.3574 48.4512 73.6393 48.4512 80.1549C48.4512 86.6705 53.7331 91.9524 60.2487 91.9524Z" fill="#262626"/>
<path d="M50.0727 89.9233C51.5997 91.027 53.3688 91.7489 55.2319 92.0286C57.0951 92.3084 58.9981 92.1379 60.7819 91.5314C62.5656 90.9249 64.1782 89.9 65.4846 88.5425C66.7911 87.185 67.7534 85.5344 68.2912 83.7287C68.0877 85.3469 67.5509 86.9053 66.7148 88.3055C65.8786 89.7058 64.7612 90.9174 63.4331 91.8641C62.1051 92.8107 60.5952 93.4717 58.9987 93.8053C57.4023 94.1389 55.7541 94.138 54.158 93.8024C52.562 93.4669 51.0529 92.8041 49.7259 91.8559C48.399 90.9077 47.283 89.6947 46.4485 88.2935C45.614 86.8922 45.0791 85.3332 44.8776 83.7148C44.676 82.0964 44.8122 80.4538 45.2775 78.8906C45.0132 80.9907 45.319 83.1232 46.1627 85.0644C47.0064 87.0055 48.357 88.6839 50.0727 89.9233Z" fill="#262626"/>
<path d="M306.991 160.584H254.749C253.727 160.586 252.746 160.993 252.023 161.716C251.3 162.44 250.893 163.42 250.891 164.443V216.684C250.893 217.707 251.3 218.687 252.023 219.411C252.746 220.134 253.727 220.541 254.749 220.543H306.991C308.014 220.541 308.994 220.134 309.717 219.411C310.441 218.687 310.848 217.707 310.85 216.684V164.443C310.848 163.42 310.441 162.44 309.717 161.716C308.994 160.993 308.014 160.586 306.991 160.584Z" fill="#0072EF"/>
<path d="M400.788 160.584H348.546C347.523 160.586 346.543 160.993 345.82 161.716C345.097 162.44 344.689 163.42 344.688 164.443V216.684C344.689 217.707 345.097 218.687 345.82 219.411C346.543 220.134 347.523 220.541 348.546 220.543H400.788C401.811 220.541 402.791 220.134 403.514 219.411C404.237 218.687 404.645 217.707 404.647 216.684V164.443C404.645 163.42 404.237 162.44 403.514 161.716C402.791 160.993 401.811 160.586 400.788 160.584Z" fill="#E6E6E6"/>
<path d="M169.117 144.659C168.679 144.659 168.251 144.788 167.887 145.032C167.523 145.275 167.24 145.621 167.072 146.025C166.904 146.43 166.861 146.875 166.946 147.304C167.031 147.734 167.242 148.128 167.552 148.438C167.861 148.747 168.256 148.958 168.685 149.044C169.115 149.129 169.56 149.085 169.964 148.918C170.369 148.75 170.715 148.466 170.958 148.102C171.201 147.738 171.331 147.31 171.331 146.872C171.329 146.286 171.096 145.724 170.681 145.309C170.266 144.894 169.704 144.66 169.117 144.659ZM162.645 127.287V129.501H164.858L168.843 137.573L167.177 140.285C166.995 140.606 166.9 140.968 166.9 141.337C166.9 142.819 167.914 143.551 169.287 143.551H182.231V141.422H169.558C169.521 141.424 169.484 141.419 169.45 141.406C169.415 141.393 169.383 141.372 169.357 141.346C169.331 141.32 169.311 141.288 169.298 141.254C169.285 141.219 169.279 141.182 169.281 141.145C169.31 141.049 169.35 140.957 169.399 140.87L170.505 139.123H178.752C179.15 139.127 179.542 139.02 179.884 138.815C180.226 138.61 180.504 138.315 180.689 137.961L184.675 131.107C184.753 130.933 184.791 130.743 184.787 130.553C184.785 130.41 184.755 130.27 184.698 130.139C184.641 130.009 184.559 129.891 184.456 129.793C184.352 129.694 184.23 129.618 184.097 129.568C183.964 129.518 183.822 129.495 183.679 129.501H167.295L166.243 127.287H162.645ZM180.016 144.659C179.578 144.659 179.15 144.789 178.786 145.032C178.423 145.276 178.139 145.622 177.972 146.026C177.804 146.431 177.761 146.876 177.846 147.305C177.932 147.734 178.143 148.129 178.453 148.438C178.762 148.748 179.157 148.958 179.586 149.044C180.016 149.129 180.461 149.085 180.865 148.917C181.269 148.75 181.615 148.466 181.858 148.102C182.101 147.738 182.231 147.31 182.231 146.872C182.23 146.285 181.996 145.723 181.58 145.308C181.165 144.893 180.603 144.66 180.016 144.659Z" fill="white"/>
<path d="M177.183 133.411H175.327V131.555H173.935V133.411H172.078V134.803H173.935V136.66H175.327V134.803H177.183V133.411Z" fill="#0072EF"/>
</g>
<defs>
<clipPath id="clip0">
<rect width="471.433" height="300" fill="white"/>
</clipPath>
</defs>
</svg>
