<svg width="321" height="229" viewBox="0 0 321 229" fill="none" xmlns="http://www.w3.org/2000/svg">
<g clip-path="url(#clip0_31164_107182)">
<path opacity="0.1" d="M315.918 153.954C308.472 169.263 293.355 179.499 277.689 186.25C256.597 195.341 233.371 198.947 210.463 197.422C206.449 197.155 202.447 196.73 198.456 196.145C184.598 194.13 171.088 190.209 158.311 184.493C154.623 182.838 151.01 181.03 147.472 179.072C141.563 175.807 135.9 172.116 130.531 168.028C129.18 167 127.848 165.946 126.535 164.867C125.624 164.118 124.722 163.353 123.806 162.61C121.872 161.043 119.883 159.554 117.664 158.44C116.994 158.103 116.307 157.801 115.607 157.535C108.579 154.87 100.475 155.876 93.1592 157.954C87.5942 159.535 82.1693 161.699 76.61 163.244C74.1371 163.952 71.6175 164.486 69.0695 164.841C63.3809 165.559 57.604 165.053 52.128 163.358L51.6601 163.213C50.8755 162.967 50.0975 162.698 49.326 162.406L48.858 162.227C48.1108 161.94 47.3794 161.632 46.664 161.303L46.196 161.09C45.4488 160.744 44.7174 160.378 44.002 159.993C43.7442 159.859 43.4892 159.713 43.237 159.577C39.1663 157.31 35.4661 154.439 32.264 151.061C32.1715 150.969 32.0846 150.874 31.9838 150.781C31.5382 150.301 31.1011 149.812 30.678 149.312C30.5211 149.128 30.3642 148.944 30.21 148.754C29.7075 148.143 29.2228 147.518 28.7557 146.88C28.6857 146.787 28.6184 146.693 28.5512 146.6C26.6378 143.962 25.0515 141.103 23.8269 138.085C23.7876 137.992 23.7512 137.897 23.7176 137.805C23.344 136.846 23.003 135.872 22.6948 134.881C22.5687 134.468 22.4482 134.043 22.3417 133.63C22.3053 133.507 22.2717 133.381 22.2409 133.258C20.6941 127.189 20.5176 120.88 20.5176 114.607C20.5176 113.875 20.5176 113.144 20.5176 112.414C20.5624 102.267 20.7193 91.9472 22.2213 81.9399C22.2213 81.8701 22.2409 81.8002 22.2521 81.7332C22.7548 78.3642 23.4385 75.0246 24.3004 71.7287C25.2025 68.2704 26.3553 64.882 27.7498 61.5901C31.2048 53.4905 36.2289 46.1198 41.8079 39.2881C55.8604 22.0973 74.2898 7.66591 95.8604 2.26426C119.104 -3.55353 144.936 2.02127 163.685 16.8995C169.401 21.4353 174.538 26.8063 180.957 30.2835C186.562 33.3111 193.121 34.5652 199.123 32.1828C204.083 30.2137 207.311 29.2362 212.882 29.535C224.414 30.1853 235.783 32.5588 246.608 36.5761C247.045 36.7353 247.482 36.9001 247.916 37.0649C276.136 47.8263 300.394 69.2066 313.003 96.6813C313.338 97.4075 313.662 98.1392 313.976 98.8766C321.494 116.38 324.212 136.895 315.918 153.954Z" fill="#6C63FF"/>
<path opacity="0.1" d="M33.7096 207.519C47.3714 207.519 58.4465 205.745 58.4465 203.558C58.4465 201.371 47.3714 199.598 33.7096 199.598C20.0478 199.598 8.97266 201.371 8.97266 203.558C8.97266 205.745 20.0478 207.519 33.7096 207.519Z" fill="#6C63FF"/>
<path opacity="0.1" d="M255.624 228.995C279.848 228.995 299.485 227.094 299.485 224.749C299.485 222.405 279.848 220.504 255.624 220.504C231.4 220.504 211.763 222.405 211.763 224.749C211.763 227.094 231.4 228.995 255.624 228.995Z" fill="#6C63FF"/>
<path d="M295.336 30.0977H36.0438C34.1109 30.0977 32.5439 31.6595 32.5439 33.5861V176.964C32.5439 178.891 34.1109 180.453 36.0438 180.453H295.336C297.269 180.453 298.836 178.891 298.836 176.964V33.5861C298.836 31.6595 297.269 30.0977 295.336 30.0977Z" fill="url(#paint0_linear_31164_107182)"/>
<path d="M294.942 32.207H36.4656C34.5327 32.207 32.9658 33.7689 32.9658 35.6955V176.459C32.9658 178.386 34.5327 179.948 36.4656 179.948H294.942C296.875 179.948 298.442 178.386 298.442 176.459V35.6955C298.442 33.7689 296.875 32.207 294.942 32.207Z" fill="white"/>
<path d="M294.942 32.207H36.4656C34.5327 32.207 32.9658 33.7689 32.9658 35.6955V176.459C32.9658 178.386 34.5327 179.948 36.4656 179.948H294.942C296.875 179.948 298.442 178.386 298.442 176.459V35.6955C298.442 33.7689 296.875 32.207 294.942 32.207Z" fill="white"/>
<path opacity="0.04" d="M294.942 32.207H36.4656C34.5327 32.207 32.9658 33.7689 32.9658 35.6955V176.459C32.9658 178.386 34.5327 179.948 36.4656 179.948H294.942C296.875 179.948 298.442 178.386 298.442 176.459V35.6955C298.442 33.7689 296.875 32.207 294.942 32.207Z" fill="white"/>
<path d="M297.094 30.5156H34.3136C33.9562 30.5156 33.6134 30.6572 33.3606 30.9091C33.1078 31.1611 32.9658 31.5028 32.9658 31.8591V37.5372H298.431V31.8591C298.431 31.5047 298.291 31.1647 298.04 30.913C297.79 30.6614 297.45 30.5186 297.094 30.5156Z" fill="#5A5773"/>
<path d="M38.2667 35.8379C39.2726 35.8379 40.088 35.0251 40.088 34.0225C40.088 33.0198 39.2726 32.207 38.2667 32.207C37.2608 32.207 36.4453 33.0198 36.4453 34.0225C36.4453 35.0251 37.2608 35.8379 38.2667 35.8379Z" fill="white"/>
<path d="M43.171 35.8379C44.1769 35.8379 44.9923 35.0251 44.9923 34.0225C44.9923 33.0198 44.1769 32.207 43.171 32.207C42.1651 32.207 41.3496 33.0198 41.3496 34.0225C41.3496 35.0251 42.1651 35.8379 43.171 35.8379Z" fill="white"/>
<path d="M48.0733 35.8379C49.0792 35.8379 49.8947 35.0251 49.8947 34.0225C49.8947 33.0198 49.0792 32.207 48.0733 32.207C47.0674 32.207 46.252 33.0198 46.252 34.0225C46.252 35.0251 47.0674 35.8379 48.0733 35.8379Z" fill="white"/>
<path opacity="0.2" d="M126.075 50.7383H54.832V56.7656H126.075V50.7383Z" fill="#6C63FF"/>
<path opacity="0.1" d="M276.577 74.9062H54.8301V167.622H276.577V74.9062Z" fill="#5A5773"/>
<path opacity="0.1" d="M184.667 80.9539H180.87V73.6028C180.87 65.3076 174.234 58.4117 165.912 58.286C163.905 58.265 161.914 58.64 160.054 59.3895C158.193 60.139 156.499 61.2481 155.071 62.653C153.642 64.0578 152.506 65.7306 151.729 67.5749C150.952 69.4191 150.549 71.3985 150.543 73.3989V80.9539H146.754C145.08 80.9591 143.476 81.6243 142.292 82.8043C141.108 83.9843 140.441 85.5833 140.436 87.2521V117.478C140.441 119.147 141.108 120.746 142.292 121.926C143.476 123.106 145.08 123.771 146.754 123.776H184.667C186.341 123.771 187.945 123.106 189.128 121.925C190.311 120.745 190.978 119.146 190.983 117.478V87.2521C190.978 85.5836 190.311 83.9846 189.128 82.8045C187.945 81.6244 186.341 80.9591 184.667 80.9539ZM167.924 100.603V111.428C167.928 112.001 167.713 112.555 167.323 112.976C166.932 113.397 166.396 113.654 165.823 113.696C165.523 113.71 165.224 113.663 164.943 113.559C164.662 113.454 164.406 113.294 164.189 113.088C163.972 112.881 163.799 112.633 163.681 112.359C163.563 112.084 163.502 111.788 163.502 111.49V100.597C162.477 100.099 161.652 99.2688 161.161 98.2428C160.67 97.2168 160.542 96.0552 160.799 94.9475C161.055 93.8399 161.681 92.8516 162.573 92.1439C163.466 91.4362 164.573 91.0509 165.713 91.0509C166.854 91.0509 167.961 91.4362 168.853 92.1439C169.746 92.8516 170.371 93.8399 170.628 94.9475C170.884 96.0552 170.757 97.2168 170.266 98.2428C169.775 99.2688 168.949 100.099 167.924 100.597V100.603ZM176.454 80.9539H154.964V73.3989C154.964 70.5596 156.096 67.8366 158.11 65.8289C160.124 63.8212 162.856 62.6933 165.705 62.6933C168.553 62.6933 171.285 63.8212 173.3 65.8289C175.314 67.8366 176.445 70.5596 176.445 73.3989L176.454 80.9539Z" fill="black"/>
<path d="M184.667 80.3953H180.87V73.0442C180.87 64.749 174.234 57.8531 165.912 57.7274C163.905 57.7064 161.914 58.0814 160.054 58.8309C158.193 59.5804 156.499 60.6895 155.071 62.0944C153.642 63.4992 152.506 65.172 151.729 67.0163C150.952 68.8606 150.549 70.8399 150.543 72.8403V80.3953H146.754C145.08 80.4005 143.476 81.0657 142.292 82.2457C141.108 83.4257 140.441 85.0247 140.436 86.6935V116.919C140.441 118.588 141.108 120.187 142.292 121.367C143.476 122.547 145.08 123.212 146.754 123.217H184.667C186.341 123.212 187.945 122.547 189.128 121.367C190.311 120.187 190.978 118.588 190.983 116.919V86.6935C190.978 85.025 190.311 83.426 189.128 82.2459C187.945 81.0658 186.341 80.4005 184.667 80.3953ZM167.924 100.044V110.87C167.928 111.443 167.713 111.996 167.323 112.417C166.932 112.838 166.396 113.096 165.823 113.138C165.523 113.151 165.224 113.105 164.943 113C164.662 112.896 164.406 112.735 164.189 112.529C163.972 112.323 163.799 112.075 163.681 111.8C163.563 111.526 163.502 111.23 163.502 110.931V100.038C162.477 99.5401 161.652 98.7102 161.161 97.6842C160.67 96.6582 160.542 95.4966 160.799 94.3889C161.055 93.2813 161.681 92.293 162.573 91.5853C163.466 90.8776 164.573 90.4923 165.713 90.4923C166.854 90.4923 167.961 90.8776 168.853 91.5853C169.746 92.293 170.371 93.2813 170.628 94.3889C170.884 95.4966 170.757 96.6582 170.266 97.6842C169.775 98.7102 168.949 99.5401 167.924 100.038V100.044ZM176.454 80.3953H154.964V72.8403C154.964 70.001 156.096 67.278 158.11 65.2703C160.124 63.2626 162.856 62.1347 165.705 62.1347C168.553 62.1347 171.285 63.2626 173.3 65.2703C175.314 67.278 176.445 70.001 176.445 72.8403L176.454 80.3953Z" fill="#3A416F"/>
<path opacity="0.1" d="M276.578 65.9844H254.133V71.2659H276.578V65.9844Z" fill="#5A5773"/>
<path d="M284.218 226.035C284.07 225.294 283.817 224.579 283.467 223.909L280.104 218.904H280.124C280.124 218.904 279.594 216.39 280.124 215.156C280.653 213.921 278.235 210.885 278.235 210.885C278.235 210.885 277.941 210.123 278.709 209.185C279.476 208.246 278.235 205.498 278.235 205.498C278.235 205.498 277.647 199.758 277.588 198.881C277.529 198.004 277.055 193.144 277.055 193.144L275.935 182.841L273.939 155.534L273.903 155.023C274.15 154.903 274.281 154.827 274.281 154.827L273.883 139.728L274.228 139.418C277.238 136.704 284.178 130.419 284.108 130.283C284.038 130.146 283.268 119.789 283.178 117.197C283.101 115.355 282.697 113.542 281.984 111.84C281.811 111.497 281.309 109.232 281.102 108.274C281.046 108.011 281.009 107.847 281.009 107.847C281.009 107.847 278.975 103.981 279.151 102.224C279.328 100.467 279.681 99.1519 275.343 98.5375C275.343 98.5375 271.701 97.9956 269.532 96.5181C268.249 95.6331 266.847 94.9335 265.368 94.4402C265.368 94.4402 264.152 92.2058 263.305 92.9627C262.947 92.1654 262.679 91.3307 262.507 90.4741L262.482 90.3177C264.088 89.2012 265.244 87.5521 265.743 85.6646C265.771 85.5585 265.794 85.4495 265.819 85.3434C265.903 85.3718 265.991 85.3878 266.08 85.3909C266.817 85.3909 267.27 84.5725 267.96 84.3128C268.24 84.2039 268.585 84.1871 268.8 83.9665C268.872 83.8814 268.925 83.7828 268.956 83.6767C268.988 83.5706 268.998 83.4592 268.985 83.3492C268.992 83.273 268.992 83.1964 268.985 83.1202C268.987 83.0932 268.987 83.0662 268.985 83.0392V83.0671C268.798 82.0505 268.007 81.1483 268.094 80.1149C268.178 79.143 269.036 78.2883 268.966 77.3415C268.965 77.2666 268.958 77.1919 268.946 77.118V77.1516C268.842 76.7819 268.649 76.4428 268.386 76.1628C268.084 75.7532 267.688 75.4218 267.231 75.1965C266.842 75.0261 266.391 74.987 266.026 74.7831C264.956 74.2022 264.959 72.6884 264.323 71.655C264.05 71.2236 263.663 70.8756 263.205 70.6494C262.747 70.4231 262.235 70.3275 261.725 70.373C260.929 70.4512 260.209 70.8729 259.422 71.0098C258.346 71.1997 257.25 70.8506 256.23 70.4512C255.21 70.0518 254.176 69.6133 253.081 69.6133C251.985 69.6133 250.8 70.1719 250.469 71.2025C250.293 71.7611 250.379 72.3616 250.245 72.9286C250.004 73.9284 249.124 74.6435 248.213 75.1406C247.653 75.4506 246.986 75.8053 246.812 76.3919C246.812 76.3751 246.812 76.3611 246.812 76.3472C246.8 76.394 246.79 76.4416 246.784 76.4896C246.779 76.5519 246.779 76.6145 246.784 76.6768C246.784 77.0789 246.997 77.4616 247.14 77.8442C247.406 78.5722 247.4 79.3714 247.123 80.0954C246.916 80.626 246.563 81.0925 246.361 81.6203C246.266 81.8662 246.204 82.1235 246.176 82.3856V82.3409C246.169 82.46 246.169 82.5794 246.176 82.6984C246.173 83.1063 246.269 83.5089 246.456 83.8715C246.585 84.1218 246.763 84.344 246.979 84.5249C247.195 84.7057 247.445 84.8416 247.715 84.9245C248.275 85.0529 248.625 84.5055 249.217 84.6452C249.322 84.6705 249.426 84.7032 249.528 84.7429C249.547 84.8686 249.567 84.9943 249.589 85.1172C249.947 86.9969 250.952 88.6931 252.431 89.9127C252.431 89.9798 252.453 90.0468 252.461 90.1166C252.64 91.2301 252.718 92.3575 252.694 93.485C252.694 93.485 251.811 92.1974 250.601 94.6832C250.601 94.6832 247.443 96.4986 246.353 96.7053C245.263 96.912 241.393 98.2554 241.393 98.2554C240.809 98.6761 240.107 98.9019 239.387 98.9006C238.179 98.9006 237.176 101.534 237.322 102.967C237.467 104.4 237.235 105.456 236.111 105.514C234.987 105.573 235.601 107.844 235.61 107.883L235.506 108.372C235.287 109.371 234.811 111.517 234.643 111.852C233.93 113.553 233.525 115.367 233.446 117.209C233.359 119.801 232.606 130.118 232.519 130.294C232.46 130.408 237.215 134.74 240.558 137.768L241.043 138.204L239.504 152.526C239.549 153.078 239.714 153.613 239.987 154.096C240.26 154.578 240.634 154.995 241.085 155.319C241.085 155.487 241.085 155.657 241.068 155.833C241.001 157.509 240.866 159.536 240.597 160.067C240.126 161.005 240.244 166.038 240.244 166.038C240.244 166.038 239.771 176.283 239.182 177.398C238.594 178.512 238.473 180.85 238.65 181.308C238.826 181.766 238.059 194.069 238.059 194.069L237.47 199.574C237.47 199.574 237.647 204.841 237.114 204.959C236.582 205.076 236.288 208.707 236.288 208.707C236.288 208.707 234.402 211.282 235.226 212.218C236.049 213.153 235.105 213.567 235.018 213.799C234.931 214.03 233.219 214.916 234.458 218.189C234.469 218.221 234.482 218.253 234.497 218.284C233.337 219.89 229.661 225.071 229.885 225.859C230.05 226.36 230.401 226.779 230.866 227.032C231.731 227.548 233.217 227.789 235.579 227.032C239.502 225.772 239.221 224.864 239.221 224.864C239.242 224.44 239.424 224.039 239.732 223.745C240.039 223.451 240.448 223.286 240.875 223.284C242.497 223.166 243.708 221.675 243.708 221.675L243.517 220.968L243.256 219.991C243.287 219.711 243.486 219.223 244.377 218.952C245.736 218.541 245.38 215.966 245.38 215.966C245.38 215.966 245.263 213.273 245.851 212.922C246.44 212.57 246.207 208.12 246.207 208.12C246.207 208.12 246.857 204.9 247.799 202.733C248.74 200.565 249.867 187.69 249.867 187.69C249.867 187.69 250.632 181.366 251.341 179.551C252.049 177.736 252.7 172.644 252.7 172.644C252.7 172.644 257.068 164.212 257.124 162.338C257.124 162.338 257.684 160.581 258.245 162.514C258.805 164.446 260.38 169.072 260.38 169.072L261.913 174.75L263.743 183.238L264.925 190.382C264.925 190.382 264.746 193.075 265.205 194.013C265.665 194.951 266.326 197.113 265.973 197.524C265.62 197.934 266.679 199.867 266.976 200.275C267.273 200.683 266.976 209.349 266.976 209.349C266.976 209.349 268.332 216.726 270.28 218.008C270.416 218.097 270.56 218.171 270.711 218.231C270.683 219.03 270.655 220.1 270.692 220.658C270.688 220.783 270.708 220.907 270.753 221.024C270.93 221.259 272.936 222.839 273.351 222.839C273.766 222.839 275.237 223.865 275.298 224.362C275.36 224.859 279.611 226.965 280.213 227.026C280.816 227.088 283.736 227.61 284.136 226.792C284.235 226.552 284.264 226.29 284.218 226.035ZM273.774 120.538L274.077 120.798C274.077 120.798 274.388 123.214 274.609 123.937C274.831 124.66 274.564 126.068 274.564 126.068C274.585 126.593 274.69 127.112 274.875 127.604C275.139 128.132 274.343 129.28 274.343 129.28H273.634L273.413 120.236L273.774 120.538ZM252.694 93.5352V93.4822C252.688 93.4989 252.686 93.5185 252.686 93.5352H252.694ZM241.808 128.35C241.699 128.116 241.683 127.849 241.763 127.604C241.826 127.472 241.876 127.333 241.911 127.191C241.999 126.824 242.053 126.45 242.074 126.074C242.074 126.069 242.074 126.064 242.074 126.06C242.049 125.926 241.822 124.63 242.032 123.943C242.242 123.255 242.562 120.803 242.562 120.803L242.763 120.633L243.231 120.228C243.231 120.228 243.231 120.077 243.265 119.828C243.363 121.951 243.441 124.297 243.315 124.415C243.08 124.646 242.222 126.928 242.43 127.018C242.497 127.048 242.405 127.962 242.248 129.191C242.071 128.927 241.924 128.645 241.808 128.35Z" fill="url(#paint1_linear_31164_107182)"/>
<path d="M264.391 95.7674V99.2419L257.24 102.825C257.24 102.825 250.14 98.5437 251.891 96.8399C253.012 95.7618 252.796 92.8013 252.494 90.7652C252.317 89.581 252.113 88.7123 252.113 88.7123C252.113 88.7123 264.868 85.0814 262.94 87.8381C262.295 88.7598 262.245 89.9524 262.461 91.1338C262.898 93.4772 264.391 95.7674 264.391 95.7674Z" fill="#D78E8E"/>
<path d="M244.801 129.737L243.879 141.055C243.879 141.055 242.498 139.806 240.71 138.181C237.395 135.167 232.688 130.857 232.744 130.743C232.831 130.567 233.584 120.3 233.666 117.719C233.742 115.887 234.142 114.083 234.848 112.39C235.016 112.055 235.49 109.921 235.689 108.924C235.756 108.614 235.798 108.413 235.798 108.413L237.345 107.793C237.345 107.793 243.79 114.96 243.79 115.091C243.79 115.222 243.35 120.727 243.35 120.727L242.893 121.124L242.694 121.294C242.694 121.294 242.386 123.699 242.167 124.42C241.949 125.14 242.184 126.391 242.209 126.526C242.189 126.902 242.135 127.276 242.049 127.643C242.013 127.784 241.963 127.921 241.901 128.053C241.822 128.298 241.838 128.563 241.946 128.796C242.07 129.12 242.232 129.428 242.428 129.715L244.801 129.737Z" fill="#003A8C"/>
<path d="M283.862 130.746C283.929 130.883 277.055 137.137 274.077 139.837L272.726 141.058L271.812 129.741H274.18C274.18 129.741 274.97 128.604 274.707 128.079C274.523 127.589 274.42 127.074 274.402 126.551C274.402 126.551 274.662 125.155 274.444 124.431C274.225 123.708 273.917 121.306 273.917 121.306L273.617 121.049L273.261 120.739C273.261 120.739 272.821 115.234 272.821 115.103C272.821 114.971 279.266 107.805 279.266 107.805L280.802 108.416C280.802 108.416 280.835 108.581 280.891 108.844C281.099 109.796 281.595 112.05 281.766 112.394C282.471 114.087 282.871 115.891 282.948 117.723C283.021 120.303 283.772 130.57 283.862 130.746Z" fill="#003A8C"/>
<path d="M283.89 226.808C283.478 227.624 280.586 227.087 279.99 227.043C279.393 226.998 275.178 224.884 275.12 224.389C275.061 223.895 273.601 222.876 273.192 222.876C272.783 222.876 270.796 221.3 270.619 221.069C270.575 220.953 270.555 220.829 270.561 220.705C270.499 219.747 270.619 217.281 270.619 217.281L279.096 217.748L283.215 223.923C283.562 224.589 283.813 225.301 283.96 226.037C284.01 226.296 283.986 226.563 283.89 226.808Z" fill="#3A416F"/>
<path opacity="0.1" d="M283.889 226.814C283.477 227.629 280.586 227.093 279.989 227.048C279.392 227.004 275.177 224.889 275.119 224.395C275.06 223.901 273.6 222.881 273.191 222.881C272.782 222.881 270.795 221.306 270.618 221.074C270.574 220.958 270.554 220.835 270.56 220.711L273.306 222.443C273.306 222.443 275.06 223.56 275.528 224.222C275.996 224.884 279.683 226.261 279.989 226.289C280.216 226.311 282.637 225.847 283.959 226.043C284.009 226.301 283.985 226.568 283.889 226.814Z" fill="black"/>
<path d="M243.819 221.715C243.819 221.715 242.619 223.201 241.017 223.315C240.594 223.319 240.188 223.484 239.884 223.776C239.579 224.069 239.399 224.467 239.38 224.888C239.38 224.888 239.66 225.793 235.785 227.047C233.445 227.798 231.974 227.561 231.117 227.047C230.657 226.794 230.309 226.377 230.144 225.879C229.881 224.949 235.054 217.869 235.054 217.869L239.761 217.59L243.124 219.104L243.639 221.022L243.819 221.715Z" fill="#3A416F"/>
<path opacity="0.1" d="M243.82 221.712C243.82 221.712 242.621 223.198 241.018 223.312C240.595 223.315 240.189 223.48 239.885 223.773C239.58 224.065 239.4 224.463 239.382 224.884C239.382 224.884 239.662 225.789 235.786 227.043C233.447 227.795 231.976 227.557 231.118 227.043C233.323 226.814 238.196 225.426 238.684 224.946C239.27 224.362 240.001 222.759 240.497 222.731C240.841 222.709 242.593 221.659 243.644 221.008L243.82 221.712Z" fill="black"/>
<path d="M279.912 215.218C279.386 216.441 279.912 218.946 279.912 218.946C279.912 218.946 272.067 219.354 270.15 218.072C268.233 216.79 266.877 209.447 266.877 209.447C266.877 209.447 267.157 200.825 266.877 200.418C266.597 200.01 265.532 198.088 265.882 197.68C266.233 197.273 265.602 195.116 265.123 194.184C264.644 193.251 264.843 190.572 264.843 190.572L263.672 183.461L261.861 175.015L260.323 169.362C260.323 169.362 258.745 164.759 258.21 162.838C257.675 160.916 257.109 162.662 257.109 162.662C257.053 164.528 252.727 172.918 252.727 172.918C252.727 172.918 252.082 177.987 251.382 179.791C250.681 181.596 249.919 187.891 249.919 187.891C249.919 187.891 248.798 200.708 247.873 202.864C246.949 205.02 246.312 208.224 246.312 208.224C246.312 208.224 246.548 212.654 245.962 213.003C245.377 213.352 245.472 216.033 245.472 216.033C245.472 216.033 245.822 218.594 244.477 219.005C243.132 219.415 243.356 220.287 243.356 220.287C243.356 220.287 235.875 221.51 234.647 218.245C233.42 214.98 235.115 214.112 235.208 213.877C235.3 213.642 236.233 213.237 235.415 212.302C234.597 211.366 236.466 208.808 236.466 208.808C236.466 208.808 236.76 205.196 237.284 205.079C237.808 204.962 237.637 199.719 237.637 199.719L238.22 194.242C238.22 194.242 238.982 182.006 238.806 181.54C238.629 181.073 238.747 178.747 239.332 177.63C239.918 176.512 240.383 166.324 240.383 166.324C240.383 166.324 240.266 161.316 240.734 160.383C241.014 159.855 241.131 157.824 241.199 156.168C241.249 154.903 241.26 153.856 241.26 153.856L247.806 151.409L256.212 148.73L263.285 152.11L273.633 154.09L273.762 155.869L275.737 183.048L276.858 193.301C276.858 193.301 277.326 198.136 277.385 199.01C277.444 199.884 278.027 205.596 278.027 205.596C278.027 205.596 279.254 208.333 278.495 209.266C277.735 210.199 278.027 210.941 278.027 210.941C278.027 210.941 280.439 213.994 279.912 215.218Z" fill="#003A8C"/>
<path opacity="0.1" d="M262.946 87.8335C262.302 88.7552 262.252 89.9478 262.467 91.1292C260.995 92.1647 259.222 92.6893 257.421 92.6221C255.62 92.555 253.891 91.9 252.5 90.7578C252.324 89.5736 252.119 88.7049 252.119 88.7049C252.119 88.7049 264.874 85.0796 262.946 87.8335Z" fill="black"/>
<path d="M265.927 84.2734C265.927 85.8919 265.446 87.4741 264.543 88.8199C263.641 90.1657 262.359 91.2145 260.859 91.8339C259.359 92.4533 257.708 92.6154 256.115 92.2996C254.523 91.9839 253.06 91.2045 251.912 90.06C250.763 88.9155 249.981 87.4574 249.665 85.8699C249.348 84.2825 249.51 82.6371 250.132 81.1417C250.753 79.6464 251.806 78.3683 253.156 77.4691C254.506 76.5699 256.093 76.0899 257.717 76.0899C258.797 76.0848 259.867 76.2929 260.865 76.7023C261.863 77.1117 262.771 77.7143 263.534 78.4753C264.297 79.2362 264.902 80.1404 265.313 81.1356C265.724 82.1308 265.932 83.1973 265.927 84.2734Z" fill="#D78E8E"/>
<path opacity="0.1" d="M267.637 97.8746L264.947 145.621L250.334 142.562L247.439 123.422L250.306 97.7266L252.464 98.0031L256.269 98.4862L260.038 98.7181L264.123 98.2656L267.637 97.8746Z" fill="black"/>
<path d="M267.637 98.2234L264.947 145.97L250.334 142.911L247.439 123.771L250.306 98.0781L252.464 98.3518L256.269 98.835L260.038 99.0668L264.123 98.6144L267.637 98.2234Z" fill="#69C0FF"/>
<path d="M255.625 99.5039L260.887 99.6799L259.408 101.744C259.408 101.744 259.512 105.914 260.215 107.109C260.918 108.305 260.711 126.772 260.711 126.772L259.31 129.422L256.914 126.451L256.945 102.068L255.625 99.5039Z" fill="#003A8C"/>
<path opacity="0.1" d="M263.866 94.0859L258.957 99.5043L261.762 102.417L266.411 97.9012L263.866 94.0859Z" fill="black"/>
<path d="M263.866 93.7344L258.957 99.1528L261.762 102.066L266.411 97.5496L263.866 93.7344Z" fill="#69C0FF"/>
<path opacity="0.1" d="M256.883 99.241L251.912 94.2891L251.444 96.881L253.725 102.562L256.883 99.241Z" fill="black"/>
<path d="M257.055 98.8934L252.087 93.9414L251.619 96.5333L253.9 102.214L257.055 98.8934Z" fill="#69C0FF"/>
<path opacity="0.1" d="M273.789 155.877C271.403 157.01 268.847 157.747 266.223 158.059C261.401 158.67 258.245 152.554 258.245 152.554L256.405 154.942C255.819 157.478 246.905 158.117 243.282 157.156C242.53 156.971 241.824 156.638 241.203 156.176C241.254 154.911 241.265 153.863 241.265 153.863L247.81 151.417L256.217 148.738L263.289 152.118L273.637 154.098L273.789 155.877Z" fill="black"/>
<path opacity="0.1" d="M267.637 98.2262L264.95 145.97L250.334 142.911L247.434 123.774L250.297 98.0781L252.455 98.3574C252.4 99.2934 252.294 100.226 252.138 101.15C251.788 102.784 253.951 114.378 253.951 114.378C253.951 114.378 258.062 127.379 259.911 125.505C261.761 123.631 264.395 113.736 264.395 113.736C266.18 110.066 264.426 99.7707 264.294 99.564C264.202 99.2595 264.146 98.9456 264.126 98.6283L267.637 98.2262Z" fill="black"/>
<path opacity="0.1" d="M273.95 135.173L274.074 139.851L272.723 141.072L271.812 129.746H273.83L273.95 135.173Z" fill="black"/>
<path opacity="0.1" d="M242.212 126.539C242.192 126.915 242.138 127.289 242.053 127.656C242.053 127.553 242.053 127.494 242.03 127.486C241.946 127.464 242.047 127.036 242.212 126.539Z" fill="black"/>
<path opacity="0.1" d="M244.803 129.743L243.881 141.06C243.881 141.06 242.5 139.812 240.712 138.186L240.925 136.181C240.925 136.181 241.679 131.254 241.953 128.824C242.078 129.148 242.239 129.456 242.435 129.743H244.803Z" fill="black"/>
<path d="M252.731 94.1138C252.731 94.1138 251.856 92.8319 250.657 95.3064C250.657 95.3064 247.53 97.1135 246.454 97.3174C245.378 97.5213 241.55 98.8619 241.55 98.8619C240.972 99.2784 240.277 99.5023 239.564 99.5015C238.364 99.5015 237.37 102.124 237.515 103.551C237.661 104.979 237.429 106.029 236.319 106.087C235.209 106.146 235.82 108.445 235.82 108.445L243.215 116.893C243.215 116.893 243.683 124.672 243.45 124.907C243.218 125.141 242.369 127.42 242.573 127.498C242.778 127.577 241.452 136.179 241.452 136.179L239.67 152.873C239.67 152.873 239.67 155.666 243.296 156.629C246.922 157.593 255.841 156.956 256.415 154.42L258.256 152.029C258.256 152.029 261.412 158.149 266.234 157.537C271.056 156.925 274.128 155.177 274.128 155.177L273.601 135.171L273.25 120.751L280.78 108.42C280.78 108.42 278.762 104.574 278.939 102.834C279.115 101.094 279.463 99.7752 275.167 99.1636C275.167 99.1636 271.544 98.6245 269.409 97.1526C268.14 96.2744 266.753 95.5787 265.29 95.0858C265.29 95.0858 264.085 92.8514 263.247 93.6167C263.247 93.6167 264.088 96.7756 264.018 97.2476C263.948 97.7196 264.149 99.8534 264.281 100.074C264.413 100.295 266.167 110.576 264.382 114.246C264.382 114.246 261.762 124.141 259.899 126.015C258.035 127.889 253.938 114.888 253.938 114.888C253.938 114.888 251.775 103.292 252.125 101.66C252.476 100.029 252.731 94.1138 252.731 94.1138Z" fill="#003A8C"/>
<path d="M258.983 132.31C259.694 132.31 260.27 131.736 260.27 131.028C260.27 130.32 259.694 129.746 258.983 129.746C258.273 129.746 257.697 130.32 257.697 131.028C257.697 131.736 258.273 132.31 258.983 132.31Z" fill="#0072EF"/>
<path d="M258.984 138.349C259.695 138.349 260.271 137.775 260.271 137.067C260.271 136.359 259.695 135.785 258.984 135.785C258.274 135.785 257.698 136.359 257.698 137.067C257.698 137.775 258.274 138.349 258.984 138.349Z" fill="#0072EF"/>
<path opacity="0.1" d="M270.543 213.469C270.543 213.469 275.822 213.877 276.346 214.284C276.87 214.692 270.543 213.469 270.543 213.469Z" fill="black" stroke="#6C63FF" stroke-miterlimit="10"/>
<path opacity="0.1" d="M239.111 209.332C239.111 209.332 240.232 210.729 239.756 211.371C239.279 212.013 239.111 209.332 239.111 209.332Z" fill="black" stroke="#6C63FF" stroke-miterlimit="10"/>
<path opacity="0.1" d="M240.457 214.369C240.457 214.369 242.503 213.028 243.321 213.919C244.139 214.81 240.457 214.369 240.457 214.369Z" fill="black" stroke="#6C63FF" stroke-miterlimit="10"/>
<path opacity="0.1" d="M265.928 84.2743C265.93 84.9726 265.841 85.6682 265.665 86.344C265.492 86.2654 265.347 86.1361 265.25 85.9734C265.153 85.8107 265.108 85.6223 265.121 85.4334C265.158 85.1011 265.379 84.7966 265.332 84.4671C265.261 83.9587 264.645 83.7521 264.32 83.3499C263.919 82.8639 264.006 82.1573 264.04 81.5288C264.073 80.9004 263.914 80.1323 263.322 79.9173C263.146 79.853 262.953 79.8475 262.782 79.7748C262.316 79.5793 262.174 79.004 261.863 78.6074C261.24 77.8086 260.005 77.8253 259.06 78.2052C258.649 78.4016 258.229 78.5769 257.799 78.7303C257.585 78.8058 257.356 78.8361 257.129 78.8193C256.902 78.8024 256.681 78.7389 256.48 78.6325C256.295 78.5152 256.146 78.3532 255.956 78.2359C255.322 77.8561 254.493 78.2359 253.944 78.7247C253.395 79.2134 252.955 79.8698 252.263 80.1687C251.951 80.3083 251.568 80.3921 251.422 80.6937C251.35 80.858 251.319 81.0372 251.332 81.216C251.332 82.3025 251.461 83.4057 251.234 84.4699C251.088 85.1541 250.606 85.9306 249.909 85.8468C249.822 85.834 249.736 85.8125 249.654 85.7826C249.444 84.6639 249.47 83.514 249.731 82.4061C249.992 81.2982 250.482 80.2567 251.17 79.3483C251.858 78.4398 252.728 77.6843 253.725 77.13C254.722 76.5757 255.824 76.2348 256.961 76.1291C258.098 76.0234 259.244 76.1552 260.327 76.5161C261.41 76.877 262.406 77.459 263.25 78.225C264.094 78.991 264.769 79.9241 265.231 80.9648C265.693 82.0054 265.933 83.1307 265.934 84.2688L265.928 84.2743Z" fill="black"/>
<path d="M249.285 85.3186C249.495 85.3661 249.694 85.475 249.91 85.503C250.608 85.5867 251.09 84.8103 251.236 84.126C251.462 83.0619 251.345 81.9586 251.336 80.8722C251.321 80.6936 251.351 80.5139 251.423 80.3499C251.583 80.0482 251.967 79.9644 252.264 79.8248C252.942 79.5232 253.385 78.8808 253.945 78.3808C254.506 77.8809 255.321 77.5122 255.954 77.8921C256.142 78.0038 256.293 78.1714 256.478 78.2887C256.681 78.3935 256.902 78.4562 257.129 78.473C257.357 78.4898 257.585 78.4604 257.801 78.3864C258.235 78.2579 258.641 78.0317 259.059 77.8613C259.995 77.4815 261.233 77.4675 261.861 78.2607C262.172 78.6601 262.315 79.2327 262.78 79.4282C262.951 79.5008 263.144 79.5092 263.321 79.5734C263.912 79.7941 264.064 80.5566 264.038 81.185C264.013 81.8134 263.929 82.52 264.318 83.006C264.644 83.4026 265.26 83.6093 265.33 84.1232C265.375 84.4528 265.156 84.76 265.12 85.0896C265.112 85.2121 265.128 85.335 265.167 85.4512C265.207 85.5675 265.27 85.6747 265.351 85.7667C265.433 85.8586 265.532 85.9335 265.643 85.987C265.754 86.0405 265.874 86.0716 265.997 86.0783C266.725 86.0783 267.177 85.2655 267.858 85.0058C268.138 84.8969 268.477 84.8801 268.698 84.6595C268.78 84.5534 268.839 84.4308 268.869 84.3001C268.899 84.1694 268.9 84.0337 268.872 83.9026C268.735 82.8329 267.874 81.9028 267.967 80.8303C268.054 79.8025 269.009 78.9059 268.807 77.8948C268.705 77.522 268.512 77.1798 268.247 76.8977C267.947 76.492 267.555 76.162 267.104 75.9342C266.714 75.7666 266.263 75.7275 265.907 75.5236C264.848 74.9454 264.851 73.4372 264.226 72.4094C263.958 71.9846 263.578 71.6416 263.127 71.418C262.676 71.1943 262.172 71.0986 261.671 71.1414C260.883 71.2196 260.169 71.6358 259.39 71.7754C258.322 71.9653 257.24 71.6162 256.229 71.2168C255.217 70.8174 254.195 70.3789 253.11 70.3789C252.026 70.3789 250.852 70.9375 250.521 71.9597C250.347 72.5183 250.434 73.116 250.3 73.6774C250.064 74.6745 249.179 75.3839 248.288 75.8783C247.674 76.219 246.937 76.6101 246.864 77.3055C246.817 77.7468 247.06 78.1434 247.215 78.5708C247.477 79.2937 247.471 80.0862 247.198 80.8051C246.993 81.333 246.651 81.7967 246.444 82.3217C246.297 82.6781 246.227 83.0616 246.24 83.4467C246.252 83.8319 246.347 84.21 246.517 84.5561C246.647 84.8085 246.828 85.0315 247.049 85.2116C247.269 85.3918 247.524 85.5251 247.797 85.6035C248.349 85.7348 248.697 85.1901 249.285 85.3186Z" fill="#3A416F"/>
<g opacity="0.1">
<path opacity="0.1" d="M251.235 83.5169C251.09 84.2012 250.605 84.9777 249.907 84.8939C249.691 84.866 249.495 84.757 249.282 84.7096C248.697 84.5811 248.349 85.1285 247.797 84.9889C247.523 84.9105 247.268 84.7772 247.047 84.5971C246.827 84.417 246.645 84.1939 246.514 83.9415C246.367 83.6572 246.279 83.3468 246.253 83.0282C246.198 83.5227 246.288 84.0227 246.514 84.4666C246.645 84.719 246.827 84.9421 247.047 85.1222C247.268 85.3023 247.523 85.4356 247.797 85.5139C248.358 85.6424 248.697 85.095 249.282 85.2346C249.487 85.3058 249.696 85.3664 249.907 85.4162C250.605 85.5028 251.09 84.7263 251.235 84.042C251.35 83.4375 251.395 82.8218 251.37 82.207C251.367 82.647 251.322 83.0856 251.235 83.5169Z" fill="black"/>
<path opacity="0.1" d="M247.398 79.3058C247.433 78.8481 247.37 78.3881 247.213 77.9568C247.086 77.67 246.978 77.3752 246.89 77.0742C246.878 77.1211 246.869 77.1687 246.862 77.2167C246.815 77.6552 247.061 78.0545 247.213 78.4819C247.311 78.7472 247.373 79.0242 247.398 79.3058Z" fill="black"/>
<path opacity="0.1" d="M268.806 77.8359C268.674 78.6292 268.029 79.3749 267.965 80.21C267.949 80.3529 267.949 80.4972 267.965 80.6401C268.105 79.6653 268.971 78.8023 268.806 77.8359Z" fill="black"/>
<path opacity="0.1" d="M268.852 83.7305C268.828 83.8473 268.773 83.9554 268.692 84.0433C268.485 84.2639 268.132 84.2807 267.852 84.3896C267.171 84.6494 266.731 85.4705 265.991 85.4621C265.802 85.4514 265.62 85.3838 265.47 85.2681C265.32 85.1525 265.209 84.9942 265.151 84.8142C265.133 84.8747 265.12 84.9363 265.111 84.9985C265.103 85.1208 265.12 85.2434 265.16 85.3593C265.2 85.4752 265.262 85.5821 265.344 85.6738C265.425 85.7654 265.524 85.8401 265.635 85.8934C265.745 85.9467 265.866 85.9777 265.988 85.9844C266.72 85.9844 267.168 85.1717 267.849 84.9147C268.129 84.8058 268.471 84.789 268.69 84.5684C268.772 84.4623 268.83 84.3397 268.86 84.209C268.89 84.0783 268.891 83.9426 268.863 83.8115C268.861 83.778 268.855 83.7556 268.852 83.7305Z" fill="black"/>
<path opacity="0.1" d="M265.338 83.4982C265.268 82.9898 264.652 82.7831 264.326 82.3809C264.127 82.1168 264.019 81.7954 264.018 81.4648C263.996 81.9843 264.004 82.515 264.326 82.906C264.649 83.2971 265.139 83.4646 265.296 83.8668C265.336 83.7482 265.35 83.6226 265.338 83.4982Z" fill="black"/>
<path opacity="0.1" d="M264.036 80.5758C264.058 79.9474 263.907 79.1793 263.316 78.9642C263.142 78.9 262.948 78.8916 262.778 78.8218C262.312 78.6263 262.167 78.0509 261.858 77.6543C261.234 76.8583 259.998 76.8723 259.056 77.2521C258.636 77.4225 258.235 77.6487 257.798 77.7772C257.583 77.8527 257.355 77.883 257.128 77.8662C256.901 77.8494 256.68 77.7858 256.478 77.6795C256.293 77.5622 256.142 77.4002 255.954 77.2828C255.318 76.903 254.489 77.2828 253.943 77.7716C253.396 78.2604 252.953 78.914 252.261 79.2156C251.947 79.3553 251.566 79.439 251.404 79.7407C251.333 79.9051 251.303 80.0844 251.317 80.263C251.317 80.3719 251.317 80.4808 251.317 80.5898C251.321 80.4772 251.348 80.3668 251.398 80.2658C251.561 79.9641 251.942 79.8803 252.256 79.7407C252.934 79.439 253.376 78.7967 253.937 78.2967C254.497 77.7968 255.313 77.4281 255.949 77.8079C256.137 77.9197 256.288 78.0872 256.473 78.2017C256.674 78.3087 256.895 78.3727 257.122 78.3895C257.35 78.4064 257.578 78.3757 257.793 78.2995C258.221 78.1475 258.641 77.9732 259.051 77.7772C259.989 77.3974 261.225 77.3806 261.853 78.1766C262.161 78.5732 262.307 79.1486 262.772 79.3441C262.943 79.4167 263.136 79.4251 263.31 79.4893C263.789 79.6681 263.98 80.2043 264.022 80.735L264.036 80.5758Z" fill="black"/>
</g>
<g opacity="0.1">
<path opacity="0.1" d="M250.235 83.4951C250.251 83.0315 250.418 82.5856 250.71 82.2245C251.002 81.8634 251.404 81.6065 251.855 81.4925C253.104 81.1881 254.415 81.2472 255.632 81.6629C258.291 82.5399 255.296 85.6959 255.296 85.6959C255.296 85.6959 253.303 87.651 251.446 86.2853C250.897 85.8719 250.513 85.2782 250.361 84.6095C250.27 84.2451 250.228 83.8704 250.235 83.4951Z" fill="black"/>
<path opacity="0.1" d="M264.854 83.4947C264.838 83.0307 264.671 82.5846 264.378 82.2234C264.085 81.8623 263.683 81.6056 263.231 81.4921C261.983 81.1882 260.673 81.2473 259.457 81.6625C256.798 82.5395 259.793 85.6956 259.793 85.6956C259.793 85.6956 261.783 87.6506 263.643 86.2849C264.192 85.8715 264.576 85.2778 264.728 84.6091C264.819 84.2447 264.861 83.8701 264.854 83.4947Z" fill="black"/>
<path opacity="0.1" d="M255.131 81.408V81.5392H259.987V81.3828L255.131 81.408Z" fill="black"/>
<path opacity="0.1" d="M256.681 82.8043H256.835V82.3602C256.835 82.3602 257.329 81.9775 258.147 82.3602V82.7568H258.427V82.497H258.29C258.29 82.497 258.346 81.958 257.432 82.0446C257.432 82.0446 256.698 81.9747 256.715 82.4384H256.547L256.681 82.8043Z" fill="black"/>
</g>
<path d="M250.235 83.3178C250.251 82.8542 250.418 82.4084 250.71 82.0473C251.002 81.6861 251.404 81.4293 251.855 81.3152C253.105 81.0128 254.415 81.0719 255.632 81.4856C258.291 82.3654 255.296 85.5187 255.296 85.5187C255.296 85.5187 253.304 87.4738 251.446 86.108C250.896 85.6956 250.511 85.1015 250.361 84.4322C250.27 84.0679 250.228 83.6932 250.235 83.3178Z" fill="#6C63FF"/>
<path d="M264.855 83.3179C264.839 82.8539 264.672 82.4078 264.379 82.0466C264.086 81.6855 263.684 81.4288 263.232 81.3153C261.984 81.0128 260.674 81.0719 259.458 81.4857C256.799 82.3655 259.794 85.5188 259.794 85.5188C259.794 85.5188 261.784 87.4738 263.644 86.1081C264.194 85.6957 264.579 85.1016 264.729 84.4323C264.82 84.068 264.862 83.6933 264.855 83.3179Z" fill="#6C63FF"/>
<path d="M255.132 81.2322V81.3662H259.988V81.207L255.132 81.2322Z" fill="#6C63FF"/>
<path d="M256.68 82.6319H256.835V82.1878C256.835 82.1878 257.328 81.8079 258.146 82.1878V82.5872H258.426V82.3246H258.289C258.289 82.3246 258.345 81.7884 257.431 81.8722C257.431 81.8722 256.697 81.8051 256.714 82.266H256.546L256.68 82.6319Z" fill="#6C63FF"/>
<path d="M34.5047 127.691H32.9131V163.414H34.5047V127.691Z" fill="#535461"/>
<path d="M44.5092 163.309L44.4083 164.918L44.2682 167.188L44.2093 168.135L44.0692 170.409L44.0076 171.355L43.8675 173.626L42.2619 199.453C42.1934 200.564 41.7022 201.608 40.8883 202.371C40.0745 203.134 38.9994 203.558 37.8822 203.559H29.5375C28.4206 203.558 27.3458 203.134 26.5325 202.371C25.7191 201.608 25.2285 200.564 25.1607 199.453L23.5466 173.626L23.4065 171.355L23.3477 170.409L23.2104 168.129L23.1516 167.183L23.0114 164.912L22.9106 163.303C22.8914 162.994 22.936 162.685 23.0414 162.394C23.1468 162.103 23.3109 161.837 23.5236 161.611C23.7362 161.386 23.9929 161.207 24.2779 161.084C24.5628 160.961 24.8699 160.898 25.1803 160.898H42.2423C42.553 160.898 42.8605 160.961 43.1457 161.084C43.4309 161.207 43.6877 161.388 43.9002 161.614C44.1127 161.839 44.2764 162.107 44.3812 162.398C44.4859 162.69 44.5295 163 44.5092 163.309Z" fill="#262626"/>
<path d="M44.4074 164.914L44.2673 167.185H23.1479L23.0078 164.914H44.4074Z" fill="#8C8C8C"/>
<path d="M44.2087 168.133L44.0686 170.406H23.3499L23.207 168.133H44.2087Z" fill="#8C8C8C"/>
<path d="M44.0074 171.352L43.8673 173.622H23.5521L23.4092 171.352H44.0074Z" fill="#8C8C8C"/>
<path d="M20.5784 141.086C29.8477 147.769 33.709 158.226 33.709 158.226C33.709 158.226 22.537 157.844 13.2537 151.16C3.97033 144.476 0.123047 134.02 0.123047 134.02C0.123047 134.02 11.3062 134.402 20.5784 141.086Z" fill="#00B140"/>
<path d="M0.138672 134.02C0.138672 134.02 11.7338 140.443 15.4521 145.75C19.1705 151.057 33.7106 158.229 33.7106 158.229" stroke="#535461" stroke-width="2" stroke-miterlimit="10"/>
<path d="M26.5609 127.627C31.6046 131.258 33.709 136.956 33.709 136.956C33.709 136.956 27.6285 136.749 22.5819 133.11C17.5353 129.471 15.4365 123.781 15.4365 123.781C15.4365 123.781 21.5171 123.974 26.5609 127.627Z" fill="#00B140"/>
<path d="M15.4365 123.766C15.4365 123.766 21.7469 127.257 23.77 130.148C25.7931 133.038 33.709 136.94 33.709 136.94" stroke="#535461" stroke-width="2" stroke-miterlimit="10"/>
<path d="M41.0426 136.657C35.245 143.005 34.0205 151.301 34.0205 151.301C34.0205 151.301 42.1914 149.304 47.9862 142.955C53.7809 136.607 55.0082 128.309 55.0082 128.309C55.0082 128.309 46.8373 130.306 41.0426 136.657Z" fill="#00B140"/>
<path d="M55.0082 128.309C55.0082 128.309 47.4594 134.816 45.5399 139.302C43.6205 143.787 34.0205 151.312 34.0205 151.312" stroke="#535461" stroke-width="2" stroke-miterlimit="10"/>
</g>
<defs>
<linearGradient id="paint0_linear_31164_107182" x1="165.688" y1="180.453" x2="165.688" y2="30.0977" gradientUnits="userSpaceOnUse">
<stop stop-color="#808080" stop-opacity="0.25"/>
<stop offset="0.54" stop-color="#808080" stop-opacity="0.12"/>
<stop offset="1" stop-color="#808080" stop-opacity="0.1"/>
</linearGradient>
<linearGradient id="paint1_linear_31164_107182" x1="51568.1" y1="135022" x2="51568.1" y2="45748.6" gradientUnits="userSpaceOnUse">
<stop stop-color="#808080" stop-opacity="0.25"/>
<stop offset="0.54" stop-color="#808080" stop-opacity="0.12"/>
<stop offset="1" stop-color="#808080" stop-opacity="0.1"/>
</linearGradient>
<clipPath id="clip0_31164_107182">
<rect width="321" height="229" fill="white"/>
</clipPath>
</defs>
</svg>
