<svg width="32" height="37" viewBox="0 0 32 37" fill="none" xmlns="http://www.w3.org/2000/svg">
<path d="M22.9392 9.68172H22.7789V5.19217C22.7789 4.85094 22.7131 4.51306 22.5853 4.1978C22.4575 3.88254 22.2702 3.59609 22.0341 3.35481C21.7979 3.11352 21.5176 2.92212 21.2091 2.79154C20.9006 2.66096 20.5699 2.59375 20.236 2.59375H10.9276C10.5937 2.59375 10.263 2.66096 9.95453 2.79154C9.64601 2.92212 9.36569 3.11352 9.12956 3.35481C8.89343 3.59609 8.70612 3.88254 8.57833 4.1978C8.45054 4.51306 8.38477 4.85094 8.38477 5.19217V29.8221C8.38477 30.1634 8.45054 30.5013 8.57833 30.8165C8.70612 31.1318 8.89343 31.4182 9.12956 31.6595C9.36569 31.9008 9.64601 32.0922 9.95453 32.2228C10.263 32.3534 10.5937 32.4206 10.9276 32.4206H20.236C20.5699 32.4206 20.9006 32.3534 21.2091 32.2228C21.5176 32.0922 21.7979 31.9008 22.0341 31.6595C22.2702 31.4182 22.4575 31.1318 22.5853 30.8165C22.7131 30.5013 22.7789 30.1634 22.7789 29.8221V12.8774H22.9392V9.68172Z" fill="#3A416F"/>
<path d="M22.2392 5.214V29.8075C22.2387 30.0952 22.176 30.3792 22.0554 30.6391C21.9349 30.899 21.7595 31.1284 21.5418 31.3109C21.4937 31.3512 21.4435 31.3889 21.3915 31.4238C21.0801 31.6358 20.7142 31.7487 20.3401 31.7481H10.987C10.8353 31.7484 10.6843 31.7299 10.537 31.693C10.1237 31.59 9.75617 31.3482 9.4934 31.0063C9.23064 30.6644 9.08784 30.2423 9.08789 29.8075V5.214C9.08794 4.69935 9.28803 4.20578 9.64417 3.84187C10.0003 3.47795 10.4833 3.27348 10.987 3.27344H12.1219C12.066 3.41341 12.0447 3.56527 12.0598 3.71565C12.0749 3.86602 12.1259 4.0103 12.2085 4.13576C12.291 4.26122 12.4024 4.36401 12.533 4.43508C12.6636 4.50615 12.8092 4.54331 12.9572 4.54329H18.2896C18.4375 4.54312 18.583 4.50585 18.7135 4.43475C18.844 4.36364 18.9554 4.26088 19.038 4.13549C19.1205 4.0101 19.1716 3.86592 19.1869 3.71561C19.2021 3.5653 19.181 3.41346 19.1254 3.27344H20.3401C20.8437 3.27348 21.3268 3.47795 21.6829 3.84187C22.039 4.20578 22.2391 4.69935 22.2392 5.214Z" fill="#40A9FF"/>
<path d="M13.7012 21.8064C13.7012 21.8064 14.6193 24.4124 13.9052 25.8718C13.1911 27.3312 15.0273 28.999 15.0273 28.999C15.0273 28.999 19.822 26.4972 19.2099 25.2463C18.5978 23.9954 17.5777 22.3276 17.7817 21.2852L13.7012 21.8064Z" fill="#FFB8B8"/>
<path d="M15.4851 22.7965C17.288 22.7965 18.7496 21.303 18.7496 19.4607C18.7496 17.6185 17.288 16.125 15.4851 16.125C13.6822 16.125 12.2207 17.6185 12.2207 19.4607C12.2207 21.303 13.6822 22.7965 15.4851 22.7965Z" fill="#FFB8B8"/>
<path d="M21.8322 31.1627C21.7464 31.2746 21.6488 31.3765 21.5412 31.4667C21.493 31.507 21.4429 31.5447 21.3908 31.5795C21.0896 31.7844 20.7285 31.8488 20.3394 31.8488H12.0781L12.2209 27.797L13.1392 25.7121C13.3454 25.8774 13.566 26.0228 13.7983 26.1466C13.8533 26.1769 13.9115 26.2072 13.9724 26.2369C14.8324 26.6615 16.2384 27.0349 17.6013 25.9952C18.0303 25.6681 18.4549 25.2006 18.8575 24.5508L21.4021 26.0249L21.5358 27.6219L21.8322 31.1627Z" fill="white"/>
<path d="M14.1673 24.1523L14.0396 25.5164L13.9722 26.2372L13.8715 27.3104L13.4409 31.9041H10.9862C10.8346 31.9044 10.6835 31.8859 10.5362 31.8491L9.56836 27.2757L9.59638 27.257L14.1673 24.1523Z" fill="#003A8C"/>
<path d="M22.2384 25.0919V29.9659C22.2379 30.2536 22.1752 30.5375 22.0546 30.7975C21.9341 31.0574 21.7587 31.2868 21.541 31.4692C21.4929 31.5095 21.4427 31.5472 21.3907 31.5821C21.0793 31.7942 20.7134 31.9071 20.3393 31.9065H17.0547C17.1264 30.3662 17.253 28.8629 17.4012 27.5534C17.4648 26.9956 17.5322 26.473 17.6011 25.9978C17.8232 24.4658 18.0613 23.4256 18.2322 23.2852L19.3617 24.0467L22.2384 25.0919Z" fill="#003A8C"/>
<path d="M11.9155 31.0327L11.798 31.9082H10.987C10.8353 31.9085 10.6843 31.89 10.537 31.8532C10.1237 31.7502 9.75617 31.5083 9.4934 31.1665C9.23064 30.8246 9.08784 30.4024 9.08789 29.9677V29.7915L9.46727 27.2799L9.59715 27.2611L10.1813 27.1758L11.9155 31.0327Z" fill="#003A8C"/>
<path d="M22.2373 25.7266V29.9651C22.2369 30.2527 22.1742 30.5367 22.0536 30.7966C21.933 31.0565 21.7576 31.286 21.54 31.4684C21.4919 31.5087 21.4417 31.5464 21.3896 31.5813L20.8906 29.3621L21.5346 27.6236L22.2373 25.7266Z" fill="#003A8C"/>
<path d="M18.597 16.4431C18.1033 15.624 17.3307 15.0203 16.4276 14.7484L15.7644 15.2906L16.0222 14.6582C15.8054 14.6244 15.5859 14.6115 15.3667 14.6195L14.7699 15.4035L15.0169 14.6464C13.9858 14.7807 13.0055 15.3546 12.4113 16.2301C11.6517 17.3492 11.5236 18.9056 12.2706 20.0334C12.4757 19.3894 12.7246 18.7852 12.9296 18.1412C12.9769 18.1619 13.1563 18.1606 13.4155 18.1436L13.665 17.5488L13.7347 18.1185C14.508 18.0496 15.655 17.8985 16.3881 17.76L16.3168 17.3229L16.7433 17.6861C16.968 17.6333 17.1013 17.5854 17.0903 17.5488C17.6355 18.447 18.1758 19.0206 18.721 19.9188C18.928 18.6519 19.2933 17.5988 18.597 16.4431Z" fill="#2F2E41"/>
<path d="M18.4163 19.8056C18.5383 19.8056 18.6373 19.6034 18.6373 19.354C18.6373 19.1045 18.5383 18.9023 18.4163 18.9023C18.2943 18.9023 18.1953 19.1045 18.1953 19.354C18.1953 19.6034 18.2943 19.8056 18.4163 19.8056Z" fill="#FFB8B8"/>
<path opacity="0.2" d="M10.9743 10.2144C10.7611 10.2144 10.5527 10.1498 10.3755 10.0288C10.1982 9.90778 10.0601 9.73577 9.97853 9.53453C9.89695 9.33328 9.87561 9.11184 9.91719 8.8982C9.95878 8.68456 10.0614 8.48832 10.2122 8.3343C10.3629 8.18027 10.5549 8.07538 10.764 8.03288C10.9731 7.99039 11.1898 8.0122 11.3867 8.09555C11.5837 8.17891 11.752 8.32007 11.8704 8.50119C11.9889 8.6823 12.0521 8.89524 12.0521 9.11306C12.0518 9.40506 11.9381 9.68499 11.736 9.89146C11.534 10.0979 11.26 10.2141 10.9743 10.2144ZM10.9743 8.12185C10.7824 8.12185 10.5949 8.17999 10.4354 8.2889C10.2759 8.39782 10.1515 8.55262 10.0781 8.73374C10.0047 8.91486 9.98548 9.11416 10.0229 9.30644C10.0603 9.49871 10.1527 9.67533 10.2884 9.81395C10.424 9.95258 10.5969 10.047 10.785 10.0852C10.9732 10.1235 11.1682 10.1038 11.3455 10.0288C11.5227 9.9538 11.6742 9.82675 11.7808 9.66375C11.8874 9.50075 11.9443 9.30911 11.9443 9.11306C11.944 8.85027 11.8417 8.59832 11.6599 8.4125C11.478 8.22668 11.2315 8.12215 10.9743 8.12185Z" fill="black"/>
<path opacity="0.2" d="M10.5445 9.00618C10.6338 9.00618 10.7062 8.93222 10.7062 8.84098C10.7062 8.74974 10.6338 8.67578 10.5445 8.67578C10.4552 8.67578 10.3828 8.74974 10.3828 8.84098C10.3828 8.93222 10.4552 9.00618 10.5445 9.00618Z" fill="black"/>
<path opacity="0.2" d="M11.3511 9.00618C11.4404 9.00618 11.5128 8.93222 11.5128 8.84098C11.5128 8.74974 11.4404 8.67578 11.3511 8.67578C11.2618 8.67578 11.1895 8.74974 11.1895 8.84098C11.1895 8.93222 11.2618 9.00618 11.3511 9.00618Z" fill="black"/>
<path opacity="0.2" d="M11.3505 9.50076H10.5422C10.5279 9.50076 10.5142 9.49496 10.5041 9.48463C10.494 9.4743 10.4883 9.4603 10.4883 9.44569C10.4883 9.43109 10.494 9.41708 10.5041 9.40675C10.5142 9.39643 10.5279 9.39062 10.5422 9.39062H11.3505C11.3648 9.39062 11.3785 9.39643 11.3886 9.40675C11.3987 9.41708 11.4044 9.43109 11.4044 9.44569C11.4044 9.4603 11.3987 9.4743 11.3886 9.48463C11.3785 9.49496 11.3648 9.50076 11.3505 9.50076Z" fill="black"/>
<path opacity="0.2" d="M20.3512 10.2144C20.1381 10.2144 19.9297 10.1498 19.7524 10.0288C19.5752 9.90778 19.4371 9.73577 19.3555 9.53453C19.2739 9.33328 19.2526 9.11184 19.2941 8.8982C19.3357 8.68456 19.4384 8.48832 19.5891 8.3343C19.7398 8.18027 19.9319 8.07538 20.141 8.03288C20.35 7.99039 20.5668 8.0122 20.7637 8.09555C20.9606 8.17891 21.129 8.32007 21.2474 8.50119C21.3658 8.6823 21.429 8.89524 21.429 9.11306C21.4287 9.40506 21.3151 9.685 21.113 9.89147C20.9109 10.0979 20.637 10.2141 20.3512 10.2144ZM20.3512 8.12185C20.1594 8.12185 19.9718 8.17999 19.8123 8.2889C19.6528 8.39782 19.5285 8.55262 19.4551 8.73374C19.3816 8.91486 19.3624 9.11416 19.3999 9.30644C19.4373 9.49871 19.5297 9.67533 19.6653 9.81395C19.801 9.95258 19.9738 10.047 20.162 10.0852C20.3502 10.1235 20.5452 10.1038 20.7224 10.0288C20.8997 9.9538 21.0512 9.82675 21.1578 9.66375C21.2644 9.50075 21.3213 9.30911 21.3213 9.11306C21.321 8.85027 21.2187 8.59833 21.0368 8.4125C20.855 8.22668 20.6084 8.12215 20.3512 8.12185Z" fill="black"/>
<path opacity="0.2" d="M19.9195 9.00618C20.0088 9.00618 20.0812 8.93222 20.0812 8.84098C20.0812 8.74974 20.0088 8.67578 19.9195 8.67578C19.8302 8.67578 19.7578 8.74974 19.7578 8.84098C19.7578 8.93222 19.8302 9.00618 19.9195 9.00618Z" fill="black"/>
<path opacity="0.2" d="M20.7281 9.00618C20.8174 9.00618 20.8897 8.93222 20.8897 8.84098C20.8897 8.74974 20.8174 8.67578 20.7281 8.67578C20.6388 8.67578 20.5664 8.74974 20.5664 8.84098C20.5664 8.93222 20.6388 9.00618 20.7281 9.00618Z" fill="black"/>
<path opacity="0.2" d="M20.7275 9.61172C20.7181 9.61172 20.7088 9.60919 20.7007 9.60438C20.5879 9.53128 20.457 9.49246 20.3234 9.49246C20.1898 9.49246 20.059 9.53128 19.9461 9.60438C19.94 9.60801 19.9332 9.61037 19.9262 9.61132C19.9192 9.61226 19.912 9.61179 19.9052 9.60991C19.8983 9.60804 19.8919 9.6048 19.8863 9.60039C19.8807 9.59598 19.876 9.59047 19.8724 9.5842C19.8689 9.57792 19.8666 9.57099 19.8657 9.56381C19.8648 9.55663 19.8653 9.54933 19.8671 9.54234C19.869 9.53535 19.8721 9.5288 19.8765 9.52307C19.8808 9.51734 19.8862 9.51253 19.8923 9.50893C20.0217 9.42651 20.171 9.38281 20.3234 9.38281C20.4758 9.38281 20.6252 9.42651 20.7545 9.50893C20.7648 9.51498 20.7728 9.52434 20.7774 9.53555C20.7819 9.54675 20.7827 9.55919 20.7796 9.57091C20.7766 9.58263 20.7698 9.59298 20.7604 9.60037C20.7509 9.60775 20.7394 9.61174 20.7275 9.61172Z" fill="black"/>
<path d="M15.7176 11.3549C15.2848 11.3549 14.8617 11.2238 14.5018 10.9781C14.142 10.7324 13.8615 10.3832 13.6959 9.97458C13.5302 9.56599 13.4869 9.11639 13.5713 8.68264C13.6558 8.24889 13.8642 7.85046 14.1702 7.53774C14.4763 7.22502 14.8662 7.01206 15.2906 6.92578C15.7151 6.8395 16.1551 6.88378 16.555 7.05302C16.9548 7.22227 17.2966 7.50887 17.537 7.87659C17.7775 8.2443 17.9058 8.67662 17.9058 9.11887C17.9051 9.71171 17.6744 10.2801 17.2641 10.6993C16.8539 11.1185 16.2977 11.3543 15.7176 11.3549ZM15.7176 7.10642C15.328 7.10642 14.9473 7.22445 14.6234 7.44558C14.2995 7.66671 14.0471 7.98101 13.898 8.34874C13.749 8.71647 13.71 9.12111 13.786 9.51149C13.862 9.90186 14.0495 10.2604 14.325 10.5419C14.6004 10.8233 14.9513 11.015 15.3333 11.0927C15.7154 11.1703 16.1114 11.1305 16.4712 10.9781C16.8311 10.8258 17.1387 10.5679 17.3551 10.2369C17.5715 9.90599 17.687 9.5169 17.687 9.11887C17.6864 8.58532 17.4787 8.0738 17.1095 7.69652C16.7403 7.31924 16.2397 7.10702 15.7176 7.10642V7.10642Z" fill="white"/>
<path d="M14.8419 8.89347C15.0232 8.89347 15.1701 8.74331 15.1701 8.55806C15.1701 8.37282 15.0232 8.22266 14.8419 8.22266C14.6606 8.22266 14.5137 8.37282 14.5137 8.55806C14.5137 8.74331 14.6606 8.89347 14.8419 8.89347Z" fill="white"/>
<path d="M16.4825 8.89347C16.6638 8.89347 16.8108 8.74331 16.8108 8.55806C16.8108 8.37282 16.6638 8.22266 16.4825 8.22266C16.3013 8.22266 16.1543 8.37282 16.1543 8.55806C16.1543 8.74331 16.3013 8.89347 16.4825 8.89347Z" fill="white"/>
<path d="M15.7182 10.2083C15.4239 10.2083 15.1119 10.0993 14.7822 9.88127C14.7579 9.86513 14.7408 9.83978 14.7348 9.81081C14.7288 9.78183 14.7343 9.7516 14.75 9.72675C14.7658 9.70189 14.7906 9.68445 14.8189 9.67825C14.8473 9.67206 14.8769 9.67761 14.9012 9.6937C15.4811 10.0779 15.9753 10.0806 16.4122 9.70221C16.4343 9.68309 16.463 9.67372 16.4918 9.67617C16.5207 9.67863 16.5475 9.6927 16.5662 9.71529C16.585 9.73789 16.5942 9.76717 16.5918 9.79669C16.5895 9.82622 16.5757 9.85358 16.5536 9.87276C16.2955 10.0965 16.0162 10.2083 15.7182 10.2083Z" fill="white"/>
<path d="M19.3267 12.8089H17.9043V12.5853H19.1078V11.3555H19.3267V12.8089Z" fill="white"/>
<path d="M12.3243 6.87922H12.1055V5.42578H13.5278V5.64939H12.3243V6.87922Z" fill="white"/>
</svg>
