<svg width="32" height="33" viewBox="0 0 32 33" fill="none" xmlns="http://www.w3.org/2000/svg">
<g clip-path="url(#clip0_31164_107174)">
<path d="M31.52 20.6208C29.383 29.1923 20.701 34.4083 12.1285 32.2713C3.55999 30.1343 -1.65651 21.4523 0.48099 12.8813C2.61699 4.3088 11.2985 -0.908202 19.8685 1.2288C28.4405 3.3658 33.6565 12.0488 31.5195 20.6208H31.52Z" fill="#F7931A"/>
<path d="M23.0546 14.4697C23.3726 12.3407 21.7516 11.1962 19.5351 10.4327L20.2541 7.54872L18.4981 7.11122L17.7981 9.91922C17.3371 9.80422 16.8631 9.69572 16.3921 9.58822L17.0971 6.76172L15.3426 6.32422L14.6231 9.20722C14.2411 9.12022 13.8661 9.03422 13.5021 8.94372L13.5041 8.93472L11.0831 8.33022L10.6161 10.2052C10.6161 10.2052 11.9186 10.5037 11.8911 10.5222C12.6021 10.6997 12.7311 11.1702 12.7091 11.5432L11.8901 14.8287C11.9391 14.8412 12.0026 14.8592 12.0726 14.8872L11.8876 14.8412L10.7391 19.4437C10.6521 19.6597 10.4316 19.9837 9.93461 19.8607C9.95211 19.8862 8.65861 19.5422 8.65861 19.5422L7.78711 21.5522L10.0721 22.1217C10.4971 22.2282 10.9136 22.3397 11.3231 22.4447L10.5966 25.3622L12.3501 25.7997L13.0701 22.9137C13.5486 23.0437 14.0136 23.1637 14.4686 23.2767L13.7516 26.1492L15.5071 26.5867L16.2336 23.6752C19.2271 24.2417 21.4786 24.0132 22.4251 21.3062C23.1886 19.1262 22.3876 17.8687 20.8126 17.0482C21.9596 16.7827 22.8236 16.0282 23.0541 14.4697H23.0546ZM19.0431 20.0942C18.5001 22.2742 14.8301 21.0962 13.6396 20.8002L14.6036 16.9357C15.7936 17.2327 19.6091 17.8207 19.0436 20.0942H19.0431ZM19.5856 14.4382C19.0906 16.4212 16.0356 15.4137 15.0441 15.1667L15.9181 11.6617C16.9096 11.9087 20.1016 12.3697 19.5856 14.4382Z" fill="white"/>
</g>
<defs>
<clipPath id="clip0_31164_107174">
<rect width="32" height="32" fill="white" transform="translate(0 0.75)"/>
</clipPath>
</defs>
</svg>
