<svg width="64" height="28" viewBox="0 0 64 28" fill="none" xmlns="http://www.w3.org/2000/svg">
<path d="M4.49775 11.0605C4.49775 10.3672 5.06662 10.1005 6.009 10.1005C7.36 10.1005 9.06663 10.5095 10.4178 11.2384V7.0605C8.94225 6.47387 7.4845 6.24275 6.009 6.24275C2.4 6.24275 0 8.12725 0 11.274C0 16.1805 6.7555 15.3984 6.7555 17.514C6.7555 18.3316 6.0445 18.5984 5.04887 18.5984C3.57337 18.5984 1.68887 17.9939 0.1955 17.1761V21.4072C1.84888 22.1184 3.52 22.4205 5.04887 22.4205C8.74662 22.4205 11.2889 20.5895 11.2889 17.4072C11.2711 12.1095 4.49775 13.0516 4.49775 11.0605ZM16.5155 2.68725L12.1777 3.61162L12.16 17.8516C12.16 20.4829 14.1334 22.4205 16.7645 22.4205C18.2222 22.4205 19.2889 22.1539 19.8755 21.8339V18.225C19.3067 18.4561 16.4977 19.2739 16.4977 16.6427V10.3316H19.8755V6.545H16.4977L16.5155 2.68725ZM25.4045 7.8605L25.12 6.545H21.28V22.1005H25.7245V11.5584C26.7733 10.1895 28.5511 10.4384 29.1022 10.6339V6.545C28.5334 6.33162 26.4534 5.9405 25.4045 7.8605ZM30.1866 6.545H34.6489V22.1005H30.1866V6.545ZM30.1866 5.19387L34.6489 4.23387V0.625L30.1866 1.56725V5.19375V5.19387ZM43.9289 6.24275C42.1866 6.24275 41.0666 7.0605 40.4445 7.6295L40.2132 6.52725H36.3022V27.256L40.7466 26.3139L40.7645 21.2827C41.4045 21.745 42.3466 22.4027 43.9111 22.4027C47.0934 22.4027 49.9911 19.8427 49.9911 14.2072C49.9734 9.05162 47.04 6.24275 43.9289 6.24275ZM42.8623 18.4916C41.8134 18.4916 41.191 18.1184 40.7645 17.6561L40.7466 11.0605C41.2089 10.545 41.8489 10.1895 42.8623 10.1895C44.48 10.1895 45.6 12.0027 45.6 14.3316C45.6 16.7139 44.4977 18.4916 42.8623 18.4916ZM64 14.385C64 9.83387 61.7955 6.24275 57.5822 6.24275C53.351 6.24275 50.791 9.834 50.791 14.3495C50.791 19.7005 53.8134 22.4027 58.151 22.4027C60.2666 22.4027 61.8666 21.9227 63.0755 21.2472V17.6916C61.8667 18.2961 60.48 18.6695 58.72 18.6695C56.9955 18.6695 55.4666 18.065 55.2711 15.9672H63.9645C63.9645 15.736 64 14.8116 64 14.385ZM55.2178 12.6961C55.2178 10.6872 56.4445 9.85162 57.5645 9.85162C58.6489 9.85162 59.8045 10.6872 59.8045 12.6961H55.2178Z" fill="#6772E5"/>
</svg>
