<svg width="100" height="27" viewBox="0 0 100 27" fill="none" xmlns="http://www.w3.org/2000/svg">
<path d="M37.4205 6.54297H31.894C31.711 6.54285 31.5341 6.60808 31.3949 6.72691C31.2558 6.84573 31.1637 7.01033 31.1352 7.19105L28.9001 21.3624C28.8898 21.4282 28.8939 21.4954 28.9121 21.5594C28.9303 21.6234 28.9621 21.6827 29.0054 21.7333C29.0487 21.7838 29.1025 21.8244 29.163 21.8521C29.2235 21.8799 29.2893 21.8942 29.3558 21.8941H31.9942C32.1773 21.8942 32.3544 21.8289 32.4935 21.7099C32.6326 21.5909 32.7247 21.4261 32.753 21.2452L33.3558 17.423C33.3841 17.2423 33.476 17.0776 33.615 16.9586C33.754 16.8397 33.9309 16.7742 34.1138 16.7741H35.8633C39.5037 16.7741 41.6047 15.0125 42.1534 11.5216C42.4007 9.99429 42.1639 8.79429 41.4488 7.95388C40.6633 7.03105 39.2702 6.54297 37.4205 6.54297ZM38.0581 11.7187C37.7558 13.7018 36.2407 13.7018 34.7756 13.7018H33.9417L34.5267 9.99833C34.5439 9.88998 34.5991 9.7913 34.6825 9.72005C34.7659 9.6488 34.872 9.60965 34.9817 9.60964H35.3639C36.3619 9.60964 37.3033 9.60964 37.7898 10.1785C38.0799 10.5179 38.1688 11.0222 38.0581 11.7187ZM53.9401 11.6549H51.2937C51.184 11.6549 51.0779 11.6941 50.9945 11.7653C50.9111 11.8366 50.8558 11.9352 50.8387 12.0436L50.7215 12.7838L50.5365 12.5155C49.9636 11.684 48.686 11.406 47.4108 11.406C44.4864 11.406 41.9886 13.621 41.5021 16.7281C41.2492 18.278 41.6088 19.76 42.488 20.7935C43.2944 21.7438 44.4484 22.1398 45.8213 22.1398C48.1777 22.1398 49.4844 20.6246 49.4844 20.6246L49.3664 21.36C49.3559 21.4257 49.3597 21.493 49.3777 21.5571C49.3957 21.6212 49.4273 21.6806 49.4705 21.7313C49.5137 21.782 49.5673 21.8228 49.6277 21.8507C49.6882 21.8787 49.7539 21.8932 49.8205 21.8933H52.2044C52.3874 21.8934 52.5645 21.8281 52.7037 21.7091C52.8428 21.5901 52.9348 21.4253 52.9632 21.2444L54.3935 12.1866C54.404 12.121 54.4002 12.0539 54.3822 11.9899C54.3643 11.926 54.3327 11.8667 54.2895 11.8161C54.2464 11.7655 54.1929 11.725 54.1326 11.6971C54.0722 11.6693 54.0066 11.6549 53.9401 11.6549ZM50.2512 16.8056C49.9959 18.3176 48.7959 19.3325 47.2654 19.3325C46.4969 19.3325 45.8827 19.086 45.4884 18.619C45.0973 18.1551 44.9486 17.4949 45.073 16.7596C45.3114 15.2606 46.5316 14.2125 48.0387 14.2125C48.7902 14.2125 49.4011 14.4622 49.8036 14.9333C50.2068 15.4093 50.3668 16.0735 50.2512 16.8056ZM68.0347 11.6549H65.3753C65.2499 11.6551 65.1264 11.6859 65.0156 11.7446C64.9048 11.8033 64.81 11.8882 64.7394 11.9919L61.0715 17.3947L59.5167 12.2028C59.469 12.0444 59.3716 11.9057 59.2388 11.807C59.1061 11.7083 58.9451 11.655 58.7797 11.6549H56.1664C56.093 11.6547 56.0207 11.672 55.9554 11.7054C55.8901 11.7389 55.8337 11.7874 55.7909 11.847C55.7482 11.9066 55.7203 11.9755 55.7095 12.0481C55.6988 12.1207 55.7055 12.1948 55.7292 12.2642L58.6585 20.8606L55.9046 24.7483C55.8556 24.8172 55.8266 24.8983 55.8207 24.9826C55.8147 25.0669 55.8321 25.1513 55.8709 25.2264C55.9097 25.3015 55.9685 25.3645 56.0407 25.4084C56.1129 25.4524 56.1958 25.4756 56.2803 25.4756H58.9365C59.0605 25.4757 59.1827 25.4458 59.2927 25.3884C59.4026 25.331 59.4969 25.2477 59.5676 25.1459L68.4129 12.3781C68.4608 12.3091 68.489 12.2282 68.4942 12.1443C68.4995 12.0603 68.4816 11.9766 68.4427 11.9021C68.4037 11.8276 68.3451 11.7651 68.2732 11.7216C68.2013 11.678 68.1188 11.6549 68.0347 11.6549Z" fill="#253B80"/>
<path d="M76.8376 6.53987H71.3103C71.1275 6.53995 70.9507 6.60526 70.8118 6.72407C70.6728 6.84287 70.5808 7.00737 70.5523 7.18795L68.3172 21.3593C68.3068 21.4249 68.3107 21.4921 68.3288 21.556C68.3468 21.62 68.3785 21.6793 68.4217 21.7298C68.4649 21.7804 68.5185 21.821 68.5788 21.8488C68.6392 21.8766 68.7049 21.891 68.7713 21.891H71.6077C71.7357 21.8908 71.8593 21.845 71.9565 21.7617C72.0537 21.6785 72.118 21.5633 72.1378 21.4369L72.7721 17.4199C72.8004 17.2392 72.8924 17.0745 73.0313 16.9555C73.1703 16.8365 73.3472 16.7711 73.5301 16.771H75.2788C78.92 16.771 81.0202 15.0094 81.5697 11.5185C81.8178 9.99119 81.5794 8.79119 80.8643 7.95078C80.0796 7.02795 78.6873 6.53987 76.8376 6.53987ZM77.4752 11.7156C77.1738 13.6987 75.6586 13.6987 74.1927 13.6987H73.3596L73.9455 9.99523C73.9623 9.88688 74.0173 9.78812 74.1006 9.71682C74.1839 9.64553 74.29 9.60641 74.3996 9.60654H74.7818C75.779 9.60654 76.7212 9.60654 77.2077 10.1754C77.4978 10.5148 77.5859 11.0191 77.4752 11.7156ZM93.3564 11.6518H90.7116C90.6019 11.6515 90.4957 11.6906 90.4124 11.7619C90.329 11.8332 90.2741 11.9321 90.2574 12.0405L90.1402 12.7807L89.9544 12.5124C89.3815 11.6809 88.1047 11.4029 86.8295 11.4029C83.9051 11.4029 81.4081 13.6179 80.9216 16.7249C80.6695 18.2748 81.0275 19.7569 81.9067 20.7904C82.7148 21.7407 83.8671 22.1367 85.24 22.1367C87.5964 22.1367 88.9031 20.6215 88.9031 20.6215L88.7851 21.3569C88.7746 21.4228 88.7785 21.4901 88.7965 21.5544C88.8146 21.6186 88.8464 21.6781 88.8898 21.7288C88.9331 21.7796 88.9869 21.8203 89.0476 21.8481C89.1082 21.876 89.1741 21.8903 89.2409 21.8902H91.6239C91.8068 21.8901 91.9837 21.8247 92.1227 21.7057C92.2616 21.5867 92.3536 21.422 92.3819 21.2413L93.813 12.1835C93.8231 12.1177 93.8189 12.0505 93.8006 11.9865C93.7823 11.9224 93.7504 11.8631 93.707 11.8126C93.6636 11.7621 93.6098 11.7216 93.5493 11.6938C93.4888 11.6661 93.423 11.6517 93.3564 11.6518ZM89.6675 16.8025C89.4138 18.3144 88.2122 19.3294 86.6817 19.3294C85.9148 19.3294 85.299 19.0829 84.9047 18.6159C84.5136 18.152 84.3665 17.4918 84.4893 16.7565C84.7293 15.2575 85.9479 14.2094 87.455 14.2094C88.2065 14.2094 88.8174 14.4591 89.2198 14.9302C89.6247 15.4062 89.7847 16.0704 89.6675 16.8025ZM96.4764 6.92856L94.2081 21.3593C94.1977 21.4249 94.2017 21.4921 94.2197 21.556C94.2378 21.62 94.2695 21.6793 94.3126 21.7298C94.3558 21.7804 94.4094 21.821 94.4698 21.8488C94.5301 21.8766 94.5958 21.891 94.6623 21.891H96.9427C97.3217 21.891 97.6433 21.6163 97.7015 21.2421L99.9382 7.07159C99.9486 7.0059 99.9447 6.93875 99.9266 6.87474C99.9086 6.81073 99.8769 6.75139 99.8338 6.70079C99.7906 6.65019 99.737 6.60953 99.6767 6.58161C99.6163 6.5537 99.5506 6.53918 99.4841 6.53906H96.9306C96.8209 6.53945 96.715 6.57886 96.6318 6.65023C96.5486 6.7216 96.4935 6.82027 96.4764 6.92856Z" fill="#179BD7"/>
<path d="M5.94873 24.6454L6.37135 21.961L5.42994 21.9392H0.93457L4.05862 2.13063C4.06792 2.07011 4.09866 2.01494 4.14524 1.97519C4.19181 1.93544 4.25112 1.91374 4.31236 1.91407H11.8922C14.4085 1.91407 16.1451 2.4377 17.0518 3.47124C17.4768 3.95609 17.7475 4.46276 17.8785 5.02034C18.0158 5.60539 18.0183 6.30438 17.8841 7.15691L17.8744 7.21913V7.7654L18.2995 8.0062C18.624 8.1706 18.9156 8.39298 19.1601 8.66237C19.5237 9.07692 19.7589 9.60379 19.8583 10.2284C19.9609 10.8709 19.9269 11.6353 19.7589 12.5008C19.5649 13.4963 19.2514 14.3634 18.828 15.0729C18.4544 15.7085 17.952 16.259 17.3532 16.6891C16.7908 17.0883 16.1225 17.3913 15.3669 17.5852C14.6348 17.7759 13.8001 17.8721 12.8845 17.8721H12.2946C11.8728 17.8721 11.4631 18.024 11.1415 18.2963C10.8203 18.5716 10.6073 18.9518 10.5403 19.3695L10.4958 19.6111L9.74914 24.3424L9.7152 24.5162C9.70631 24.5711 9.69096 24.5986 9.66833 24.6172C9.64641 24.6351 9.61907 24.6451 9.59076 24.6454H5.94873Z" fill="#253B80"/>
<path d="M18.7021 7.28125C18.6795 7.4259 18.6536 7.57378 18.6245 7.7257C17.6249 12.8578 14.2051 14.6308 9.83745 14.6308H7.6136C7.07946 14.6308 6.62936 15.0186 6.54613 15.5455L5.40754 22.7665L5.08511 24.8134C5.07227 24.8946 5.07717 24.9776 5.09949 25.0567C5.1218 25.1359 5.16099 25.2092 5.21437 25.2717C5.26775 25.3342 5.33403 25.3844 5.40867 25.4189C5.48331 25.4533 5.56453 25.4712 5.64673 25.4712H9.59098C10.0581 25.4712 10.4548 25.1318 10.5284 24.6712L10.5671 24.4708L11.3098 19.7581L11.3575 19.4995C11.4302 19.0372 11.8278 18.6978 12.2948 18.6978H12.8847C16.7062 18.6978 19.6977 17.1463 20.572 12.6566C20.9373 10.7811 20.7482 9.21499 19.7817 8.11358C19.4754 7.77286 19.1096 7.49081 18.7021 7.28125Z" fill="#179BD7"/>
<path d="M17.6572 6.86689C17.338 6.77456 17.0133 6.7025 16.6851 6.65113C16.0365 6.55145 15.3809 6.50362 14.7247 6.5081H8.78365C8.55755 6.50793 8.33885 6.58864 8.16708 6.73566C7.99531 6.88268 7.88181 7.0863 7.84708 7.30972L6.58324 15.3146L6.54688 15.5481C6.58625 15.2933 6.71553 15.061 6.91132 14.8932C7.10712 14.7254 7.3565 14.6333 7.61435 14.6334H9.8382C14.2059 14.6334 17.6257 12.8596 18.6253 7.72831C18.6552 7.57639 18.6802 7.42851 18.7029 7.28386C18.4391 7.14554 18.1642 7.02958 17.881 6.93719C17.8068 6.91256 17.7322 6.88913 17.6572 6.86689Z" fill="#222D65"/>
<path d="M7.84501 7.30737C7.87944 7.08389 7.99289 6.88018 8.16474 6.73323C8.3366 6.58628 8.55547 6.50586 8.78158 6.50656H14.7226C15.4264 6.50656 16.0834 6.55262 16.683 6.64959C17.0888 6.71336 17.4889 6.80873 17.8798 6.93484C18.1747 7.03262 18.4487 7.14818 18.7016 7.28151C18.999 5.38494 18.6992 4.09362 17.6737 2.92433C16.5432 1.63705 14.5028 1.08594 11.8919 1.08594H4.31207C3.77874 1.08594 3.32379 1.47382 3.24136 2.0015L0.0841797 22.0137C0.0694741 22.1066 0.0750691 22.2016 0.10058 22.2921C0.126091 22.3827 0.170912 22.4666 0.23196 22.5382C0.293008 22.6097 0.368835 22.6672 0.454223 22.7067C0.539612 22.7462 0.632537 22.7667 0.726606 22.7668H5.40622L6.58117 15.3122L7.84501 7.30737Z" fill="#253B80"/>
</svg>
