<svg width="40" height="32" viewBox="0 0 40 32" fill="none" xmlns="http://www.w3.org/2000/svg">
<path d="M35.2178 31.3325H4.55111C2.50126 31.3938 0.787572 29.7864 0.717773 27.7368V4.25957C0.787565 2.21028 2.50158 0.603394 4.55111 0.665822H35.2178C37.2673 0.603394 38.9813 2.21028 39.0511 4.25957V27.7387C38.9803 29.7876 37.2669 31.3938 35.2178 31.3325ZM4.55111 4.49915V27.4781L35.2178 27.4992V4.52024L4.55111 4.49915ZM22.6253 23.6658H8.38444C8.52537 22.0789 9.27635 20.6086 10.4794 19.5642C11.8188 18.2354 13.6185 17.4735 15.5049 17.4367C17.3912 17.4735 19.1909 18.2354 20.5304 19.5642C21.733 20.6088 22.484 22.079 22.6253 23.6658ZM31.3844 21.7492H25.6344V17.9158H31.3844V21.7492ZM15.5049 15.9992C14.4777 16.0348 13.4818 15.6425 12.755 14.9157C12.0282 14.1889 11.6358 13.193 11.6715 12.1658C11.6364 11.1388 12.029 10.1432 12.7556 9.41659C13.4823 8.68995 14.4778 8.29737 15.5049 8.33249C16.5319 8.29737 17.5274 8.68995 18.2541 9.41659C18.9807 10.1432 19.3733 11.1388 19.3382 12.1658C19.3739 13.193 18.9815 14.1889 18.2547 14.9157C17.528 15.6425 16.532 16.0348 15.5049 15.9992ZM31.3844 14.0825H23.7178V10.2492H31.3844V14.0825Z" fill="#0072EF"/>
</svg>
