<svg width="213" height="33" viewBox="0 0 213 33" fill="none" xmlns="http://www.w3.org/2000/svg">
<g clip-path="url(#clip0_36984_100141)">
<path d="M31.518 19.8708C29.381 28.4423 20.699 33.6583 12.1265 31.5213C3.55804 29.3843 -1.65846 20.7023 0.479037 12.1313C2.61504 3.5588 11.2965 -1.6582 19.8665 0.478798C28.4385 2.6158 33.6545 11.2988 31.5175 19.8708H31.518Z" fill="#F7931A"/>
<path d="M23.0566 13.7236C23.3746 11.5946 21.7536 10.4501 19.5371 9.68663L20.2561 6.80263L18.5001 6.36513L17.8001 9.17313C17.3391 9.05813 16.8651 8.94963 16.3941 8.84213L17.0991 6.01563L15.3446 5.57812L14.6251 8.46113C14.2431 8.37413 13.8681 8.28813 13.5041 8.19763L13.5061 8.18863L11.0851 7.58413L10.6181 9.45913C10.6181 9.45913 11.9206 9.75763 11.8931 9.77613C12.6041 9.95363 12.7331 10.4241 12.7111 10.7971L11.8921 14.0826C11.9411 14.0951 12.0046 14.1131 12.0746 14.1411L11.8896 14.0951L10.7411 18.6976C10.6541 18.9136 10.4336 19.2376 9.93656 19.1146C9.95406 19.1401 8.66056 18.7961 8.66056 18.7961L7.78906 20.8061L10.0741 21.3756C10.4991 21.4821 10.9156 21.5936 11.3251 21.6986L10.5986 24.6161L12.3521 25.0536L13.0721 22.1676C13.5506 22.2976 14.0156 22.4176 14.4706 22.5306L13.7536 25.4031L15.5091 25.8406L16.2356 22.9291C19.2291 23.4956 21.4806 23.2671 22.4271 20.5601C23.1906 18.3801 22.3896 17.1226 20.8146 16.3021C21.9616 16.0366 22.8256 15.2821 23.0561 13.7236H23.0566ZM19.0451 19.3481C18.5021 21.5281 14.8321 20.3501 13.6416 20.0541L14.6056 16.1896C15.7956 16.4866 19.6111 17.0746 19.0456 19.3481H19.0451ZM19.5876 13.6921C19.0926 15.6751 16.0376 14.6676 15.0461 14.4206L15.9201 10.9156C16.9116 11.1626 20.1036 11.6236 19.5876 13.6921Z" fill="white"/>
</g>
<path d="M62.7269 14.5469H59.6161C59.5593 14.1444 59.4433 13.7869 59.2681 13.4744C59.0929 13.1572 58.868 12.8873 58.5934 12.6648C58.3188 12.4422 58.0015 12.2718 57.6417 12.1534C57.2866 12.035 56.9007 11.9759 56.484 11.9759C55.7312 11.9759 55.0754 12.1629 54.5167 12.5369C53.958 12.9062 53.5247 13.446 53.217 14.1562C52.9092 14.8617 52.7553 15.7187 52.7553 16.7273C52.7553 17.7642 52.9092 18.6354 53.217 19.3409C53.5295 20.0464 53.9651 20.5791 54.5238 20.9389C55.0825 21.2988 55.7288 21.4787 56.4627 21.4787C56.8746 21.4787 57.2558 21.4242 57.6062 21.3153C57.9613 21.2064 58.2762 21.0478 58.5508 20.8395C58.8254 20.6264 59.0527 20.3684 59.2326 20.0653C59.4173 19.7623 59.5451 19.4167 59.6161 19.0284L62.7269 19.0426C62.6464 19.7102 62.4452 20.3542 62.1232 20.9744C61.806 21.59 61.3775 22.1416 60.8377 22.6293C60.3027 23.1122 59.6635 23.4957 58.9201 23.7798C58.1815 24.0592 57.3458 24.1989 56.413 24.1989C55.1156 24.1989 53.9556 23.9053 52.9329 23.3182C51.9149 22.7311 51.11 21.8812 50.5181 20.7685C49.931 19.6558 49.6374 18.3087 49.6374 16.7273C49.6374 15.1411 49.9357 13.7917 50.5323 12.679C51.1289 11.5663 51.9386 10.7187 52.9613 10.1364C53.984 9.54924 55.1346 9.25568 56.413 9.25568C57.2558 9.25568 58.0371 9.37405 58.7567 9.6108C59.4812 9.84754 60.1228 10.1932 60.6815 10.6477C61.2402 11.0975 61.6947 11.6491 62.0451 12.3026C62.4002 12.956 62.6275 13.7041 62.7269 14.5469ZM64.8754 24V13.0909H67.8086V14.9943H67.9222C68.1211 14.3172 68.4549 13.8059 68.9237 13.4602C69.3924 13.1098 69.9322 12.9347 70.543 12.9347C70.6945 12.9347 70.8578 12.9441 71.033 12.9631C71.2082 12.982 71.3621 13.008 71.4947 13.0412V15.7259C71.3526 15.6832 71.1561 15.6454 70.9052 15.6122C70.6542 15.5791 70.4246 15.5625 70.2163 15.5625C69.7712 15.5625 69.3735 15.6596 69.0231 15.8537C68.6774 16.0431 68.4028 16.3082 68.1992 16.6491C68.0004 16.9901 67.9009 17.383 67.9009 17.8281V24H64.8754ZM75.2589 28.0909C74.8754 28.0909 74.5155 28.0601 74.1793 27.9986C73.8479 27.9418 73.5733 27.8684 73.3555 27.7784L74.0373 25.5199C74.3924 25.6288 74.712 25.688 74.9961 25.6974C75.2849 25.7069 75.5335 25.6406 75.7418 25.4986C75.9549 25.3565 76.1277 25.1151 76.2603 24.7741L76.4379 24.3125L72.5245 13.0909H75.7063L77.9648 21.1023H78.0785L80.3583 13.0909H83.5614L79.3214 25.179C79.1178 25.7661 78.8408 26.2775 78.4904 26.7131C78.1448 27.1534 77.7068 27.492 77.1765 27.7287C76.6462 27.9702 76.007 28.0909 75.2589 28.0909ZM85.1097 28.0909V13.0909H88.0927V14.9233H88.2276C88.3602 14.6297 88.552 14.3314 88.8029 14.0284C89.0586 13.7206 89.39 13.465 89.7972 13.2614C90.2092 13.053 90.7205 12.9489 91.3313 12.9489C92.1268 12.9489 92.8607 13.1572 93.533 13.5739C94.2054 13.9858 94.7428 14.6084 95.1452 15.4418C95.5477 16.2704 95.7489 17.3097 95.7489 18.5597C95.7489 19.7765 95.5524 20.804 95.1594 21.642C94.7712 22.4754 94.2409 23.1075 93.5685 23.5384C92.9009 23.9645 92.1528 24.1776 91.3242 24.1776C90.7371 24.1776 90.2376 24.0805 89.8256 23.8864C89.4184 23.6922 89.0846 23.4484 88.8242 23.1548C88.5638 22.8565 88.3649 22.5559 88.2276 22.2528H88.1353V28.0909H85.1097ZM88.0714 18.5455C88.0714 19.1941 88.1613 19.7599 88.3413 20.2429C88.5212 20.7259 88.7816 21.1023 89.1225 21.3722C89.4634 21.6373 89.8777 21.7699 90.3654 21.7699C90.8578 21.7699 91.2745 21.6349 91.6154 21.3651C91.9563 21.0904 92.2144 20.7116 92.3896 20.2287C92.5695 19.741 92.6594 19.1799 92.6594 18.5455C92.6594 17.9157 92.5719 17.3617 92.3967 16.8835C92.2215 16.4053 91.9634 16.0312 91.6225 15.7614C91.2816 15.4915 90.8626 15.3565 90.3654 15.3565C89.873 15.3565 89.4563 15.4867 89.1154 15.7472C88.7792 16.0076 88.5212 16.3769 88.3413 16.8551C88.1613 17.3333 88.0714 17.8968 88.0714 18.5455ZM103.569 13.0909V15.3636H96.9989V13.0909H103.569ZM98.4904 10.4773H101.516V20.6477C101.516 20.9271 101.559 21.1449 101.644 21.3011C101.729 21.4527 101.847 21.5592 101.999 21.6207C102.155 21.6823 102.335 21.7131 102.539 21.7131C102.681 21.7131 102.823 21.7012 102.965 21.6776C103.107 21.6491 103.216 21.6278 103.292 21.6136L103.767 23.8651C103.616 23.9124 103.403 23.9669 103.128 24.0284C102.854 24.0947 102.52 24.1349 102.127 24.1491C101.398 24.1776 100.758 24.0805 100.209 23.858C99.6647 23.6354 99.2409 23.2898 98.9379 22.821C98.6348 22.3523 98.4857 21.7604 98.4904 21.0455V10.4773ZM110.351 24.2131C109.248 24.2131 108.294 23.9787 107.489 23.5099C106.689 23.0365 106.071 22.3783 105.635 21.5355C105.2 20.688 104.982 19.7055 104.982 18.5881C104.982 17.4612 105.2 16.4763 105.635 15.6335C106.071 14.786 106.689 14.1278 107.489 13.6591C108.294 13.1856 109.248 12.9489 110.351 12.9489C111.454 12.9489 112.406 13.1856 113.206 13.6591C114.011 14.1278 114.632 14.786 115.067 15.6335C115.503 16.4763 115.721 17.4612 115.721 18.5881C115.721 19.7055 115.503 20.688 115.067 21.5355C114.632 22.3783 114.011 23.0365 113.206 23.5099C112.406 23.9787 111.454 24.2131 110.351 24.2131ZM110.365 21.8693C110.867 21.8693 111.286 21.7273 111.623 21.4432C111.959 21.1544 112.212 20.7614 112.382 20.2642C112.558 19.767 112.645 19.2012 112.645 18.5668C112.645 17.9323 112.558 17.3665 112.382 16.8693C112.212 16.3722 111.959 15.9792 111.623 15.6903C111.286 15.4015 110.867 15.2571 110.365 15.2571C109.859 15.2571 109.433 15.4015 109.087 15.6903C108.746 15.9792 108.488 16.3722 108.313 16.8693C108.142 17.3665 108.057 17.9323 108.057 18.5668C108.057 19.2012 108.142 19.767 108.313 20.2642C108.488 20.7614 108.746 21.1544 109.087 21.4432C109.433 21.7273 109.859 21.8693 110.365 21.8693ZM122.617 24.2131C121.499 24.2131 120.538 23.9763 119.733 23.5028C118.933 23.0246 118.318 22.3617 117.887 21.5142C117.461 20.6667 117.248 19.6913 117.248 18.5881C117.248 17.4706 117.463 16.4905 117.894 15.6477C118.329 14.8002 118.947 14.1397 119.748 13.6662C120.548 13.188 121.499 12.9489 122.603 12.9489C123.554 12.9489 124.388 13.1217 125.103 13.4673C125.818 13.813 126.383 14.2983 126.8 14.9233C127.217 15.5483 127.446 16.2822 127.489 17.125H124.634C124.553 16.5805 124.34 16.1425 123.995 15.8111C123.654 15.4749 123.206 15.3068 122.652 15.3068C122.184 15.3068 121.774 15.4347 121.424 15.6903C121.078 15.9413 120.808 16.3082 120.614 16.7912C120.42 17.2741 120.323 17.8589 120.323 18.5455C120.323 19.2415 120.417 19.8333 120.607 20.321C120.801 20.8087 121.073 21.1804 121.424 21.4361C121.774 21.6918 122.184 21.8196 122.652 21.8196C122.998 21.8196 123.308 21.7486 123.583 21.6065C123.862 21.4645 124.092 21.2585 124.272 20.9886C124.456 20.714 124.577 20.3849 124.634 20.0014H127.489C127.442 20.8348 127.214 21.5687 126.807 22.2031C126.405 22.8329 125.848 23.3253 125.138 23.6804C124.428 24.0355 123.587 24.2131 122.617 24.2131ZM136.422 19.3551V13.0909H139.447V24H136.543V22.0185H136.429C136.183 22.6577 135.773 23.1714 135.2 23.5597C134.632 23.9479 133.938 24.142 133.119 24.142C132.39 24.142 131.749 23.9763 131.195 23.6449C130.641 23.3134 130.207 22.8423 129.895 22.2315C129.587 21.6207 129.431 20.8892 129.426 20.0369V13.0909H132.452V19.4972C132.456 20.1411 132.629 20.6501 132.97 21.0241C133.311 21.3982 133.768 21.5852 134.341 21.5852C134.705 21.5852 135.046 21.5024 135.364 21.3366C135.681 21.1662 135.937 20.9152 136.131 20.5838C136.33 20.2524 136.427 19.8428 136.422 19.3551ZM141.868 24V13.0909H144.801V14.9943H144.914C145.113 14.3172 145.447 13.8059 145.916 13.4602C146.385 13.1098 146.924 12.9347 147.535 12.9347C147.687 12.9347 147.85 12.9441 148.025 12.9631C148.2 12.982 148.354 13.008 148.487 13.0412V15.7259C148.345 15.6832 148.148 15.6454 147.897 15.6122C147.646 15.5791 147.417 15.5625 147.208 15.5625C146.763 15.5625 146.366 15.6596 146.015 15.8537C145.67 16.0431 145.395 16.3082 145.191 16.6491C144.993 16.9901 144.893 17.383 144.893 17.8281V24H141.868ZM150.051 24V13.0909H152.984V14.9943H153.098C153.297 14.3172 153.631 13.8059 154.099 13.4602C154.568 13.1098 155.108 12.9347 155.719 12.9347C155.87 12.9347 156.034 12.9441 156.209 12.9631C156.384 12.982 156.538 13.008 156.67 13.0412V15.7259C156.528 15.6832 156.332 15.6454 156.081 15.6122C155.83 15.5791 155.6 15.5625 155.392 15.5625C154.947 15.5625 154.549 15.6596 154.199 15.8537C153.853 16.0431 153.579 16.3082 153.375 16.6491C153.176 16.9901 153.077 17.383 153.077 17.8281V24H150.051ZM162.699 24.2131C161.576 24.2131 160.61 23.9858 159.801 23.5312C158.996 23.072 158.376 22.4233 157.94 21.5852C157.504 20.7424 157.287 19.7457 157.287 18.5952C157.287 17.473 157.504 16.4882 157.94 15.6406C158.376 14.7931 158.989 14.1326 159.779 13.6591C160.575 13.1856 161.508 12.9489 162.578 12.9489C163.297 12.9489 163.967 13.0649 164.588 13.2969C165.213 13.5241 165.757 13.8674 166.221 14.3267C166.69 14.786 167.055 15.3636 167.315 16.0597C167.575 16.7509 167.706 17.5606 167.706 18.4886V19.3196H158.494V17.4446H164.858C164.858 17.009 164.763 16.6231 164.574 16.2869C164.384 15.9508 164.121 15.688 163.785 15.4986C163.454 15.3045 163.068 15.2074 162.627 15.2074C162.168 15.2074 161.761 15.3139 161.406 15.527C161.056 15.7353 160.781 16.017 160.582 16.3722C160.383 16.7225 160.281 17.1132 160.277 17.544V19.3267C160.277 19.8665 160.376 20.3329 160.575 20.7259C160.779 21.1188 161.065 21.4219 161.434 21.6349C161.804 21.848 162.242 21.9545 162.748 21.9545C163.084 21.9545 163.392 21.9072 163.672 21.8125C163.951 21.7178 164.19 21.5758 164.389 21.3864C164.588 21.197 164.739 20.965 164.843 20.6903L167.642 20.875C167.5 21.5473 167.208 22.1345 166.768 22.6364C166.333 23.1335 165.769 23.5218 165.078 23.8011C164.391 24.0758 163.598 24.2131 162.699 24.2131ZM172.706 17.6932V24H169.68V13.0909H172.564V15.0156H172.691C172.933 14.3812 173.338 13.8793 173.906 13.5099C174.474 13.1359 175.163 12.9489 175.973 12.9489C176.73 12.9489 177.391 13.1146 177.954 13.446C178.518 13.7775 178.956 14.2509 179.268 14.8665C179.581 15.4773 179.737 16.2064 179.737 17.054V24H176.711V17.5938C176.716 16.9261 176.546 16.4053 176.2 16.0312C175.854 15.6525 175.378 15.4631 174.772 15.4631C174.365 15.4631 174.005 15.5507 173.693 15.7259C173.385 15.901 173.144 16.1567 172.968 16.4929C172.798 16.8243 172.71 17.2244 172.706 17.6932ZM187.05 24.2131C185.933 24.2131 184.972 23.9763 184.167 23.5028C183.367 23.0246 182.751 22.3617 182.32 21.5142C181.894 20.6667 181.681 19.6913 181.681 18.5881C181.681 17.4706 181.897 16.4905 182.327 15.6477C182.763 14.8002 183.381 14.1397 184.181 13.6662C184.981 13.188 185.933 12.9489 187.036 12.9489C187.988 12.9489 188.821 13.1217 189.536 13.4673C190.251 13.813 190.817 14.2983 191.234 14.9233C191.65 15.5483 191.88 16.2822 191.923 17.125H189.067C188.987 16.5805 188.774 16.1425 188.428 15.8111C188.087 15.4749 187.64 15.3068 187.086 15.3068C186.617 15.3068 186.208 15.4347 185.857 15.6903C185.512 15.9413 185.242 16.3082 185.048 16.7912C184.853 17.2741 184.756 17.8589 184.756 18.5455C184.756 19.2415 184.851 19.8333 185.04 20.321C185.235 20.8087 185.507 21.1804 185.857 21.4361C186.208 21.6918 186.617 21.8196 187.086 21.8196C187.432 21.8196 187.742 21.7486 188.016 21.6065C188.296 21.4645 188.525 21.2585 188.705 20.9886C188.89 20.714 189.011 20.3849 189.067 20.0014H191.923C191.875 20.8348 191.648 21.5687 191.241 22.2031C190.838 22.8329 190.282 23.3253 189.572 23.6804C188.862 24.0355 188.021 24.2131 187.05 24.2131ZM195.728 28.0909C195.344 28.0909 194.984 28.0601 194.648 27.9986C194.317 27.9418 194.042 27.8684 193.824 27.7784L194.506 25.5199C194.861 25.6288 195.181 25.688 195.465 25.6974C195.754 25.7069 196.002 25.6406 196.211 25.4986C196.424 25.3565 196.596 25.1151 196.729 24.7741L196.907 24.3125L192.993 13.0909H196.175L198.434 21.1023H198.547L200.827 13.0909H204.03L199.79 25.179C199.587 25.7661 199.31 26.2775 198.959 26.7131C198.614 27.1534 198.176 27.492 197.645 27.7287C197.115 27.9702 196.476 28.0909 195.728 28.0909Z" fill="#262626"/>
<defs>
<clipPath id="clip0_36984_100141">
<rect width="32" height="32" fill="white"/>
</clipPath>
</defs>
</svg>
