<svg width="191" height="28" viewBox="0 0 191 28" fill="none" xmlns="http://www.w3.org/2000/svg">
<g clip-path="url(#clip0_39324_110770)">
<path d="M20.1988 16.4192C18.8631 21.7764 13.4369 25.0364 8.07909 23.7008C2.72377 22.3652 -0.536539 16.9389 0.799398 11.5821C2.1344 6.22425 7.56034 2.96362 12.9166 4.29925C18.2741 5.63487 21.5341 11.0617 20.1985 16.4192H20.1988Z" fill="#F7931A"/>
<path d="M14.9094 12.5773C15.1081 11.2466 14.095 10.5313 12.7097 10.0541L13.1591 8.25164L12.0616 7.9782L11.6241 9.7332C11.3359 9.66133 11.0397 9.59352 10.7453 9.52633L11.1859 7.75977L10.0894 7.48633L9.63969 9.2882C9.40094 9.23383 9.16656 9.18008 8.93906 9.12352L8.94031 9.11789L7.42719 8.74008L7.13531 9.91195C7.13531 9.91195 7.94938 10.0985 7.93219 10.1101C8.37656 10.221 8.45719 10.5151 8.44344 10.7482L7.93156 12.8016C7.96219 12.8095 8.00187 12.8207 8.04562 12.8382L7.93 12.8095L7.21219 15.686C7.15781 15.821 7.02 16.0235 6.70938 15.9466C6.72031 15.9626 5.91188 15.7476 5.91188 15.7476L5.36719 17.0038L6.79531 17.3598C7.06094 17.4263 7.32125 17.496 7.57719 17.5616L7.12312 19.3851L8.21906 19.6585L8.66906 17.8548C8.96813 17.936 9.25875 18.011 9.54312 18.0816L9.095 19.877L10.1922 20.1504L10.6462 18.3307C12.5172 18.6848 13.9244 18.542 14.5159 16.8501C14.9931 15.4876 14.4925 14.7016 13.5081 14.1888C14.225 14.0229 14.765 13.5513 14.9091 12.5773H14.9094ZM12.4022 16.0926C12.0628 17.4551 9.76906 16.7188 9.025 16.5338L9.6275 14.1185C10.3712 14.3041 12.7559 14.6716 12.4025 16.0926H12.4022ZM12.7412 12.5576C12.4319 13.797 10.5225 13.1673 9.90281 13.0129L10.4491 10.8223C11.0687 10.9766 13.0637 11.2648 12.7412 12.5576Z" fill="white"/>
</g>
<path d="M27.9278 21V7.90909H33.0926C34.0855 7.90909 34.9314 8.09872 35.6302 8.47798C36.3291 8.85298 36.8618 9.375 37.2282 10.044C37.599 10.7088 37.7844 11.4759 37.7844 12.3452C37.7844 13.2145 37.5969 13.9815 37.2219 14.6463C36.8469 15.3111 36.3035 15.8288 35.5919 16.1996C34.8845 16.5703 34.028 16.7557 33.0223 16.7557H29.7304V14.5376H32.5748C33.1075 14.5376 33.5464 14.446 33.8916 14.2628C34.241 14.0753 34.501 13.8175 34.6714 13.4893C34.8461 13.157 34.9335 12.7756 34.9335 12.3452C34.9335 11.9105 34.8461 11.5312 34.6714 11.2074C34.501 10.8793 34.241 10.6257 33.8916 10.4467C33.5422 10.2635 33.099 10.1719 32.5621 10.1719H30.6956V21H27.9278ZM42.067 21.1854C41.4406 21.1854 40.8824 21.0767 40.3923 20.8594C39.9023 20.6378 39.5145 20.3118 39.229 19.8814C38.9477 19.4467 38.8071 18.9055 38.8071 18.2578C38.8071 17.7124 38.9072 17.2543 39.1075 16.8835C39.3078 16.5128 39.5805 16.2145 39.9257 15.9886C40.2709 15.7628 40.6629 15.5923 41.1018 15.4773C41.545 15.3622 42.0095 15.2812 42.4953 15.2344C43.0663 15.1747 43.5265 15.1193 43.876 15.0682C44.2254 15.0128 44.479 14.9318 44.6366 14.8253C44.7943 14.7187 44.8731 14.5611 44.8731 14.3523V14.3139C44.8731 13.9091 44.7453 13.5959 44.4896 13.3743C44.2382 13.1527 43.8802 13.0419 43.4157 13.0419C42.9257 13.0419 42.5358 13.1506 42.246 13.3679C41.9562 13.581 41.7645 13.8494 41.6707 14.1733L39.1523 13.9688C39.2801 13.3722 39.5315 12.8565 39.9065 12.4219C40.2815 11.983 40.7652 11.6463 41.3575 11.4119C41.9541 11.1733 42.6444 11.054 43.4285 11.054C43.974 11.054 44.496 11.1179 44.9946 11.2457C45.4974 11.3736 45.9427 11.5717 46.3305 11.8402C46.7226 12.1087 47.0315 12.4538 47.2574 12.8757C47.4832 13.2933 47.5961 13.794 47.5961 14.3778V21H45.0138V19.6385H44.9371C44.7794 19.9453 44.5684 20.2159 44.3042 20.4503C44.04 20.6804 43.7226 20.8615 43.3518 20.9936C42.9811 21.1214 42.5528 21.1854 42.067 21.1854ZM42.8469 19.3061C43.2474 19.3061 43.6011 19.2273 43.9079 19.0696C44.2148 18.9077 44.4555 18.6903 44.6302 18.4176C44.805 18.1449 44.8923 17.8359 44.8923 17.4908V16.4489C44.8071 16.5043 44.6899 16.5554 44.5407 16.6023C44.3959 16.6449 44.2318 16.6854 44.0486 16.7237C43.8653 16.7578 43.6821 16.7898 43.4988 16.8196C43.3156 16.8452 43.1494 16.8686 43.0003 16.8899C42.6807 16.9368 42.4015 17.0114 42.1629 17.1136C41.9243 17.2159 41.7389 17.3544 41.6068 17.5291C41.4747 17.6996 41.4086 17.9126 41.4086 18.1683C41.4086 18.5391 41.5429 18.8224 41.8113 19.0185C42.0841 19.2102 42.4292 19.3061 42.8469 19.3061ZM51.0383 24.6818C50.6931 24.6818 50.3692 24.6541 50.0667 24.5987C49.7684 24.5476 49.5212 24.4815 49.3252 24.4006L49.9388 22.3679C50.2584 22.4659 50.5461 22.5192 50.8018 22.5277C51.0617 22.5362 51.2854 22.4766 51.4729 22.3487C51.6647 22.2209 51.8202 22.0036 51.9395 21.6967L52.0993 21.2812L48.5773 11.1818H51.441L53.4736 18.392H53.5759L55.6278 11.1818H58.5106L54.6945 22.0611C54.5113 22.5895 54.262 23.0497 53.9466 23.4418C53.6356 23.8381 53.2414 24.1428 52.7641 24.3558C52.2868 24.5732 51.7116 24.6818 51.0383 24.6818ZM67.0679 21L63.3222 7.90909H66.3456L68.5125 17.005H68.6212L71.0118 7.90909H73.6006L75.9848 17.0241H76.0999L78.2668 7.90909H81.2902L77.5445 21H74.847L72.3541 12.4411H72.2519L69.7654 21H67.0679ZM82.7204 21V11.1818H85.4434V21H82.7204ZM84.0883 9.91619C83.6835 9.91619 83.3362 9.78196 83.0464 9.51349C82.7609 9.24077 82.6182 8.91477 82.6182 8.53551C82.6182 8.16051 82.7609 7.83878 83.0464 7.57031C83.3362 7.29758 83.6835 7.16122 84.0883 7.16122C84.4932 7.16122 84.8383 7.29758 85.1238 7.57031C85.4136 7.83878 85.5585 8.16051 85.5585 8.53551C85.5585 8.91477 85.4136 9.24077 85.1238 9.51349C84.8383 9.78196 84.4932 9.91619 84.0883 9.91619ZM92.847 11.1818V13.2273H86.9344V11.1818H92.847ZM88.2767 8.82955H90.9997V17.983C90.9997 18.2344 91.0381 18.4304 91.1148 18.571C91.1915 18.7074 91.298 18.8033 91.4344 18.8587C91.575 18.9141 91.7369 18.9418 91.9202 18.9418C92.048 18.9418 92.1759 18.9311 92.3037 18.9098C92.4316 18.8842 92.5296 18.8651 92.5977 18.8523L93.026 20.8786C92.8896 20.9212 92.6979 20.9702 92.4507 21.0256C92.2036 21.0852 91.9031 21.1214 91.5494 21.1342C90.8932 21.1598 90.3179 21.0724 89.8236 20.8722C89.3335 20.6719 88.9521 20.3608 88.6794 19.9389C88.4067 19.517 88.2725 18.9844 88.2767 18.3409V8.82955ZM97.5548 15.3239V21H94.8318V7.90909H97.4781V12.9141H97.5931C97.8147 12.3345 98.1727 11.8807 98.667 11.5526C99.1613 11.2202 99.7813 11.054 100.527 11.054C101.209 11.054 101.803 11.2031 102.31 11.5014C102.822 11.7955 103.218 12.2195 103.499 12.7734C103.785 13.3232 103.926 13.9815 103.921 14.7486V21H101.198V15.2344C101.203 14.6293 101.049 14.1584 100.738 13.8217C100.431 13.4851 100.001 13.3168 99.4468 13.3168C99.0761 13.3168 98.748 13.3956 98.4624 13.5533C98.1812 13.7109 97.9596 13.9411 97.7977 14.2436C97.64 14.5419 97.559 14.902 97.5548 15.3239ZM121.832 12.4922H119.032C118.981 12.13 118.877 11.8082 118.719 11.527C118.561 11.2415 118.359 10.9986 118.112 10.7983C117.864 10.598 117.579 10.4446 117.255 10.3381C116.935 10.2315 116.588 10.1783 116.213 10.1783C115.536 10.1783 114.945 10.3466 114.443 10.6832C113.94 11.0156 113.55 11.5014 113.273 12.1406C112.996 12.7756 112.857 13.5469 112.857 14.4545C112.857 15.3878 112.996 16.1719 113.273 16.8068C113.554 17.4418 113.946 17.9212 114.449 18.245C114.952 18.5689 115.533 18.7308 116.194 18.7308C116.565 18.7308 116.908 18.6818 117.223 18.5838C117.543 18.4858 117.826 18.343 118.073 18.1555C118.32 17.9638 118.525 17.7315 118.687 17.4588C118.853 17.1861 118.968 16.875 119.032 16.5256L121.832 16.5384C121.759 17.1392 121.578 17.7188 121.288 18.277C121.003 18.831 120.617 19.3274 120.131 19.7663C119.65 20.201 119.075 20.5462 118.406 20.8018C117.741 21.0533 116.989 21.179 116.149 21.179C114.982 21.179 113.938 20.9148 113.017 20.3864C112.101 19.858 111.377 19.093 110.844 18.0916C110.315 17.0902 110.051 15.8778 110.051 14.4545C110.051 13.027 110.32 11.8125 110.857 10.8111C111.394 9.80966 112.122 9.04687 113.043 8.52273C113.963 7.99432 114.999 7.73011 116.149 7.73011C116.908 7.73011 117.611 7.83665 118.259 8.04972C118.911 8.26278 119.488 8.57386 119.991 8.98295C120.494 9.38778 120.903 9.88423 121.218 10.4723C121.538 11.0604 121.742 11.7337 121.832 12.4922ZM123.765 21V11.1818H126.405V12.8949H126.508C126.687 12.2855 126.987 11.8253 127.409 11.5142C127.831 11.1989 128.316 11.0412 128.866 11.0412C129.003 11.0412 129.15 11.0497 129.307 11.0668C129.465 11.0838 129.603 11.1072 129.723 11.1371V13.5533C129.595 13.5149 129.418 13.4808 129.192 13.451C128.966 13.4212 128.76 13.4062 128.572 13.4062C128.172 13.4062 127.814 13.4936 127.498 13.6683C127.187 13.8388 126.94 14.0774 126.757 14.3842C126.578 14.6911 126.488 15.0447 126.488 15.4453V21H123.765ZM133.111 24.6818C132.765 24.6818 132.441 24.6541 132.139 24.5987C131.841 24.5476 131.593 24.4815 131.397 24.4006L132.011 22.3679C132.331 22.4659 132.618 22.5192 132.874 22.5277C133.134 22.5362 133.358 22.4766 133.545 22.3487C133.737 22.2209 133.892 22.0036 134.012 21.6967L134.172 21.2812L130.65 11.1818H133.513L135.546 18.392H135.648L137.7 11.1818H140.583L136.767 22.0611C136.584 22.5895 136.334 23.0497 136.019 23.4418C135.708 23.8381 135.314 24.1428 134.836 24.3558C134.359 24.5732 133.784 24.6818 133.111 24.6818ZM141.976 24.6818V11.1818H144.661V12.831H144.782C144.902 12.5668 145.074 12.2983 145.3 12.0256C145.53 11.7486 145.829 11.5185 146.195 11.3352C146.566 11.1477 147.026 11.054 147.576 11.054C148.292 11.054 148.952 11.2415 149.557 11.6165C150.162 11.9872 150.646 12.5476 151.008 13.2976C151.37 14.0433 151.552 14.9787 151.552 16.1037C151.552 17.1989 151.375 18.1236 151.021 18.8778C150.672 19.6278 150.194 20.1967 149.589 20.5845C148.988 20.968 148.315 21.1598 147.569 21.1598C147.041 21.1598 146.591 21.0724 146.221 20.8977C145.854 20.723 145.554 20.5036 145.319 20.2393C145.085 19.9709 144.906 19.7003 144.782 19.4276H144.699V24.6818H141.976ZM144.642 16.0909C144.642 16.6747 144.723 17.1839 144.885 17.6186C145.047 18.0533 145.281 18.392 145.588 18.6349C145.895 18.8736 146.267 18.9929 146.706 18.9929C147.15 18.9929 147.525 18.8714 147.831 18.6286C148.138 18.3814 148.37 18.0405 148.528 17.6058C148.69 17.1669 148.771 16.6619 148.771 16.0909C148.771 15.5241 148.692 15.0256 148.535 14.5952C148.377 14.1648 148.145 13.8281 147.838 13.5852C147.531 13.3423 147.154 13.2209 146.706 13.2209C146.263 13.2209 145.888 13.3381 145.581 13.5724C145.279 13.8068 145.047 14.1392 144.885 14.5696C144.723 15 144.642 15.5071 144.642 16.0909ZM158.589 11.1818V13.2273H152.677V11.1818H158.589ZM154.019 8.82955H156.742V17.983C156.742 18.2344 156.78 18.4304 156.857 18.571C156.934 18.7074 157.04 18.8033 157.177 18.8587C157.317 18.9141 157.479 18.9418 157.662 18.9418C157.79 18.9418 157.918 18.9311 158.046 18.9098C158.174 18.8842 158.272 18.8651 158.34 18.8523L158.768 20.8786C158.632 20.9212 158.44 20.9702 158.193 21.0256C157.946 21.0852 157.645 21.1214 157.292 21.1342C156.635 21.1598 156.06 21.0724 155.566 20.8722C155.076 20.6719 154.694 20.3608 154.422 19.9389C154.149 19.517 154.015 18.9844 154.019 18.3409V8.82955ZM164.694 21.1918C163.701 21.1918 162.842 20.9808 162.118 20.5589C161.397 20.1328 160.841 19.5405 160.449 18.782C160.057 18.0192 159.861 17.1349 159.861 16.1293C159.861 15.1151 160.057 14.2287 160.449 13.4702C160.841 12.7074 161.397 12.1151 162.118 11.6932C162.842 11.267 163.701 11.054 164.694 11.054C165.687 11.054 166.543 11.267 167.263 11.6932C167.988 12.1151 168.546 12.7074 168.938 13.4702C169.33 14.2287 169.526 15.1151 169.526 16.1293C169.526 17.1349 169.33 18.0192 168.938 18.782C168.546 19.5405 167.988 20.1328 167.263 20.5589C166.543 20.9808 165.687 21.1918 164.694 21.1918ZM164.706 19.0824C165.158 19.0824 165.535 18.9545 165.838 18.6989C166.14 18.4389 166.368 18.0852 166.522 17.6378C166.679 17.1903 166.758 16.6811 166.758 16.1101C166.758 15.5391 166.679 15.0298 166.522 14.5824C166.368 14.1349 166.14 13.7812 165.838 13.5213C165.535 13.2614 165.158 13.1314 164.706 13.1314C164.25 13.1314 163.867 13.2614 163.556 13.5213C163.249 13.7812 163.017 14.1349 162.859 14.5824C162.706 15.0298 162.629 15.5391 162.629 16.1101C162.629 16.6811 162.706 17.1903 162.859 17.6378C163.017 18.0852 163.249 18.4389 163.556 18.6989C163.867 18.9545 164.25 19.0824 164.706 19.0824Z" fill="#0072EF"/>
<path fill-rule="evenodd" clip-rule="evenodd" d="M178.663 13.52C178.43 13.5521 178.25 13.7547 178.25 13.9999C178.25 14.2674 178.464 14.4843 178.727 14.4843H187.117L184.086 17.5474L184.04 17.6017C183.901 17.791 183.916 18.0601 184.085 18.2324C184.271 18.422 184.573 18.4226 184.76 18.2338L188.603 14.3497C188.626 14.3275 188.646 14.3029 188.665 14.2765C188.795 14.0873 188.776 13.825 188.61 13.6565L184.76 9.76613L184.706 9.71935C184.519 9.57906 184.254 9.59528 184.085 9.7676C183.899 9.95716 183.899 10.2638 184.086 10.4526L187.117 13.5156H178.727L178.663 13.52Z" fill="#0072EF"/>
<defs>
<clipPath id="clip0_39324_110770">
<rect width="20" height="20" fill="white" transform="translate(0.5 4)"/>
</clipPath>
</defs>
</svg>
