<svg width="110" height="100" viewBox="0 0 110 100" fill="none" xmlns="http://www.w3.org/2000/svg">
<g clip-path="url(#clip0_33734_83106)">
<path d="M6.63889 35.523C8.41257 38.8123 12.177 40.2244 12.177 40.2244C12.177 40.2244 13.0657 36.3033 11.292 33.0139C9.51829 29.7246 5.75388 28.3125 5.75388 28.3125C5.75388 28.3125 4.8652 32.2336 6.63889 35.523Z" fill="#2F2E41"/>
<path d="M7.86003 34.4424C11.0623 36.369 12.2956 40.1957 12.2956 40.1957C12.2956 40.1957 8.33698 40.8988 5.13474 38.9722C1.9325 37.0456 0.699219 33.2189 0.699219 33.2189C0.699219 33.2189 4.65779 32.5158 7.86003 34.4424Z" fill="#0072EF"/>
<path d="M109.304 89.0101C109.304 92.4781 101.062 99.9989 90.8943 99.9989C80.7268 99.9989 72.4844 92.4781 72.4844 89.0101C72.4844 85.5421 80.7268 87.4403 90.8943 87.4403C101.062 87.4403 109.304 85.5421 109.304 89.0101Z" fill="#3F3D56"/>
<path opacity="0.1" d="M109.304 89.0101C109.304 92.4781 101.062 99.9989 90.8943 99.9989C80.7268 99.9989 72.4844 92.4781 72.4844 89.0101C72.4844 85.5421 80.7268 87.4403 90.8943 87.4403C101.062 87.4403 109.304 85.5421 109.304 89.0101Z" fill="black"/>
<path d="M90.8943 95.2892C101.062 95.2892 109.304 92.4778 109.304 89.0098C109.304 85.5418 101.062 82.7305 90.8943 82.7305C80.7268 82.7305 72.4844 85.5418 72.4844 89.0098C72.4844 92.4778 80.7268 95.2892 90.8943 95.2892Z" fill="#3F3D56"/>
<path d="M70.0589 43.0586H11.5469V76.4533H70.0589V43.0586Z" fill="#F1F1F1"/>
<path d="M97.3871 11.092C100.5 11.092 103.024 8.72787 103.024 5.81161C103.024 2.89535 100.5 0.53125 97.3871 0.53125C94.2738 0.53125 91.75 2.89535 91.75 5.81161C91.75 8.72787 94.2738 11.092 97.3871 11.092Z" fill="#2F2E41"/>
<path d="M80.9724 38.7031L79.5453 40.7011C79.5453 40.7011 72.6951 42.1282 75.2639 44.2689C77.8327 46.4096 81.5432 42.2709 81.5432 42.2709L83.5412 39.7021L80.9724 38.7031Z" fill="#FFB8B8"/>
<path d="M88.3953 16.0156C88.3953 16.0156 86.5401 16.0156 86.1119 18.5844C85.6838 21.1533 85.2557 29.716 85.2557 29.716C85.2557 29.716 79.2618 37.5652 80.2607 38.5642C81.2597 39.5632 82.4014 41.4184 83.115 41.133C83.8286 40.8476 89.9652 32.4276 89.9652 32.4276L88.3953 16.0156Z" fill="#0072EF"/>
<path opacity="0.1" d="M88.3953 16.0156C88.3953 16.0156 86.5401 16.0156 86.1119 18.5844C85.6838 21.1533 85.2557 29.716 85.2557 29.716C85.2557 29.716 79.2618 37.5652 80.2607 38.5642C81.2597 39.5632 82.4014 41.4184 83.115 41.133C83.8286 40.8476 89.9652 32.4276 89.9652 32.4276L88.3953 16.0156Z" fill="black"/>
<path d="M94.1039 8.73438C94.1039 8.73438 93.9612 14.3002 92.2487 14.5856C90.5361 14.871 91.107 16.7263 91.107 16.7263C91.107 16.7263 96.6728 20.0086 100.383 16.7263L101.097 15.0137C101.097 15.0137 98.528 13.1585 99.6697 10.5896L94.1039 8.73438Z" fill="#FFB8B8"/>
<path d="M84.5442 42.9883C84.5442 42.9883 76.1241 58.6866 79.2638 63.5389C82.4035 68.3911 87.113 78.3809 87.8265 78.3809C88.5401 78.3809 92.5361 76.383 92.2506 75.0986C91.9652 73.8141 87.6838 64.2524 86.5421 63.3961C85.4004 62.5399 85.9713 60.2565 86.114 60.1138C86.2567 59.9711 90.9662 52.4073 90.9662 52.4073C90.9662 52.4073 90.8235 64.3951 91.3944 66.2504C91.9652 68.1057 91.2516 81.3779 91.9652 81.9487C92.6788 82.5196 95.9612 83.5186 96.532 82.6623C97.1029 81.806 98.8154 68.8192 97.6737 65.8223L99.8144 45.2717L84.5442 42.9883Z" fill="#2F2E41"/>
<path d="M92.25 81.0898L88.6822 87.6546C88.6822 87.6546 83.5446 91.3652 87.1124 91.936C90.6802 92.5069 92.8209 91.0797 92.8209 91.0797L95.9606 88.7963V82.2315L92.25 81.0898Z" fill="#2F2E41"/>
<path d="M87.3984 77.3809L89.2537 81.8049C89.2537 81.8049 89.9673 83.6602 89.2537 84.0883C88.5401 84.5165 86.5422 87.0853 87.8266 87.3707C88.085 87.4213 88.3475 87.4475 88.6108 87.4487C89.6804 87.4667 90.7425 87.2681 91.7333 86.8649C92.724 86.4617 93.623 85.8623 94.3761 85.1026L95.533 83.9456C95.533 83.9456 91.5699 74.8194 91.6249 74.8871C91.6798 74.9548 87.3984 77.3809 87.3984 77.3809Z" fill="#2F2E41"/>
<path d="M97.6725 12.1615C100.352 12.1615 102.525 9.98906 102.525 7.30925C102.525 4.62944 100.352 2.45703 97.6725 2.45703C94.9927 2.45703 92.8203 4.62944 92.8203 7.30925C92.8203 9.98906 94.9927 12.1615 97.6725 12.1615Z" fill="#FFB8B8"/>
<path d="M100.454 14.0869L98.9554 15.5854C98.9554 15.5854 94.3886 17.2979 92.2479 15.5854C92.2479 15.5854 93.0329 13.9442 93.0329 14.0869C93.0329 14.2296 86.8249 15.1573 86.254 17.7261C85.6832 20.2949 86.6822 24.719 86.6822 24.719C86.6822 24.719 82.6862 43.557 84.2561 43.9852C85.8259 44.4133 100.525 47.9811 100.383 45.2696C100.24 42.558 101.524 31.4265 101.524 31.4265L106.519 21.8647C106.519 21.8647 105.806 18.7251 104.093 17.7261C102.381 16.7271 100.454 14.0869 100.454 14.0869Z" fill="#0072EF"/>
<path d="M94.1077 41.9883L92.2524 43.13C92.2524 43.13 85.1168 47.9822 88.8273 48.8385C92.5378 49.6947 94.6785 45.4134 94.6785 45.4134L96.1056 43.7008L94.1077 41.9883Z" fill="#FFB8B8"/>
<path opacity="0.1" d="M104.662 21.0078L105.947 22.2922C105.947 22.2922 106.803 34.2801 105.09 36.7062C103.378 39.1323 95.5287 45.6971 95.1005 45.2689C94.6724 44.8408 91.9609 42.7001 92.5317 42.4147C93.1026 42.1292 100.692 34.1988 100.692 34.1988L100.095 23.1485L104.662 21.0078Z" fill="black"/>
<path d="M105.236 20.582L106.521 21.8664C106.521 21.8664 107.377 33.8543 105.665 36.2804C103.952 38.7065 96.1029 45.2713 95.6748 44.8431C95.2466 44.415 92.5351 42.2743 93.1059 41.9889C93.6768 41.7035 101.267 33.773 101.267 33.773L100.67 22.7227L105.236 20.582Z" fill="#0072EF"/>
<path d="M95.6686 0.416058C95.6686 0.416058 94.0192 -0.183724 91.77 1.09081L92.9696 1.3907C92.9696 1.3907 91.1702 1.54065 90.9453 3.93977H91.77C91.77 3.93977 91.2452 6.03901 91.77 6.63879L92.1074 6.00152L93.082 7.95081L93.3069 6.97617L93.7568 7.12611L94.0567 5.55169C94.0567 5.55169 94.8064 6.67627 95.4062 6.75125V5.7766C95.4062 5.7766 97.0556 7.65092 97.5804 7.57595L96.8307 6.52633L97.8803 6.75124L97.4304 6.00152L100.129 6.75124L99.5297 6.00152L101.404 6.6013L102.304 6.97616C102.304 6.97616 103.578 4.05223 101.779 2.02797C99.9795 0.00370426 97.3555 -0.446128 95.6686 0.416058Z" fill="#2F2E41"/>
<path d="M48.5232 61.1932C48.4033 61.2688 48.2793 61.3389 48.151 61.4036C47.1085 61.9279 45.9006 62.0173 44.7922 61.6521C43.6839 61.2869 42.7657 60.497 42.239 59.4556L41.2897 57.5731L41.9269 57.2519L42.8762 59.1344C43.0942 59.5671 43.3952 59.9526 43.7622 60.2689C44.1291 60.5852 44.5548 60.8261 45.0149 60.9779C45.475 61.1296 45.9605 61.1892 46.4437 61.1532C46.9268 61.1173 47.3981 60.9865 47.8307 60.7683C48.2633 60.5501 48.6486 60.2489 48.9647 59.8817C49.2808 59.5146 49.5215 59.0888 49.673 58.6286C49.8245 58.1684 49.8838 57.6829 49.8476 57.1998C49.8113 56.7167 49.6803 56.2454 49.4619 55.8129L45.475 47.9076C45.2569 47.4752 44.9558 47.09 44.5888 46.7739C44.2219 46.4579 43.7962 46.2172 43.3363 46.0656C42.8763 45.9141 42.391 45.8546 41.908 45.8906C41.425 45.9266 40.9539 46.0574 40.5215 46.2755C40.0891 46.4936 39.7038 46.7947 39.3878 47.1617C39.0717 47.5286 38.8311 47.9543 38.6795 48.4142C38.5279 48.8742 38.4685 49.3595 38.5045 49.8425C38.5405 50.3255 38.6713 50.7966 38.8894 51.229L40.3009 54.0279L39.6637 54.3492L38.2521 51.5503C37.7269 50.508 37.6371 49.2998 38.0026 48.1914C38.368 47.0829 39.1587 46.165 40.2008 45.6395C41.2429 45.1139 42.4511 45.0238 43.5596 45.3889C44.6682 45.754 45.5864 46.5444 46.1122 47.5864L50.0991 55.4917C50.5914 56.468 50.7028 57.5927 50.4115 58.6466C50.1201 59.7005 49.447 60.6083 48.5232 61.1932Z" fill="#3F3D56"/>
<path d="M48.9101 70.9507C48.7919 71.0252 48.6693 71.0945 48.5423 71.1587C47.4998 71.683 46.2918 71.7724 45.1835 71.4072C44.0751 71.042 43.1569 70.2521 42.6302 69.2107L38.6434 61.3054C38.1177 60.2631 38.0276 59.0546 38.393 57.9459C38.7583 56.8372 39.5491 55.919 40.5914 55.3934C41.6338 54.8677 42.8422 54.7776 43.9509 55.143C45.0596 55.5083 45.9778 56.2991 46.5035 57.3414L47.5508 59.4182L46.9136 59.7394L45.8662 57.6627C45.6481 57.2303 45.347 56.845 44.9801 56.529C44.6131 56.2129 44.1875 55.9723 43.7275 55.8207C43.2675 55.6692 42.7822 55.6097 42.2992 55.6457C41.8162 55.6817 41.3451 55.8125 40.9127 56.0306C40.4803 56.2487 40.095 56.5498 39.779 56.9167C39.4629 57.2837 39.2223 57.7093 39.0707 58.1693C38.9192 58.6293 38.8597 59.1146 38.8957 59.5976C38.9317 60.0806 39.0625 60.5517 39.2806 60.9841L43.2674 68.8895C43.4854 69.3222 43.7864 69.7077 44.1534 70.024C44.5203 70.3403 44.946 70.5812 45.4061 70.7329C45.8662 70.8847 46.3517 70.9443 46.8349 70.9083C47.318 70.8724 47.7893 70.7416 48.2219 70.5234C48.6545 70.3052 49.0398 70.004 49.3559 69.6368C49.672 69.2697 49.9127 68.8439 50.0642 68.3837C50.2157 67.9235 50.275 67.438 50.2388 66.9549C50.2026 66.4717 50.0715 66.0005 49.8531 65.568L48.4808 62.8469L49.118 62.5257L50.4903 65.2468C50.9817 66.2241 51.092 67.3492 50.8 68.4034C50.5079 69.4576 49.8343 70.3655 48.9101 70.9507Z" fill="#3F3D56"/>
<path d="M77.3354 76.7396H11.4023V40.0625H77.3354V76.7396ZM11.6878 76.4541H77.05V40.3479H11.6878V76.4541Z" fill="#2F2E41"/>
</g>
<defs>
<clipPath id="clip0_33734_83106">
<rect width="108.604" height="100" fill="white" transform="translate(0.699219)"/>
</clipPath>
</defs>
</svg>
