<svg width="208" height="207" viewBox="0 0 208 207" fill="none" xmlns="http://www.w3.org/2000/svg">
<path d="M16.1471 32.8213H14.6698L18.9426 21.1849H20.3971L24.6698 32.8213H23.1926L19.7153 23.0258H19.6244L16.1471 32.8213ZM16.6926 28.2758H22.6471V29.5258H16.6926V28.2758ZM30.1869 24.094V25.2304H25.4823V24.094H30.1869ZM26.8914 32.8213V22.8895C26.8914 22.3895 27.0088 21.9728 27.2437 21.6395C27.4785 21.3061 27.7835 21.0561 28.1585 20.8895C28.5335 20.7228 28.9293 20.6395 29.346 20.6395C29.6755 20.6395 29.9445 20.666 30.1528 20.719C30.3611 20.772 30.5164 20.8213 30.6187 20.8667L30.2323 22.0258C30.1642 22.0031 30.0695 21.9747 29.9482 21.9406C29.8308 21.9065 29.6755 21.8895 29.4823 21.8895C29.0392 21.8895 28.7191 22.0012 28.5221 22.2247C28.3289 22.4482 28.2323 22.7758 28.2323 23.2077V32.8213H26.8914ZM35.9525 24.094V25.2304H31.248V24.094H35.9525ZM32.657 32.8213V22.8895C32.657 22.3895 32.7745 21.9728 33.0093 21.6395C33.2442 21.3061 33.5491 21.0561 33.9241 20.8895C34.2991 20.7228 34.6949 20.6395 35.1116 20.6395C35.4411 20.6395 35.7101 20.666 35.9184 20.719C36.1267 20.772 36.282 20.8213 36.3843 20.8667L35.998 22.0258C35.9298 22.0031 35.8351 21.9747 35.7139 21.9406C35.5964 21.9065 35.4411 21.8895 35.248 21.8895C34.8048 21.8895 34.4847 22.0012 34.2877 22.2247C34.0945 22.4482 33.998 22.7758 33.998 23.2077V32.8213H32.657ZM37.8318 32.8213V24.094H39.1727V32.8213H37.8318ZM38.5136 22.6395C38.2522 22.6395 38.0268 22.5505 37.8374 22.3724C37.6518 22.1944 37.559 21.9804 37.559 21.7304C37.559 21.4804 37.6518 21.2664 37.8374 21.0883C38.0268 20.9103 38.2522 20.8213 38.5136 20.8213C38.7749 20.8213 38.9984 20.9103 39.184 21.0883C39.3734 21.2664 39.4681 21.4804 39.4681 21.7304C39.4681 21.9804 39.3734 22.1944 39.184 22.3724C38.9984 22.5505 38.7749 22.6395 38.5136 22.6395ZM42.9695 21.1849V32.8213H41.6286V21.1849H42.9695ZM45.4255 32.8213V24.094H46.7664V32.8213H45.4255ZM46.1073 22.6395C45.846 22.6395 45.6206 22.5505 45.4312 22.3724C45.2456 22.1944 45.1528 21.9804 45.1528 21.7304C45.1528 21.4804 45.2456 21.2664 45.4312 21.0883C45.6206 20.9103 45.846 20.8213 46.1073 20.8213C46.3687 20.8213 46.5922 20.9103 46.7778 21.0883C46.9672 21.2664 47.0619 21.4804 47.0619 21.7304C47.0619 21.9804 46.9672 22.1944 46.7778 22.3724C46.5922 22.5505 46.3687 22.6395 46.1073 22.6395ZM51.7906 33.0258C51.2375 33.0258 50.7356 32.9217 50.2849 32.7133C49.8341 32.5012 49.4762 32.1963 49.211 31.7986C48.9459 31.397 48.8133 30.9122 48.8133 30.344C48.8133 29.844 48.9118 29.4387 49.1088 29.1281C49.3057 28.8137 49.569 28.5675 49.8985 28.3895C50.2281 28.2114 50.5917 28.0789 50.9894 27.9917C51.391 27.9008 51.7944 27.8289 52.1997 27.7758C52.73 27.7077 53.1599 27.6565 53.4894 27.6224C53.8228 27.5845 54.0652 27.522 54.2167 27.4349C54.372 27.3478 54.4497 27.1963 54.4497 26.9804V26.9349C54.4497 26.3743 54.2963 25.9387 53.9894 25.6281C53.6864 25.3175 53.2262 25.1622 52.6088 25.1622C51.9686 25.1622 51.4667 25.3023 51.1031 25.5827C50.7394 25.863 50.4838 26.1622 50.336 26.4804L49.0633 26.0258C49.2906 25.4955 49.5936 25.0827 49.9724 24.7872C50.355 24.488 50.7716 24.2796 51.2224 24.1622C51.6769 24.041 52.1239 23.9804 52.5633 23.9804C52.8436 23.9804 53.1656 24.0145 53.5292 24.0827C53.8966 24.147 54.2508 24.2815 54.5917 24.4861C54.9364 24.6906 55.2224 24.9993 55.4497 25.4122C55.6769 25.8251 55.7906 26.3781 55.7906 27.0713V32.8213H54.4497V31.6395H54.3815C54.2906 31.8289 54.1391 32.0315 53.9269 32.2474C53.7148 32.4633 53.4326 32.647 53.0803 32.7986C52.7281 32.9501 52.2981 33.0258 51.7906 33.0258ZM51.9951 31.8213C52.5254 31.8213 52.9724 31.7171 53.336 31.5088C53.7035 31.3005 53.98 31.0315 54.1656 30.702C54.355 30.3724 54.4497 30.0258 54.4497 29.6622V28.4349C54.3928 28.5031 54.2678 28.5656 54.0747 28.6224C53.8853 28.6755 53.6656 28.7228 53.4156 28.7645C53.1694 28.8023 52.9288 28.8364 52.694 28.8667C52.4629 28.8933 52.2754 28.916 52.1315 28.9349C51.783 28.9804 51.4572 29.0542 51.1542 29.1565C50.855 29.255 50.6125 29.4046 50.4269 29.6054C50.2451 29.8023 50.1542 30.0713 50.1542 30.4122C50.1542 30.8781 50.3266 31.2304 50.6713 31.469C51.0197 31.7039 51.461 31.8213 51.9951 31.8213ZM62.0335 24.094V25.2304H57.5107V24.094H62.0335ZM58.8289 22.0031H60.1698V30.3213C60.1698 30.7001 60.2248 30.9842 60.3346 31.1736C60.4482 31.3592 60.5922 31.4842 60.7664 31.5486C60.9445 31.6092 61.132 31.6395 61.3289 31.6395C61.4767 31.6395 61.5979 31.6319 61.6926 31.6167C61.7873 31.5978 61.863 31.5827 61.9198 31.5713L62.1926 32.7758C62.1017 32.8099 61.9748 32.844 61.8119 32.8781C61.649 32.916 61.4426 32.9349 61.1926 32.9349C60.8138 32.9349 60.4426 32.8535 60.0789 32.6906C59.7191 32.5277 59.4198 32.2796 59.1812 31.9463C58.9463 31.613 58.8289 31.1925 58.8289 30.6849V22.0031ZM67.6159 33.0031C66.7749 33.0031 66.0496 32.8175 65.4397 32.4463C64.8337 32.0713 64.3659 31.5486 64.0363 30.8781C63.7106 30.2039 63.5477 29.4198 63.5477 28.5258C63.5477 27.6319 63.7106 26.844 64.0363 26.1622C64.3659 25.4766 64.8242 24.9425 65.4113 24.5599C66.0022 24.1736 66.6916 23.9804 67.4795 23.9804C67.934 23.9804 68.3829 24.0561 68.8261 24.2077C69.2693 24.3592 69.6727 24.6054 70.0363 24.9463C70.3999 25.2834 70.6897 25.7304 70.9056 26.2872C71.1215 26.844 71.2295 27.5296 71.2295 28.344V28.9122H64.5022V27.7531H69.8659C69.8659 27.2607 69.7674 26.8213 69.5704 26.4349C69.3772 26.0486 69.1007 25.7436 68.7409 25.5202C68.3848 25.2967 67.9643 25.1849 67.4795 25.1849C66.9454 25.1849 66.4833 25.3175 66.0931 25.5827C65.7068 25.844 65.4094 26.1849 65.2011 26.6054C64.9927 27.0258 64.8886 27.4766 64.8886 27.9577V28.7304C64.8886 29.3895 65.0022 29.9482 65.2295 30.4065C65.4606 30.8611 65.7806 31.2077 66.1897 31.4463C66.5988 31.6811 67.0742 31.7986 67.6159 31.7986C67.9681 31.7986 68.2863 31.7493 68.5704 31.6508C68.8583 31.5486 69.1064 31.397 69.3147 31.1963C69.5231 30.9917 69.684 30.738 69.7977 30.4349L71.0931 30.7986C70.9568 31.238 70.7276 31.6243 70.4056 31.9577C70.0837 32.2872 69.6859 32.5448 69.2124 32.7304C68.739 32.9122 68.2068 33.0031 67.6159 33.0031Z" fill="#262626"/>
<g clip-path="url(#clip0_31609_107773)">
<path d="M44.1523 197.777L44.3037 194.373C45.8821 193.529 47.6427 193.083 49.4325 193.074C46.9692 195.088 47.277 198.97 45.607 201.678C45.0797 202.519 44.3699 203.23 43.5303 203.759C42.6908 204.288 41.7429 204.622 40.7569 204.735L38.6956 205.997C38.4127 204.42 38.4751 202.801 38.8784 201.25C39.2817 199.7 40.0163 198.255 41.0316 197.016C41.6081 196.327 42.2691 195.712 42.999 195.188C43.4927 196.49 44.1523 197.777 44.1523 197.777Z" fill="#D9D9D9"/>
<path d="M135.69 148.171C141.247 143.938 143.902 136.825 142.24 130.039C142.199 129.871 142.155 129.703 142.109 129.535C141.007 125.507 138.282 121.679 134.309 120.392C130.974 119.311 127.333 120.142 123.853 119.713C117.023 118.869 111.727 113.342 108 107.555C104.274 101.768 101.41 95.2908 96.4588 90.5101C88.2971 82.6298 74.9834 80.9332 64.8641 86.0626C54.7449 91.1921 48.299 102.572 48.5739 113.914C48.8488 125.256 55.5819 136.099 65.3601 141.853C68.9522 143.966 73.1068 145.463 77.2414 144.939C80.829 144.485 84.0888 142.557 87.6595 141.985C93.2735 141.085 98.8517 143.623 103.707 146.581C108.563 149.539 113.253 153.045 118.771 154.416C124.129 155.748 130.767 151.921 135.69 148.171Z" fill="#F0F0F0"/>
<g clip-path="url(#clip1_31609_107773)">
<path d="M47.0827 129.028C47.097 129.351 47.1041 129.704 46.9377 129.977C46.7346 130.311 46.3559 130.399 46.0199 130.458C45.9087 130.477 45.7836 130.493 45.7008 130.412C45.6521 130.364 45.6273 130.292 45.6043 130.221C45.0086 128.399 44.506 126.526 44.1002 124.618C44.1337 124.775 46.75 124.098 47.0024 125.061C47.1071 125.461 46.9593 126.282 46.979 126.724C47.0135 127.492 47.0481 128.26 47.0825 129.028L47.0827 129.028Z" fill="#00B140"/>
<path d="M65.5189 121.312C65.3455 121.228 65.2795 121.077 65.3364 120.936C65.3995 120.781 65.5446 120.726 65.7397 120.785C65.7671 120.794 65.7944 120.803 65.8204 120.815C67.1998 121.451 68.5942 122.052 70.0011 122.625C70.8927 122.988 71.7751 123.374 72.6649 123.742C72.8508 123.819 73.0415 123.874 73.1364 124.073C73.1265 124.118 73.1167 124.163 73.1069 124.207C72.9571 124.347 72.796 124.356 72.606 124.28C71.8349 123.97 71.0583 123.674 70.2873 123.364C68.9632 122.832 67.6438 122.288 66.3469 121.692C66.071 121.565 65.7924 121.444 65.5191 121.312L65.5189 121.312Z" fill="#00B140"/>
<path d="M39.1247 118.963C39.176 118.837 39.1592 118.689 39.2468 118.575C39.691 118.392 40.1308 118.198 40.58 118.028C42.8546 117.168 45.0453 116.141 47.1151 114.862C48.4899 114.013 49.8168 113.105 50.9903 111.99C51.9887 111.042 52.9683 110.078 53.7287 108.918C54.0285 108.461 54.3189 107.994 54.7251 107.617C54.8843 107.47 55.0556 107.335 55.2957 107.355C55.3373 107.406 55.309 107.45 55.2844 107.496C54.9074 108.2 54.6496 108.949 54.4186 109.711C54.2479 110.274 54.1291 110.849 54.0226 111.425C53.892 112.131 53.913 112.848 53.9395 113.564C53.9572 114.041 53.9607 114.518 53.9685 114.995C53.9699 115.071 53.977 115.137 54.0614 115.158L54.0594 115.168C53.9852 115.2 53.9817 115.261 53.9903 115.339C54.0461 115.843 54.1457 116.339 54.2311 116.839C54.4576 118.163 54.938 119.41 55.416 120.656C55.5602 121.033 55.7081 121.411 55.8997 121.769C56.0263 122.13 56.2104 122.466 56.3826 122.807C56.7201 123.475 57.0822 124.131 57.512 124.747C58.1206 125.618 58.7571 126.468 59.4927 127.24C59.6021 127.355 59.7307 127.451 59.8502 127.556C59.6929 127.651 59.5208 127.617 59.3667 127.574C58.3117 127.279 57.2433 127.043 56.1715 126.821C56.0089 126.787 55.8429 126.768 55.6824 126.728C54.5222 126.434 53.3765 126.084 52.2051 125.833C51.3817 125.656 50.5552 125.499 49.72 125.388C49.504 125.361 49.1178 125.296 48.762 125.238L48.7449 125.232C48.484 125.175 48.2197 125.128 47.9534 125.139C47.9245 125.125 47.8893 125.119 47.8517 125.115C47.2154 125.037 47.0672 125.096 46.4263 125.085C45.6711 125.072 44.9168 125.094 44.1623 125.112C44.1398 125.113 44.1174 125.12 44.095 125.125C43.6959 125.121 43.2979 125.14 42.901 125.179L42.9012 125.179L42.901 125.179C42.8839 125.178 42.8667 125.176 42.8497 125.177C42.1766 125.214 41.5138 125.331 40.8484 125.426C40.6749 125.39 40.5685 125.282 40.4695 125.136C40.2397 124.796 40.015 124.454 39.8295 124.087C39.4689 123.375 39.1999 122.634 39.0531 121.848C38.9415 121.25 38.9036 120.649 38.9122 120.046C38.9175 119.676 38.9833 119.31 39.124 118.963L39.1247 118.963Z" fill="#0050B3"/>
<path d="M59.4928 127.239C58.7572 126.468 58.1206 125.617 57.512 124.746C57.0823 124.13 56.7203 123.474 56.3826 122.806C56.2106 122.465 56.0263 122.129 55.8997 121.768C56.4013 121.317 56.9334 120.906 57.502 120.544C57.8725 120.308 58.2601 120.099 58.6388 119.876C58.7024 119.838 58.7608 119.792 58.8217 119.75C59.1556 119.644 59.3333 119.362 59.2648 119.029C59.0672 118.065 58.8123 117.119 58.3931 116.224C58.2165 115.847 58.0386 115.469 57.811 115.119C57.6691 114.901 57.4748 114.743 57.1897 114.763C57.0909 114.771 57.0096 114.831 56.921 114.869C55.9862 115.098 55.0354 115.177 54.0743 115.16L54.0613 115.157C53.9768 115.136 53.9695 115.07 53.9684 114.994C53.9605 114.517 53.957 114.04 53.9394 113.563C53.9127 112.847 53.8917 112.13 54.0225 111.424C54.1291 110.848 54.2478 110.273 54.4186 109.71C54.6494 108.948 54.9074 108.199 55.2842 107.495C55.309 107.449 55.3372 107.405 55.2955 107.354C55.3598 107.315 55.3976 107.385 55.453 107.392C55.9725 107.455 56.3526 107.769 56.7175 108.104C57.5778 108.895 58.295 109.805 58.9411 110.771C59.3764 111.422 59.7704 112.101 60.1041 112.809C60.9097 114.519 61.5406 116.293 61.98 118.128C62.2042 119.064 62.3318 120.019 62.3414 120.988C62.3502 121.868 62.2295 122.732 62.0897 123.595C62.0543 123.813 61.9549 124.018 61.9199 124.238C61.8585 124.624 61.6804 124.972 61.5503 125.335C61.3791 125.812 61.1374 126.257 60.8692 126.687C60.7181 126.929 60.546 127.15 60.3241 127.339C60.179 127.463 60.0021 127.472 59.8504 127.556C59.7308 127.451 59.6022 127.354 59.4928 127.24L59.4928 127.239Z" fill="#91D5FF"/>
<path d="M34.0381 120.327C34.1627 120.107 34.2842 119.859 34.5469 119.771C35.1383 119.575 35.7282 119.372 36.3354 119.225C37.0698 119.048 37.8026 118.863 38.5397 118.698C38.7721 118.645 39.0056 118.583 39.2471 118.574C39.1594 118.689 39.1763 118.836 39.125 118.963C38.9844 119.309 38.9185 119.675 38.9133 120.045C38.9048 120.649 38.9425 121.25 39.0541 121.847C39.201 122.634 39.47 123.375 39.8306 124.087C40.0162 124.453 40.2409 124.795 40.4707 125.135C40.5695 125.282 40.6759 125.39 40.8495 125.426C40.7448 125.511 40.6195 125.547 40.4904 125.574C40.2217 125.63 39.9508 125.679 39.6848 125.745C38.5514 126.029 37.3932 126.199 36.2619 126.489C35.7494 126.62 35.3507 126.539 34.999 126.109C34.7617 125.817 34.488 125.552 34.2867 125.233C33.8935 124.61 33.7393 123.908 33.6338 123.193C33.5583 122.682 33.5743 122.175 33.6545 121.663C33.7272 121.199 33.8041 120.739 34.0381 120.327Z" fill="#91D5FF"/>
<path d="M68.2622 106.589C67.077 107.72 65.8757 108.834 64.6143 109.882C64.364 110.09 64.1209 110.306 63.8665 110.509C63.7277 110.62 63.5463 110.597 63.4497 110.479C63.357 110.366 63.3736 110.202 63.4955 110.078C63.5553 110.017 63.621 109.961 63.6861 109.906C64.2424 109.432 64.8056 108.965 65.3544 108.483C66.3921 107.571 67.389 106.614 68.4584 105.737C68.5445 105.667 68.6288 105.6 68.7507 105.63C68.953 105.673 69.0197 105.914 68.8563 106.073C68.6689 106.256 68.4515 106.408 68.262 106.589L68.2622 106.589Z" fill="#00B140"/>
<path d="M65.3404 114.835C65.5719 114.771 65.8044 114.707 66.0398 114.66C67.3476 114.394 68.6758 114.259 69.9947 114.063C70.0281 114.058 70.0629 114.064 70.0746 114.064C70.2135 114.088 70.2826 114.164 70.3018 114.273C70.323 114.391 70.2727 114.491 70.1606 114.539C70.0724 114.576 69.9752 114.597 69.8799 114.613C68.4136 114.862 66.9311 115.022 65.4868 115.392C65.2802 115.445 65.1263 115.366 65.0804 115.207C65.0311 115.036 65.1248 114.895 65.3405 114.835L65.3404 114.835Z" fill="#00B140"/>
<path d="M63.7045 125.134C63.7569 125.168 63.803 125.212 63.847 125.257C64.361 125.78 64.8644 126.312 65.3218 126.886C65.3894 126.971 65.4716 127.045 65.518 127.145C65.5628 127.242 65.5574 127.334 65.4886 127.418C65.4239 127.496 65.3378 127.515 65.2406 127.5C65.1715 127.485 65.1087 127.444 65.0117 127.327C64.5094 126.723 63.9624 126.161 63.3996 125.614C63.3671 125.582 63.3338 125.548 63.3129 125.509C63.2477 125.385 63.2494 125.264 63.3575 125.165C63.4619 125.07 63.5828 125.056 63.7044 125.134L63.7045 125.134Z" fill="#00B140"/>
<path d="M59.3066 108.399C59.242 108.537 59.1307 108.594 58.9835 108.546C58.8488 108.503 58.7985 108.373 58.8568 108.13C58.9952 107.817 59.1594 107.43 59.3372 107.049C59.4144 106.883 59.5669 106.834 59.7058 106.901C59.8399 106.965 59.8958 107.122 59.8231 107.284C59.656 107.658 59.4804 108.028 59.3065 108.399L59.3066 108.399Z" fill="#00B140"/>
<path d="M54.0733 115.16C55.0344 115.177 55.9851 115.098 56.92 114.87C56.9273 114.885 56.9447 114.905 56.9401 114.914C56.739 115.349 56.8958 115.765 57.0263 116.173C57.2797 116.964 57.6351 117.716 57.9545 118.482C58.0944 118.818 58.2118 119.162 58.4145 119.469C58.5149 119.622 58.6348 119.729 58.8206 119.75C58.7597 119.792 58.7013 119.838 58.6377 119.876C58.2588 120.099 57.8714 120.308 57.5009 120.544C56.9323 120.906 56.4001 121.318 55.8986 121.768C55.7071 121.41 55.5593 121.032 55.4147 120.655C54.9369 119.409 54.4564 118.162 54.2298 116.838C54.1444 116.339 54.0449 115.842 53.989 115.338C53.9804 115.26 53.984 115.199 54.0581 115.167L54.0732 115.16L54.0733 115.16Z" fill="#00B140"/>
<path d="M58.4163 119.469C58.2136 119.162 58.0963 118.818 57.9564 118.482C57.6371 117.716 57.2818 116.964 57.0282 116.173C56.8976 115.766 56.7409 115.349 56.942 114.915C56.9466 114.905 56.9291 114.885 56.9218 114.87C57.0105 114.832 57.0918 114.771 57.1905 114.764C57.4757 114.743 57.6699 114.901 57.8118 115.119C58.0395 115.469 58.2173 115.847 58.394 116.224C58.8132 117.119 59.068 118.066 59.2656 119.029C59.3341 119.363 59.1564 119.645 58.8225 119.75C58.6367 119.729 58.5168 119.622 58.4164 119.469L58.4163 119.469Z" fill="#0050B3"/>
</g>
<path d="M87.9286 141.617H34.8718C34.4132 141.617 33.9733 141.434 33.649 141.11C33.3248 140.786 33.1426 140.346 33.1426 139.887C33.1426 139.429 33.3248 138.989 33.649 138.665C33.9733 138.34 34.4132 138.158 34.8718 138.158H87.9286C88.3872 138.158 88.827 138.34 89.1513 138.665C89.4756 138.989 89.6578 139.429 89.6578 139.887C89.6578 140.346 89.4756 140.786 89.1513 141.11C88.827 141.434 88.3872 141.617 87.9286 141.617Z" fill="#E6E6E6"/>
<path d="M122.025 117.239H106.439C105.981 117.238 105.542 117.056 105.218 116.731C104.894 116.407 104.712 115.968 104.712 115.509C104.712 115.051 104.894 114.612 105.218 114.287C105.542 113.963 105.981 113.781 106.439 113.78H122.025C122.483 113.78 122.923 113.962 123.247 114.287C123.572 114.611 123.754 115.051 123.754 115.509C123.754 115.968 123.572 116.408 123.247 116.732C122.923 117.056 122.483 117.239 122.025 117.239Z" fill="#E6E6E6"/>
<path d="M118.979 172.665H103.393C102.935 172.665 102.496 172.482 102.172 172.158C101.848 171.834 101.666 171.394 101.666 170.936C101.666 170.478 101.848 170.038 102.172 169.714C102.496 169.39 102.935 169.208 103.393 169.207H118.979C119.437 169.207 119.877 169.389 120.202 169.713C120.526 170.038 120.708 170.478 120.708 170.936C120.708 171.395 120.526 171.835 120.202 172.159C119.877 172.483 119.437 172.665 118.979 172.665Z" fill="#E6E6E6"/>
<path d="M98.5785 93.7933H82.9929C82.5346 93.7928 82.0953 93.6104 81.7714 93.2862C81.4476 92.9619 81.2656 92.5224 81.2656 92.0641C81.2656 91.6059 81.4476 91.1663 81.7714 90.8421C82.0953 90.5179 82.5346 90.3355 82.9929 90.335H98.5785C99.0371 90.335 99.4769 90.5171 99.8012 90.8414C100.125 91.1657 100.308 91.6055 100.308 92.0641C100.308 92.5227 100.125 92.9626 99.8012 93.2869C99.4769 93.6111 99.0371 93.7933 98.5785 93.7933Z" fill="#E6E6E6"/>
<path d="M44.2164 127.158L32.3746 127.237C32.3746 127.237 25.6304 125.063 22.5718 125.517L21.4023 130.111L29.8033 132.895L44.4243 130.774C44.7524 130.939 45.1185 131.016 45.4855 130.995C45.8526 130.974 46.2077 130.857 46.5151 130.656C46.8226 130.454 47.0715 130.175 47.2369 129.847C47.4023 129.519 47.4782 129.152 47.4571 128.785C47.436 128.418 47.3186 128.063 47.1167 127.756C46.9148 127.449 46.6355 127.2 46.307 127.035C45.9785 126.87 45.6123 126.795 45.2453 126.816C44.8782 126.838 44.5234 126.956 44.2164 127.158L44.2164 127.158Z" fill="#A0616A"/>
<path d="M29.7016 133.34L15.6523 129.3L14.3733 124.534C14.0401 123.898 13.8914 123.182 13.9439 122.466C13.9965 121.75 14.2483 121.063 14.6708 120.483C15.8702 118.858 16.8077 120.472 18.5099 121.558C21.4938 121.769 28.9418 124.317 31.9651 127.268L31.7269 129.082L29.7016 133.34Z" fill="#40A9FF"/>
<path d="M32.1245 203.523L35.1134 203.522L36.5351 191.994L32.124 191.994L32.1245 203.523Z" fill="#A0616A"/>
<path d="M31.3643 202.547L32.2055 202.547L35.49 201.211L37.2503 202.546H37.2506C38.2454 202.546 39.1994 202.942 39.9029 203.645C40.6063 204.349 41.0015 205.303 41.0016 206.297V206.419L31.3644 206.42L31.3643 202.547Z" fill="black"/>
<path d="M10.8438 200.708L13.6749 201.667L18.7191 191.204L14.541 189.789L10.8438 200.708Z" fill="#A0616A"/>
<path d="M10.4315 199.541L11.2284 199.811L14.7677 199.599L16.0067 201.429L16.0069 201.429C16.9491 201.748 17.726 202.428 18.1667 203.32C18.6073 204.212 18.6757 205.242 18.3567 206.185L18.3176 206.3L9.18945 203.209L10.4315 199.541Z" fill="black"/>
<path d="M14.3072 153.867C14.3072 153.867 13.9582 158.055 14.8307 162.068C15.7032 166.082 17.5809 179.405 17.5809 179.405C13.7777 185.656 11.5736 191.807 11.1572 198.033L16.5103 198.461L24.1751 180.275L24.9516 162.068L30.5356 174.458L30.2485 175.415C30.1806 175.641 30.1889 175.884 30.2722 176.105C30.3554 176.326 30.5091 176.514 30.7094 176.639C30.7094 176.639 30.1866 180.042 30.5356 180.042C30.8846 180.042 31.7571 180.565 31.7571 180.565C29.5817 187.338 29.2896 193.823 31.2847 199.96L35.9953 199.746L39.086 173.062L36.8176 158.578L36.6431 155.786L35.8578 155.819L35.458 154.652L34.7236 152.646L14.3072 153.867Z" fill="#002766"/>
<path d="M14.0048 154.745L13.9737 154.702C12.3127 152.376 14.8109 146.788 15.1876 145.978L13.6007 145.463L12.2131 133.721L11.1982 129.665C10.8158 128.131 10.8484 126.523 11.2926 125.007C11.7368 123.49 12.5767 122.119 13.726 121.034L16.0718 118.822L18.9227 114.604H23.5202L25.0966 117.581C26.6249 117.934 27.9808 118.812 28.9283 120.063C29.8757 121.313 30.3545 122.856 30.2813 124.423L29.924 132.232L31.3226 141.955L31.3235 143.715L33.7516 147.696L34.2806 150.164C34.4995 150.453 35.9443 152.379 35.9443 152.906C35.9443 152.985 35.8859 153.062 35.7607 153.146C34.7761 153.813 29.3339 155.172 26.9252 154.208C24.3596 153.183 14.1606 154.722 14.0578 154.737L14.0048 154.745Z" fill="#40A9FF"/>
<path d="M21.8153 113.243C25.1781 113.243 27.9041 110.517 27.9041 107.154C27.9041 103.791 25.1781 101.065 21.8153 101.065C18.4526 101.065 15.7266 103.791 15.7266 107.154C15.7266 110.517 18.4526 113.243 21.8153 113.243Z" fill="#A0616A"/>
<path d="M45.9029 114.7L35.1184 119.591C35.1184 119.591 28.0731 120.35 25.4641 122.01L26.2653 126.682L35.0719 125.806L47.5642 117.918C47.9314 117.936 48.2968 117.857 48.6237 117.688C48.9506 117.52 49.2273 117.269 49.4262 116.959C49.625 116.65 49.7388 116.294 49.7563 115.927C49.7737 115.56 49.6941 115.194 49.5255 114.868C49.3568 114.541 49.1051 114.264 48.7957 114.066C48.4862 113.867 48.1299 113.754 47.7627 113.737C47.3954 113.72 47.0302 113.8 46.7037 113.969C46.3772 114.138 46.101 114.39 45.9029 114.7Z" fill="#A0616A"/>
<path d="M36.5761 125.517L23.5261 129.338L19.0392 127.746C18.3898 127.44 17.8388 126.959 17.4487 126.356C17.0585 125.753 16.8447 125.054 16.8313 124.336C16.8073 122.317 18.5286 123.038 20.5414 122.877C23.048 121.244 30.5247 118.781 34.7162 119.309L35.621 120.899L36.5761 125.517Z" fill="#40A9FF"/>
<path d="M25.9896 100.125C25.5532 100.112 25.703 99.2891 25.3514 99.0267C25.3497 99.0347 25.3479 99.0426 25.3461 99.0506C25.3 99.2283 25.1981 99.3864 25.0553 99.5018C24.9126 99.6172 24.7365 99.6837 24.5531 99.6916C24.3698 99.6994 24.1887 99.6481 24.0366 99.5453C23.8846 99.4425 23.7695 99.2936 23.7085 99.1204C23.6502 98.9202 23.5446 98.7369 23.4007 98.5859C23.2568 98.435 23.0788 98.3208 22.8815 98.2529C22.8596 99.0153 22.283 99.677 21.595 100.006C20.907 100.336 20.1225 100.39 19.3599 100.402C18.5973 100.413 17.8236 100.387 17.0841 100.574C16.3446 100.761 15.6252 101.199 15.3092 101.894C14.9933 102.588 15.2187 103.544 15.9096 103.867C15.3744 103.87 14.9202 104.311 14.7352 104.813C14.5834 105.329 14.5439 105.87 14.6191 106.402C14.7695 108.371 15.1363 110.491 16.5699 111.848C17.6626 112.883 19.2266 113.3 20.7315 113.294C22.2364 113.288 21.9718 113.15 23.4269 112.766C23.4269 112.766 24.8103 108.8 24.4619 108.41C24.1136 108.02 23.8243 107.52 23.8873 107.001C23.9503 106.482 24.5083 106.017 24.9926 106.214C24.9111 106.006 24.8498 105.967 24.8114 105.977C24.8358 105.918 24.8572 105.858 24.8754 105.796C24.9665 105.483 25.1306 105.197 25.3542 104.96C25.5777 104.723 25.8543 104.542 26.1612 104.433C26.4713 104.332 26.8047 104.329 27.1167 104.423C27.4287 104.518 27.7043 104.705 27.9065 104.961C29.4998 103.467 28.5113 100.2 25.9896 100.125Z" fill="black"/>
<path d="M129.057 75.7766H31.783C31.6818 75.7744 31.5855 75.7327 31.5147 75.6604C31.4439 75.5881 31.4043 75.4909 31.4043 75.3898C31.4043 75.2886 31.4439 75.1914 31.5147 75.1191C31.5855 75.0468 31.6818 75.0051 31.783 75.0029H129.057C129.158 75.0051 129.254 75.0468 129.325 75.1191C129.396 75.1914 129.436 75.2886 129.436 75.3898C129.436 75.4909 129.396 75.5881 129.325 75.6604C129.254 75.7327 129.158 75.7744 129.057 75.7766Z" fill="#CACACA"/>
<path d="M38.4037 73.0286C39.6558 73.0286 40.6707 71.991 40.6707 70.7111C40.6707 69.4311 39.6558 68.3936 38.4037 68.3936C37.1517 68.3936 36.1367 69.4311 36.1367 70.7111C36.1367 71.991 37.1517 73.0286 38.4037 73.0286Z" fill="#595959"/>
<path d="M46.2348 73.0286C47.4868 73.0286 48.5018 71.991 48.5018 70.7111C48.5018 69.4311 47.4868 68.3936 46.2348 68.3936C44.9827 68.3936 43.9678 69.4311 43.9678 70.7111C43.9678 71.991 44.9827 73.0286 46.2348 73.0286Z" fill="#595959"/>
<path d="M54.0668 73.0286C55.3189 73.0286 56.3338 71.991 56.3338 70.7111C56.3338 69.4311 55.3189 68.3936 54.0668 68.3936C52.8148 68.3936 51.7998 69.4311 51.7998 70.7111C51.7998 71.991 52.8148 73.0286 54.0668 73.0286Z" fill="#595959"/>
<path d="M124.341 68.9688H118.778C118.668 68.9709 118.563 69.0163 118.486 69.095C118.408 69.1738 118.365 69.2797 118.365 69.39C118.365 69.5003 118.408 69.6062 118.486 69.6849C118.563 69.7637 118.668 69.809 118.778 69.8112H124.341C124.452 69.809 124.557 69.7637 124.634 69.6849C124.711 69.6062 124.754 69.5003 124.754 69.39C124.754 69.2797 124.711 69.1738 124.634 69.095C124.557 69.0163 124.452 68.9709 124.341 68.9688Z" fill="#595959"/>
<path d="M124.341 70.5498H118.778C118.668 70.552 118.563 70.5973 118.486 70.6761C118.408 70.7548 118.365 70.8607 118.365 70.971C118.365 71.0813 118.408 71.1872 118.486 71.266C118.563 71.3447 118.668 71.3901 118.778 71.3923H124.341C124.452 71.3901 124.557 71.3447 124.634 71.266C124.711 71.1872 124.754 71.0813 124.754 70.971C124.754 70.8607 124.711 70.7548 124.634 70.6761C124.557 70.5973 124.452 70.552 124.341 70.5498Z" fill="#595959"/>
<path d="M124.341 72.1279H118.778C118.668 72.1301 118.563 72.1754 118.486 72.2542C118.408 72.333 118.365 72.4389 118.365 72.5492C118.365 72.6594 118.408 72.7653 118.486 72.8441C118.563 72.9229 118.668 72.9682 118.778 72.9704H124.341C124.452 72.9682 124.557 72.9229 124.634 72.8441C124.711 72.7653 124.754 72.6594 124.754 72.5492C124.754 72.4389 124.711 72.333 124.634 72.2542C124.557 72.1754 124.452 72.1301 124.341 72.1279Z" fill="#595959"/>
<g clip-path="url(#clip2_31609_107773)">
<path d="M130.952 99.7136C130.952 96.5349 128.372 93.9551 125.193 93.9551C122.014 93.9551 119.435 96.5349 119.435 99.7136C119.435 102.501 121.415 104.821 124.041 105.357V101.441H122.89V99.7136H124.041V98.274C124.041 97.1626 124.945 96.2585 126.057 96.2585H127.496V97.986H126.345C126.028 97.986 125.769 98.2452 125.769 98.5619V99.7136H127.496V101.441H125.769V105.443C128.677 105.155 130.952 102.702 130.952 99.7136Z" fill="#262626"/>
</g>
<g clip-path="url(#clip3_31609_107773)">
<path d="M160.978 125.751C157.639 125.751 154.932 128.458 154.932 131.797C154.932 135.136 157.639 137.844 160.978 137.844C164.317 137.844 167.025 135.136 167.025 131.797C167.025 128.458 164.317 125.751 160.978 125.751ZM163.884 130.309C163.888 130.372 163.888 130.438 163.888 130.503C163.888 132.484 162.379 134.767 159.622 134.767C158.771 134.767 157.983 134.52 157.319 134.095C157.441 134.108 157.557 134.113 157.681 134.113C158.383 134.113 159.028 133.876 159.542 133.474C158.883 133.46 158.33 133.028 158.141 132.434C158.372 132.468 158.58 132.468 158.817 132.407C158.478 132.339 158.173 132.154 157.955 131.886C157.736 131.618 157.617 131.282 157.617 130.936V130.917C157.816 131.029 158.049 131.098 158.294 131.108C158.088 130.971 157.92 130.785 157.803 130.568C157.687 130.35 157.626 130.107 157.626 129.861C157.626 129.581 157.698 129.326 157.829 129.105C158.206 129.568 158.675 129.947 159.208 130.217C159.74 130.487 160.324 130.642 160.92 130.672C160.708 129.653 161.469 128.828 162.384 128.828C162.816 128.828 163.205 129.009 163.479 129.301C163.818 129.237 164.142 129.11 164.431 128.94C164.318 129.287 164.084 129.58 163.772 129.765C164.074 129.732 164.366 129.649 164.636 129.531C164.432 129.831 164.177 130.097 163.884 130.309Z" fill="#262626"/>
</g>
<path d="M138.767 167.017C137.776 167.017 136.968 167.825 136.968 168.816C136.968 169.807 137.776 170.615 138.767 170.615C139.757 170.615 140.566 169.807 140.566 168.816C140.566 167.825 139.757 167.017 138.767 167.017ZM144.163 168.816C144.163 168.071 144.169 167.333 144.127 166.589C144.086 165.725 143.889 164.959 143.257 164.327C142.624 163.694 141.859 163.498 140.995 163.456C140.25 163.415 139.512 163.421 138.768 163.421C138.023 163.421 137.285 163.415 136.541 163.456C135.677 163.498 134.911 163.695 134.279 164.327C133.646 164.96 133.45 165.725 133.409 166.589C133.367 167.334 133.373 168.072 133.373 168.816C133.373 169.56 133.367 170.299 133.409 171.043C133.45 171.907 133.647 172.673 134.279 173.305C134.912 173.938 135.677 174.133 136.541 174.175C137.286 174.217 138.024 174.21 138.768 174.21C139.513 174.21 140.251 174.217 140.995 174.175C141.859 174.133 142.625 173.936 143.257 173.305C143.89 172.672 144.086 171.907 144.127 171.043C144.171 170.299 144.163 169.561 144.163 168.816ZM138.767 171.584C137.235 171.584 135.999 170.348 135.999 168.816C135.999 167.284 137.235 166.048 138.767 166.048C140.298 166.048 141.535 167.284 141.535 168.816C141.535 170.348 140.298 171.584 138.767 171.584ZM141.648 166.581C141.29 166.581 141.002 166.292 141.002 165.934C141.002 165.577 141.29 165.288 141.648 165.288C142.006 165.288 142.295 165.577 142.295 165.934C142.295 166.019 142.278 166.103 142.246 166.182C142.213 166.26 142.166 166.332 142.106 166.392C142.045 166.452 141.974 166.499 141.896 166.532C141.817 166.564 141.733 166.581 141.648 166.581Z" fill="#262626"/>
<path d="M155.063 93.4956C154.916 93.42 154.183 93.061 154.046 93.0124C153.91 92.9611 153.81 92.9368 153.712 93.088C153.612 93.2378 153.328 93.5712 153.239 93.6724C153.153 93.7723 153.065 93.7844 152.918 93.7102C152.044 93.2729 151.47 92.9301 150.894 91.9408C150.741 91.6776 151.046 91.6965 151.331 91.1283C151.38 91.0284 151.355 90.9434 151.317 90.8678C151.28 90.7922 150.983 90.0607 150.859 89.7624C150.738 89.4723 150.614 89.5128 150.524 89.5074C150.437 89.502 150.339 89.502 150.239 89.502C150.139 89.502 149.979 89.5397 149.842 89.6869C149.706 89.8367 149.321 90.197 149.321 90.9285C149.321 91.66 149.854 92.3686 149.927 92.4685C150.003 92.5684 150.976 94.0692 152.47 94.7157C153.415 95.1233 153.785 95.1583 154.257 95.0882C154.544 95.045 155.137 94.7292 155.26 94.3796C155.383 94.0314 155.383 93.7331 155.346 93.671C155.31 93.6049 155.21 93.5671 155.063 93.4956Z" fill="#262626"/>
<path d="M157.92 89.9671C157.615 89.2424 157.178 88.5918 156.62 88.0331C156.063 87.4757 155.413 87.037 154.686 86.7334C153.944 86.4216 153.156 86.2637 152.343 86.2637H152.316C151.499 86.2677 150.706 86.4297 149.961 86.7482C149.242 87.0559 148.597 87.4932 148.045 88.0506C147.493 88.608 147.06 89.2558 146.76 89.9779C146.449 90.7256 146.293 91.5206 146.297 92.3385C146.301 93.2751 146.525 94.205 146.945 95.0364V97.0879C146.945 97.4307 147.223 97.7087 147.566 97.7087H149.618C150.45 98.1285 151.38 98.3525 152.316 98.3566H152.345C153.153 98.3566 153.937 98.2 154.676 97.8936C155.398 97.5926 156.047 97.1608 156.603 96.6088C157.16 96.0567 157.599 95.4116 157.905 94.6922C158.224 93.9472 158.386 93.155 158.39 92.3371C158.394 91.5152 158.235 90.7175 157.92 89.9671ZM155.881 95.8786C154.935 96.8152 153.68 97.3308 152.343 97.3308H152.32C151.507 97.3268 150.698 97.1243 149.984 96.7437L149.871 96.683H147.971V94.7827L147.91 94.6693C147.529 93.9553 147.327 93.1469 147.323 92.3331C147.317 90.9875 147.832 89.7242 148.775 88.7727C149.717 87.8212 150.976 87.2948 152.322 87.2894H152.345C153.02 87.2894 153.674 87.4203 154.291 87.6795C154.893 87.9318 155.433 88.2949 155.897 88.7592C156.36 89.2221 156.724 89.7633 156.977 90.3653C157.239 90.9888 157.37 91.6501 157.367 92.3331C157.359 93.6773 156.831 94.9365 155.881 95.8786Z" fill="#262626"/>
</g>
<defs>
<clipPath id="clip0_31609_107773">
<rect width="207.307" height="138.204" fill="white" transform="translate(0.44043 67.8213)"/>
</clipPath>
<clipPath id="clip1_31609_107773">
<rect width="38.3277" height="30.8335" fill="white" transform="translate(41.9043 96.6582) rotate(18.4779)"/>
</clipPath>
<clipPath id="clip2_31609_107773">
<rect width="13.8204" height="13.8204" fill="white" transform="translate(118.282 92.8037)"/>
</clipPath>
<clipPath id="clip3_31609_107773">
<rect width="13.8205" height="13.8204" fill="white" transform="translate(154.067 124.887)"/>
</clipPath>
</defs>
</svg>
