<svg width="91" height="29" viewBox="0 0 91 29" fill="none" xmlns="http://www.w3.org/2000/svg">
<g clip-path="url(#clip0)">
<path d="M26.2996 20.3442C26.1584 20.003 26.026 19.6442 25.8849 19.338L25.2319 17.8767L25.2054 17.8505C23.2643 13.6505 21.1907 9.38047 18.9937 5.18047L18.9054 5.00547C18.6849 4.59422 18.4643 4.13922 18.2349 3.71922C17.9525 3.22047 17.679 2.68672 17.229 2.17922C16.7903 1.64821 16.2383 1.22038 15.6127 0.926617C14.9871 0.63285 14.3035 0.480469 13.6113 0.480469C12.9191 0.480469 12.2356 0.63285 11.61 0.926617C10.9844 1.22038 10.4323 1.64821 9.99368 2.17922C9.57898 2.68672 9.27015 3.22047 8.9878 3.71922C8.76721 4.17422 8.54663 4.62047 8.31721 5.03172L8.22898 5.20672C6.06721 9.40672 3.95839 13.6767 2.01721 17.8767L1.96427 17.9292C1.77016 18.3842 1.54074 18.8567 1.32016 19.3642C1.17898 19.6705 1.0378 20.003 0.896626 20.3705C0.515478 21.3328 0.393766 22.377 0.543484 23.4001C0.693202 24.4233 1.10918 25.3901 1.75043 26.2053C2.39168 27.0205 3.23606 27.6559 4.20035 28.049C5.16465 28.442 6.21558 28.5791 7.24957 28.4467C8.24086 28.3173 9.1954 27.9899 10.0554 27.4842C11.2025 26.8455 12.3054 25.918 13.5407 24.5792C14.776 25.918 15.9054 26.8455 17.026 27.493C18.1037 28.1202 19.324 28.4664 20.5731 28.4992C22.0196 28.5052 23.4194 27.992 24.5141 27.0543C25.6088 26.1167 26.3245 24.818 26.529 23.398C26.7653 22.3775 26.6853 21.3101 26.2996 20.3355V20.3442ZM13.629 21.7967C12.1113 19.8717 11.1231 18.1042 10.7878 16.5905C10.6489 16.0295 10.6189 15.4475 10.6996 14.8755C10.7613 14.4292 10.929 14.0355 11.1584 13.703C11.6878 12.9417 12.6143 12.4692 13.629 12.4692C14.1109 12.4546 14.5889 12.5589 15.0201 12.7727C15.4513 12.9865 15.8222 13.3032 16.0996 13.6942C16.329 14.0442 16.4966 14.4292 16.5496 14.8755C16.6378 15.383 16.6025 15.9692 16.4613 16.5905C16.126 18.078 15.1378 19.863 13.629 21.7967ZM24.8702 23.0917C24.7699 23.8127 24.4809 24.495 24.0319 25.0707C23.583 25.6464 22.9898 26.0954 22.3113 26.373C21.6407 26.653 20.8996 26.7317 20.176 26.653C19.4702 26.5655 18.7643 26.338 18.0407 25.918C16.8394 25.1817 15.7592 24.2668 14.8378 23.2055C16.6907 20.9305 17.8113 18.8567 18.2349 17.0105C18.4378 16.1355 18.4643 15.348 18.376 14.6217C18.2659 13.9333 18.007 13.2767 17.6172 12.6967C17.1722 12.0678 16.5781 11.557 15.8873 11.2091C15.1965 10.8613 14.4301 10.687 13.6554 10.7017C12.0231 10.7017 10.5672 11.4542 9.68486 12.688C9.28766 13.2665 9.03096 13.9284 8.93486 14.6217C8.82016 15.3567 8.84663 16.1705 9.07604 17.0105C9.49957 18.8567 10.6466 20.9567 12.4731 23.223C11.5673 24.3046 10.4846 25.2275 9.27015 25.953C8.5378 26.373 7.84074 26.5917 7.13486 26.6792C6.03711 26.8187 4.92823 26.5228 4.04924 25.8559C3.17025 25.1891 2.5922 24.2051 2.44074 23.118C2.35251 22.418 2.41427 21.718 2.69663 20.9305C2.78486 20.6505 2.91721 20.3705 3.05839 20.038C3.25251 19.583 3.48192 19.1105 3.70251 18.638L3.7378 18.5767C5.64368 14.403 7.72604 10.1417 9.8878 5.96797L9.97604 5.79297C10.1966 5.37297 10.4172 4.92672 10.6466 4.50672C10.876 4.06047 11.1231 3.63172 11.4407 3.28172C11.7157 2.95624 12.0593 2.69448 12.4472 2.51488C12.8352 2.33528 13.2582 2.24221 13.6863 2.24221C14.1145 2.24221 14.5375 2.33528 14.9254 2.51488C15.3134 2.69448 15.657 2.95624 15.9319 3.28172C16.2407 3.63172 16.4966 4.06047 16.726 4.50672C16.9466 4.92672 17.1672 5.38172 17.3966 5.79297L17.4849 5.96797C19.6378 10.1417 21.7202 14.403 23.6613 18.5767L23.6878 18.603C23.9172 19.058 24.1113 19.5655 24.3319 20.003C24.4731 20.3442 24.6143 20.6155 24.7025 20.9042C24.8702 21.6917 24.9584 22.3917 24.8702 23.0917ZM37.1525 21.6042C36.4876 21.6139 35.8291 21.4749 35.2257 21.1977C34.6224 20.9205 34.0897 20.5122 33.6672 20.003C32.7179 18.9179 32.214 17.5189 32.2554 16.083C32.2409 14.6158 32.761 13.1927 33.7202 12.0755C34.1638 11.5598 34.7161 11.1468 35.338 10.8656C35.96 10.5844 36.6366 10.4418 37.3202 10.448C37.9633 10.4305 38.6004 10.5755 39.1715 10.8694C39.7426 11.1633 40.229 11.5964 40.5849 12.128L40.6731 10.7542H43.2496V21.3242H40.6643L40.576 19.7842C40.2091 20.3518 39.702 20.8169 39.1028 21.1355C38.5036 21.454 37.8323 21.6154 37.1525 21.6042ZM37.8231 19.0842C38.3349 19.0842 38.7849 18.9442 39.2084 18.6905C39.5966 18.4105 39.9143 18.043 40.1613 17.5967C40.3819 17.1505 40.4966 16.6167 40.4966 16.0217C40.531 15.5049 40.4296 14.9882 40.2022 14.5219C39.9749 14.0556 39.6294 13.6559 39.1996 13.3617C38.7866 13.1065 38.3097 12.9713 37.8231 12.9713C37.3365 12.9713 36.8596 13.1065 36.4466 13.3617C36.0584 13.6417 35.7407 14.0092 35.4937 14.4555C35.2603 14.9476 35.1456 15.4868 35.1584 16.0305C35.124 16.5472 35.2254 17.064 35.4528 17.5303C35.6801 17.9965 36.0256 18.3963 36.4554 18.6905C36.8702 18.9442 37.3202 19.0842 37.8231 19.0842ZM47.6613 7.90172C47.6613 8.20797 47.6084 8.48797 47.4672 8.71547C47.326 8.93422 47.1319 9.13547 46.876 9.27547C46.6202 9.41547 46.3466 9.46797 46.0643 9.46797C45.7819 9.46797 45.4996 9.41547 45.2437 9.27547C45.0017 9.14187 44.7982 8.94909 44.6525 8.71547C44.5159 8.46621 44.4488 8.18527 44.4584 7.90172C44.4584 7.58672 44.5202 7.30672 44.6525 7.08797C44.7937 6.82547 44.9966 6.66797 45.2437 6.52797C45.4996 6.38797 45.7731 6.32672 46.0643 6.32672C46.3451 6.3203 46.6229 6.38627 46.8703 6.51816C47.1178 6.65006 47.3265 6.84338 47.476 7.07922C47.6044 7.33432 47.6681 7.61668 47.6613 7.90172ZM44.6613 21.2892V10.7367H47.4672V21.3067H44.6525L44.6613 21.2892ZM54.9672 13.5017V13.5367C54.8349 13.4755 54.6584 13.4492 54.526 13.423C54.3496 13.388 54.2084 13.388 54.0407 13.388C53.2554 13.388 52.6643 13.6155 52.276 14.088C51.8525 14.5692 51.6584 15.243 51.6584 16.1092V21.298H48.8437V10.728H51.429L51.5172 12.3292C51.7996 11.7692 52.1349 11.3492 52.6113 11.0342C53.0853 10.7282 53.6432 10.5753 54.2084 10.5967C54.4113 10.5967 54.6054 10.6142 54.7731 10.6492C54.8613 10.6755 54.9143 10.6755 54.9672 10.7017V13.5017ZM56.0966 21.2892V6.39672H58.9025V12.0842C59.2996 11.5767 59.7496 11.183 60.3143 10.8767C61.2083 10.442 62.2239 10.3187 63.1972 10.5267C64.1705 10.7347 65.0448 11.2618 65.679 12.023C66.6304 13.1102 67.1344 14.5128 67.0907 15.9517C67.1053 17.4189 66.5851 18.842 65.626 19.9592C65.1824 20.4749 64.6301 20.8879 64.0081 21.1691C63.3862 21.4503 62.7096 21.5928 62.026 21.5867C61.3829 21.6042 60.7458 21.4591 60.1747 21.1653C59.6036 20.8714 59.1172 20.4383 58.7613 19.9067L58.6731 21.2805L56.0966 21.3067V21.2892ZM61.5231 19.0842C62.026 19.0842 62.476 18.9442 62.8996 18.6905C63.2878 18.4105 63.6054 18.043 63.8525 17.5967C64.0819 17.1505 64.1878 16.6167 64.1878 16.0217C64.1878 15.4355 64.0819 14.9017 63.8525 14.4555C63.6208 14.0252 63.2952 13.6515 62.8996 13.3617C62.4866 13.1065 62.0097 12.9713 61.5231 12.9713C61.0365 12.9713 60.5596 13.1065 60.1466 13.3617C59.7496 13.6417 59.4407 14.0092 59.1849 14.4555C58.9515 14.9476 58.8367 15.4868 58.8496 16.0305C58.8152 16.5472 58.9166 17.064 59.144 17.5303C59.3713 17.9965 59.7168 18.3963 60.1466 18.6905C60.5613 18.9442 61.0113 19.0842 61.5231 19.0842ZM68.1496 21.298V10.728H70.7349L70.8231 12.1017C71.148 11.5751 71.6088 11.1442 72.158 10.8534C72.7071 10.5627 73.3246 10.4227 73.9466 10.448C74.6579 10.4358 75.357 10.6318 75.9565 11.0116C76.556 11.3913 77.0293 11.9379 77.3172 12.583C77.626 13.248 77.7937 14.0705 77.7937 14.9892V21.3242H74.979V15.3567C74.979 14.6217 74.8113 14.0442 74.476 13.6155C74.1407 13.1955 73.6819 12.968 73.0996 12.968C72.676 12.968 72.3055 13.0555 71.979 13.248C71.6702 13.4492 71.4143 13.703 71.2202 14.0617C71.0239 14.4244 70.9266 14.8316 70.9378 15.243V21.298H68.1496ZM79.1966 21.298V6.38797H82.0113V12.0755C82.3926 11.5651 82.8885 11.15 83.4598 10.8629C84.0311 10.5758 84.6621 10.4248 85.3025 10.4217C85.9674 10.4121 86.6259 10.551 87.2293 10.8282C87.8326 11.1054 88.3653 11.5138 88.7878 12.023C89.7325 13.1102 90.2329 14.5085 90.1907 15.943C90.2061 17.4103 89.6858 18.8336 88.726 19.9505C88.2824 20.4662 87.7301 20.8792 87.1081 21.1604C86.4862 21.4415 85.8096 21.5841 85.126 21.578C84.4829 21.5954 83.8458 21.4504 83.2747 21.1565C82.7036 20.8626 82.2172 20.4295 81.8613 19.898L81.7819 21.2717L79.1966 21.298ZM84.6496 19.0842C85.1613 19.0842 85.6113 18.9442 86.026 18.6905C86.4231 18.4105 86.7319 18.043 86.9878 17.5967C87.2084 17.1505 87.3231 16.6167 87.3231 16.0217C87.3575 15.5049 87.2561 14.9882 87.0287 14.5219C86.8013 14.0556 86.4559 13.6559 86.026 13.3617C85.613 13.1065 85.1362 12.9713 84.6496 12.9713C84.163 12.9713 83.6861 13.1065 83.2731 13.3617C82.8849 13.6417 82.5672 14.0092 82.3202 14.4555C82.0739 14.9432 81.9584 15.4856 81.9849 16.0305C81.9505 16.5472 82.0519 17.064 82.2793 17.5303C82.5066 17.9965 82.8521 18.3963 83.2819 18.6905C83.6966 18.9442 84.1202 19.0842 84.6496 19.0842Z" fill="#BFBFBF"/>
</g>
<defs>
<clipPath id="clip0">
<rect width="90" height="28" fill="white" transform="translate(0.5 0.5)"/>
</clipPath>
</defs>
</svg>
