<svg width="60" height="60" viewBox="0 0 60 60" fill="none" xmlns="http://www.w3.org/2000/svg">
<rect width="60" height="60" rx="8" fill="#0072EF"/>
<path d="M42.8333 14H17.1667C15.15 14 13.5 15.65 13.5 17.6667V43.3333C13.5 45.35 15.15 47 17.1667 47H42.8333C44.85 47 46.5 45.35 46.5 43.3333V17.6667C46.5 15.65 44.85 14 42.8333 14ZM42.8333 43.3333H17.1667V17.6667H42.8333V43.3333Z" fill="white"/>
<path d="M24.4999 30.5H20.8333V39.6667H24.4999V30.5Z" fill="white"/>
<path d="M39.1667 21.3335H35.5V39.6668H39.1667V21.3335Z" fill="white"/>
<path d="M31.8334 34.1665H28.1667V39.6665H31.8334V34.1665Z" fill="white"/>
<path d="M31.8334 26.8335H28.1667V30.5002H31.8334V26.8335Z" fill="white"/>
</svg>
