<svg width="1354" height="938" viewBox="0 0 1354 938" fill="none" xmlns="http://www.w3.org/2000/svg">
<circle cx="720" cy="469" r="469" fill="#FAFCFF"/>
<circle opacity="0.2" cx="1245.5" cy="164.5" r="108.5" fill="#00B140"/>
<circle opacity="0.2" cx="1197.5" cy="731.5" r="67.5" fill="#F90005"/>
<circle cx="720" cy="469" r="369" fill="#F3F6FB"/>
<circle opacity="0.5" cx="16.5" cy="698.5" r="148.5" fill="#E6F7FF"/>
<circle cx="5.58824" cy="142.588" r="5.58824" fill="#E6F7FF"/>
<circle cx="5.58824" cy="158.235" r="5.58824" fill="#E6F7FF"/>
<circle cx="5.58824" cy="173.882" r="5.58824" fill="#E6F7FF"/>
<circle cx="5.58824" cy="189.53" r="5.58824" fill="#E6F7FF"/>
<circle cx="5.58824" cy="205.177" r="5.58824" fill="#E6F7FF"/>
<circle cx="5.58824" cy="220.824" r="5.58824" fill="#E6F7FF"/>
<circle cx="5.58824" cy="236.471" r="5.58824" fill="#E6F7FF"/>
<circle cx="5.58824" cy="252.118" r="5.58824" fill="#E6F7FF"/>
<circle cx="5.58824" cy="267.764" r="5.58824" fill="#E6F7FF"/>
<circle cx="5.58824" cy="283.412" r="5.58824" fill="#E6F7FF"/>
<circle cx="21.2352" cy="142.588" r="5.58824" fill="#E6F7FF"/>
<circle cx="21.2352" cy="158.235" r="5.58824" fill="#E6F7FF"/>
<circle cx="21.2352" cy="173.882" r="5.58824" fill="#E6F7FF"/>
<circle cx="21.2352" cy="189.53" r="5.58824" fill="#E6F7FF"/>
<circle cx="21.2352" cy="205.177" r="5.58824" fill="#E6F7FF"/>
<circle cx="21.2352" cy="220.824" r="5.58824" fill="#E6F7FF"/>
<circle cx="21.2352" cy="236.471" r="5.58824" fill="#E6F7FF"/>
<circle cx="21.2352" cy="252.118" r="5.58824" fill="#E6F7FF"/>
<circle cx="21.2352" cy="267.764" r="5.58824" fill="#E6F7FF"/>
<circle cx="21.2352" cy="283.412" r="5.58824" fill="#E6F7FF"/>
<circle cx="36.8824" cy="142.588" r="5.58824" fill="#E6F7FF"/>
<circle cx="36.8824" cy="158.235" r="5.58824" fill="#E6F7FF"/>
<circle cx="36.8824" cy="173.882" r="5.58824" fill="#E6F7FF"/>
<circle cx="36.8824" cy="189.53" r="5.58824" fill="#E6F7FF"/>
<circle cx="36.8824" cy="205.177" r="5.58824" fill="#E6F7FF"/>
<circle cx="36.8824" cy="220.824" r="5.58824" fill="#E6F7FF"/>
<circle cx="36.8824" cy="236.471" r="5.58824" fill="#E6F7FF"/>
<circle cx="36.8824" cy="252.118" r="5.58824" fill="#E6F7FF"/>
<circle cx="36.8824" cy="267.764" r="5.58824" fill="#E6F7FF"/>
<circle cx="36.8824" cy="283.412" r="5.58824" fill="#E6F7FF"/>
<circle cx="52.5294" cy="142.588" r="5.58824" fill="#E6F7FF"/>
<circle cx="52.5294" cy="158.235" r="5.58824" fill="#E6F7FF"/>
<circle cx="52.5294" cy="173.882" r="5.58824" fill="#E6F7FF"/>
<circle cx="52.5294" cy="189.53" r="5.58824" fill="#E6F7FF"/>
<circle cx="52.5294" cy="205.177" r="5.58824" fill="#E6F7FF"/>
<circle cx="52.5294" cy="220.824" r="5.58824" fill="#E6F7FF"/>
<circle cx="52.5294" cy="236.471" r="5.58824" fill="#E6F7FF"/>
<circle cx="52.5294" cy="252.118" r="5.58824" fill="#E6F7FF"/>
<circle cx="52.5294" cy="267.764" r="5.58824" fill="#E6F7FF"/>
<circle cx="52.5294" cy="283.412" r="5.58824" fill="#E6F7FF"/>
<circle cx="68.1764" cy="142.588" r="5.58824" fill="#E6F7FF"/>
<circle cx="68.1764" cy="158.235" r="5.58824" fill="#E6F7FF"/>
<circle cx="68.1764" cy="173.882" r="5.58824" fill="#E6F7FF"/>
<circle cx="68.1764" cy="189.53" r="5.58824" fill="#E6F7FF"/>
<circle cx="68.1764" cy="205.177" r="5.58824" fill="#E6F7FF"/>
<circle cx="68.1764" cy="220.824" r="5.58824" fill="#E6F7FF"/>
<circle cx="68.1764" cy="236.471" r="5.58824" fill="#E6F7FF"/>
<circle cx="68.1764" cy="252.118" r="5.58824" fill="#E6F7FF"/>
<circle cx="68.1764" cy="267.764" r="5.58824" fill="#E6F7FF"/>
<circle cx="68.1764" cy="283.412" r="5.58824" fill="#E6F7FF"/>
<circle cx="83.8236" cy="142.588" r="5.58824" fill="#E6F7FF"/>
<circle cx="83.8236" cy="158.235" r="5.58824" fill="#E6F7FF"/>
<circle cx="83.8236" cy="173.882" r="5.58824" fill="#E6F7FF"/>
<circle cx="83.8236" cy="189.53" r="5.58824" fill="#E6F7FF"/>
<circle cx="83.8236" cy="205.177" r="5.58824" fill="#E6F7FF"/>
<circle cx="83.8236" cy="220.824" r="5.58824" fill="#E6F7FF"/>
<circle cx="83.8236" cy="236.471" r="5.58824" fill="#E6F7FF"/>
<circle cx="83.8236" cy="252.118" r="5.58824" fill="#E6F7FF"/>
<circle cx="83.8236" cy="267.764" r="5.58824" fill="#E6F7FF"/>
<circle cx="83.8236" cy="283.412" r="5.58824" fill="#E6F7FF"/>
<path opacity="0.2" d="M432.696 249.971L533.899 143.693L391.257 109.188L432.696 249.971Z" stroke="#0072EF"/>
</svg>
