<svg width="112" height="100" viewBox="0 0 112 100" fill="none" xmlns="http://www.w3.org/2000/svg">
<g clip-path="url(#clip0_33734_83136)">
<path d="M0.886163 22.4397C0.667877 22.5013 0.482855 22.6471 0.371687 22.8453C0.260519 23.0435 0.23228 23.2777 0.293166 23.4968L14.5915 74.6967C14.6529 74.9156 14.7983 75.1011 14.996 75.2126C15.1936 75.324 15.4273 75.3523 15.6457 75.2913L68.3564 60.4925C68.5747 60.4309 68.7597 60.285 68.8709 60.0869C68.9821 59.8887 69.0103 59.6544 68.9494 59.4354L54.6511 8.23548C54.5898 8.01662 54.4443 7.8311 54.2466 7.71964C54.049 7.60817 53.8153 7.57986 53.5969 7.64091L0.886163 22.4397Z" fill="#E6E6E6"/>
<path d="M16.3068 72.8736L66.5368 58.7712L52.9332 10.0586L2.70312 24.1609L16.3068 72.8736Z" fill="white"/>
<path d="M9.3466 30.6642C9.01147 30.7583 8.8733 31.3164 9.03861 31.9084C9.20391 32.5003 9.61108 32.9054 9.9462 32.8113L32.8554 26.3794C33.1905 26.2853 33.3287 25.7272 33.1634 25.1352C32.9981 24.5433 32.5909 24.1382 32.2558 24.2323L9.3466 30.6642Z" fill="#E6E6E6"/>
<path d="M11.1903 37.2697C10.8552 37.3637 10.7171 37.9219 10.8824 38.5138C11.0477 39.1058 11.4548 39.5108 11.7899 39.4167L34.6991 32.9849C35.0342 32.8908 35.1724 32.3326 35.0071 31.7407C34.8418 31.1488 34.4347 30.7437 34.0995 30.8378L11.1903 37.2697Z" fill="#E6E6E6"/>
<path d="M13.0146 43.8009C12.6794 43.895 12.5413 44.4532 12.7066 45.0451C12.8719 45.637 13.279 46.0421 13.6142 45.948L36.5233 39.5161C36.8585 39.422 36.9966 38.8639 36.8313 38.2719C36.666 37.68 36.2589 37.275 35.9237 37.369L13.0146 43.8009Z" fill="#E6E6E6"/>
<path d="M14.8583 50.4064C14.5232 50.5005 14.385 51.0586 14.5503 51.6506C14.7156 52.2425 15.1228 52.6475 15.4579 52.5535L38.3671 46.1216C38.7022 46.0275 38.8404 45.4693 38.6751 44.8774C38.5098 44.2855 38.1026 43.8804 37.7675 43.9745L14.8583 50.4064Z" fill="#E6E6E6"/>
<path d="M43.8797 21.0445C43.739 21.0838 43.6073 21.1506 43.4923 21.241C43.3773 21.3314 43.2812 21.4436 43.2095 21.5713C43.1378 21.6989 43.0919 21.8395 43.0744 21.9849C43.0569 22.1304 43.0682 22.2779 43.1076 22.419C43.147 22.5601 43.2137 22.692 43.304 22.8072C43.3943 22.9224 43.5063 23.0186 43.6337 23.0904C43.7611 23.1621 43.9014 23.208 44.0465 23.2253C44.1916 23.2427 44.3386 23.2312 44.4793 23.1916L48.7621 21.9892C49.046 21.9094 49.2868 21.7199 49.4313 21.4622C49.5759 21.2045 49.6125 20.8997 49.5329 20.615C49.4534 20.3303 49.2644 20.0889 49.0074 19.944C48.7503 19.799 48.4464 19.7624 48.1625 19.8421L43.8797 21.0445Z" fill="#E6E6E6"/>
<path d="M45.6883 27.5249C45.5475 27.5643 45.4159 27.6311 45.3009 27.7215C45.1859 27.8118 45.0898 27.9241 45.0181 28.0517C44.9464 28.1794 44.9005 28.32 44.883 28.4654C44.8655 28.6109 44.8768 28.7584 44.9162 28.8994C44.9556 29.0405 45.0223 29.1724 45.1126 29.2876C45.2029 29.4028 45.3149 29.4991 45.4423 29.5708C45.5697 29.6426 45.71 29.6884 45.8551 29.7058C46.0002 29.7232 46.1472 29.7117 46.2879 29.672L50.5706 28.4696C50.8546 28.3899 51.0954 28.2003 51.2399 27.9426C51.3845 27.6849 51.421 27.3802 51.3415 27.0955C51.262 26.8108 51.073 26.5694 50.8159 26.4244C50.5589 26.2795 50.255 26.2428 49.971 26.3225L45.6883 27.5249Z" fill="#E6E6E6"/>
<path d="M47.4996 34.0015C47.359 34.041 47.2275 34.1078 47.1126 34.1983C46.9978 34.2887 46.9019 34.4009 46.8303 34.5285C46.7587 34.6561 46.7129 34.7966 46.6955 34.9419C46.678 35.0873 46.6893 35.2347 46.7287 35.3757C46.7681 35.5166 46.8347 35.6485 46.9249 35.7636C47.0151 35.8787 47.127 35.9749 47.2543 36.0467C47.3815 36.1185 47.5216 36.1644 47.6666 36.1819C47.8116 36.1994 47.9586 36.1881 48.0992 36.1486L52.3819 34.9462C52.6659 34.8665 52.9066 34.6769 53.0512 34.4192C53.1958 34.1615 53.2323 33.8568 53.1528 33.5721C53.0733 33.2873 52.8842 33.0459 52.6272 32.901C52.3702 32.756 52.0663 32.7194 51.7823 32.7991L47.4996 34.0015Z" fill="#E6E6E6"/>
<path d="M49.3108 40.4816C49.0272 40.5616 48.7868 40.7513 48.6425 41.0088C48.4982 41.2664 48.4617 41.5709 48.5412 41.8554C48.6206 42.1399 48.8095 42.3812 49.0662 42.5262C49.323 42.6712 49.6266 42.7081 49.9105 42.6287L54.1932 41.4263C54.4769 41.3463 54.7173 41.1567 54.8616 40.8991C55.0059 40.6415 55.0423 40.337 54.9629 40.0525C54.8834 39.768 54.6946 39.5268 54.4378 39.3818C54.1811 39.2368 53.8774 39.1999 53.5936 39.2792L49.3108 40.4816Z" fill="#E6E6E6"/>
<path d="M51.0363 51.7097C50.857 51.7599 50.6892 51.845 50.5427 51.9601C50.3962 52.0753 50.2737 52.2183 50.1823 52.381C50.091 52.5436 50.0325 52.7227 50.0102 52.9081C49.9879 53.0934 50.0023 53.2814 50.0525 53.4611C50.1027 53.6409 50.1877 53.809 50.3028 53.9558C50.4178 54.1026 50.5606 54.2252 50.7229 54.3166C50.8852 54.408 51.0639 54.4665 51.2488 54.4886C51.4337 54.5108 51.6211 54.4961 51.8003 54.4456L57.2575 52.9135C57.6193 52.8119 57.9261 52.5703 58.1103 52.242C58.2945 51.9136 58.341 51.5253 58.2397 51.1625C58.1384 50.7997 57.8975 50.4921 57.57 50.3074C57.2425 50.1227 56.8553 50.076 56.4934 50.1776L51.0363 51.7097Z" fill="#0072EF"/>
<path d="M56.6555 46.1821L16.2734 57.5195L16.3739 57.8794L56.756 46.542L56.6555 46.1821Z" fill="#E6E6E6"/>
<path d="M97.214 94.5722L93.9753 95.3573L89.4141 83.2055L94.1941 82.0469L97.214 94.5722Z" fill="#A0616A"/>
<path d="M88.3908 99.9993L88.3689 99.9085C88.1122 98.8387 88.2892 97.7105 88.8611 96.7714C89.433 95.8323 90.3531 95.159 91.4195 94.8993L97.7561 93.3633L98.7507 97.4882L88.3908 99.9993Z" fill="#2F2E41"/>
<path d="M82.878 96.7848L79.5461 96.7847L77.9609 83.8984L82.8785 83.8986L82.878 96.7848Z" fill="#A0616A"/>
<path d="M83.6857 99.9822L73.0273 99.9818V99.8883C73.0274 98.7877 73.4635 97.7321 74.2397 96.9538C75.016 96.1755 76.0687 95.7383 77.1665 95.7383H77.1667L83.6858 95.7386L83.6857 99.9822Z" fill="#2F2E41"/>
<path d="M77.9617 91.7534L74.7266 53.0941L88.119 50.619L88.1719 50.6094L92.0918 53.1359L90.7274 67.3635L97.0092 89.5454L91.5852 90.9766L85.2934 70.4042L83.8535 64.1482L83.1156 72.2774L83.6634 92.325L77.9617 91.7534Z" fill="#2F2E41"/>
<path d="M74.3089 53.9733L74.2734 53.9283L78.9013 18.9905L78.9073 18.9447L78.9399 18.912C79.0081 18.8436 80.6296 17.237 82.2974 17.237C82.5385 17.237 82.7678 17.2309 82.9877 17.2253C84.2639 17.192 85.2721 17.1654 86.4702 18.367C87.691 19.5908 91.6739 24.0601 91.6739 30.1811C91.6739 36.1057 92.2119 54.5175 92.2174 54.7027L92.225 54.9627L92.0075 54.8209C91.9538 54.7863 86.5968 51.3661 82.104 54.5454C80.6999 55.5391 79.4386 55.8875 78.3601 55.8875C75.85 55.8875 74.3303 54.0007 74.3089 53.9733Z" fill="#0072EF"/>
<path d="M84.7922 14.3517C88.027 12.5787 89.2159 8.51196 87.4476 5.26848C85.6792 2.02499 81.6233 0.832964 78.3885 2.60601C75.1536 4.37906 73.9648 8.44577 75.7331 11.6893C77.5014 14.9327 81.5573 16.1248 84.7922 14.3517Z" fill="#A0616A"/>
<path d="M71.3708 61.4808C71.6866 61.2354 71.9449 60.9236 72.1275 60.5673C72.3101 60.211 72.4126 59.8188 72.4277 59.4185C72.4428 59.0182 72.3702 58.6194 72.215 58.2503C72.0598 57.8811 71.8257 57.5506 71.5293 57.282L75.3202 48.3164L70.3567 49.2324L67.5178 57.6058C67.1007 58.135 66.8916 58.7992 66.9303 59.4725C66.969 60.1459 67.2527 60.7816 67.7276 61.2593C68.2026 61.7369 68.8358 62.0233 69.5072 62.0641C70.1787 62.105 70.8417 61.8974 71.3708 61.4808H71.3708Z" fill="#A0616A"/>
<path d="M67.7109 54.508L68.9316 51.924C68.8562 51.8785 68.794 51.8138 68.7514 51.7366C67.6109 49.7548 74.4998 33.2972 74.959 32.2055C74.8889 31.6118 74.1658 25.3202 74.6945 23.1995C75.317 20.703 76.5951 19.5396 78.9681 19.3091C81.5852 19.0627 82.2912 22.626 82.298 22.6622L82.3004 31.8229L79.2969 42.3679L72.4472 56.3786L67.7109 54.508Z" fill="#0072EF"/>
<path d="M82.4425 11.0016C81.6423 11.106 81.0387 10.2851 80.7587 9.52622C80.4787 8.76738 80.2654 7.88393 79.5697 7.47403C78.6192 6.91401 77.4031 7.58756 76.3162 7.40279C75.0887 7.19413 74.2906 5.88976 74.228 4.64301C74.1655 3.39625 74.6603 2.19715 75.1458 1.04766L75.3153 2.47621C75.2927 1.99204 75.3943 1.51013 75.6104 1.07659C75.8266 0.643042 76.1501 0.272361 76.55 0L76.3315 2.09619C76.4685 0.921852 77.7303 0.0118986 78.8842 0.255258L78.8498 1.50424C80.2676 1.33521 81.6977 1.16594 83.1197 1.29472C84.5416 1.42349 85.9735 1.87459 87.0512 2.81355C88.6633 4.21809 89.2521 6.53083 89.0544 8.66301C88.8568 10.7952 87.9789 12.7982 87.0641 14.7332C86.8339 15.22 86.5155 15.7694 85.9817 15.8314C85.5021 15.8871 85.0633 15.4851 84.9142 15.0247C84.7651 14.5642 84.8379 14.064 84.9271 13.5883C85.062 12.8696 85.2321 12.135 85.1052 11.4149C84.9784 10.6947 84.4617 9.98307 83.7377 9.89481C83.0137 9.80655 82.2728 10.6363 82.6209 11.279L82.4425 11.0016Z" fill="#2F2E41"/>
<path d="M111.666 99.9951H63.6289V99.6016H111.737L111.666 99.9951Z" fill="#3F3D56"/>
</g>
<defs>
<clipPath id="clip0_33734_83136">
<rect width="111.475" height="100" fill="white" transform="translate(0.261719)"/>
</clipPath>
</defs>
</svg>
