<svg width="198" height="220" viewBox="0 0 198 220" fill="none" xmlns="http://www.w3.org/2000/svg">
<g clip-path="url(#clip0_1_11979)">
<path d="M107.438 126.304C107.576 123.551 108.364 120.87 109.738 118.48C111.112 116.091 113.033 114.061 115.343 112.557C115.998 112.135 116.717 111.587 117.533 111.862C117.846 111.958 118.117 112.157 118.302 112.427C118.488 112.696 118.576 113.021 118.553 113.347C118.47 113.755 118.256 114.124 117.943 114.398C117.631 114.672 117.236 114.835 116.821 114.863C116.406 114.89 115.994 114.781 115.648 114.551C115.301 114.321 115.04 113.983 114.905 113.59C114.066 111.693 115.299 109.751 116.283 108.184C118.524 104.614 120.542 100.692 120.747 96.3981C120.937 92.425 119.326 88.188 115.854 86.0243C115.247 85.6458 114.703 86.6121 115.307 86.9888C118.75 89.1347 120.033 93.546 119.555 97.4021C119.223 99.7007 118.499 101.925 117.416 103.98C116.881 105.045 116.286 106.079 115.659 107.093C115.003 108.058 114.435 109.08 113.961 110.145C113.258 111.922 113.345 114.26 115.032 115.473C115.431 115.729 115.885 115.889 116.357 115.939C116.829 115.989 117.306 115.928 117.751 115.76C118.195 115.593 118.594 115.324 118.915 114.974C119.237 114.625 119.473 114.206 119.603 113.749C119.681 113.326 119.652 112.889 119.52 112.48C119.388 112.07 119.156 111.699 118.845 111.401C118.535 111.103 118.155 110.886 117.74 110.771C117.325 110.656 116.888 110.645 116.468 110.741C115.532 111.054 114.666 111.547 113.919 112.192C111.678 113.83 109.833 115.948 108.519 118.393C107.206 120.838 106.457 123.546 106.329 126.319C106.303 127.032 107.412 127.016 107.438 126.304L107.438 126.304Z" fill="#2F2E41"/>
<path d="M96.6353 167.828C112.185 167.828 124.79 155.223 124.79 139.673C124.79 124.124 112.185 111.519 96.6353 111.519C81.0858 111.519 68.4805 124.124 68.4805 139.673C68.4805 155.223 81.0858 167.828 96.6353 167.828Z" fill="#FF4D4F" fill-opacity="0.3"/>
<path d="M33.3976 209.37C32.745 209.262 32.1334 208.98 31.6272 208.554C31.1209 208.129 30.7385 207.575 30.5201 206.95L27.9621 199.619C27.6414 198.697 27.6996 197.685 28.1239 196.806C28.5483 195.927 29.3042 195.252 30.2257 194.929L91.3264 173.609C92.2485 173.288 93.2602 173.346 94.1395 173.77C95.0188 174.195 95.6938 174.951 96.0165 175.872L98.5746 183.203C98.8952 184.125 98.837 185.137 98.4126 186.016C97.9882 186.895 97.2324 187.57 96.311 187.893L35.2103 209.214C34.6288 209.418 34.0053 209.471 33.3976 209.37Z" fill="#FF4D4F" fill-opacity="0.3"/>
<path d="M76.217 197.075C75.5284 196.959 74.8869 196.65 74.3669 196.184C73.8469 195.717 73.4698 195.113 73.2792 194.441L69.1299 180.445C68.9982 179.979 68.9595 179.492 69.0162 179.012C69.0728 178.531 69.2236 178.067 69.4599 177.644C69.6963 177.222 70.0136 176.851 70.3936 176.551C70.7736 176.251 71.2089 176.03 71.6747 175.899L100.709 170.163C101.46 169.95 102.744 170.836 103.775 171.547C104.099 171.77 104.378 171.963 104.573 172.072C104.659 172.12 104.742 172.171 104.822 172.225C105.55 172.712 106.081 173.443 106.317 174.286L108.423 181.759C108.687 182.699 108.567 183.705 108.09 184.557C107.612 185.409 106.817 186.037 105.877 186.303L77.8442 196.98C77.3156 197.132 76.7598 197.165 76.217 197.075Z" fill="#0072EF"/>
<path d="M100.382 150.109L100.412 149.057C98.4542 149.002 96.7285 148.879 95.4318 147.932C95.0642 147.648 94.762 147.289 94.5459 146.877C94.3297 146.466 94.2046 146.014 94.1791 145.55C94.1563 145.266 94.1992 144.982 94.3044 144.718C94.4095 144.453 94.5742 144.217 94.7855 144.027C95.6463 143.3 97.0314 143.535 98.0409 143.998L98.9114 144.398L97.242 132.198L96.1996 132.341L97.6196 142.718C97.0383 142.502 96.4124 142.436 95.7987 142.524C95.1851 142.612 94.6033 142.853 94.1064 143.224C93.7722 143.515 93.5099 143.881 93.3401 144.291C93.1703 144.7 93.0976 145.144 93.1277 145.587C93.1584 146.21 93.325 146.819 93.6158 147.371C93.9066 147.923 94.3146 148.404 94.8112 148.782C96.4773 149.999 98.6424 150.06 100.382 150.109Z" fill="#2F2E41"/>
<path d="M91.0454 133.235H85.3789V134.288H91.0454V133.235Z" fill="#2F2E41"/>
<path d="M108.932 133.235H103.266V134.288H108.932V133.235Z" fill="#2F2E41"/>
<path d="M95.6474 185.021L153.733 213.55C154.61 213.979 155.621 214.043 156.545 213.728C157.469 213.413 158.231 212.744 158.662 211.868L162.085 204.899C162.514 204.022 162.578 203.011 162.263 202.087C161.948 201.163 161.279 200.401 160.403 199.97L102.317 171.441C101.44 171.012 100.429 170.947 99.5049 171.263C98.5809 171.578 97.8197 172.247 97.3884 173.123L93.9656 180.092C93.7514 180.526 93.6253 180.998 93.5947 181.48C93.5641 181.963 93.6295 182.447 93.7873 182.904C93.9104 183.267 94.0891 183.608 94.3168 183.916C94.6657 184.385 95.1219 184.764 95.6474 185.021Z" fill="#FF4D4F" fill-opacity="0.3"/>
<path d="M93.6344 185.153L119.144 201.024C120.016 201.463 121.026 201.538 121.953 201.234C122.88 200.929 123.648 200.269 124.089 199.399L130.845 186.449C131.064 186.016 131.195 185.544 131.23 185.06C131.266 184.576 131.205 184.09 131.052 183.629C130.899 183.169 130.656 182.743 130.338 182.376C130.02 182.01 129.632 181.71 129.198 181.494L101.837 170.322C101.121 169.961 99.6921 170.584 98.5435 171.085C98.1834 171.242 97.8723 171.377 97.6602 171.447C97.5668 171.477 97.4754 171.512 97.3863 171.549C96.5785 171.888 95.918 172.504 95.524 173.286L92.0261 180.218C91.7183 180.829 91.5864 181.514 91.645 182.195C91.7036 182.877 91.9505 183.529 92.3581 184.079C92.6937 184.532 93.1309 184.9 93.6344 185.153Z" fill="#0072EF"/>
<path d="M94.352 101.334L79.0273 98.2845L79.2685 97.2202L92.8167 99.9137L94.352 101.334Z" fill="white"/>
<path d="M106.417 112.513L77.1172 106.682L77.3583 105.613L104.881 111.086L106.417 112.513Z" fill="white"/>
<path d="M155.487 151.952C157.311 151.952 158.79 150.473 158.79 148.649C158.79 146.824 157.311 145.345 155.487 145.345C153.663 145.345 152.184 146.824 152.184 148.649C152.184 150.473 153.663 151.952 155.487 151.952Z" fill="#E6E6E6"/>
<path d="M126.417 34.3542C128.241 34.3542 129.72 32.8752 129.72 31.0509C129.72 29.2265 128.241 27.7476 126.417 27.7476C124.592 27.7476 123.113 29.2265 123.113 31.0509C123.113 32.8752 124.592 34.3542 126.417 34.3542Z" fill="#CCCCCC"/>
<path d="M46.1561 103.797C49.615 104.015 52.973 105.05 55.9549 106.816C58.9368 108.582 61.4576 111.03 63.3108 113.959C63.8302 114.789 64.5081 115.701 64.1486 116.723C64.0234 117.115 63.7689 117.453 63.4268 117.682C63.0847 117.91 62.6752 118.016 62.2653 117.981C61.7542 117.871 61.2935 117.596 60.9542 117.198C60.615 116.801 60.4161 116.302 60.3881 115.78C60.3601 115.258 60.5047 114.741 60.7995 114.31C61.0943 113.878 61.523 113.555 62.0194 113.391C64.4183 112.368 66.8387 113.949 68.7928 115.211C73.2454 118.087 78.1428 120.688 83.5381 121.016C88.5299 121.319 93.883 119.362 96.6595 115.033C97.1453 114.275 95.9392 113.575 95.4558 114.329C92.7022 118.622 87.1354 120.164 82.2952 119.501C79.4108 119.046 76.6256 118.1 74.0603 116.705C72.7299 116.014 71.4396 115.249 70.1754 114.445C68.9724 113.605 67.6973 112.874 66.3651 112.26C64.1433 111.348 61.2019 111.419 59.65 113.52C58.2021 115.481 59.3211 118.744 61.7427 119.295C62.2739 119.4 62.8229 119.371 63.3403 119.212C63.8577 119.052 64.3274 118.767 64.7073 118.381C65.0872 117.995 65.3654 117.521 65.517 117.001C65.6686 116.481 65.6889 115.932 65.5759 115.403C65.3343 114.248 64.465 113.118 63.7922 112.175C61.7705 109.331 59.1365 106.976 56.0843 105.285C53.032 103.594 49.6393 102.609 46.156 102.403C45.2593 102.359 45.2617 103.753 46.156 103.797L46.1561 103.797Z" fill="#2F2E41"/>
<path d="M85.4556 56.5337H82.1523V67.3874H85.4556V56.5337Z" fill="#CCCCCC"/>
<path d="M32.0441 48.9588L34.3398 46.6631L26.7968 39.12L24.5011 41.4157L32.0441 48.9588Z" fill="#B3B3B3"/>
<path d="M124.923 71.7688L127.219 74.0645L134.762 66.5214L132.466 64.2257L124.923 71.7688Z" fill="#B3B3B3"/>
<path d="M31.1105 165.583L33.4062 167.878L40.9493 160.335L38.6536 158.04L31.1105 165.583Z" fill="#D9D9D9"/>
</g>
<defs>
<clipPath id="clip0_1_11979">
<rect width="196.216" height="220" fill="white" transform="translate(0.890625)"/>
</clipPath>
</defs>
</svg>
