<svg width="198" height="220" viewBox="0 0 198 220" fill="none" xmlns="http://www.w3.org/2000/svg">
<g clip-path="url(#clip0_1_11766)">
<path d="M96.6353 167.828C112.185 167.828 124.79 155.223 124.79 139.673C124.79 124.124 112.185 111.519 96.6353 111.519C81.0858 111.519 68.4805 124.124 68.4805 139.673C68.4805 155.223 81.0858 167.828 96.6353 167.828Z" fill="#FF4D4F" fill-opacity="0.3"/>
<path d="M28.1583 208.183C27.5618 207.897 27.0532 207.456 26.6859 206.906C26.3186 206.356 26.1061 205.717 26.0708 205.056L25.6612 197.303C25.6107 196.328 25.949 195.372 26.602 194.647C27.255 193.921 28.1693 193.484 29.1443 193.431L93.7678 190.017C94.7428 189.967 95.6981 190.305 96.4239 190.958C97.1497 191.611 97.5869 192.525 97.6395 193.5L98.0491 201.254C98.0995 202.229 97.7611 203.184 97.1082 203.91C96.4552 204.636 95.541 205.073 94.5661 205.125L29.9425 208.539C29.3272 208.573 28.7136 208.45 28.1583 208.183Z" fill="#FF4D4F" fill-opacity="0.3"/>
<path d="M72.7052 208.334C72.0764 208.03 71.5467 207.554 71.1776 206.961C70.8084 206.368 70.6149 205.683 70.6195 204.985L70.543 190.386C70.5465 189.902 70.6453 189.424 70.8339 188.978C71.0225 188.533 71.297 188.129 71.6418 187.789C71.9867 187.45 72.395 187.181 72.8436 187C73.2921 186.818 73.772 186.727 74.2559 186.731L103.737 189.33C104.518 189.335 105.503 190.544 106.295 191.514C106.543 191.819 106.758 192.082 106.915 192.241C106.983 192.311 107.049 192.384 107.111 192.458C107.674 193.129 107.979 193.979 107.971 194.855L107.907 202.619C107.898 203.595 107.501 204.528 106.805 205.212C106.109 205.897 105.17 206.277 104.194 206.27L74.2943 208.697C73.7442 208.695 73.2014 208.571 72.7052 208.334Z" fill="#0072EF"/>
<path d="M100.382 150.109L100.412 149.057C98.4542 149.002 96.7285 148.879 95.4318 147.932C95.0642 147.648 94.762 147.289 94.5459 146.877C94.3297 146.466 94.2046 146.014 94.1791 145.55C94.1563 145.266 94.1992 144.982 94.3044 144.718C94.4095 144.453 94.5742 144.217 94.7855 144.027C95.6463 143.3 97.0314 143.535 98.0409 143.998L98.9114 144.398L97.242 132.198L96.1996 132.341L97.6196 142.718C97.0383 142.502 96.4124 142.436 95.7987 142.524C95.1851 142.612 94.6033 142.853 94.1064 143.224C93.7722 143.515 93.5099 143.881 93.3401 144.291C93.1703 144.7 93.0976 145.144 93.1277 145.587C93.1584 146.21 93.325 146.819 93.6158 147.371C93.9066 147.923 94.3146 148.404 94.8112 148.782C96.4773 149.999 98.6424 150.06 100.382 150.109Z" fill="#2F2E41"/>
<path d="M91.0454 133.235H85.3789V134.288H91.0454V133.235Z" fill="#2F2E41"/>
<path d="M108.932 133.235H103.266V134.288H108.932V133.235Z" fill="#2F2E41"/>
<path d="M97.8499 193.344L156.468 165.926C157.353 165.513 158.365 165.468 159.283 165.801C160.201 166.134 160.949 166.817 161.364 167.701L164.653 174.734C165.066 175.619 165.111 176.631 164.778 177.549C164.445 178.467 163.762 179.215 162.878 179.63L104.26 207.048C103.375 207.461 102.363 207.506 101.445 207.173C100.527 206.84 99.7787 206.157 99.3642 205.273L96.0746 198.24C95.8687 197.802 95.7516 197.328 95.7301 196.845C95.7087 196.362 95.7834 195.879 95.9498 195.425C96.0798 195.065 96.265 194.727 96.4986 194.424C96.8562 193.961 97.3196 193.591 97.8499 193.344Z" fill="#FF4D4F" fill-opacity="0.3"/>
<path d="M95.839 193.176L121.646 177.793C122.526 177.371 123.537 177.315 124.458 177.637C125.379 177.959 126.135 178.634 126.56 179.512L133.068 192.588C133.278 193.025 133.4 193.5 133.426 193.984C133.453 194.469 133.383 194.954 133.221 195.411C133.059 195.869 132.808 196.29 132.483 196.65C132.158 197.011 131.765 197.303 131.326 197.511L103.758 208.16C103.036 208.507 101.618 207.857 100.48 207.335C100.122 207.171 99.814 207.03 99.6032 206.956C99.5105 206.924 99.4198 206.887 99.3314 206.848C98.5301 206.495 97.8815 205.866 97.5025 205.077L94.1371 198.08C93.841 197.463 93.7221 196.776 93.7937 196.095C93.8653 195.415 94.1245 194.767 94.5425 194.226C94.8867 193.779 95.3308 193.42 95.839 193.176Z" fill="#0072EF"/>
<path d="M74.3977 125.03C74.0211 125.029 73.6602 124.879 73.3939 124.612C73.1277 124.346 72.9777 123.985 72.9767 123.608C72.975 123.496 72.9876 123.385 73.0141 123.276L80.3731 90.8616C80.4288 90.6174 80.5476 90.3923 80.7177 90.2085C80.8878 90.0248 81.1032 89.8889 81.3423 89.8145C81.5814 89.7401 81.8358 89.7299 82.0801 89.7847C82.3244 89.8396 82.55 89.9576 82.7344 90.127L107.131 112.719C107.315 112.889 107.45 113.105 107.525 113.344C107.599 113.583 107.609 113.837 107.554 114.081C107.499 114.326 107.381 114.551 107.212 114.735C107.042 114.92 106.828 115.056 106.589 115.131L74.8255 124.966C74.6868 125.008 74.5427 125.03 74.3977 125.03Z" fill="#0072EF"/>
<path d="M94.352 101.334L79.0273 98.2845L79.2685 97.2202L92.8167 99.9137L94.352 101.334Z" fill="white"/>
<path d="M106.417 112.513L77.1172 106.682L77.3583 105.613L104.881 111.086L106.417 112.513Z" fill="white"/>
<path d="M95.9365 118.085L93.7371 118.765L75.2148 115.079L75.456 114.01L95.9365 118.085Z" fill="white"/>
<path d="M167.379 125.526C169.933 125.526 172.003 123.455 172.003 120.901C172.003 118.347 169.933 116.276 167.379 116.276C164.824 116.276 162.754 118.347 162.754 120.901C162.754 123.455 164.824 125.526 167.379 125.526Z" fill="#0072EF"/>
<path d="M107.917 6.60661C109.741 6.60661 111.22 5.12767 111.22 3.3033C111.22 1.47894 109.741 0 107.917 0C106.092 0 104.613 1.47894 104.613 3.3033C104.613 5.12767 106.092 6.60661 107.917 6.60661Z" fill="#00B140"/>
<path d="M35.9049 109.009C37.7292 109.009 39.2082 107.53 39.2082 105.706C39.2082 103.881 37.7292 102.402 35.9049 102.402C34.0805 102.402 32.6016 103.881 32.6016 105.706C32.6016 107.53 34.0805 109.009 35.9049 109.009Z" fill="#00B140"/>
<path d="M151.522 97.778C153.346 97.778 154.825 96.2991 154.825 94.4747C154.825 92.6503 153.346 91.1714 151.522 91.1714C149.698 91.1714 148.219 92.6503 148.219 94.4747C148.219 96.2991 149.698 97.778 151.522 97.778Z" fill="#0072EF"/>
<path d="M51.1002 142.703C52.9245 142.703 54.4035 141.224 54.4035 139.399C54.4035 137.575 52.9245 136.096 51.1002 136.096C49.2758 136.096 47.7969 137.575 47.7969 139.399C47.7969 141.224 49.2758 142.703 51.1002 142.703Z" fill="#0072EF"/>
<path d="M155.487 151.952C157.311 151.952 158.79 150.473 158.79 148.649C158.79 146.824 157.311 145.345 155.487 145.345C153.663 145.345 152.184 146.824 152.184 148.649C152.184 150.473 153.663 151.952 155.487 151.952Z" fill="#E6E6E6"/>
<path d="M126.417 34.3542C128.241 34.3542 129.72 32.8752 129.72 31.0509C129.72 29.2265 128.241 27.7476 126.417 27.7476C124.592 27.7476 123.113 29.2265 123.113 31.0509C123.113 32.8752 124.592 34.3542 126.417 34.3542Z" fill="#CCCCCC"/>
<path d="M1.56235 70.6753C5.02125 70.8932 8.37927 71.9277 11.3611 73.694C14.343 75.4603 16.8639 77.9081 18.7171 80.8368C19.2364 81.667 19.9144 82.5794 19.5549 83.6014C19.4296 83.9932 19.1751 84.3309 18.8331 84.5594C18.491 84.7879 18.0815 84.8936 17.6716 84.8592C17.1605 84.7491 16.6998 84.474 16.3605 84.0762C16.0212 83.6784 15.8223 83.1801 15.7943 82.658C15.7664 82.136 15.9109 81.6192 16.2057 81.1874C16.5005 80.7557 16.9292 80.4329 17.4256 80.2689C19.8246 79.2456 22.2449 80.8271 24.199 82.0892C28.6516 84.965 33.549 87.5659 38.9443 87.8936C43.9362 88.1968 49.2892 86.2395 52.0658 81.9106C52.5516 81.1533 51.3455 80.4534 50.8621 81.207C48.1084 85.5002 42.5417 87.0422 37.7014 86.3786C34.817 85.9234 32.0318 84.9778 29.4665 83.5828C28.1361 82.8923 26.8458 82.127 25.5816 81.3225C24.3786 80.483 23.1035 79.7521 21.7713 79.1381C19.5495 78.2254 16.6082 78.2967 15.0562 80.3981C13.6084 82.3585 14.7273 85.6222 17.149 86.1733C17.6802 86.2781 18.2291 86.2493 18.7465 86.0897C19.2639 85.9301 19.7336 85.6446 20.1135 85.2588C20.4934 84.873 20.7716 84.3989 20.9232 83.8791C21.0749 83.3593 21.0951 82.81 20.9822 82.2805C20.7406 81.126 19.8713 79.9963 19.1984 79.0527C17.1767 76.2086 14.5427 73.8544 11.4905 72.1633C8.43829 70.4722 5.04557 69.4873 1.56227 69.2813C0.665575 69.237 0.667913 70.631 1.56227 70.6753L1.56235 70.6753Z" fill="#CCCCCC"/>
<path d="M196.928 112.872C194.611 111.38 192.68 109.36 191.293 106.977C189.907 104.595 189.105 101.918 188.953 99.1653C188.914 98.3874 188.797 97.4909 189.443 96.9206C189.682 96.697 189.99 96.5611 190.316 96.535C190.642 96.5089 190.967 96.5943 191.239 96.777C191.551 97.0516 191.764 97.4212 191.846 97.829C191.927 98.2367 191.872 98.66 191.689 99.0334C191.506 99.4068 191.205 99.7096 190.833 99.8952C190.461 100.081 190.038 100.139 189.63 100.06C187.567 99.8411 186.499 97.8046 185.632 96.1706C183.654 92.4474 181.261 88.7427 177.641 86.4237C174.292 84.2782 169.815 83.5625 166.209 85.4927C165.578 85.8304 166.144 86.7839 166.772 86.4479C170.349 84.5337 174.813 85.6206 177.917 87.9577C179.744 89.3919 181.311 91.1282 182.552 93.0914C183.209 94.0866 183.808 95.1183 184.374 96.1671C184.884 97.2164 185.486 98.2183 186.174 99.1611C187.363 100.656 189.433 101.747 191.326 100.889C191.747 100.671 192.112 100.357 192.391 99.9726C192.669 99.5882 192.854 99.1439 192.931 98.6754C193.007 98.2068 192.973 97.7268 192.83 97.2739C192.688 96.821 192.442 96.4076 192.111 96.0669C191.783 95.7882 191.39 95.5954 190.969 95.5057C190.548 95.416 190.111 95.4322 189.698 95.5529C189.284 95.6736 188.907 95.895 188.6 96.1972C188.294 96.4994 188.067 96.8731 187.94 97.2846C187.745 98.2522 187.741 99.2485 187.927 100.218C188.229 102.977 189.146 105.633 190.61 107.99C192.074 110.348 194.049 112.347 196.388 113.84C196.994 114.219 197.532 113.249 196.928 112.872L196.928 112.872Z" fill="#CCCCCC"/>
<path d="M82.9375 21.4092C80.1865 21.2359 77.5157 20.4131 75.1441 19.0083C72.7724 17.6035 70.7675 15.6566 69.2936 13.3273C68.8805 12.667 68.3413 11.9413 68.6272 11.1285C68.7268 10.8169 68.9292 10.5482 69.2013 10.3665C69.4734 10.1848 69.799 10.1007 70.1251 10.1281C70.5316 10.2156 70.898 10.4344 71.1678 10.7508C71.4377 11.0672 71.5959 11.4636 71.6181 11.8788C71.6404 12.294 71.5254 12.705 71.2909 13.0484C71.0564 13.3918 70.7155 13.6485 70.3207 13.779C68.4127 14.5928 66.4877 13.335 64.9335 12.3312C61.3921 10.0439 57.497 7.97533 53.2058 7.71466C49.2355 7.47352 44.978 9.03023 42.7697 12.4732C42.3833 13.0756 43.3426 13.6322 43.727 13.0328C45.9172 9.61821 50.3446 8.39184 54.1943 8.91961C56.4884 9.28163 58.7037 10.0337 60.744 11.1433C61.8021 11.6924 62.8283 12.3011 63.8338 12.941C64.7905 13.6086 65.8047 14.19 66.8643 14.6783C68.6314 15.4042 70.9708 15.3475 72.2051 13.6762C72.4669 13.2802 72.6325 12.8284 72.6885 12.3569C72.7445 11.8855 72.6894 11.4074 72.5277 10.9611C72.3659 10.5147 72.102 10.1124 71.757 9.78625C71.4119 9.46012 70.9954 9.21923 70.5407 9.08285C70.1182 8.99955 69.6816 9.02241 69.2701 9.14936C68.8585 9.27631 68.485 9.5034 68.1828 9.81025C67.8807 10.1171 67.6594 10.4941 67.5388 10.9076C67.4182 11.321 67.4021 11.7579 67.4919 12.179C67.7935 13.1189 68.2754 13.9909 68.9107 14.7463C70.5187 17.0083 72.6136 18.8807 75.0412 20.2257C77.4687 21.5708 80.1671 22.354 82.9376 22.5179C83.6507 22.5532 83.6489 21.4444 82.9376 21.4092L82.9375 21.4092Z" fill="#CCCCCC"/>
<path d="M85.4556 56.5337H82.1523V67.3874H85.4556V56.5337Z" fill="#CCCCCC"/>
<path d="M32.0441 48.9588L34.3398 46.6631L26.7968 39.12L24.5011 41.4157L32.0441 48.9588Z" fill="#B3B3B3"/>
<path d="M124.923 71.7688L127.219 74.0645L134.762 66.5214L132.466 64.2257L124.923 71.7688Z" fill="#B3B3B3"/>
<path d="M31.1105 165.583L33.4062 167.878L40.9493 160.335L38.6536 158.04L31.1105 165.583Z" fill="#00B140"/>
</g>
<defs>
<clipPath id="clip0_1_11766">
<rect width="196.216" height="220" fill="white" transform="translate(0.890625)"/>
</clipPath>
</defs>
</svg>
