<svg width="24" height="24" viewBox="0 0 24 24" fill="none" xmlns="http://www.w3.org/2000/svg">
<g clip-path="url(#clip0_40908_92211)">
<path d="M14.366 12.6654C14.866 12.6654 15.306 12.392 15.5327 11.9787L17.9193 7.65203C18.166 7.21203 17.846 6.66536 17.3393 6.66536H7.47268L6.84602 5.33203H4.66602V6.66536H5.99935L8.39935 11.7254L7.49935 13.352C7.01268 14.2454 7.65268 15.332 8.66602 15.332H16.666V13.9987H8.66602L9.39935 12.6654H14.366ZM8.10602 7.9987H16.206L14.366 11.332H9.68602L8.10602 7.9987ZM8.66602 15.9987C7.93268 15.9987 7.33935 16.5987 7.33935 17.332C7.33935 18.0654 7.93268 18.6654 8.66602 18.6654C9.39935 18.6654 9.99935 18.0654 9.99935 17.332C9.99935 16.5987 9.39935 15.9987 8.66602 15.9987ZM15.3327 15.9987C14.5993 15.9987 14.006 16.5987 14.006 17.332C14.006 18.0654 14.5993 18.6654 15.3327 18.6654C16.066 18.6654 16.666 18.0654 16.666 17.332C16.666 16.5987 16.066 15.9987 15.3327 15.9987Z" fill="#8C8C8C"/>
</g>
<rect x="0.25" y="0.25" width="23.5" height="23.5" rx="1.75" stroke="#D9D9D9" stroke-width="0.5"/>
<defs>
<clipPath id="clip0_40908_92211">
<rect width="16" height="16" fill="white" transform="translate(4 4)"/>
</clipPath>
</defs>
</svg>
