<svg width="141" height="30" viewBox="0 0 141 30" fill="none" xmlns="http://www.w3.org/2000/svg">
<path d="M15.3111 0C11.3829 0 7.61568 1.56045 4.83806 4.33806C2.06045 7.11568 0.5 10.8829 0.5 14.8111C0.5 18.7392 2.06045 22.5065 4.83806 25.2841C7.61568 28.0617 11.3829 29.6222 15.3111 29.6222H125.689C129.617 29.6222 133.384 28.0617 136.162 25.2841C138.94 22.5065 140.5 18.7392 140.5 14.8111C140.5 10.8829 138.94 7.11568 136.162 4.33806C133.384 1.56045 129.617 0 125.689 0H15.3111Z" fill="#E5E5E5"/>
<path d="M15.3116 2.99805C12.1785 2.99805 9.17365 4.24269 6.95817 6.45817C4.74269 8.67365 3.49805 11.6785 3.49805 14.8117C3.49805 17.9448 4.74269 20.9497 6.95817 23.1651C9.17365 25.3806 12.1785 26.6253 15.3116 26.6253H125.689C128.823 26.6253 131.827 25.3806 134.043 23.1651C136.258 20.9497 137.503 17.9448 137.503 14.8117C137.503 11.6785 136.258 8.67365 134.043 6.45817C131.827 4.24269 128.823 2.99805 125.689 2.99805H15.3116Z" fill="white"/>
<path d="M39.6919 21.8744H17.7308C17.661 21.8748 17.5919 21.8615 17.5273 21.8351C17.4627 21.8088 17.4039 21.7699 17.3544 21.7207C17.3049 21.6715 17.2657 21.6131 17.2388 21.5486C17.212 21.4842 17.1982 21.4151 17.1982 21.3454C17.1982 21.2756 17.212 21.2065 17.2388 21.1421C17.2657 21.0777 17.3049 21.0192 17.3544 20.9701C17.4039 20.9209 17.4627 20.882 17.5273 20.8556C17.5919 20.8293 17.661 20.8159 17.7308 20.8164H39.6919C39.8316 20.8174 39.9652 20.8735 40.0636 20.9726C40.1621 21.0717 40.2173 21.2057 40.2173 21.3454C40.2173 21.4851 40.1621 21.6191 40.0636 21.7182C39.9652 21.8172 39.8316 21.8734 39.6919 21.8744Z" fill="#0072EF"/>
<path d="M67.5523 22.0521H45.5912C45.5214 22.0526 45.4522 22.0392 45.3876 22.0129C45.323 21.9865 45.2643 21.9476 45.2148 21.8984C45.1653 21.8493 45.126 21.7908 45.0992 21.7264C45.0724 21.662 45.0586 21.5929 45.0586 21.5231C45.0586 21.4534 45.0724 21.3843 45.0992 21.3199C45.126 21.2554 45.1653 21.197 45.2148 21.1478C45.2643 21.0986 45.323 21.0598 45.3876 21.0334C45.4522 21.007 45.5214 20.9937 45.5912 20.9942H67.5523C67.622 20.9937 67.6912 21.007 67.7558 21.0334C67.8204 21.0598 67.8791 21.0986 67.9286 21.1478C67.9781 21.197 68.0174 21.2554 68.0442 21.3199C68.071 21.3843 68.0848 21.4534 68.0848 21.5231C68.0848 21.5929 68.071 21.662 68.0442 21.7264C68.0174 21.7908 67.9781 21.8493 67.9286 21.8984C67.8791 21.9476 67.8204 21.9865 67.7558 22.0129C67.6912 22.0392 67.622 22.0526 67.5523 22.0521Z" fill="#0072EF"/>
<path d="M95.4103 22.2279H73.4492C73.3095 22.2269 73.1759 22.1708 73.0775 22.0717C72.9791 21.9726 72.9238 21.8386 72.9238 21.6989C72.9238 21.5592 72.9791 21.4252 73.0775 21.3261C73.1759 21.227 73.3095 21.1709 73.4492 21.1699H95.4103C95.4801 21.1695 95.5492 21.1828 95.6138 21.2092C95.6784 21.2355 95.7372 21.2744 95.7867 21.3236C95.8362 21.3728 95.8755 21.4312 95.9023 21.4956C95.9291 21.5601 95.9429 21.6291 95.9429 21.6989C95.9429 21.7687 95.9291 21.8378 95.9023 21.9022C95.8755 21.9666 95.8362 22.0251 95.7867 22.0742C95.7372 22.1234 95.6784 22.1623 95.6138 22.1886C95.5492 22.215 95.4801 22.2283 95.4103 22.2279H95.4103Z" fill="#0072EF"/>
<path d="M123.269 22.4036H101.308C101.168 22.4027 101.034 22.3465 100.936 22.2474C100.837 22.1483 100.782 22.0143 100.782 21.8747C100.782 21.735 100.837 21.601 100.936 21.5019C101.034 21.4028 101.168 21.3467 101.308 21.3457H123.269C123.408 21.3467 123.542 21.4028 123.64 21.5019C123.739 21.601 123.794 21.735 123.794 21.8747C123.794 22.0143 123.739 22.1483 123.64 22.2474C123.542 22.3465 123.408 22.4027 123.269 22.4036Z" fill="#0072EF"/>
<path d="M28.6637 17.007C30.9179 17.007 32.7453 15.1796 32.7453 12.9254C32.7453 10.6712 30.9179 8.84375 28.6637 8.84375C26.4094 8.84375 24.582 10.6712 24.582 12.9254C24.582 15.1796 26.4094 17.007 28.6637 17.007Z" fill="#0072EF"/>
<path d="M56.69 17.007C58.9443 17.007 60.7717 15.1796 60.7717 12.9254C60.7717 10.6712 58.9443 8.84375 56.69 8.84375C54.4358 8.84375 52.6084 10.6712 52.6084 12.9254C52.6084 15.1796 54.4358 17.007 56.69 17.007Z" fill="#0072EF"/>
<path d="M84.7174 17.007C86.9716 17.007 88.799 15.1796 88.799 12.9254C88.799 10.6712 86.9716 8.84375 84.7174 8.84375C82.4632 8.84375 80.6357 10.6712 80.6357 12.9254C80.6357 15.1796 82.4632 17.007 84.7174 17.007Z" fill="#0072EF"/>
<path d="M112.745 17.007C114.999 17.007 116.826 15.1796 116.826 12.9254C116.826 10.6712 114.999 8.84375 112.745 8.84375C110.49 8.84375 108.663 10.6712 108.663 12.9254C108.663 15.1796 110.49 17.007 112.745 17.007Z" fill="#0072EF"/>
</svg>
