<svg width="24" height="25" viewBox="0 0 24 25" fill="none" xmlns="http://www.w3.org/2000/svg">
<path d="M12 1.50391C6.20156 1.50391 1.5 6.20547 1.5 12.0039C1.5 17.8023 6.20156 22.5039 12 22.5039C17.7984 22.5039 22.5 17.8023 22.5 12.0039C22.5 6.20547 17.7984 1.50391 12 1.50391ZM12 20.7227C7.18594 20.7227 3.28125 16.818 3.28125 12.0039C3.28125 7.18984 7.18594 3.28516 12 3.28516C16.8141 3.28516 20.7188 7.18984 20.7188 12.0039C20.7188 16.818 16.8141 20.7227 12 20.7227Z" fill="#F90005"/>
<path d="M16.0945 14.9711L12.7523 12.5547V6.75391C12.7523 6.65078 12.668 6.56641 12.5648 6.56641H11.4375C11.3344 6.56641 11.25 6.65078 11.25 6.75391V13.2086C11.25 13.2695 11.2781 13.3258 11.3273 13.3609L15.2039 16.1875C15.2883 16.2484 15.4055 16.2297 15.4664 16.1476L16.1367 15.2336C16.1976 15.1468 16.1789 15.0297 16.0945 14.9711Z" fill="#F90005"/>
</svg>
