<svg width="14" height="14" viewBox="0 0 14 14" fill="none" xmlns="http://www.w3.org/2000/svg">
<path d="M6.68229 13.3753C3.00039 13.3753 0.015625 10.3906 0.015625 6.70866C0.015625 3.02676 3.00039 0.0419922 6.68229 0.0419922C10.3642 0.0419922 13.349 3.02676 13.349 6.70866C13.3449 10.3889 10.3625 13.3713 6.68229 13.3753ZM1.34896 6.82333C1.3805 9.75749 3.77636 12.115 6.71065 12.0993C9.64494 12.0835 12.0153 9.70032 12.0153 6.76599C12.0153 3.83166 9.64494 1.44851 6.71065 1.43266C3.77636 1.41696 1.3805 3.7745 1.34896 6.70866V6.82333ZM10.0156 7.37533H3.34896V6.04199H10.0156V7.37533Z" fill="#67748E"/>
</svg>
