<svg width="41" height="41" viewBox="0 0 41 41" fill="none" xmlns="http://www.w3.org/2000/svg">
<path d="M20.7479 18.4314C20.7187 18.3941 20.6813 18.3639 20.6387 18.3431C20.5961 18.3223 20.5493 18.3115 20.5018 18.3115C20.4544 18.3115 20.4076 18.3223 20.365 18.3431C20.3223 18.3639 20.285 18.3941 20.2557 18.4314L15.8807 23.9666C15.8447 24.0127 15.8223 24.0679 15.8162 24.1261C15.81 24.1843 15.8204 24.243 15.8461 24.2956C15.8717 24.3481 15.9117 24.3924 15.9613 24.4234C16.011 24.4543 16.0683 24.4706 16.1268 24.4705H19.0136V33.9393C19.0136 34.1112 19.1542 34.2518 19.3261 34.2518H21.6698C21.8417 34.2518 21.9823 34.1112 21.9823 33.9393V24.4744H24.8768C25.1385 24.4744 25.2831 24.1736 25.1229 23.9705L20.7479 18.4314Z" fill="#0072EF"/>
<path d="M32.1953 14.8242C30.4063 10.1055 25.8477 6.75 20.5078 6.75C15.168 6.75 10.6094 10.1016 8.82031 14.8203C5.47266 15.6992 3 18.75 3 22.375C3 26.6914 6.49609 30.1875 10.8086 30.1875H12.375C12.5469 30.1875 12.6875 30.0469 12.6875 29.875V27.5312C12.6875 27.3594 12.5469 27.2188 12.375 27.2188H10.8086C9.49219 27.2188 8.25391 26.6953 7.33203 25.7461C6.41406 24.8008 5.92578 23.5273 5.96875 22.207C6.00391 21.1758 6.35547 20.207 6.99219 19.3906C7.64453 18.5586 8.55859 17.9531 9.57422 17.6836L11.0547 17.2969L11.5977 15.8672C11.9336 14.9766 12.4023 14.1445 12.9922 13.3906C13.5745 12.6434 14.2643 11.9865 15.0391 11.4414C16.6445 10.3125 18.5352 9.71484 20.5078 9.71484C22.4805 9.71484 24.3711 10.3125 25.9766 11.4414C26.7539 11.9883 27.4414 12.6445 28.0234 13.3906C28.6133 14.1445 29.082 14.9805 29.418 15.8672L29.957 17.293L31.4336 17.6836C33.5508 18.2539 35.0312 20.1797 35.0312 22.375C35.0312 23.668 34.5273 24.8867 33.6133 25.8008C33.165 26.2517 32.6318 26.6092 32.0444 26.8526C31.457 27.096 30.8272 27.2204 30.1914 27.2188H28.625C28.4531 27.2188 28.3125 27.3594 28.3125 27.5312V29.875C28.3125 30.0469 28.4531 30.1875 28.625 30.1875H30.1914C34.5039 30.1875 38 26.6914 38 22.375C38 18.7539 35.5352 15.707 32.1953 14.8242Z" fill="#0072EF"/>
</svg>
