<svg width="40" height="40" viewBox="0 0 40 40" fill="none" xmlns="http://www.w3.org/2000/svg">
<path d="M20.2479 17.9314C20.2187 17.8941 20.1813 17.8639 20.1387 17.8431C20.0961 17.8223 20.0493 17.8115 20.0018 17.8115C19.9544 17.8115 19.9076 17.8223 19.865 17.8431C19.8223 17.8639 19.785 17.8941 19.7557 17.9314L15.3807 23.4666C15.3447 23.5127 15.3223 23.5679 15.3162 23.6261C15.31 23.6843 15.3204 23.743 15.3461 23.7956C15.3717 23.8481 15.4117 23.8924 15.4613 23.9234C15.511 23.9543 15.5683 23.9706 15.6268 23.9705H18.5136V33.4393C18.5136 33.6112 18.6542 33.7518 18.8261 33.7518H21.1698C21.3417 33.7518 21.4823 33.6112 21.4823 33.4393V23.9744H24.3768C24.6385 23.9744 24.7831 23.6736 24.6229 23.4705L20.2479 17.9314Z" fill="#8C8C8C"/>
<path d="M31.6953 14.3242C29.9063 9.60547 25.3477 6.25 20.0078 6.25C14.668 6.25 10.1094 9.60156 8.32031 14.3203C4.97266 15.1992 2.5 18.25 2.5 21.875C2.5 26.1914 5.99609 29.6875 10.3086 29.6875H11.875C12.0469 29.6875 12.1875 29.5469 12.1875 29.375V27.0312C12.1875 26.8594 12.0469 26.7188 11.875 26.7188H10.3086C8.99219 26.7188 7.75391 26.1953 6.83203 25.2461C5.91406 24.3008 5.42578 23.0273 5.46875 21.707C5.50391 20.6758 5.85547 19.707 6.49219 18.8906C7.14453 18.0586 8.05859 17.4531 9.07422 17.1836L10.5547 16.7969L11.0977 15.3672C11.4336 14.4766 11.9023 13.6445 12.4922 12.8906C13.0745 12.1434 13.7643 11.4865 14.5391 10.9414C16.1445 9.8125 18.0352 9.21484 20.0078 9.21484C21.9805 9.21484 23.8711 9.8125 25.4766 10.9414C26.2539 11.4883 26.9414 12.1445 27.5234 12.8906C28.1133 13.6445 28.582 14.4805 28.918 15.3672L29.457 16.793L30.9336 17.1836C33.0508 17.7539 34.5312 19.6797 34.5312 21.875C34.5312 23.168 34.0273 24.3867 33.1133 25.3008C32.665 25.7517 32.1318 26.1092 31.5444 26.3526C30.957 26.596 30.3272 26.7204 29.6914 26.7188H28.125C27.9531 26.7188 27.8125 26.8594 27.8125 27.0312V29.375C27.8125 29.5469 27.9531 29.6875 28.125 29.6875H29.6914C34.0039 29.6875 37.5 26.1914 37.5 21.875C37.5 18.2539 35.0352 15.207 31.6953 14.3242Z" fill="#8C8C8C"/>
</svg>
