<svg width="27" height="28" viewBox="0 0 27 28" fill="none" xmlns="http://www.w3.org/2000/svg">
<path fill-rule="evenodd" clip-rule="evenodd" d="M0.167969 14.02C0.167969 6.99612 5.7813 0.666626 13.528 0.666626C21.1013 0.666626 26.8346 6.87594 26.8346 13.9799C26.8346 22.219 20.1146 27.3333 13.5013 27.3333C11.3146 27.3333 8.88797 26.7457 6.9413 25.5974C6.2613 25.1834 5.68797 24.8763 4.95464 25.1166L2.2613 25.9178C1.5813 26.1315 0.967969 25.5974 1.16797 24.8763L2.0613 21.8851C2.20797 21.4712 2.1813 21.0305 1.96797 20.6833C0.821302 18.5735 0.167969 16.2634 0.167969 14.02ZM11.768 14.02C11.768 14.9681 12.528 15.7292 13.4746 15.7426C14.4213 15.7426 15.1813 14.9681 15.1813 14.0333C15.1813 13.0853 14.4213 12.3241 13.4746 12.3241C12.5413 12.3108 11.768 13.0853 11.768 14.02ZM17.9146 14.0333C17.9146 14.9681 18.6746 15.7426 19.6213 15.7426C20.568 15.7426 21.328 14.9681 21.328 14.0333C21.328 13.0853 20.568 12.3241 19.6213 12.3241C18.6746 12.3241 17.9146 13.0853 17.9146 14.0333ZM7.32797 15.7426C6.39463 15.7426 5.6213 14.9681 5.6213 14.0333C5.6213 13.0853 6.3813 12.3241 7.32797 12.3241C8.27463 12.3241 9.03463 13.0853 9.03463 14.0333C9.03463 14.9681 8.27463 15.7292 7.32797 15.7426Z" fill="#0072EF"/>
</svg>
