<svg width="201" height="202" viewBox="0 0 201 202" fill="none" xmlns="http://www.w3.org/2000/svg">
<g clip-path="url(#clip0_39918_115568)">
<path d="M50.951 193.606C50.7303 193.616 50.5118 193.558 50.3251 193.44C50.1385 193.322 49.9927 193.149 49.9075 192.945C49.8222 192.741 49.8017 192.516 49.8487 192.3C49.8957 192.085 50.0079 191.888 50.1701 191.738C50.1973 191.63 50.2168 191.553 50.2439 191.445C50.0327 190.908 49.6661 190.447 49.1911 190.12C48.7161 189.794 48.1543 189.616 47.5777 189.611C47.0012 189.605 46.4362 189.772 45.9551 190.09C45.474 190.408 45.0987 190.862 44.8774 191.394C43.6005 194.383 41.9479 197.477 42.7698 200.769C37.3409 189.264 39.1871 174.951 47.2102 165.112C49.4279 163.89 51.2254 161.72 51.6933 159.2C50.5958 159.572 49.2273 158.679 50.0526 157.523C50.4103 157.081 50.7714 156.642 51.1291 156.201C46.9599 151.76 41.9923 158.739 46.5814 164.732C45.0802 166.614 43.7799 168.648 42.7016 170.8C42.9506 168.515 42.6534 166.202 41.8345 164.054C41.0045 162.052 39.4487 160.365 38.0788 158.634C36.413 156.525 32.9848 157.498 32.7606 160.175C34.2979 160.68 34.4976 162.901 32.7392 163.204C33.1997 168.184 36.4527 172.759 40.9329 174.943C39.2784 179.585 38.6323 184.527 39.0378 189.439C38.247 183.698 32.0853 182.305 27.7786 180.024C27.5044 179.848 27.1851 179.756 26.8595 179.759C26.5339 179.761 26.216 179.859 25.9448 180.039C25.6735 180.219 25.4606 180.474 25.3319 180.773C25.2032 181.072 25.1643 181.402 25.2201 181.723C25.8145 181.965 26.3834 182.265 26.9185 182.619C27.1692 182.788 27.3617 183.03 27.4695 183.312C27.5773 183.594 27.5951 183.903 27.5206 184.196C27.4461 184.489 27.2829 184.751 27.0533 184.948C26.8237 185.144 26.5389 185.264 26.2381 185.293C28.409 190.665 34.0216 194.273 39.786 194.253C40.34 196.66 41.1426 199.003 42.181 201.245H50.7366C50.7673 201.15 50.7948 201.051 50.8224 200.956C50.0305 201.006 49.2355 200.959 48.4551 200.815C50.5503 198.335 52.1706 197.069 50.9512 193.606L50.951 193.606Z" fill="#F2F2F2"/>
<path d="M127.226 193.606C127.446 193.616 127.665 193.558 127.852 193.44C128.038 193.322 128.184 193.149 128.269 192.945C128.355 192.741 128.375 192.516 128.328 192.3C128.281 192.085 128.169 191.888 128.007 191.738C127.979 191.63 127.96 191.553 127.933 191.445C128.144 190.908 128.511 190.447 128.986 190.12C129.461 189.794 130.022 189.616 130.599 189.611C131.176 189.605 131.741 189.772 132.222 190.09C132.703 190.408 133.078 190.862 133.299 191.394C134.576 194.383 136.229 197.477 135.407 200.769C140.836 189.264 138.99 174.951 130.967 165.112C128.749 163.89 126.951 161.72 126.483 159.2C127.581 159.572 128.949 158.679 128.124 157.523C127.766 157.081 127.405 156.642 127.048 156.201C131.217 151.76 136.184 158.739 131.595 164.732C133.097 166.614 134.397 168.648 135.475 170.8C135.226 168.515 135.523 166.202 136.342 164.054C137.172 162.052 138.728 160.365 140.098 158.634C141.764 156.525 145.192 157.498 145.416 160.175C143.879 160.68 143.679 162.901 145.438 163.204C144.977 168.184 141.724 172.759 137.244 174.943C138.898 179.585 139.544 184.527 139.139 189.439C139.93 183.698 146.091 182.305 150.398 180.024C150.672 179.848 150.992 179.756 151.317 179.759C151.643 179.761 151.961 179.859 152.232 180.039C152.503 180.219 152.716 180.474 152.845 180.773C152.974 181.072 153.012 181.402 152.957 181.723C152.362 181.965 151.793 182.265 151.258 182.619C151.008 182.788 150.815 183.03 150.707 183.312C150.599 183.594 150.582 183.903 150.656 184.196C150.731 184.489 150.894 184.751 151.123 184.948C151.353 185.144 151.638 185.264 151.939 185.293C149.768 190.665 144.155 194.273 138.391 194.253C137.837 196.66 137.034 199.003 135.996 201.245H127.44C127.409 201.15 127.382 201.051 127.354 200.956C128.146 201.006 128.941 200.959 129.722 200.815C127.626 198.335 126.006 197.069 127.226 193.606L127.226 193.606Z" fill="#F2F2F2"/>
<path d="M130.398 194.876L126.714 195.714L121.727 181.901L127.165 180.664L130.398 194.876Z" fill="#FFB6B6"/>
<path d="M131.402 198.69L120.072 201.268L120.039 201.125C119.773 199.955 119.983 198.728 120.622 197.712C121.26 196.697 122.276 195.977 123.446 195.711L123.446 195.711L125.159 193.67L129.377 194.362L130.366 194.136L131.402 198.69Z" fill="#002766"/>
<path d="M189.835 127.547L191.86 130.737L180.521 140.068L177.531 135.36L189.835 127.547Z" fill="#FFB6B6"/>
<path d="M193.091 125.321L199.32 135.13L199.196 135.209C198.184 135.852 196.957 136.067 195.786 135.805C194.616 135.544 193.597 134.829 192.954 133.816L192.954 133.816L190.456 132.887L189.693 128.681L189.149 127.825L193.091 125.321Z" fill="#002766"/>
<path d="M72.3861 93.4437L71.4761 88.169L85.3113 81.9215L88.2991 76.6316C88.2026 76.1674 88.2363 75.6856 88.3965 75.2393C88.5567 74.7931 88.8371 74.3998 89.2067 74.1029C89.5764 73.806 90.0209 73.617 90.4912 73.5569C90.9615 73.4968 91.4392 73.5678 91.8717 73.7622C92.3042 73.9565 92.6745 74.2666 92.9417 74.6582C93.209 75.0498 93.3629 75.5077 93.3863 75.9812C93.4097 76.4548 93.3017 76.9256 93.0743 77.3416C92.847 77.7577 92.509 78.1028 92.0978 78.3388L87.1828 85.9376L72.3861 93.4437Z" fill="#A0616A"/>
<path d="M68.1807 89.1318L74.4111 85.9492L76.0603 92.142L71.7327 95.35L68.1807 89.1318Z" fill="#2DC071"/>
<path d="M54.2001 194.396L57.9672 194.396L59.7593 179.865L54.1992 179.866L54.2001 194.396Z" fill="#A0616A"/>
<path d="M59.2205 194.736V192.182L58.2301 192.242L54.1987 192.481L53.2657 192.538L52.5524 201.092L52.5142 201.55H55.189L55.275 201.095L55.6635 199.025L56.6666 201.095L56.8863 201.55H63.978C64.4 201.547 64.8039 201.378 65.102 201.08C65.4001 200.781 65.5684 200.377 65.5702 199.955C65.8695 198.557 59.972 195.535 59.2205 194.736Z" fill="#002766"/>
<path d="M9.48217 136.73L8.604 140.394L22.3163 145.525L23.6122 140.118L9.48217 136.73Z" fill="#A0616A"/>
<path d="M8.28032 141.534L10.7638 142.13L10.9359 141.153L11.6436 137.177L11.8054 136.256L3.6542 133.568L3.21719 133.424L2.59351 136.025L3.01628 136.215L4.93851 137.075L2.69182 137.568L2.19776 137.675L0.544278 144.572C0.448482 144.983 0.518681 145.415 0.739647 145.774C0.960612 146.134 1.31449 146.392 1.72444 146.492C3.01408 147.109 7.32785 142.079 8.28032 141.534Z" fill="#002766"/>
<path d="M60.0247 100.356L55.1757 98.0889L45.506 109.791L39.616 111.281C39.1936 111.065 38.7199 110.971 38.2472 111.008C37.7745 111.045 37.3213 111.212 36.9375 111.49C36.5538 111.769 36.2545 112.148 36.0726 112.586C35.8908 113.024 35.8336 113.503 35.9072 113.972C35.9808 114.44 36.1825 114.879 36.4899 115.24C36.7973 115.601 37.1985 115.87 37.6492 116.017C38.0999 116.164 38.5825 116.184 39.0437 116.074C39.5049 115.964 39.9268 115.729 40.2628 115.395L48.8876 112.654L60.0247 100.356Z" fill="#A0616A"/>
<path d="M128.769 57.0352C127.741 57.0352 126.736 56.7304 125.882 56.1594C125.027 55.5883 124.361 54.7767 123.968 53.8271C123.575 52.8775 123.472 51.8326 123.672 50.8245C123.873 49.8165 124.368 48.8905 125.094 48.1637C125.821 47.4369 126.747 46.942 127.755 46.7415C128.763 46.5409 129.808 46.6439 130.758 47.0372C131.707 47.4305 132.519 48.0966 133.09 48.9512C133.661 49.8058 133.966 50.8106 133.966 51.8384C133.964 53.2162 133.416 54.5371 132.442 55.5114C131.468 56.4856 130.147 57.0336 128.769 57.0352ZM128.769 47.238C127.859 47.238 126.97 47.5078 126.213 48.0133C125.457 48.5188 124.867 49.2373 124.519 50.0779C124.171 50.9185 124.08 51.8435 124.257 52.7359C124.435 53.6283 124.873 54.448 125.516 55.0914C126.159 55.7347 126.979 56.1729 127.872 56.3504C128.764 56.5279 129.689 56.4368 130.53 56.0886C131.37 55.7404 132.089 55.1508 132.594 54.3942C133.1 53.6377 133.369 52.7483 133.369 51.8384C133.368 50.6187 132.883 49.4494 132.02 48.5869C131.158 47.7245 129.989 47.2394 128.769 47.238Z" fill="#E6E6E6"/>
<path d="M128.402 53.7968C128.392 53.7968 128.381 53.7965 128.371 53.796C128.279 53.7915 128.189 53.7672 128.107 53.7246C128.025 53.682 127.953 53.6222 127.896 53.5492L127.077 52.4968C127.026 52.4303 126.988 52.3544 126.965 52.2732C126.943 52.1921 126.937 52.1073 126.947 52.0238C126.958 51.9402 126.985 51.8596 127.026 51.7864C127.068 51.7132 127.123 51.649 127.19 51.5973L127.219 51.5744C127.286 51.5227 127.362 51.4845 127.443 51.4622C127.524 51.4398 127.609 51.4337 127.692 51.4441C127.776 51.4546 127.857 51.4814 127.93 51.523C128.003 51.5647 128.067 51.6203 128.119 51.6868C128.16 51.7399 128.213 51.7834 128.272 51.8144C128.332 51.8454 128.398 51.8632 128.465 51.8665C128.532 51.8697 128.599 51.8585 128.662 51.8334C128.724 51.8083 128.781 51.7701 128.827 51.7213L130.489 49.9665C130.606 49.8433 130.767 49.7715 130.937 49.7668C131.107 49.7622 131.272 49.8252 131.395 49.9419L131.422 49.9678C131.484 50.0257 131.533 50.0951 131.567 50.1719C131.601 50.2488 131.62 50.3317 131.622 50.4158C131.625 50.5 131.61 50.5837 131.58 50.6623C131.55 50.741 131.505 50.8129 131.447 50.8739L128.867 53.5966C128.808 53.6599 128.735 53.7102 128.656 53.7447C128.576 53.7791 128.489 53.7968 128.402 53.7968Z" fill="#E6E6E6"/>
<path d="M102.827 119.954C101.799 119.954 100.794 119.649 99.9395 119.078C99.0849 118.507 98.4188 117.696 98.0255 116.746C97.6321 115.796 97.5292 114.752 97.7297 113.743C97.9303 112.735 98.4252 111.809 99.152 111.083C99.8788 110.356 100.805 109.861 101.813 109.66C102.821 109.46 103.866 109.563 104.815 109.956C105.765 110.349 106.577 111.016 107.148 111.87C107.719 112.725 108.023 113.73 108.023 114.757C108.022 116.135 107.474 117.456 106.5 118.43C105.525 119.405 104.204 119.953 102.827 119.954ZM102.827 110.157C101.917 110.157 101.027 110.427 100.271 110.932C99.5143 111.438 98.9246 112.156 98.5764 112.997C98.2283 113.837 98.1371 114.762 98.3147 115.655C98.4922 116.547 98.9303 117.367 99.5737 118.01C100.217 118.654 101.037 119.092 101.929 119.269C102.822 119.447 103.747 119.356 104.587 119.008C105.428 118.659 106.146 118.07 106.652 117.313C107.157 116.557 107.427 115.667 107.427 114.757C107.426 113.538 106.941 112.368 106.078 111.506C105.216 110.643 104.046 110.158 102.827 110.157Z" fill="#E6E6E6"/>
<path d="M102.46 116.715C102.45 116.715 102.439 116.714 102.429 116.714C102.336 116.709 102.246 116.685 102.164 116.643C102.082 116.6 102.01 116.54 101.954 116.467L101.135 115.415C101.083 115.348 101.045 115.272 101.023 115.191C101.001 115.11 100.995 115.025 101.005 114.942C101.015 114.858 101.042 114.778 101.084 114.704C101.125 114.631 101.181 114.567 101.247 114.515L101.277 114.492C101.343 114.441 101.419 114.402 101.5 114.38C101.582 114.358 101.666 114.352 101.75 114.362C101.834 114.373 101.914 114.399 101.987 114.441C102.061 114.483 102.125 114.538 102.177 114.605C102.218 114.658 102.27 114.701 102.33 114.732C102.39 114.763 102.455 114.781 102.523 114.784C102.59 114.788 102.657 114.776 102.719 114.751C102.782 114.726 102.838 114.688 102.884 114.639L104.547 112.884C104.664 112.761 104.825 112.689 104.995 112.685C105.164 112.68 105.329 112.743 105.453 112.86L105.48 112.886C105.541 112.944 105.59 113.013 105.625 113.09C105.659 113.167 105.678 113.25 105.68 113.334C105.682 113.418 105.668 113.502 105.638 113.58C105.608 113.659 105.562 113.731 105.504 113.792L102.925 116.515C102.865 116.578 102.793 116.628 102.713 116.663C102.633 116.697 102.547 116.715 102.46 116.715Z" fill="#E6E6E6"/>
<path d="M45.8721 49.8789C44.8442 49.8789 43.8395 49.5741 42.9849 49.0031C42.1303 48.4321 41.4642 47.6204 41.0709 46.6709C40.6775 45.7213 40.5746 44.6764 40.7751 43.6683C40.9757 42.6602 41.4706 41.7342 42.1974 41.0075C42.9242 40.2807 43.8502 39.7857 44.8582 39.5852C45.8663 39.3847 46.9112 39.4876 47.8608 39.8809C48.8104 40.2743 49.622 40.9404 50.193 41.795C50.7641 42.6496 51.0689 43.6543 51.0689 44.6821C51.0673 46.0599 50.5193 47.3809 49.5451 48.3551C48.5708 49.3294 47.2499 49.8774 45.8721 49.8789ZM45.8721 40.0817C44.9622 40.0817 44.0728 40.3515 43.3162 40.857C42.5597 41.3625 41.9701 42.081 41.6219 42.9216C41.2737 43.7623 41.1826 44.6872 41.3601 45.5796C41.5376 46.472 41.9757 47.2917 42.6191 47.9351C43.2625 48.5785 44.0822 49.0166 44.9746 49.1941C45.867 49.3717 46.792 49.2805 47.6326 48.9324C48.4732 48.5842 49.1917 47.9945 49.6972 47.238C50.2027 46.4814 50.4725 45.592 50.4725 44.6821C50.4711 43.4625 49.986 42.2931 49.1235 41.4307C48.2611 40.5682 47.0918 40.0831 45.8721 40.0817Z" fill="#E6E6E6"/>
<path d="M45.5053 46.6396C45.4949 46.6396 45.4845 46.6392 45.474 46.6387C45.3818 46.6343 45.2916 46.6099 45.2096 46.5673C45.1276 46.5247 45.0558 46.4649 44.9992 46.392L44.1805 45.3395C44.1288 45.2731 44.0907 45.1971 44.0684 45.116C44.046 45.0348 44.0399 44.9501 44.0504 44.8665C44.0608 44.783 44.0876 44.7024 44.1292 44.6292C44.1708 44.556 44.2264 44.4917 44.2928 44.4401L44.3223 44.4171C44.3887 44.3654 44.4647 44.3273 44.5459 44.3049C44.6271 44.2826 44.7119 44.2765 44.7954 44.2869C44.879 44.2974 44.9597 44.3242 45.0328 44.3658C45.106 44.4074 45.1703 44.4631 45.2219 44.5296C45.2633 44.5827 45.3156 44.6262 45.3753 44.6572C45.4351 44.6882 45.5008 44.706 45.568 44.7092C45.6352 44.7125 45.7023 44.7012 45.7648 44.6762C45.8273 44.6511 45.8836 44.6129 45.9299 44.564L47.592 42.8093C47.709 42.686 47.8701 42.6142 48.04 42.6096C48.2099 42.605 48.3747 42.6679 48.4982 42.7846L48.5255 42.8106C48.5866 42.8685 48.6357 42.9378 48.67 43.0147C48.7043 43.0916 48.7231 43.1745 48.7254 43.2586C48.7277 43.3427 48.7133 43.4265 48.6832 43.5051C48.6531 43.5837 48.6078 43.6556 48.5499 43.7167L45.9705 46.4394C45.9106 46.5026 45.8385 46.553 45.7585 46.5874C45.6786 46.6218 45.5924 46.6396 45.5053 46.6396Z" fill="#E6E6E6"/>
<path d="M87.4777 139.276C75.427 139.276 61.5777 125.903 49.3246 132.257C12.2252 151.494 17.3322 119.304 6.67383 107.332L7.02374 106.63C18.784 117.175 33.4671 125.754 49.4857 131.441C63.9615 136.58 78.5458 138.961 91.6567 138.333L91.6795 139.176C90.2949 139.243 88.8943 139.276 87.4777 139.276Z" fill="#F2F2F2"/>
<path d="M70.9471 48.8619C72.3383 48.8619 73.4661 47.3497 73.4661 45.4842C73.4661 43.6187 72.3383 42.1064 70.9471 42.1064C69.556 42.1064 68.4282 43.6187 68.4282 45.4842C68.4282 47.3497 69.556 48.8619 70.9471 48.8619Z" fill="#E6E6E6"/>
<path d="M100.041 101.555C98.8891 102.322 97.7104 100.496 98.8842 99.7627C100.036 98.9955 101.214 100.822 100.041 101.555Z" fill="#E6E6E6"/>
<path d="M93.4119 40.0729C95.2235 40.0729 96.692 38.6043 96.692 36.7928C96.692 34.9812 95.2235 33.5127 93.4119 33.5127C91.6004 33.5127 90.1318 34.9812 90.1318 36.7928C90.1318 38.6043 91.6004 40.0729 93.4119 40.0729Z" fill="#FF6584"/>
<path opacity="0.3" d="M104.884 54.7677L123.549 0.255859L103.054 54.1152C102.953 54.243 102.883 54.3932 102.852 54.5532C102.82 54.7133 102.827 54.8785 102.872 55.0354C102.917 55.1922 102.998 55.3361 103.11 55.4551C103.222 55.574 103.36 55.6647 103.514 55.7195C103.667 55.7742 103.832 55.7916 103.994 55.7701C104.155 55.7486 104.31 55.6888 104.444 55.5958C104.578 55.5027 104.687 55.3791 104.764 55.2351C104.841 55.0911 104.882 54.9309 104.884 54.7677H104.884Z" fill="#F0F0F0"/>
<path d="M86.0448 121.18C87.8074 121.18 89.2362 119.751 89.2362 117.988C89.2362 116.226 87.8074 114.797 86.0448 114.797C84.2823 114.797 82.8535 116.226 82.8535 117.988C82.8535 119.751 84.2823 121.18 86.0448 121.18Z" fill="#F2F2F2"/>
<path d="M55.1361 119.205C55.1361 119.205 47.1802 124.386 49.2839 127.828C49.3565 127.947 39.7806 140.594 39.7806 140.594L21.7038 139.446L21.0669 145.497L37.1602 150.158C37.1602 150.158 41.0973 153.05 44.1387 149.863C47.1802 146.676 57.311 136.917 57.311 136.917L57.7997 156.621L52.714 183.924L60.3075 183.442L67.6982 156.051L70.4263 125.023L55.1361 119.205Z" fill="#002766"/>
<path d="M60.8028 88.1133L57.4572 90.6487L53.6439 98.7874L57.3107 103.767C57.3107 103.767 60.3952 109.113 55.4581 114.29C50.521 119.467 46.7298 124.996 50.6815 124.798C54.6331 124.601 70.6379 132.741 70.7432 126.072C70.8485 119.403 71.0616 114.29 71.0616 114.29L75.2577 103.647C75.2577 103.647 77.7576 97.2981 76.0024 95.3976C74.2473 93.4971 71.8972 91.0686 71.8972 91.0686L67.6235 86.7949H63.7646L60.8028 88.1133Z" fill="#2DC071"/>
<path d="M67.0483 72.4757C74.5539 76.7466 68.3922 88.0156 60.7467 84.0028C53.2413 79.732 59.403 68.463 67.0483 72.4757Z" fill="#A0616A"/>
<path d="M71.0621 74.844C70.5361 75.528 69.4374 75.2073 67.2857 75.6953C67.2904 74.966 67.2061 74.2388 67.0348 73.5299C66.8747 74.4076 66.5238 75.2396 66.007 75.9669C64.1387 76.1741 66.429 81.8501 65.4724 86.0233C64.2398 77.2192 61.6473 79.5258 62.957 81.2721C63.7955 82.39 63.2365 85.7438 60.7212 84.0669C56.571 86.0393 50.6598 76.2414 57.2112 71.6463C57.0941 69.1625 59.8578 68.7702 61.5596 69.5338C65.6897 66.4571 70.4084 70.3994 71.0621 74.844Z" fill="#002766"/>
<path d="M51.8044 68.4193C50.1334 78.6933 41.1769 66.5298 36.9656 76.6404C35.6415 80.3019 37.9133 82.9212 39.3503 85.9604C39.6783 88.4581 36.429 89.7252 36.0887 92.0243C35.9939 97.2952 44.4976 96.9727 46.8749 93.6472C49.3175 90.166 46.4007 85.4954 47.8689 81.7588C49.9324 76.5711 58.3245 76.5326 59.0556 70.4971C57.6397 68.4808 53.8324 66.1715 51.8044 68.4193Z" fill="#002766"/>
<path d="M58.5735 69.4239C58.5188 69.4469 58.4641 69.4699 58.4152 69.4958H58.4123C58.3663 69.5189 58.3203 69.5419 58.2742 69.5678C58.2685 69.5706 58.2656 69.5735 58.2599 69.5764C58.1994 69.5189 58.139 69.4613 58.0757 69.4038C58.0593 69.4975 58.0633 69.5936 58.0872 69.6857L58.0959 69.7203C58.1534 69.7807 58.2138 69.8382 58.2771 69.8987C58.3347 69.8555 58.3893 69.8095 58.4469 69.7663C58.4814 69.7375 58.5159 69.7087 58.5533 69.68C58.5591 69.6052 58.5677 69.5189 58.5763 69.4239L58.5735 69.4239ZM60.3055 66.2245C59.0223 65.931 58.608 67.6084 58.4843 68.4169C58.0182 65.4822 56.0789 66.4057 56.7493 68.4082C56.963 69.0011 57.2993 69.5423 57.7362 69.9965C57.7966 70.0655 57.8628 70.1346 57.9319 70.2036C57.8542 70.6064 58.2455 70.5028 58.7749 70.1317C59.1658 69.8537 59.5273 69.5365 59.8538 69.1851C60.9097 68.0774 61.7326 66.5956 60.3055 66.2245ZM60.3458 67.876C59.9499 68.3865 59.5057 68.8577 59.0194 69.2829C58.8669 69.421 58.7116 69.5534 58.5533 69.68C58.5504 69.7059 58.5504 69.7289 58.5476 69.749C58.5365 69.777 58.523 69.8039 58.5073 69.8296C58.3462 70.1202 58.1649 69.9619 58.0959 69.7203C58.0901 69.7116 58.0815 69.703 58.0757 69.6944C57.8458 69.4569 57.6458 69.1921 57.4801 68.906C56.2918 66.8459 58.2052 65.4448 58.1102 69.2916C58.0927 69.3268 58.0811 69.3647 58.0757 69.4038C58.0593 69.4975 58.0633 69.5936 58.0872 69.6857L58.0959 69.7203C58.1534 69.7807 58.2138 69.8382 58.2771 69.8987C58.3347 69.8555 58.3893 69.8095 58.4469 69.7663C58.4814 69.7375 58.5159 69.7087 58.5533 69.68C58.5591 69.6052 58.5677 69.5189 58.5763 69.4239V69.421C58.6512 68.6499 58.8555 67.2631 59.2324 66.8862C60.061 66.2504 61.1342 66.938 60.3458 67.876ZM58.5735 69.4239C58.5188 69.4469 58.4641 69.4699 58.4152 69.4958H58.4123C58.3663 69.5189 58.3203 69.5419 58.2742 69.5678C58.2685 69.5706 58.2656 69.5735 58.2599 69.5764C58.1994 69.5189 58.139 69.4613 58.0757 69.4038C58.0593 69.4975 58.0633 69.5936 58.0872 69.6857L58.0959 69.7203C58.1534 69.7807 58.2138 69.8382 58.2771 69.8987C58.3347 69.8555 58.3893 69.8095 58.4469 69.7663C58.4814 69.7375 58.5159 69.7087 58.5533 69.68C58.5591 69.6052 58.5677 69.5189 58.5763 69.4239L58.5735 69.4239Z" fill="#002766"/>
<path d="M127.946 126.067L125.174 133.296L112.17 158.947L123.596 188.786L129.493 187.229L124.633 158.947L138.577 142.004L155.137 153.235C155.137 153.235 162.482 158.969 165.276 153.534C168.07 148.098 186.149 136.537 186.149 136.537L181.676 131.766L160.857 141.509L146.488 121.283L127.946 126.067Z" fill="#002766"/>
<path d="M141.933 91.9686L137.37 87.0661L129.542 85.9893L119.951 92.7036L120.048 100.135L124.789 117.648C124.789 117.648 122.983 130.23 128.027 130.104C133.072 129.977 135.821 127.463 137.875 127.974C139.93 128.486 148.663 130.665 149.217 128.383C149.77 126.101 152.712 127.735 152.583 125.576C152.454 123.417 144.619 107.856 144.619 107.856L146.567 92.2924L141.933 91.9686Z" fill="#2DC071"/>
<path d="M170.824 69.401C170.865 69.8076 170.816 70.2181 170.681 70.6038C170.546 70.9895 170.328 71.3408 170.043 71.6332C169.757 71.9255 169.411 72.1517 169.029 72.2958C168.647 72.4399 168.237 72.4984 167.83 72.4672L157.336 92.424L154.519 88.0992L165.245 69.2643C165.343 68.5833 165.687 67.9618 166.212 67.5177C166.737 67.0735 167.408 66.8375 168.095 66.8544C168.783 66.8712 169.441 67.1398 169.944 67.6091C170.447 68.0785 170.76 68.716 170.824 69.401Z" fill="#FFB6B6"/>
<path d="M137.79 95.679C137.79 95.679 137.374 99.2288 141.37 100.108C145.366 100.986 156.438 94.66 158.253 93.6937C158.822 93.3911 159.593 91.908 160.384 90.0134C160.74 89.1628 161.099 88.2292 161.446 87.2824C161.646 86.7344 162.607 86.5848 162.797 86.0414C162.985 85.501 162.401 84.5666 162.571 84.0572C163.38 81.6396 163.953 79.7216 163.953 79.7216L161.304 74.7461C157.599 76.7045 155.699 81.0184 154.302 85.9883L137.79 95.679Z" fill="#2DC071"/>
<path d="M91.1171 73.9836C91.1794 74.3874 91.3294 74.7727 91.5566 75.1123C91.7838 75.4519 92.0828 75.7376 92.4323 75.9492C92.7819 76.1607 93.1736 76.2931 93.5799 76.3369C93.9861 76.3807 94.397 76.335 94.7837 76.2028L109.938 92.8985L111.583 88.0062L96.4849 72.4548C96.2198 71.82 95.7311 71.3045 95.1113 71.0059C94.4915 70.7074 93.7837 70.6466 93.122 70.835C92.4604 71.0234 91.8908 71.448 91.5213 72.0283C91.1518 72.6086 91.008 73.3043 91.1171 73.9836Z" fill="#FFB6B6"/>
<path d="M129.677 91.1585C129.677 91.1585 130.968 94.4913 127.319 96.3423C123.67 98.1933 111.367 94.8389 109.368 94.3577C108.742 94.2069 107.624 92.964 106.383 91.3277C105.827 90.5931 105.245 89.7792 104.672 88.9492C104.341 88.4689 103.373 88.5646 103.054 88.0858C102.736 87.6097 103.068 86.5589 102.775 86.1084C101.388 83.97 100.353 82.2564 100.353 82.2564L101.672 76.7764C105.749 77.7454 108.668 81.4465 111.265 85.9085L129.677 91.1585Z" fill="#2DC071"/>
<path d="M133.612 84.7419C137.725 84.7419 141.059 81.4075 141.059 77.2943C141.059 73.1811 137.725 69.8467 133.612 69.8467C129.498 69.8467 126.164 73.1811 126.164 77.2943C126.164 81.4075 129.498 84.7419 133.612 84.7419Z" fill="#FFB6B6"/>
<path d="M142.113 73.0299C141.33 71.8179 139.86 71.0101 138.435 71.2371C138.302 70.3276 137.922 69.4719 137.337 68.7632C136.752 68.0545 135.983 67.5199 135.115 67.2177C134.247 66.9155 133.313 66.8573 132.414 67.0494C131.515 67.2414 130.686 67.6764 130.017 68.307C129.797 68.1521 129.541 68.0567 129.274 68.0299C129.006 68.0031 128.736 68.0459 128.49 68.1541C127.999 68.3771 127.572 68.7196 127.248 69.1503C126.431 70.1701 125.905 71.3926 125.727 72.6877C125.548 73.9827 125.725 75.3018 126.237 76.5046C126.063 75.8714 126.697 75.2757 127.338 75.1336C127.98 74.9915 128.652 75.1259 129.302 75.0334C130.136 74.9148 130.885 74.4314 131.719 74.3226C132.427 74.2766 133.137 74.3678 133.81 74.5913C134.483 74.8148 135.192 74.91 135.9 74.872C136.603 74.7886 137.508 77.4507 137.495 79.3257C137.493 79.6811 137.566 80.1373 137.914 80.2127C138.341 80.3055 138.589 79.7153 138.996 79.5545C139.184 79.5007 139.385 79.5219 139.557 79.6135C139.729 79.7051 139.859 79.86 139.92 80.0456C139.971 80.2343 139.976 80.4325 139.936 80.6237C139.895 80.815 139.809 80.9937 139.685 81.145C139.435 81.4451 139.138 81.7027 138.806 81.908L138.973 82.0475C139.132 82.2156 139.345 82.3232 139.575 82.3517C139.805 82.3802 140.037 82.328 140.232 82.2039C140.617 81.9436 140.928 81.5892 141.137 81.1745C141.922 79.9596 142.484 78.6138 142.795 77.2009C143.057 75.7818 142.897 74.2419 142.113 73.0299Z" fill="#002766"/>
<path d="M197.211 102.403C187.604 109.679 168.49 107.38 162.559 119.843C144.599 157.578 129.235 128.833 113.51 125.725L113.365 124.954C129.107 126.26 145.992 124.234 162.194 119.095C176.837 114.452 189.9 107.545 199.973 99.1279L200.5 99.7867C199.437 100.676 198.34 101.548 197.211 102.403Z" fill="#F2F2F2"/>
<path d="M156.595 201.235C156.366 201.912 25.7371 201.912 25.4902 201.236C25.7187 200.557 156.348 200.557 156.595 201.235Z" fill="#CCCCCC"/>
</g>
<defs>
<clipPath id="clip0_39918_115568">
<rect width="200" height="201.488" fill="white" transform="translate(0.5 0.255859)"/>
</clipPath>
</defs>
</svg>
