<svg width="16" height="16" viewBox="0 0 16 16" fill="none" xmlns="http://www.w3.org/2000/svg">
<path d="M9.21191 10.9971C9.18255 10.968 9.14289 10.9517 9.10156 10.9517C9.06024 10.9517 9.02058 10.968 8.99121 10.9971L6.72168 13.2666C5.6709 14.3174 3.89746 14.4287 2.7373 13.2666C1.5752 12.1045 1.68652 10.333 2.7373 9.28223L5.00684 7.0127C5.06738 6.95215 5.06738 6.85254 5.00684 6.79199L4.22949 6.01465C4.20013 5.98557 4.16047 5.96926 4.11914 5.96926C4.07781 5.96926 4.03816 5.98557 4.00879 6.01465L1.73926 8.28418C0.086914 9.93652 0.086914 12.6104 1.73926 14.2607C3.3916 15.9111 6.06543 15.9131 7.71582 14.2607L9.98535 11.9912C10.0459 11.9307 10.0459 11.8311 9.98535 11.7705L9.21191 10.9971ZM14.2627 1.73926C12.6104 0.086914 9.93652 0.086914 8.28613 1.73926L6.01465 4.00879C5.98557 4.03816 5.96926 4.07781 5.96926 4.11914C5.96926 4.16047 5.98557 4.20013 6.01465 4.22949L6.79004 5.00488C6.85059 5.06543 6.9502 5.06543 7.01074 5.00488L9.28027 2.73535C10.3311 1.68457 12.1045 1.57324 13.2646 2.73535C14.4268 3.89746 14.3154 5.66895 13.2646 6.71973L10.9951 8.98926C10.966 9.01863 10.9497 9.05828 10.9497 9.09961C10.9497 9.14094 10.966 9.1806 10.9951 9.20996L11.7725 9.98731C11.833 10.0479 11.9326 10.0479 11.9932 9.98731L14.2627 7.71777C15.9131 6.06543 15.9131 3.3916 14.2627 1.73926ZM9.91699 5.27246C9.88763 5.24338 9.84797 5.22707 9.80664 5.22707C9.76531 5.22707 9.72566 5.24338 9.69629 5.27246L5.27246 9.69434C5.24338 9.7237 5.22707 9.76336 5.22707 9.80469C5.22707 9.84602 5.24338 9.88567 5.27246 9.91504L6.0459 10.6885C6.10645 10.749 6.20606 10.749 6.2666 10.6885L10.6885 6.2666C10.749 6.20606 10.749 6.10645 10.6885 6.0459L9.91699 5.27246Z" fill="#8C8C8C"/>
</svg>
