<svg width="15" height="14" viewBox="0 0 15 14" fill="none" xmlns="http://www.w3.org/2000/svg">
<path d="M10.366 7.66732C10.866 7.66732 11.306 7.39398 11.5327 6.98065L13.9193 2.65398C14.166 2.21398 13.846 1.66732 13.3393 1.66732H3.47268L2.84602 0.333984H0.666016V1.66732H1.99935L4.39935 6.72732L3.49935 8.35398C3.01268 9.24732 3.65268 10.334 4.66602 10.334H12.666V9.00065H4.66602L5.39935 7.66732H10.366ZM4.10602 3.00065H12.206L10.366 6.33398H5.68602L4.10602 3.00065ZM4.66602 11.0007C3.93268 11.0007 3.33935 11.6007 3.33935 12.334C3.33935 13.0673 3.93268 13.6673 4.66602 13.6673C5.39935 13.6673 5.99935 13.0673 5.99935 12.334C5.99935 11.6007 5.39935 11.0007 4.66602 11.0007ZM11.3327 11.0007C10.5993 11.0007 10.006 11.6007 10.006 12.334C10.006 13.0673 10.5993 13.6673 11.3327 13.6673C12.066 13.6673 12.666 13.0673 12.666 12.334C12.666 11.6007 12.066 11.0007 11.3327 11.0007Z" fill="#8C8C8C"/>
</svg>
