<svg width="48" height="48" viewBox="0 0 48 48" fill="none" xmlns="http://www.w3.org/2000/svg">
<rect width="48" height="48" rx="8" fill="#595959"/>
<path d="M24.0001 36.582C23.8258 36.582 23.6503 36.54 23.4892 36.4573C21.6881 35.5178 19.6867 35.0272 17.6553 35.0272C15.6239 35.0272 13.6225 35.5178 11.8214 36.4573C11.6531 36.5445 11.4651 36.587 11.2757 36.5806C11.0862 36.5743 10.9016 36.5193 10.7395 36.421C10.5774 36.3228 10.4432 36.1845 10.35 36.0194C10.2568 35.8543 10.2075 35.6681 10.207 35.4785V14.513C10.207 14.335 10.2501 14.1597 10.3325 14.0019C10.4149 13.8442 10.5343 13.7087 10.6804 13.6071C14.8525 10.7039 20.4581 10.7039 24.6313 13.6071C24.927 13.8134 25.1036 14.1522 25.1036 14.513V35.4785C25.1036 35.7712 24.9873 36.0518 24.7804 36.2588C24.5735 36.4657 24.2928 36.582 24.0001 36.582ZM17.6553 32.8203C19.4319 32.8203 21.2095 33.1392 22.8967 33.777V15.1089C21.3181 14.1455 19.5046 13.6358 17.6553 13.6358C15.806 13.6358 13.9925 14.1455 12.4139 15.1089V33.777C14.0889 33.1442 15.8647 32.8201 17.6553 32.8203Z" fill="white"/>
<path d="M36.6915 36.582C36.5172 36.582 36.3417 36.54 36.1806 36.4573C34.3795 35.5178 32.3781 35.0272 30.3467 35.0272C28.3153 35.0272 26.3139 35.5178 24.5128 36.4573C24.3445 36.5445 24.1566 36.587 23.9671 36.5806C23.7776 36.5743 23.593 36.5193 23.4309 36.421C23.2688 36.3228 23.1347 36.1845 23.0414 36.0194C22.9482 35.8543 22.8989 35.6681 22.8984 35.4785V14.513C22.8984 14.335 22.9415 14.1597 23.0239 14.0019C23.1063 13.8442 23.2257 13.7087 23.3718 13.6071C27.544 10.7039 33.1495 10.7039 37.3227 13.6071C37.6184 13.8134 37.795 14.1522 37.795 14.513V35.4785C37.795 35.7712 37.6787 36.0518 37.4718 36.2588C37.2649 36.4657 36.9842 36.582 36.6915 36.582ZM30.3467 32.8203C32.1233 32.8203 33.9009 33.1392 35.5881 33.777V15.1089C34.0095 14.1455 32.196 13.6358 30.3467 13.6358C28.4974 13.6358 26.6839 14.1455 25.1053 15.1089V33.777C26.7804 33.1442 28.5562 32.8201 30.3467 32.8203Z" fill="white"/>
</svg>
