<svg width="389" height="314" viewBox="0 0 389 314" fill="none" xmlns="http://www.w3.org/2000/svg">
<circle cx="194" cy="140" r="140" fill="#F5F5F5"/>
<g clip-path="url(#clip0)">
<path d="M372.213 276.489C370.671 264.09 362.987 251.873 351.161 247.838C355.825 260.6 355.824 274.601 351.158 287.363C349.341 292.278 346.809 297.556 348.518 302.509C349.581 305.592 352.183 307.95 355.091 309.425C357.999 310.899 361.227 311.602 364.414 312.291L365.041 312.809C370.101 301.385 373.755 288.889 372.213 276.489Z" fill="#F0F0F0"/>
<path d="M351.044 248.074C357.931 255.79 362.211 265.479 363.277 275.767C363.546 277.977 363.464 280.216 363.036 282.401C362.55 284.517 361.506 286.463 360.013 288.038C358.651 289.535 357.084 290.909 356.109 292.71C355.624 293.64 355.34 294.662 355.278 295.709C355.215 296.756 355.375 297.804 355.745 298.785C356.606 301.254 358.302 303.266 360.03 305.176C361.947 307.296 363.973 309.469 364.788 312.28C364.887 312.621 365.41 312.448 365.311 312.107C363.893 307.216 359.144 304.438 356.88 300.032C355.823 297.977 355.38 295.59 356.371 293.42C357.237 291.522 358.851 290.105 360.244 288.601C361.723 287.086 362.808 285.231 363.405 283.199C363.943 281.043 364.111 278.811 363.9 276.598C363.505 271.61 362.329 266.714 360.413 262.091C358.257 256.803 355.211 251.922 351.409 247.661C351.173 247.397 350.81 247.812 351.044 248.074H351.044Z" fill="white"/>
<path d="M363.128 272.432C364.829 272.019 366.329 271.015 367.358 269.598C368.387 268.182 368.88 266.445 368.747 264.699C368.719 264.346 368.169 264.373 368.197 264.726C368.323 266.352 367.865 267.97 366.903 269.287C365.942 270.604 364.542 271.534 362.955 271.91C362.61 271.991 362.785 272.514 363.128 272.432Z" fill="white"/>
<path d="M360.804 287.37C357.73 285.535 355.461 282.608 354.45 279.175C354.35 278.835 353.827 279.008 353.927 279.347C354.986 282.919 357.354 285.959 360.556 287.862C360.861 288.043 361.107 287.55 360.804 287.37Z" fill="white"/>
<path d="M357.745 257.324C357.12 257.621 356.431 257.758 355.74 257.723C355.049 257.688 354.377 257.482 353.785 257.123C353.482 256.938 353.236 257.431 353.537 257.615C354.193 258.008 354.935 258.235 355.699 258.275C356.462 258.316 357.224 258.169 357.918 257.847C357.986 257.822 358.042 257.772 358.074 257.708C358.107 257.643 358.113 257.568 358.093 257.499C358.07 257.43 358.02 257.373 357.955 257.34C357.89 257.307 357.815 257.301 357.745 257.324Z" fill="white"/>
<path d="M315.117 269.986C315.303 270.107 315.489 270.228 315.675 270.354C318.165 271.991 320.519 273.828 322.712 275.847C322.884 276.001 323.056 276.159 323.223 276.317C328.454 281.237 332.727 287.085 335.823 293.565C337.053 296.144 338.084 298.813 338.909 301.549C340.048 305.328 340.982 309.516 343.236 312.606C343.468 312.932 343.719 313.242 343.989 313.536H364.36C364.407 313.513 364.453 313.494 364.5 313.471L365.313 313.508C365.28 313.364 365.243 313.215 365.211 313.071C365.192 312.988 365.169 312.904 365.15 312.82C365.137 312.764 365.123 312.709 365.113 312.658C365.109 312.639 365.104 312.62 365.099 312.606C365.09 312.555 365.076 312.509 365.067 312.462C364.862 311.63 364.652 310.798 364.435 309.967C364.435 309.962 364.435 309.962 364.43 309.957C362.761 303.622 360.549 297.371 357.458 291.654C357.365 291.482 357.273 291.306 357.17 291.134C355.763 288.565 354.148 286.115 352.341 283.809C351.348 282.549 350.291 281.341 349.176 280.188C346.288 277.215 342.95 274.715 339.286 272.78C331.979 268.922 323.52 267.444 315.712 269.8C315.512 269.861 315.317 269.921 315.117 269.986Z" fill="#F0F0F0"/>
<path d="M315.163 270.245C325.307 272.259 334.558 277.419 341.603 284.991C343.148 286.594 344.432 288.431 345.405 290.434C346.29 292.415 346.629 294.598 346.385 296.754C346.199 298.77 345.775 300.81 346.081 302.835C346.254 303.87 346.643 304.856 347.223 305.73C347.803 306.604 348.562 307.345 349.449 307.905C351.622 309.358 354.188 309.943 356.717 310.428C359.525 310.966 362.45 311.481 364.793 313.235C365.077 313.448 365.39 312.995 365.107 312.783C361.029 309.731 355.566 310.371 351.105 308.217C349.024 307.212 347.233 305.573 346.717 303.244C346.266 301.208 346.702 299.104 346.909 297.065C347.177 294.964 346.927 292.83 346.18 290.849C345.312 288.803 344.102 286.92 342.601 285.28C339.283 281.535 335.396 278.334 331.083 275.796C326.177 272.872 320.807 270.809 315.205 269.695C314.858 269.627 314.818 270.176 315.163 270.245Z" fill="white"/>
<path d="M339.477 282.42C340.587 281.065 341.18 279.36 341.149 277.61C341.118 275.859 340.465 274.176 339.308 272.862C339.073 272.596 338.65 272.949 338.885 273.215C339.965 274.437 340.573 276.004 340.598 277.635C340.624 279.265 340.066 280.851 339.025 282.106C338.799 282.379 339.253 282.691 339.477 282.42H339.477Z" fill="white"/>
<path d="M346.615 295.745C343.056 296.13 339.482 295.16 336.607 293.028C336.323 292.816 336.009 293.269 336.294 293.48C339.29 295.694 343.01 296.696 346.713 296.287C347.066 296.248 346.966 295.706 346.615 295.745Z" fill="white"/>
<path d="M326.083 273.595C325.763 274.208 325.295 274.733 324.722 275.121C324.149 275.509 323.489 275.749 322.8 275.818C322.447 275.853 322.548 276.395 322.899 276.36C323.659 276.28 324.388 276.014 325.022 275.586C325.656 275.159 326.176 274.583 326.536 273.908C326.575 273.847 326.59 273.774 326.577 273.703C326.564 273.632 326.524 273.568 326.466 273.525C326.406 273.484 326.332 273.468 326.26 273.481C326.189 273.494 326.125 273.535 326.083 273.595Z" fill="white"/>
<path d="M282.314 58.6096L39.197 14.0672C38.702 13.972 38.193 13.978 37.7004 14.0848C37.2536 14.1827 36.8342 14.3786 36.4725 14.6584C36.1188 14.9342 35.8343 15.2886 35.6414 15.6934C35.4362 16.1307 35.3319 16.6085 35.3361 17.0915V234.897C35.3316 235.38 35.4356 235.858 35.6405 236.296C35.8331 236.701 36.1173 237.055 36.4706 237.331C36.8321 237.611 37.2514 237.807 37.6981 237.906C38.1906 238.013 38.6996 238.019 39.1947 237.924L282.314 193.381C282.516 193.34 282.703 193.245 282.855 193.107C283.033 192.948 283.182 192.759 283.295 192.549C283.427 192.31 283.526 192.054 283.591 191.788C283.663 191.5 283.7 191.203 283.7 190.905V61.0929C283.7 60.7945 283.664 60.4971 283.592 60.2075C283.527 59.9419 283.427 59.686 283.296 59.4462C283.182 59.2362 283.033 59.0475 282.855 58.8885C282.703 58.7503 282.516 58.6555 282.315 58.6138L282.314 58.6096Z" fill="#E4E4E4"/>
<path d="M286.033 58.6096L42.9157 14.0672C42.4208 13.972 41.9117 13.978 41.4191 14.0848C40.9724 14.1827 40.553 14.3786 40.1912 14.6584C39.8376 14.9342 39.5531 15.2886 39.3602 15.6934C39.155 16.1307 39.0506 16.6085 39.0548 17.0915V234.897C39.0503 235.38 39.1543 235.858 39.3593 236.296C39.5518 236.701 39.836 237.055 40.1893 237.331C40.5509 237.611 40.9701 237.807 41.4168 237.906C41.9093 238.013 42.4184 238.019 42.9134 237.924L286.033 193.381C286.235 193.34 286.421 193.245 286.574 193.107C286.752 192.948 286.901 192.759 287.014 192.549C287.145 192.31 287.245 192.054 287.31 191.788C287.382 191.5 287.418 191.203 287.419 190.905V61.0929C287.419 60.7945 287.382 60.4971 287.31 60.2075C287.245 59.9419 287.146 59.686 287.014 59.4462C286.901 59.2362 286.752 59.0475 286.574 58.8885C286.422 58.7503 286.235 58.6555 286.034 58.6138L286.033 58.6096Z" fill="white"/>
<path d="M286.033 58.6096L42.9157 14.0672C42.4208 13.972 41.9117 13.978 41.4191 14.0848C40.9724 14.1827 40.553 14.3786 40.1912 14.6584C39.8376 14.9342 39.5531 15.2886 39.3602 15.6934C39.155 16.1307 39.0506 16.6085 39.0548 17.0915V234.897C39.0503 235.38 39.1543 235.858 39.3593 236.296C39.5518 236.701 39.836 237.055 40.1893 237.331C40.5509 237.611 40.9701 237.807 41.4168 237.906C41.9093 238.013 42.4184 238.019 42.9134 237.924L286.033 193.381C286.235 193.34 286.421 193.245 286.574 193.107C286.752 192.948 286.901 192.759 287.014 192.549C287.145 192.31 287.245 192.054 287.31 191.788C287.382 191.5 287.418 191.203 287.419 190.905V61.0929C287.419 60.7945 287.382 60.4971 287.31 60.2075C287.245 59.9419 287.146 59.686 287.014 59.4462C286.901 59.2362 286.752 59.0475 286.574 58.8885C286.422 58.7503 286.235 58.6555 286.034 58.6138L286.033 58.6096ZM286.958 190.984C286.958 191.183 286.934 191.382 286.886 191.575C286.842 191.752 286.776 191.923 286.688 192.083C286.612 192.223 286.513 192.349 286.394 192.455C286.293 192.547 286.168 192.61 286.034 192.637L42.9181 236.686C42.5882 236.748 42.2491 236.744 41.9211 236.672C41.6239 236.606 41.345 236.475 41.1045 236.288C40.8695 236.104 40.6804 235.868 40.5523 235.598C40.4162 235.308 40.347 234.99 40.3497 234.669V17.3229C40.3469 17.0019 40.416 16.6843 40.5519 16.3934C40.6797 16.1235 40.8686 15.887 41.1036 15.7027C41.3438 15.5159 41.6226 15.3848 41.9197 15.3188C42.2476 15.2467 42.5868 15.2418 42.9167 15.3044L286.034 59.3542C286.168 59.3816 286.293 59.4445 286.394 59.5364C286.513 59.6423 286.612 59.7682 286.688 59.9082C286.776 60.068 286.842 60.2386 286.886 60.4157C286.934 60.6091 286.959 60.8077 286.958 61.0069V190.983L286.958 190.984Z" fill="#CACACA"/>
<path d="M0.000314827 81.9824C-0.0113806 80.4965 0.30291 79.0261 0.921041 77.6748C1.49874 76.4265 2.35249 75.3258 3.41782 74.4558C4.49021 73.5859 5.74217 72.9648 7.08352 72.6371C8.53473 72.287 10.0428 72.2416 11.5124 72.5037C13.0538 72.7721 14.5329 73.3211 15.8762 74.1235C17.2032 74.9131 18.3911 75.9158 19.3922 77.0915C20.3849 78.2505 21.1781 79.5664 21.7394 80.9854C22.2987 82.3936 22.5891 83.8941 22.5955 85.4092C22.6059 86.8421 22.3142 88.2611 21.7394 89.5736C21.1995 90.7934 20.3982 91.8796 19.3922 92.7555C18.3726 93.6377 17.1726 94.2868 15.8762 94.6574C14.4579 95.0578 12.9718 95.1588 11.5124 94.9539C9.95779 94.7397 8.45668 94.2379 7.08585 93.474C5.70858 92.7098 4.46982 91.7192 3.42154 90.5436C2.36883 89.3704 1.52426 88.026 0.924289 86.5684C0.322697 85.1138 0.0089152 83.5564 0.000314827 81.9824Z" fill="#E4E4E4"/>
<path d="M0.000314827 127.066C-0.0113806 125.58 0.30291 124.11 0.921041 122.759C1.49874 121.511 2.35249 120.41 3.41782 119.54C4.49021 118.67 5.74217 118.049 7.08352 117.721C8.53473 117.371 10.0428 117.326 11.5124 117.588C13.0538 117.856 14.5329 118.405 15.8762 119.207C17.2032 119.997 18.3911 121 19.3922 122.176C20.3849 123.334 21.1781 124.65 21.7394 126.069C22.2987 127.478 22.5891 128.978 22.5955 130.493C22.6059 131.926 22.3142 133.345 21.7394 134.658C21.1995 135.877 20.3982 136.964 19.3922 137.839C18.3726 138.722 17.1726 139.371 15.8762 139.741C14.4579 140.142 12.9718 140.243 11.5124 140.038C9.95779 139.824 8.45668 139.322 7.08585 138.558C5.70858 137.794 4.46982 136.803 3.42154 135.628C2.36883 134.454 1.52426 133.11 0.924289 131.652C0.322697 130.198 0.0089152 128.64 0.000314827 127.066Z" fill="#E4E4E4"/>
<path d="M0.000314827 172.148C-0.0113806 170.662 0.30291 169.192 0.921041 167.841C1.49874 166.593 2.35249 165.492 3.41782 164.622C4.49021 163.752 5.74217 163.131 7.08352 162.803C8.53473 162.453 10.0428 162.408 11.5124 162.67C13.0538 162.938 14.5329 163.487 15.8762 164.289C17.2032 165.079 18.3911 166.082 19.3922 167.258C20.3849 168.417 21.1781 169.732 21.7394 171.151C22.2987 172.56 22.5891 174.06 22.5955 175.575C22.6059 177.008 22.3142 178.427 21.7394 179.74C21.1995 180.959 20.3982 182.046 19.3922 182.921C18.3726 183.804 17.1726 184.453 15.8762 184.823C14.4579 185.224 12.9718 185.325 11.5124 185.12C9.95779 184.906 8.45668 184.404 7.08585 183.64C5.70858 182.876 4.46982 181.885 3.42154 180.71C2.36883 179.536 1.52426 178.192 0.924289 176.734C0.322697 175.28 0.0089152 173.722 0.000314827 172.148Z" fill="#E4E4E4"/>
<path d="M2.78938 81.9824C2.77768 80.4965 3.09197 79.0261 3.7101 77.6748C4.2878 76.4265 5.14155 75.3258 6.20689 74.4558C7.27927 73.5859 8.53123 72.9648 9.87259 72.6371C11.3238 72.287 12.8318 72.2416 14.3015 72.5037C15.8429 72.7721 17.322 73.3211 18.6653 74.1235C19.9923 74.9131 21.1802 75.9158 22.1813 77.0915C23.174 78.2505 23.9672 79.5664 24.5284 80.9854C25.0878 82.3936 25.3782 83.8941 25.3846 85.4092C25.395 86.8421 25.1033 88.2611 24.5284 89.5736C23.9886 90.7934 23.1873 91.8796 22.1813 92.7555C21.1616 93.6377 19.9617 94.2868 18.6653 94.6574C17.247 95.0578 15.7609 95.1588 14.3015 94.9539C12.7469 94.7397 11.2457 94.2379 9.87491 93.474C8.49764 92.7098 7.25888 91.7192 6.2106 90.5436C5.15789 89.3704 4.31332 88.026 3.71335 86.5684C3.11176 85.1138 2.79798 83.5564 2.78938 81.9824Z" fill="#0072EF"/>
<path d="M2.78918 126.758C2.78207 125.25 3.09593 123.758 3.70991 122.381C4.29295 121.084 5.14383 119.924 6.20669 118.979C7.26981 118.034 8.51831 117.322 9.87239 116.887C11.3016 116.433 12.809 116.276 14.3013 116.427C15.8254 116.576 17.3068 117.016 18.6651 117.724C19.9877 118.412 21.1781 119.329 22.1811 120.432C23.1773 121.523 23.972 122.782 24.5282 124.151C25.0917 125.537 25.3822 127.019 25.3839 128.516C25.3903 129.97 25.0989 131.409 24.5278 132.746C23.9801 134.018 23.1771 135.163 22.1686 136.112C21.1601 137.061 19.9675 137.793 18.6646 138.263C17.2675 138.765 15.7824 138.975 14.3008 138.881C12.7646 138.787 11.2614 138.395 9.87426 137.729C7.10501 136.397 4.91513 134.103 3.71362 131.275C3.10808 129.846 2.7938 128.31 2.78918 126.758Z" fill="#0072EF"/>
<path d="M2.78907 171.535C2.78717 170.035 3.08897 168.55 3.67631 167.169C4.26365 165.789 5.12436 164.542 6.20658 163.503C7.53737 162.229 9.15838 161.298 10.9296 160.79C12.7007 160.283 14.5688 160.214 16.3724 160.591C18.176 160.967 19.8609 161.777 21.2814 162.95C22.702 164.123 23.8155 165.625 24.5258 167.325C25.224 169.017 25.4971 170.854 25.3214 172.675C25.1456 174.497 24.5263 176.248 23.5176 177.775C22.5088 179.302 21.1414 180.559 19.5348 181.436C17.9281 182.312 16.1312 182.782 14.3012 182.804C12.0607 182.837 9.86046 182.207 7.97677 180.993C6.09309 179.78 4.60993 178.037 3.71351 175.983C3.10382 174.579 2.78916 173.065 2.78907 171.535Z" fill="#0072EF"/>
<path d="M9.81089 81.9309L13.1861 82.4496V79.1218C13.1845 78.9778 13.214 78.8351 13.2726 78.7035C13.3273 78.5819 13.4088 78.4742 13.511 78.3884C13.6142 78.3024 13.7351 78.2403 13.8652 78.2066C14.0068 78.1704 14.1545 78.1641 14.2988 78.1881C14.4516 78.2127 14.5986 78.2654 14.7324 78.3433C14.8658 78.4207 14.9855 78.5196 15.0866 78.6361C15.1875 78.7515 15.2684 78.883 15.3259 79.0251C15.3833 79.1661 15.4135 79.3167 15.4147 79.469V82.7921L18.7258 83.3001C18.8762 83.3239 19.0209 83.3754 19.1525 83.4521C19.4163 83.6053 19.6214 83.8421 19.7353 84.1251C19.7915 84.2651 19.8206 84.4144 19.8213 84.5652C19.8224 84.7078 19.793 84.849 19.7353 84.9794C19.6819 85.0997 19.6026 85.2067 19.5029 85.2926C19.4017 85.3785 19.2829 85.4411 19.1548 85.4758C19.0157 85.5129 18.8703 85.5205 18.7281 85.4981L15.4124 85.0021V88.3179C15.4135 88.4619 15.3837 88.6046 15.325 88.7362C15.2701 88.8583 15.1888 88.9667 15.0871 89.0536C14.9842 89.1405 14.8637 89.204 14.7338 89.2395C14.5927 89.2777 14.4452 89.2863 14.3006 89.2646C14.148 89.2424 14.0008 89.192 13.8665 89.1159C13.733 89.0404 13.6132 88.943 13.5119 88.8277C13.4108 88.7133 13.3299 88.5826 13.2726 88.441C13.2156 88.2997 13.1862 88.1487 13.1861 87.9962V84.6684L9.81089 84.1618C9.65583 84.138 9.50647 84.0859 9.37029 84.008C9.23478 83.9309 9.11305 83.8318 9.01009 83.7147C8.90774 83.5995 8.82556 83.4678 8.767 83.3252C8.70864 83.1825 8.67835 83.03 8.67776 82.8758C8.67665 82.7305 8.7071 82.5866 8.767 82.4542C8.82321 82.3314 8.90628 82.2228 9.01009 82.1363C9.11506 82.0487 9.23803 81.9852 9.37029 81.9504C9.51425 81.9137 9.66424 81.907 9.81089 81.9309Z" fill="white"/>
<path d="M12.1797 130.627L21.5524 131.306H21.5868L17.1914 123.326C17.1641 123.276 17.125 123.233 17.0775 123.202C17.0542 123.186 17.0291 123.173 17.0027 123.164C16.9762 123.154 16.9485 123.148 16.9204 123.146C16.8931 123.143 16.8656 123.145 16.8386 123.149C16.8126 123.154 16.7875 123.163 16.7638 123.175C16.7165 123.198 16.6769 123.235 16.6499 123.28L13.6591 128.197L13.515 128.433L12.1797 130.627Z" fill="white"/>
<path d="M6.83203 130.239L15.1014 130.839L13.5165 128.433L13.4021 128.259L11.3236 125.104C11.2868 125.055 11.2409 125.014 11.1884 124.982C11.1629 124.967 11.136 124.954 11.108 124.944C11.0791 124.934 11.0492 124.926 11.0188 124.922C10.9894 124.918 10.9596 124.917 10.93 124.919C10.9012 124.921 10.8727 124.926 10.8449 124.934C10.8176 124.942 10.7913 124.953 10.7664 124.966C10.7413 124.98 10.7179 124.997 10.6967 125.016L10.6897 125.024L10.6809 125.032L10.6739 125.041L10.6669 125.05L6.83203 130.239Z" fill="white"/>
<path d="M13.0855 122.013C13.2761 122.03 13.4618 122.083 13.6325 122.169C13.7998 122.255 13.9507 122.369 14.0782 122.506C14.2054 122.643 14.3071 122.802 14.3785 122.975C14.4508 123.15 14.4882 123.337 14.4886 123.526C14.4895 123.709 14.4519 123.891 14.3785 124.059C14.3087 124.218 14.2064 124.36 14.0782 124.477C13.9494 124.594 13.7976 124.683 13.6325 124.739C13.4565 124.797 13.2703 124.819 13.0855 124.803C12.8946 124.787 12.7085 124.735 12.5375 124.649C12.3694 124.564 12.2176 124.45 12.0894 124.312C11.9613 124.175 11.8588 124.016 11.7869 123.843C11.7139 123.667 11.6761 123.479 11.6758 123.289C11.675 123.105 11.7128 122.923 11.7869 122.754C11.8573 122.595 11.9604 122.452 12.0894 122.336C12.2192 122.219 12.3718 122.131 12.5375 122.076C12.7139 122.018 12.9004 121.997 13.0855 122.013Z" fill="white"/>
<path d="M114.225 153.825L207.031 65.7695L207.429 66.4667L114.805 154.57L114.225 153.825Z" fill="#E6E6E6"/>
<path d="M114.24 54.0233L114.822 53.3262L207.422 149.454L207.022 150.116L114.24 54.0233Z" fill="#E6E6E6"/>
<path d="M206.094 64.4841L115.881 52.0904C115.464 52.0308 115.039 52.067 114.638 52.1963C114.256 52.3222 113.907 52.5325 113.618 52.8117C113.319 53.1005 113.084 53.4488 112.928 53.8342C112.757 54.2594 112.671 54.7137 112.674 55.1718V152.283C112.673 152.747 112.759 153.207 112.928 153.64C113.086 154.042 113.32 154.409 113.618 154.722C113.905 155.023 114.252 155.26 114.637 155.419C115.031 155.58 115.456 155.651 115.88 155.627L206.094 150.659C206.399 150.639 206.694 150.543 206.952 150.38C207.225 150.207 207.462 149.983 207.649 149.719C207.855 149.431 208.014 149.111 208.118 148.773C208.233 148.405 208.291 148.021 208.291 147.636V67.6846C208.29 67.2944 208.232 66.9065 208.118 66.5333C208.012 66.1831 207.854 65.8509 207.649 65.548C207.462 65.2687 207.225 65.0254 206.952 64.8299C206.697 64.6485 206.403 64.53 206.094 64.4841ZM115.881 154.628C115.578 154.644 115.274 154.593 114.994 154.477C114.719 154.363 114.472 154.193 114.267 153.978C114.054 153.754 113.887 153.491 113.775 153.204C113.654 152.895 113.593 152.567 113.594 152.236V55.2922C113.592 54.9657 113.653 54.642 113.775 54.339C113.886 54.0634 114.053 53.8142 114.267 53.6074C114.473 53.4083 114.721 53.2582 114.994 53.1682C115.28 53.0752 115.583 53.0487 115.881 53.0906L206.094 65.3166C206.315 65.3493 206.525 65.434 206.707 65.5638C206.903 65.7028 207.072 65.876 207.206 66.0751C207.353 66.2915 207.467 66.5289 207.542 66.7792C207.624 67.046 207.666 67.3234 207.666 67.6023V147.668C207.666 147.944 207.625 148.218 207.542 148.482C207.468 148.724 207.354 148.952 207.206 149.158C207.073 149.347 206.903 149.507 206.707 149.63C206.523 149.745 206.312 149.813 206.094 149.826L115.881 154.628Z" fill="#E6E6E6"/>
<path d="M112.892 165.883C112.652 165.909 112.423 165.998 112.228 166.141C112.014 166.298 111.831 166.496 111.69 166.722C111.53 166.975 111.409 167.25 111.331 167.539C111.245 167.855 111.203 168.18 111.207 168.507C111.209 168.82 111.256 169.131 111.347 169.43C111.426 169.694 111.548 169.942 111.709 170.165C111.85 170.361 112.032 170.523 112.242 170.64C112.441 170.749 112.667 170.8 112.893 170.787L270.826 157.709C270.952 157.699 271.07 157.645 271.16 157.556C271.275 157.446 271.368 157.316 271.434 157.171C271.518 156.994 271.581 156.806 271.62 156.614C271.667 156.391 271.691 156.164 271.693 155.936C271.695 155.711 271.675 155.486 271.631 155.265C271.595 155.076 271.535 154.894 271.453 154.721C271.39 154.583 271.299 154.46 271.186 154.359C271.095 154.278 270.976 154.234 270.854 154.236H270.826L112.892 165.883Z" fill="#E6E6E6"/>
<path d="M112.892 180.764C112.651 180.798 112.422 180.893 112.228 181.04C112.014 181.203 111.831 181.404 111.69 181.634C111.531 181.891 111.41 182.169 111.331 182.461C111.245 182.778 111.203 183.106 111.207 183.435C111.209 183.746 111.256 184.056 111.347 184.354C111.425 184.615 111.548 184.86 111.709 185.079C111.849 185.271 112.031 185.428 112.241 185.54C112.442 185.643 112.667 185.688 112.892 185.668L270.826 168.246C270.953 168.231 271.071 168.174 271.16 168.083C271.275 167.97 271.368 167.837 271.434 167.691C271.518 167.51 271.581 167.321 271.62 167.126C271.667 166.902 271.691 166.674 271.693 166.446C271.695 166.221 271.675 165.996 271.631 165.775C271.596 165.589 271.536 165.408 271.453 165.237C271.39 165.102 271.298 164.981 271.185 164.884C271.093 164.805 270.974 164.764 270.853 164.77H270.825L112.892 180.764Z" fill="#E6E6E6"/>
<path d="M112.892 195.406C112.649 195.446 112.421 195.547 112.228 195.7C112.014 195.869 111.831 196.075 111.69 196.309C111.531 196.569 111.41 196.851 111.331 197.145C111.245 197.463 111.203 197.792 111.207 198.122C111.209 198.432 111.256 198.741 111.347 199.037C111.425 199.295 111.547 199.537 111.709 199.752C111.85 199.94 112.032 200.093 112.241 200.198C112.443 200.297 112.669 200.336 112.892 200.309L270.826 178.612C270.954 178.594 271.071 178.534 271.16 178.441C271.275 178.325 271.368 178.19 271.434 178.041C271.518 177.859 271.581 177.667 271.62 177.471C271.667 177.246 271.691 177.018 271.693 176.789C271.695 176.565 271.675 176.341 271.631 176.121C271.596 175.936 271.536 175.756 271.453 175.587C271.39 175.453 271.298 175.335 271.185 175.241C271.092 175.165 270.973 175.127 270.853 175.136H270.825L112.892 195.406Z" fill="#E6E6E6"/>
<path d="M18.806 166.82L9.79026 166.712C9.63992 166.706 9.48983 166.728 9.34685 166.774C9.20864 166.82 9.07924 166.888 8.96434 166.978C8.84984 167.066 8.7517 167.174 8.67433 167.297C8.59504 167.423 8.53913 167.562 8.50932 167.707C8.47959 167.881 8.48864 168.06 8.53582 168.23C8.55937 168.315 8.5921 168.397 8.63343 168.475C8.71766 168.633 8.83551 168.772 8.97875 168.88C9.19356 169.043 9.45518 169.132 9.72472 169.135L12.4362 169.159C12.5641 169.16 12.6889 169.198 12.7954 169.269C12.902 169.34 12.9855 169.44 13.0358 169.558C13.0696 169.637 13.087 169.723 13.0869 169.809V175.128C13.0802 175.422 13.1781 175.708 13.363 175.936C13.5481 176.165 13.8079 176.321 14.0969 176.378C14.3588 176.422 14.6278 176.379 14.8629 176.255C15.0979 176.131 15.286 175.934 15.3983 175.694C15.4722 175.535 15.5106 175.362 15.5107 175.187V169.824C15.5108 169.74 15.5273 169.657 15.5594 169.58C15.5915 169.503 15.6385 169.433 15.6977 169.373C15.7569 169.314 15.8272 169.267 15.9045 169.235C15.9818 169.203 16.0647 169.187 16.1484 169.187L16.1545 169.187L18.7447 169.208C19.0338 169.217 19.3169 169.123 19.5436 168.944C19.7702 168.764 19.9257 168.509 19.9824 168.226C20.0108 168.054 20.0018 167.878 19.956 167.71C19.9101 167.542 19.8286 167.386 19.7169 167.253C19.6052 167.119 19.466 167.011 19.3088 166.937C19.1516 166.862 18.9801 166.822 18.806 166.82Z" fill="white"/>
<path d="M18.8076 173.984C19.0647 173.984 19.3149 174.067 19.5213 174.22C19.7277 174.374 19.8792 174.589 19.9535 174.835C20.0278 175.081 20.0208 175.345 19.9336 175.587C19.8464 175.829 19.6836 176.036 19.4694 176.178C19.2552 176.32 19.0009 176.39 18.7442 176.376C18.4875 176.362 18.242 176.266 18.0441 176.102C17.8462 175.938 17.7064 175.715 17.6455 175.465C17.5845 175.215 17.6056 174.952 17.7056 174.715C17.7967 174.499 17.9499 174.313 18.146 174.183C18.3421 174.053 18.5723 173.984 18.8076 173.984Z" fill="white"/>
<path d="M230.118 103.498C230.076 103.822 230.009 104.143 229.916 104.457L248.71 126.959L255.729 125.75L258.939 136.104L246.721 139.453C245.734 139.723 244.686 139.667 243.734 139.291C242.782 138.915 241.978 138.24 241.442 137.368L223.975 108.952C222.715 108.956 221.483 108.576 220.445 107.862C219.406 107.149 218.609 106.136 218.16 104.959C217.71 103.781 217.63 102.495 217.93 101.271C218.23 100.047 218.895 98.9432 219.837 98.1064C220.779 97.2697 221.954 96.7397 223.205 96.5868C224.456 96.434 225.724 96.6656 226.84 97.2509C227.956 97.8362 228.867 98.7473 229.453 99.8632C230.038 100.979 230.27 102.247 230.118 103.498Z" fill="#FFB6B6"/>
<path d="M249.542 125.705C249.743 125.38 250.011 125.101 250.33 124.889C250.648 124.677 251.008 124.536 251.385 124.476L264.571 122.374C266.436 121.785 268.459 121.96 270.195 122.861C271.931 123.761 273.24 125.313 273.834 127.177C274.427 129.041 274.258 131.064 273.362 132.803C272.466 134.541 270.918 135.854 269.056 136.453L257.009 142.31C256.665 142.477 256.289 142.568 255.907 142.577C255.525 142.586 255.145 142.512 254.794 142.361C254.443 142.21 254.128 141.985 253.872 141.701C253.616 141.418 253.424 141.082 253.309 140.717L249.268 127.903C249.153 127.539 249.118 127.154 249.165 126.774C249.212 126.395 249.341 126.03 249.542 125.705Z" fill="#0050B3"/>
<path d="M250.276 307.98H244.578L241.867 286.002L250.277 286.002L250.276 307.98Z" fill="#FFB6B6"/>
<path d="M251.73 313.503L233.357 313.503V313.27C233.358 311.374 234.111 309.555 235.452 308.214C236.793 306.873 238.612 306.119 240.509 306.119L251.731 306.12L251.73 313.503Z" fill="#262626"/>
<path d="M309.768 307.98H304.07L301.359 286.002L309.769 286.002L309.768 307.98Z" fill="#FFB6B6"/>
<path d="M311.221 313.503L292.848 313.503V313.27C292.848 311.374 293.601 309.555 294.942 308.214C296.284 306.873 298.102 306.119 299.999 306.119H299.999L311.221 306.12L311.221 313.503Z" fill="#262626"/>
<path d="M252.501 174.102L277.192 166.967C286.187 173.347 292.398 186.134 290.386 202.68C287.145 229.343 305.909 263.626 314.002 298.363L300.008 298.803L269.366 225.471L251.401 300.33L238.9 300.723L247.26 197.649L252.501 174.102Z" fill="#0050B3"/>
<path d="M263.496 109.259C270.55 109.259 276.269 103.54 276.269 96.4859C276.269 89.4316 270.55 83.7129 263.496 83.7129C256.441 83.7129 250.723 89.4316 250.723 96.4859C250.723 103.54 256.441 109.259 263.496 109.259Z" fill="#FFB6B6"/>
<path d="M250.501 153.283C247.678 148.327 246.283 142.308 248.74 137.161C249.359 135.865 251.046 134.64 251.929 133.507L261.798 118.793L272.941 117C282.585 125.088 274.347 152.721 282.248 170.848L249.249 188.509C251.608 179.501 254.791 160.814 250.501 153.283Z" fill="#80D8A0"/>
<path d="M218.034 75.0447L127.82 62.6509C127.403 62.5913 126.978 62.6276 126.577 62.7569C126.195 62.8827 125.847 63.0931 125.558 63.3722C125.259 63.661 125.024 64.0094 124.868 64.3948C124.697 64.8199 124.611 65.2742 124.613 65.7324V162.843C124.612 163.307 124.698 163.768 124.868 164.2C125.025 164.602 125.259 164.97 125.557 165.282C125.845 165.583 126.192 165.821 126.577 165.979C126.97 166.14 127.395 166.212 127.82 166.188L218.034 161.219C218.338 161.199 218.633 161.103 218.891 160.94C219.164 160.768 219.401 160.543 219.588 160.28C219.795 159.992 219.953 159.672 220.058 159.333C220.172 158.965 220.231 158.582 220.23 158.196V78.2451C220.23 77.855 220.172 77.467 220.058 77.0939C219.952 76.7436 219.794 76.4114 219.588 76.1085C219.401 75.8292 219.165 75.586 218.891 75.3905C218.637 75.209 218.343 75.0905 218.034 75.0447Z" fill="#0050B3"/>
<path opacity="0.2" d="M218.034 75.2224L127.82 62.8286C127.403 62.7691 126.978 62.8053 126.577 62.9346C126.195 63.0605 125.847 63.2708 125.558 63.55C125.259 63.8388 125.024 64.1871 124.868 64.5725C124.697 64.9977 124.611 65.452 124.613 65.9101V163.021C124.612 163.485 124.698 163.946 124.868 164.378C125.025 164.78 125.259 165.148 125.557 165.46C125.845 165.761 126.192 165.998 126.577 166.157C126.97 166.318 127.395 166.389 127.82 166.365L218.034 161.397C218.338 161.377 218.633 161.281 218.891 161.118C219.164 160.945 219.401 160.721 219.588 160.458C219.795 160.169 219.953 159.85 220.058 159.511C220.172 159.143 220.231 158.759 220.23 158.374V78.4229C220.23 78.0327 220.172 77.6447 220.058 77.2716C219.952 76.9214 219.794 76.5892 219.588 76.2863C219.401 76.0069 219.165 75.7637 218.891 75.5682C218.637 75.3868 218.343 75.2683 218.034 75.2224Z" fill="#0050B3"/>
<path d="M221.752 75.0447L131.539 62.6509C131.122 62.5913 130.697 62.6276 130.296 62.7569C129.914 62.8827 129.566 63.0931 129.277 63.3722C128.977 63.661 128.742 64.0094 128.586 64.3948C128.416 64.8199 128.329 65.2742 128.332 65.7324V162.843C128.331 163.307 128.417 163.768 128.586 164.2C128.744 164.602 128.978 164.97 129.276 165.282C129.564 165.583 129.911 165.821 130.295 165.979C130.689 166.14 131.114 166.212 131.539 166.188L221.752 161.219C222.057 161.199 222.352 161.103 222.61 160.94C222.883 160.768 223.12 160.543 223.307 160.28C223.514 159.992 223.672 159.672 223.777 159.333C223.891 158.965 223.949 158.582 223.949 158.196V78.2451C223.949 77.855 223.891 77.467 223.777 77.0939C223.671 76.7436 223.512 76.4114 223.307 76.1085C223.12 75.8292 222.884 75.586 222.61 75.3905C222.355 75.209 222.062 75.0905 221.752 75.0447Z" fill="#0072EF"/>
<path d="M221.365 152.682C221.611 152.898 221.839 153.133 222.048 153.385L251.214 150.404L254.14 143.91L264.517 147.045L260.455 159.044C260.127 160.014 259.493 160.85 258.649 161.429C257.804 162.007 256.795 162.297 255.773 162.253L222.448 160.825C221.746 161.871 220.741 162.679 219.569 163.141C218.396 163.602 217.111 163.696 215.884 163.409C214.657 163.123 213.546 162.469 212.699 161.536C211.853 160.603 211.31 159.433 211.144 158.184C210.978 156.935 211.196 155.665 211.769 154.543C212.343 153.421 213.244 152.5 214.354 151.902C215.464 151.305 216.729 151.06 217.981 151.199C219.234 151.338 220.414 151.855 221.365 152.682V152.682Z" fill="#FFB6B6"/>
<path d="M250.639 149.011C250.482 148.663 250.402 148.285 250.404 147.902C250.407 147.52 250.491 147.143 250.653 146.796L256.29 134.692C256.846 132.817 258.123 131.239 259.841 130.303C261.559 129.368 263.577 129.152 265.454 129.704C267.331 130.255 268.913 131.527 269.853 133.243C270.792 134.959 271.013 136.977 270.467 138.855L268.579 152.117C268.525 152.495 268.39 152.857 268.184 153.179C267.977 153.501 267.704 153.774 267.382 153.981C267.06 154.187 266.698 154.322 266.319 154.375C265.941 154.429 265.555 154.401 265.189 154.292L252.308 150.469C251.941 150.36 251.602 150.174 251.315 149.922C251.027 149.671 250.796 149.36 250.639 149.011Z" fill="#0050B3"/>
<path d="M387.838 314H210.758C210.634 314 210.516 313.951 210.429 313.864C210.342 313.777 210.293 313.658 210.293 313.535C210.293 313.412 210.342 313.294 210.429 313.206C210.516 313.119 210.634 313.07 210.758 313.07H387.838C387.961 313.07 388.079 313.119 388.167 313.206C388.254 313.294 388.303 313.412 388.303 313.535C388.303 313.658 388.254 313.777 388.167 313.864C388.079 313.951 387.961 314 387.838 314Z" fill="#CACACA"/>
<path d="M261.936 109.051C263.916 109.043 266.599 106.356 266.511 104.378C266.422 102.401 265.094 100.661 263.494 99.4961C261.894 98.3309 260.017 97.6212 258.233 96.7645C256.449 95.9079 254.68 94.8393 253.578 93.1949C252.913 92.1186 252.515 90.8983 252.42 89.6364C252.324 88.3746 252.533 87.1083 253.029 85.9441C254.054 83.6154 255.814 81.6871 258.04 80.4544C261.346 78.5191 265.26 77.9002 269.002 78.7212C272.744 79.5421 276.04 81.7426 278.232 84.8843L280.492 91.0363C282.794 93.8048 283.159 97.9161 281.744 101.227C280.329 104.538 277.315 107.029 273.915 108.213C270.465 109.322 265.615 110.036 262.105 109.136" fill="#262626"/>
<path d="M286.982 97.4693C281.089 97.4693 276.312 92.6921 276.312 86.7991C276.312 80.9061 281.089 76.1289 286.982 76.1289C292.875 76.1289 297.652 80.9061 297.652 86.7991C297.652 92.6921 292.875 97.4693 286.982 97.4693Z" fill="#262626"/>
<path d="M296.186 95.6347C294.805 96.6329 293.205 97.2858 291.52 97.5389C289.835 97.7919 288.114 97.6377 286.5 97.0891C284.887 96.5406 283.429 95.6136 282.247 94.3858C281.065 93.1581 280.195 91.6651 279.709 90.032C279.893 91.4956 280.378 92.905 281.134 94.1715C281.891 95.438 282.901 96.5339 284.103 97.39C285.304 98.2462 286.669 98.844 288.113 99.1458C289.557 99.4475 291.048 99.4466 292.491 99.1432C293.935 98.8397 295.3 98.2403 296.5 97.3827C297.7 96.5251 298.709 95.428 299.464 94.1606C300.219 92.8933 300.703 91.4832 300.885 90.0194C301.067 88.5557 300.944 87.07 300.523 85.6562C300.762 87.5556 300.486 89.4844 299.723 91.2401C298.96 92.9958 297.738 94.5137 296.186 95.6347Z" fill="#262626"/>
</g>
<defs>
<clipPath id="clip0">
<rect width="388.303" height="300" fill="white" transform="translate(0 14)"/>
</clipPath>
</defs>
</svg>
