<svg width="118" height="206" viewBox="0 0 118 206" fill="none" xmlns="http://www.w3.org/2000/svg">
<path d="M46.8842 193.499L47.2414 194.956L46.8842 193.499ZM0.678178 194.391C0.18564 193.724 0.326349 192.785 0.992456 192.293L11.8473 184.266C12.5134 183.774 13.4527 183.914 13.9452 184.581C14.4377 185.247 14.297 186.186 13.6309 186.679L3.98218 193.813L11.1167 203.462C11.6093 204.128 11.4686 205.067 10.8025 205.56C10.1363 206.052 9.19708 205.912 8.70455 205.245L0.678178 194.391ZM55.8841 16.9985L56.5868 15.6733L55.8841 16.9985ZM109.884 78.4985L111.319 78.0599L109.884 78.4985ZM101.384 156.499L102.637 157.323L101.384 156.499ZM47.2414 194.956C38.4774 197.104 27.0386 197.09 17.8978 196.565C13.3056 196.302 9.25231 195.907 6.34644 195.578C4.89303 195.413 3.72546 195.265 2.91963 195.157C2.51668 195.104 2.2041 195.06 1.99136 195.03C1.88499 195.015 1.80357 195.003 1.74829 194.995C1.72065 194.991 1.69955 194.988 1.68512 194.986C1.67791 194.985 1.67237 194.984 1.66852 194.983C1.66659 194.983 1.66509 194.983 1.66401 194.983C1.66347 194.982 1.66298 194.982 1.66271 194.982C1.66232 194.982 1.66204 194.982 1.88427 193.499C2.1065 192.015 2.10643 192.015 2.10648 192.015C2.10663 192.015 2.10677 192.015 2.10709 192.015C2.10771 192.016 2.10875 192.016 2.11022 192.016C2.11315 192.016 2.11776 192.017 2.12404 192.018C2.1366 192.02 2.15582 192.023 2.18155 192.026C2.23301 192.034 2.31052 192.045 2.41289 192.06C2.61765 192.089 2.92182 192.131 3.31598 192.184C4.10434 192.289 5.25227 192.434 6.68417 192.597C9.54888 192.921 13.5453 193.311 18.0696 193.57C27.1616 194.092 38.2228 194.078 46.527 192.042L47.2414 194.956ZM19.3864 2.49958C19.2714 1.00398 19.273 1.00386 19.2747 1.00374C19.2753 1.00369 19.2769 1.00357 19.2781 1.00349C19.2804 1.00332 19.2829 1.00315 19.2854 1.00297C19.2906 1.00262 19.2962 1.00226 19.3022 1.00189C19.3144 1.00116 19.3285 1.00042 19.3445 0.999713C19.3765 0.998308 19.4165 0.997075 19.4646 0.99648C19.5608 0.995291 19.69 0.99665 19.8551 1.0043C20.1851 1.01961 20.6598 1.06012 21.3028 1.15619C22.5877 1.34817 24.5541 1.76339 27.3941 2.64965C33.0707 4.42103 42.2831 8.08846 56.5868 15.6733L55.1814 18.3237C40.984 10.7952 31.9475 7.21321 26.5005 5.51345C23.7788 4.66414 21.9646 4.28838 20.8595 4.12326C20.3075 4.04078 19.9348 4.01122 19.7162 4.00109C19.6069 3.99602 19.5365 3.99582 19.5017 3.99625C19.4843 3.99647 19.4758 3.99684 19.4758 3.99684C19.4759 3.99683 19.478 3.99674 19.4823 3.99648C19.4844 3.99636 19.4871 3.99619 19.4902 3.99597C19.4918 3.99586 19.4935 3.99574 19.4954 3.99561C19.4963 3.99554 19.4977 3.99543 19.4982 3.9954C19.4997 3.99529 19.5013 3.99517 19.3864 2.49958ZM56.5868 15.6733C70.7885 23.204 82.1164 31.0341 91.0785 40.8927C100.052 50.7643 106.592 62.6006 111.319 78.0599L108.45 78.9371C103.831 63.8316 97.4892 52.4046 88.8587 42.9107C80.2164 33.4039 69.217 25.7664 55.1814 18.3237L56.5868 15.6733ZM111.319 78.0599C115.831 92.8197 117.965 106.125 116.802 119.021C115.636 131.937 111.173 144.345 102.637 157.323L100.131 155.674C108.432 143.052 112.698 131.111 113.814 118.752C114.931 106.374 112.896 93.4795 108.45 78.9371L111.319 78.0599ZM102.637 157.323C95.4828 168.201 87.969 176.08 79.0323 182.011C70.1044 187.937 59.8341 191.868 47.2414 194.956L46.527 192.042C58.9195 189.004 68.8314 185.182 77.3733 179.512C85.9064 173.848 93.15 166.289 100.131 155.674L102.637 157.323Z" fill="#00B140"/>
</svg>
