<svg width="60" height="61" viewBox="0 0 60 61" fill="none" xmlns="http://www.w3.org/2000/svg">
<rect y="0.5" width="60" height="60" rx="8" fill="#00B140"/>
<path d="M47.2054 34.0136L43.5492 30.3573C43.3206 30.1288 43.0107 30.0005 42.6875 30.0005C42.3643 30.0005 42.0544 30.1288 41.8258 30.3573L30.5 41.6832V47.0627H35.8796L47.2054 35.7369C47.4339 35.5083 47.5622 35.1984 47.5622 34.8752C47.5622 34.5521 47.4339 34.2421 47.2054 34.0136ZM34.8704 44.6252H32.9375V42.6923L39.0313 36.5985L40.9642 38.5315L34.8704 44.6252ZM42.6875 36.8082L40.7546 34.8752L42.6875 32.9423L44.6204 34.8752L42.6875 36.8082Z" fill="white"/>
<path d="M32.9375 32.4375V27.5625H35.375V32.4375H32.9375Z" fill="white"/>
<path d="M28.0625 32.4375V25.125H30.5V32.4375H28.0625Z" fill="white"/>
<path d="M23.1875 32.4375V20.25H25.625V32.4375H23.1875Z" fill="white"/>
<path d="M25.625 47.0625H18.3125C17.6662 47.0619 17.0466 46.8048 16.5896 46.3479C16.1327 45.8909 15.8756 45.2713 15.875 44.625V15.375C15.8756 14.7287 16.1327 14.1091 16.5896 13.6521C17.0466 13.1952 17.6662 12.9381 18.3125 12.9375H37.8125C38.4588 12.9381 39.0784 13.1952 39.5354 13.6521C39.9923 14.1091 40.2494 14.7287 40.25 15.375V27.5625H37.8125V15.375H18.3125V44.625H25.625V47.0625Z" fill="white"/>
</svg>
