<svg width="60" height="60" viewBox="0 0 60 60" fill="none" xmlns="http://www.w3.org/2000/svg">
<circle cx="30" cy="30" r="30" fill="#F1FCF8"/>
<path d="M35.4001 23.0242C35.4001 22.8054 35.487 22.5956 35.6417 22.4409C35.7964 22.2861 36.0063 22.1992 36.2251 22.1992H38.9751C39.1939 22.1992 39.4037 22.2861 39.5584 22.4409C39.7131 22.5956 39.8001 22.8054 39.8001 23.0242V25.7742C39.8001 25.993 39.7131 26.2029 39.5584 26.3576C39.4037 26.5123 39.1939 26.5992 38.9751 26.5992C38.7563 26.5992 38.5464 26.5123 38.3917 26.3576C38.237 26.2029 38.1501 25.993 38.1501 25.7742V25.0152L33.2331 29.9322C33.0784 30.0867 32.8687 30.1735 32.6501 30.1735C32.4314 30.1735 32.2217 30.0867 32.0671 29.9322L29.3501 27.2152L24.7081 31.8572C24.6325 31.9383 24.5415 32.0033 24.4403 32.0484C24.3391 32.0935 24.2298 32.1177 24.119 32.1197C24.0083 32.1216 23.8982 32.1012 23.7955 32.0598C23.6928 32.0183 23.5995 31.9565 23.5211 31.8782C23.4428 31.7998 23.381 31.7065 23.3395 31.6038C23.298 31.501 23.2777 31.391 23.2796 31.2802C23.2816 31.1695 23.3058 31.0602 23.3509 30.959C23.396 30.8578 23.461 30.7667 23.5421 30.6912L28.7671 25.4662C28.9217 25.3117 29.1314 25.2249 29.3501 25.2249C29.5687 25.2249 29.7784 25.3117 29.9331 25.4662L32.6501 28.1832L36.9841 23.8492H36.2251C36.0063 23.8492 35.7964 23.7623 35.6417 23.6076C35.487 23.4529 35.4001 23.243 35.4001 23.0242ZM24.1251 35.3992C24.3439 35.3992 24.5537 35.4861 24.7084 35.6409C24.8631 35.7956 24.9501 36.0054 24.9501 36.2242V38.9742C24.9501 39.193 24.8631 39.4029 24.7084 39.5576C24.5537 39.7123 24.3439 39.7992 24.1251 39.7992C23.9063 39.7992 23.6964 39.7123 23.5417 39.5576C23.387 39.4029 23.3001 39.193 23.3001 38.9742V36.2242C23.3001 36.0054 23.387 35.7956 23.5417 35.6409C23.6964 35.4861 23.9063 35.3992 24.1251 35.3992ZM29.3501 32.9242C29.3501 32.7054 29.2631 32.4956 29.1084 32.3409C28.9537 32.1861 28.7439 32.0992 28.5251 32.0992C28.3063 32.0992 28.0964 32.1861 27.9417 32.3409C27.787 32.4956 27.7001 32.7054 27.7001 32.9242V38.9742C27.7001 39.193 27.787 39.4029 27.9417 39.5576C28.0964 39.7123 28.3063 39.7992 28.5251 39.7992C28.7439 39.7992 28.9537 39.7123 29.1084 39.5576C29.2631 39.4029 29.3501 39.193 29.3501 38.9742V32.9242ZM32.9251 34.2992C33.1439 34.2992 33.3537 34.3861 33.5084 34.5409C33.6631 34.6956 33.7501 34.9054 33.7501 35.1242V38.9742C33.7501 39.193 33.6631 39.4029 33.5084 39.5576C33.3537 39.7123 33.1439 39.7992 32.9251 39.7992C32.7063 39.7992 32.4964 39.7123 32.3417 39.5576C32.187 39.4029 32.1001 39.193 32.1001 38.9742V35.1242C32.1001 34.9054 32.187 34.6956 32.3417 34.5409C32.4964 34.3861 32.7063 34.2992 32.9251 34.2992ZM38.1501 30.7242C38.1501 30.5054 38.0631 30.2956 37.9084 30.1409C37.7537 29.9861 37.5439 29.8992 37.3251 29.8992C37.1063 29.8992 36.8964 29.9861 36.7417 30.1409C36.587 30.2956 36.5001 30.5054 36.5001 30.7242V38.9742C36.5001 39.193 36.587 39.4029 36.7417 39.5576C36.8964 39.7123 37.1063 39.7992 37.3251 39.7992C37.5439 39.7992 37.7537 39.7123 37.9084 39.5576C38.0631 39.4029 38.1501 39.193 38.1501 38.9742V30.7242Z" fill="#00B140"/>
</svg>
