<svg width="60" height="60" viewBox="0 0 60 60" fill="none" xmlns="http://www.w3.org/2000/svg">
<circle cx="30" cy="30" r="30" fill="#F5F5FF"/>
<path d="M39 25.28V23C39 21.9 38.1 21 37 21H23C22.4696 21 21.9609 21.2107 21.5858 21.5858C21.2107 21.9609 21 22.4696 21 23V37C21 37.5304 21.2107 38.0391 21.5858 38.4142C21.9609 38.7893 22.4696 39 23 39H37C38.1 39 39 38.1 39 37V34.72C39.3023 34.5455 39.5536 34.2949 39.7291 33.9932C39.9045 33.6914 39.9979 33.349 40 33V27C39.9979 26.651 39.9045 26.3086 39.7291 26.0068C39.5536 25.7051 39.3023 25.4545 39 25.28ZM38 27V33H31V27H38ZM23 37V23H37V25H31C29.9 25 29 25.9 29 27V33C29 34.1 29.9 35 31 35H37V37H23Z" fill="#5D5FEF"/>
</svg>
