<svg width="31" height="31" viewBox="0 0 31 31" fill="none" xmlns="http://www.w3.org/2000/svg">
<path d="M15.8154 0.121094C7.49069 0.121094 0.734375 6.81735 0.734375 15.0681C0.734375 23.3188 7.49069 30.0151 15.8154 30.0151C24.1402 30.0151 30.8965 23.3188 30.8965 15.0681C30.8965 6.81735 24.1402 0.121094 15.8154 0.121094ZM17.3235 25.531H14.3073V22.5416H17.3235V25.531ZM20.4453 13.9471L19.088 15.3222C18.0022 16.4133 17.3235 17.3101 17.3235 19.5522H14.3073V18.8048C14.3073 17.1607 14.986 15.666 16.0718 14.5748L17.9419 12.6915C18.4999 12.1534 18.8316 11.4061 18.8316 10.584C18.8316 8.93982 17.4743 7.59459 15.8154 7.59459C14.1565 7.59459 12.7992 8.93982 12.7992 10.584H9.783C9.783 7.28071 12.4825 4.60519 15.8154 4.60519C19.1483 4.60519 21.8478 7.28071 21.8478 10.584C21.8478 11.8993 21.3049 13.0951 20.4453 13.9471Z" fill="#8C8C8C"/>
</svg>
