<svg width="60" height="60" viewBox="0 0 60 60" fill="none" xmlns="http://www.w3.org/2000/svg">
<rect width="60" height="60" rx="8" fill="#00B140"/>
<path d="M34.4531 36.9135L39.7189 32.7572C39.8711 32.6385 39.8711 32.4084 39.7189 32.2896L34.4531 28.1334C34.2564 27.9775 33.9707 28.1186 33.9707 28.3672V31.1875H21.9473C21.784 31.1875 21.6504 31.3211 21.6504 31.4844V33.5625C21.6504 33.7258 21.784 33.8594 21.9473 33.8594H33.9707V36.6797C33.9707 36.9283 34.2602 37.0656 34.4531 36.9135ZM44.1498 21.8842L38.1158 15.8502C37.8375 15.5719 37.4961 15.3678 37.125 15.2564V15.1562H16.3438C15.6869 15.1562 15.1562 15.6869 15.1562 16.3438V26.6602C15.1562 26.8234 15.2898 26.957 15.4531 26.957H17.5312C17.6945 26.957 17.8281 26.8234 17.8281 26.6602V17.8281H22.875V22.875C22.875 23.5318 23.4057 24.0625 24.0625 24.0625H35.9375C36.5943 24.0625 37.125 23.5318 37.125 22.875V18.6371L42.1719 23.684V26.6602C42.1719 26.8234 42.3055 26.957 42.4688 26.957H44.5469C44.7102 26.957 44.8438 26.8234 44.8438 26.6602V23.5615C44.8438 22.9307 44.5951 22.3295 44.1498 21.8842ZM34.75 21.6875H25.25V17.8281H34.75V21.6875ZM44.5469 37.8672H42.4688C42.3055 37.8672 42.1719 38.0008 42.1719 38.1641V42.1719H17.8281V38.1641C17.8281 38.0008 17.6945 37.8672 17.5312 37.8672H15.4531C15.2898 37.8672 15.1562 38.0008 15.1562 38.1641V43.6562C15.1562 44.3131 15.6869 44.8438 16.3438 44.8438H43.6562C44.3131 44.8438 44.8438 44.3131 44.8438 43.6562V38.1641C44.8438 38.0008 44.7102 37.8672 44.5469 37.8672Z" fill="white"/>
</svg>
