<svg width="241" height="235" viewBox="0 0 241 235" fill="none" xmlns="http://www.w3.org/2000/svg">
<g clip-path="url(#clip0_3404:52161)">
<path d="M152.861 52.6863H88.1911C86.7174 52.6881 85.3046 53.2743 84.2625 54.3164C83.2204 55.3584 82.6342 56.7713 82.6324 58.245V201.974L81.8913 202.2L66.0268 207.058C65.2749 207.287 64.4628 207.209 63.7687 206.84C63.0747 206.471 62.5554 205.842 62.3248 205.09L15.1352 50.9483C14.9056 50.1964 14.9838 49.3841 15.3528 48.6899C15.7218 47.9957 16.3513 47.4765 17.103 47.2462L41.5501 39.7605L112.423 18.0669L136.87 10.5812C137.242 10.4667 137.633 10.4267 138.021 10.4634C138.408 10.5002 138.785 10.613 139.129 10.7955C139.472 10.9779 139.777 11.2263 140.025 11.5266C140.272 11.8268 140.459 12.173 140.572 12.5452L152.635 51.9451L152.861 52.6863Z" fill="#F2F2F2"/>
<path d="M166.975 51.9463L152.437 4.46037C152.196 3.66916 151.8 2.93337 151.274 2.29504C150.748 1.65671 150.101 1.12835 149.37 0.740158C148.639 0.351962 147.839 0.111532 147.016 0.0326179C146.192 -0.0462962 145.361 0.0378512 144.57 0.280243L110.199 10.801L39.3296 32.4983L4.95849 43.0228C3.36179 43.513 2.02485 44.6168 1.24113 46.0918C0.457407 47.5668 0.290934 49.2925 0.778257 50.8901L50.4654 213.178C50.8613 214.467 51.6601 215.596 52.7446 216.398C53.8291 217.201 55.1421 217.634 56.4911 217.636C57.1155 217.636 57.7363 217.542 58.3328 217.358L81.8942 210.146L82.6354 209.916V209.142L81.8942 209.368L58.1142 216.65C56.7049 217.079 55.1826 216.933 53.8814 216.241C52.5802 215.55 51.6063 214.371 51.1733 212.963L1.48992 50.6715C1.27539 49.9737 1.20062 49.2404 1.26989 48.5136C1.33916 47.7868 1.5511 47.0809 1.8936 46.4361C2.2361 45.7914 2.70241 45.2206 3.26584 44.7563C3.82927 44.292 4.47874 43.9435 5.17707 43.7306L39.5482 33.2061L110.418 11.5125L144.789 0.988055C145.319 0.826408 145.869 0.743988 146.423 0.743472C147.611 0.74614 148.768 1.1293 149.723 1.83684C150.678 2.54437 151.381 3.53909 151.73 4.67531L166.201 51.9463L166.431 52.6874H167.201L166.975 51.9463Z" fill="#3F3D56"/>
<path d="M45.9641 47.3673C45.2498 47.3667 44.5545 47.1374 43.9802 46.7127C43.4059 46.2881 42.9828 45.6906 42.7729 45.0079L37.9997 29.417C37.8714 28.9982 37.8269 28.5582 37.8687 28.1222C37.9105 27.6862 38.0378 27.2628 38.2433 26.8759C38.4488 26.4891 38.7284 26.1466 39.0663 25.8679C39.4042 25.5892 39.7937 25.3798 40.2125 25.2516L105.412 5.29087C106.257 5.03277 107.171 5.1208 107.952 5.53562C108.733 5.95045 109.318 6.65818 109.577 7.50348L114.35 23.0946C114.608 23.9404 114.52 24.8539 114.105 25.6349C113.691 26.4158 112.983 27.0003 112.138 27.2601L46.9385 47.2209C46.6227 47.3178 46.2943 47.3671 45.9641 47.3673Z" fill="#0072EF"/>
<path d="M70.9663 16.6591C75.0596 16.6591 78.3778 13.3408 78.3778 9.24751C78.3778 5.15421 75.0596 1.83594 70.9663 1.83594C66.873 1.83594 63.5547 5.15421 63.5547 9.24751C63.5547 13.3408 66.873 16.6591 70.9663 16.6591Z" fill="#0072EF"/>
<path d="M70.9667 13.9412C73.5587 13.9412 75.6599 11.8399 75.6599 9.24792C75.6599 6.65592 73.5587 4.55469 70.9667 4.55469C68.3747 4.55469 66.2734 6.65592 66.2734 9.24792C66.2734 11.8399 68.3747 13.9412 70.9667 13.9412Z" fill="white"/>
<path d="M223.823 215.741H98.5679C97.7328 215.741 96.9321 215.408 96.3416 214.818C95.7511 214.227 95.4189 213.427 95.418 212.592V62.5073C95.4189 61.6722 95.7511 60.8716 96.3416 60.281C96.9321 59.6905 97.7328 59.3584 98.5679 59.3574H223.823C224.658 59.3584 225.459 59.6906 226.05 60.2811C226.64 60.8716 226.972 61.6722 226.973 62.5073V212.592C226.972 213.427 226.64 214.227 226.05 214.818C225.459 215.408 224.658 215.74 223.823 215.741Z" fill="#E6E6E6"/>
<path d="M166.199 51.9453H88.1924C86.5223 51.9477 84.9213 52.6122 83.7404 53.7931C82.5594 54.974 81.8949 56.5751 81.8926 58.2451V209.367L82.6337 209.141V58.2451C82.6355 56.7714 83.2217 55.3586 84.2638 54.3165C85.3059 53.2745 86.7187 52.6883 88.1924 52.6865H166.429L166.199 51.9453ZM234.2 51.9453H88.1924C86.5223 51.9477 84.9213 52.6122 83.7404 53.7931C82.5594 54.974 81.8949 56.5751 81.8926 58.2451V227.97C81.8949 229.64 82.5594 231.241 83.7404 232.422C84.9213 233.603 86.5223 234.268 88.1924 234.27H234.2C235.87 234.268 237.471 233.603 238.652 232.422C239.833 231.241 240.498 229.64 240.5 227.97V58.2451C240.498 56.5751 239.833 54.974 238.652 53.7931C237.471 52.6122 235.87 51.9477 234.2 51.9453ZM239.759 227.97C239.757 229.444 239.171 230.857 238.129 231.899C237.087 232.941 235.674 233.527 234.2 233.529H88.1924C86.7187 233.527 85.3059 232.941 84.2638 231.899C83.2217 230.857 82.6355 229.444 82.6337 227.97V58.2451C82.6355 56.7714 83.2217 55.3586 84.2638 54.3165C85.3059 53.2745 86.7187 52.6883 88.1924 52.6865H234.2C235.674 52.6883 237.087 53.2745 238.129 54.3165C239.171 55.3586 239.757 56.7714 239.759 58.2451V227.97Z" fill="#3F3D56"/>
<path d="M195.289 68.2503H127.103C126.219 68.2493 125.371 67.8976 124.746 67.2723C124.12 66.6471 123.769 65.7993 123.768 64.9151V48.6096C123.769 47.7254 124.12 46.8776 124.746 46.2524C125.371 45.6271 126.219 45.2754 127.103 45.2744H195.289C196.173 45.2754 197.021 45.6271 197.646 46.2524C198.272 46.8776 198.623 47.7254 198.624 48.6096V64.9151C198.623 65.7993 198.272 66.6471 197.646 67.2723C197.021 67.8976 196.173 68.2493 195.289 68.2503Z" fill="#0072EF"/>
<path d="M161.197 46.3866C165.29 46.3866 168.608 43.0683 168.608 38.975C168.608 34.8817 165.29 31.5635 161.197 31.5635C157.103 31.5635 153.785 34.8817 153.785 38.975C153.785 43.0683 157.103 46.3866 161.197 46.3866Z" fill="#0072EF"/>
<path d="M161.196 43.4896C163.689 43.4896 165.71 41.4685 165.71 38.9753C165.71 36.4821 163.689 34.4609 161.196 34.4609C158.703 34.4609 156.682 36.4821 156.682 38.9753C156.682 41.4685 158.703 43.4896 161.196 43.4896Z" fill="white"/>
</g>
<defs>
<clipPath id="clip0_3404:52161">
<rect width="240" height="234.27" fill="white" transform="translate(0.5)"/>
</clipPath>
</defs>
</svg>
