<svg width="20" height="21" viewBox="0 0 20 21" fill="none" xmlns="http://www.w3.org/2000/svg">
<path d="M9.99 20.5C4.46846 20.4945 -0.00367557 16.0149 2.26684e-06 10.4933C0.00368465 4.97179 4.48179 0.498162 10.0033 0.500001C15.5249 0.50184 20 4.97845 20 10.5C19.9967 16.0254 15.5154 20.5022 9.99 20.5ZM2 10.672C2.04732 15.0732 5.64111 18.6095 10.0425 18.586C14.444 18.5622 17.9995 14.9875 17.9995 10.586C17.9995 6.1845 14.444 2.60977 10.0425 2.58599C5.64111 2.56245 2.04732 6.09876 2 10.5V10.672ZM11 15.5H9V13.5H11V15.5ZM11 11.5H9V5.5H11V11.5Z" fill="#FF4D4F"/>
</svg>
