<svg width="21" height="21" viewBox="0 0 21 21" fill="none" xmlns="http://www.w3.org/2000/svg">
<path d="M10.49 20.123C4.96846 20.1175 0.496324 15.6379 0.500002 10.1164C0.503685 4.59484 4.98179 0.121209 10.5033 0.123047C16.0249 0.124887 20.5 4.6015 20.5 10.123C20.4967 15.6484 16.0154 20.1253 10.49 20.123ZM2.5 10.295C2.54732 14.6963 6.14111 18.2326 10.5425 18.209C14.944 18.1853 18.4995 14.6105 18.4995 10.209C18.4995 5.80755 14.944 2.23282 10.5425 2.20904C6.14111 2.1855 2.54732 5.7218 2.5 10.123V10.295ZM11.5 15.123H9.5V13.123H11.5V15.123ZM11.5 11.123H9.5V5.12304H11.5V11.123Z" fill="#FF4D4F"/>
</svg>
