<svg width="31" height="30" viewBox="0 0 31 30" fill="none" xmlns="http://www.w3.org/2000/svg">
<path d="M25.8785 3.69824H4.65331C4.14286 3.69824 3.73047 4.11063 3.73047 4.62108V25.8463C3.73047 26.3568 4.14286 26.7691 4.65331 26.7691H25.8785C26.389 26.7691 26.8014 26.3568 26.8014 25.8463V4.62108C26.8014 4.11063 26.389 3.69824 25.8785 3.69824ZM23.2139 10.4321H21.3711C19.9262 10.4321 19.6465 11.1184 19.6465 12.1278V14.3512H23.0956L22.6457 17.8321H19.6465V26.7691H16.0503V17.8349H13.0425V14.3512H16.0503V11.7846C16.0503 8.80556 17.8701 7.18195 20.529 7.18195C21.8036 7.18195 22.8966 7.27712 23.2167 7.32037V10.4321H23.2139Z" fill="white"/>
</svg>
