<svg width="200" height="54" viewBox="0 0 200 54" fill="none" xmlns="http://www.w3.org/2000/svg">
<path d="M0 16C0 10.3995 0 7.59921 1.08993 5.46009C2.04867 3.57847 3.57847 2.04867 5.46009 1.08993C7.59921 0 10.3995 0 16 0H184C189.601 0 192.401 0 194.54 1.08993C196.422 2.04867 197.951 3.57847 198.91 5.46009C200 7.59921 200 10.3995 200 16V38C200 43.6005 200 46.4008 198.91 48.5399C197.951 50.4215 196.422 51.9513 194.54 52.9101C192.401 54 189.601 54 184 54H16C10.3995 54 7.59921 54 5.46009 52.9101C3.57847 51.9513 2.04867 50.4215 1.08993 48.5399C0 46.4008 0 43.6005 0 38V16Z" fill="#1877F2"/>
<rect width="24" height="24" transform="translate(15 15)" fill="#1877F2"/>
<path d="M38.5 27.0699C38.5 20.7186 33.3513 15.5699 27 15.5699C20.6487 15.5699 15.5 20.7186 15.5 27.0699C15.5 32.8099 19.7054 37.5674 25.2031 38.4302V30.3941H22.2832V27.0699H25.2031V24.5363C25.2031 21.6541 26.92 20.0621 29.5468 20.0621C30.805 20.0621 32.1211 20.2867 32.1211 20.2867V23.1168H30.671C29.2424 23.1168 28.7969 24.0032 28.7969 24.9127V27.0699H31.9863L31.4765 30.3941H28.7969V38.4302C34.2946 37.5674 38.5 32.8099 38.5 27.0699Z" fill="white"/>
<path d="M55.5234 18.625H65.7285V21.1543H58.5117V24.4648H64.8301V26.9648H58.5117V33H55.5234V18.625ZM73.3945 27.8242C73.2188 27.9349 73.0397 28.026 72.8574 28.0977C72.6816 28.1628 72.4375 28.2246 72.125 28.2832L71.5 28.4004C70.9141 28.5046 70.4941 28.6315 70.2402 28.7812C69.8105 29.0352 69.5957 29.429 69.5957 29.9629C69.5957 30.4382 69.7259 30.7832 69.9863 30.998C70.2533 31.2064 70.5755 31.3105 70.9531 31.3105C71.5521 31.3105 72.1022 31.1348 72.6035 30.7832C73.1113 30.4316 73.375 29.7904 73.3945 28.8594V27.8242ZM71.7051 26.5254C72.2194 26.4603 72.5872 26.3789 72.8086 26.2812C73.2057 26.112 73.4043 25.8483 73.4043 25.4902C73.4043 25.054 73.2513 24.7546 72.9453 24.5918C72.6458 24.4225 72.2031 24.3379 71.6172 24.3379C70.9596 24.3379 70.4941 24.5007 70.2207 24.8262C70.0254 25.0671 69.8952 25.3926 69.8301 25.8027H67.1445C67.2031 24.8717 67.4635 24.1068 67.9258 23.5078C68.6615 22.5703 69.9245 22.1016 71.7148 22.1016C72.8802 22.1016 73.9154 22.3327 74.8203 22.7949C75.7253 23.2572 76.1777 24.1296 76.1777 25.4121V30.2949C76.1777 30.6335 76.1842 31.0436 76.1973 31.5254C76.2168 31.89 76.2721 32.1374 76.3633 32.2676C76.4544 32.3978 76.5911 32.5052 76.7734 32.5898V33H73.7461C73.6615 32.7852 73.6029 32.5833 73.5703 32.3945C73.5378 32.2057 73.5117 31.9909 73.4922 31.75C73.1081 32.1667 72.6654 32.5215 72.1641 32.8145C71.5651 33.1595 70.888 33.332 70.1328 33.332C69.1693 33.332 68.3717 33.0586 67.7402 32.5117C67.1152 31.9583 66.8027 31.1771 66.8027 30.168C66.8027 28.8594 67.3073 27.9121 68.3164 27.3262C68.8698 27.0072 69.6836 26.7793 70.7578 26.6426L71.7051 26.5254ZM85.0156 26.1738C84.9635 25.7767 84.8301 25.4186 84.6152 25.0996C84.3027 24.6699 83.8177 24.4551 83.1602 24.4551C82.2227 24.4551 81.5814 24.9206 81.2363 25.8516C81.054 26.3464 80.9629 27.0039 80.9629 27.8242C80.9629 28.6055 81.054 29.2337 81.2363 29.709C81.5684 30.5944 82.1934 31.0371 83.1113 31.0371C83.7624 31.0371 84.2246 30.8613 84.498 30.5098C84.7715 30.1582 84.9375 29.7025 84.9961 29.1426H87.8379C87.7728 29.9889 87.4668 30.7897 86.9199 31.5449C86.0475 32.7624 84.7552 33.3711 83.043 33.3711C81.3307 33.3711 80.071 32.8633 79.2637 31.8477C78.4564 30.832 78.0527 29.5137 78.0527 27.8926C78.0527 26.0632 78.4987 24.6406 79.3906 23.625C80.2826 22.6094 81.513 22.1016 83.082 22.1016C84.4167 22.1016 85.5072 22.401 86.3535 23C87.2064 23.599 87.7109 24.6569 87.8672 26.1738H85.0156ZM93.9902 24.3672C93.3457 24.3672 92.8444 24.569 92.4863 24.9727C92.1348 25.3763 91.9134 25.9232 91.8223 26.6133H96.1484C96.1029 25.8776 95.8783 25.321 95.4746 24.9434C95.0775 24.5592 94.5827 24.3672 93.9902 24.3672ZM93.9902 22.0723C94.8757 22.0723 95.6732 22.2383 96.3828 22.5703C97.0924 22.9023 97.6784 23.4264 98.1406 24.1426C98.5573 24.7741 98.8275 25.5065 98.9512 26.3398C99.0228 26.8281 99.0521 27.5312 99.0391 28.4492H91.7539C91.793 29.5169 92.1283 30.2656 92.7598 30.6953C93.1439 30.9622 93.6061 31.0957 94.1465 31.0957C94.7194 31.0957 95.1849 30.9329 95.543 30.6074C95.7383 30.4316 95.9108 30.1875 96.0605 29.875H98.9023C98.8307 30.5065 98.502 31.1478 97.916 31.7988C97.0046 32.834 95.7285 33.3516 94.0879 33.3516C92.7337 33.3516 91.5391 32.9154 90.5039 32.043C89.4688 31.1706 88.9512 29.7513 88.9512 27.7852C88.9512 25.9427 89.4167 24.5299 90.3477 23.5469C91.2852 22.5638 92.4993 22.0723 93.9902 22.0723ZM106.676 22.1211C108.076 22.1211 109.169 22.6257 109.957 23.6348C110.751 24.6439 111.148 25.946 111.148 27.541C111.148 29.1947 110.758 30.5651 109.977 31.6523C109.195 32.7396 108.105 33.2832 106.705 33.2832C105.826 33.2832 105.12 33.1074 104.586 32.7559C104.267 32.5475 103.922 32.1829 103.551 31.6621V33H100.826V18.625H103.6V23.7422C103.951 23.2474 104.339 22.8698 104.762 22.6094C105.263 22.2839 105.901 22.1211 106.676 22.1211ZM105.963 30.9883C106.679 30.9883 107.236 30.6986 107.633 30.1191C108.03 29.5397 108.229 28.778 108.229 27.834C108.229 27.0788 108.131 26.4538 107.936 25.959C107.564 25.0215 106.881 24.5527 105.885 24.5527C104.876 24.5527 104.182 25.0117 103.805 25.9297C103.609 26.418 103.512 27.0495 103.512 27.8242C103.512 28.7357 103.714 29.4909 104.117 30.0898C104.521 30.6888 105.136 30.9883 105.963 30.9883ZM117.926 31.0371C118.74 31.0371 119.365 30.7474 119.801 30.168C120.237 29.5885 120.455 28.765 120.455 27.6973C120.455 26.6296 120.237 25.8092 119.801 25.2363C119.365 24.6569 118.74 24.3672 117.926 24.3672C117.112 24.3672 116.484 24.6569 116.041 25.2363C115.605 25.8092 115.387 26.6296 115.387 27.6973C115.387 28.765 115.605 29.5885 116.041 30.168C116.484 30.7474 117.112 31.0371 117.926 31.0371ZM123.375 27.6973C123.375 29.2598 122.926 30.5977 122.027 31.7109C121.129 32.8177 119.765 33.3711 117.936 33.3711C116.106 33.3711 114.742 32.8177 113.844 31.7109C112.945 30.5977 112.496 29.2598 112.496 27.6973C112.496 26.1608 112.945 24.8294 113.844 23.7031C114.742 22.5768 116.106 22.0137 117.936 22.0137C119.765 22.0137 121.129 22.5768 122.027 23.7031C122.926 24.8294 123.375 26.1608 123.375 27.6973ZM130.152 31.0371C130.966 31.0371 131.591 30.7474 132.027 30.168C132.464 29.5885 132.682 28.765 132.682 27.6973C132.682 26.6296 132.464 25.8092 132.027 25.2363C131.591 24.6569 130.966 24.3672 130.152 24.3672C129.339 24.3672 128.71 24.6569 128.268 25.2363C127.831 25.8092 127.613 26.6296 127.613 27.6973C127.613 28.765 127.831 29.5885 128.268 30.168C128.71 30.7474 129.339 31.0371 130.152 31.0371ZM135.602 27.6973C135.602 29.2598 135.152 30.5977 134.254 31.7109C133.355 32.8177 131.992 33.3711 130.162 33.3711C128.333 33.3711 126.969 32.8177 126.07 31.7109C125.172 30.5977 124.723 29.2598 124.723 27.6973C124.723 26.1608 125.172 24.8294 126.07 23.7031C126.969 22.5768 128.333 22.0137 130.162 22.0137C131.992 22.0137 133.355 22.5768 134.254 23.7031C135.152 24.8294 135.602 26.1608 135.602 27.6973ZM137.574 18.6543H140.309V26.4082L143.775 22.4043H147.223L143.502 26.4766L147.369 33H144.01L141.461 28.4492L140.309 29.6504V33H137.574V18.6543Z" fill="white"/>
</svg>
