<svg width="206" height="62" viewBox="0 0 206 62" fill="none" xmlns="http://www.w3.org/2000/svg">
<g filter="url(#filter0_dd)">
<path d="M3 19C3 13.3995 3 10.5992 4.08993 8.46009C5.04867 6.57847 6.57847 5.04867 8.46009 4.08993C10.5992 3 13.3995 3 19 3H187C192.601 3 195.401 3 197.54 4.08993C199.422 5.04867 200.951 6.57847 201.91 8.46009C203 10.5992 203 13.3995 203 19V41C203 46.6005 203 49.4008 201.91 51.5399C200.951 53.4215 199.422 54.9513 197.54 55.9101C195.401 57 192.601 57 187 57H19C13.3995 57 10.5992 57 8.46009 55.9101C6.57847 54.9513 5.04867 53.4215 4.08993 51.5399C3 49.4008 3 46.6005 3 41V19Z" fill="#1877F2"/>
<rect width="24" height="24" transform="translate(18 18)" fill="#1877F2"/>
<path d="M41.5 30.0694C41.5 23.7181 36.3513 18.5694 30 18.5694C23.6487 18.5694 18.5 23.7181 18.5 30.0694C18.5 35.8094 22.7054 40.567 28.2031 41.4297V33.3936H25.2832V30.0694H28.2031V27.5358C28.2031 24.6536 29.92 23.0616 32.5468 23.0616C33.805 23.0616 35.1211 23.2862 35.1211 23.2862V26.1163H33.671C32.2424 26.1163 31.7969 27.0027 31.7969 27.9122V30.0694H34.9863L34.4765 33.3936H31.7969V41.4297C37.2946 40.567 41.5 35.8094 41.5 30.0694Z" fill="white"/>
<path d="M58.5234 21.625H68.7285V24.1543H61.5117V27.4648H67.8301V29.9648H61.5117V36H58.5234V21.625ZM76.3945 30.8242C76.2188 30.9349 76.0397 31.026 75.8574 31.0977C75.6816 31.1628 75.4375 31.2246 75.125 31.2832L74.5 31.4004C73.9141 31.5046 73.4941 31.6315 73.2402 31.7812C72.8105 32.0352 72.5957 32.429 72.5957 32.9629C72.5957 33.4382 72.7259 33.7832 72.9863 33.998C73.2533 34.2064 73.5755 34.3105 73.9531 34.3105C74.5521 34.3105 75.1022 34.1348 75.6035 33.7832C76.1113 33.4316 76.375 32.7904 76.3945 31.8594V30.8242ZM74.7051 29.5254C75.2194 29.4603 75.5872 29.3789 75.8086 29.2812C76.2057 29.112 76.4043 28.8483 76.4043 28.4902C76.4043 28.054 76.2513 27.7546 75.9453 27.5918C75.6458 27.4225 75.2031 27.3379 74.6172 27.3379C73.9596 27.3379 73.4941 27.5007 73.2207 27.8262C73.0254 28.0671 72.8952 28.3926 72.8301 28.8027H70.1445C70.2031 27.8717 70.4635 27.1068 70.9258 26.5078C71.6615 25.5703 72.9245 25.1016 74.7148 25.1016C75.8802 25.1016 76.9154 25.3327 77.8203 25.7949C78.7253 26.2572 79.1777 27.1296 79.1777 28.4121V33.2949C79.1777 33.6335 79.1842 34.0436 79.1973 34.5254C79.2168 34.89 79.2721 35.1374 79.3633 35.2676C79.4544 35.3978 79.5911 35.5052 79.7734 35.5898V36H76.7461C76.6615 35.7852 76.6029 35.5833 76.5703 35.3945C76.5378 35.2057 76.5117 34.9909 76.4922 34.75C76.1081 35.1667 75.6654 35.5215 75.1641 35.8145C74.5651 36.1595 73.888 36.332 73.1328 36.332C72.1693 36.332 71.3717 36.0586 70.7402 35.5117C70.1152 34.9583 69.8027 34.1771 69.8027 33.168C69.8027 31.8594 70.3073 30.9121 71.3164 30.3262C71.8698 30.0072 72.6836 29.7793 73.7578 29.6426L74.7051 29.5254ZM88.0156 29.1738C87.9635 28.7767 87.8301 28.4186 87.6152 28.0996C87.3027 27.6699 86.8177 27.4551 86.1602 27.4551C85.2227 27.4551 84.5814 27.9206 84.2363 28.8516C84.054 29.3464 83.9629 30.0039 83.9629 30.8242C83.9629 31.6055 84.054 32.2337 84.2363 32.709C84.5684 33.5944 85.1934 34.0371 86.1113 34.0371C86.7624 34.0371 87.2246 33.8613 87.498 33.5098C87.7715 33.1582 87.9375 32.7025 87.9961 32.1426H90.8379C90.7728 32.9889 90.4668 33.7897 89.9199 34.5449C89.0475 35.7624 87.7552 36.3711 86.043 36.3711C84.3307 36.3711 83.071 35.8633 82.2637 34.8477C81.4564 33.832 81.0527 32.5137 81.0527 30.8926C81.0527 29.0632 81.4987 27.6406 82.3906 26.625C83.2826 25.6094 84.513 25.1016 86.082 25.1016C87.4167 25.1016 88.5072 25.401 89.3535 26C90.2064 26.599 90.7109 27.6569 90.8672 29.1738H88.0156ZM96.9902 27.3672C96.3457 27.3672 95.8444 27.569 95.4863 27.9727C95.1348 28.3763 94.9134 28.9232 94.8223 29.6133H99.1484C99.1029 28.8776 98.8783 28.321 98.4746 27.9434C98.0775 27.5592 97.5827 27.3672 96.9902 27.3672ZM96.9902 25.0723C97.8757 25.0723 98.6732 25.2383 99.3828 25.5703C100.092 25.9023 100.678 26.4264 101.141 27.1426C101.557 27.7741 101.827 28.5065 101.951 29.3398C102.023 29.8281 102.052 30.5312 102.039 31.4492H94.7539C94.793 32.5169 95.1283 33.2656 95.7598 33.6953C96.1439 33.9622 96.6061 34.0957 97.1465 34.0957C97.7194 34.0957 98.1849 33.9329 98.543 33.6074C98.7383 33.4316 98.9108 33.1875 99.0605 32.875H101.902C101.831 33.5065 101.502 34.1478 100.916 34.7988C100.005 35.834 98.7285 36.3516 97.0879 36.3516C95.7337 36.3516 94.5391 35.9154 93.5039 35.043C92.4688 34.1706 91.9512 32.7513 91.9512 30.7852C91.9512 28.9427 92.4167 27.5299 93.3477 26.5469C94.2852 25.5638 95.4993 25.0723 96.9902 25.0723ZM109.676 25.1211C111.076 25.1211 112.169 25.6257 112.957 26.6348C113.751 27.6439 114.148 28.946 114.148 30.541C114.148 32.1947 113.758 33.5651 112.977 34.6523C112.195 35.7396 111.105 36.2832 109.705 36.2832C108.826 36.2832 108.12 36.1074 107.586 35.7559C107.267 35.5475 106.922 35.1829 106.551 34.6621V36H103.826V21.625H106.6V26.7422C106.951 26.2474 107.339 25.8698 107.762 25.6094C108.263 25.2839 108.901 25.1211 109.676 25.1211ZM108.963 33.9883C109.679 33.9883 110.236 33.6986 110.633 33.1191C111.03 32.5397 111.229 31.778 111.229 30.834C111.229 30.0788 111.131 29.4538 110.936 28.959C110.564 28.0215 109.881 27.5527 108.885 27.5527C107.876 27.5527 107.182 28.0117 106.805 28.9297C106.609 29.418 106.512 30.0495 106.512 30.8242C106.512 31.7357 106.714 32.4909 107.117 33.0898C107.521 33.6888 108.136 33.9883 108.963 33.9883ZM120.926 34.0371C121.74 34.0371 122.365 33.7474 122.801 33.168C123.237 32.5885 123.455 31.765 123.455 30.6973C123.455 29.6296 123.237 28.8092 122.801 28.2363C122.365 27.6569 121.74 27.3672 120.926 27.3672C120.112 27.3672 119.484 27.6569 119.041 28.2363C118.605 28.8092 118.387 29.6296 118.387 30.6973C118.387 31.765 118.605 32.5885 119.041 33.168C119.484 33.7474 120.112 34.0371 120.926 34.0371ZM126.375 30.6973C126.375 32.2598 125.926 33.5977 125.027 34.7109C124.129 35.8177 122.765 36.3711 120.936 36.3711C119.106 36.3711 117.742 35.8177 116.844 34.7109C115.945 33.5977 115.496 32.2598 115.496 30.6973C115.496 29.1608 115.945 27.8294 116.844 26.7031C117.742 25.5768 119.106 25.0137 120.936 25.0137C122.765 25.0137 124.129 25.5768 125.027 26.7031C125.926 27.8294 126.375 29.1608 126.375 30.6973ZM133.152 34.0371C133.966 34.0371 134.591 33.7474 135.027 33.168C135.464 32.5885 135.682 31.765 135.682 30.6973C135.682 29.6296 135.464 28.8092 135.027 28.2363C134.591 27.6569 133.966 27.3672 133.152 27.3672C132.339 27.3672 131.71 27.6569 131.268 28.2363C130.831 28.8092 130.613 29.6296 130.613 30.6973C130.613 31.765 130.831 32.5885 131.268 33.168C131.71 33.7474 132.339 34.0371 133.152 34.0371ZM138.602 30.6973C138.602 32.2598 138.152 33.5977 137.254 34.7109C136.355 35.8177 134.992 36.3711 133.162 36.3711C131.333 36.3711 129.969 35.8177 129.07 34.7109C128.172 33.5977 127.723 32.2598 127.723 30.6973C127.723 29.1608 128.172 27.8294 129.07 26.7031C129.969 25.5768 131.333 25.0137 133.162 25.0137C134.992 25.0137 136.355 25.5768 137.254 26.7031C138.152 27.8294 138.602 29.1608 138.602 30.6973ZM140.574 21.6543H143.309V29.4082L146.775 25.4043H150.223L146.502 29.4766L150.369 36H147.01L144.461 31.4492L143.309 32.6504V36H140.574V21.6543Z" fill="white"/>
</g>
<defs>
<filter id="filter0_dd" x="0" y="0" width="206" height="62" filterUnits="userSpaceOnUse" color-interpolation-filters="sRGB">
<feFlood flood-opacity="0" result="BackgroundImageFix"/>
<feColorMatrix in="SourceAlpha" type="matrix" values="0 0 0 0 0 0 0 0 0 0 0 0 0 0 0 0 0 0 127 0" result="hardAlpha"/>
<feOffset dy="2"/>
<feGaussianBlur stdDeviation="1.5"/>
<feColorMatrix type="matrix" values="0 0 0 0 0 0 0 0 0 0 0 0 0 0 0 0 0 0 0.168 0"/>
<feBlend mode="normal" in2="BackgroundImageFix" result="effect1_dropShadow"/>
<feColorMatrix in="SourceAlpha" type="matrix" values="0 0 0 0 0 0 0 0 0 0 0 0 0 0 0 0 0 0 127 0" result="hardAlpha"/>
<feOffset/>
<feGaussianBlur stdDeviation="1.5"/>
<feColorMatrix type="matrix" values="0 0 0 0 0 0 0 0 0 0 0 0 0 0 0 0 0 0 0.084 0"/>
<feBlend mode="normal" in2="effect1_dropShadow" result="effect2_dropShadow"/>
<feBlend mode="normal" in="SourceGraphic" in2="effect2_dropShadow" result="shape"/>
</filter>
</defs>
</svg>
