<svg width="367" height="200" viewBox="0 0 367 200" fill="none" xmlns="http://www.w3.org/2000/svg">
<g clip-path="url(#clip0)">
<path d="M346.144 182.14C353.946 188.793 355.565 199.705 355.565 199.705C355.565 199.705 344.535 199.83 336.733 193.177C328.93 186.524 327.311 175.612 327.311 175.612C327.311 175.612 338.342 175.487 346.144 182.14Z" fill="#F2F2F2"/>
<path d="M342.539 184.787C345.863 194.487 355.418 200 355.418 200C355.418 200 359.584 189.786 356.261 180.086C352.937 170.386 343.382 164.873 343.382 164.873C343.382 164.873 339.216 175.087 342.539 184.787Z" fill="#F2F2F2"/>
<path d="M261.099 41.2751C262.864 38.9877 265.359 36.8711 265.517 34.0484C265.662 31.4595 263.732 28.889 264.546 26.4122C265.172 24.5078 267.237 23.3587 269.255 22.7502C273.119 21.6019 277.253 21.7611 281.017 23.203L280.813 23.0589C283.11 22.2406 285.795 23.0854 287.603 24.6501C289.41 26.2147 290.484 28.3835 291.318 30.5568C292.152 32.7302 292.797 34.9831 293.955 37.0206C295.114 39.0581 296.887 40.9111 299.227 41.6153C298.443 43.1776 295.995 43.7136 294.559 42.6371C294.192 42.3391 293.862 41.9982 293.577 41.6217C292.619 40.4571 291.661 39.2925 290.703 38.1279C289.718 39.8806 291.19 42.2997 289.979 43.9223C289.354 44.7591 288.213 45.0769 287.154 45.3048C278.873 47.0717 270.282 46.7531 262.155 44.3776C261.502 44.1851 260.781 43.92 260.51 43.3288C260.197 42.6462 260.635 41.8767 261.099 41.2751Z" fill="#262626"/>
<path d="M237.618 50.202C237.67 50.4293 237.703 50.6604 237.719 50.8931L255.819 61.3348L260.218 58.8022L264.908 64.9421L257.556 70.1826C256.962 70.606 256.246 70.8252 255.517 70.8075C254.788 70.7897 254.084 70.5359 253.511 70.0841L234.847 55.3598C234.005 55.6716 233.088 55.7196 232.217 55.4973C231.347 55.2751 230.565 54.7932 229.976 54.1157C229.386 53.4382 229.017 52.5972 228.917 51.7046C228.816 50.8121 228.991 49.9102 229.416 49.119C229.841 48.3277 230.496 47.6846 231.296 47.2753C232.095 46.8659 233 46.7096 233.891 46.8271C234.781 46.9447 235.615 47.3306 236.281 47.9334C236.946 48.5363 237.413 49.3276 237.618 50.202Z" fill="#FFB7B7"/>
<path d="M256.424 61.8292L262.274 69.4109C262.441 69.6266 262.652 69.8039 262.893 69.9308C263.134 70.0576 263.4 70.131 263.672 70.1459C263.944 70.1608 264.216 70.1169 264.469 70.0171C264.723 69.9174 264.952 69.7642 265.141 69.5679L271.763 62.6911C272.864 61.8337 273.579 60.5748 273.752 59.1907C273.925 57.8065 273.542 56.4102 272.687 55.3083C271.831 54.2064 270.574 53.4889 269.19 53.3134C267.806 53.1378 266.409 53.5185 265.306 54.372L257 59.0164C256.762 59.1494 256.556 59.3321 256.395 59.5521C256.234 59.7721 256.123 60.0241 256.068 60.2911C256.013 60.558 256.017 60.8336 256.078 61.099C256.14 61.3644 256.258 61.6135 256.424 61.8292H256.424Z" fill="#0072EF"/>
<path d="M264.475 193.931L259.309 193.93L256.852 174.006L264.476 174.006L264.475 193.931Z" fill="#FFB7B7"/>
<path d="M265.793 192.245L255.62 192.244H255.62C253.9 192.244 252.251 192.927 251.036 194.143C249.82 195.359 249.137 197.008 249.137 198.727V198.938L265.793 198.938L265.793 192.245Z" fill="#262626"/>
<path d="M299.868 193.931L294.703 193.93L292.245 174.006L299.869 174.006L299.868 193.931Z" fill="#FFB7B7"/>
<path d="M301.186 192.245L291.013 192.244H291.012C289.293 192.244 287.644 192.927 286.428 194.143C285.212 195.359 284.529 197.008 284.529 198.727V198.938L301.185 198.938L301.186 192.245Z" fill="#262626"/>
<path d="M267.577 38.4589C267.039 33.5579 270.576 29.1487 275.477 28.6107C280.378 28.0727 284.788 31.6097 285.326 36.5107C285.864 41.4117 282.327 45.8209 277.426 46.3589C272.525 46.8969 268.115 43.36 267.577 38.4589Z" fill="#FFB7B7"/>
<path d="M271.228 50.8672L265.969 53.4727C265.969 53.4727 260.093 63.6848 263.463 73.3758C265.1 78.0808 260.491 93.0791 260.491 93.0791C260.491 93.0791 253.351 161.016 253.329 181.983C262.199 183.347 270.626 185.032 271.048 180.819C271.469 176.605 276.081 126.787 276.081 126.787C276.081 126.787 282.424 182.083 287.48 182.926C292.536 183.768 302.648 182.504 302.648 182.504C302.648 182.504 294.62 101.506 289.143 96.4499L288.3 92.2364L288.323 54.4152L282.012 51.4036L271.228 50.8672Z" fill="#0050B3"/>
<path d="M290.043 108.285C289.461 107.97 288.955 107.531 288.561 106.999C288.167 106.468 287.894 105.856 287.762 105.208C287.629 104.56 287.641 103.89 287.795 103.247C287.95 102.603 288.244 102.002 288.656 101.484L282.539 60.7137L290.531 60.3301L295.299 100.931C296.122 101.682 296.642 102.708 296.76 103.816C296.877 104.924 296.584 106.036 295.937 106.943C295.289 107.849 294.331 108.486 293.245 108.733C292.158 108.981 291.019 108.821 290.043 108.285Z" fill="#FFB7B7"/>
<path d="M282.712 70.9292L292.269 70.3258C292.541 70.3087 292.806 70.2331 293.046 70.1043C293.286 69.9754 293.496 69.7964 293.661 69.5793C293.825 69.3622 293.941 69.1121 294 68.8462C294.06 68.5803 294.061 68.3047 294.004 68.0382L292.013 58.701C291.917 57.3101 291.274 56.0138 290.224 55.0964C289.174 54.179 287.803 53.7154 286.412 53.8074C285.021 53.8993 283.723 54.5392 282.803 55.5868C281.883 56.6343 281.416 58.004 281.504 59.3954L280.703 68.8779C280.681 69.1494 280.716 69.4227 280.809 69.679C280.901 69.9354 281.047 70.1689 281.238 70.3636C281.429 70.5582 281.659 70.7095 281.913 70.8071C282.168 70.9047 282.44 70.9464 282.712 70.9292L282.712 70.9292Z" fill="#0072EF"/>
<path d="M18.579 32.2686H229.923C231.466 32.2686 232.946 32.8814 234.036 33.9723C235.127 35.0633 235.74 36.5429 235.74 38.0856V155.843C235.74 157.385 235.127 158.865 234.036 159.956C232.946 161.047 231.466 161.66 229.923 161.66H18.579C17.0362 161.66 15.5566 161.047 14.4657 159.956C13.3748 158.865 12.7619 157.385 12.7619 155.843V38.0856C12.7619 36.5429 13.3748 35.0633 14.4657 33.9723C15.5566 32.8814 17.0362 32.2686 18.579 32.2686Z" fill="#3F3D56"/>
<path d="M20.5611 42.5488H227.941V159.533H20.5611V42.5488Z" fill="white"/>
<path d="M124.428 39.3584C123.254 39.3584 122.301 38.4062 122.301 37.2315C122.301 36.0568 123.254 35.1045 124.428 35.1045C125.603 35.1045 126.555 36.0568 126.555 37.2315C126.555 38.4062 125.603 39.3584 124.428 39.3584Z" fill="white"/>
<path d="M79.8685 159.533H227.941V42.5488L79.8685 159.533Z" fill="#F2F2F2"/>
<path d="M6.93915 157.406H27.1781V155.947C27.1781 155.871 27.2086 155.797 27.2628 155.743C27.317 155.689 27.3906 155.658 27.4673 155.658H34.4064C34.4444 155.658 34.4819 155.666 34.517 155.68C34.5521 155.695 34.584 155.716 34.6108 155.743C34.6377 155.77 34.659 155.802 34.6735 155.837C34.688 155.872 34.6955 155.909 34.6955 155.947V157.406H39.0324V155.947C39.0324 155.909 39.0399 155.872 39.0544 155.837C39.0689 155.802 39.0902 155.77 39.1171 155.743C39.1439 155.716 39.1758 155.695 39.2108 155.68C39.2459 155.666 39.2835 155.658 39.3215 155.658H46.2606C46.2986 155.658 46.3361 155.666 46.3712 155.68C46.4063 155.695 46.4382 155.716 46.465 155.743C46.4919 155.77 46.5132 155.802 46.5277 155.837C46.5422 155.872 46.5497 155.909 46.5497 155.947V157.406H50.8866V155.947C50.8866 155.909 50.8941 155.872 50.9086 155.837C50.9232 155.802 50.9445 155.77 50.9713 155.743C50.9982 155.716 51.03 155.695 51.0651 155.68C51.1002 155.666 51.1378 155.658 51.1757 155.658H58.1149C58.1528 155.658 58.1904 155.666 58.2255 155.68C58.2606 155.695 58.2924 155.716 58.3193 155.743C58.3461 155.77 58.3674 155.802 58.382 155.837C58.3965 155.872 58.404 155.909 58.404 155.947V157.406H62.7409V155.947C62.7409 155.909 62.7484 155.872 62.7629 155.837C62.7774 155.802 62.7987 155.77 62.8256 155.743C62.8524 155.716 62.8843 155.695 62.9194 155.68C62.9544 155.666 62.992 155.658 63.03 155.658H69.9691C70.0071 155.658 70.0446 155.666 70.0797 155.68C70.1148 155.695 70.1467 155.716 70.1735 155.743C70.2004 155.77 70.2217 155.802 70.2362 155.837C70.2507 155.872 70.2582 155.909 70.2582 155.947V157.406H74.5951V155.947C74.5951 155.909 74.6026 155.872 74.6171 155.837C74.6317 155.802 74.653 155.77 74.6798 155.743C74.7066 155.716 74.7385 155.695 74.7736 155.68C74.8087 155.666 74.8463 155.658 74.8843 155.658H81.8233C81.8613 155.658 81.8989 155.666 81.934 155.68C81.9691 155.695 82.0009 155.716 82.0278 155.743C82.0546 155.77 82.0759 155.802 82.0905 155.837C82.105 155.872 82.1125 155.909 82.1125 155.947V157.406H86.4494V155.947C86.4494 155.909 86.4569 155.872 86.4714 155.837C86.4859 155.802 86.5072 155.77 86.5341 155.743C86.5609 155.716 86.5928 155.695 86.6279 155.68C86.663 155.666 86.7006 155.658 86.7385 155.658H93.6776C93.7156 155.658 93.7532 155.666 93.7882 155.68C93.8233 155.695 93.8552 155.716 93.882 155.743C93.9089 155.77 93.9302 155.802 93.9447 155.837C93.9593 155.872 93.9667 155.909 93.9667 155.947V157.406H98.3036V155.947C98.3036 155.909 98.3111 155.872 98.3257 155.837C98.3402 155.802 98.3615 155.77 98.3883 155.743C98.4152 155.716 98.4471 155.695 98.4821 155.68C98.5172 155.666 98.5548 155.658 98.5928 155.658H152.949C152.987 155.658 153.024 155.666 153.06 155.68C153.095 155.695 153.126 155.716 153.153 155.743C153.18 155.77 153.201 155.802 153.216 155.837C153.231 155.872 153.238 155.909 153.238 155.947V157.406H157.575V155.947C157.575 155.909 157.582 155.872 157.597 155.837C157.611 155.802 157.633 155.77 157.66 155.743C157.686 155.716 157.718 155.695 157.753 155.68C157.788 155.666 157.826 155.658 157.864 155.658H164.803C164.841 155.658 164.879 155.666 164.914 155.68C164.949 155.695 164.981 155.716 165.008 155.743C165.034 155.77 165.056 155.802 165.07 155.837C165.085 155.872 165.092 155.909 165.092 155.947V157.406H169.429V155.947C169.429 155.909 169.437 155.872 169.451 155.837C169.466 155.802 169.487 155.77 169.514 155.743C169.541 155.716 169.573 155.695 169.608 155.68C169.643 155.666 169.68 155.658 169.718 155.658H176.657C176.695 155.658 176.733 155.666 176.768 155.68C176.803 155.695 176.835 155.716 176.862 155.743C176.889 155.77 176.91 155.802 176.925 155.837C176.939 155.872 176.947 155.909 176.947 155.947V157.406H181.283V155.947C181.283 155.909 181.291 155.872 181.305 155.837C181.32 155.802 181.341 155.77 181.368 155.743C181.395 155.716 181.427 155.695 181.462 155.68C181.497 155.666 181.535 155.658 181.573 155.658H188.512C188.55 155.658 188.587 155.666 188.622 155.68C188.657 155.695 188.689 155.716 188.716 155.743C188.743 155.77 188.764 155.802 188.779 155.837C188.793 155.872 188.801 155.909 188.801 155.947V157.406H193.138V155.947C193.138 155.909 193.145 155.872 193.16 155.837C193.174 155.802 193.196 155.77 193.222 155.743C193.249 155.716 193.281 155.695 193.316 155.68C193.351 155.666 193.389 155.658 193.427 155.658H200.366C200.404 155.658 200.441 155.666 200.477 155.68C200.512 155.695 200.544 155.716 200.57 155.743C200.597 155.77 200.619 155.802 200.633 155.837C200.648 155.872 200.655 155.909 200.655 155.947V157.406H204.992V155.947C204.992 155.909 204.999 155.872 205.014 155.837C205.029 155.802 205.05 155.77 205.077 155.743C205.104 155.716 205.135 155.695 205.17 155.68C205.206 155.666 205.243 155.658 205.281 155.658H212.22C212.297 155.658 212.37 155.689 212.425 155.743C212.479 155.797 212.509 155.871 212.509 155.947V157.406H216.846V155.947C216.846 155.909 216.854 155.872 216.868 155.837C216.883 155.802 216.904 155.77 216.931 155.743C216.958 155.716 216.99 155.695 217.025 155.68C217.06 155.666 217.097 155.658 217.135 155.658H224.074C224.151 155.658 224.225 155.689 224.279 155.743C224.333 155.797 224.364 155.871 224.364 155.947V157.406H237.663C238.575 157.406 239.477 157.585 240.319 157.934C241.161 158.282 241.926 158.794 242.57 159.438C243.214 160.082 243.726 160.847 244.074 161.689C244.423 162.531 244.603 163.433 244.603 164.345V167.482C244.603 169.323 243.871 171.088 242.57 172.389C241.269 173.69 239.504 174.421 237.663 174.421H6.93915C5.09879 174.421 3.3338 173.69 2.03247 172.389C0.73114 171.088 7.62939e-05 169.323 6.10352e-05 167.482V164.345C6.10352e-05 163.433 0.17952 162.531 0.528244 161.689C0.876968 160.847 1.38812 160.082 2.03247 159.438C2.67682 158.794 3.44179 158.282 4.28368 157.934C5.12556 157.585 6.02789 157.406 6.93915 157.406Z" fill="#3F3D56"/>
<path d="M120.262 144.193C120.331 144.358 120.409 144.519 120.495 144.675C120.948 145.51 121.587 146.229 122.363 146.776C123.282 147.423 124.361 147.805 125.483 147.881C126.604 147.956 127.724 147.722 128.722 147.205C129.719 146.687 130.556 145.905 131.139 144.945C131.723 143.984 132.031 142.882 132.031 141.758V140.768H131.191C127.925 142.878 124.148 144.062 120.262 144.193Z" fill="#3F3D56"/>
<path d="M108.269 141.058V141.758C108.268 143.122 108.722 144.447 109.558 145.523C110.395 146.6 111.566 147.368 112.888 147.705C114.209 148.041 115.605 147.928 116.855 147.383C118.105 146.838 119.138 145.892 119.79 144.695C119.88 144.535 119.961 144.37 120.033 144.201C119.854 144.206 119.677 144.208 119.497 144.208C115.536 144.213 111.65 143.123 108.269 141.058Z" fill="#3F3D56"/>
<path d="M100.001 66.9901C100.186 66.9631 100.372 66.9459 100.559 66.9336C98.4366 71.8249 98.2895 77.3478 100.149 82.3452C99.9618 82.3231 99.7775 82.2936 99.5932 82.2592C97.7934 81.9105 96.1757 80.9344 95.0282 79.5047C93.8806 78.075 93.2776 76.2844 93.3266 74.4517C93.3756 72.6191 94.0733 70.8633 95.2956 69.4969C96.5178 68.1305 98.1853 67.2422 100.001 66.9901Z" fill="#3F3D56"/>
<path d="M138.436 66.9336C138.623 66.9459 138.809 66.9631 138.994 66.9901C140.809 67.2422 142.477 68.1306 143.699 69.4969C144.921 70.8633 145.619 72.6191 145.668 74.4518C145.717 76.2844 145.114 78.0749 143.967 79.5046C142.819 80.9343 141.201 81.9105 139.402 82.2592C139.217 82.2936 139.033 82.3231 138.846 82.3452C140.705 77.3478 140.558 71.8249 138.436 66.9336Z" fill="#3F3D56"/>
<path d="M100.001 66.9896C102.026 62.1535 105.776 58.2426 110.523 56.0167C115.27 53.7909 120.674 53.4089 125.687 54.9451C130.7 56.4813 134.963 59.826 137.647 64.3294C140.332 68.8327 141.247 74.1732 140.214 79.3133C139.181 84.4534 136.275 89.0261 132.059 92.143C127.843 95.26 122.62 96.6987 117.403 96.1796C112.185 95.6605 107.348 93.2206 103.829 89.3341C100.31 85.4475 98.3616 80.3917 98.362 75.1489C98.3631 72.3474 98.9203 69.5741 100.001 66.9896ZM100.149 82.3447C101.946 87.1771 105.488 91.1616 110.076 93.514C114.664 95.8663 119.966 96.4161 124.94 95.0552C129.913 93.6943 134.196 90.5212 136.947 86.1605C139.698 81.7997 140.717 76.5672 139.804 71.4928C138.891 66.4184 136.111 61.8696 132.012 58.7417C127.913 55.6139 122.792 54.1335 117.657 54.592C112.521 55.0505 107.743 57.4147 104.263 61.2192C100.783 65.0237 98.8535 69.9929 98.8536 75.1489C98.8544 77.6054 99.2929 80.0421 100.149 82.3447Z" fill="#3F3D56"/>
<path d="M108.684 70.3574H130.311C131.452 70.3574 132.546 70.8105 133.352 71.6171C134.159 72.4237 134.612 73.5176 134.612 74.6582C134.612 75.7989 134.159 76.8928 133.352 77.6994C132.546 78.5059 131.452 78.959 130.311 78.959H108.684C107.543 78.959 106.45 78.5059 105.643 77.6994C104.836 76.8928 104.383 75.7989 104.383 74.6582C104.383 73.5176 104.836 72.4237 105.643 71.6171C106.45 70.8105 107.543 70.3574 108.684 70.3574Z" fill="#3F3D56"/>
<path d="M100.149 111.876C100.227 111.73 100.309 111.588 100.392 111.448C100.394 111.443 100.397 111.44 100.399 111.436C102.333 108.125 105.094 105.375 108.412 103.454C111.73 101.533 115.49 100.508 119.323 100.479C123.157 100.45 126.932 101.419 130.278 103.289C133.625 105.16 136.427 107.868 138.41 111.149C140.394 114.43 141.49 118.17 141.592 122.002C141.693 125.834 140.797 129.627 138.99 133.008C137.183 136.389 134.528 139.243 131.286 141.288C128.043 143.333 124.325 144.5 120.495 144.675C120.262 144.687 120.026 144.694 119.79 144.694C119.692 144.699 119.596 144.699 119.497 144.699C115.546 144.705 111.667 143.644 108.269 141.63C104.577 139.445 101.595 136.24 99.6818 132.401C99.6794 132.396 99.6769 132.394 99.6745 132.389C99.6007 132.242 99.5294 132.092 99.4581 131.939C97.9801 128.778 97.272 125.312 97.3921 121.824C97.5121 118.337 98.4568 114.927 100.149 111.876H100.149ZM99.9374 131.804C100.009 131.957 100.082 132.106 100.159 132.254C101.987 135.888 104.796 138.938 108.269 141.057C111.65 143.122 115.536 144.212 119.497 144.208C119.677 144.208 119.854 144.205 120.033 144.2C120.109 144.2 120.186 144.198 120.262 144.193C124.014 144.062 127.668 142.956 130.863 140.984C134.058 139.013 136.685 136.243 138.485 132.948C140.285 129.653 141.197 125.946 141.129 122.192C141.062 118.438 140.018 114.766 138.101 111.538C136.184 108.31 133.459 105.636 130.195 103.78C126.931 101.924 123.241 100.95 119.486 100.954C115.731 100.957 112.042 101.939 108.782 103.801C105.521 105.662 102.802 108.341 100.891 111.573C100.889 111.578 100.886 111.581 100.884 111.586C100.798 111.726 100.714 111.868 100.635 112.011C98.9487 115.015 98.0054 118.379 97.8839 121.823C97.7625 125.266 98.4666 128.688 99.9374 131.804Z" fill="#3F3D56"/>
<path d="M102.498 112.529C102.929 112.222 103.444 112.056 103.973 112.055H113.639C114.312 112.055 114.958 112.322 115.434 112.798C115.91 113.274 116.177 113.92 116.177 114.593C116.177 115.267 115.91 115.912 115.434 116.389C114.958 116.865 114.312 117.132 113.639 117.132H103.973C103.8 117.133 103.628 117.115 103.459 117.08C103.291 117.044 103.126 116.992 102.968 116.926C102.554 116.748 102.196 116.463 101.929 116.101C101.662 115.739 101.496 115.312 101.448 114.864C101.401 114.417 101.473 113.965 101.657 113.555C101.842 113.144 102.132 112.79 102.498 112.529L102.498 112.529Z" fill="#3F3D56"/>
<path d="M112.995 115.882C112.283 115.882 111.706 115.305 111.706 114.594C111.706 113.882 112.283 113.305 112.995 113.305C113.707 113.305 114.284 113.882 114.284 114.594C114.284 115.305 113.707 115.882 112.995 115.882Z" fill="#F1F1F1"/>
<path d="M108.806 115.882C108.094 115.882 107.517 115.305 107.517 114.594C107.517 113.882 108.094 113.305 108.806 113.305C109.518 113.305 110.095 113.882 110.095 114.594C110.095 115.305 109.518 115.882 108.806 115.882Z" fill="#F1F1F1"/>
<path d="M104.617 115.882C103.906 115.882 103.328 115.305 103.328 114.594C103.328 113.882 103.906 113.305 104.617 113.305C105.329 113.305 105.906 113.882 105.906 114.594C105.906 115.305 105.329 115.882 104.617 115.882Z" fill="#0072EF"/>
<path d="M56.074 72.1146C59.4258 74.1248 65.3975 76.6435 71.5 74.055L75.4448 72.3817L67.5397 63.5203C73.8479 56.565 77.3377 47.5085 77.3281 38.1187C77.3185 28.7289 73.8101 19.6796 67.4878 12.7372C61.1654 5.79484 52.4829 1.45761 43.1349 0.572132C33.7869 -0.313345 24.4444 2.31648 16.931 7.94829C9.41757 13.5801 4.27248 21.8097 2.49998 31.0307C0.727486 40.2517 2.4548 49.8023 7.34479 57.8184C12.2348 65.8344 19.9364 71.7405 28.9465 74.3839C37.9566 77.0273 47.6284 76.2182 56.074 72.1146Z" fill="white"/>
<path d="M56.0533 72.5922C59.2741 74.4831 65.4093 77.0964 71.6644 74.4428L76.1504 72.5399L68.1051 63.5213C73.1109 57.8906 76.3386 50.9045 77.3818 43.443C78.425 35.9814 77.2369 28.378 73.9673 21.5903C70.6976 14.8026 65.4926 9.13419 59.0077 5.2989C52.5228 1.46361 45.0481 -0.367037 37.5248 0.0375074C30.0015 0.442052 22.7662 3.0637 16.7299 7.57228C10.6937 12.0809 6.12655 18.2748 3.60364 25.3739C1.08073 32.4731 0.714882 40.1601 2.55218 47.4667C4.38947 54.7734 8.34775 61.3731 13.9285 66.4346C19.5332 71.5486 26.5404 74.8679 34.0478 75.9653C41.5552 77.0627 49.2193 75.8879 56.0533 72.5922H56.0533ZM11.9216 13.0774C15.2147 9.44454 19.1913 6.49601 23.6241 4.4002C28.057 2.30439 32.8593 1.10237 37.7567 0.862787C42.6542 0.623201 47.5509 1.35074 52.1671 3.00386C56.7834 4.65698 61.0288 7.20329 64.6608 10.4974C68.2928 13.7914 71.2403 17.7687 73.335 22.2021C75.4297 26.6355 76.6305 31.4381 76.8689 36.3356C77.1072 41.2331 76.3784 46.1296 74.7242 50.7455C73.0699 55.3613 70.5225 59.606 67.2275 63.2372L66.9729 63.5181L74.7388 72.2235L71.3353 73.6672C65.2943 76.2298 59.3163 73.5678 56.2906 71.7532L56.095 71.6357L55.8897 71.7355C48.09 75.5254 39.2142 76.4817 30.7862 74.4403C22.3581 72.3989 14.9036 67.4872 9.70252 60.5483C4.5014 53.6095 1.8781 45.0765 2.28302 36.4142C2.68794 27.7519 6.09581 19.5008 11.9216 13.0774L11.9216 13.0774Z" fill="#0072EF"/>
<path opacity="0.1" d="M7.70262 37.9222C7.70316 29.2397 10.9545 20.8721 16.8165 14.4671C22.6784 8.06214 30.726 4.08407 39.3745 3.3163C38.3625 3.22765 37.3388 3.17969 36.3038 3.17969C27.0931 3.18524 18.2616 6.84806 11.7507 13.3629C5.2397 19.8778 1.58221 28.7116 1.58221 37.9222C1.58221 47.1329 5.2397 55.9666 11.7507 62.4815C18.2616 68.9964 27.0931 72.6592 36.3038 72.6648C37.3373 72.6648 38.3592 72.6162 39.3697 72.5277C30.7221 71.7588 22.6757 67.7803 16.8148 61.3756C10.9539 54.9708 7.70316 46.6039 7.70262 37.9222Z" fill="black"/>
<path d="M34.672 30.9941H59.4976V33.2995H34.672V30.9941Z" fill="#0072EF"/>
<path d="M16.2288 38.9688H59.4976V41.2742H16.2288V38.9688Z" fill="#0072EF"/>
<path d="M16.2711 46.9443H59.4976V49.2497H16.2711V46.9443Z" fill="#0072EF"/>
<path d="M205.187 199.378H365.719C365.831 199.378 365.938 199.333 366.017 199.254C366.096 199.175 366.141 199.068 366.141 198.957C366.141 198.845 366.096 198.738 366.017 198.659C365.938 198.58 365.831 198.535 365.719 198.535H205.187C205.075 198.535 204.968 198.58 204.889 198.659C204.81 198.738 204.765 198.845 204.765 198.957C204.765 199.068 204.81 199.175 204.889 199.254C204.968 199.333 205.075 199.378 205.187 199.378Z" fill="#CBCBCB"/>
<path d="M267.095 31.681C267.443 30.1029 268.572 28.7954 269.874 27.8378C272.02 26.2593 274.651 25.4833 277.31 25.645C279.969 25.8067 282.487 26.8958 284.426 28.7227C285.51 29.6795 286.29 30.9313 286.674 32.3249C286.856 33.0214 286.866 33.7521 286.702 34.4533C286.538 35.1544 286.205 35.8049 285.732 36.3479L285.554 36.4596C285.715 35.7737 285.183 35.0883 284.546 34.7856C283.884 34.5427 283.193 34.3877 282.49 34.3248C281.428 34.1239 280.421 33.6973 279.537 33.0738C278.653 32.4502 277.914 31.6442 277.368 30.7103C276.964 31.8598 276.319 32.9093 275.475 33.7885C274.631 34.6676 273.609 35.3559 272.478 35.8071C271.298 36.2685 268.057 36.9031 266.934 36.3172C265.501 35.57 266.747 33.2591 267.095 31.681Z" fill="#262626"/>
<path d="M275.517 64.769C275.44 64.7743 275.364 64.7747 275.287 64.7704C274.952 64.7531 274.629 64.6401 274.356 64.4448C274.083 64.2494 273.872 63.9799 273.748 63.6683L269.398 52.9263C269.288 52.6546 269.281 52.3526 269.378 52.0761C269.474 51.7996 269.667 51.5673 269.921 51.4221L270.033 51.359C270.135 51.3015 270.236 51.2446 270.34 51.1897C271.957 50.2979 273.749 49.7668 275.591 49.6326C277.983 49.4704 280.371 50.0103 282.461 51.186C282.741 51.3457 282.947 51.6091 283.036 51.9195C283.124 52.2298 283.086 52.5624 282.931 52.8455L276.941 63.8503C276.801 64.1114 276.597 64.3327 276.347 64.4934C276.098 64.6541 275.813 64.7489 275.517 64.769Z" fill="#80D89F"/>
</g>
<defs>
<clipPath id="clip0">
<rect width="366.141" height="200" fill="white" transform="matrix(-1 0 0 1 366.141 0)"/>
</clipPath>
</defs>
</svg>
