<svg width="332" height="234" viewBox="0 0 332 234" fill="none" xmlns="http://www.w3.org/2000/svg">
<g clip-path="url(#clip0)">
<path d="M169.559 233.504C179.545 233.504 187.64 225.409 187.64 215.422C187.64 205.435 179.545 197.339 169.559 197.339C159.574 197.339 151.479 205.435 151.479 215.422C151.479 225.409 159.574 233.504 169.559 233.504Z" fill="#0072EF"/>
<path d="M277.572 232.488C287.687 229.45 298.441 226.281 306.463 219.059C313.631 212.605 318.47 202.749 315.501 193.07C312.537 183.411 303.66 176.97 294.495 173.767C289.297 171.95 283.859 170.942 278.423 170.15C272.514 169.289 266.578 168.584 260.645 167.905C236.623 165.157 212.51 163.479 188.307 162.869C176.364 162.568 164.424 162.576 152.479 162.749C141.812 162.904 130.578 162.9 120.682 158.366C112.987 154.84 106.002 148.425 103.858 139.995C101.383 130.263 105.948 120.354 112.497 113.306C115.949 109.591 119.984 106.464 124.146 103.589C128.661 100.47 133.333 97.5723 138.107 94.8671C147.509 89.5416 157.339 85.0093 167.494 81.3174C172.504 79.4955 177.588 77.9238 182.716 76.4737C187.046 75.2493 191.39 74.0232 195.575 72.355C203.666 69.1301 211.36 63.6674 213.418 54.7119C215.367 46.2242 212.08 37.0101 206.317 30.7048C199.65 23.4099 189.597 20.2121 179.959 19.6947C169.139 19.1138 158.568 21.8222 148.398 25.2594C137.552 28.9255 126.938 33.1409 115.862 36.1104C104.879 39.0522 93.683 41.1336 82.3762 42.3358C76.8411 42.9253 71.1388 43.5909 65.5708 43.1396C60.9043 42.7614 56.2617 41.3888 52.8226 38.0766C49.8737 35.2365 48.1171 31.3333 48.721 27.2142C48.8307 26.466 49.9671 26.7841 49.858 27.5277C49.1229 32.5418 52.5307 37.1621 56.7302 39.5289C61.5836 42.2642 67.4896 42.268 72.8931 41.9551C84.6095 41.2474 96.2466 39.5649 107.684 36.9251C118.922 34.3579 129.759 30.688 140.584 26.7676C150.864 23.0443 161.375 19.4104 172.358 18.6039C181.888 17.9042 191.913 19.2927 200.215 24.2737C207.512 28.6513 212.877 35.9518 214.587 44.3292C216.257 52.5154 213.944 60.7551 207.748 66.4677C201.333 72.3825 192.536 74.9112 184.339 77.2402C173.942 80.1942 163.768 83.6471 153.92 88.1304C143.938 92.662 134.364 98.0449 125.306 104.219C116.562 110.196 107.933 117.715 105.167 128.376C103.879 133.342 104.117 138.61 106.272 143.3C108.189 147.471 111.345 150.979 115.022 153.686C123.795 160.142 134.853 161.468 145.45 161.6C157.352 161.748 169.255 161.346 181.161 161.541C205.424 161.94 229.639 163.417 253.804 165.973C259.859 166.614 265.906 167.322 271.946 168.098C277.378 168.796 282.829 169.49 288.17 170.73C297.667 172.935 306.909 177.174 312.811 185.227C315.431 188.718 317.054 192.854 317.507 197.195C317.92 201.725 316.812 206.264 314.764 210.294C310.231 219.214 301.74 224.887 292.724 228.614C287.895 230.611 282.885 232.123 277.886 233.625C277.157 233.844 276.846 232.706 277.572 232.488L277.572 232.488Z" fill="#F2F2F2"/>
<path d="M49.4825 36.7548C54.6923 36.7548 58.9157 32.5308 58.9157 27.3203C58.9157 22.1097 54.6923 17.8857 49.4825 17.8857C44.2727 17.8857 40.0493 22.1097 40.0493 27.3203C40.0493 32.5308 44.2727 36.7548 49.4825 36.7548Z" fill="#F2F2F2"/>
<path d="M114.925 54.6415C120.135 54.6415 124.359 50.4175 124.359 45.207C124.359 39.9964 120.135 35.7725 114.925 35.7725C109.716 35.7725 105.492 39.9964 105.492 45.207C105.492 50.4175 109.716 54.6415 114.925 54.6415Z" fill="#F2F2F2"/>
<path d="M170.345 18.869C175.555 18.869 179.779 14.645 179.779 9.43451C179.779 4.22397 175.555 0 170.345 0C165.136 0 160.912 4.22397 160.912 9.43451C160.912 14.645 165.136 18.869 170.345 18.869Z" fill="#F2F2F2"/>
<path d="M204.934 58.9657C210.144 58.9657 214.367 54.7417 214.367 49.5312C214.367 44.3207 210.144 40.0967 204.934 40.0967C199.724 40.0967 195.5 44.3207 195.5 49.5312C195.5 54.7417 199.724 58.9657 204.934 58.9657Z" fill="#F2F2F2"/>
<path d="M158.161 105.352C163.371 105.352 167.594 101.128 167.594 95.9179C167.594 90.7074 163.371 86.4834 158.161 86.4834C152.951 86.4834 148.728 90.7074 148.728 95.9179C148.728 101.128 152.951 105.352 158.161 105.352Z" fill="#F2F2F2"/>
<path d="M98.8102 127.759C104.02 127.759 108.243 123.535 108.243 118.324C108.243 113.114 104.02 108.89 98.8102 108.89C93.6003 108.89 89.377 113.114 89.377 118.324C89.377 123.535 93.6003 127.759 98.8102 127.759Z" fill="#F2F2F2"/>
<path d="M161.698 162.745C166.908 162.745 171.132 158.521 171.132 153.31C171.132 148.1 166.908 143.876 161.698 143.876C156.489 143.876 152.265 148.1 152.265 153.31C152.265 158.521 156.489 162.745 161.698 162.745Z" fill="#F2F2F2"/>
<path d="M229.303 182.4C234.513 182.4 238.736 178.176 238.736 172.966C238.736 167.755 234.513 163.531 229.303 163.531C224.093 163.531 219.87 167.755 219.87 172.966C219.87 178.176 224.093 182.4 229.303 182.4Z" fill="#F2F2F2"/>
<path d="M308.306 178.076C313.516 178.076 317.739 173.852 317.739 168.642C317.739 163.431 313.516 159.207 308.306 159.207C303.096 159.207 298.873 163.431 298.873 168.642C298.873 173.852 303.096 178.076 308.306 178.076Z" fill="#F2F2F2"/>
<path d="M167.622 26.7328C139.365 26.9324 116.228 49.8984 115.827 78.1573C115.823 78.4182 115.822 80.2527 115.822 82.6521C115.822 86.1702 117.219 89.5442 119.707 92.0319C122.194 94.5197 125.567 95.9174 129.085 95.9179C130.829 95.9175 132.555 95.5735 134.166 94.9055C135.777 94.2375 137.24 93.2586 138.472 92.0247C139.705 90.7909 140.682 89.3263 141.348 87.7146C142.014 86.1029 142.356 84.3758 142.355 82.6318C142.353 80.9996 142.353 79.8699 142.353 79.8006C142.352 75.4332 143.487 71.1408 145.648 67.3456C147.809 63.5505 150.921 60.3832 154.677 58.1555C158.433 55.9278 162.704 54.7164 167.07 54.6403C171.436 54.5643 175.747 55.6262 179.578 57.7218C183.409 59.8174 186.629 62.8743 188.921 66.5919C191.212 70.3095 192.497 74.5598 192.648 78.9245C192.799 83.2893 191.812 87.6182 189.783 91.4855C187.754 95.3528 184.753 98.6252 181.076 100.981L181.081 100.986C181.081 100.986 162.203 113.141 156.448 129.815L156.453 129.816C155.441 133.232 154.928 136.776 154.93 140.339C154.93 141.803 155.016 154.617 155.183 165.017C155.241 168.605 156.707 172.027 159.265 174.544C161.824 177.061 165.269 178.471 168.857 178.47C170.66 178.47 172.445 178.113 174.11 177.42C175.775 176.728 177.286 175.713 178.557 174.433C179.828 173.154 180.834 171.636 181.516 169.967C182.198 168.298 182.544 166.51 182.533 164.707C182.475 155.182 182.444 144.092 182.444 143.287C182.444 133.049 192.319 122.848 200.431 116.195C209.772 108.535 216.494 98.0955 219.194 86.3196C219.792 83.8952 220.121 81.4125 220.177 78.9161C220.177 72.0314 218.814 65.2147 216.169 58.8589C213.523 52.503 209.646 46.7335 204.761 41.8829C199.875 37.0323 194.079 33.1964 187.705 30.5963C181.331 27.9961 174.506 26.6831 167.622 26.7328Z" fill="#0072EF"/>
<path d="M331.532 234H0.46811C0.344224 233.999 0.225537 233.95 0.138063 233.862C0.0505892 233.774 0.00146484 233.655 0.00146484 233.532C0.00146484 233.408 0.0505892 233.289 0.138063 233.201C0.225537 233.113 0.344224 233.064 0.46811 233.063H331.532C331.656 233.063 331.775 233.113 331.863 233.201C331.951 233.288 332 233.407 332 233.532C332 233.656 331.951 233.775 331.863 233.863C331.775 233.95 331.656 234 331.532 234Z" fill="#3F3D56"/>
<path d="M247.012 107.316C253.524 107.316 258.804 102.036 258.804 95.5226C258.804 89.0095 253.524 83.7295 247.012 83.7295C240.5 83.7295 235.221 89.0095 235.221 95.5226C235.221 102.036 240.5 107.316 247.012 107.316Z" fill="#262626"/>
<path d="M225.222 228.838H220.404L218.111 210.249H225.224L225.222 228.838Z" fill="#FFB8B8"/>
<path d="M207.703 105.765C207.636 106.339 207.696 106.92 207.878 107.469C208.06 108.017 208.36 108.519 208.757 108.939C209.154 109.359 209.639 109.687 210.176 109.899C210.713 110.112 211.291 110.204 211.867 110.169L217.264 123.138L221.345 117.087L215.595 105.698C215.473 104.733 215 103.847 214.267 103.207C213.535 102.567 212.593 102.218 211.62 102.226C210.647 102.234 209.711 102.599 208.989 103.251C208.267 103.903 207.81 104.798 207.703 105.765L207.703 105.765Z" fill="#FFB8B8"/>
<path d="M216.962 227.46H226.255V233.312H211.111C211.111 232.544 211.262 231.783 211.556 231.073C211.85 230.363 212.281 229.717 212.825 229.174C213.368 228.631 214.013 228.2 214.723 227.905C215.433 227.611 216.194 227.46 216.962 227.46Z" fill="#262626"/>
<path d="M226.177 131.784C225.741 131.784 225.307 131.741 224.88 131.656C223.848 131.46 222.879 131.012 222.06 130.353C221.241 129.694 220.597 128.843 220.184 127.876L212.624 118.657C212.464 118.462 212.348 118.235 212.283 117.991C212.218 117.748 212.206 117.493 212.247 117.244C212.288 116.996 212.382 116.759 212.523 116.549C212.663 116.34 212.847 116.163 213.061 116.03L218.44 112.701C218.638 112.578 218.859 112.495 219.09 112.458C219.32 112.421 219.556 112.43 219.783 112.484C220.01 112.539 220.224 112.638 220.413 112.775C220.602 112.913 220.761 113.087 220.883 113.286L226.211 122.066L236.415 114.524C237.228 114.098 238.166 113.978 239.059 114.187C239.953 114.396 240.741 114.919 241.28 115.661C241.82 116.404 242.074 117.315 241.997 118.229C241.92 119.144 241.516 120 240.86 120.641L230.676 129.933C229.479 131.119 227.862 131.785 226.177 131.784Z" fill="#0072EF"/>
<path d="M262.562 228.838H257.744L255.451 210.249H262.563L262.562 228.838Z" fill="#FFB8B8"/>
<path d="M254.302 227.46H263.595V233.312H248.451C248.451 232.544 248.602 231.783 248.896 231.073C249.19 230.363 249.621 229.717 250.164 229.174C250.708 228.631 251.353 228.2 252.063 227.905C252.773 227.611 253.534 227.46 254.302 227.46Z" fill="#262626"/>
<path d="M245.22 107.385C250.552 107.385 254.874 103.063 254.874 97.7303C254.874 92.3979 250.552 88.0752 245.22 88.0752C239.889 88.0752 235.566 92.3979 235.566 97.7303C235.566 103.063 239.889 107.385 245.22 107.385Z" fill="#FFB8B8"/>
<path d="M250.974 138.532L255.293 128.606C256.342 126.278 256.643 123.681 256.154 121.174C255.665 118.668 254.409 116.375 252.562 114.612C252.182 114.237 251.779 113.886 251.355 113.562C249.224 111.895 246.597 110.986 243.891 110.979C242.072 110.987 240.275 111.386 238.624 112.151C238.483 112.214 238.345 112.281 238.204 112.347C237.932 112.477 237.665 112.619 237.406 112.764C235.714 113.736 234.274 115.092 233.202 116.722C232.13 118.353 231.456 120.213 231.235 122.152L229.328 138.127C228.849 139.381 211.743 184.667 217.726 219.24C217.789 219.61 217.969 219.949 218.24 220.208C218.51 220.468 218.856 220.634 219.227 220.683L225.292 221.509C225.735 221.569 226.184 221.46 226.55 221.202C226.915 220.945 227.169 220.558 227.261 220.121L237.437 171.608C237.501 171.307 237.663 171.035 237.899 170.837C238.135 170.639 238.43 170.526 238.738 170.515C239.046 170.505 239.348 170.598 239.597 170.78C239.846 170.961 240.026 171.221 240.11 171.518L254.488 222.535C254.59 222.905 254.811 223.232 255.117 223.465C255.423 223.698 255.797 223.824 256.182 223.824C256.296 223.823 256.411 223.813 256.524 223.793L263.933 222.366C264.363 222.285 264.748 222.047 265.012 221.697C265.276 221.347 265.4 220.911 265.36 220.475C264.271 208.332 258.485 147.507 250.974 138.532Z" fill="#0050B3"/>
<path d="M244.685 151.591C245.259 151.523 245.81 151.329 246.301 151.024C246.792 150.719 247.21 150.31 247.526 149.826C247.842 149.342 248.047 148.795 248.129 148.223C248.21 147.651 248.165 147.068 247.997 146.515L259.35 138.245L252.515 135.685L242.782 143.931C241.872 144.275 241.12 144.941 240.668 145.803C240.216 146.665 240.097 147.662 240.331 148.606C240.566 149.551 241.139 150.376 241.941 150.926C242.743 151.476 243.72 151.713 244.685 151.591Z" fill="#FFB8B8"/>
<path d="M253.749 145.651C253.736 145.651 253.722 145.651 253.708 145.651C253.46 145.644 253.216 145.586 252.992 145.48C252.768 145.374 252.568 145.222 252.407 145.033L247.625 139.454C247.462 139.264 247.341 139.041 247.27 138.801C247.2 138.561 247.181 138.309 247.215 138.061C247.25 137.813 247.336 137.575 247.469 137.363C247.602 137.151 247.778 136.969 247.986 136.831L256.941 130.86L248.829 121.106C248.357 120.32 248.184 119.389 248.341 118.485C248.498 117.582 248.976 116.764 249.686 116.183C250.395 115.602 251.291 115.296 252.208 115.321C253.125 115.345 254.002 115.699 254.68 116.317L264.539 125.953C265.315 126.662 265.908 127.549 266.265 128.537C266.623 129.526 266.736 130.586 266.594 131.628C266.452 132.669 266.059 133.66 265.45 134.517C264.84 135.373 264.032 136.069 263.095 136.544L255.037 145.095C254.871 145.271 254.672 145.41 254.45 145.506C254.229 145.601 253.99 145.651 253.749 145.651Z" fill="#0072EF"/>
<path d="M242.766 125.092C242.689 125.092 242.612 125.087 242.536 125.077C242.203 125.037 241.889 124.901 241.63 124.688C241.372 124.474 241.18 124.19 241.078 123.871L237.485 112.852C237.394 112.574 237.408 112.272 237.524 112.003C237.639 111.734 237.847 111.515 238.111 111.388L238.228 111.333C238.333 111.283 238.438 111.233 238.545 111.185C240.221 110.408 242.045 110.003 243.892 109.997C246.289 110.001 248.634 110.706 250.637 112.024C250.905 112.203 251.093 112.48 251.159 112.796C251.226 113.112 251.165 113.441 250.991 113.712L244.25 124.274C244.092 124.525 243.873 124.731 243.614 124.874C243.354 125.017 243.062 125.092 242.766 125.092Z" fill="#80D89F"/>
<path d="M256.309 90.258C258.44 90.258 260.167 88.5303 260.167 86.399C260.167 84.2678 258.44 82.54 256.309 82.54C254.178 82.54 252.45 84.2678 252.45 86.399C252.45 88.5303 254.178 90.258 256.309 90.258Z" fill="#262626"/>
<path d="M243.082 82.1572C240.371 82.1572 237.772 83.234 235.855 85.1508C233.939 87.0675 232.862 89.6672 232.862 92.3779V96.7021H238.18L240.723 92.3779L241.486 96.7021H257.624L253.301 92.3779C253.301 89.6672 252.224 87.0675 250.308 85.1508C248.391 83.234 245.792 82.1572 243.082 82.1572Z" fill="#262626"/>
<path d="M258.292 83.7556C258.718 82.4213 259.602 81.28 260.786 80.5326C261.971 79.7852 263.381 79.4794 264.769 79.6691C267.228 80.0802 269.172 82.057 270.331 84.2649C271.489 86.4728 272.024 88.9438 272.803 91.3124C273.582 93.6811 274.686 96.0626 276.652 97.5958C278.618 99.1291 281.635 99.545 283.566 97.9677C283.345 99.6115 282.613 101.144 281.474 102.349C280.335 103.555 278.845 104.371 277.217 104.683C275.588 104.995 273.902 104.787 272.398 104.089C270.894 103.39 269.648 102.237 268.835 100.791C267.816 98.9778 267.553 96.853 267.251 94.7955C266.949 92.7379 266.557 90.609 265.34 88.9223C264.124 87.2357 261.847 86.1341 259.915 86.9023L258.292 83.7556Z" fill="#262626"/>
<path d="M132.83 89.643C129.312 89.6426 125.939 88.2448 123.452 85.757C120.964 83.2693 119.567 79.8954 119.567 76.3773C119.567 73.9779 119.568 72.1433 119.572 71.8824C119.684 63.664 121.753 55.5906 125.609 48.332C119.274 57.0051 115.791 67.4326 115.641 78.1721C115.638 78.433 115.636 80.2675 115.636 82.6669C115.636 86.185 117.034 89.559 119.521 92.0467C122.008 94.5345 125.382 95.9322 128.899 95.9326C131.79 95.9315 134.601 94.9869 136.906 93.2421C139.211 91.4974 140.883 89.048 141.669 86.266C139.24 88.4441 136.092 89.6469 132.83 89.643Z" fill="#003A8C"/>
<path d="M168.522 54.6848C172.588 54.8791 176.547 56.0575 180.058 58.1189C183.569 60.1804 186.527 63.0632 188.678 66.52C190.83 69.9767 192.11 73.9041 192.41 77.9648C192.71 82.0255 192.019 86.0983 190.399 89.8335C192.743 87.0796 194.466 83.8526 195.451 80.3723C196.435 76.892 196.658 73.2403 196.103 69.6662C195.549 66.0921 194.23 62.6796 192.237 59.6613C190.245 56.6431 187.625 54.09 184.556 52.1763C181.487 50.2626 178.042 49.0331 174.455 48.5717C170.868 48.1104 167.224 48.4279 163.771 49.5028C160.318 50.5777 157.138 52.3846 154.446 54.8003C151.755 57.216 149.616 60.1838 148.175 63.5013C150.665 60.5716 153.794 58.2531 157.322 56.7245C160.85 55.1959 164.682 54.498 168.522 54.6848Z" fill="#003A8C"/>
<path d="M172.602 172.195C169.014 172.195 165.569 170.785 163.01 168.269C160.452 165.752 158.986 162.33 158.928 158.742C158.761 148.342 158.675 135.528 158.675 134.063C158.673 130.501 159.186 126.957 160.198 123.541L160.193 123.54C160.79 121.825 161.512 120.156 162.352 118.547C159.773 121.984 157.721 125.787 156.262 129.829L156.267 129.831C155.255 133.246 154.742 136.791 154.745 140.353C154.745 141.818 154.831 154.631 154.997 165.031C155.055 168.62 156.522 172.041 159.08 174.558C161.638 177.075 165.083 178.485 168.671 178.484C171.63 178.484 174.509 177.524 176.876 175.748C179.243 173.973 180.971 171.478 181.8 168.638C179.286 170.93 176.005 172.199 172.602 172.195Z" fill="#003A8C"/>
<path d="M49.737 229.017L54.5554 229.017L56.8481 210.428L49.7358 210.428L49.737 229.017Z" fill="#FFB8B8"/>
<path d="M63.8486 233.491L48.7041 233.492L48.7039 227.64L57.9971 227.639C59.5489 227.639 61.0373 228.256 62.1346 229.353C63.232 230.451 63.8486 231.939 63.8486 233.491L63.8486 233.491Z" fill="#262626"/>
<path d="M32.4426 229.017L37.261 229.017L39.5537 210.428L32.4414 210.428L32.4426 229.017Z" fill="#FFB8B8"/>
<path d="M46.5547 233.491L31.4102 233.492L31.4099 227.64L40.7031 227.639C42.255 227.639 43.7433 228.256 44.8407 229.353C45.9381 230.451 46.5546 231.939 46.5547 233.491L46.5547 233.491Z" fill="#262626"/>
<path d="M36.6538 223.299L31.947 223.052C31.7043 223.039 31.4666 222.978 31.2475 222.873C31.0285 222.768 30.8325 222.62 30.671 222.438C30.5095 222.257 30.3856 222.045 30.3065 221.815C30.2274 221.585 30.1947 221.342 30.2103 221.099L35.8359 158.806L61.7423 165.797L64.2382 165.116L56.4329 220.263C56.3664 220.678 56.1605 221.057 55.849 221.339C55.5376 221.621 55.1393 221.788 54.7199 221.813L49.6461 222.05C49.3924 222.064 49.1385 222.025 48.9005 221.936C48.6625 221.847 48.4456 221.71 48.2635 221.533C48.0813 221.355 47.9378 221.142 47.8422 220.907C47.7466 220.671 47.7008 220.419 47.7078 220.165L48.6271 187.067C48.6314 186.914 48.5783 186.765 48.4781 186.649C48.3779 186.533 48.238 186.459 48.086 186.441C47.9339 186.423 47.7807 186.463 47.6566 186.553C47.5324 186.642 47.4463 186.775 47.4153 186.925L38.5493 221.838C38.4656 222.252 38.2408 222.624 37.9133 222.891C37.5859 223.158 37.1759 223.304 36.7534 223.302C36.7204 223.302 36.6872 223.301 36.6538 223.299Z" fill="#0050B3"/>
<path d="M68.0335 155.859C67.8099 155.768 67.6064 155.634 67.435 155.464C67.2636 155.294 67.1275 155.092 67.0347 154.869L54.3163 124.563C54.0668 123.969 53.9366 123.333 53.9332 122.689C53.9298 122.045 54.0533 121.407 54.2965 120.811C54.5398 120.215 54.8982 119.673 55.351 119.216C55.8039 118.758 56.3425 118.395 56.936 118.145C57.5295 117.896 58.1662 117.767 58.8098 117.764C59.4535 117.761 60.0914 117.885 60.687 118.129C61.2827 118.372 61.8246 118.731 62.2815 119.184C62.7385 119.638 63.1017 120.177 63.3503 120.77L76.0687 151.077C76.2567 151.526 76.2588 152.032 76.0746 152.483C75.8903 152.934 75.5348 153.293 75.0859 153.482L69.4396 155.852C69.2173 155.946 68.9786 155.995 68.7372 155.996C68.4959 155.998 68.2567 155.951 68.0335 155.859L68.0335 155.859Z" fill="#0072EF"/>
<path d="M50.602 107.836C55.9336 107.836 60.2557 103.514 60.2557 98.1814C60.2557 92.8491 55.9336 88.5264 50.602 88.5264C45.2704 88.5264 40.9482 92.8491 40.9482 98.1814C40.9482 103.514 45.2704 107.836 50.602 107.836Z" fill="#FFB8B8"/>
<path d="M34.5291 126.547L35.5906 149.452L35.9743 157.785C35.9896 158.148 36.1127 158.498 36.328 158.791C36.5433 159.083 36.8408 159.305 37.1827 159.427L62.0769 168.446C62.278 168.521 62.4911 168.558 62.7056 168.556C62.9508 168.557 63.1937 168.509 63.4199 168.414C63.646 168.32 63.8508 168.18 64.0219 168.005C64.1929 167.829 64.3269 167.62 64.4157 167.392C64.5045 167.163 64.5463 166.919 64.5387 166.674L63.5181 125.49C63.451 122.111 62.2074 118.861 60.0015 116.301C57.7956 113.74 54.7658 112.03 51.4343 111.465C51.1935 111.428 50.9485 111.391 50.7035 111.359C48.6377 111.102 46.5408 111.301 44.5603 111.943C42.5798 112.584 40.7638 113.651 39.2402 115.07C37.6625 116.521 36.4228 118.301 35.6087 120.285C34.7947 122.268 34.4261 124.406 34.5291 126.547L34.5291 126.547Z" fill="#80D89F"/>
<path d="M73.9691 163.876C73.3803 163.693 72.8424 163.375 72.3982 162.947C71.9541 162.52 71.616 161.994 71.411 161.413C71.206 160.831 71.1398 160.21 71.2175 159.598C71.2953 158.987 71.5149 158.402 71.8589 157.89L63.417 146.663L70.7019 146.212L77.6016 156.942C78.3403 157.514 78.8543 158.327 79.0535 159.239C79.2527 160.151 79.1243 161.105 78.691 161.932C78.2576 162.759 77.5469 163.407 76.6835 163.762C75.8201 164.118 74.8591 164.158 73.9691 163.876H73.9691Z" fill="#FFB8B8"/>
<path d="M47.4986 154.789L59.7143 131.396C59.9499 130.946 60.3542 130.608 60.8387 130.456C61.3232 130.304 61.8482 130.35 62.2986 130.585L80.0297 139.847C80.4795 140.082 80.8175 140.487 80.9696 140.971C81.1216 141.456 81.0753 141.981 80.8407 142.431L68.625 165.824C68.3894 166.274 67.985 166.612 67.5005 166.764C67.0161 166.917 66.4911 166.87 66.0407 166.636L48.3096 157.374C47.8598 157.138 47.5218 156.734 47.3697 156.249C47.2177 155.765 47.264 155.24 47.4986 154.789Z" fill="#0050B3"/>
<path d="M55.6905 144.102C55.4733 143.525 55.1243 143.006 54.6713 142.588C54.2182 142.17 53.6737 141.864 53.0813 141.693C52.4888 141.523 51.8647 141.493 51.2588 141.607C50.6528 141.721 50.0819 141.975 49.5915 142.348L37.8871 134.583L37.8672 141.883L48.985 148.138C49.5987 148.842 50.4405 149.307 51.3629 149.452C52.2853 149.597 53.2292 149.412 54.0292 148.931C54.8292 148.449 55.4341 147.701 55.7379 146.818C56.0417 145.935 56.0249 144.974 55.6905 144.102Z" fill="#FFB8B8"/>
<path d="M40.8923 145.744L31.3267 138.166C30.2919 137.818 29.3569 137.225 28.6019 136.436C27.8469 135.648 27.2945 134.688 26.9921 133.639C26.6897 132.59 26.6463 131.483 26.8657 130.413C27.0851 129.344 27.5607 128.344 28.2517 127.499L36.937 116.115C37.5406 115.377 38.3894 114.881 39.3283 114.718C40.2672 114.555 41.2336 114.735 42.0506 115.225C42.8677 115.716 43.4809 116.484 43.7782 117.39C44.0755 118.295 44.037 119.278 43.6698 120.157L36.7978 131.4L46.8968 136.191C47.1316 136.302 47.3402 136.462 47.5086 136.66C47.6771 136.858 47.8016 137.09 47.874 137.339C47.9463 137.589 47.9649 137.851 47.9285 138.108C47.892 138.366 47.8014 138.613 47.6625 138.832L43.5859 145.285C43.4481 145.503 43.2661 145.689 43.0517 145.832C42.8373 145.975 42.5952 146.071 42.3412 146.115C42.3311 146.116 42.321 146.118 42.3108 146.119C42.0613 146.157 41.8066 146.143 41.5626 146.079C41.3186 146.014 41.0905 145.9 40.8923 145.744Z" fill="#0072EF"/>
<path d="M43.3077 104.647C43.2663 104.526 43.2531 104.397 43.2693 104.27C43.2854 104.143 43.3304 104.021 43.4009 103.914C43.4713 103.807 43.5653 103.718 43.6756 103.653C43.7859 103.588 43.9096 103.549 44.0373 103.539C44.2988 103.553 44.5547 103.62 44.7895 103.736C45.0243 103.852 45.2332 104.014 45.4036 104.213C45.753 104.616 46.1597 104.965 46.6107 105.25C47.0777 105.485 47.7111 105.451 47.9773 105.003C48.2273 104.581 48.056 104.017 47.9047 103.527C47.5195 102.282 47.3041 100.99 47.264 99.6865C47.2204 98.2319 47.4256 96.7139 48.2308 95.5793C49.27 94.1151 51.1282 93.5592 52.8867 93.5996C54.6452 93.6399 56.3752 94.1828 58.117 94.526C58.7184 94.6444 59.4252 94.705 59.8274 94.2389C60.2551 93.7433 60.098 92.9411 59.9161 92.2719C59.4441 90.5354 58.9433 88.74 57.8466 87.3376C56.6608 85.8803 54.9669 84.9265 53.1061 84.6683C51.3196 84.447 49.5061 84.6529 47.8147 85.2691C45.059 86.1378 42.6341 87.8273 40.8644 90.1116C39.0402 92.5409 38.2519 95.5938 38.672 98.6028C39.0824 101.223 40.4709 103.591 42.5576 105.228L43.3077 104.647Z" fill="#262626"/>
<path d="M165.575 229.094C163.007 227.975 160.734 226.275 158.935 224.127C157.136 221.979 155.861 219.442 155.211 216.717C154.56 213.991 154.551 211.152 155.186 208.423C155.82 205.694 157.08 203.15 158.866 200.991C156.795 202.503 155.07 204.438 153.804 206.668C152.539 208.898 151.762 211.372 151.525 213.925C151.288 216.479 151.597 219.053 152.431 221.478C153.266 223.902 154.606 226.122 156.363 227.989C158.12 229.856 160.255 231.328 162.624 232.307C164.994 233.286 167.545 233.749 170.107 233.667C172.67 233.585 175.185 232.958 177.487 231.829C179.789 230.7 181.825 229.094 183.459 227.119C180.91 228.982 177.918 230.144 174.78 230.491C171.643 230.837 168.469 230.356 165.575 229.094Z" fill="#003A8C"/>
</g>
<defs>
<clipPath id="clip0">
<rect width="332" height="234" fill="white"/>
</clipPath>
</defs>
</svg>
