<svg width="19" height="20" viewBox="0 0 19 20" fill="none" xmlns="http://www.w3.org/2000/svg">
<path d="M0.125 10.376V18.9073C0.125 19.3221 0.460156 19.6573 0.875 19.6573H2.39844V9.626H0.875C0.460156 9.626 0.125 9.96116 0.125 10.376ZM18.2633 10.5096C18.657 9.98928 18.875 9.35178 18.875 8.6885C18.875 7.63616 18.2867 6.63772 17.3398 6.08694C17.0961 5.94396 16.8185 5.86871 16.5359 5.86897H10.9133L11.0539 2.9885C11.0891 2.29241 10.843 1.63147 10.3625 1.12757C10.128 0.878949 9.845 0.681173 9.53092 0.546511C9.21685 0.411849 8.87844 0.343176 8.53672 0.344753C7.31797 0.344753 6.23984 1.16507 5.91641 2.33928L3.90547 9.62366L3.89844 19.6549H14.9633C15.1812 19.6549 15.3898 19.6127 15.5844 19.5283C16.7 19.0526 17.4195 17.9627 17.4195 16.7533C17.4195 16.458 17.3773 16.1674 17.293 15.8862C17.6867 15.3658 17.9047 14.7283 17.9047 14.0651C17.9047 13.7698 17.8625 13.4791 17.7781 13.1979C18.1719 12.6776 18.3898 12.0401 18.3898 11.3768C18.3898 11.0815 18.3477 10.7908 18.2633 10.5096ZM16.7281 9.69632L16.2148 10.1416L16.543 10.7393C16.6503 10.9354 16.706 11.1556 16.7047 11.3791C16.7047 11.7658 16.5383 12.1338 16.2453 12.3869L15.732 12.8323L16.0578 13.4276C16.1651 13.6237 16.2208 13.8439 16.2195 14.0674C16.2195 14.4541 16.0531 14.8221 15.7602 15.0752L15.2469 15.5205L15.5727 16.1158C15.68 16.3119 15.7356 16.5321 15.7344 16.7557C15.7344 17.2807 15.425 17.7541 14.9469 17.9698H5.58594V9.87913C6.02187 8.30413 6.67344 5.94163 7.54297 2.78928C7.60372 2.57307 7.73297 2.3824 7.91131 2.2459C8.08965 2.1094 8.30746 2.03443 8.53203 2.03225C8.70781 2.02991 8.88359 2.08382 9.02656 2.18928C9.25859 2.36272 9.38281 2.62522 9.36875 2.90413L9.14375 7.55413H16.5125C16.9297 7.8096 17.1875 8.24085 17.1875 8.6885C17.1875 9.07522 17.0211 9.44319 16.7281 9.69632Z" fill="#1890FF"/>
</svg>
