<svg width="165" height="137" viewBox="0 0 165 137" fill="none" xmlns="http://www.w3.org/2000/svg">
<circle cx="4.11814" cy="4.11765" r="4.11765" fill="#E6F7FF"/>
<circle cx="4.11765" cy="18.353" r="4.11765" fill="#E6F7FF"/>
<circle cx="4.11765" cy="32.5883" r="4.11765" fill="#E6F7FF"/>
<circle cx="4.11765" cy="46.8237" r="4.11765" fill="#E6F7FF"/>
<circle cx="4.11765" cy="61.0591" r="4.11765" fill="#E6F7FF"/>
<circle cx="4.11765" cy="75.2944" r="4.11765" fill="#E6F7FF"/>
<circle cx="4.11765" cy="89.5298" r="4.11765" fill="#E6F7FF"/>
<circle cx="4.11765" cy="103.765" r="4.11765" fill="#E6F7FF"/>
<circle cx="4.11765" cy="118" r="4.11765" fill="#E6F7FF"/>
<circle cx="4.11765" cy="132.236" r="4.11765" fill="#E6F7FF"/>
<circle cx="18.353" cy="4.11765" r="4.11765" fill="#E6F7FF"/>
<circle cx="18.353" cy="18.353" r="4.11765" fill="#E6F7FF"/>
<circle cx="18.353" cy="32.5883" r="4.11765" fill="#E6F7FF"/>
<circle cx="18.353" cy="46.8237" r="4.11765" fill="#E6F7FF"/>
<circle cx="18.353" cy="61.0591" r="4.11765" fill="#E6F7FF"/>
<circle cx="18.353" cy="75.2944" r="4.11765" fill="#E6F7FF"/>
<circle cx="18.353" cy="89.5298" r="4.11765" fill="#E6F7FF"/>
<circle cx="18.353" cy="103.765" r="4.11765" fill="#E6F7FF"/>
<circle cx="18.353" cy="118" r="4.11765" fill="#E6F7FF"/>
<circle cx="18.353" cy="132.236" r="4.11765" fill="#E6F7FF"/>
<circle cx="32.5883" cy="4.11765" r="4.11765" fill="#E6F7FF"/>
<circle cx="32.5883" cy="18.353" r="4.11765" fill="#E6F7FF"/>
<circle cx="32.5883" cy="32.5883" r="4.11765" fill="#E6F7FF"/>
<circle cx="32.5883" cy="46.8237" r="4.11765" fill="#E6F7FF"/>
<circle cx="32.5883" cy="61.0591" r="4.11765" fill="#E6F7FF"/>
<circle cx="32.5883" cy="75.2944" r="4.11765" fill="#E6F7FF"/>
<circle cx="32.5883" cy="89.5298" r="4.11765" fill="#E6F7FF"/>
<circle cx="32.5883" cy="103.765" r="4.11765" fill="#E6F7FF"/>
<circle cx="32.5883" cy="118" r="4.11765" fill="#E6F7FF"/>
<circle cx="32.5883" cy="132.236" r="4.11765" fill="#E6F7FF"/>
<circle cx="46.8237" cy="4.11765" r="4.11765" fill="#E6F7FF"/>
<circle cx="46.8237" cy="18.353" r="4.11765" fill="#E6F7FF"/>
<circle cx="46.8237" cy="32.5883" r="4.11765" fill="#E6F7FF"/>
<circle cx="46.8237" cy="46.8237" r="4.11765" fill="#E6F7FF"/>
<circle cx="46.8237" cy="61.0591" r="4.11765" fill="#E6F7FF"/>
<circle cx="46.8237" cy="75.2944" r="4.11765" fill="#E6F7FF"/>
<circle cx="46.8237" cy="89.5298" r="4.11765" fill="#E6F7FF"/>
<circle cx="46.8237" cy="103.765" r="4.11765" fill="#E6F7FF"/>
<circle cx="46.8237" cy="118" r="4.11765" fill="#E6F7FF"/>
<circle cx="46.8237" cy="132.236" r="4.11765" fill="#E6F7FF"/>
<circle cx="61.0591" cy="4.11765" r="4.11765" fill="#E6F7FF"/>
<circle cx="61.0591" cy="18.353" r="4.11765" fill="#E6F7FF"/>
<circle cx="61.0591" cy="32.5883" r="4.11765" fill="#E6F7FF"/>
<circle cx="61.0591" cy="46.8237" r="4.11765" fill="#E6F7FF"/>
<circle cx="61.0591" cy="61.0591" r="4.11765" fill="#E6F7FF"/>
<circle cx="61.0591" cy="75.2944" r="4.11765" fill="#E6F7FF"/>
<circle cx="61.0591" cy="89.5298" r="4.11765" fill="#E6F7FF"/>
<circle cx="61.0591" cy="103.765" r="4.11765" fill="#E6F7FF"/>
<circle cx="61.0591" cy="118" r="4.11765" fill="#E6F7FF"/>
<circle cx="61.0591" cy="132.236" r="4.11765" fill="#E6F7FF"/>
<circle cx="75.2944" cy="4.11765" r="4.11765" fill="#E6F7FF"/>
<circle cx="75.2944" cy="18.353" r="4.11765" fill="#E6F7FF"/>
<circle cx="75.2944" cy="32.5883" r="4.11765" fill="#E6F7FF"/>
<circle cx="75.2944" cy="46.8237" r="4.11765" fill="#E6F7FF"/>
<circle cx="75.2944" cy="61.0591" r="4.11765" fill="#E6F7FF"/>
<circle cx="75.2944" cy="75.2944" r="4.11765" fill="#E6F7FF"/>
<circle cx="75.2944" cy="89.5298" r="4.11765" fill="#E6F7FF"/>
<circle cx="75.2944" cy="103.765" r="4.11765" fill="#E6F7FF"/>
<circle cx="75.2944" cy="118" r="4.11765" fill="#E6F7FF"/>
<circle cx="75.2944" cy="132.236" r="4.11765" fill="#E6F7FF"/>
<circle cx="89.5298" cy="4.11765" r="4.11765" fill="#E6F7FF"/>
<circle cx="89.5298" cy="18.353" r="4.11765" fill="#E6F7FF"/>
<circle cx="89.5298" cy="32.5883" r="4.11765" fill="#E6F7FF"/>
<circle cx="89.5298" cy="46.8237" r="4.11765" fill="#E6F7FF"/>
<circle cx="89.5298" cy="61.0591" r="4.11765" fill="#E6F7FF"/>
<circle cx="89.5298" cy="75.2944" r="4.11765" fill="#E6F7FF"/>
<circle cx="89.5298" cy="89.5298" r="4.11765" fill="#E6F7FF"/>
<circle cx="89.5298" cy="103.765" r="4.11765" fill="#E6F7FF"/>
<circle cx="89.5298" cy="118" r="4.11765" fill="#E6F7FF"/>
<circle cx="89.5298" cy="132.236" r="4.11765" fill="#E6F7FF"/>
<circle cx="103.765" cy="4.11765" r="4.11765" fill="#E6F7FF"/>
<circle cx="103.765" cy="18.353" r="4.11765" fill="#E6F7FF"/>
<circle cx="103.765" cy="32.5883" r="4.11765" fill="#E6F7FF"/>
<circle cx="103.765" cy="46.8237" r="4.11765" fill="#E6F7FF"/>
<circle cx="103.765" cy="61.0591" r="4.11765" fill="#E6F7FF"/>
<circle cx="103.765" cy="75.2944" r="4.11765" fill="#E6F7FF"/>
<circle cx="103.765" cy="89.5298" r="4.11765" fill="#E6F7FF"/>
<circle cx="103.765" cy="103.765" r="4.11765" fill="#E6F7FF"/>
<circle cx="103.765" cy="118" r="4.11765" fill="#E6F7FF"/>
<circle cx="103.765" cy="132.236" r="4.11765" fill="#E6F7FF"/>
<circle cx="118" cy="4.11765" r="4.11765" fill="#E6F7FF"/>
<circle cx="118" cy="18.353" r="4.11765" fill="#E6F7FF"/>
<circle cx="118" cy="32.5883" r="4.11765" fill="#E6F7FF"/>
<circle cx="118" cy="46.8237" r="4.11765" fill="#E6F7FF"/>
<circle cx="118" cy="61.0591" r="4.11765" fill="#E6F7FF"/>
<circle cx="118" cy="75.2944" r="4.11765" fill="#E6F7FF"/>
<circle cx="118" cy="89.5298" r="4.11765" fill="#E6F7FF"/>
<circle cx="118" cy="103.765" r="4.11765" fill="#E6F7FF"/>
<circle cx="118" cy="118" r="4.11765" fill="#E6F7FF"/>
<circle cx="118" cy="132.236" r="4.11765" fill="#E6F7FF"/>
<circle cx="132.236" cy="4.11765" r="4.11765" fill="#E6F7FF"/>
<circle cx="132.236" cy="18.353" r="4.11765" fill="#E6F7FF"/>
<circle cx="132.236" cy="32.5883" r="4.11765" fill="#E6F7FF"/>
<circle cx="132.236" cy="46.8237" r="4.11765" fill="#E6F7FF"/>
<circle cx="132.236" cy="61.0591" r="4.11765" fill="#E6F7FF"/>
<circle cx="132.236" cy="75.2944" r="4.11765" fill="#E6F7FF"/>
<circle cx="132.236" cy="89.5298" r="4.11765" fill="#E6F7FF"/>
<circle cx="132.236" cy="103.765" r="4.11765" fill="#E6F7FF"/>
<circle cx="132.236" cy="118" r="4.11765" fill="#E6F7FF"/>
<circle cx="132.236" cy="132.236" r="4.11765" fill="#E6F7FF"/>
<circle cx="146.471" cy="4.11765" r="4.11765" fill="#E6F7FF"/>
<circle cx="146.471" cy="18.353" r="4.11765" fill="#E6F7FF"/>
<circle cx="146.471" cy="32.5883" r="4.11765" fill="#E6F7FF"/>
<circle cx="146.471" cy="46.8237" r="4.11765" fill="#E6F7FF"/>
<circle cx="146.471" cy="61.0591" r="4.11765" fill="#E6F7FF"/>
<circle cx="146.471" cy="75.2944" r="4.11765" fill="#E6F7FF"/>
<circle cx="146.471" cy="89.5298" r="4.11765" fill="#E6F7FF"/>
<circle cx="146.471" cy="103.765" r="4.11765" fill="#E6F7FF"/>
<circle cx="146.471" cy="118" r="4.11765" fill="#E6F7FF"/>
<circle cx="146.471" cy="132.236" r="4.11765" fill="#E6F7FF"/>
<circle cx="160.707" cy="4.11765" r="4.11765" fill="#E6F7FF"/>
<circle cx="160.707" cy="18.353" r="4.11765" fill="#E6F7FF"/>
<circle cx="160.707" cy="32.5883" r="4.11765" fill="#E6F7FF"/>
<circle cx="160.707" cy="46.8237" r="4.11765" fill="#E6F7FF"/>
<circle cx="160.707" cy="61.0591" r="4.11765" fill="#E6F7FF"/>
<circle cx="160.707" cy="75.2944" r="4.11765" fill="#E6F7FF"/>
<circle cx="160.707" cy="89.5298" r="4.11765" fill="#E6F7FF"/>
<circle cx="160.707" cy="103.765" r="4.11765" fill="#E6F7FF"/>
<circle cx="160.707" cy="118" r="4.11765" fill="#E6F7FF"/>
<circle cx="160.707" cy="132.236" r="4.11765" fill="#E6F7FF"/>
</svg>
