<svg width="32" height="32" viewBox="0 0 32 32" fill="none" xmlns="http://www.w3.org/2000/svg">
<path d="M26.7062 9.02188C26.8937 9.20938 27 9.4625 27 9.72812V29C27 29.5531 26.5531 30 26 30H6C5.44687 30 5 29.5531 5 29V3C5 2.44687 5.44687 2 6 2H19.2719C19.5375 2 19.7938 2.10625 19.9813 2.29375L26.7062 9.02188ZM24.6938 10.1875L18.8125 4.30625V10.1875H24.6938ZM9.25 4.25V6.25H11.25V4.25H9.25ZM11.25 6.25V8.25H13.25V6.25H11.25ZM9.25 8.25V10.25H11.25V8.25H9.25ZM11.25 10.25V12.25H13.25V10.25H11.25ZM9.25 12.25V14.25H11.25V12.25H9.25ZM11.25 14.25V16.25H13.25V14.25H11.25ZM9.25 16.25V18.25H11.25V16.25H9.25ZM9.25 18.25V23.25H13.25V18.25H9.25ZM10.75 19.75H11.75V21.75H10.75V19.75Z" fill="white"/>
</svg>
