<svg width="101" height="44" viewBox="0 0 101 44" fill="none" xmlns="http://www.w3.org/2000/svg">
<rect width="101" height="44" rx="8" fill="#0072EF"/>
<path d="M28 17.5C28 18.9587 28.5795 20.3576 29.6109 21.3891C30.6424 22.4205 32.0413 23 33.5 23C34.9587 23 36.3576 22.4205 37.3891 21.3891C38.4205 20.3576 39 18.9587 39 17.5C39 16.0413 38.4205 14.6424 37.3891 13.6109C36.3576 12.5795 34.9587 12 33.5 12C32.0413 12 30.6424 12.5795 29.6109 13.6109C28.5795 14.6424 28 16.0413 28 17.5ZM36.5 14C36.6326 14 36.7598 14.0527 36.8535 14.1464C36.9473 14.2402 37 14.3674 37 14.5V16.5C37 16.6326 36.9473 16.7598 36.8535 16.8536C36.7598 16.9473 36.6326 17 36.5 17H34.5C34.3674 17 34.2402 16.9473 34.1464 16.8536C34.0527 16.7598 34 16.6326 34 16.5C34 16.3674 34.0527 16.2402 34.1464 16.1464C34.2402 16.0527 34.3674 16 34.5 16H35.5C35.2673 15.6893 34.9654 15.4371 34.6182 15.2635C34.271 15.0899 33.8882 14.9997 33.5 15C32.667 15 31.928 15.407 31.473 16.036C31.394 16.1401 31.2775 16.2092 31.1482 16.2284C31.019 16.2477 30.8874 16.2156 30.7815 16.139C30.6756 16.0624 30.604 15.9474 30.5818 15.8187C30.5597 15.6899 30.5888 15.5576 30.663 15.45C30.9872 15.0008 31.4135 14.6351 31.9067 14.383C32.4 14.1309 32.9461 13.9996 33.5 14C34.48 14 35.365 14.403 36 15.05V14.5C36 14.3674 36.0527 14.2402 36.1464 14.1464C36.2402 14.0527 36.3674 14 36.5 14ZM31 19.95V20.5C31 20.6326 30.9473 20.7598 30.8535 20.8536C30.7598 20.9473 30.6326 21 30.5 21C30.3674 21 30.2402 20.9473 30.1464 20.8536C30.0527 20.7598 30 20.6326 30 20.5V18.5C30 18.3674 30.0527 18.2402 30.1464 18.1464C30.2402 18.0527 30.3674 18 30.5 18H32.5C32.6326 18 32.7598 18.0527 32.8535 18.1464C32.9473 18.2402 33 18.3674 33 18.5C33 18.6326 32.9473 18.7598 32.8535 18.8536C32.7598 18.9473 32.6326 19 32.5 19H31.5C31.956 19.608 32.683 20 33.5 20C34.266 20 34.952 19.656 35.411 19.112C35.4529 19.0606 35.5047 19.018 35.5633 18.9868C35.6219 18.9556 35.6861 18.9364 35.7521 18.9303C35.8182 18.9241 35.8849 18.9312 35.9482 18.9511C36.0115 18.971 36.0702 19.0033 36.1209 19.0461C36.1716 19.0889 36.2133 19.1414 36.2435 19.2004C36.2738 19.2595 36.2919 19.324 36.2969 19.3902C36.302 19.4564 36.2938 19.5229 36.2728 19.5859C36.2519 19.6488 36.2186 19.707 36.175 19.757C35.8468 20.1468 35.4372 20.46 34.9751 20.6747C34.513 20.8894 34.0095 21.0005 33.5 21C33.0343 21.0006 32.5732 20.908 32.1438 20.7277C31.7145 20.5474 31.3256 20.283 31 19.95ZM24 23H30.034C29.2249 22.4887 28.5381 21.806 28.022 21H24L23.883 21.007C23.6299 21.0371 23.3978 21.1627 23.2343 21.3582C23.0707 21.5536 22.9879 21.8042 23.0028 22.0586C23.0178 22.313 23.1293 22.5522 23.3146 22.7272C23.5 22.9021 23.7451 22.9997 24 23ZM21 16H27.174C27.0195 16.6547 26.9672 17.3293 27.019 18H21C20.7451 17.9997 20.5 17.9021 20.3146 17.7272C20.1293 17.5522 20.0178 17.313 20.0028 17.0586C19.9879 16.8042 20.0707 16.5536 20.2343 16.3582C20.3978 16.1627 20.6299 16.0371 20.883 16.007L21 16ZM25.883 26.007L26 26H30C30.2549 26.0003 30.5 26.0979 30.6854 26.2728C30.8707 26.4478 30.9822 26.687 30.9972 26.9414C31.0121 27.1958 30.9293 27.4464 30.7657 27.6418C30.6021 27.8373 30.3701 27.9629 30.117 27.993L30 28H26C25.7451 27.9997 25.5 27.9021 25.3146 27.7272C25.1293 27.5522 25.0178 27.313 25.0028 27.0586C24.9879 26.8042 25.0707 26.5536 25.2343 26.3582C25.3978 26.1627 25.6299 26.0371 25.883 26.007Z" fill="white"/>
<path d="M45.2784 28H47.0341V22.9261H51.9773V21.4205H47.0341V17.875H52.4943V16.3636H45.2784V28ZM54.517 28H56.2159V19.2727H54.517V28ZM55.375 17.9261C55.9602 17.9261 56.4489 17.4716 56.4489 16.9148C56.4489 16.358 55.9602 15.8977 55.375 15.8977C54.7841 15.8977 54.3011 16.358 54.3011 16.9148C54.3011 17.4716 54.7841 17.9261 55.375 17.9261ZM60.2003 16.3636H58.5014V28H60.2003V16.3636ZM66.5597 19.2727H64.7699V17.1818H63.071V19.2727H61.7926V20.6364H63.071V25.7898C63.0653 27.375 64.2756 28.142 65.6165 28.1136C66.1562 28.108 66.5199 28.0057 66.7188 27.9318L66.4119 26.5284C66.2983 26.5511 66.0881 26.6023 65.8153 26.6023C65.2642 26.6023 64.7699 26.4205 64.7699 25.4375V20.6364H66.5597V19.2727ZM72.1065 28.1761C74.0099 28.1761 75.3565 27.2386 75.7429 25.8182L74.1349 25.5284C73.8281 26.3523 73.0895 26.7727 72.1236 26.7727C70.669 26.7727 69.6918 25.8295 69.6463 24.1477H75.8509V23.5455C75.8509 20.392 73.9645 19.1591 71.9872 19.1591C69.5554 19.1591 67.9531 21.0114 67.9531 23.6932C67.9531 26.4034 69.5327 28.1761 72.1065 28.1761ZM69.652 22.875C69.7202 21.6364 70.6179 20.5625 71.9986 20.5625C73.3168 20.5625 74.1804 21.5398 74.1861 22.875H69.652ZM77.7358 28H79.4347V22.6705C79.4347 21.5284 80.3153 20.7045 81.5199 20.7045C81.8722 20.7045 82.2699 20.767 82.4062 20.8068V19.1818C82.2358 19.1591 81.9006 19.142 81.6847 19.142C80.6619 19.142 79.7869 19.7216 79.4688 20.6591H79.3778V19.2727H77.7358V28Z" fill="white"/>
</svg>
