<?xml version="1.0" encoding="UTF-8" standalone="no"?>
<svg
   xmlns:dc="http://purl.org/dc/elements/1.1/"
   xmlns:cc="http://creativecommons.org/ns#"
   xmlns:rdf="http://www.w3.org/1999/02/22-rdf-syntax-ns#"
   xmlns:svg="http://www.w3.org/2000/svg"
   xmlns="http://www.w3.org/2000/svg"
   xmlns:sodipodi="http://sodipodi.sourceforge.net/DTD/sodipodi-0.dtd"
   xmlns:inkscape="http://www.inkscape.org/namespaces/inkscape"
   height="649.78186"
   width="649.78699"
   version="1.1"
   id="svg2"
   inkscape:version="0.48.4 r9939"
   sodipodi:docname="Roundel_of_the_Ugandan_Air_Force.svg">
  <metadata
     id="metadata46">
    <rdf:RDF>
      <cc:Work
         rdf:about="">
        <dc:format>image/svg+xml</dc:format>
        <dc:type
           rdf:resource="http://purl.org/dc/dcmitype/StillImage" />
      </cc:Work>
    </rdf:RDF>
  </metadata>
  <defs
     id="defs44" />
  <sodipodi:namedview
     pagecolor="#ffffff"
     bordercolor="#666666"
     borderopacity="1"
     objecttolerance="10"
     gridtolerance="10"
     guidetolerance="10"
     inkscape:pageopacity="0"
     inkscape:pageshadow="2"
     inkscape:window-width="1366"
     inkscape:window-height="706"
     id="namedview42"
     showgrid="false"
     fit-margin-top="0"
     fit-margin-left="0"
     fit-margin-right="0"
     fit-margin-bottom="0"
     inkscape:zoom="0.79872959"
     inkscape:cx="324.89348"
     inkscape:cy="324.89093"
     inkscape:window-x="-8"
     inkscape:window-y="-8"
     inkscape:window-maximized="1"
     inkscape:current-layer="g4"
     showguides="false"
     inkscape:guide-bbox="true"
     inkscape:showpageshadow="false">
    <inkscape:grid
       type="xygrid"
       id="grid3000"
       empspacing="5"
       visible="true"
       enabled="true"
       snapvisiblegridlinesonly="true"
       originx="0.00255px"
       originy="0px" />
    <sodipodi:guide
       orientation="0,1"
       position="-49.99745,0"
       id="guide3003" />
    <sodipodi:guide
       orientation="1,0"
       position="0.00255,60"
       id="guide3005" />
    <sodipodi:guide
       orientation="1,0"
       position="150.00255,-55"
       id="guide3007" />
    <sodipodi:guide
       orientation="1,0"
       position="100.00255,-50"
       id="guide3009" />
    <sodipodi:guide
       orientation="1,0"
       position="50.00255,-70"
       id="guide3011" />
    <sodipodi:guide
       orientation="1,0"
       position="325.00255,685"
       id="guide3013" />
    <sodipodi:guide
       orientation="1,0"
       position="650.00255,-50"
       id="guide3015" />
    <sodipodi:guide
       orientation="1,0"
       position="500.00255,-30"
       id="guide3017" />
    <sodipodi:guide
       orientation="1,0"
       position="550.00255,-45"
       id="guide3019" />
    <sodipodi:guide
       orientation="1,0"
       position="600.00255,-35"
       id="guide3021" />
    <sodipodi:guide
       orientation="0,1"
       position="-64.99745,150"
       id="guide3023" />
    <sodipodi:guide
       orientation="0,1"
       position="-64.99745,100"
       id="guide3025" />
    <sodipodi:guide
       orientation="0,1"
       position="-79.99745,50"
       id="guide3027" />
    <sodipodi:guide
       orientation="0,1"
       position="-29.99745,325"
       id="guide3029" />
    <sodipodi:guide
       orientation="0,1"
       position="-19.99745,650"
       id="guide3031" />
    <sodipodi:guide
       orientation="0,1"
       position="-44.99745,500"
       id="guide3033" />
    <sodipodi:guide
       orientation="0,1"
       position="-19.99745,550"
       id="guide3035" />
    <sodipodi:guide
       orientation="0,1"
       position="-29.99745,600"
       id="guide3037" />
  </sodipodi:namedview>
  <g
     transform="translate(160.00255,489.78186)"
     id="g4">
    <path
       style="fill:#000000;stroke:none"
       d="M 489.78441,-164.89093 C 489.78441,14.541377 344.32464,160 164.89092,160 c -179.4337,0 -324.89347,-145.458623 -324.89347,-324.89093 0,-179.4323 145.45977,-324.89093 324.89347,-324.89093 179.43372,0 324.89349,145.45863 324.89349,324.89093 z"
       id="circle6"
       inkscape:connector-curvature="0" />
    <path
       style="fill:#fcdc04;fill-opacity:1;stroke:none"
       d="m 439.82542,-164.89092 c 0,151.840946 -123.09237,274.93236 -274.9345,274.93236 -151.84212,0 -274.93448,-123.091414 -274.93448,-274.93236 0,-151.84096 123.09236,-274.93238 274.93448,-274.93238 151.84213,0 274.9345,123.09142 274.9345,274.93238 z"
       id="circle8"
       inkscape:connector-curvature="0" />
    <path
       style="fill:#d90000;fill-opacity:1;stroke:none"
       d="m 389.64896,-164.89092 c 0,124.129488 -100.62759,224.756327 -224.75804,224.756327 -124.13043,0 -224.75803,-100.626839 -224.75803,-224.756327 0,-124.12952 100.6276,-224.75634 224.75803,-224.75634 124.13045,0 224.75804,100.62682 224.75804,224.75634 z"
       id="circle10"
       inkscape:connector-curvature="0" />
    <circle
       r="100"
       id="circle12"
       d="M 100,0 C 100,55.228475 55.228475,100 0,100 -55.228475,100 -100,55.228475 -100,0 c 0,-55.228475 44.771525,-100 100,-100 55.228475,0 100,44.771525 100,100 z"
       cx="0"
       cy="0"
       sodipodi:cx="0"
       sodipodi:cy="0"
       sodipodi:rx="100"
       sodipodi:ry="100"
       style="fill:#ffffff"
       transform="matrix(1.7573541,0,0,1.756704,164.89093,-164.89093)" />
    <path
       d="m 135.92972,-290.68678 -10.6566,-19.62414 c 4.11223,-4.11067 11.03093,-7.28855 22.06184,-7.28855 0,0.74837 -1.12294,21.49327 -1.12294,21.49327 l -10.2823,5.41942 z"
       id="path14"
       inkscape:connector-curvature="0"
       style="fill:#d90000;fill-opacity:1;stroke:#000000;stroke-width:1.75702918" />
    <path
       d="m 146.21202,-295.91997 1.49551,-21.6795 c 0,0 22.0618,-1.30702 34.0259,13.08218 0.188,-0.18621 -11.77781,16.8187 -11.77781,16.8187 l -23.7436,-8.22138 z"
       id="path16"
       inkscape:connector-curvature="0"
       style="fill:#fcdc04;fill-opacity:1;stroke:#000000;stroke-width:1.75702918" />
    <path
       d="m 170.32995,-287.88481 10.84287,-16.81869 c 7.29126,7.66273 10.28226,13.08217 11.40348,21.3053 0.18801,0.18623 -17.19927,4.2969 -17.19927,4.11069 0,-0.18798 -4.85906,-8.41108 -5.04708,-8.5973 z"
       id="path18"
       inkscape:connector-curvature="0"
       style="fill:#d90000;fill-opacity:1;stroke:#000000;stroke-width:1.75702918" />
    <path
       d="m 141.35117,-10.17272 c 0,0 20.37827,-23.360652 60.01365,-18.313641 -5.98382,-9.719846 -25.23915,-8.59731 -25.23915,-8.59731 0,0 -5.982,-45.412571 -1.30918,-47.655883 4.67278,-2.243309 24.49047,0.186217 24.49047,0.186217 2.61669,0 7.10498,-7.100603 3.55337,-11.585477 -3.55337,-4.486606 -14.02194,-21.679476 -9.72345,-25.043566 4.302,-3.36407 27.66954,1.86914 27.66954,1.86914 l -65.99392,-84.47288 c 0,0 -6.73067,-31.76997 6.73064,-47.09549 16.2661,-13.4546 14.58253,-28.03172 14.02196,-27.8455 -2.24414,-14.76335 -24.67854,-25.41777 -39.82164,-11.77343 -8.97483,10.83885 -2.9928,19.06199 -2.9928,19.06199 0,0 -23.55556,6.35402 -24.49048,10.46466 -0.93491,4.11247 26.54836,-0.74658 26.54836,-0.74658 l -2.61845,18.8758 c 0,0 -53.46926,48.58868 -12.52467,90.63889 0.37258,-0.18621 1.30748,-1.86913 1.30748,-1.86913 0,0 14.39623,17.75501 29.53936,21.67949 14.2082,14.57713 12.90073,12.33382 12.90073,12.33382 0,0 2.803,22.988227 0.18629,27.4731 -3.55161,-1.122536 -39.82166,-2.429524 -45.24309,-0.374175 -4.86083,1.494944 -23.55557,0.560395 -18.88277,31.023389 3.55161,-8.223127 6.73068,-15.511699 6.73068,-15.511699 0,0 -0.56061,11.025078 3.92592,14.951305 -0.74686,-11.588974 4.30023,-19.436169 4.30023,-19.436169 0,0 0.93493,12.707991 3.73792,14.57537 2.80473,1.869131 2.80473,-20.556955 18.32392,-18.687808 15.51568,1.869128 26.73289,1.308733 26.73289,1.308733 0,0 5.23512,43.917616 3.55158,48.030059 -11.21719,-2.617489 -37.95006,1.120778 -39.63359,7.848957 15.70372,-0.934566 22.99671,0.932808 22.99671,0.932808 0,0 -12.71269,11.214799 -8.78851,17.75501 z"
       id="path20"
       inkscape:connector-curvature="0"
       style="fill:#000000;stroke:#000000;stroke-width:1.75702918" />
    <path
       d="m 147.65304,-249.81002 c 0,0 -38.90606,42.86884 -22.11983,75.6718 0.89275,-4.57448 0.5026,-7.44843 1.06498,-7.26221 -0.93491,-0.56039 4.82395,3.94731 4.38634,3.06897 0.12307,-2.37155 -1.75383,-7.45373 -1.75383,-7.45373 1.75383,0.43743 3.50943,0.87837 5.26327,1.31578 -1.02277,-1.90073 -2.04731,-3.79975 -3.07183,-5.7005 2.48665,0.29162 4.97154,0.58322 7.45819,0.8766 0,0 -2.63253,-7.01628 -1.75383,-7.01628 0.87692,0 6.14019,0.43744 6.14019,0.43744 -11.06432,-19.84903 -0.62562,-36.33219 4.38635,-53.93787 z"
       id="path22"
       inkscape:connector-curvature="0"
       style="fill:#9ca69c;stroke:#9ca69c;stroke-width:1.75702918" />
    <path
       d="m 161.16885,-286.57608 c 0,0 2.05613,14.76334 -5.98203,19.06199 -1.30926,0.93457 -6.35634,2.6175 -5.60949,5.60741 0.93493,4.11069 3.17732,3.36408 6.35635,2.61572 8.41247,-1.49494 18.13416,-19.43615 5.23517,-27.28512 z"
       id="path24"
       inkscape:connector-curvature="0"
       style="fill:#9ca69c;stroke:#9ca69c;stroke-width:1.75702918" />
    <path
       d="m 146.77257,-273.8679 a 3.1789066,3.177731 0 1 1 -6.35638,0 3.1789066,3.177731 0 1 1 6.35638,0 z"
       id="path26"
       inkscape:connector-curvature="0"
       style="fill:#ffffff" />
    <path
       d="m 134.24794,-261.53427 c -2.05785,1.68294 -12.90074,12.896 -2.24413,17.00668 11.03089,-2.98993 8.03813,-5.04526 10.47033,-7.47479 0.0615,-5.04526 -5.48472,-6.35398 -8.2262,-9.53189 z"
       id="path28"
       inkscape:connector-curvature="0"
       style="fill:#d90000;fill-opacity:1;stroke:#000000;stroke-width:1.75702918" />
    <path
       d="m 157.80352,-155.56809 c -0.56236,2.4295 -2.99102,11.39924 0.37255,18.31361 9.34914,-3.92446 13.64939,-2.80367 16.82666,-0.74836 -7.66379,-6.16601 -10.65481,-8.78348 -17.19921,-17.56525 z"
       id="path30"
       inkscape:connector-curvature="0"
       style="fill:#9ca69c;stroke:#9ca69c;stroke-width:1.75702918" />
    <path
       d="m 173.88153,-113.14721 0.56062,20.931119 c 0,0 7.29128,1.308755 10.6566,0 3.36533,-1.308735 -0.18804,-14.577119 -11.21722,-20.931119 z"
       id="path32"
       inkscape:connector-curvature="0"
       style="fill:#ffffff;stroke:#ffffff;stroke-width:1.75702918" />
    <path
       d="m 226.79024,-110.52972 c 0,0 -13.46133,-32.51836 -47.86156,-40.74149 -34.40022,-8.22314 -29.91371,-44.85216 -27.10895,-47.09548 1.49728,-3.17787 2.61845,-8.03516 12.52642,-3.36234 9.9097,4.67109 55.52535,27.65756 62.06974,28.77833 6.54263,1.12256 0.9349,63.16934 0.37435,62.42098 z"
       id="path34"
       inkscape:connector-curvature="0"
       style="fill:#9ca69c;stroke:#000000;stroke-width:1.75702918" />
    <path
       d="m 194.07354,-151.45742 c -0.56235,0.37244 45.98996,27.46957 31.96801,50.832 13.2751,-8.78352 8.97482,-24.10726 8.97482,-24.10726 0,0 10.84289,28.219711 -15.51742,42.048471 2.80474,2.431275 4.67458,1.869128 4.67458,1.869128 l -4.48831,4.484871 c 0,0 -2.05609,3.364094 15.70548,-5.233212 -4.86261,3.924471 -5.23514,6.728176 -5.23514,6.728176 0,0 1.30747,3.738258 12.89897,-6.353997 -9.34736,10.092255 -11.40522,15.323731 -11.40522,15.137518 25.2391,-2.243309 80.20388,-84.284915 -17.38553,-108.580145 5.23517,5.41944 4.48654,4.67285 4.48654,4.67285 l -24.67678,18.5016 z"
       id="path36"
       inkscape:connector-curvature="0"
       style="fill:#d90000;fill-opacity:1;stroke:#000000;stroke-width:1.75702918" />
    <path
       d="m 196.12963,-159.49435 c 6.35639,4.48487 8.59877,5.97984 9.34741,8.22314 -5.79577,-1.30697 -11.03092,-0.93457 -11.03092,-0.93457 0,0 -12.52469,-11.95964 -14.7688,-12.89419 -1.68357,0 -11.40349,-6.16779 -11.40349,-6.16779 -4.86084,-2.42953 -9.34736,-19.24822 8.60048,-14.39095 18.50669,8.78355 21.12343,9.53191 21.12343,9.53191 7.3545,2.30478 14.70727,4.61135 22.0618,6.91437 4.23699,4.73608 8.47397,9.4704 12.71271,14.20472 0,0 -22.62066,-11.21481 -25.4254,-11.401 6.16829,5.04524 9.72169,11.95962 9.72169,11.95962 -7.16648,-2.05534 -13.39808,-3.92446 -20.93891,-5.04526 z"
       id="path38"
       inkscape:connector-curvature="0"
       style="fill:#ffffff;stroke:#000000;stroke-width:1.75702918" />
    <path
       d="m 108.07391,-259.85133 c 0,0 21.68751,-5.2332 24.30421,-4.48488"
       id="path40"
       inkscape:connector-curvature="0"
       style="stroke:#ffffff;stroke-width:1.75702918" />
  </g>
</svg>
