<svg width="161" height="39" viewBox="0 0 161 39" fill="none" xmlns="http://www.w3.org/2000/svg">
<path d="M55.4549 12.9648H52.9106V26.0555H55.4549V12.9648Z" fill="#2A3362"/>
<path d="M65.3017 21.4134C65.3017 23.2201 64.1394 24.0319 62.5917 24.0319C61.044 24.0319 60.0096 23.2201 60.0096 21.505V16.8398H57.4653V22.0957C57.4653 24.7126 59.1062 26.2429 61.8352 26.2429C63.5503 26.2429 64.5089 25.6112 65.1517 24.8973H65.3001L65.5212 26.0597H67.8617V16.8398H65.3017V21.4134Z" fill="#2A3362"/>
<path d="M90.2591 24.2313C88.3971 24.2313 87.3469 23.3832 87.1811 22.1482H95.2559C95.2932 21.8915 95.3117 21.6323 95.3112 21.3728C95.2938 18.0563 92.7844 16.6523 90.0996 16.6523C86.9837 16.6523 84.6416 18.5159 84.6416 21.5213C84.6416 24.3782 86.8921 26.2402 90.2654 26.2402C93.0876 26.2402 94.9669 24.9878 95.3554 23.069H92.8412C92.5269 23.8254 91.6236 24.2313 90.2591 24.2313ZM90.1012 18.6628C91.7247 18.6628 92.6643 19.3813 92.8128 20.4H87.2364C87.4748 19.424 88.4161 18.6628 90.0933 18.6628H90.1012Z" fill="#2A3362"/>
<path d="M99.6339 18.1602H99.476L99.2359 16.832H96.9238V26.0566H99.4681V22.0926C99.4681 20.3033 100.499 19.3083 102.418 19.3083C102.767 19.3035 103.115 19.3342 103.457 19.3999V16.8368H103.102C101.406 16.8368 100.352 17.1874 99.6339 18.1602Z" fill="#2A3362"/>
<path d="M115.949 23.1822H115.802L113.626 17.4115H111.008L108.869 23.1649H108.704L106.676 16.8398H104.149L107.265 26.0597H110.032L112.244 20.1769H112.391L114.567 26.0597H117.352L120.468 16.8398H117.941L115.949 23.1822Z" fill="#2A3362"/>
<path d="M130.594 23.3745V20.2886C130.594 17.7807 128.473 16.6562 125.836 16.6562C123.034 16.6562 121.283 17.9844 121.043 19.9727H123.587C123.772 19.1057 124.509 18.6272 125.836 18.6272C127.162 18.6272 128.047 19.1247 128.047 20.1386V20.3739L123.898 20.6897C121.981 20.8382 120.582 21.6863 120.582 23.493C120.582 25.3549 122.186 26.2393 124.546 26.2393C126.45 26.2393 127.611 25.7087 128.322 24.908H128.448C128.847 25.8082 129.658 26.0561 130.539 26.0561H131.608V24.1784H131.368C130.833 24.1784 130.594 23.9209 130.594 23.3745ZM128.048 22.3969C128.048 23.8546 126.311 24.3331 124.822 24.3331C123.808 24.3331 123.145 24.0757 123.145 23.3745C123.145 22.7428 123.716 22.4348 124.566 22.3606L128.05 22.1032L128.048 22.3969Z" fill="#2A3362"/>
<path d="M140 16.8398L137.031 23.5155H136.866L133.86 16.8398H131.112L135.408 26.0597H138.451L142.728 16.8398H140Z" fill="#2A3362"/>
<path d="M150.861 23.069C150.545 23.8254 149.644 24.2313 148.279 24.2313C146.417 24.2313 145.367 23.3832 145.201 22.1482H153.276C153.313 21.8915 153.332 21.6323 153.331 21.3728C153.314 18.0563 150.804 16.6523 148.119 16.6523C145.004 16.6523 142.663 18.5159 142.663 21.5213C142.663 24.3782 144.912 26.2402 148.285 26.2402C151.107 26.2402 152.987 24.9878 153.375 23.069H150.861ZM148.113 18.6628C149.737 18.6628 150.676 19.3813 150.825 20.4H145.25C145.492 19.424 146.43 18.6628 148.107 18.6628H148.113Z" fill="#2A3362"/>
<path d="M48.7763 16.1589C48.7763 15.3471 49.348 14.9981 50.0855 14.9981C50.4286 15.0013 50.7696 15.0507 51.0994 15.145L51.5243 13.3004C50.9084 13.0826 50.2602 12.9705 49.607 12.9688C47.7261 12.9687 46.2147 13.9653 46.2147 16.0294V16.838H44.0195V18.8579H46.2147V26.0578H48.7763V18.8563H51.6443V16.838H48.7763V16.1589Z" fill="#2A3362"/>
<path d="M73.4763 14.2383H71.1074L70.9747 16.8378H68.9722V18.8577H70.9273V23.4028C70.9273 24.9505 71.717 26.2455 74.0859 26.2455C74.7 26.2455 75.3123 26.1778 75.9115 26.0434V24.1025C75.566 24.1799 75.2137 24.2233 74.8597 24.232C73.5884 24.232 73.4779 23.5134 73.4779 22.9591V18.8529H76.0047V16.8378H73.4763V14.2383Z" fill="#2A3362"/>
<path d="M81.4658 14.2383H79.1048L78.9721 16.8378H76.9648V18.8577H78.92V23.4028C78.92 24.9505 79.7096 26.2455 82.0785 26.2455C82.6913 26.2436 83.3019 26.1743 83.8995 26.0387V24.1025C83.5539 24.1799 83.2017 24.2233 82.8477 24.232C81.5763 24.232 81.4658 23.5134 81.4658 22.9591V18.8529H84.0005V16.8378H81.4658V14.2383Z" fill="#2A3362"/>
<path d="M8.604 12.6161C8.604 11.1364 9.03673 9.87293 9.94481 8.96484L11.5241 10.5441C9.76635 12.2955 11.3014 17.7409 16.3062 22.7504C21.3109 27.7599 26.7594 29.2933 28.5156 27.5388L30.0948 29.118C27.1321 32.0808 20.3839 29.9787 14.7348 24.3281C10.8166 20.4083 8.604 15.9611 8.604 12.6161Z" fill="#009A46"/>
<path d="M18.563 30.48C17.0832 30.48 15.8198 30.0472 14.9102 29.1391L16.4894 27.5599C18.244 29.3144 23.6894 27.7794 28.6988 22.7715C33.7083 17.7636 35.2402 12.3182 33.4856 10.5637L35.0649 8.98438C38.0292 11.9471 35.9256 18.6954 30.275 24.3444C26.3552 28.269 21.9079 30.48 18.563 30.48Z" fill="#FF5805"/>
<path d="M30.7977 22.0827C29.8391 19.3221 27.8808 16.372 25.2829 13.7757C19.6338 8.12502 12.8855 6.02142 9.92279 8.98573C9.71274 9.19735 9.89436 9.7201 10.3302 10.156C10.7661 10.5919 11.2889 10.7719 11.4989 10.5619C13.2551 8.80727 18.7004 10.3423 23.7083 15.3518C26.0772 17.7207 27.8429 20.366 28.6941 22.8139C29.4395 24.9601 29.3669 26.691 28.4983 27.5596C28.2867 27.7697 28.4699 28.294 28.9042 28.7283C29.3385 29.1626 29.8628 29.3458 30.0744 29.1342C31.5921 27.6165 31.8495 25.1086 30.7977 22.0827Z" fill="#F5AFCB"/>
<path d="M35.0616 8.98788C33.5408 7.46703 31.036 7.20961 28.007 8.26299C25.248 9.22003 22.2963 11.1799 19.7 13.7763C14.0509 19.4253 11.9473 26.1736 14.91 29.1379C15.1216 29.348 15.6444 29.1663 16.0803 28.732C16.5161 28.2977 16.6978 27.7734 16.4861 27.5618C14.7268 25.8072 16.2666 20.3619 21.2761 15.3524C23.645 12.9835 26.2903 11.2178 28.7382 10.3666C30.8844 9.62275 32.6153 9.69382 33.4855 10.5624C33.6956 10.7725 34.2199 10.5909 34.6542 10.155C35.0885 9.71909 35.2717 9.19792 35.0616 8.98788Z" fill="#FF9B00"/>
</svg>
