<svg width="19" height="24" viewBox="0 0 19 24" fill="none" xmlns="http://www.w3.org/2000/svg">
<rect y="2.79999" width="19" height="18.3816" rx="0.8" fill="white"/>
<path d="M12.9312 9.74421C13.3912 9.28418 13.8479 8.21075 11.9311 9.51419C10.1405 10.7465 8.33778 11.9611 6.52317 13.1578C6.24685 13.2828 5.94812 13.3506 5.64493 13.3572C5.34174 13.3638 5.04035 13.309 4.75886 13.1962C3.60876 12.8511 2.26615 12.3911 2.26615 12.3911C2.26615 12.3911 1.34941 11.8152 2.91871 11.2018C2.91871 11.2018 9.55342 8.47911 11.8544 7.51986C12.7362 7.1365 15.7273 5.90973 15.7273 5.90973C15.7273 5.90973 17.1082 5.37219 16.9932 6.67646C16.9549 7.21317 16.6482 9.09333 16.3415 11.1252C15.8806 14.0012 15.3822 17.1465 15.3822 17.1465C15.3822 17.1465 15.3056 18.0282 14.6538 18.1816C13.9562 18.1698 13.2821 17.9271 12.737 17.4915C12.5837 17.3765 9.86094 15.6505 8.86336 14.8071C8.76188 14.7384 8.67944 14.6451 8.62371 14.5359C8.56797 14.4268 8.54075 14.3053 8.54457 14.1828C8.5484 14.0603 8.58315 13.9407 8.64559 13.8352C8.70803 13.7298 8.79613 13.6418 8.9017 13.5795C10.2699 12.3277 11.6134 11.049 12.9312 9.74421Z" fill="#003A8C"/>
</svg>
