<svg width="206" height="62" viewBox="0 0 206 62" fill="none" xmlns="http://www.w3.org/2000/svg">
<g filter="url(#filter0_dd)">
<path d="M3 23C3 13.5719 3 8.85786 5.92893 5.92893C8.85786 3 13.5719 3 23 3H183C192.428 3 197.142 3 200.071 5.92893C203 8.85786 203 13.5719 203 23V37C203 46.4281 203 51.1421 200.071 54.0711C197.142 57 192.428 57 183 57H23C13.5719 57 8.85786 57 5.92893 54.0711C3 51.1421 3 46.4281 3 37V23Z" fill="white"/>
<rect x="36" y="3" width="133" height="54" rx="10" fill="white"/>
<rect width="24" height="24" transform="translate(51 18)" fill="white"/>
<path fillRule="evenodd" clipRule="evenodd" d="M74.04 30.2615C74.04 29.446 73.9668 28.6619 73.8309 27.9092H63V32.3576H69.1891C68.9225 33.7951 68.1123 35.013 66.8943 35.8285V38.714H70.6109C72.7855 36.7119 74.04 33.7637 74.04 30.2615Z" fill="#4285F4"/>
<path fillRule="evenodd" clipRule="evenodd" d="M63 41.5001C66.105 41.5001 68.7081 40.4703 70.6109 38.7139L66.8943 35.8285C65.8645 36.5185 64.5472 36.9262 63 36.9262C60.0047 36.9262 57.4695 34.9032 56.5652 32.1851H52.7231V35.1646C54.6154 38.923 58.5045 41.5001 63 41.5001Z" fill="#34A853"/>
<path fillRule="evenodd" clipRule="evenodd" d="M56.5652 32.185C56.3352 31.495 56.2045 30.7579 56.2045 30C56.2045 29.242 56.3352 28.505 56.5652 27.815V24.8354H52.7232C51.9443 26.3879 51.5 28.1443 51.5 30C51.5 31.8557 51.9443 33.612 52.7232 35.1645L56.5652 32.185Z" fill="#FBBC05"/>
<path fillRule="evenodd" clipRule="evenodd" d="M63 23.0739C64.6884 23.0739 66.2043 23.6541 67.3961 24.7936L70.6945 21.4952C68.7029 19.6395 66.0997 18.5 63 18.5C58.5045 18.5 54.6154 21.077 52.7231 24.8355L56.5652 27.815C57.4695 25.0968 60.0047 23.0739 63 23.0739Z" fill="#EA4335"/>
<path d="M102.344 34.1543C101.829 34.8249 101.117 35.3327 100.205 35.6777C99.2936 36.0228 98.2585 36.1953 97.0996 36.1953C95.9082 36.1953 94.8535 35.9251 93.9355 35.3848C93.0176 34.8444 92.3079 34.0729 91.8066 33.0703C91.3118 32.0612 91.0547 30.8861 91.0352 29.5449V28.4316C91.0352 26.2832 91.5495 24.6068 92.5781 23.4023C93.6068 22.1914 95.0423 21.5859 96.8848 21.5859C98.4668 21.5859 99.7233 21.9766 100.654 22.7578C101.585 23.5391 102.145 24.6654 102.334 26.1367H99.9121C99.6387 24.4245 98.6458 23.5684 96.9336 23.5684C95.8268 23.5684 94.9837 23.9688 94.4043 24.7695C93.8314 25.5638 93.5352 26.7324 93.5156 28.2754V29.3691C93.5156 30.9056 93.8379 32.1003 94.4824 32.9531C95.1335 33.7995 96.0352 34.2227 97.1875 34.2227C98.4505 34.2227 99.349 33.9362 99.8828 33.3633V30.5801H96.9531V28.7051H102.344V34.1543ZM104.385 30.6191C104.385 29.584 104.59 28.653 105 27.8262C105.41 26.9928 105.986 26.3548 106.729 25.9121C107.471 25.4629 108.324 25.2383 109.287 25.2383C110.713 25.2383 111.868 25.6973 112.754 26.6152C113.646 27.5332 114.128 28.7507 114.199 30.2676L114.209 30.8242C114.209 31.8659 114.007 32.7969 113.604 33.6172C113.206 34.4375 112.633 35.0723 111.885 35.5215C111.143 35.9707 110.283 36.1953 109.307 36.1953C107.816 36.1953 106.621 35.7005 105.723 34.7109C104.831 33.7148 104.385 32.39 104.385 30.7363V30.6191ZM106.758 30.8242C106.758 31.9115 106.982 32.7643 107.432 33.3828C107.881 33.9948 108.506 34.3008 109.307 34.3008C110.107 34.3008 110.729 33.9883 111.172 33.3633C111.621 32.7383 111.846 31.8236 111.846 30.6191C111.846 29.5514 111.615 28.7051 111.152 28.0801C110.697 27.4551 110.075 27.1426 109.287 27.1426C108.512 27.1426 107.897 27.4518 107.441 28.0703C106.986 28.6823 106.758 29.6003 106.758 30.8242ZM115.771 30.6191C115.771 29.584 115.977 28.653 116.387 27.8262C116.797 26.9928 117.373 26.3548 118.115 25.9121C118.857 25.4629 119.71 25.2383 120.674 25.2383C122.1 25.2383 123.255 25.6973 124.141 26.6152C125.033 27.5332 125.514 28.7507 125.586 30.2676L125.596 30.8242C125.596 31.8659 125.394 32.7969 124.99 33.6172C124.593 34.4375 124.02 35.0723 123.271 35.5215C122.529 35.9707 121.67 36.1953 120.693 36.1953C119.202 36.1953 118.008 35.7005 117.109 34.7109C116.217 33.7148 115.771 32.39 115.771 30.7363V30.6191ZM118.145 30.8242C118.145 31.9115 118.369 32.7643 118.818 33.3828C119.268 33.9948 119.893 34.3008 120.693 34.3008C121.494 34.3008 122.116 33.9883 122.559 33.3633C123.008 32.7383 123.232 31.8236 123.232 30.6191C123.232 29.5514 123.001 28.7051 122.539 28.0801C122.083 27.4551 121.462 27.1426 120.674 27.1426C119.899 27.1426 119.284 27.4518 118.828 28.0703C118.372 28.6823 118.145 29.6003 118.145 30.8242ZM127.188 30.6387C127.188 28.998 127.572 27.6895 128.34 26.7129C129.115 25.7298 130.14 25.2383 131.416 25.2383C132.62 25.2383 133.568 25.6582 134.258 26.498L134.365 25.4336H136.504V35.6777C136.504 37.0645 136.071 38.1582 135.205 38.959C134.346 39.7598 133.184 40.1602 131.719 40.1602C130.944 40.1602 130.186 39.9974 129.443 39.6719C128.708 39.3529 128.148 38.9329 127.764 38.4121L128.887 36.9863C129.616 37.8522 130.514 38.2852 131.582 38.2852C132.37 38.2852 132.992 38.0703 133.447 37.6406C133.903 37.2174 134.131 36.5924 134.131 35.7656V35.0527C133.447 35.8145 132.536 36.1953 131.396 36.1953C130.16 36.1953 129.147 35.7038 128.359 34.7207C127.578 33.7376 127.188 32.377 127.188 30.6387ZM129.551 30.8438C129.551 31.9049 129.766 32.7415 130.195 33.3535C130.632 33.959 131.234 34.2617 132.002 34.2617C132.959 34.2617 133.669 33.8516 134.131 33.0312V28.3828C133.682 27.582 132.979 27.1816 132.021 27.1816C131.24 27.1816 130.632 27.4909 130.195 28.1094C129.766 28.7279 129.551 29.6393 129.551 30.8438ZM141.475 36H139.102V21H141.475V36ZM148.721 36.1953C147.217 36.1953 145.996 35.7233 145.059 34.7793C144.128 33.8288 143.662 32.5658 143.662 30.9902V30.6973C143.662 29.6426 143.864 28.7018 144.268 27.875C144.678 27.0417 145.251 26.3939 145.986 25.9316C146.722 25.4694 147.542 25.2383 148.447 25.2383C149.886 25.2383 150.996 25.6973 151.777 26.6152C152.565 27.5332 152.959 28.832 152.959 30.5117V31.4688H146.055C146.126 32.3411 146.416 33.0312 146.924 33.5391C147.438 34.0469 148.083 34.3008 148.857 34.3008C149.945 34.3008 150.83 33.8613 151.514 32.9824L152.793 34.2031C152.37 34.8346 151.803 35.3262 151.094 35.6777C150.391 36.0228 149.6 36.1953 148.721 36.1953ZM148.438 27.1426C147.786 27.1426 147.259 27.3704 146.855 27.8262C146.458 28.2819 146.204 28.9167 146.094 29.7305H150.615V29.5547C150.563 28.7604 150.352 28.1615 149.98 27.7578C149.609 27.3477 149.095 27.1426 148.438 27.1426Z" fill="black" fill-opacity="0.54"/>
</g>
<defs>
<filter id="filter0_dd" x="0" y="0" width="206" height="62" filterUnits="userSpaceOnUse" color-interpolation-filters="sRGB">
<feFlood flood-opacity="0" result="BackgroundImageFix"/>
<feColorMatrix in="SourceAlpha" type="matrix" values="0 0 0 0 0 0 0 0 0 0 0 0 0 0 0 0 0 0 127 0"/>
<feOffset dy="2"/>
<feGaussianBlur stdDeviation="1.5"/>
<feColorMatrix type="matrix" values="0 0 0 0 0 0 0 0 0 0 0 0 0 0 0 0 0 0 0.168 0"/>
<feBlend mode="normal" in2="BackgroundImageFix" result="effect1_dropShadow"/>
<feColorMatrix in="SourceAlpha" type="matrix" values="0 0 0 0 0 0 0 0 0 0 0 0 0 0 0 0 0 0 127 0"/>
<feOffset/>
<feGaussianBlur stdDeviation="1.5"/>
<feColorMatrix type="matrix" values="0 0 0 0 0 0 0 0 0 0 0 0 0 0 0 0 0 0 0.084 0"/>
<feBlend mode="normal" in2="effect1_dropShadow" result="effect2_dropShadow"/>
<feBlend mode="normal" in="SourceGraphic" in2="effect2_dropShadow" result="shape"/>
</filter>
</defs>
</svg>
