<svg width="168" height="33" viewBox="0 0 168 33" fill="none" xmlns="http://www.w3.org/2000/svg">
<path d="M20.8242 24.3528H12.1748V8.64941H20.8244L20.8242 24.3528Z" fill="#BFBFBF"/>
<path d="M12.7247 16.4997C12.7247 13.3143 14.2011 10.4767 16.5001 8.64801C14.7599 7.26176 12.6075 6.5094 10.3913 6.51271C4.93214 6.51271 0.506836 10.984 0.506836 16.4997C0.506836 22.0154 4.93214 26.4867 10.3913 26.4867C12.6075 26.49 14.76 25.7376 16.5003 24.3514C14.2014 22.523 12.7247 19.6853 12.7247 16.4997Z" fill="#BFBFBF"/>
<path d="M32.4933 16.4997C32.4933 22.0154 28.068 26.4867 22.6088 26.4867C20.3923 26.4899 18.2396 25.7376 16.499 24.3514C18.7987 22.5227 20.2751 19.6853 20.2751 16.4997C20.2751 13.3141 18.7987 10.4767 16.499 8.64801C18.2396 7.2618 20.3922 6.50946 22.6086 6.51271C28.0678 6.51271 32.4931 10.984 32.4931 16.4997" fill="#BFBFBF"/>
<path d="M43.6719 24H47V16.7969C47 15.4687 47.8438 14.5859 48.9531 14.5859C50.0469 14.5859 50.7813 15.3359 50.7813 16.5156V24H54.0078V16.6719C54.0078 15.4297 54.7188 14.5859 55.9297 14.5859C56.9922 14.5859 57.7891 15.25 57.7891 16.5859V24H61.1094V15.9297C61.1094 13.3281 59.5625 11.8438 57.3281 11.8438C55.5703 11.8438 54.2031 12.7422 53.7109 14.1172H53.5859C53.2031 12.7266 51.9766 11.8438 50.3281 11.8438C48.7109 11.8438 47.4844 12.7031 46.9844 14.1172H46.8438V12H43.6719V24ZM67.1602 24.2266C68.9336 24.2266 70.082 23.4531 70.668 22.3359H70.7617V24H73.918V15.9062C73.918 13.0469 71.4961 11.8438 68.8242 11.8438C65.9492 11.8438 64.0586 13.2187 63.5977 15.4062L66.6758 15.6562C66.9023 14.8594 67.6133 14.2734 68.8086 14.2734C69.9414 14.2734 70.5898 14.8437 70.5898 15.8281V15.875C70.5898 16.6484 69.7695 16.75 67.6836 16.9531C65.3086 17.1719 63.1758 17.9687 63.1758 20.6484C63.1758 23.0234 64.8711 24.2266 67.1602 24.2266ZM68.1133 21.9297C67.0898 21.9297 66.3555 21.4531 66.3555 20.5391C66.3555 19.6016 67.1289 19.1406 68.3008 18.9766C69.0273 18.875 70.2148 18.7031 70.6133 18.4375V19.7109C70.6133 20.9687 69.5742 21.9297 68.1133 21.9297ZM86.4844 15.4219C86.1875 13.2109 84.4063 11.8438 81.375 11.8438C78.3047 11.8438 76.2813 13.2656 76.2891 15.5781C76.2813 17.375 77.4141 18.5391 79.7578 19.0078L81.8359 19.4219C82.8828 19.6328 83.3594 20.0156 83.375 20.6172C83.3594 21.3281 82.5859 21.8359 81.4219 21.8359C80.2344 21.8359 79.4453 21.3281 79.2422 20.3516L75.9688 20.5234C76.2813 22.8203 78.2344 24.2344 81.4141 24.2344C84.5234 24.2344 86.75 22.6484 86.7578 20.2812C86.75 18.5469 85.6172 17.5078 83.2891 17.0312L81.1172 16.5937C80 16.3516 79.5859 15.9687 79.5938 15.3906C79.5859 14.6719 80.3984 14.2031 81.4297 14.2031C82.5859 14.2031 83.2734 14.8359 83.4375 15.6094L86.4844 15.4219ZM95.2363 12H92.9785V9.125H89.6504V12H88.0098V14.5H89.6504V20.75C89.6348 23.1016 91.2363 24.2656 93.6504 24.1641C94.5098 24.1328 95.1191 23.9609 95.4551 23.8516L94.9316 21.375C94.7676 21.4062 94.416 21.4844 94.1035 21.4844C93.4395 21.4844 92.9785 21.2344 92.9785 20.3125V14.5H95.2363V12ZM102.744 24.2344C105.713 24.2344 107.713 22.7891 108.182 20.5625L105.104 20.3594C104.768 21.2734 103.908 21.75 102.799 21.75C101.135 21.75 100.08 20.6484 100.08 18.8594V18.8516H108.252V17.9375C108.252 13.8594 105.783 11.8438 102.611 11.8438C99.0801 11.8438 96.791 14.3516 96.791 18.0547C96.791 21.8594 99.0488 24.2344 102.744 24.2344ZM100.08 16.7891C100.15 15.4219 101.189 14.3281 102.666 14.3281C104.111 14.3281 105.111 15.3594 105.119 16.7891H100.08ZM110.424 24H113.752V17.2109C113.752 15.7344 114.83 14.7188 116.299 14.7188C116.76 14.7188 117.393 14.7969 117.705 14.8984V11.9453C117.408 11.875 116.994 11.8281 116.658 11.8281C115.314 11.8281 114.213 12.6094 113.775 14.0937H113.65V12H110.424V24ZM124.289 24.2344C127.484 24.2344 129.492 22.3594 129.648 19.6016H126.508C126.313 20.8828 125.469 21.6016 124.328 21.6016C122.773 21.6016 121.766 20.2969 121.766 18C121.766 15.7344 122.781 14.4375 124.328 14.4375C125.547 14.4375 126.328 15.2422 126.508 16.4375H129.648C129.508 13.6641 127.406 11.8438 124.273 11.8438C120.633 11.8438 118.383 14.3672 118.383 18.0469C118.383 21.6953 120.594 24.2344 124.289 24.2344ZM135.201 24.2266C136.975 24.2266 138.123 23.4531 138.709 22.3359H138.803V24H141.959V15.9062C141.959 13.0469 139.537 11.8438 136.865 11.8438C133.99 11.8438 132.1 13.2187 131.639 15.4062L134.717 15.6562C134.943 14.8594 135.654 14.2734 136.85 14.2734C137.982 14.2734 138.631 14.8437 138.631 15.8281V15.875C138.631 16.6484 137.811 16.75 135.725 16.9531C133.35 17.1719 131.217 17.9687 131.217 20.6484C131.217 23.0234 132.912 24.2266 135.201 24.2266ZM136.154 21.9297C135.131 21.9297 134.396 21.4531 134.396 20.5391C134.396 19.6016 135.17 19.1406 136.342 18.9766C137.068 18.875 138.256 18.7031 138.654 18.4375V19.7109C138.654 20.9687 137.615 21.9297 136.154 21.9297ZM144.541 24H147.869V17.2109C147.869 15.7344 148.947 14.7188 150.416 14.7188C150.877 14.7188 151.51 14.7969 151.822 14.8984V11.9453C151.525 11.875 151.111 11.8281 150.775 11.8281C149.432 11.8281 148.33 12.6094 147.893 14.0937H147.768V12H144.541V24ZM157.406 24.1953C159.344 24.1953 160.352 23.0781 160.813 22.0781H160.953V24H164.234V8H160.914V14.0156H160.813C160.367 13.0391 159.406 11.8438 157.398 11.8438C154.766 11.8438 152.539 13.8906 152.539 18.0156C152.539 22.0312 154.672 24.1953 157.406 24.1953ZM158.461 21.5469C156.828 21.5469 155.938 20.0937 155.938 18C155.938 15.9219 156.812 14.4922 158.461 14.4922C160.078 14.4922 160.984 15.8594 160.984 18C160.984 20.1406 160.063 21.5469 158.461 21.5469Z" fill="#BFBFBF"/>
</svg>
