<svg width="28" height="28" viewBox="0 0 28 28" fill="none" xmlns="http://www.w3.org/2000/svg">
<path d="M12.6665 7.33464H15.3332V10.0013H12.6665V7.33464ZM12.6665 12.668H15.3332V20.668H12.6665V12.668ZM13.9998 0.667969C6.63984 0.667969 0.666504 6.6413 0.666504 14.0013C0.666504 21.3613 6.63984 27.3346 13.9998 27.3346C21.3598 27.3346 27.3332 21.3613 27.3332 14.0013C27.3332 6.6413 21.3598 0.667969 13.9998 0.667969ZM13.9998 24.668C8.11984 24.668 3.33317 19.8813 3.33317 14.0013C3.33317 8.1213 8.11984 3.33464 13.9998 3.33464C19.8798 3.33464 24.6665 8.1213 24.6665 14.0013C24.6665 19.8813 19.8798 24.668 13.9998 24.668Z" fill="#F90005"/>
</svg>
