<svg width="31" height="30" viewBox="0 0 31 30" fill="none" xmlns="http://www.w3.org/2000/svg">
<path d="M15.4056 11.3905C13.2889 11.3905 11.5614 13.1179 11.5614 15.2347C11.5614 17.3514 13.2889 19.0789 15.4056 19.0789C17.5224 19.0789 19.2498 17.3514 19.2498 15.2347C19.2498 13.1179 17.5224 11.3905 15.4056 11.3905ZM26.9353 15.2347C26.9353 13.6428 26.9497 12.0653 26.8603 10.4763C26.7709 8.63064 26.3499 6.99261 25.0002 5.64296C23.6477 4.29043 22.0126 3.87227 20.1669 3.78287C18.575 3.69347 16.9975 3.70789 15.4085 3.70789C13.8166 3.70789 12.2392 3.69347 10.6501 3.78287C8.80447 3.87227 7.16644 4.29331 5.81679 5.64296C4.46426 6.99549 4.0461 8.63064 3.9567 10.4763C3.8673 12.0682 3.88172 13.6457 3.88172 15.2347C3.88172 16.8237 3.8673 18.4041 3.9567 19.9931C4.0461 21.8387 4.46714 23.4768 5.81679 24.8264C7.16932 26.179 8.80447 26.5971 10.6501 26.6865C12.242 26.7759 13.8195 26.7615 15.4085 26.7615C17.0004 26.7615 18.5779 26.7759 20.1669 26.6865C22.0126 26.5971 23.6506 26.1761 25.0002 24.8264C26.3528 23.4739 26.7709 21.8387 26.8603 19.9931C26.9526 18.4041 26.9353 16.8266 26.9353 15.2347ZM15.4056 21.1495C12.1324 21.1495 9.49083 18.5079 9.49083 15.2347C9.49083 11.9615 12.1324 9.31989 15.4056 9.31989C18.6788 9.31989 21.3204 11.9615 21.3204 15.2347C21.3204 18.5079 18.6788 21.1495 15.4056 21.1495ZM21.5627 10.459C20.7985 10.459 20.1813 9.84187 20.1813 9.07764C20.1813 8.31342 20.7985 7.69627 21.5627 7.69627C22.3269 7.69627 22.9441 8.31342 22.9441 9.07764C22.9443 9.25911 22.9087 9.43884 22.8394 9.60654C22.77 9.77424 22.6683 9.92661 22.54 10.0549C22.4116 10.1832 22.2593 10.285 22.0916 10.3543C21.9239 10.4237 21.7442 10.4592 21.5627 10.459Z" fill="white"/>
</svg>
