<svg width="233" height="206" viewBox="0 0 233 206" fill="none" xmlns="http://www.w3.org/2000/svg">
<path d="M15.4814 33.001V21.3646H16.8904V27.1373H17.0268L22.2541 21.3646H24.095L19.2086 26.6146L24.095 33.001H22.3904L18.345 27.5919L16.8904 29.2282V33.001H15.4814ZM25.737 33.001V24.2737H27.0325V25.5919H27.1234C27.2825 25.1601 27.5704 24.8097 27.987 24.5407C28.4037 24.2718 28.8734 24.1373 29.3961 24.1373C29.4946 24.1373 29.6177 24.1392 29.7654 24.143C29.9132 24.1468 30.0249 24.1525 30.1007 24.1601V25.5237C30.0552 25.5123 29.9511 25.4953 29.7882 25.4726C29.6291 25.4461 29.4605 25.4328 29.2825 25.4328C28.8583 25.4328 28.4795 25.5218 28.1461 25.6998C27.8166 25.8741 27.5552 26.1165 27.362 26.4271C27.1726 26.7339 27.0779 27.0843 27.0779 27.4782V33.001H25.737ZM35.0836 33.1828C34.2427 33.1828 33.5173 32.9972 32.9075 32.626C32.3014 32.251 31.8336 31.7282 31.5041 31.0578C31.1783 30.3836 31.0154 29.5995 31.0154 28.7055C31.0154 27.8116 31.1783 27.0237 31.5041 26.3419C31.8336 25.6563 32.292 25.1222 32.8791 24.7396C33.47 24.3532 34.1594 24.1601 34.9473 24.1601C35.4018 24.1601 35.8507 24.2358 36.2939 24.3873C36.737 24.5389 37.1404 24.7851 37.5041 25.126C37.8677 25.4631 38.1575 25.9101 38.3734 26.4669C38.5893 27.0237 38.6973 27.7093 38.6973 28.5237V29.0919H31.97V27.9328H37.3336C37.3336 27.4404 37.2351 27.001 37.0382 26.6146C36.845 26.2282 36.5685 25.9233 36.2086 25.6998C35.8526 25.4764 35.4321 25.3646 34.9473 25.3646C34.4132 25.3646 33.9511 25.4972 33.5609 25.7623C33.1745 26.0237 32.8772 26.3646 32.6689 26.7851C32.4605 27.2055 32.3564 27.6563 32.3564 28.1373V28.9101C32.3564 29.5692 32.47 30.1279 32.6973 30.5862C32.9283 31.0407 33.2484 31.3873 33.6575 31.626C34.0666 31.8608 34.542 31.9782 35.0836 31.9782C35.4359 31.9782 35.7541 31.929 36.0382 31.8305C36.3261 31.7282 36.5742 31.5767 36.7825 31.376C36.9908 31.1714 37.1518 30.9176 37.2654 30.6146L38.5609 30.9782C38.4245 31.4176 38.1954 31.804 37.8734 32.1373C37.5514 32.4669 37.1537 32.7245 36.6802 32.9101C36.2067 33.0919 35.6745 33.1828 35.0836 33.1828ZM43.3052 33.2055C42.7522 33.2055 42.2503 33.1014 41.7995 32.893C41.3488 32.6809 40.9908 32.376 40.7257 31.9782C40.4605 31.5767 40.3279 31.0919 40.3279 30.5237C40.3279 30.0237 40.4264 29.6184 40.6234 29.3078C40.8204 28.9934 41.0836 28.7472 41.4132 28.5692C41.7427 28.3911 42.1064 28.2586 42.5041 28.1714C42.9056 28.0805 43.309 28.0086 43.7143 27.9555C44.2446 27.8873 44.6745 27.8362 45.0041 27.8021C45.3374 27.7642 45.5798 27.7017 45.7314 27.6146C45.8867 27.5275 45.9643 27.376 45.9643 27.1601V27.1146C45.9643 26.554 45.8109 26.1184 45.5041 25.8078C45.2011 25.4972 44.7408 25.3419 44.1234 25.3419C43.4833 25.3419 42.9814 25.482 42.6177 25.7623C42.2541 26.0426 41.9984 26.3419 41.8507 26.6601L40.5779 26.2055C40.8052 25.6752 41.1083 25.2623 41.487 24.9669C41.8696 24.6676 42.2863 24.4593 42.737 24.3419C43.1916 24.2207 43.6386 24.1601 44.0779 24.1601C44.3583 24.1601 44.6802 24.1942 45.0439 24.2623C45.4113 24.3267 45.7654 24.4612 46.1064 24.6657C46.4511 24.8703 46.737 25.179 46.9643 25.5919C47.1916 26.0048 47.3052 26.5578 47.3052 27.251V33.001H45.9643V31.8192H45.8961C45.8052 32.0086 45.6537 32.2112 45.4416 32.4271C45.2295 32.643 44.9473 32.8267 44.595 32.9782C44.2427 33.1298 43.8128 33.2055 43.3052 33.2055ZM43.5098 32.001C44.0401 32.001 44.487 31.8968 44.8507 31.6885C45.2181 31.4801 45.4946 31.2112 45.6802 30.8817C45.8696 30.5521 45.9643 30.2055 45.9643 29.8419V28.6146C45.9075 28.6828 45.7825 28.7453 45.5893 28.8021C45.3999 28.8551 45.1802 28.9025 44.9302 28.9442C44.684 28.982 44.4435 29.0161 44.2086 29.0464C43.9776 29.0729 43.7901 29.0957 43.6461 29.1146C43.2976 29.1601 42.9719 29.2339 42.6689 29.3362C42.3696 29.4347 42.1272 29.5843 41.9416 29.7851C41.7598 29.982 41.6689 30.251 41.6689 30.5919C41.6689 31.0578 41.8412 31.4101 42.1859 31.6487C42.5344 31.8836 42.9757 32.001 43.5098 32.001ZM53.5481 24.2737V25.4101H49.0254V24.2737H53.5481ZM50.3436 22.1828H51.6845V30.501C51.6845 30.8798 51.7394 31.1639 51.8493 31.3532C51.9629 31.5389 52.1068 31.6639 52.2811 31.7282C52.4591 31.7889 52.6466 31.8192 52.8436 31.8192C52.9913 31.8192 53.1125 31.8116 53.2072 31.7964C53.3019 31.7775 53.3777 31.7623 53.4345 31.751L53.7072 32.9555C53.6163 32.9896 53.4894 33.0237 53.3265 33.0578C53.1636 33.0957 52.9572 33.1146 52.7072 33.1146C52.3284 33.1146 51.9572 33.0332 51.5936 32.8703C51.2337 32.7074 50.9345 32.4593 50.6958 32.126C50.461 31.7926 50.3436 31.3722 50.3436 30.8646V22.1828ZM59.0169 33.1828C58.229 33.1828 57.5377 32.9953 56.943 32.6203C56.3521 32.2453 55.89 31.7207 55.5566 31.0464C55.2271 30.3722 55.0623 29.5843 55.0623 28.6828C55.0623 27.7737 55.2271 26.9801 55.5566 26.3021C55.89 25.6241 56.3521 25.0976 56.943 24.7226C57.5377 24.3476 58.229 24.1601 59.0169 24.1601C59.8047 24.1601 60.4941 24.3476 61.0851 24.7226C61.6797 25.0976 62.1419 25.6241 62.4714 26.3021C62.8047 26.9801 62.9714 27.7737 62.9714 28.6828C62.9714 29.5843 62.8047 30.3722 62.4714 31.0464C62.1419 31.7207 61.6797 32.2453 61.0851 32.6203C60.4941 32.9953 59.8047 33.1828 59.0169 33.1828ZM59.0169 31.9782C59.6154 31.9782 60.1078 31.8248 60.4941 31.518C60.8805 31.2112 61.1665 30.8078 61.3521 30.3078C61.5377 29.8078 61.6305 29.2661 61.6305 28.6828C61.6305 28.0995 61.5377 27.5559 61.3521 27.0521C61.1665 26.5483 60.8805 26.1411 60.4941 25.8305C60.1078 25.5199 59.6154 25.3646 59.0169 25.3646C58.4184 25.3646 57.926 25.5199 57.5396 25.8305C57.1532 26.1411 56.8672 26.5483 56.6816 27.0521C56.496 27.5559 56.4032 28.0995 56.4032 28.6828C56.4032 29.2661 56.496 29.8078 56.6816 30.3078C56.8672 30.8078 57.1532 31.2112 57.5396 31.518C57.926 31.8248 58.4184 31.9782 59.0169 31.9782ZM65.0183 33.001V24.2737H66.3137V25.5919H66.4047C66.5637 25.1601 66.8516 24.8097 67.2683 24.5407C67.685 24.2718 68.1547 24.1373 68.6774 24.1373C68.7759 24.1373 68.899 24.1392 69.0467 24.143C69.1944 24.1468 69.3062 24.1525 69.3819 24.1601V25.5237C69.3365 25.5123 69.2323 25.4953 69.0694 25.4726C68.9103 25.4461 68.7418 25.4328 68.5637 25.4328C68.1395 25.4328 67.7607 25.5218 67.4274 25.6998C67.0978 25.8741 66.8365 26.1165 66.6433 26.4271C66.4539 26.7339 66.3592 27.0843 66.3592 27.4782V33.001H65.0183Z" fill="#262626"/>
<g clip-path="url(#clip0_31609_107739)">
<path d="M51.6901 205.531C51.6778 205.477 50.4864 200.057 52.9195 195.555C55.3525 191.053 60.5461 189.067 60.5983 189.048L60.8357 188.959L60.8918 189.206C60.9041 189.26 62.0954 194.68 59.6624 199.183C57.2294 203.684 52.0357 205.67 51.9835 205.689L51.746 205.778L51.6901 205.531ZM60.5102 189.561C59.4698 190.008 55.364 191.962 53.3091 195.764C51.2539 199.567 51.874 204.064 52.0717 205.176C53.1116 204.73 57.2158 202.779 59.2728 198.973C61.3278 195.17 60.708 190.674 60.5102 189.561Z" fill="#D9D9D9"/>
<path d="M57.8024 197.605C53.43 200.23 51.7461 205.443 51.7461 205.443C51.7461 205.443 57.1511 206.401 61.5235 203.776C65.8958 201.151 67.5798 195.938 67.5798 195.938C67.5798 195.938 62.1747 194.98 57.8024 197.605Z" fill="#D9D9D9"/>
<path d="M58.7988 164.342H71.1515V158.103H58.7988V164.342Z" fill="#00B140"/>
<path d="M61.3782 158.719C61.4094 158.465 61.3844 158.207 61.3048 157.963C61.2253 157.72 61.0932 157.497 60.9179 157.31C60.7426 157.122 60.5283 156.976 60.2901 156.88C60.0519 156.785 59.7956 156.743 59.5392 156.757L57.8015 153.147L55.3457 153.666L57.8715 158.729C57.9236 159.157 58.1313 159.551 58.4552 159.836C58.7791 160.122 59.1968 160.279 59.629 160.278C60.0612 160.277 60.478 160.117 60.8004 159.83C61.1228 159.543 61.3283 159.148 61.3781 158.719H61.3782Z" fill="#FFB7B7"/>
<path d="M23.6553 200.624L25.6991 201.667L30.7064 194.298L27.6896 192.758L23.6553 200.624Z" fill="#FFB7B7"/>
<path d="M23.4745 199.691L27.4997 201.747L27.4999 201.747C28.1802 202.094 28.6943 202.697 28.9291 203.423C29.164 204.148 29.1003 204.937 28.7522 205.616L28.7096 205.699L22.1191 202.334L23.4745 199.691Z" fill="black"/>
<path d="M47.2622 203.478L49.558 203.478L50.6504 194.642H47.2617L47.2622 203.478Z" fill="#FFB7B7"/>
<path d="M46.6738 202.73L51.1955 202.729H51.1957C51.9599 202.73 52.6928 203.032 53.2332 203.572C53.7736 204.111 54.0772 204.842 54.0773 205.605V205.698L46.674 205.698L46.6738 202.73Z" fill="black"/>
<path d="M36.5205 131.404C36.5205 131.404 34.983 130.229 34.983 133.1L34.7402 142.587L37.4511 151.549L39.0291 148.642L38.3817 142.345L36.5205 131.404Z" fill="#40A9FF"/>
<path d="M52.9689 157.351C52.9689 157.351 54.7518 166.015 52.4935 173.124L51.2454 200.46L46.6693 200.104L45.0647 179.825L43.5195 169.744L40.3103 178.935L29.7317 198.385L24.8584 194.59C24.8584 194.59 30.2588 179.888 34.2484 176.801L36.2493 154.062L52.9689 157.351Z" fill="#002766"/>
<path d="M47.5439 119.822C50.4256 119.822 52.7617 117.491 52.7617 114.616C52.7617 111.741 50.4256 109.41 47.5439 109.41C44.6622 109.41 42.3262 111.741 42.3262 114.616C42.3262 117.491 44.6622 119.822 47.5439 119.822Z" fill="#FFB8B8"/>
<path d="M47.1746 115.719C47.8001 115.801 48.2719 115.162 48.4907 114.572C48.7096 113.982 48.8763 113.294 49.4201 112.976C50.1631 112.54 51.1137 113.064 51.9633 112.92C52.9228 112.758 53.5466 111.743 53.5955 110.774C53.6444 109.804 53.2576 108.871 52.8781 107.977L52.7456 109.088C52.7633 108.712 52.6839 108.337 52.5149 108C52.346 107.662 52.0931 107.374 51.7805 107.162L51.9513 108.793C51.9149 108.568 51.8344 108.352 51.7144 108.158C51.5943 107.964 51.4371 107.796 51.2517 107.663C51.0663 107.53 50.8564 107.435 50.634 107.383C50.4117 107.331 50.1812 107.323 49.9559 107.361L49.9828 108.332C48.8746 108.201 47.7567 108.069 46.6453 108.169C45.5338 108.269 44.4145 108.62 43.5721 109.351C42.312 110.443 41.8518 112.242 42.0063 113.9C42.1608 115.559 42.847 117.117 43.5621 118.622C43.742 119.001 43.9909 119.428 44.4081 119.476C44.5973 119.479 44.7819 119.419 44.933 119.305C45.0841 119.191 45.193 119.031 45.2426 118.849C45.3323 118.481 45.3289 118.097 45.2324 117.731C45.127 117.172 44.9941 116.601 45.0932 116.041C45.1924 115.481 45.5962 114.927 46.1622 114.859C46.7281 114.79 47.3072 115.435 47.0351 115.935L47.1746 115.719Z" fill="black"/>
<path d="M53.2891 159.669L35.8721 158.548L37.1829 153.129L53.1017 156.679L53.2891 159.669Z" fill="#CBCBCB"/>
<path d="M42.5493 121.715L43.6418 120.202C43.6418 120.202 44.8628 120.616 48.133 122.24L48.364 123.658L54.0403 158.493L43.7227 158.049L40.913 157.989L39.9936 155.932L38.8598 157.945L36.116 157.887L33.3242 156.272L36.0756 147.875L36.9657 140.205L35.59 132.979C35.59 132.979 33.859 126.343 40.5263 122.765L42.5493 121.715Z" fill="#40A9FF"/>
<path d="M56.8506 156.867L57.2252 158.175L59.847 156.471L58.8577 155.341L56.8506 156.867Z" fill="#CBCBCB"/>
<path d="M44.502 125.925C44.502 125.925 48.5663 120.748 51.0227 126.518L51.7972 132.565C51.7972 132.565 54.7731 140.081 54.8626 143.122C54.8626 143.122 56.8801 147.09 56.8616 149.175L59.8462 155.917L56.785 157.813L48.3131 144.852L44.502 125.925Z" fill="#40A9FF"/>
<path d="M101.719 138.111H203.515V86.6924H101.719V138.111Z" fill="white"/>
<path d="M204.357 138.949H100.881V85.8555H204.357V138.949ZM102.56 137.274H202.677V87.5312H102.56V137.274Z" fill="#E5E5E5"/>
<path d="M183.136 96.0566H163.957V128.747H183.136V96.0566Z" fill="#E5E5E5"/>
<path d="M160.783 96.0557H122.098V105.054H160.783V96.0557Z" fill="#00B140"/>
<path d="M160.783 107.56H122.098V117.241H160.783V107.56Z" fill="#E5E5E5"/>
<path d="M160.783 119.748H122.098V128.747H160.783V119.748Z" fill="#E5E5E5"/>
<path d="M204.186 80.4693H102.019C101.913 80.4674 101.811 80.4302 101.737 80.3656C101.663 80.301 101.621 80.2142 101.621 80.1238C101.621 80.0335 101.663 79.9467 101.737 79.8821C101.811 79.8175 101.913 79.7802 102.019 79.7783H204.186C204.292 79.7802 204.393 79.8175 204.467 79.8821C204.542 79.9467 204.583 80.0335 204.583 80.1238C204.583 80.2142 204.542 80.301 204.467 80.3656C204.393 80.4302 204.292 80.4674 204.186 80.4693Z" fill="#CACACA"/>
<path d="M108.623 77.5032C109.875 77.5032 110.89 76.4656 110.89 75.1857C110.89 73.9058 109.875 72.8682 108.623 72.8682C107.371 72.8682 106.356 73.9058 106.356 75.1857C106.356 76.4656 107.371 77.5032 108.623 77.5032Z" fill="#595959"/>
<path d="M116.613 77.5032C117.865 77.5032 118.88 76.4656 118.88 75.1857C118.88 73.9058 117.865 72.8682 116.613 72.8682C115.361 72.8682 114.346 73.9058 114.346 75.1857C114.346 76.4656 115.361 77.5032 116.613 77.5032Z" fill="#595959"/>
<path d="M124.6 77.5032C125.852 77.5032 126.867 76.4656 126.867 75.1857C126.867 73.9058 125.852 72.8682 124.6 72.8682C123.348 72.8682 122.333 73.9058 122.333 75.1857C122.333 76.4656 123.348 77.5032 124.6 77.5032Z" fill="#595959"/>
<path d="M199.505 73.4414H193.942C193.832 73.4436 193.727 73.4889 193.65 73.5677C193.573 73.6464 193.529 73.7523 193.529 73.8626C193.529 73.9729 193.573 74.0788 193.65 74.1576C193.727 74.2363 193.832 74.2817 193.942 74.2839H199.505C199.616 74.2817 199.721 74.2363 199.798 74.1576C199.875 74.0788 199.918 73.9729 199.918 73.8626C199.918 73.7523 199.875 73.6464 199.798 73.5677C199.721 73.4889 199.616 73.4436 199.505 73.4414Z" fill="#595959"/>
<path d="M199.505 75.0225H193.942C193.832 75.0246 193.727 75.07 193.65 75.1487C193.573 75.2275 193.529 75.3334 193.529 75.4437C193.529 75.554 193.573 75.6599 193.65 75.7386C193.727 75.8174 193.832 75.8627 193.942 75.8649H199.505C199.616 75.8627 199.721 75.8174 199.798 75.7386C199.875 75.6599 199.918 75.554 199.918 75.4437C199.918 75.3334 199.875 75.2275 199.798 75.1487C199.721 75.07 199.616 75.0246 199.505 75.0225Z" fill="#595959"/>
<path d="M199.505 76.6016H193.942C193.832 76.6037 193.727 76.6491 193.65 76.7278C193.573 76.8066 193.529 76.9125 193.529 77.0228C193.529 77.1331 193.573 77.239 193.65 77.3177C193.727 77.3965 193.832 77.4418 193.942 77.444H199.505C199.616 77.4418 199.721 77.3965 199.798 77.3177C199.875 77.239 199.918 77.1331 199.918 77.0228C199.918 76.9125 199.875 76.8066 199.798 76.7278C199.721 76.6491 199.616 76.6037 199.505 76.6016Z" fill="#595959"/>
</g>
<defs>
<clipPath id="clip0_31609_107739">
<rect width="204.092" height="138.204" fill="white" transform="translate(0.251953 67.6416)"/>
</clipPath>
</defs>
</svg>
