<svg width="179" height="40" viewBox="0 0 179 40" fill="none" xmlns="http://www.w3.org/2000/svg">
<path fill-rule="evenodd" clip-rule="evenodd" d="M7.26156 0.0585938H32.676C36.6858 0.0585938 39.9376 3.31035 39.9376 7.32016V32.7346C39.9376 36.7444 36.6858 39.9962 32.676 39.9962H7.26156C3.25176 39.9962 0 36.7444 0 32.7346V7.32016C0 3.31035 3.25176 0.0585938 7.26156 0.0585938Z" fill="url(#paint0_linear_717_7625)"/>
<path fill-rule="evenodd" clip-rule="evenodd" d="M25.0982 9.7136C24.092 10.7123 23.0897 11.6649 22.0986 12.6846C21.8695 13.1365 21.8162 13.5717 22.1593 13.9712C23.6286 15.6838 25.2086 16.9025 26.6004 18.7462C27.3949 19.7989 27.3449 21.5218 26.6091 22.5785C25.2924 24.4682 23.4733 25.9537 21.8373 27.5679L20.2378 29.0193C18.2508 26.742 19.3813 25.4268 21.0963 23.5863L22.7844 21.9042C23.7703 20.9703 23.9097 20.6891 22.9626 19.6388C21.5792 18.2506 18.4243 15.7561 18.4243 13.6956C18.4243 11.182 19.9277 10.0341 21.5907 8.34841L25.203 5.02954C27.1289 6.41419 26.3288 8.23643 25.0978 9.7136V9.7132L25.0982 9.7136Z" fill="url(#paint1_linear_717_7625)"/>
<path d="M14.1752 19.9363C14.9575 19.9363 15.5916 19.3021 15.5916 18.5199C15.5916 17.7376 14.9575 17.1035 14.1752 17.1035C13.3929 17.1035 12.7588 17.7376 12.7588 18.5199C12.7588 19.3021 13.3929 19.9363 14.1752 19.9363Z" fill="#F90005"/>
<path fill-rule="evenodd" clip-rule="evenodd" d="M20.1953 18.1208C21.6785 19.6703 20.8811 20.9259 19.726 22.3228C18.8353 23.233 17.8906 24.136 17.0492 25.0886C16.5624 25.6401 16.2618 26.2497 16.8638 26.8651C18.0947 28.1195 19.2916 29.2417 20.4487 30.5827C21.1809 31.8824 20.976 32.8656 20.0258 33.9969C18.0475 32.1198 16.1554 30.2368 14.2386 28.297C13.3317 27.2412 13.1061 25.5119 14.0067 24.2094C16.0589 21.9976 17.9728 20.1635 20.1945 18.1212H20.1953V18.1208Z" fill="url(#paint2_linear_717_7625)"/>
<path d="M14.1752 35.0237C14.9575 35.0237 15.5916 34.3895 15.5916 33.6073C15.5916 32.825 14.9575 32.1909 14.1752 32.1909C13.3929 32.1909 12.7588 32.825 12.7588 33.6073C12.7588 34.3895 13.3929 35.0237 14.1752 35.0237Z" fill="#0072EF"/>
<path d="M51.7425 21.4222L50.0406 23.2392V27.264H45.5328V11.1647H50.0406V17.8574L56.2733 11.1647H61.2871L54.7094 18.2944L61.6321 27.264H56.3423L51.7425 21.4222ZM66.5582 16.2935C67.0028 15.7262 67.5778 15.3045 68.2831 15.0285C69.0037 14.7372 69.824 14.5915 70.744 14.5915V18.5244C70.3453 18.4784 70.0157 18.4554 69.755 18.4554C68.8197 18.4554 68.0838 18.7084 67.5471 19.2143C67.0258 19.7203 66.7652 20.4946 66.7652 21.5372V27.264H62.3954V14.7985H66.5582V16.2935ZM79.1047 24.1361C79.7026 24.1361 80.2163 24.0518 80.6456 23.8831C81.0902 23.7145 81.5349 23.4385 81.9795 23.0552L84.2564 25.4471C83.0758 26.7963 81.3126 27.471 78.9667 27.471C77.5101 27.471 76.2298 27.195 75.1258 26.643C74.0219 26.091 73.1632 25.3244 72.5499 24.3431C71.952 23.3618 71.653 22.2502 71.653 21.0083C71.653 19.7816 71.952 18.6854 72.5499 17.7194C73.1479 16.7381 73.9682 15.9715 75.0108 15.4195C76.0688 14.8675 77.2494 14.5915 78.5527 14.5915C79.764 14.5915 80.8679 14.8445 81.8645 15.3505C82.8765 15.8411 83.6815 16.5694 84.2794 17.5354C84.8774 18.486 85.1764 19.6206 85.1764 20.9393L76.2758 22.6412C76.7511 23.6378 77.694 24.1361 79.1047 24.1361ZM78.5757 17.6964C77.8244 17.6964 77.2111 17.9341 76.7358 18.4094C76.2604 18.8693 75.9921 19.5363 75.9308 20.4103L80.9906 19.4213C80.8372 18.9 80.5459 18.486 80.1166 18.1794C79.6873 17.8574 79.1737 17.6964 78.5757 17.6964ZM100.37 14.7985V27.264H96.2067V26.022C95.3941 26.988 94.1675 27.471 92.5269 27.471C91.3923 27.471 90.3573 27.2103 89.422 26.689C88.5021 26.1524 87.7661 25.3934 87.2141 24.4121C86.6775 23.4308 86.4092 22.2962 86.4092 21.0083C86.4092 19.7203 86.6775 18.5934 87.2141 17.6274C87.7661 16.6461 88.5021 15.8948 89.422 15.3735C90.3573 14.8522 91.3923 14.5915 92.5269 14.5915C93.9988 14.5915 95.1565 15.0208 95.9997 15.8795V14.7985H100.37ZM93.4469 23.9981C94.2135 23.9981 94.8421 23.7375 95.3328 23.2162C95.8234 22.6795 96.0687 21.9435 96.0687 21.0083C96.0687 20.0883 95.8234 19.3677 95.3328 18.8463C94.8421 18.325 94.2135 18.0644 93.4469 18.0644C92.6802 18.0644 92.0516 18.325 91.5609 18.8463C91.0703 19.3677 90.825 20.0883 90.825 21.0083C90.825 21.9435 91.0703 22.6795 91.5609 23.2162C92.0516 23.7375 92.6802 23.9981 93.4469 23.9981ZM111.209 26.758C110.841 26.988 110.389 27.1643 109.852 27.287C109.331 27.4096 108.771 27.471 108.173 27.471C106.548 27.471 105.299 27.0723 104.425 26.275C103.566 25.4777 103.137 24.2894 103.137 22.7102V12.0156H107.506V15.2585H110.335V18.5244H107.506V22.6642C107.506 23.1242 107.621 23.4768 107.851 23.7221C108.081 23.9675 108.396 24.0901 108.794 24.0901C109.3 24.0901 109.745 23.9598 110.128 23.6991L111.209 26.758ZM119.196 24.1361C119.794 24.1361 120.307 24.0518 120.737 23.8831C121.181 23.7145 121.626 23.4385 122.071 23.0552L124.347 25.4471C123.167 26.7963 121.404 27.471 119.058 27.471C117.601 27.471 116.321 27.195 115.217 26.643C114.113 26.091 113.254 25.3244 112.641 24.3431C112.043 23.3618 111.744 22.2502 111.744 21.0083C111.744 19.7816 112.043 18.6854 112.641 17.7194C113.239 16.7381 114.059 15.9715 115.102 15.4195C116.16 14.8675 117.34 14.5915 118.644 14.5915C119.855 14.5915 120.959 14.8445 121.956 15.3505C122.967 15.8411 123.772 16.5694 124.37 17.5354C124.968 18.486 125.267 19.6206 125.267 20.9393L116.367 22.6412C116.842 23.6378 117.785 24.1361 119.196 24.1361ZM118.667 17.6964C117.915 17.6964 117.302 17.9341 116.827 18.4094C116.351 18.8693 116.083 19.5363 116.022 20.4103L121.082 19.4213C120.928 18.9 120.637 18.486 120.208 18.1794C119.778 17.8574 119.265 17.6964 118.667 17.6964Z" fill="#FEFEFE"/>
<path d="M132.984 27.402C131.788 27.402 130.638 27.2103 129.534 26.827C128.445 26.4437 127.602 25.9377 127.004 25.3091L127.671 23.9981C128.253 24.5808 129.028 25.0561 129.994 25.4241C130.96 25.7767 131.956 25.953 132.984 25.953C134.425 25.953 135.506 25.6924 136.226 25.1711C136.947 24.6344 137.307 23.9445 137.307 23.1012C137.307 22.4572 137.108 21.9435 136.709 21.5602C136.326 21.1769 135.851 20.8856 135.283 20.6863C134.716 20.4716 133.926 20.2416 132.915 19.9963C131.703 19.6896 130.737 19.3983 130.017 19.1223C129.296 18.831 128.675 18.394 128.154 17.8114C127.648 17.2288 127.395 16.4391 127.395 15.4425C127.395 14.6299 127.609 13.8939 128.039 13.2346C128.468 12.56 129.127 12.0233 130.017 11.6247C130.906 11.226 132.01 11.0267 133.329 11.0267C134.248 11.0267 135.145 11.157 136.019 11.4177C136.909 11.663 137.675 12.008 138.319 12.4526L137.744 13.8096C137.07 13.3649 136.349 13.0353 135.582 12.8206C134.816 12.5906 134.064 12.4756 133.329 12.4756C131.918 12.4756 130.852 12.7516 130.132 13.3036C129.426 13.8402 129.074 14.5379 129.074 15.3965C129.074 16.0405 129.265 16.5618 129.649 16.9604C130.047 17.3437 130.538 17.6427 131.121 17.8574C131.719 18.0567 132.516 18.279 133.513 18.5244C134.693 18.8157 135.644 19.107 136.364 19.3983C137.1 19.6743 137.721 20.1036 138.227 20.6863C138.733 21.2536 138.986 22.0279 138.986 23.0092C138.986 23.8218 138.764 24.5654 138.319 25.2401C137.89 25.8994 137.223 26.4283 136.318 26.827C135.414 27.2103 134.302 27.402 132.984 27.402ZM147.524 25.93C148.276 25.93 148.966 25.7997 149.594 25.5391C150.238 25.2631 150.782 24.8644 151.227 24.3431L152.147 25.4011C151.61 26.045 150.943 26.5357 150.146 26.873C149.349 27.2103 148.467 27.379 147.501 27.379C146.259 27.379 145.155 27.1183 144.189 26.597C143.223 26.0604 142.472 25.3244 141.936 24.3891C141.399 23.4538 141.131 22.3959 141.131 21.2152C141.131 20.0346 141.384 18.9767 141.89 18.0414C142.411 17.1061 143.124 16.3778 144.028 15.8565C144.933 15.3352 145.96 15.0745 147.11 15.0745C148.184 15.0745 149.15 15.3198 150.008 15.8105C150.882 16.3011 151.572 16.9834 152.078 17.8574C152.599 18.7314 152.875 19.728 152.906 20.8473L142.97 22.7792C143.277 23.7605 143.829 24.5348 144.626 25.1021C145.439 25.654 146.405 25.93 147.524 25.93ZM147.11 16.4775C146.267 16.4775 145.508 16.6768 144.833 17.0754C144.174 17.4587 143.653 18.0031 143.269 18.7084C142.901 19.3983 142.718 20.1956 142.718 21.1002C142.718 21.3302 142.725 21.4989 142.741 21.6062L151.273 19.9503C151.089 18.9383 150.621 18.1104 149.87 17.4664C149.119 16.8071 148.199 16.4775 147.11 16.4775ZM159.634 27.379C158.545 27.379 157.702 27.0723 157.104 26.459C156.521 25.8457 156.23 24.9947 156.23 23.9061V10.1987H157.863V23.7681C157.863 24.4888 158.031 25.0407 158.369 25.4241C158.706 25.792 159.212 25.976 159.887 25.976C160.316 25.976 160.684 25.907 160.991 25.769L161.106 27.126C160.63 27.2946 160.14 27.379 159.634 27.379ZM166.731 27.379C165.642 27.379 164.799 27.0723 164.201 26.459C163.618 25.8457 163.327 24.9947 163.327 23.9061V10.1987H164.96V23.7681C164.96 24.4888 165.129 25.0407 165.466 25.4241C165.803 25.792 166.309 25.976 166.984 25.976C167.413 25.976 167.781 25.907 168.088 25.769L168.203 27.126C167.728 27.2946 167.237 27.379 166.731 27.379Z" fill="#00B140"/>
<path d="M38.8057 36.4742L3.7852 2.35196C3.49612 2.07002 3.24318 1.72178 3.0625 1.39219C4.11995 0.619856 5.45297 0.0857712 7.00519 0H32.6841C36.9032 0.0277962 39.9306 3.52337 39.9306 7.03125V32.1253C39.9735 33.7077 39.6566 35.1491 38.8064 36.4746H38.8057V36.4742Z" fill="#E6E7E8" fill-opacity="0.301961"/>
<defs>
<linearGradient id="paint0_linear_717_7625" x1="20.0653" y1="18.1841" x2="-10.5606" y2="54.6186" gradientUnits="userSpaceOnUse">
<stop stop-color="#FEFEFE"/>
<stop offset="1" stop-color="#E6E7E8"/>
</linearGradient>
<linearGradient id="paint1_linear_717_7625" x1="22.1828" y1="7.0944" x2="22.7442" y2="29.9175" gradientUnits="userSpaceOnUse">
<stop stop-color="#00B140"/>
<stop offset="1" stop-color="#03890C"/>
</linearGradient>
<linearGradient id="paint2_linear_717_7625" x1="17.4522" y1="17.6062" x2="17.1413" y2="38.7274" gradientUnits="userSpaceOnUse">
<stop stop-color="#0072EF"/>
<stop offset="1" stop-color="#383086"/>
</linearGradient>
</defs>
</svg>
