<svg width="20" height="20" viewBox="0 0 20 20" fill="none" xmlns="http://www.w3.org/2000/svg">
<path d="M18.7633 10.5095C19.157 9.98918 19.375 9.35168 19.375 8.6884C19.375 7.63605 18.7867 6.63996 17.8398 6.08449C17.5961 5.94151 17.3185 5.86626 17.0359 5.86652H11.4156L11.5563 2.98605C11.5891 2.28996 11.343 1.62902 10.8648 1.12512C10.6302 0.876743 10.3471 0.67913 10.0331 0.544487C9.71905 0.409843 9.38074 0.341031 9.03906 0.342302C7.82031 0.342302 6.74219 1.16262 6.41875 2.33683L4.40547 9.6259H1.375C0.960156 9.6259 0.625 9.96105 0.625 10.3759V18.9071C0.625 19.322 0.960156 19.6571 1.375 19.6571H15.468C15.6836 19.6571 15.8945 19.615 16.0891 19.5306C17.2047 19.0548 17.9242 17.965 17.9242 16.7556C17.9242 16.4603 17.882 16.1696 17.7977 15.8884C18.1914 15.3681 18.4094 14.7306 18.4094 14.0673C18.4094 13.772 18.3672 13.4814 18.2828 13.2001C18.6766 12.6798 18.8945 12.0423 18.8945 11.379C18.8898 11.0837 18.8477 10.7907 18.7633 10.5095V10.5095ZM2.3125 17.9696V11.3134H4.21094V17.9696H2.3125ZM17.2281 9.69621L16.7148 10.1415L17.0406 10.7368C17.148 10.9329 17.2036 11.1531 17.2023 11.3767C17.2023 11.7634 17.0336 12.1314 16.743 12.3845L16.2297 12.8298L16.5555 13.4251C16.6628 13.6212 16.7185 13.8414 16.7172 14.065C16.7172 14.4517 16.5484 14.8196 16.2578 15.0728L15.7445 15.5181L16.0703 16.1134C16.1776 16.3095 16.2333 16.5297 16.232 16.7532C16.232 17.2782 15.9227 17.7517 15.4445 17.9673H5.71094V11.2384L8.04297 2.78918C8.1031 2.57262 8.23219 2.38156 8.41066 2.24495C8.58914 2.10834 8.80728 2.03364 9.03203 2.03215C9.21016 2.03215 9.38594 2.08371 9.52656 2.18918C9.75859 2.36262 9.88281 2.62512 9.86875 2.90402L9.64375 7.55402H17.0125C17.4297 7.80949 17.6875 8.24074 17.6875 8.6884C17.6875 9.07512 17.5188 9.44074 17.2281 9.69621Z" fill="#8C8C8C"/>
</svg>
