<svg width="25" height="26" viewBox="0 0 25 26" fill="none" xmlns="http://www.w3.org/2000/svg">
<path d="M24.1844 13.6792C24.7094 12.9854 25 12.1354 25 11.2511C25 9.84795 24.2156 8.51982 22.9531 7.7792C22.6281 7.58856 22.2581 7.48822 21.8813 7.48857H14.3875L14.575 3.64795C14.6188 2.71982 14.2906 1.83857 13.6531 1.1667C13.3403 0.835536 12.9628 0.572051 12.5441 0.392527C12.1254 0.213003 11.6743 0.121253 11.2188 0.122948C9.59375 0.122948 8.15625 1.2167 7.725 2.78232L5.04062 12.5011H5.03125V25.8761H19.7906C20.0781 25.8761 20.3594 25.8198 20.6187 25.7073C22.1062 25.0729 23.0656 23.6198 23.0656 22.0073C23.0656 21.6136 23.0094 21.2261 22.8969 20.8511C23.4219 20.1573 23.7125 19.3073 23.7125 18.4229C23.7125 18.0292 23.6562 17.6417 23.5438 17.2667C24.0688 16.5729 24.3594 15.7229 24.3594 14.8386C24.3531 14.4448 24.2969 14.0542 24.1844 13.6792ZM0 13.5011V24.8761C0 25.4292 0.446875 25.8761 1 25.8761H3.03125V12.5011H1C0.446875 12.5011 0 12.9479 0 13.5011Z" fill="#0072EF"/>
</svg>
