<svg width="435" height="332" viewBox="0 0 435 332" fill="none" xmlns="http://www.w3.org/2000/svg">
<path d="M93.5353 325.492L83.667 331.554L83.4682 319.976L93.5353 325.492ZM431.534 90.7883L432.515 90.5993L431.534 90.7883ZM1.53492 266.688L0.537993 266.698L1.53492 266.688ZM87.3819 326.547C86.1681 326.528 84.8001 326.492 83.3 326.431L83.4008 324.427C84.8831 324.487 86.2344 324.522 87.4324 324.541L87.3819 326.547ZM79.1588 326.211C77.8592 326.126 76.4943 326.022 75.0738 325.895L75.2701 323.897C76.6741 324.022 78.0233 324.125 79.3079 324.209L79.1588 326.211ZM70.9879 325.479C69.6617 325.328 68.2997 325.156 66.9084 324.961L67.2025 322.974C68.5765 323.166 69.9219 323.336 71.2323 323.486L70.9879 325.479ZM62.8418 324.337C61.5101 324.114 60.1587 323.87 58.7926 323.601L59.1934 321.632C60.5404 321.897 61.8736 322.138 63.1879 322.358L62.8418 324.337ZM54.7654 322.748C53.4394 322.446 52.1046 322.121 50.7655 321.77L51.2859 319.828C52.6036 320.173 53.9178 320.494 55.2241 320.791L54.7654 322.748ZM46.7995 320.657C45.49 320.265 44.1806 319.847 42.8753 319.402L43.5327 317.501C44.8134 317.938 46.0992 318.349 47.386 318.734L46.7995 320.657ZM39.004 317.992C37.7242 317.495 36.4525 316.97 35.1928 316.415L36.0082 314.576C37.2396 315.119 38.484 315.633 39.7375 316.119L39.004 317.992ZM31.4563 314.658C30.2241 314.04 29.008 313.391 27.812 312.707L28.8096 310.96C29.9732 311.625 31.1579 312.258 32.3597 312.861L31.4563 314.658ZM24.2807 310.55C23.1237 309.793 21.9911 309.002 20.887 308.172L22.0901 306.56C23.1583 307.363 24.2557 308.13 25.3785 308.864L24.2807 310.55ZM17.659 305.565C16.6142 304.657 15.6024 303.709 14.6279 302.721L16.0505 301.301C16.9882 302.252 17.963 303.165 18.971 304.041L17.659 305.565ZM11.8273 299.638C10.9398 298.576 10.0932 297.471 9.29183 296.324L10.9271 295.16C11.695 296.259 12.5069 297.318 13.3589 298.338L11.8273 299.638ZM7.05656 292.8C6.37139 291.605 5.73261 290.368 5.14394 289.088L6.95488 288.231C7.51851 289.456 8.13007 290.64 8.78606 291.784L7.05656 292.8ZM3.56814 285.22C3.10687 283.928 2.69389 282.596 2.33227 281.224L4.25984 280.692C4.60708 282.009 5.00328 283.286 5.44538 284.525L3.56814 285.22ZM1.42969 277.127C1.18864 275.778 0.994529 274.394 0.849731 272.973L2.8332 272.749C2.97297 274.12 3.16015 275.455 3.39218 276.753L1.42969 277.127ZM0.572824 268.83C0.549679 268.128 0.537987 267.417 0.537993 266.698L2.53184 266.678C2.53184 267.375 2.54317 268.064 2.56558 268.744L0.572824 268.83ZM0.537993 266.698C0.538 265.975 0.548256 265.26 0.568675 264.552L2.56169 264.59C2.54183 265.279 2.53185 265.974 2.53184 266.678L0.537993 266.698ZM0.81249 260.384C0.933964 259.021 1.09541 257.686 1.29613 256.378L3.26658 256.664C3.07249 257.93 2.91612 259.222 2.79835 260.543L0.81249 260.384ZM2.02793 252.475C2.33594 251.093 2.69068 249.743 3.09117 248.424L4.99755 248.992C4.61215 250.262 4.27034 251.562 3.97326 252.895L2.02793 252.475ZM4.42877 244.559C4.9218 243.297 5.45985 242.065 6.04185 240.864L7.83243 241.728C7.27385 242.881 6.75722 244.064 6.28358 245.277L4.42877 244.559ZM7.99328 237.223C8.69012 236.042 9.43282 234.893 10.2201 233.776L11.8429 234.925C11.0868 235.998 10.3739 237.101 9.70516 238.234L7.99328 237.223ZM12.7064 230.526C13.5673 229.487 14.4699 228.478 15.4129 227.499L16.8385 228.887C15.9295 229.831 15.0605 230.803 14.2325 231.802L12.7064 230.526ZM18.3618 224.645C19.3723 223.734 20.421 222.849 21.5066 221.992L22.728 223.565C21.676 224.396 20.6612 225.252 19.6847 226.133L18.3618 224.645ZM24.7209 219.605C25.8254 218.833 26.9626 218.085 28.1315 217.36L29.1655 219.065C28.0267 219.771 26.9203 220.499 25.8471 221.249L24.7209 219.605ZM31.7126 215.264C32.8527 214.633 34.0192 214.022 35.2112 213.43L36.0801 215.226C34.9132 215.807 33.7726 216.404 32.659 217.02L31.7126 215.264ZM38.863 211.706C40.1052 211.15 41.3723 210.611 42.6634 210.089L43.3903 211.95C42.1214 212.463 40.8773 212.992 39.6587 213.538L38.863 211.706ZM46.3954 208.653C47.6273 208.202 48.8789 207.765 50.1498 207.341L50.7597 209.245C49.5068 209.663 48.2738 210.093 47.0612 210.538L46.3954 208.653ZM54.0196 206.111C55.3281 205.714 56.6553 205.331 58.0006 204.96L58.5094 206.894C57.1798 207.261 55.8689 207.64 54.5772 208.031L54.0196 206.111ZM61.7841 203.962C63.0605 203.641 64.3519 203.329 65.6579 203.028L66.0847 204.983C64.7915 205.282 63.5133 205.59 62.2506 205.908L61.7841 203.962ZM69.6191 202.155C70.9511 201.875 72.2971 201.604 73.6568 201.343L74.0117 203.313C72.6632 203.572 71.3288 203.841 70.0087 204.119L69.6191 202.155ZM77.5077 200.635C78.803 200.407 80.1098 200.187 81.4278 199.974L81.7237 201.955C80.415 202.166 79.1177 202.384 77.8322 202.611L77.5077 200.635ZM85.4148 199.36C86.7547 199.163 88.1053 198.973 89.4664 198.791L89.7105 200.779C88.3575 200.961 87.0152 201.149 85.6839 201.345L85.4148 199.36ZM93.3962 198.287C94.6976 198.127 96.008 197.974 97.3269 197.827L97.5276 199.82C96.2154 199.967 94.912 200.12 93.6177 200.278L93.3962 198.287ZM101.309 197.401C102.645 197.266 103.989 197.135 105.341 197.01L105.504 199.008C104.158 199.132 102.82 199.262 101.49 199.397L101.309 197.401ZM109.37 196.656C110.672 196.547 111.981 196.443 113.297 196.343L113.427 198.343C112.116 198.443 110.812 198.546 109.516 198.655L109.37 196.656ZM117.264 196.057C118.592 195.966 119.927 195.879 121.269 195.796L121.371 197.799C120.034 197.881 118.703 197.967 117.379 198.058L117.264 196.057ZM125.311 195.56C126.637 195.487 127.969 195.418 129.306 195.352L129.383 197.355C128.05 197.421 126.722 197.49 125.4 197.563L125.311 195.56ZM133.257 195.168C134.579 195.11 135.905 195.055 137.237 195.003L137.294 197.008C135.966 197.059 134.642 197.114 133.324 197.172L133.257 195.168ZM141.246 194.857C142.586 194.811 143.931 194.768 145.281 194.728L145.32 196.733C143.973 196.773 142.631 196.816 141.293 196.862L141.246 194.857ZM149.27 194.617C150.587 194.583 151.909 194.551 153.233 194.522L153.257 196.527C151.935 196.557 150.616 196.589 149.301 196.623L149.27 194.617ZM157.217 194.44C158.548 194.415 159.883 194.391 161.221 194.37L161.232 196.376C159.896 196.397 158.564 196.42 157.235 196.446L157.217 194.44ZM165.242 194.312C166.572 194.294 167.904 194.279 169.239 194.264L169.24 196.27C167.907 196.285 166.576 196.3 165.248 196.318L165.242 194.312ZM173.209 194.226C174.535 194.215 175.863 194.205 177.193 194.196L177.186 196.202C175.857 196.211 174.531 196.221 173.206 196.232L173.209 194.226ZM181.19 194.174C182.524 194.167 183.86 194.162 185.198 194.157L185.185 196.163C183.848 196.168 182.513 196.173 181.18 196.18L181.19 194.174ZM189.2 194.146C190.525 194.143 191.851 194.141 193.178 194.139L193.161 196.146C191.834 196.147 190.509 196.149 189.185 196.152L189.2 194.146ZM197.164 194.136C198.493 194.136 199.824 194.135 201.155 194.136L201.135 196.142C199.804 196.142 198.474 196.142 197.145 196.142L197.164 194.136ZM205.151 194.137C206.484 194.137 207.817 194.138 209.15 194.138L209.129 196.145C207.796 196.144 206.463 196.143 205.13 196.143L205.151 194.137ZM213.138 194.14C214.468 194.141 215.797 194.141 217.127 194.141L217.107 196.147C215.777 196.147 214.447 196.147 213.117 196.146L213.138 194.14ZM221.116 194.14C222.446 194.139 223.775 194.138 225.104 194.136L225.087 196.142C223.758 196.144 222.428 196.145 221.098 196.146L221.116 194.14ZM229.09 194.129C230.423 194.126 231.756 194.122 233.087 194.117L233.075 196.123C231.742 196.128 230.408 196.132 229.074 196.135L229.09 194.129ZM237.084 194.1C238.415 194.093 239.745 194.085 241.074 194.076L241.068 196.083C239.738 196.092 238.406 196.099 237.074 196.106L237.084 194.1ZM245.057 194.046C246.383 194.034 247.708 194.022 249.031 194.007L249.033 196.013C247.708 196.028 246.382 196.04 245.054 196.052L245.057 194.046ZM253.026 193.959C254.364 193.942 255.699 193.922 257.033 193.901L257.044 195.907C255.709 195.928 254.371 195.948 253.032 195.965L253.026 193.959ZM261.027 193.832C262.356 193.807 263.682 193.78 265.006 193.751L265.03 195.756C263.704 195.786 262.375 195.813 261.044 195.838L261.027 193.832ZM268.971 193.657C270.301 193.623 271.629 193.587 272.953 193.548L272.991 195.553C271.664 195.592 270.334 195.628 269.001 195.662L268.971 193.657ZM276.971 193.423C278.307 193.378 279.639 193.331 280.968 193.281L281.023 195.286C279.691 195.336 278.355 195.383 277.017 195.428L276.971 193.423ZM284.944 193.122C286.266 193.066 287.583 193.007 288.897 192.945L288.971 194.949C287.654 195.011 286.333 195.07 285.008 195.126L284.944 193.122ZM292.867 192.746C294.213 192.675 295.555 192.6 296.891 192.522L296.988 194.525C295.647 194.603 294.301 194.678 292.951 194.749L292.867 192.746ZM300.887 192.275C302.215 192.189 303.537 192.099 304.853 192.005L304.975 194.006C303.654 194.1 302.327 194.191 300.996 194.277L300.887 192.275ZM308.787 191.709C310.116 191.605 311.438 191.496 312.755 191.383L312.906 193.381C311.584 193.495 310.256 193.605 308.923 193.709L308.787 191.709ZM316.776 191.019C318.11 190.893 319.438 190.762 320.758 190.626L320.942 192.622C319.616 192.759 318.283 192.89 316.943 193.017L316.776 191.019ZM324.699 190.201C326.005 190.054 327.305 189.901 328.597 189.743L328.818 191.734C327.52 191.893 326.214 192.047 324.901 192.195L324.699 190.201ZM332.586 189.233C333.926 189.055 335.258 188.869 336.58 188.678L336.845 190.663C335.515 190.856 334.176 191.042 332.829 191.222L332.586 189.233ZM340.521 188.082C341.825 187.877 343.121 187.664 344.406 187.445L344.721 189.423C343.426 189.644 342.123 189.857 340.81 190.064L340.521 188.082ZM348.285 186.755C349.626 186.507 350.956 186.251 352.274 185.986L352.646 187.953C351.317 188.22 349.977 188.479 348.627 188.728L348.285 186.755ZM356.195 185.166C357.49 184.884 358.773 184.593 360.044 184.293L360.481 186.245C359.198 186.548 357.904 186.842 356.598 187.126L356.195 185.166ZM363.82 183.365C365.148 183.025 366.461 182.675 367.76 182.314L368.273 184.247C366.961 184.612 365.634 184.966 364.293 185.309L363.82 183.365ZM371.616 181.196C372.886 180.813 374.14 180.418 375.379 180.011L375.98 181.918C374.726 182.33 373.456 182.729 372.172 183.117L371.616 181.196ZM379.051 178.756C380.344 178.295 381.618 177.82 382.873 177.332L383.576 179.202C382.303 179.698 381.01 180.179 379.7 180.646L379.051 178.756ZM386.58 175.823C387.796 175.306 388.992 174.775 390.168 174.228L390.989 176.048C389.793 176.604 388.576 177.145 387.341 177.67L386.58 175.823ZM393.705 172.508C394.917 171.891 396.106 171.256 397.27 170.604L398.227 172.354C397.039 173.02 395.827 173.667 394.591 174.297L393.705 172.508ZM400.687 168.592C401.801 167.903 402.889 167.196 403.951 166.47L405.06 168.126C403.972 168.87 402.857 169.594 401.718 170.298L400.687 168.592ZM407.203 164.127C408.268 163.318 409.302 162.487 410.307 161.634L411.584 163.161C410.551 164.039 409.488 164.892 408.395 165.723L407.203 164.127ZM413.226 159.008C414.183 158.096 415.108 157.161 416 156.201L417.45 157.563C416.53 158.554 415.576 159.518 414.59 160.458L413.226 159.008ZM418.606 153.211C419.441 152.19 420.241 151.143 421.005 150.07L422.622 151.227C421.831 152.337 421.004 153.42 420.142 154.476L418.606 153.211ZM423.18 146.788C423.864 145.678 424.512 144.541 425.124 143.378L426.884 144.303C426.25 145.507 425.58 146.683 424.872 147.832L423.18 146.788ZM426.851 139.807C427.387 138.598 427.886 137.362 428.348 136.099L430.218 136.774C429.741 138.08 429.225 139.358 428.671 140.608L426.851 139.807ZM429.559 132.434C429.929 131.187 430.265 129.915 430.566 128.616L432.508 129.053C432.197 130.392 431.85 131.704 431.469 132.991L429.559 132.434ZM431.366 124.638C431.581 123.377 431.766 122.093 431.92 120.785L433.9 121C433.742 122.343 433.552 123.663 433.331 124.959L431.366 124.638ZM432.276 116.924C432.365 115.615 432.424 114.283 432.452 112.928L434.446 112.95C434.417 114.336 434.356 115.7 434.265 117.041L432.276 116.924ZM432.446 108.791C432.417 107.537 432.362 106.264 432.283 104.972L434.273 104.828C434.354 106.145 434.409 107.443 434.439 108.724L432.446 108.791ZM431.975 101.114C431.848 99.8098 431.696 98.4867 431.519 97.1446L433.496 96.8614C433.676 98.2254 433.83 99.5711 433.959 100.899L431.975 101.114ZM430.913 93.0613C430.799 92.3714 430.679 91.6768 430.553 90.9773L432.515 90.5993C432.643 91.3089 432.765 92.0137 432.88 92.714L430.913 93.0613ZM430.553 90.9773C430.432 90.3096 430.304 89.6457 430.167 88.9859L432.119 88.5585C432.259 89.2347 432.391 89.915 432.515 90.5993L430.553 90.9773ZM429.255 85.068C428.916 83.7589 428.547 82.4659 428.149 81.189L430.051 80.5708C430.459 81.8785 430.838 83.2029 431.185 84.5441L429.255 85.068ZM426.856 77.3722C426.393 76.1071 425.902 74.8584 425.384 73.6263L427.222 72.8297C427.752 74.0902 428.254 75.3678 428.728 76.6628L426.856 77.3722ZM423.742 69.9549C423.164 68.7377 422.561 67.5374 421.933 66.354L423.694 65.3959C424.335 66.6047 424.952 67.8311 425.543 69.0754L423.742 69.9549ZM419.971 62.8381C419.291 61.6779 418.588 60.5348 417.864 59.4088L419.542 58.3078C420.28 59.456 420.997 60.6221 421.691 61.8061L419.971 62.8381ZM415.623 56.0676C414.852 54.9642 414.061 53.8781 413.252 52.8095L414.843 51.5843C415.666 52.6721 416.472 53.7781 417.258 54.9023L415.623 56.0676ZM410.764 49.6411C409.914 48.5972 409.048 47.5709 408.168 46.5623L409.673 45.2304C410.567 46.2554 411.447 47.2987 412.312 48.3605L410.764 49.6411ZM405.473 43.5731C404.554 42.586 403.623 41.6171 402.681 40.6664L404.1 39.243C405.056 40.2078 406.001 41.1913 406.935 42.1937L405.473 43.5731ZM399.8 37.8436C398.821 36.9122 397.834 35.9997 396.841 35.1058L398.178 33.6043C399.185 34.5101 400.185 35.4352 401.178 36.3796L399.8 37.8436ZM393.809 32.452C392.78 31.5754 391.747 30.7184 390.711 29.881L391.97 28.3125C393.018 29.1602 394.064 30.0279 395.106 30.9157L393.809 32.452ZM387.542 27.3816C386.464 26.5527 385.386 25.7449 384.311 24.9581L385.494 23.3317C386.581 24.1274 387.672 24.9445 388.762 25.7831L387.542 27.3816ZM381.026 22.611C379.907 21.8306 378.794 21.0733 377.69 20.339L378.801 18.6621C379.916 19.4042 381.041 20.1697 382.172 20.9586L381.026 22.611ZM374.306 18.1402C373.148 17.4049 372.004 16.696 370.877 16.0132L371.918 14.2919C373.056 14.9815 374.212 15.6977 375.382 16.4405L374.306 18.1402ZM367.403 13.9565C366.203 13.2623 365.029 12.6001 363.887 11.9695L364.859 10.2083C366.013 10.845 367.198 11.5138 368.41 12.2148L367.403 13.9565ZM360.33 10.0535C359.081 9.39733 357.883 8.78414 356.742 8.21376L357.643 6.41535C358.796 6.9915 360.006 7.61078 361.267 8.27345L360.33 10.0535ZM353.131 6.4562C351.775 5.81373 350.54 5.24928 349.446 4.76232L350.268 2.92641C351.375 3.41932 352.624 3.99018 353.995 4.63954L353.131 6.4562ZM345.775 3.18773C345.172 2.94 344.707 2.75504 344.393 2.63243C344.237 2.57114 344.118 2.52543 344.039 2.49526C343.999 2.48019 343.97 2.46899 343.95 2.46167C343.941 2.45801 343.933 2.45533 343.929 2.45361C343.927 2.45274 343.925 2.45212 343.924 2.45176C343.923 2.45157 343.923 2.45144 343.923 2.45137C343.923 2.45133 343.923 2.45131 343.923 2.45132C343.923 2.45132 343.923 2.45132 343.923 2.45133L343.923 2.45133C343.923 2.45135 343.923 2.45136 344.277 1.51035C344.632 0.569343 344.632 0.569364 344.632 0.569371C344.632 0.569385 344.632 0.569392 344.632 0.569398C344.632 0.569425 344.632 0.569437 344.632 0.569479C344.632 0.569534 344.633 0.5696 344.633 0.569697C344.633 0.569872 344.634 0.570102 344.635 0.570401C344.636 0.571005 344.639 0.571831 344.641 0.572924C344.647 0.575079 344.656 0.578212 344.666 0.582324C344.688 0.590547 344.72 0.602645 344.762 0.618652C344.846 0.650679 344.97 0.698296 345.132 0.76156C345.455 0.888074 345.931 1.07723 346.545 1.32939L345.775 3.18773Z" fill="#BFBFBF"/>
</svg>
