<svg width="435" height="327" viewBox="0 0 435 327" fill="none" xmlns="http://www.w3.org/2000/svg">
<path d="M93.7775 320.568L83.9092 326.631L83.7103 315.053L93.7775 320.568ZM431.776 85.8647L432.757 85.6757L431.776 85.8647ZM1.7771 261.764L0.78018 261.774L1.7771 261.764ZM87.6241 321.623C86.4103 321.604 85.0423 321.569 83.5422 321.508L83.643 319.503C85.1253 319.564 86.4766 319.599 87.6746 319.617L87.6241 321.623ZM79.401 321.287C78.1014 321.202 76.7365 321.098 75.316 320.971L75.5123 318.973C76.9163 319.099 78.2655 319.201 79.5501 319.285L79.401 321.287ZM71.2301 320.555C69.9038 320.404 68.5418 320.232 67.1506 320.037L67.4447 318.05C68.8187 318.243 70.1641 318.412 71.4745 318.562L71.2301 320.555ZM63.084 319.413C61.7523 319.19 60.4009 318.946 59.0348 318.678L59.4356 316.709C60.7826 316.973 62.1158 317.214 63.4301 317.434L63.084 319.413ZM55.0076 317.825C53.6816 317.523 52.3468 317.197 51.0077 316.846L51.5281 314.904C52.8458 315.25 54.16 315.57 55.4663 315.868L55.0076 317.825ZM47.0417 315.734C45.7322 315.342 44.4228 314.924 43.1175 314.478L43.7748 312.578C45.0556 313.015 46.3414 313.425 47.6281 313.811L47.0417 315.734ZM39.2462 313.068C37.9664 312.572 36.6947 312.047 35.435 311.492L36.2504 309.653C37.4818 310.196 38.7262 310.709 39.9797 311.196L39.2462 313.068ZM31.6984 309.734C30.4663 309.117 29.2501 308.467 28.0541 307.784L29.0517 306.037C30.2154 306.702 31.4001 307.335 32.6019 307.937L31.6984 309.734ZM24.5229 305.626C23.3659 304.87 22.2333 304.078 21.1292 303.249L22.3322 301.637C23.4005 302.439 24.4979 303.207 25.6206 303.94L24.5229 305.626ZM17.9012 300.641C16.8564 299.733 15.8446 298.786 14.8701 297.797L16.2927 296.377C17.2304 297.329 18.2052 298.242 19.2132 299.118L17.9012 300.641ZM12.0695 294.714C11.1819 293.652 10.3354 292.548 9.53402 291.4L11.1693 290.236C11.9372 291.336 12.7491 292.395 13.601 293.415L12.0695 294.714ZM7.29874 287.876C6.61358 286.681 5.9748 285.444 5.38613 284.165L7.19707 283.307C7.7607 284.533 8.37226 285.716 9.02824 286.86L7.29874 287.876ZM3.81032 280.296C3.34905 279.004 2.93608 277.672 2.57445 276.3L4.50203 275.768C4.84926 277.086 5.24547 278.363 5.68757 279.601L3.81032 280.296ZM1.67188 272.204C1.43083 270.855 1.23672 269.47 1.09192 268.049L3.07539 267.825C3.21516 269.197 3.40234 270.531 3.63437 271.829L1.67188 272.204ZM0.815011 263.907C0.791867 263.204 0.780174 262.493 0.78018 261.774L2.77403 261.754C2.77402 262.451 2.78536 263.14 2.80776 263.82L0.815011 263.907ZM0.78018 261.774C0.780188 261.052 0.790443 260.337 0.810863 259.628L2.80387 259.666C2.78402 260.355 2.77403 261.051 2.77403 261.754L0.78018 261.774ZM1.05468 255.46C1.17615 254.098 1.33759 252.763 1.53832 251.454L3.50877 251.741C3.31468 253.006 3.15831 254.299 3.04053 255.62L1.05468 255.46ZM2.27012 247.551C2.57813 246.169 2.93287 244.819 3.33336 243.5L5.23973 244.069C4.85433 245.338 4.51253 246.639 4.21545 247.972L2.27012 247.551ZM4.67096 239.636C5.16399 238.373 5.70203 237.141 6.28404 235.94L8.07462 236.804C7.51604 237.957 6.99941 239.14 6.52577 240.353L4.67096 239.636ZM8.23547 232.3C8.93231 231.118 9.675 229.97 10.4623 228.852L12.085 230.001C11.329 231.074 10.6161 232.177 9.94735 233.311L8.23547 232.3ZM12.9486 225.603C13.8095 224.564 14.712 223.555 15.6551 222.575L17.0807 223.963C16.1717 224.908 15.3027 225.879 14.4747 226.878L12.9486 225.603ZM18.604 219.722C19.6145 218.81 20.6632 217.926 21.7488 217.068L22.9702 218.642C21.9182 219.473 20.9034 220.328 19.9269 221.209L18.604 219.722ZM24.9631 214.681C26.0676 213.91 27.2048 213.162 28.3736 212.436L29.4077 214.141C28.2689 214.848 27.1625 215.576 26.0893 216.325L24.9631 214.681ZM31.9548 210.34C33.0949 209.71 34.2614 209.099 35.4533 208.506L36.3223 210.303C35.1554 210.883 34.0148 211.481 32.9012 212.096L31.9548 210.34ZM39.1051 206.783C40.3474 206.226 41.6145 205.687 42.9056 205.166L43.6324 207.027C42.3636 207.539 41.1195 208.068 39.9009 208.614L39.1051 206.783ZM46.6376 203.73C47.8695 203.278 49.1211 202.841 50.392 202.418L51.0019 204.321C49.749 204.739 48.516 205.17 47.3034 205.614L46.6376 203.73ZM54.2617 201.187C55.5703 200.791 56.8975 200.407 58.2428 200.036L58.7516 201.971C57.422 202.337 56.1111 202.716 54.8194 203.108L54.2617 201.187ZM62.0263 199.039C63.3027 198.717 64.5941 198.406 65.9001 198.105L66.3268 200.06C65.0337 200.358 63.7555 200.666 62.4928 200.984L62.0263 199.039ZM69.8613 197.232C71.1932 196.951 72.5393 196.681 73.899 196.419L74.2539 198.39C72.9054 198.649 71.5709 198.917 70.2509 199.195L69.8613 197.232ZM77.7499 195.711C79.0452 195.483 80.352 195.263 81.67 195.051L81.9659 197.032C80.6572 197.242 79.3599 197.461 78.0744 197.687L77.7499 195.711ZM85.657 194.437C86.9969 194.24 88.3475 194.05 89.7086 193.867L89.9527 195.856C88.5997 196.037 87.2574 196.226 85.9261 196.422L85.657 194.437ZM93.6384 193.363C94.9398 193.204 96.2502 193.05 97.5691 192.903L97.7698 194.897C96.4576 195.044 95.1542 195.196 93.8599 195.355L93.6384 193.363ZM101.552 192.478C102.887 192.342 104.232 192.212 105.584 192.087L105.746 194.084C104.4 194.209 103.062 194.339 101.733 194.474L101.552 192.478ZM109.612 191.732C110.914 191.623 112.223 191.519 113.539 191.419L113.669 193.42C112.358 193.519 111.054 193.623 109.758 193.731L109.612 191.732ZM117.506 191.133C118.834 191.042 120.17 190.955 121.511 190.873L121.613 192.875C120.276 192.957 118.945 193.044 117.621 193.134L117.506 191.133ZM125.553 190.637C126.879 190.563 128.211 190.494 129.548 190.428L129.626 192.432C128.292 192.498 126.964 192.567 125.642 192.64L125.553 190.637ZM133.499 190.244C134.821 190.186 136.148 190.131 137.479 190.08L137.536 192.084C136.208 192.136 134.884 192.191 133.566 192.248L133.499 190.244ZM141.488 189.933C142.828 189.888 144.174 189.845 145.523 189.804L145.562 191.81C144.215 191.85 142.873 191.893 141.535 191.938L141.488 189.933ZM149.512 189.693C150.83 189.659 152.151 189.628 153.475 189.598L153.499 191.604C152.177 191.633 150.858 191.665 149.544 191.699L149.512 189.693ZM157.459 189.516C158.79 189.491 160.125 189.468 161.463 189.447L161.474 191.452C160.139 191.474 158.806 191.497 157.477 191.522L157.459 189.516ZM165.485 189.388C166.814 189.371 168.146 189.355 169.481 189.341L169.482 191.347C168.149 191.361 166.818 191.377 165.491 191.394L165.485 189.388ZM173.451 189.303C174.777 189.291 176.105 189.282 177.436 189.273L177.429 191.279C176.1 191.288 174.773 191.298 173.448 191.309L173.451 189.303ZM181.432 189.25C182.766 189.244 184.102 189.238 185.44 189.234L185.427 191.24C184.09 191.244 182.755 191.25 181.422 191.256L181.432 189.25ZM189.442 189.223C190.767 189.22 192.093 189.217 193.42 189.216L193.403 191.222C192.076 191.224 190.751 191.226 189.427 191.229L189.442 189.223ZM197.406 189.213C198.735 189.212 200.066 189.212 201.397 189.212L201.377 191.218C200.046 191.218 198.716 191.218 197.387 191.219L197.406 189.213ZM205.393 189.213C206.726 189.214 208.059 189.214 209.392 189.215L209.371 191.221C208.038 191.22 206.705 191.22 205.373 191.219L205.393 189.213ZM213.38 189.217C214.71 189.217 216.04 189.217 217.369 189.217L217.35 191.224C216.019 191.224 214.689 191.223 213.36 191.223L213.38 189.217ZM221.359 189.216C222.688 189.216 224.018 189.214 225.347 189.213L225.329 191.219C224 191.221 222.67 191.222 221.34 191.222L221.359 189.216ZM229.332 189.205C230.665 189.202 231.998 189.198 233.33 189.194L233.317 191.2C231.984 191.204 230.651 191.208 229.317 191.211L229.332 189.205ZM237.326 189.176C238.657 189.17 239.988 189.162 241.317 189.153L241.31 191.159C239.98 191.168 238.648 191.176 237.316 191.182L237.326 189.176ZM245.299 189.122C246.626 189.111 247.95 189.098 249.274 189.084L249.275 191.09C247.95 191.104 246.624 191.117 245.297 191.128L245.299 189.122ZM253.268 189.036C254.606 189.018 255.941 188.999 257.275 188.978L257.286 190.983C255.951 191.005 254.614 191.024 253.274 191.042L253.268 189.036ZM261.269 188.908C262.598 188.883 263.924 188.856 265.249 188.827L265.272 190.833C263.946 190.862 262.617 190.889 261.286 190.914L261.269 188.908ZM269.213 188.733C270.543 188.699 271.871 188.663 273.195 188.625L273.233 190.63C271.906 190.669 270.576 190.705 269.244 190.739L269.213 188.733ZM277.213 188.499C278.549 188.455 279.881 188.408 281.21 188.357L281.265 190.362C279.933 190.412 278.598 190.46 277.259 190.504L277.213 188.499ZM285.186 188.198C286.508 188.142 287.826 188.083 289.139 188.021L289.213 190.025C287.896 190.087 286.575 190.147 285.25 190.203L285.186 188.198ZM293.109 187.822C294.455 187.751 295.797 187.677 297.134 187.598L297.23 189.601C295.889 189.68 294.543 189.755 293.193 189.826L293.109 187.822ZM301.13 187.351C302.457 187.265 303.779 187.175 305.095 187.081L305.217 189.082C303.896 189.177 302.57 189.267 301.238 189.353L301.13 187.351ZM309.029 186.786C310.358 186.681 311.681 186.573 312.997 186.459L313.148 188.458C311.826 188.572 310.498 188.681 309.165 188.786L309.029 186.786ZM317.019 186.096C318.353 185.97 319.68 185.839 321 185.702L321.184 187.698C319.858 187.835 318.525 187.967 317.185 188.093L317.019 186.096ZM324.941 185.277C326.248 185.13 327.547 184.978 328.839 184.82L329.06 186.811C327.762 186.97 326.456 187.123 325.143 187.271L324.941 185.277ZM332.828 184.31C334.168 184.131 335.5 183.946 336.822 183.754L337.087 185.74C335.757 185.933 334.418 186.119 333.071 186.298L332.828 184.31ZM340.763 183.158C342.068 182.953 343.363 182.741 344.649 182.521L344.963 184.499C343.668 184.72 342.365 184.934 341.052 185.14L340.763 183.158ZM348.527 181.832C349.868 181.584 351.198 181.328 352.516 181.063L352.888 183.03C351.559 183.297 350.219 183.555 348.869 183.805L348.527 181.832ZM356.437 180.242C357.732 179.96 359.015 179.669 360.286 179.369L360.723 181.322C359.441 181.625 358.146 181.918 356.84 182.203L356.437 180.242ZM364.062 178.441C365.39 178.102 366.704 177.751 368.003 177.39L368.516 179.324C367.203 179.689 365.876 180.042 364.535 180.385L364.062 178.441ZM371.858 176.273C373.128 175.889 374.383 175.494 375.622 175.088L376.223 176.994C374.968 177.406 373.698 177.806 372.414 178.194L371.858 176.273ZM379.293 173.832C380.586 173.371 381.86 172.897 383.115 172.408L383.819 174.278C382.545 174.774 381.252 175.255 379.942 175.722L379.293 173.832ZM386.822 170.9C388.038 170.383 389.235 169.851 390.41 169.305L391.231 171.125C390.035 171.681 388.819 172.221 387.583 172.747L386.822 170.9ZM393.947 167.585C395.16 166.967 396.348 166.333 397.512 165.68L398.469 167.43C397.281 168.096 396.069 168.744 394.833 169.373L393.947 167.585ZM400.929 163.668C402.043 162.98 403.131 162.273 404.194 161.547L405.302 163.203C404.214 163.947 403.1 164.67 401.961 165.375L400.929 163.668ZM407.445 159.204C408.51 158.394 409.545 157.563 410.549 156.71L411.826 158.238C410.793 159.115 409.73 159.969 408.637 160.8L407.445 159.204ZM413.468 154.084C414.426 153.172 415.35 152.237 416.242 151.278L417.692 152.64C416.772 153.63 415.818 154.595 414.832 155.534L413.468 154.084ZM418.849 148.288C419.683 147.266 420.483 146.219 421.247 145.146L422.864 146.304C422.073 147.414 421.246 148.496 420.384 149.552L418.849 148.288ZM423.422 141.864C424.106 140.754 424.754 139.618 425.366 138.454L427.126 139.379C426.493 140.583 425.822 141.759 425.115 142.908L423.422 141.864ZM427.094 134.883C427.629 133.675 428.128 132.439 428.59 131.175L430.46 131.851C429.983 133.157 429.467 134.434 428.914 135.684L427.094 134.883ZM429.801 127.511C430.171 126.264 430.507 124.991 430.808 123.692L432.75 124.13C432.439 125.468 432.093 126.78 431.711 128.067L429.801 127.511ZM431.608 119.715C431.824 118.454 432.008 117.169 432.162 115.861L434.142 116.076C433.984 117.419 433.795 118.739 433.573 120.036L431.608 119.715ZM432.518 112.001C432.607 110.692 432.666 109.359 432.695 108.004L434.688 108.026C434.659 109.413 434.598 110.776 434.507 112.118L432.518 112.001ZM432.688 103.868C432.659 102.614 432.604 101.34 432.525 100.048L434.515 99.904C434.596 101.221 434.651 102.52 434.682 103.8L432.688 103.868ZM432.217 96.1906C432.09 94.8862 431.938 93.5631 431.761 92.221L433.738 91.9378C433.918 93.3018 434.072 94.6475 434.202 95.9751L432.217 96.1906ZM431.155 88.1377C431.042 87.4479 430.921 86.7532 430.795 86.0537L432.757 85.6757C432.885 86.3853 433.007 87.0902 433.122 87.7904L431.155 88.1377ZM430.795 86.0537C430.674 85.3832 430.543 84.7173 430.402 84.0559L432.352 83.6173C432.497 84.2987 432.632 84.9848 432.757 85.6757L430.795 86.0537ZM429.443 80.1362C429.08 78.8296 428.68 77.5415 428.244 76.2719L430.129 75.5999C430.578 76.9069 430.99 78.2333 431.363 79.5792L429.443 80.1362ZM426.819 72.49C426.306 71.2417 425.758 70.012 425.178 68.8007L426.976 67.9149C427.572 69.1596 428.135 70.4239 428.663 71.708L426.819 72.49ZM423.333 65.2086C422.685 64.0268 422.005 62.8633 421.296 61.7182L422.992 60.6456C423.718 61.8194 424.415 63.0127 425.081 64.2258L423.333 65.2086ZM419.084 58.3371C418.32 57.2286 417.528 56.1382 416.711 55.0659L418.297 53.8353C419.133 54.9317 419.943 56.0472 420.726 57.182L419.084 58.3371ZM414.188 51.9049C413.325 50.8707 412.439 49.8542 411.533 48.8554L413.011 47.4944C413.935 48.5128 414.839 49.55 415.721 50.6059L414.188 51.9049ZM408.754 45.9139C407.809 44.9514 406.845 44.0063 405.865 43.0786L407.238 41.6108C408.236 42.5546 409.217 43.5165 410.179 44.4968L408.754 45.9139ZM402.876 40.3475C401.863 39.453 400.835 38.5757 399.795 37.7156L401.071 36.1607C402.126 37.0339 403.17 37.9249 404.2 38.8339L402.876 40.3475ZM396.633 35.1808C395.564 34.3504 394.485 33.5371 393.397 32.741L394.581 31.1147C395.683 31.9216 396.777 32.7462 397.861 33.5885L396.633 35.1808ZM390.094 30.3912C388.977 29.6184 387.853 28.8631 386.725 28.1249L387.824 26.44C388.965 27.187 390.103 27.9517 391.235 28.7342L390.094 30.3912ZM383.302 25.9436C382.146 25.2265 380.988 24.5271 379.831 23.8453L380.852 22.1116C382.021 22.8008 383.192 23.5079 384.361 24.2331L383.302 25.9436ZM376.317 21.8264C375.123 21.1572 373.932 20.5068 372.746 19.8748L373.694 18.1001C374.891 18.7383 376.094 19.3953 377.3 20.0713L376.317 21.8264ZM369.138 17.9975C367.914 17.3761 366.7 16.7746 365.497 16.1928L366.376 14.3832C367.589 14.9703 368.815 15.5773 370.051 16.2047L369.138 17.9975ZM361.826 14.4586C360.574 13.8812 359.339 13.3261 358.126 12.7928L358.939 10.9531C360.163 11.4909 361.408 12.051 362.672 12.6334L361.826 14.4586ZM354.397 11.193C353.111 10.6548 351.856 10.1429 350.636 9.65697L351.386 7.79071C352.616 8.28073 353.882 8.7969 355.178 9.33961L354.397 11.193ZM346.841 8.18325C345.507 7.67817 344.228 7.20816 343.012 6.77256L343.698 4.88195C344.924 5.32131 346.214 5.79532 347.56 6.30464L346.841 8.18325ZM339.162 5.43196C337.751 4.95532 336.468 4.53819 335.331 4.17905L335.946 2.26451C337.094 2.62737 338.389 3.04851 339.813 3.52951L339.162 5.43196ZM331.419 2.9939C330.801 2.81543 330.324 2.68296 330.003 2.59535C329.842 2.55155 329.72 2.51897 329.64 2.49747C329.599 2.48671 329.569 2.47874 329.549 2.47352C329.539 2.4709 329.531 2.46898 329.527 2.46774C329.524 2.46712 329.523 2.46667 329.521 2.46639C329.521 2.46626 329.521 2.46616 329.52 2.46611C329.52 2.46608 329.52 2.46607 329.52 2.46606C329.52 2.46608 329.52 2.46607 329.52 2.46607C329.52 2.46607 329.52 2.46609 329.777 1.4944C330.034 0.522717 330.034 0.522723 330.034 0.522738C330.034 0.522744 330.035 0.52275 330.035 0.522756C330.035 0.522777 330.035 0.52279 330.035 0.522802C330.035 0.522842 330.035 0.522894 330.035 0.522952C330.036 0.523077 330.036 0.523234 330.037 0.523428C330.039 0.523847 330.041 0.52442 330.044 0.525179C330.05 0.526695 330.058 0.528882 330.069 0.531763C330.091 0.537549 330.124 0.546075 330.166 0.557394C330.251 0.580008 330.377 0.613755 330.542 0.658773C330.872 0.74877 331.358 0.883827 331.986 1.06501L331.419 2.9939Z" fill="#BFBFBF"/>
</svg>
