<svg width="31" height="30" viewBox="0 0 31 30" fill="none" xmlns="http://www.w3.org/2000/svg">
<path d="M26.1578 3.69824H4.9326C4.42216 3.69824 4.00977 4.11063 4.00977 4.62108V25.8463C4.00977 26.3568 4.42216 26.7691 4.9326 26.7691H26.1578C26.6683 26.7691 27.0807 26.3568 27.0807 25.8463V4.62108C27.0807 4.11063 26.6683 3.69824 26.1578 3.69824ZM10.8532 23.3575H7.43003V12.3469H10.8532V23.3575ZM9.14304 10.8416C8.75063 10.8416 8.36702 10.7252 8.04074 10.5072C7.71445 10.2892 7.46015 9.9793 7.30997 9.61676C7.1598 9.25421 7.12051 8.85527 7.19707 8.4704C7.27363 8.08552 7.46259 7.73199 7.74007 7.4545C8.01755 7.17702 8.37109 6.98806 8.75596 6.9115C9.14084 6.83494 9.53978 6.87423 9.90232 7.02441C10.2649 7.17458 10.5747 7.42888 10.7928 7.75517C11.0108 8.08145 11.1271 8.46506 11.1271 8.85747C11.1243 9.95334 10.236 10.8416 9.14304 10.8416ZM23.6691 23.3575H20.2488V18.0022C20.2488 16.7247 20.2257 15.0837 18.4695 15.0837C16.6901 15.0837 16.4161 16.4738 16.4161 17.9099V23.3575H12.9988V12.3469H16.2806V13.8523H16.3267C16.7824 12.9872 17.8985 12.073 19.5653 12.073C23.0317 12.073 23.6691 14.3541 23.6691 17.3187V23.3575Z" fill="white"/>
</svg>
