<svg width="20" height="21" viewBox="0 0 20 21" fill="none" xmlns="http://www.w3.org/2000/svg">
<path d="M18 20.4373H2C0.89543 20.4373 0 19.5418 0 18.4373V7.48625C0.0337512 6.81511 0.397279 6.20412 0.971 5.85425L8.971 1.05425C9.60412 0.674625 10.3949 0.674625 11.028 1.05425L19.028 5.85425C19.6292 6.21702 19.9976 6.86709 20 7.56925V18.4373C20 19.5418 19.1046 20.4373 18 20.4373ZM2 8.30525V18.4373H18V8.30525L10 13.6383L2 8.30525ZM10 2.76925L3.316 6.77925L10 11.2353L16.683 6.77925L10 2.76925Z" fill="white"/>
</svg>
