<svg width="404" height="301" viewBox="0 0 404 301" fill="none" xmlns="http://www.w3.org/2000/svg">
<path d="M403.408 263.764H0.592163V263.965H403.408V263.764Z" fill="#E0E0E0"/>
<path d="M88.7443 273.424H42.203V273.625H88.7443V273.424Z" fill="#E0E0E0"/>
<path d="M190.447 269.048H169.243V269.249H190.447V269.048Z" fill="#E0E0E0"/>
<path d="M239.51 268.944H198.198V269.146H239.51V268.944Z" fill="#E0E0E0"/>
<path d="M318.148 271.361H308.086V271.563H318.148V271.361Z" fill="#E0E0E0"/>
<path d="M273.339 271.361H233.202V271.563H273.339V271.361Z" fill="#E0E0E0"/>
<path d="M104.519 273.424H96.5428V273.625H104.519V273.424Z" fill="#E0E0E0"/>
<path d="M359.565 271.361H324.722V271.563H359.565V271.361Z" fill="#E0E0E0"/>
<path d="M191.527 227.833H35.9674C34.7488 227.83 33.5808 227.345 32.7198 226.482C31.8589 225.62 31.3753 224.451 31.3753 223.232V4.55987C31.3859 3.34822 31.8741 2.18969 32.734 1.33591C33.5938 0.482137 34.7557 0.00207562 35.9674 0H191.527C192.747 0 193.917 0.484658 194.78 1.34735C195.642 2.21005 196.127 3.38012 196.127 4.60016V223.232C196.127 224.452 195.642 225.623 194.78 226.485C193.917 227.348 192.747 227.833 191.527 227.833ZM35.9674 0.161127C34.8022 0.163261 33.6854 0.627639 32.8622 1.45233C32.039 2.27703 31.5767 3.39465 31.5767 4.55987V223.232C31.5767 224.398 32.039 225.515 32.8622 226.34C33.6854 227.165 34.8022 227.629 35.9674 227.631H191.527C192.693 227.629 193.81 227.165 194.635 226.34C195.459 225.516 195.923 224.398 195.926 223.232V4.55987C195.923 3.39391 195.459 2.27631 194.635 1.45184C193.81 0.627378 192.693 0.163257 191.527 0.161127H35.9674Z" fill="#E0E0E0"/>
<path d="M365.793 227.833H210.226C209.006 227.83 207.837 227.345 206.975 226.483C206.113 225.621 205.627 224.452 205.625 223.232V4.55987C205.638 3.34749 206.128 2.18896 206.989 1.33541C207.85 0.481855 209.013 0.00205298 210.226 0H365.793C367.003 0.00419291 368.163 0.485191 369.021 1.33874C369.879 2.19229 370.366 3.34962 370.377 4.55987V223.232C370.377 224.45 369.895 225.617 369.035 226.48C368.176 227.342 367.01 227.828 365.793 227.833ZM210.226 0.161127C209.06 0.163257 207.942 0.627378 207.117 1.45184C206.293 2.27631 205.829 3.39391 205.827 4.55987V223.232C205.829 224.398 206.293 225.516 207.117 226.34C207.942 227.165 209.06 227.629 210.226 227.631H365.793C366.959 227.629 368.077 227.165 368.901 226.34C369.725 225.516 370.19 224.398 370.192 223.232V4.55987C370.19 3.39391 369.725 2.27631 368.901 1.45184C368.077 0.627378 366.959 0.163257 365.793 0.161127H210.226Z" fill="#E0E0E0"/>
<path d="M62.3197 65.9087C58.8071 58.3196 61.5946 52.9219 70.1746 52.9219C75.5643 52.9219 82.2591 55.0487 88.7041 58.5049C89.4453 56.5311 91.5077 55.3549 94.835 55.3549C100.692 55.3549 108.772 59.0044 115.105 64.1604C117.057 62.8586 119.356 62.1737 121.703 62.1947C127.342 61.9611 134.093 64.0638 139.999 67.4796C140.346 67.1514 140.754 66.8955 141.201 66.7268C141.648 66.5581 142.124 66.4799 142.601 66.4968C145.823 66.3679 150.198 68.4867 152.373 71.2258C152.51 71.4031 152.623 71.5642 152.744 71.7334H60.6118C60.4296 70.6965 60.4889 69.6316 60.7851 68.6214C61.0813 67.6112 61.6064 66.6829 62.3197 65.9087Z" fill="#F5F5F5"/>
<path d="M166.81 29.8086C167.094 29.7762 167.379 29.7601 167.664 29.7603C167.398 26.7956 168.937 24.9265 172.216 24.9265C174.584 24.9265 177.485 25.9174 180.449 27.5931C179.603 21.8409 182.31 18.0947 188.457 18.0947C193.412 18.0947 199.68 20.5116 205.875 24.5398C206.415 22.284 208.244 20.9306 211.313 20.9306C216.695 20.9306 224.356 25.1037 230.495 31.0009C232.125 29.5366 234.242 28.7323 236.433 28.7452C241.565 28.4793 247.929 30.8801 253.577 34.7955C253.846 34.4327 254.199 34.1405 254.606 33.9441C255.013 33.7477 255.461 33.6528 255.913 33.6676C258.716 33.5306 262.584 35.6817 264.823 38.5739H162.298C159.89 34.151 161.807 30.3162 166.81 29.8086Z" fill="#F5F5F5"/>
<path d="M304.315 17.2484C302.06 12.4147 303.856 8.91016 309.359 8.91016C312.815 8.91016 317.101 10.2717 321.274 12.4952C321.741 11.2304 323.07 10.465 325.205 10.465C328.968 10.465 334.148 12.8175 338.208 16.1044C339.463 15.2712 340.939 14.8334 342.446 14.8477C346.039 14.6946 350.397 16.04 354.184 18.2394C354.405 18.0273 354.667 17.8618 354.953 17.7525C355.24 17.6431 355.545 17.5923 355.852 17.6029C357.051 17.6462 358.228 17.9385 359.309 18.4614C360.389 18.9843 361.349 19.7263 362.127 20.6402L362.369 20.9624H301.504C299.578 19.2545 301.705 17.329 304.315 17.2484Z" fill="#F5F5F5"/>
<path d="M99.8541 176.047H72.4142V263.764H99.8541V176.047Z" fill="#EBEBEB"/>
<path d="M90.8873 263.764H135.882L135.882 145.521H90.8873L90.8873 263.764Z" fill="#F5F5F5"/>
<path d="M159.237 145.521H135.882V263.764H159.237V145.521Z" fill="#EBEBEB"/>
<path d="M96.9376 145.521H135.882V133.767H96.9376V145.521Z" fill="#F5F5F5"/>
<path d="M96.9376 145.521H135.882V142.879H96.9376V145.521Z" fill="#EBEBEB"/>
<path d="M153.179 133.768H135.882V145.522H153.179V133.768Z" fill="#EBEBEB"/>
<path d="M102.988 133.768H135.874V122.013H102.988V133.768Z" fill="#F5F5F5"/>
<path d="M102.988 133.768H135.874V131.125H102.988V133.768Z" fill="#EBEBEB"/>
<path d="M147.128 122.013H135.882V133.767H147.128V122.013Z" fill="#EBEBEB"/>
<path d="M126.15 105.595H123.967V122.022H126.15V105.595Z" fill="#EBEBEB"/>
<path d="M151.777 263.764H184.639V166.081H151.777V263.764Z" fill="#F5F5F5"/>
<path d="M201.694 166.081H184.639V263.764H201.694V166.081Z" fill="#EBEBEB"/>
<path d="M193.162 193.987L218.08 215.353V263.763H193.162V193.987Z" fill="#F5F5F5"/>
<path d="M231.019 215.345H218.089V263.755H231.019V215.345Z" fill="#EBEBEB"/>
<path d="M231.019 215.353H218.08L193.162 193.987H206.101L231.019 215.353Z" fill="#EBEBEB"/>
<path d="M347.819 263.765C348.165 261.829 348.988 260.011 350.213 258.473C351.438 256.936 353.027 255.728 354.836 254.959C353.248 257.607 352.527 260.686 352.774 263.765H347.819Z" fill="#EBEBEB"/>
<path d="M115.419 263.765C115.073 261.829 114.251 260.011 113.025 258.473C111.8 256.936 110.211 255.728 108.402 254.959C109.99 257.607 110.711 260.686 110.464 263.765H115.419Z" fill="#EBEBEB"/>
<path d="M57.8807 263.763C57.8807 263.763 57.4859 253.451 53.1758 250.454C54.9401 254.668 54.5695 263.763 54.5695 263.763H57.8807Z" fill="#EBEBEB"/>
<path d="M56.2613 263.764C56.2613 263.764 56.6561 257.843 60.9662 256.127C59.2018 258.544 59.5886 263.764 59.5886 263.764H56.2613Z" fill="#EBEBEB"/>
<path d="M119.109 263.763C119.109 263.763 118.674 253.999 110.859 250.454C114.355 255.465 114.154 263.763 114.154 263.763H119.109Z" fill="#EBEBEB"/>
<path d="M311.8 250.552H292.054C291.84 250.552 291.635 250.467 291.484 250.316C291.333 250.165 291.248 249.96 291.248 249.746V230.024C291.248 229.811 291.333 229.606 291.484 229.455C291.635 229.304 291.84 229.219 292.054 229.219H311.8C312.013 229.219 312.218 229.304 312.369 229.455C312.52 229.606 312.605 229.811 312.605 230.024V249.746C312.605 249.96 312.52 250.165 312.369 250.316C312.218 250.467 312.013 250.552 311.8 250.552ZM292.859 248.941H310.994V230.83H292.859V248.941Z" fill="#E0E0E0"/>
<path d="M311.8 230.83H292.054C291.84 230.83 291.635 230.745 291.484 230.594C291.333 230.443 291.248 230.238 291.248 230.025V210.27C291.248 210.057 291.333 209.852 291.484 209.701C291.635 209.55 291.84 209.465 292.054 209.465H311.8C312.013 209.465 312.218 209.55 312.369 209.701C312.52 209.852 312.605 210.057 312.605 210.27V230.025C312.605 230.238 312.52 230.443 312.369 230.594C312.218 230.745 312.013 230.83 311.8 230.83ZM292.859 229.219H310.994V211.076H292.859V229.219Z" fill="#E0E0E0"/>
<path d="M311.8 250.552C311.587 250.549 311.384 250.462 311.236 250.311L291.482 230.565C291.33 230.413 291.245 230.207 291.245 229.993C291.245 229.778 291.33 229.572 291.482 229.421C291.633 229.269 291.839 229.184 292.054 229.184C292.268 229.184 292.474 229.269 292.626 229.421L312.372 249.207C312.522 249.358 312.606 249.562 312.606 249.775C312.606 249.988 312.522 250.192 312.372 250.343C312.216 250.485 312.01 250.56 311.8 250.552Z" fill="#E0E0E0"/>
<path d="M311.799 230.83C311.588 230.829 311.386 230.745 311.236 230.596L291.481 210.842C291.331 210.691 291.247 210.487 291.247 210.274C291.247 210.061 291.331 209.857 291.481 209.706C291.556 209.631 291.645 209.571 291.744 209.53C291.842 209.489 291.947 209.468 292.053 209.468C292.16 209.468 292.265 209.489 292.363 209.53C292.461 209.571 292.551 209.631 292.625 209.706L312.371 229.452C312.485 229.565 312.563 229.709 312.594 229.866C312.626 230.023 312.61 230.185 312.548 230.333C312.487 230.481 312.383 230.607 312.25 230.695C312.116 230.784 311.96 230.831 311.799 230.83Z" fill="#E0E0E0"/>
<path d="M311.8 211.075H292.054C291.84 211.075 291.635 210.99 291.484 210.839C291.333 210.688 291.248 210.483 291.248 210.269V190.523C291.248 190.31 291.333 190.105 291.484 189.954C291.635 189.803 291.84 189.718 292.054 189.718H311.8C312.013 189.718 312.218 189.803 312.369 189.954C312.52 190.105 312.605 190.31 312.605 190.523V210.269C312.605 210.483 312.52 210.688 312.369 210.839C312.218 210.99 312.013 211.075 311.8 211.075ZM292.859 209.464H310.994V191.329H292.859V209.464Z" fill="#E0E0E0"/>
<path d="M311.8 191.329H292.054C291.84 191.329 291.635 191.245 291.484 191.094C291.333 190.942 291.248 190.737 291.248 190.524V170.794C291.248 170.58 291.333 170.375 291.484 170.224C291.635 170.073 291.84 169.988 292.054 169.988H311.8C312.013 169.988 312.218 170.073 312.369 170.224C312.52 170.375 312.605 170.58 312.605 170.794V190.548C312.599 190.757 312.511 190.956 312.361 191.102C312.21 191.248 312.009 191.33 311.8 191.329ZM292.859 189.718H310.994V171.6H292.859V189.718Z" fill="#E0E0E0"/>
<path d="M311.799 211.076C311.588 211.075 311.386 210.991 311.236 210.842L291.481 191.088C291.331 190.937 291.247 190.733 291.247 190.52C291.247 190.307 291.331 190.103 291.481 189.952C291.556 189.877 291.645 189.817 291.744 189.776C291.842 189.735 291.947 189.714 292.053 189.714C292.16 189.714 292.265 189.735 292.363 189.776C292.461 189.817 292.551 189.877 292.625 189.952L312.371 209.706C312.522 209.857 312.606 210.061 312.606 210.274C312.606 210.487 312.522 210.691 312.371 210.842C312.296 210.917 312.207 210.976 312.109 211.016C312.011 211.056 311.906 211.076 311.799 211.076Z" fill="#E0E0E0"/>
<path d="M311.8 191.33C311.587 191.327 311.384 191.24 311.236 191.088L291.482 171.342C291.33 171.19 291.245 170.984 291.245 170.77C291.245 170.555 291.33 170.35 291.482 170.198C291.633 170.046 291.839 169.961 292.054 169.961C292.268 169.961 292.474 170.046 292.626 170.198L312.372 189.952C312.522 190.103 312.606 190.307 312.606 190.52C312.606 190.733 312.522 190.937 312.372 191.088C312.297 191.164 312.208 191.225 312.11 191.266C312.012 191.308 311.906 191.329 311.8 191.33Z" fill="#E0E0E0"/>
<path d="M311.8 171.599H292.054C291.84 171.599 291.635 171.515 291.484 171.364C291.333 171.212 291.248 171.008 291.248 170.794V151.016C291.248 150.802 291.333 150.597 291.484 150.446C291.635 150.295 291.84 150.21 292.054 150.21H311.8C312.013 150.21 312.218 150.295 312.369 150.446C312.52 150.597 312.605 150.802 312.605 151.016V170.794C312.605 171.008 312.52 171.212 312.369 171.364C312.218 171.515 312.013 171.599 311.8 171.599ZM292.859 169.988H310.994V151.821H292.859V169.988Z" fill="#E0E0E0"/>
<path d="M311.8 151.82H292.054C291.84 151.82 291.635 151.735 291.484 151.584C291.333 151.433 291.248 151.228 291.248 151.015V131.269C291.248 131.055 291.333 130.85 291.484 130.699C291.635 130.548 291.84 130.463 292.054 130.463H311.8C312.013 130.463 312.218 130.548 312.369 130.699C312.52 130.85 312.605 131.055 312.605 131.269V151.015C312.605 151.228 312.52 151.433 312.369 151.584C312.218 151.735 312.013 151.82 311.8 151.82ZM292.859 150.209H310.994V132.074H292.859V150.209Z" fill="#E0E0E0"/>
<path d="M311.799 171.599C311.588 171.598 311.386 171.514 311.236 171.366L291.481 151.612C291.331 151.461 291.247 151.256 291.247 151.044C291.247 150.831 291.331 150.627 291.481 150.476C291.556 150.4 291.645 150.34 291.744 150.299C291.842 150.258 291.947 150.237 292.053 150.237C292.16 150.237 292.265 150.258 292.363 150.299C292.461 150.34 292.551 150.4 292.625 150.476L312.371 170.197C312.485 170.31 312.563 170.454 312.594 170.611C312.626 170.768 312.61 170.931 312.548 171.078C312.487 171.226 312.383 171.352 312.25 171.441C312.116 171.529 311.96 171.576 311.799 171.575V171.599Z" fill="#E0E0E0"/>
<path d="M292.053 85.8407H272.299C272.086 85.8407 271.881 85.7558 271.73 85.6047C271.579 85.4536 271.494 85.2487 271.494 85.0351V65.2568C271.494 65.0431 271.579 64.8382 271.73 64.6871C271.881 64.5361 272.086 64.4512 272.299 64.4512H292.053C292.267 64.4512 292.472 64.5361 292.623 64.6871C292.774 64.8382 292.859 65.0431 292.859 65.2568V85.0028C292.863 85.1113 292.846 85.2196 292.807 85.321C292.769 85.4225 292.71 85.5152 292.635 85.5934C292.56 85.6717 292.469 85.7339 292.369 85.7764C292.27 85.8189 292.162 85.8408 292.053 85.8407ZM273.105 84.2294H291.248V66.0624H273.105V84.2294Z" fill="#E0E0E0"/>
<path d="M311.8 85.8411H292.054C291.84 85.8411 291.635 85.7562 291.484 85.6052C291.333 85.4541 291.248 85.2491 291.248 85.0355C291.248 84.8218 291.333 84.6169 291.484 84.4658C291.635 84.3147 291.84 84.2299 292.054 84.2299H310.994V45.5595C310.994 45.3459 311.079 45.141 311.23 44.9899C311.381 44.8388 311.586 44.7539 311.8 44.7539C312.013 44.7539 312.218 44.8388 312.369 44.9899C312.52 45.141 312.605 45.3459 312.605 45.5595V85.0355C312.605 85.2491 312.52 85.4541 312.369 85.6052C312.218 85.7562 312.013 85.8411 311.8 85.8411Z" fill="#E0E0E0"/>
<path d="M292.054 85.8401C291.916 85.8411 291.78 85.8066 291.659 85.7399C291.538 85.6733 291.436 85.5767 291.363 85.4594C291.291 85.3421 291.249 85.2081 291.243 85.0703C291.237 84.9324 291.266 84.7952 291.328 84.672L311.083 45.196C311.179 45.0063 311.347 44.8625 311.549 44.7961C311.751 44.7296 311.972 44.746 312.162 44.8416C312.353 44.9367 312.499 45.1039 312.567 45.3063C312.635 45.5087 312.62 45.7299 312.525 45.9211L292.771 85.397C292.704 85.5299 292.601 85.6416 292.475 85.7198C292.348 85.7981 292.202 85.8397 292.054 85.8401Z" fill="#E0E0E0"/>
<path d="M272.3 85.8407H252.553C252.34 85.8407 252.135 85.7558 251.984 85.6047C251.833 85.4536 251.748 85.2487 251.748 85.0351V65.2568C251.748 65.0431 251.833 64.8382 251.984 64.6871C252.135 64.5361 252.34 64.4512 252.553 64.4512H272.3C272.513 64.4512 272.718 64.5361 272.869 64.6871C273.02 64.8382 273.105 65.0431 273.105 65.2568V85.0028C273.11 85.1113 273.092 85.2196 273.053 85.321C273.015 85.4225 272.956 85.5152 272.881 85.5934C272.806 85.6717 272.715 85.7339 272.615 85.7764C272.516 85.8189 272.408 85.8408 272.3 85.8407ZM253.359 84.2294H271.494V66.0624H253.359V84.2294Z" fill="#E0E0E0"/>
<path d="M272.299 85.8395C272.142 85.8373 271.988 85.7888 271.858 85.7002C271.727 85.6115 271.626 85.4865 271.566 85.3407C271.506 85.1949 271.49 85.0346 271.52 84.8799C271.55 84.7251 271.625 84.5825 271.735 84.4699L291.482 64.7159C291.556 64.6403 291.646 64.5804 291.744 64.5395C291.842 64.4986 291.947 64.4775 292.054 64.4775C292.16 64.4775 292.265 64.4986 292.363 64.5395C292.462 64.5804 292.551 64.6403 292.626 64.7159C292.776 64.8668 292.86 65.071 292.86 65.2838C292.86 65.4967 292.776 65.7008 292.626 65.8518L272.896 85.6059C272.817 85.6835 272.724 85.7443 272.622 85.7845C272.519 85.8246 272.41 85.8434 272.299 85.8395Z" fill="#E0E0E0"/>
<path d="M331.554 85.8407H311.8C311.586 85.8407 311.381 85.7558 311.23 85.6047C311.079 85.4536 310.994 85.2487 310.994 85.0351V65.2568C310.994 65.0431 311.079 64.8382 311.23 64.6871C311.381 64.5361 311.586 64.4512 311.8 64.4512H331.554C331.767 64.4512 331.972 64.5361 332.123 64.6871C332.274 64.8382 332.359 65.0431 332.359 65.2568V85.0028C332.364 85.1113 332.346 85.2196 332.307 85.321C332.269 85.4225 332.21 85.5152 332.135 85.5934C332.06 85.6717 331.969 85.7339 331.87 85.7764C331.77 85.8189 331.662 85.8408 331.554 85.8407ZM312.605 84.2294H330.748V66.0624H312.605V84.2294Z" fill="#E0E0E0"/>
<path d="M311.8 85.8395C311.642 85.8373 311.488 85.7889 311.358 85.7002C311.228 85.6115 311.126 85.4865 311.066 85.3407C311.006 85.1949 310.99 85.0346 311.02 84.8799C311.05 84.7251 311.125 84.5825 311.236 84.4699L330.982 64.7159C331.057 64.6403 331.146 64.5804 331.244 64.5395C331.342 64.4986 331.447 64.4775 331.554 64.4775C331.66 64.4775 331.765 64.4986 331.863 64.5395C331.962 64.5804 332.051 64.6403 332.126 64.7159C332.276 64.8668 332.36 65.071 332.36 65.2838C332.36 65.4967 332.276 65.7008 332.126 65.8518L312.372 85.6059C312.296 85.6805 312.207 85.7396 312.109 85.7797C312.011 85.8198 311.906 85.8401 311.8 85.8395Z" fill="#E0E0E0"/>
<path d="M193.299 85.8395C193.193 85.8401 193.088 85.8198 192.99 85.7797C192.892 85.7396 192.802 85.6805 192.727 85.6058C192.577 85.4549 192.493 85.2507 192.493 85.0379C192.493 84.825 192.577 84.6208 192.727 84.4699L212.473 64.7158C212.583 64.6006 212.727 64.5243 212.884 64.4983L311.646 44.7442C311.776 44.7183 311.91 44.7246 312.036 44.7625C312.163 44.8004 312.278 44.8688 312.372 44.9617L351.847 84.4377C351.932 84.5099 352 84.5988 352.049 84.6987C352.097 84.7987 352.124 84.9075 352.128 85.0185C352.133 85.1294 352.114 85.2401 352.074 85.3435C352.033 85.4468 351.972 85.5407 351.893 85.6192C351.815 85.6978 351.721 85.7592 351.617 85.7997C351.514 85.8402 351.403 85.8589 351.292 85.8546C351.181 85.8503 351.073 85.8231 350.973 85.7748C350.873 85.7264 350.784 85.6579 350.712 85.5736L311.566 46.4119L213.448 66.0612L193.863 85.6381C193.708 85.7752 193.506 85.8473 193.299 85.8395Z" fill="#E0E0E0"/>
<path d="M252.553 85.8398C252.447 85.8405 252.342 85.8201 252.244 85.78C252.146 85.7399 252.057 85.6809 251.981 85.6062C251.831 85.4553 251.747 85.2511 251.747 85.0382C251.747 84.8254 251.831 84.6212 251.981 84.4703L271.736 64.7162C271.89 64.5842 272.088 64.5152 272.291 64.5231C272.493 64.5309 272.686 64.6149 272.829 64.7584C272.973 64.9019 273.057 65.0942 273.065 65.297C273.072 65.4998 273.003 65.698 272.871 65.8521L253.117 85.6062C252.967 85.755 252.765 85.839 252.553 85.8398Z" fill="#E0E0E0"/>
<path d="M252.553 85.8407H232.799C232.586 85.8407 232.381 85.7558 232.23 85.6047C232.079 85.4536 231.994 85.2487 231.994 85.0351V65.2568C231.994 65.0431 232.079 64.8382 232.23 64.6871C232.381 64.5361 232.586 64.4512 232.799 64.4512H252.553C252.767 64.4512 252.972 64.5361 253.123 64.6871C253.274 64.8382 253.359 65.0431 253.359 65.2568V85.0028C253.363 85.1113 253.346 85.2196 253.307 85.321C253.269 85.4225 253.21 85.5152 253.135 85.5934C253.06 85.6717 252.969 85.7339 252.869 85.7764C252.769 85.8189 252.662 85.8408 252.553 85.8407ZM233.605 84.2294H251.748V66.0624H233.605V84.2294Z" fill="#E0E0E0"/>
<path d="M232.799 85.8407H213.045C212.832 85.8407 212.627 85.7558 212.476 85.6047C212.324 85.4536 212.24 85.2487 212.24 85.0351V65.2568C212.24 65.0431 212.324 64.8382 212.476 64.6871C212.627 64.5361 212.832 64.4512 213.045 64.4512H232.799C233.013 64.4512 233.218 64.5361 233.369 64.6871C233.52 64.8382 233.605 65.0431 233.605 65.2568V85.0028C233.609 85.1113 233.592 85.2196 233.553 85.321C233.515 85.4225 233.456 85.5152 233.381 85.5934C233.305 85.6717 233.215 85.7339 233.115 85.7764C233.015 85.8189 232.908 85.8408 232.799 85.8407ZM213.851 84.2294H231.994V66.0624H213.851V84.2294Z" fill="#E0E0E0"/>
<path d="M232.799 85.8398C232.693 85.8405 232.588 85.8201 232.49 85.78C232.392 85.7399 232.303 85.6809 232.227 85.6062C232.077 85.4553 231.993 85.2511 231.993 85.0382C231.993 84.8254 232.077 84.6212 232.227 84.4703L251.949 64.7162C252.103 64.5842 252.302 64.5152 252.504 64.5231C252.707 64.5309 252.899 64.6149 253.043 64.7584C253.186 64.9019 253.27 65.0942 253.278 65.297C253.286 65.4998 253.217 65.698 253.085 65.8521L233.339 85.6062C233.195 85.7493 233.002 85.8328 232.799 85.8398Z" fill="#E0E0E0"/>
<path d="M213.045 85.8395C212.888 85.8373 212.734 85.7889 212.604 85.7002C212.473 85.6115 212.372 85.4865 212.312 85.3407C212.252 85.1949 212.236 85.0346 212.266 84.8799C212.296 84.7251 212.371 84.5825 212.481 84.4699L232.227 64.7159C232.302 64.6403 232.391 64.5804 232.49 64.5395C232.588 64.4986 232.693 64.4775 232.799 64.4775C232.906 64.4775 233.011 64.4986 233.109 64.5395C233.207 64.5804 233.296 64.6403 233.371 64.7159C233.521 64.8668 233.606 65.071 233.606 65.2838C233.606 65.4967 233.521 65.7008 233.371 65.8518L213.617 85.6059C213.542 85.6805 213.453 85.7396 213.355 85.7797C213.256 85.8198 213.151 85.8401 213.045 85.8395Z" fill="#E0E0E0"/>
<path d="M213.045 85.8407H193.299C193.086 85.8407 192.881 85.7558 192.73 85.6047C192.578 85.4536 192.494 85.2487 192.494 85.0351C192.494 84.8214 192.578 84.6165 192.73 84.4654C192.881 84.3143 193.086 84.2294 193.299 84.2294H212.24V65.2568C212.24 65.0431 212.325 64.8382 212.476 64.6871C212.627 64.5361 212.832 64.4512 213.045 64.4512C213.259 64.4512 213.464 64.5361 213.615 64.6871C213.766 64.8382 213.851 65.0431 213.851 65.2568V85.0028C213.855 85.1113 213.838 85.2196 213.799 85.321C213.761 85.4225 213.702 85.5152 213.627 85.5934C213.551 85.6717 213.461 85.7339 213.361 85.7764C213.261 85.8189 213.154 85.8408 213.045 85.8407Z" fill="#E0E0E0"/>
<path d="M311.8 151.822C311.588 151.821 311.386 151.737 311.236 151.588L291.482 131.842C291.406 131.767 291.347 131.678 291.306 131.579C291.266 131.481 291.245 131.376 291.245 131.27C291.245 131.164 291.266 131.058 291.306 130.96C291.347 130.862 291.406 130.773 291.482 130.698C291.557 130.623 291.646 130.563 291.744 130.523C291.842 130.482 291.947 130.461 292.054 130.461C292.16 130.461 292.265 130.482 292.363 130.523C292.461 130.563 292.55 130.623 292.626 130.698L312.372 150.452C312.522 150.603 312.606 150.807 312.606 151.02C312.606 151.233 312.522 151.437 312.372 151.588C312.296 151.663 312.207 151.722 312.109 151.762C312.011 151.802 311.906 151.822 311.8 151.822Z" fill="#E0E0E0"/>
<path d="M311.8 132.076H292.054C291.84 132.076 291.635 131.991 291.484 131.84C291.333 131.689 291.248 131.484 291.248 131.271V111.517C291.248 111.303 291.333 111.098 291.484 110.947C291.635 110.796 291.84 110.711 292.054 110.711H311.8C312.013 110.711 312.218 110.796 312.369 110.947C312.52 111.098 312.605 111.303 312.605 111.517V131.271C312.605 131.484 312.52 131.689 312.369 131.84C312.218 131.991 312.013 132.076 311.8 132.076ZM292.859 130.465H310.994V112.322H292.859V130.465Z" fill="#E0E0E0"/>
<path d="M311.8 112.321H292.054C291.84 112.321 291.635 112.236 291.484 112.085C291.333 111.934 291.248 111.729 291.248 111.516V91.7695C291.248 91.5558 291.333 91.3509 291.484 91.1998C291.635 91.0487 291.84 90.9639 292.054 90.9639H311.8C312.013 90.9639 312.218 91.0487 312.369 91.1998C312.52 91.3509 312.605 91.5558 312.605 91.7695V111.516C312.605 111.729 312.52 111.934 312.369 112.085C312.218 112.236 312.013 112.321 311.8 112.321ZM292.859 110.71H310.994V92.5751H292.859V110.71Z" fill="#E0E0E0"/>
<path d="M311.8 132.076C311.588 132.075 311.386 131.991 311.236 131.842L291.482 112.088C291.406 112.013 291.347 111.924 291.306 111.826C291.266 111.727 291.245 111.622 291.245 111.516C291.245 111.41 291.266 111.305 291.306 111.206C291.347 111.108 291.406 111.019 291.482 110.944C291.557 110.869 291.646 110.809 291.744 110.769C291.842 110.728 291.947 110.707 292.054 110.707C292.16 110.707 292.265 110.728 292.363 110.769C292.461 110.809 292.55 110.869 292.626 110.944L312.372 130.698C312.485 130.811 312.563 130.955 312.594 131.112C312.626 131.268 312.61 131.431 312.548 131.579C312.487 131.727 312.383 131.853 312.25 131.941C312.116 132.03 311.96 132.077 311.8 132.076Z" fill="#E0E0E0"/>
<path d="M311.799 112.322C311.588 112.321 311.386 112.237 311.236 112.088L291.481 92.3342C291.331 92.1833 291.247 91.9791 291.247 91.7662C291.247 91.5534 291.331 91.3492 291.481 91.1983C291.556 91.1227 291.645 91.0628 291.744 91.0219C291.842 90.981 291.947 90.96 292.053 90.96C292.16 90.96 292.265 90.981 292.363 91.0219C292.461 91.0628 292.551 91.1227 292.625 91.1983L312.371 110.944C312.485 111.057 312.563 111.201 312.594 111.358C312.626 111.515 312.61 111.677 312.548 111.825C312.487 111.973 312.383 112.099 312.25 112.188C312.116 112.276 311.96 112.323 311.799 112.322Z" fill="#E0E0E0"/>
<path d="M351.308 85.0352H193.299L213.045 91.7702H351.308V85.0352Z" fill="#E0E0E0"/>
<path d="M351.308 92.575H213.045C212.957 92.5745 212.87 92.5581 212.788 92.5267L193.033 85.7996C192.85 85.7395 192.695 85.6156 192.595 85.4505C192.495 85.2853 192.458 85.0899 192.49 84.8997C192.522 84.7095 192.622 84.5372 192.77 84.4141C192.919 84.2909 193.106 84.2251 193.299 84.2287H351.308C351.521 84.2287 351.726 84.3135 351.877 84.4646C352.029 84.6157 352.113 84.8206 352.113 85.0343V91.7694C352.113 91.983 352.029 92.1879 351.877 92.339C351.726 92.4901 351.521 92.575 351.308 92.575ZM213.182 90.9637H350.502V85.8399H198.157L213.182 90.9637Z" fill="#E0E0E0"/>
<path d="M277.431 119.475H292.053V88.4014H277.431V119.475Z" fill="#E0E0E0"/>
<path d="M277.423 88.4014H270.624V119.475H277.423V88.4014Z" fill="#F5F5F5"/>
<path d="M294.229 263.757H323.022V249.771H294.229V263.757Z" fill="#E0E0E0"/>
<path d="M294.229 249.778H280.831V263.764H294.229V249.778Z" fill="#F5F5F5"/>
<path d="M331.554 119.749C331.34 119.749 331.135 119.665 330.984 119.513C330.833 119.362 330.748 119.157 330.748 118.944V88.4023C330.748 88.1886 330.833 87.9837 330.984 87.8326C331.135 87.6816 331.34 87.5967 331.554 87.5967C331.767 87.5967 331.972 87.6816 332.123 87.8326C332.274 87.9837 332.359 88.1886 332.359 88.4023V118.944C332.359 119.157 332.274 119.362 332.123 119.513C331.972 119.665 331.767 119.749 331.554 119.749Z" fill="#E0E0E0"/>
<path d="M331.554 123.455C331.028 123.455 330.514 123.299 330.077 123.007C329.639 122.715 329.299 122.299 329.097 121.814C328.896 121.328 328.844 120.793 328.946 120.278C329.049 119.762 329.302 119.288 329.674 118.916C330.046 118.545 330.519 118.291 331.035 118.189C331.551 118.086 332.085 118.139 332.571 118.34C333.057 118.541 333.472 118.882 333.764 119.319C334.056 119.756 334.212 120.27 334.212 120.796C334.212 121.145 334.143 121.491 334.01 121.814C333.876 122.136 333.68 122.429 333.434 122.676C333.187 122.923 332.894 123.119 332.571 123.252C332.248 123.386 331.903 123.455 331.554 123.455ZM331.554 119.749C331.346 119.749 331.144 119.81 330.972 119.925C330.8 120.041 330.665 120.204 330.586 120.395C330.507 120.587 330.486 120.797 330.526 121.001C330.567 121.204 330.667 121.39 330.813 121.537C330.96 121.683 331.146 121.783 331.349 121.823C331.552 121.864 331.763 121.843 331.954 121.764C332.146 121.685 332.309 121.55 332.424 121.378C332.54 121.206 332.601 121.003 332.601 120.796C332.601 120.659 332.574 120.523 332.521 120.395C332.469 120.268 332.391 120.153 332.294 120.056C332.197 119.958 332.081 119.881 331.954 119.829C331.827 119.776 331.691 119.749 331.554 119.749Z" fill="#E0E0E0"/>
<path d="M215.527 135.782C215.313 135.782 215.108 135.697 214.957 135.546C214.806 135.394 214.721 135.19 214.721 134.976V88.4023C214.721 88.1886 214.806 87.9837 214.957 87.8326C215.108 87.6816 215.313 87.5967 215.527 87.5967C215.74 87.5967 215.945 87.6816 216.096 87.8326C216.247 87.9837 216.332 88.1886 216.332 88.4023V134.976C216.332 135.19 216.247 135.394 216.096 135.546C215.945 135.697 215.74 135.782 215.527 135.782Z" fill="#E0E0E0"/>
<path d="M223.091 140.607C222.9 140.61 222.713 140.544 222.565 140.422C222.418 140.299 222.318 140.128 222.286 139.938C221.69 139.004 216.445 135.91 215.486 135.781C214.584 135.902 209.339 139.004 208.743 139.938C208.725 140.152 208.623 140.35 208.459 140.488C208.295 140.626 208.083 140.694 207.869 140.676C207.655 140.657 207.458 140.555 207.319 140.391C207.181 140.227 207.114 140.015 207.132 139.802C207.132 137.989 214.439 134.162 215.494 134.162C216.55 134.162 223.865 137.981 223.865 139.802C223.865 140.01 223.785 140.21 223.64 140.36C223.496 140.51 223.3 140.599 223.091 140.607Z" fill="#E0E0E0"/>
<path d="M231.808 198.837L243.627 187.018L241.105 182.184C241.323 181.701 241.524 181.218 241.71 180.718L246.89 179.107V162.414L241.71 160.803C241.516 160.311 241.323 159.82 241.105 159.337L243.619 154.503L231.808 142.708L226.975 145.222C226.491 145.004 226.008 144.803 225.516 144.618L223.905 139.438H207.172L205.561 144.618C205.07 144.803 204.586 145.004 204.103 145.222L199.269 142.708L187.499 154.519L190.02 159.353C189.795 159.836 189.601 160.328 189.408 160.819L184.228 162.43V179.139L189.408 180.75C189.601 181.25 189.795 181.733 190.012 182.217L187.499 187.05L199.317 198.869L204.151 196.347C204.634 196.565 205.126 196.766 205.617 196.952L207.229 202.132H223.945L225.557 196.952C226.048 196.766 226.532 196.565 227.015 196.347L231.808 198.837ZM224.356 179.558C222.617 181.298 220.401 182.483 217.987 182.964C215.574 183.444 213.073 183.198 210.8 182.257C208.526 181.316 206.583 179.722 205.216 177.676C203.849 175.63 203.12 173.225 203.12 170.764C203.12 168.304 203.849 165.899 205.216 163.853C206.583 161.807 208.526 160.213 210.8 159.272C213.073 158.33 215.574 158.085 217.987 158.565C220.401 159.045 222.617 160.231 224.356 161.971C225.511 163.127 226.425 164.499 227.049 166.009C227.672 167.519 227.991 169.138 227.988 170.771C227.985 172.405 227.66 174.022 227.031 175.529C226.402 177.037 225.483 178.406 224.324 179.558H224.356Z" fill="#E0E0E0"/>
<path d="M202 300.146C288.269 300.146 358.204 296.063 358.204 291.026C358.204 285.989 288.269 281.906 202 281.906C115.731 281.906 45.7961 285.989 45.7961 291.026C45.7961 296.063 115.731 300.146 202 300.146Z" fill="#F5F5F5"/>
<path d="M142.295 87.1279H132.24C131.781 87.1284 131.329 87.2491 130.931 87.478C130.532 87.707 130.2 88.0362 129.969 88.4331L124.941 97.1419C124.712 97.5415 124.591 97.9943 124.591 98.4551C124.591 98.916 124.712 99.3688 124.941 99.7683L129.969 108.469C130.198 108.869 130.529 109.2 130.928 109.431C131.327 109.661 131.78 109.783 132.24 109.782H142.295C142.755 109.783 143.208 109.661 143.607 109.431C144.006 109.2 144.337 108.869 144.567 108.469L149.594 99.7683C149.823 99.3688 149.944 98.916 149.944 98.4551C149.944 97.9943 149.823 97.5415 149.594 97.1419L144.567 88.4331C144.335 88.0362 144.003 87.707 143.604 87.478C143.206 87.2491 142.754 87.1284 142.295 87.1279Z" fill="#407BFF"/>
<path opacity="0.5" d="M142.295 87.1279H132.24C131.781 87.1284 131.329 87.2491 130.931 87.478C130.532 87.707 130.2 88.0362 129.969 88.4331L124.941 97.1419C124.712 97.5415 124.591 97.9943 124.591 98.4551C124.591 98.916 124.712 99.3688 124.941 99.7683L129.969 108.469C130.198 108.869 130.529 109.2 130.928 109.431C131.327 109.661 131.78 109.783 132.24 109.782H142.295C142.755 109.783 143.208 109.661 143.607 109.431C144.006 109.2 144.337 108.869 144.567 108.469L149.594 99.7683C149.823 99.3688 149.944 98.916 149.944 98.4551C149.944 97.9943 149.823 97.5415 149.594 97.1419L144.567 88.4331C144.335 88.0362 144.003 87.707 143.604 87.478C143.206 87.2491 142.754 87.1284 142.295 87.1279Z" fill="white"/>
<path d="M77.9328 58.2712L77.3608 57.6992L82.1946 52.8654L82.7666 53.4374L77.9328 58.2712ZM86.255 49.949L85.683 49.377L95.7856 39.2744L96.3576 39.8384L86.255 49.949Z" fill="#407BFF"/>
<path opacity="0.5" d="M77.9328 58.2712L77.3608 57.6992L82.1946 52.8654L82.7666 53.4374L77.9328 58.2712ZM86.255 49.949L85.683 49.377L95.7856 39.2744L96.3576 39.8384L86.255 49.949Z" fill="white"/>
<path d="M205.625 116.687V80.2241L194.346 76.6873C193.944 75.6078 193.501 74.5444 193.033 73.4648L198.52 62.9916L172.739 37.2114L162.266 42.7058C161.211 42.2305 160.155 41.7874 159.044 41.3765L155.507 30.0977H119.02L115.491 41.3765C114.404 41.7874 113.348 42.2305 112.269 42.7058L101.796 37.2114L76.0153 62.9916L81.5097 73.4648C81.0344 74.5202 80.5913 75.5756 80.1885 76.6873L68.9097 80.2241V116.687L80.1885 120.216C80.5994 121.295 81.0425 122.359 81.5097 123.438L76.0153 133.911L101.796 159.692L112.269 154.197C113.316 154.672 114.371 155.116 115.491 155.526L119.02 166.805H155.483L159.02 155.526C160.099 155.116 161.154 154.672 162.242 154.197L172.715 159.692L198.495 133.911L193.001 123.438C193.468 122.391 193.92 121.327 194.322 120.216L205.625 116.687ZM164.401 98.4474C164.401 103.814 162.81 109.06 159.828 113.522C156.847 117.984 152.609 121.462 147.651 123.516C142.693 125.569 137.237 126.107 131.974 125.06C126.711 124.013 121.876 121.429 118.081 117.634C114.286 113.839 111.702 109.004 110.655 103.741C109.608 98.4775 110.146 93.0219 112.199 88.0638C114.253 83.1058 117.731 78.8681 122.193 75.8866C126.655 72.9051 131.901 71.3138 137.267 71.3138C144.463 71.3159 151.363 74.1753 156.452 79.2634C161.54 84.3515 164.399 91.2518 164.401 98.4474Z" fill="#407BFF"/>
<path opacity="0.5" d="M205.625 116.687V80.2241L194.346 76.6873C193.944 75.6078 193.501 74.5444 193.033 73.4648L198.52 62.9916L172.739 37.2114L162.266 42.7058C161.211 42.2305 160.155 41.7874 159.044 41.3765L155.507 30.0977H119.02L115.491 41.3765C114.404 41.7874 113.348 42.2305 112.269 42.7058L101.796 37.2114L76.0153 62.9916L81.5097 73.4648C81.0344 74.5202 80.5913 75.5756 80.1885 76.6873L68.9097 80.2241V116.687L80.1885 120.216C80.5994 121.295 81.0425 122.359 81.5097 123.438L76.0153 133.911L101.796 159.692L112.269 154.197C113.316 154.672 114.371 155.116 115.491 155.526L119.02 166.805H155.483L159.02 155.526C160.099 155.116 161.154 154.672 162.242 154.197L172.715 159.692L198.495 133.911L193.001 123.438C193.468 122.391 193.92 121.327 194.322 120.216L205.625 116.687ZM164.401 98.4474C164.401 103.814 162.81 109.06 159.828 113.522C156.847 117.984 152.609 121.462 147.651 123.516C142.693 125.569 137.237 126.107 131.974 125.06C126.711 124.013 121.876 121.429 118.081 117.634C114.286 113.839 111.702 109.004 110.655 103.741C109.608 98.4775 110.146 93.0219 112.199 88.0638C114.253 83.1058 117.731 78.8681 122.193 75.8866C126.655 72.9051 131.901 71.3138 137.267 71.3138C144.463 71.3159 151.363 74.1753 156.452 79.2634C161.54 84.3515 164.399 91.2518 164.401 98.4474Z" fill="white"/>
<path d="M153.727 164.597H120.816C120.773 164.597 120.731 164.583 120.696 164.557C120.661 164.531 120.635 164.494 120.623 164.452L117.401 154.285C117.385 154.234 117.39 154.178 117.415 154.131C117.439 154.083 117.482 154.047 117.534 154.031C117.585 154.015 117.64 154.02 117.688 154.045C117.736 154.07 117.771 154.113 117.787 154.164L120.921 164.194H153.533L156.885 153.608C156.894 153.579 156.91 153.553 156.931 153.531C156.952 153.508 156.977 153.491 157.005 153.479L158.109 153.069C159.044 152.714 160.035 152.303 161.154 151.804L162.226 151.32C162.275 151.299 162.331 151.298 162.381 151.318C162.43 151.337 162.47 151.376 162.492 151.425C162.513 151.474 162.514 151.53 162.495 151.58C162.475 151.63 162.436 151.67 162.387 151.691L161.316 152.166C160.196 152.674 159.189 153.085 158.254 153.439L157.239 153.826L153.92 164.452C153.907 164.493 153.881 164.529 153.846 164.555C153.812 164.581 153.77 164.596 153.727 164.597ZM172.256 156.92C172.203 156.918 172.152 156.898 172.111 156.863C172.092 156.844 172.076 156.822 172.065 156.797C172.055 156.772 172.049 156.745 172.049 156.718C172.049 156.691 172.055 156.664 172.065 156.639C172.076 156.614 172.092 156.592 172.111 156.573L195.281 133.411L190.133 123.583C190.119 123.555 190.112 123.525 190.112 123.494C190.112 123.463 190.119 123.433 190.133 123.405L190.616 122.334C191.1 121.246 191.511 120.247 191.873 119.297L192.284 118.193C192.295 118.165 192.313 118.139 192.335 118.118C192.357 118.097 192.384 118.082 192.413 118.072L203.007 114.761V82.1731L192.534 78.9022C192.505 78.8979 192.477 78.8875 192.453 78.8715C192.428 78.8555 192.408 78.8344 192.392 78.8096C192.377 78.7848 192.367 78.7569 192.363 78.7279C192.36 78.6989 192.362 78.6695 192.371 78.6417C192.38 78.6138 192.395 78.5883 192.415 78.5668C192.434 78.5452 192.459 78.5282 192.486 78.517C192.513 78.5058 192.542 78.5005 192.571 78.5017C192.6 78.5028 192.629 78.5103 192.655 78.5235L203.241 81.8266C203.28 81.8413 203.315 81.8676 203.339 81.9021C203.364 81.9366 203.377 81.9777 203.378 82.02V114.93C203.378 114.973 203.365 115.014 203.341 115.049C203.316 115.084 203.281 115.11 203.241 115.123L192.63 118.426L192.252 119.442C191.889 120.4 191.446 121.399 190.979 122.503L190.544 123.486L195.708 133.355C195.733 133.388 195.747 133.429 195.747 133.472C195.747 133.514 195.733 133.555 195.708 133.588L172.441 156.863C172.392 156.904 172.328 156.924 172.264 156.92H172.256ZM102.271 156.92C102.217 156.918 102.166 156.898 102.126 156.863L78.8592 133.588C78.836 133.554 78.8236 133.513 78.8236 133.472C78.8236 133.43 78.836 133.389 78.8592 133.355L84.0716 123.397C84.0973 123.35 84.14 123.315 84.191 123.298C84.2419 123.282 84.2972 123.286 84.3456 123.309C84.3689 123.321 84.3895 123.338 84.4061 123.359C84.4228 123.38 84.4353 123.403 84.4428 123.429C84.4502 123.454 84.4526 123.481 84.4498 123.507C84.4469 123.534 84.4389 123.559 84.4261 123.583L79.2862 133.411L102.448 156.573C102.468 156.592 102.483 156.614 102.494 156.639C102.504 156.664 102.51 156.691 102.51 156.718C102.51 156.745 102.504 156.772 102.494 156.797C102.483 156.822 102.468 156.844 102.448 156.863C102.425 156.884 102.398 156.899 102.369 156.909C102.34 156.918 102.309 156.922 102.279 156.92H102.271ZM115.967 153.302H115.894C115.088 152.988 114.21 152.617 113.236 152.182C113.207 152.175 113.18 152.162 113.157 152.144C113.135 152.125 113.116 152.102 113.103 152.075C113.09 152.049 113.083 152.02 113.083 151.991C113.082 151.961 113.088 151.932 113.1 151.905C113.112 151.878 113.13 151.854 113.152 151.835C113.174 151.816 113.2 151.802 113.228 151.793C113.257 151.785 113.286 151.783 113.315 151.788C113.345 151.793 113.372 151.803 113.397 151.82C114.363 152.247 115.225 152.626 116.039 152.924C116.064 152.933 116.087 152.948 116.106 152.967C116.126 152.986 116.141 153.008 116.152 153.033C116.162 153.058 116.168 153.084 116.168 153.111C116.168 153.138 116.162 153.165 116.152 153.189C116.135 153.227 116.106 153.259 116.07 153.279C116.034 153.3 115.992 153.308 115.95 153.302H115.967ZM137.284 128.215C129.388 128.2 121.82 125.053 116.242 119.464C110.664 113.876 107.532 106.302 107.532 98.4065C107.532 98.3531 107.553 98.3019 107.591 98.2641C107.628 98.2263 107.68 98.2051 107.733 98.2051C107.786 98.2051 107.838 98.2263 107.875 98.2641C107.913 98.3019 107.934 98.3531 107.934 98.4065C107.934 104.211 109.656 109.886 112.881 114.712C116.106 119.538 120.689 123.3 126.052 125.522C131.415 127.743 137.316 128.324 143.009 127.192C148.703 126.059 153.932 123.264 158.037 119.16C162.141 115.055 164.936 109.825 166.069 104.132C167.201 98.4391 166.62 92.538 164.399 87.1751C162.177 81.8122 158.416 77.2285 153.589 74.0036C148.763 70.7787 143.088 69.0574 137.284 69.0574C137.23 69.0574 137.179 69.0361 137.141 68.9984C137.103 68.9606 137.082 68.9094 137.082 68.856C137.082 68.8025 137.103 68.7513 137.141 68.7136C137.179 68.6758 137.23 68.6546 137.284 68.6546C145.176 68.6546 152.746 71.79 158.327 77.3711C163.908 82.9522 167.044 90.5217 167.044 98.4146C167.044 106.307 163.908 113.877 158.327 119.458C152.746 125.039 145.176 128.175 137.284 128.175V128.215ZM82.5007 119.57C82.4586 119.569 82.418 119.555 82.3837 119.531C82.3494 119.506 82.3228 119.473 82.3073 119.434L81.9287 118.426L71.2863 115.099C71.2459 115.086 71.211 115.06 71.1863 115.025C71.1617 114.99 71.1488 114.948 71.1493 114.906V81.9958C71.1499 81.9535 71.1634 81.9124 71.1878 81.8779C71.2123 81.8434 71.2466 81.8171 71.2863 81.8025L81.4614 78.6283C81.5127 78.6127 81.568 78.6174 81.616 78.6413C81.6639 78.6653 81.7009 78.7068 81.7192 78.7572C81.7324 78.8095 81.7257 78.8648 81.7004 78.9125C81.6751 78.9601 81.633 78.9966 81.5822 79.015L71.528 82.1731V114.785L82.122 118.096C82.1504 118.105 82.1762 118.121 82.1972 118.142C82.2182 118.163 82.2339 118.189 82.2429 118.217L82.6618 119.321C82.6804 119.37 82.679 119.424 82.6579 119.473C82.6368 119.521 82.5977 119.559 82.549 119.579L82.5007 119.57ZM82.5007 77.6776H82.4282C82.3788 77.6562 82.3396 77.6167 82.3186 77.5672C82.2976 77.5178 82.2965 77.4621 82.3154 77.4118C82.7021 76.3806 83.121 75.3977 83.5641 74.3987C83.5868 74.3509 83.6274 74.3139 83.6772 74.2958C83.7269 74.2777 83.7818 74.28 83.8299 74.302C83.8543 74.3125 83.8764 74.3278 83.8949 74.3468C83.9134 74.3659 83.9279 74.3885 83.9376 74.4132C83.9474 74.4379 83.9521 74.4643 83.9516 74.4908C83.9511 74.5174 83.9453 74.5436 83.9347 74.5679C83.4835 75.5508 83.0807 76.5336 82.694 77.5568C82.6799 77.6006 82.6517 77.6386 82.6139 77.6648C82.576 77.691 82.5305 77.704 82.4845 77.7018L82.5007 77.6776ZM190.608 73.0775H190.512C190.488 73.0648 190.468 73.0477 190.451 73.0271C190.434 73.0064 190.422 72.9827 190.414 72.9573C190.407 72.9318 190.405 72.9051 190.407 72.8787C190.41 72.8524 190.418 72.8268 190.431 72.8036L195.265 63.4985L191.398 59.6154C191.375 59.5981 191.356 59.576 191.342 59.5506C191.328 59.5253 191.32 59.4973 191.318 59.4685C191.316 59.4397 191.32 59.4109 191.33 59.3838C191.34 59.3568 191.356 59.3322 191.376 59.3118C191.397 59.2914 191.421 59.2756 191.448 59.2655C191.475 59.2555 191.504 59.2513 191.533 59.2533C191.562 59.2554 191.59 59.2636 191.615 59.2774C191.64 59.2912 191.663 59.3103 191.68 59.3334L195.708 63.3616C195.733 63.3952 195.747 63.4362 195.747 63.4784C195.747 63.5206 195.733 63.5616 195.708 63.5952L190.769 73.0291C190.748 73.055 190.721 73.0751 190.69 73.0878C190.659 73.1005 190.625 73.1052 190.592 73.1016L190.608 73.0775ZM79.0042 63.6435C78.9504 63.644 78.8985 63.6238 78.8592 63.5871C78.8241 63.5486 78.8047 63.4983 78.8047 63.4462C78.8047 63.394 78.8241 63.3437 78.8592 63.3052L102.102 40.0466C102.135 40.0198 102.176 40.0051 102.218 40.0051C102.261 40.0051 102.302 40.0198 102.335 40.0466L112.204 45.2107L113.187 44.7756C114.138 44.3487 115.008 43.97 115.846 43.6558C115.871 43.6454 115.897 43.64 115.924 43.6401C115.951 43.6401 115.978 43.6455 116.003 43.656C116.027 43.6666 116.05 43.6819 116.068 43.7013C116.087 43.7206 116.102 43.7435 116.112 43.7686C116.13 43.8188 116.127 43.8742 116.105 43.9225C116.082 43.9709 116.041 44.0082 115.991 44.0264C115.185 44.3567 114.299 44.7192 113.356 45.1382L112.285 45.6215C112.257 45.6335 112.227 45.6397 112.196 45.6397C112.166 45.6397 112.136 45.6335 112.108 45.6215L102.279 40.4736L79.1492 63.6435C79.1027 63.6623 79.0507 63.6623 79.0042 63.6435ZM188.183 56.2962C188.13 56.2967 188.078 56.2765 188.038 56.2398L172.192 40.4333L162.363 45.5813C162.337 45.5954 162.308 45.6028 162.278 45.6028C162.249 45.6028 162.22 45.5954 162.194 45.5813L161.122 45.0979C160.019 44.6065 159.02 44.1956 158.077 43.833L156.973 43.4222C156.945 43.4108 156.919 43.3934 156.899 43.3711C156.878 43.3488 156.862 43.3223 156.852 43.2933L153.541 32.7073H120.962L118.11 41.819C118.102 41.8443 118.09 41.8678 118.073 41.8881C118.057 41.9084 118.036 41.9251 118.012 41.9372C117.989 41.9493 117.963 41.9565 117.937 41.9583C117.911 41.9601 117.885 41.9566 117.86 41.9479C117.81 41.9312 117.769 41.8958 117.745 41.8492C117.721 41.8025 117.716 41.7483 117.731 41.6981L120.631 32.4495C120.645 32.4091 120.671 32.3742 120.706 32.3496C120.74 32.3249 120.782 32.312 120.825 32.3125H153.735C153.777 32.3132 153.818 32.3266 153.853 32.351C153.887 32.3755 153.913 32.4098 153.928 32.4495L157.247 43.0838L158.262 43.4705C159.213 43.825 160.212 44.2761 161.324 44.7434L162.307 45.1785L172.192 40.0144C172.225 39.9889 172.266 39.9751 172.308 39.9751C172.351 39.9751 172.392 39.9889 172.425 40.0144L188.304 55.9659C188.324 55.9846 188.339 56.0072 188.35 56.0321C188.36 56.057 188.366 56.0838 188.366 56.1109C188.366 56.1379 188.36 56.1647 188.35 56.1897C188.339 56.2146 188.324 56.2371 188.304 56.2559C188.271 56.2873 188.229 56.3071 188.183 56.3123V56.2962Z" fill="#FAFAFA"/>
<path d="M253.029 105.047C255.55 108.269 257.911 111.492 260.215 114.819C262.519 118.146 264.71 121.546 266.781 125.091C267.305 125.969 267.804 126.888 268.312 127.79C269.044 129.157 269.475 130.665 269.576 132.213C269.708 134.562 269.48 136.917 268.9 139.198C267.897 143.298 266.376 147.253 264.372 150.968L260.223 149.357C261.047 145.637 261.641 141.87 262.004 138.078C262.164 136.44 262.11 134.788 261.842 133.163C261.777 132.712 261.608 132.283 261.351 131.907C260.819 131.101 260.304 130.295 259.74 129.49C257.556 126.267 255.244 123.117 252.916 119.951L245.915 110.461L253.029 105.047Z" fill="#FF8B7B"/>
<path d="M259.933 148.889L257.79 152.724L265.266 153.828C265.266 153.828 266.072 150.605 264.195 148.382L259.933 148.889Z" fill="#FF8B7B"/>
<path d="M256.662 157.823L262.89 158.452L265.266 153.827L257.79 152.724L256.662 157.823Z" fill="#FF8B7B"/>
<path d="M276.924 180.702L279.147 168.868C279.406 167.495 280.198 166.28 281.35 165.49C282.502 164.701 283.921 164.4 285.294 164.654L303.961 168.151C302.847 164.421 300.867 161.008 298.181 158.191C295.496 155.373 292.182 153.231 288.511 151.939C284.839 150.648 280.914 150.243 277.056 150.759C273.198 151.274 269.517 152.696 266.314 154.906L181.626 104.78C182.066 99.48 180.781 94.1801 177.964 89.6698C175.147 85.1595 170.947 81.6804 165.992 79.7511C161.036 77.8217 155.59 77.5454 150.464 78.9634C145.339 80.3814 140.809 83.4177 137.55 87.6197L156.216 91.1162C157.587 91.3801 158.798 92.175 159.586 93.3278C160.374 94.4806 160.674 95.898 160.421 97.2712L158.198 109.114C157.938 110.486 157.145 111.699 155.993 112.489C154.842 113.278 153.424 113.58 152.051 113.327L133.384 109.823C134.503 113.575 136.498 117.007 139.206 119.835C141.914 122.663 145.255 124.806 148.955 126.087C152.655 127.368 156.607 127.75 160.483 127.201C164.36 126.652 168.05 125.188 171.249 122.931L255.768 172.96C255.28 178.271 256.527 183.597 259.322 188.14C262.116 192.682 266.307 196.197 271.267 198.157C276.227 200.117 281.689 200.417 286.834 199.012C291.978 197.606 296.529 194.571 299.804 190.362L281.137 186.857C279.765 186.595 278.551 185.801 277.762 184.648C276.973 183.495 276.671 182.077 276.924 180.702Z" fill="#407BFF"/>
<path d="M255.831 154.602L187.167 113.962C185.919 113.223 184.308 113.636 183.569 114.884L180.771 119.612C180.032 120.861 180.445 122.472 181.693 123.21L250.357 163.851C251.606 164.589 253.216 164.176 253.955 162.928L256.754 158.2C257.493 156.952 257.08 155.341 255.831 154.602Z" fill="#407BFF"/>
<path opacity="0.2" d="M255.831 154.602L187.167 113.962C185.919 113.223 184.308 113.636 183.569 114.884L180.771 119.612C180.032 120.861 180.445 122.472 181.693 123.21L250.357 163.851C251.606 164.589 253.216 164.176 253.955 162.928L256.754 158.2C257.493 156.952 257.08 155.341 255.831 154.602Z" fill="white"/>
<path d="M224.348 80.0081C224.268 80.4834 223.962 80.8137 223.655 80.8137C223.349 80.8137 223.156 80.3384 223.228 79.8711C223.301 79.4039 223.615 79.0655 223.921 79.1058C224.227 79.1461 224.421 79.5408 224.348 80.0081Z" fill="#263238"/>
<path d="M224.002 80.8291C223.214 82.1827 222.243 83.4215 221.118 84.5108C221.402 84.7965 221.746 85.0165 222.124 85.1557C222.503 85.2948 222.907 85.3497 223.309 85.3165L224.002 80.8291Z" fill="#FF5652"/>
<path d="M226.467 77.6632C226.431 77.6636 226.395 77.6566 226.362 77.6428C226.329 77.629 226.299 77.6085 226.274 77.5827C226.031 77.3276 225.732 77.134 225.4 77.0177C225.068 76.9014 224.713 76.8659 224.364 76.914C224.328 76.9223 224.29 76.9232 224.253 76.9167C224.216 76.9102 224.181 76.8964 224.149 76.8762C224.118 76.8559 224.091 76.8296 224.07 76.7988C224.048 76.7679 224.034 76.7331 224.026 76.6965C224.018 76.6605 224.017 76.6231 224.023 76.5868C224.03 76.5504 224.044 76.5158 224.064 76.4849C224.085 76.4541 224.111 76.4276 224.142 76.4072C224.172 76.3868 224.207 76.3728 224.243 76.3662C224.681 76.2967 225.13 76.3336 225.55 76.4738C225.971 76.6141 226.352 76.8534 226.66 77.1718C226.711 77.2268 226.739 77.2986 226.739 77.3732C226.739 77.4478 226.711 77.5196 226.66 77.5746C226.608 77.6257 226.54 77.6571 226.467 77.6632Z" fill="#263238"/>
<path d="M240.082 85.2041C239.277 89.5384 238.39 97.4739 241.42 100.358C241.42 100.358 240.235 104.749 232.187 104.749C223.325 104.749 227.957 100.358 227.957 100.358C232.791 99.206 232.662 95.6209 231.824 92.3017L240.082 85.2041Z" fill="#FF8B7B"/>
<path d="M245.504 103.613C245.406 103.47 245.333 103.312 245.287 103.146C244.61 100.576 241.766 98.5697 238.076 98.4649C234.185 98.3683 229.794 98.8355 227.2 100.978C226.056 101.921 227.321 103.299 227.321 103.299L245.504 103.613Z" fill="#407BFF"/>
<path opacity="0.5" d="M245.504 103.613C245.406 103.47 245.333 103.312 245.287 103.146C244.61 100.576 241.766 98.5697 238.076 98.4649C234.185 98.3683 229.794 98.8355 227.2 100.978C226.056 101.921 227.321 103.299 227.321 103.299L245.504 103.613Z" fill="white"/>
<path d="M273.951 265.721H273.895C273.776 265.705 273.666 265.652 273.579 265.57C273.492 265.487 273.434 265.38 273.411 265.262C273.383 265.171 273.375 265.075 273.387 264.98C273.4 264.886 273.433 264.795 273.484 264.714C273.935 263.949 275.901 263.546 275.957 263.53C275.984 263.525 276.012 263.527 276.038 263.537C276.063 263.547 276.086 263.564 276.102 263.587C276.115 263.61 276.123 263.636 276.123 263.663C276.123 263.69 276.115 263.716 276.102 263.74C275.804 264.247 274.7 265.721 273.951 265.721ZM275.683 263.877C275.039 264.046 273.991 264.392 273.725 264.851C273.7 264.9 273.687 264.954 273.687 265.008C273.687 265.063 273.7 265.117 273.725 265.166C273.798 265.415 273.927 265.431 273.959 265.439C274.322 265.488 275.176 264.618 275.683 263.877Z" fill="#407BFF"/>
<path d="M275.022 263.909C274.289 263.909 273.468 263.772 273.218 263.418C273.159 263.33 273.132 263.225 273.141 263.119C273.149 263.014 273.194 262.915 273.266 262.838C273.331 262.754 273.413 262.683 273.505 262.631C273.598 262.578 273.7 262.544 273.806 262.532C274.692 262.435 276.021 263.506 276.078 263.555C276.098 263.57 276.114 263.591 276.123 263.615C276.132 263.639 276.134 263.665 276.129 263.691C276.124 263.716 276.112 263.739 276.095 263.758C276.077 263.777 276.054 263.79 276.029 263.796C275.7 263.88 275.362 263.918 275.022 263.909ZM273.943 262.805H273.838C273.77 262.81 273.703 262.829 273.643 262.863C273.583 262.896 273.531 262.943 273.492 262.999C273.379 263.144 273.427 263.216 273.451 263.241C273.677 263.571 274.91 263.7 275.659 263.579C275.162 263.179 274.572 262.912 273.943 262.805Z" fill="#407BFF"/>
<path d="M215.438 285.282C214.681 285.282 213.948 285.177 213.698 284.839C213.635 284.749 213.601 284.643 213.601 284.533C213.601 284.423 213.635 284.316 213.698 284.227C213.747 284.144 213.812 284.073 213.89 284.016C213.967 283.959 214.055 283.919 214.149 283.896C215.132 283.631 217.202 284.807 217.291 284.863C217.315 284.878 217.335 284.899 217.346 284.925C217.358 284.951 217.361 284.98 217.355 285.008C217.35 285.036 217.336 285.062 217.316 285.082C217.296 285.102 217.27 285.115 217.243 285.121C216.647 285.226 216.043 285.28 215.438 285.282ZM214.495 284.138C214.407 284.125 214.318 284.125 214.23 284.138C214.173 284.149 214.119 284.172 214.072 284.206C214.025 284.239 213.985 284.282 213.956 284.332C213.851 284.509 213.891 284.597 213.956 284.646C214.23 285.024 215.728 285.032 216.832 284.879C216.109 284.483 215.315 284.231 214.495 284.138Z" fill="#407BFF"/>
<path d="M217.226 285.122H217.17C216.453 284.799 215.035 283.51 215.148 282.85C215.148 282.689 215.285 282.495 215.671 282.455C215.815 282.437 215.961 282.45 216.1 282.491C216.238 282.533 216.367 282.603 216.477 282.697C217.234 283.317 217.387 284.912 217.396 284.977C217.399 285.001 217.395 285.026 217.385 285.049C217.375 285.072 217.359 285.091 217.339 285.106C217.305 285.125 217.265 285.131 217.226 285.122ZM215.784 282.705H215.696C215.446 282.705 215.43 282.826 215.422 282.858C215.357 283.261 216.324 284.268 217.033 284.703C216.959 284.027 216.678 283.391 216.227 282.882C216.101 282.781 215.946 282.725 215.784 282.721V282.705Z" fill="#407BFF"/>
<path d="M223.736 284.983H217.815L217.226 271.279H223.148L223.736 284.983Z" fill="#FF8B7B"/>
<path d="M281.282 259.454L276.481 262.919L265.154 254.186L269.955 250.729L281.282 259.454Z" fill="#FF8B7B"/>
<path d="M275.796 262.869L280.404 258.036C280.485 257.951 280.592 257.897 280.708 257.882C280.824 257.867 280.941 257.893 281.041 257.955L285.649 260.751C285.759 260.82 285.853 260.914 285.922 261.024C285.992 261.135 286.036 261.259 286.051 261.389C286.067 261.519 286.053 261.65 286.011 261.774C285.97 261.897 285.901 262.01 285.81 262.104C284.199 263.756 283.288 264.473 281.266 266.583C280.017 267.88 276.634 272.44 274.91 274.237C273.186 276.033 271.196 274.559 271.736 273.673C274.152 269.693 275.329 265.745 275.393 263.78C275.416 263.438 275.559 263.116 275.796 262.869Z" fill="#263238"/>
<path d="M217.855 284.299H224.3C224.418 284.298 224.533 284.337 224.625 284.411C224.717 284.484 224.782 284.587 224.807 284.702L225.976 289.962C226.004 290.089 226.002 290.221 225.972 290.347C225.942 290.474 225.884 290.592 225.802 290.693C225.72 290.793 225.616 290.874 225.498 290.929C225.38 290.984 225.252 291.012 225.122 291.01C222.793 291.01 219.426 290.841 216.493 290.841C213.061 290.841 210.105 291.026 206.085 291.026C203.668 291.026 202.983 288.569 203.998 288.343C208.63 287.336 212.409 287.223 216.413 284.758C216.841 284.473 217.341 284.314 217.855 284.299Z" fill="#263238"/>
<path d="M244.747 112.853C245.552 114.343 246.463 115.785 247.341 117.13C248.856 119.459 250.322 121.473 251.369 122.858C252.312 124.107 252.916 124.84 252.916 124.84L264.839 116.711C264.839 116.711 257.589 102.597 252.006 101.695C246.261 100.784 241.001 106.166 244.747 112.853Z" fill="#407BFF"/>
<path opacity="0.5" d="M244.747 112.853C245.552 114.343 246.463 115.785 247.341 117.13C248.856 119.459 250.322 121.473 251.369 122.858C252.312 124.107 252.916 124.84 252.916 124.84L264.839 116.711C264.839 116.711 257.589 102.597 252.006 101.695C246.261 100.784 241.001 106.166 244.747 112.853Z" fill="black"/>
<path d="M247.341 117.132C248.856 119.46 250.322 121.474 251.369 122.86C251.248 120.089 250.676 115.609 248.525 112.193C247.744 112.967 247.43 114.965 247.341 117.132Z" fill="#407BFF"/>
<path opacity="0.6" d="M247.341 117.132C248.856 119.46 250.322 121.474 251.369 122.86C251.248 120.089 250.676 115.609 248.525 112.193C247.744 112.967 247.43 114.965 247.341 117.132Z" fill="black"/>
<path d="M215.946 121.297C215.946 123.311 215.994 125.526 216.107 127.968C216.397 134.606 217.122 142.88 218.524 153.16H250.177C250.394 148.326 247.341 124.592 252.03 101.696C248.528 101.022 244.987 100.576 241.428 100.359C236.947 100.101 232.455 100.101 227.974 100.359C224.902 100.662 221.859 101.201 218.87 101.97C218.87 101.97 215.937 105.297 215.946 121.297Z" fill="#407BFF"/>
<path opacity="0.5" d="M215.946 121.297C215.946 123.311 215.994 125.526 216.107 127.968C216.397 134.606 217.122 142.88 218.524 153.16H250.177C250.394 148.326 247.341 124.592 252.03 101.696C248.528 101.022 244.987 100.576 241.428 100.359C236.947 100.101 232.455 100.101 227.974 100.359C224.902 100.662 221.859 101.201 218.87 101.97C218.87 101.97 215.937 105.297 215.946 121.297Z" fill="black"/>
<path d="M215.945 121.296C215.945 123.31 215.994 125.526 216.107 127.967C219.821 124.341 220.07 116.938 220.07 116.938L215.945 121.296Z" fill="#407BFF"/>
<path opacity="0.6" d="M215.945 121.296C215.945 123.31 215.994 125.526 216.107 127.967C219.821 124.341 220.07 116.938 220.07 116.938L215.945 121.296Z" fill="black"/>
<path d="M222.544 112.104C221.935 113.123 221.262 114.102 220.53 115.036C219.861 115.906 219.192 116.728 218.507 117.542C217.146 119.153 215.688 120.708 214.205 122.214C211.168 125.298 207.805 128.043 204.175 130.4C203.198 131.011 202.19 131.57 201.154 132.075L200.743 132.269L200.542 132.365L200.292 132.47C199.894 132.638 199.485 132.778 199.068 132.889L198.479 133.042L197.915 133.139C197.556 133.201 197.193 133.242 196.828 133.26C194.403 133.34 191.982 132.999 189.674 132.253C185.593 130.983 181.704 129.164 178.113 126.847L180.022 122.819C183.686 123.915 187.419 124.766 191.196 125.365C192.795 125.633 194.425 125.655 196.03 125.429C196.168 125.407 196.302 125.372 196.433 125.324L196.61 125.276L196.739 125.219C196.844 125.219 196.868 125.139 196.933 125.115L197.416 124.833C198.158 124.402 198.876 123.931 199.567 123.423C202.54 121.186 205.304 118.684 207.825 115.947C209.138 114.569 210.403 113.127 211.635 111.693C212.248 110.968 212.844 110.243 213.4 109.51C213.956 108.777 214.528 108.027 214.858 107.512L222.544 112.104Z" fill="#FF8B7B"/>
<path d="M180.892 123.907L176.961 119.234L174.286 126.066C174.286 126.066 177.678 127.677 180.32 126.743L180.892 123.907Z" fill="#FF8B7B"/>
<path d="M171.193 118.211L170.097 123.665L174.286 126.058L176.961 119.226L171.193 118.211Z" fill="#FF8B7B"/>
<path d="M227.289 108.898C226.588 114.537 213.794 126.42 213.794 126.42L202.274 117.284C205.17 113.004 208.555 109.075 212.36 105.578C220.707 98.3439 228.135 102.163 227.289 108.898Z" fill="#407BFF"/>
<path opacity="0.5" d="M227.289 108.898C226.588 114.537 213.794 126.42 213.794 126.42L202.274 117.284C205.17 113.004 208.555 109.075 212.36 105.578C220.707 98.3439 228.135 102.163 227.289 108.898Z" fill="black"/>
<path d="M217.307 146.964C228.803 146.964 231.43 133.961 232.034 128.378C230.582 118.936 227.218 109.889 222.149 101.792C222.086 101.693 222.049 101.58 222.04 101.464C222.031 101.347 222.051 101.23 222.098 101.123C222.145 101.015 222.218 100.921 222.309 100.848C222.401 100.775 222.509 100.726 222.624 100.705L225.146 100.237C225.289 100.214 225.436 100.233 225.57 100.291C225.703 100.35 225.816 100.446 225.895 100.568C232.815 111.645 235.079 121.039 235.812 125.873H237.875C239.986 121.281 244.634 110.815 244.255 101.011C244.248 100.906 244.265 100.8 244.304 100.702C244.343 100.604 244.403 100.516 244.48 100.445C244.557 100.373 244.649 100.319 244.75 100.288C244.85 100.256 244.957 100.247 245.061 100.262L247.768 100.527C247.942 100.539 248.106 100.615 248.228 100.74C248.349 100.864 248.421 101.03 248.429 101.204C248.823 110.654 243.482 123.762 241.428 127.927C242.129 143.347 250.708 146.013 250.708 146.013C250.92 149.848 250.75 153.693 250.201 157.494C232.034 160.442 222.979 158.646 217.798 156.503C218.201 152.628 217.476 149.913 217.307 146.964Z" fill="#407BFF"/>
<path opacity="0.3" d="M217.307 146.964C228.803 146.964 231.43 133.961 232.034 128.378C230.582 118.936 227.218 109.889 222.149 101.792C222.086 101.693 222.049 101.58 222.04 101.464C222.031 101.347 222.051 101.23 222.098 101.123C222.145 101.015 222.218 100.921 222.309 100.848C222.401 100.775 222.509 100.726 222.624 100.705L225.146 100.237C225.289 100.214 225.436 100.233 225.57 100.291C225.703 100.35 225.816 100.446 225.895 100.568C232.815 111.645 235.079 121.039 235.812 125.873H237.875C239.986 121.281 244.634 110.815 244.255 101.011C244.248 100.906 244.265 100.8 244.304 100.702C244.343 100.604 244.403 100.516 244.48 100.445C244.557 100.373 244.649 100.319 244.75 100.288C244.85 100.256 244.957 100.247 245.061 100.262L247.768 100.527C247.942 100.539 248.106 100.615 248.228 100.74C248.349 100.864 248.421 101.03 248.429 101.204C248.823 110.654 243.482 123.762 241.428 127.927C242.129 143.347 250.708 146.013 250.708 146.013C250.92 149.848 250.75 153.693 250.201 157.494C232.034 160.442 222.979 158.646 217.798 156.503C218.201 152.628 217.476 149.913 217.307 146.964Z" fill="black"/>
<path d="M217.226 271.279L217.533 278.345H223.454L223.148 271.279H217.226Z" fill="#FF5652"/>
<path d="M269.963 250.729L265.162 254.194L271.002 258.689L275.804 255.225L269.963 250.729Z" fill="#FF5652"/>
<path d="M240.235 81.4731C238.97 87.2092 238.519 90.6331 235.128 93.1467C230.028 96.9332 223.293 93.1467 222.818 87.1609C222.391 81.7631 224.526 73.2879 230.56 71.8539C231.888 71.5466 233.272 71.5813 234.583 71.9548C235.894 72.3283 237.089 73.0284 238.056 73.9895C239.023 74.9506 239.73 76.1413 240.111 77.4502C240.492 78.759 240.535 80.1432 240.235 81.4731Z" fill="#FF8B7B"/>
<path d="M245.351 72.5715C250.386 72.7085 248.316 75.359 245.794 76.8172C245.794 76.8172 248.702 78.211 247.204 81.5382C244.932 86.5895 240.582 92.1403 236.143 91.8342C230.616 91.4555 229.045 85.4455 229.246 79.5161C226.33 76.7689 225.839 75.2543 225.387 71.9512C224.477 65.4014 228.586 61.8002 245.351 72.5715Z" fill="#263238"/>
<path d="M238.866 61.5344C242.313 62.4185 245.268 64.6355 247.081 67.6978C248.893 70.7601 249.416 74.417 248.533 77.8645L222.519 71.2261C222.955 69.5159 223.724 67.9084 224.782 66.4956C225.84 65.0827 227.166 63.8922 228.684 62.9921C230.202 62.092 231.882 61.4999 233.63 61.2498C235.377 60.9997 237.156 61.0964 238.866 61.5344Z" fill="#407BFF"/>
<path opacity="0.5" d="M238.866 61.5344C242.313 62.4185 245.268 64.6355 247.081 67.6978C248.893 70.7601 249.416 74.417 248.533 77.8645L222.519 71.2261C222.955 69.5159 223.724 67.9084 224.782 66.4956C225.84 65.0827 227.166 63.8922 228.684 62.9921C230.202 62.092 231.882 61.4999 233.63 61.2498C235.377 60.9997 237.156 61.0964 238.866 61.5344Z" fill="white"/>
<path d="M244.006 77.8806C243.826 77.8832 243.648 77.844 243.486 77.7659C243.324 77.6879 243.182 77.5733 243.072 77.4311C242.961 77.2889 242.886 77.123 242.851 76.9465C242.816 76.77 242.822 76.5878 242.87 76.4143C243.232 74.9512 243.281 73.4283 243.016 71.9446C242.751 70.4608 242.177 69.0495 241.331 67.8021C239.521 65.0783 236.751 63.1366 233.573 62.3641C233.27 62.2872 233.011 62.0933 232.852 61.8251C232.692 61.557 232.646 61.2364 232.723 60.9341C232.8 60.6318 232.994 60.3724 233.262 60.213C233.53 60.0536 233.85 60.0073 234.153 60.0842C237.903 61.0056 241.168 63.3069 243.297 66.5292C244.322 68.0479 245.016 69.7649 245.335 71.569C245.655 73.3732 245.591 75.2243 245.15 77.0024C245.084 77.255 244.935 77.4784 244.728 77.6374C244.521 77.7964 244.267 77.8819 244.006 77.8806Z" fill="#407BFF"/>
<path opacity="0.3" d="M244.006 77.8806C243.826 77.8832 243.648 77.844 243.486 77.7659C243.324 77.6879 243.182 77.5733 243.072 77.4311C242.961 77.2889 242.886 77.123 242.851 76.9465C242.816 76.77 242.822 76.5878 242.87 76.4143C243.232 74.9512 243.281 73.4283 243.016 71.9446C242.751 70.4608 242.177 69.0495 241.331 67.8021C239.521 65.0783 236.751 63.1366 233.573 62.3641C233.27 62.2872 233.011 62.0933 232.852 61.8251C232.692 61.557 232.646 61.2364 232.723 60.9341C232.8 60.6318 232.994 60.3724 233.262 60.213C233.53 60.0536 233.85 60.0073 234.153 60.0842C237.903 61.0056 241.168 63.3069 243.297 66.5292C244.322 68.0479 245.016 69.7649 245.335 71.569C245.655 73.3732 245.591 75.2243 245.15 77.0024C245.084 77.255 244.935 77.4784 244.728 77.6374C244.521 77.7964 244.267 77.8819 244.006 77.8806Z" fill="white"/>
<path d="M218.918 71.5725L249.532 79.3872C249.851 79.4678 250.188 79.419 250.47 79.2514C250.753 79.0838 250.957 78.811 251.039 78.4929C251.12 78.1735 251.071 77.8352 250.904 77.5515C250.736 77.2678 250.463 77.0618 250.145 76.9783L219.531 69.1637C219.21 69.0831 218.871 69.1328 218.587 69.3019C218.303 69.471 218.098 69.7458 218.016 70.066C217.976 70.2242 217.968 70.3887 217.992 70.55C218.015 70.7114 218.071 70.8664 218.155 71.0064C218.238 71.1463 218.349 71.2683 218.48 71.3655C218.611 71.4626 218.76 71.533 218.918 71.5725Z" fill="#407BFF"/>
<path opacity="0.3" d="M218.918 71.5725L249.532 79.3872C249.851 79.4678 250.188 79.419 250.47 79.2514C250.753 79.0838 250.957 78.811 251.039 78.4929C251.12 78.1735 251.071 77.8352 250.904 77.5515C250.736 77.2678 250.463 77.0618 250.145 76.9783L219.531 69.1637C219.21 69.0831 218.871 69.1328 218.587 69.3019C218.303 69.471 218.098 69.7458 218.016 70.066C217.976 70.2242 217.968 70.3887 217.992 70.55C218.015 70.7114 218.071 70.8664 218.155 71.0064C218.238 71.1463 218.349 71.2683 218.48 71.3655C218.611 71.4626 218.76 71.533 218.918 71.5725Z" fill="white"/>
<path d="M232.268 80.9341C232.117 82.3859 231.488 83.7464 230.479 84.8011C229.142 86.1788 227.82 85.2523 227.651 83.5121C227.498 81.9492 228.014 79.347 229.617 78.622C231.22 77.8969 232.437 79.1859 232.268 80.9341Z" fill="#FF8B7B"/>
<path d="M229.738 153.158C229.738 153.158 229.053 195.277 234.346 211.792C242.733 237.951 268.062 259.139 268.062 259.139L277.117 252.605C277.117 252.605 256.026 234.704 252.159 212.686C248.686 192.892 250.161 169.343 250.161 153.174L229.738 153.158Z" fill="#407BFF"/>
<path opacity="0.3" d="M229.738 153.158C229.738 153.158 229.053 195.277 234.346 211.792C242.733 237.951 268.062 259.139 268.062 259.139L277.117 252.605C277.117 252.605 256.026 234.704 252.159 212.686C248.686 192.892 250.161 169.343 250.161 153.174L229.738 153.158Z" fill="black"/>
<path d="M235.643 160.393C236.763 167.982 232.807 189.113 231.438 196.034C230.004 183.095 229.738 167.748 229.714 159.369C232.614 157.404 235.128 156.896 235.643 160.393Z" fill="#407BFF"/>
<path opacity="0.4" d="M235.643 160.393C236.763 167.982 232.807 189.113 231.438 196.034C230.004 183.095 229.738 167.748 229.714 159.369C232.614 157.404 235.128 156.896 235.643 160.393Z" fill="black"/>
<path d="M264.187 257.231C264.146 257.231 267.909 259.447 267.909 259.447L277.794 252.309L274.507 249.787L264.187 257.231Z" fill="#407BFF"/>
<path opacity="0.4" d="M264.187 257.231C264.146 257.231 267.909 259.447 267.909 259.447L277.794 252.309L274.507 249.787L264.187 257.231Z" fill="white"/>
<path d="M218.507 153.158C218.507 153.158 209.589 190.942 208.961 208.988C208.26 229.234 215.325 276.976 215.325 276.976H225.363C225.363 276.976 226.604 228.863 227.047 210.422C227.53 190.322 239.333 153.158 239.333 153.158H218.507Z" fill="#407BFF"/>
<path opacity="0.3" d="M218.507 153.158C218.507 153.158 209.589 190.942 208.961 208.988C208.26 229.234 215.325 276.976 215.325 276.976H225.363C225.363 276.976 226.604 228.863 227.047 210.422C227.53 190.322 239.333 153.158 239.333 153.158H218.507Z" fill="black"/>
<path d="M213.392 272.981C213.351 272.981 213.964 277.147 213.964 277.147H226.169L226.499 273.433L213.392 272.981Z" fill="#407BFF"/>
<path opacity="0.4" d="M213.392 272.981C213.351 272.981 213.964 277.147 213.964 277.147H226.169L226.499 273.433L213.392 272.981Z" fill="white"/>
</svg>
