<svg width="1099" height="940" viewBox="0 0 1099 940" fill="none" xmlns="http://www.w3.org/2000/svg">
<path d="M551.011 939.65C852.305 939.65 1096.55 932.845 1096.55 924.452C1096.55 916.058 852.305 909.253 551.011 909.253C249.717 909.253 5.47055 916.058 5.47055 924.452C5.47055 932.845 249.717 939.65 551.011 939.65Z" fill="#2E353A"/>
<path d="M827.385 910.599H776.911V1L827.385 59.6901V910.599Z" stroke="#2E353A" stroke-linecap="round" stroke-linejoin="round"/>
<path d="M777.388 696.421H826.908L777.388 648.554H826.908L777.388 696.421Z" stroke="#2E353A" stroke-linecap="round" stroke-linejoin="round"/>
<path d="M777.388 647.349H826.908L777.388 599.482H826.908L777.388 647.349Z" stroke="#2E353A" stroke-linecap="round" stroke-linejoin="round"/>
<path d="M777.388 794.144H826.908L777.388 746.278H826.908L777.388 794.144Z" stroke="#2E353A" stroke-linecap="round" stroke-linejoin="round"/>
<path d="M777.388 745.072H826.908L777.388 697.206H826.908L777.388 745.072Z" stroke="#2E353A" stroke-linecap="round" stroke-linejoin="round"/>
<path d="M777.388 598.277H826.908L777.388 550.41H826.908L777.388 598.277Z" stroke="#2E353A" stroke-linecap="round" stroke-linejoin="round"/>
<path d="M777.388 549.205H826.908L777.388 501.338H826.908L777.388 549.205Z" stroke="#2E353A" stroke-linecap="round" stroke-linejoin="round"/>
<path d="M777.388 500.133H826.908L777.388 452.266H826.908L777.388 500.133Z" stroke="#2E353A" stroke-linecap="round" stroke-linejoin="round"/>
<path d="M777.388 451.061H826.908L777.388 403.194H826.908L777.388 451.061Z" stroke="#2E353A" stroke-linecap="round" stroke-linejoin="round"/>
<path d="M777.388 401.989H826.908L777.388 354.122H826.908L777.388 401.989Z" stroke="#2E353A" stroke-linecap="round" stroke-linejoin="round"/>
<path d="M777.388 352.917H826.908L777.388 305.05H826.908L777.388 352.917Z" stroke="#2E353A" stroke-linecap="round" stroke-linejoin="round"/>
<path d="M777.388 303.845H826.908L777.388 255.978H826.908L777.388 303.845Z" stroke="#2E353A" stroke-linecap="round" stroke-linejoin="round"/>
<path d="M777.388 254.773H826.908L777.388 206.906H826.908L777.388 254.773Z" stroke="#2E353A" stroke-linecap="round" stroke-linejoin="round"/>
<path d="M777.388 205.701H826.908L777.388 157.834H826.908L777.388 205.701Z" stroke="#2E353A" stroke-linecap="round" stroke-linejoin="round"/>
<path d="M777.388 156.628H826.908L777.388 108.762H826.908L777.388 156.628Z" stroke="#2E353A" stroke-linecap="round" stroke-linejoin="round"/>
<path d="M777.388 107.556H826.908L777.388 59.6902H826.908L777.388 107.556Z" stroke="#2E353A" stroke-linecap="round" stroke-linejoin="round"/>
<path d="M1061.7 108.874L1037.25 93.4797H862.773L841.462 108.874H1061.7Z" stroke="#2E353A" stroke-linecap="round" stroke-linejoin="round"/>
<path d="M1065.73 107.556H639.509V118.773H1065.73V107.556Z" fill="#2E353A" stroke="#2E353A" stroke-linecap="round" stroke-linejoin="round"/>
<path d="M1037.25 93.4797L776.911 1L862.773 93.4797" stroke="#2E353A" stroke-linecap="round" stroke-linejoin="round"/>
<path d="M776.911 1L639.509 107.556" stroke="#2E353A" stroke-linecap="round" stroke-linejoin="round"/>
<path d="M863.839 131.391H758.684V198.69H863.839V131.391Z" fill="#2E353A" stroke="#2E353A" stroke-linecap="round" stroke-linejoin="round"/>
<path d="M863.839 844.646H758.684V911.945H863.839V844.646Z" fill="#2E353A" stroke="#2E353A" stroke-linecap="round" stroke-linejoin="round"/>
<path d="M841.91 145.412H780.584V165.041H841.91V145.412Z" fill="white" stroke="#2E353A" stroke-linecap="round" stroke-linejoin="round"/>
<path d="M1065.73 118.773V239.686" stroke="#2E353A" stroke-linecap="round" stroke-linejoin="round"/>
<path d="M1081.75 280.963H1050.59V316.267H1081.75V280.963Z" fill="#2E353A" stroke="#2E353A" stroke-linecap="round" stroke-linejoin="round"/>
<path d="M1050.59 280.963L1066.16 237.387L1081.75 280.963" stroke="#2E353A" stroke-linecap="round" stroke-linejoin="round"/>
<path d="M650.501 836.066V773.702H466.692V836.122C466.661 856.495 459.743 876.259 447.063 892.204L439.015 902.355H678.066L669.99 892.204C657.357 876.22 650.491 856.439 650.501 836.066Z" fill="white" stroke="#2E353A" stroke-width="1.09543" stroke-linecap="round" stroke-linejoin="round"/>
<g style="mix-blend-mode:multiply">
<path d="M455.391 879.782H661.802C654.421 866.395 650.561 851.353 650.586 836.066V773.702H466.692V836.122C466.681 851.397 462.793 866.42 455.391 879.782Z" fill="#0072EF"/>
</g>
<path d="M650.501 783.04H466.692V809.399H650.501V783.04Z" fill="#2E353A" stroke="#2E353A" stroke-width="1.09543" stroke-linecap="round" stroke-linejoin="round"/>
<path d="M901.946 239.238H215.246C200.859 239.238 189.196 250.901 189.196 265.288V767.281C189.196 781.668 200.859 793.331 215.246 793.331H901.946C916.334 793.331 927.997 781.668 927.997 767.281V265.288C927.997 250.901 916.334 239.238 901.946 239.238Z" fill="#2E353A" stroke="#2E353A" stroke-width="1.09543" stroke-linecap="round" stroke-linejoin="round"/>
<path d="M189.196 707.217H927.997V767.281C927.997 774.19 925.252 780.816 920.367 785.701C915.481 790.586 908.855 793.331 901.946 793.331H215.387C208.478 793.331 201.852 790.586 196.966 785.701C192.081 780.816 189.336 774.19 189.336 767.281V707.217H189.196Z" fill="white" stroke="#2E353A" stroke-width="1.09543" stroke-linecap="round" stroke-linejoin="round"/>
<path d="M890.814 273.728H226.351V665.183H890.814V273.728Z" fill="#0072EF" stroke="#2E353A" stroke-width="1.09543" stroke-linecap="round" stroke-linejoin="round"/>
<path d="M572.21 750.288C572.216 747.591 571.421 744.954 569.927 742.709C568.433 740.464 566.307 738.713 563.817 737.677C561.327 736.642 558.586 736.368 555.941 736.89C553.296 737.413 550.865 738.709 548.956 740.613C547.047 742.518 545.747 744.946 545.218 747.591C544.69 750.235 544.959 752.977 545.989 755.469C547.02 757.96 548.766 760.09 551.008 761.589C553.25 763.088 555.886 763.888 558.582 763.888C560.371 763.892 562.142 763.543 563.796 762.861C565.449 762.179 566.951 761.178 568.217 759.914C569.483 758.651 570.487 757.151 571.173 755.499C571.858 753.847 572.21 752.076 572.21 750.288Z" fill="#2E353A" stroke="#2E353A" stroke-width="1.09543" stroke-linecap="round" stroke-linejoin="round"/>
<path d="M678.122 902.327H439.099V913.459H678.122V902.327Z" fill="white" stroke="#2E353A" stroke-width="1.09543" stroke-linecap="round" stroke-linejoin="round"/>
<path d="M774.836 371.816C782.534 364.105 788.22 354.619 791.394 344.195C794.567 333.77 795.13 322.726 793.035 312.033L751.337 353.73C748.968 356.086 745.762 357.409 742.42 357.409C739.079 357.409 735.873 356.086 733.503 353.73L698.844 319.071C697.67 317.899 696.738 316.507 696.103 314.974C695.467 313.442 695.14 311.799 695.14 310.14C695.14 308.481 695.467 306.838 696.103 305.305C696.738 303.773 697.67 302.381 698.844 301.209L740.514 259.54C728.836 257.259 716.76 258.154 705.545 262.132C694.331 266.109 684.39 273.023 676.759 282.152C669.128 291.282 664.087 302.291 662.161 314.033C660.235 325.775 661.496 337.818 665.812 348.907L558.218 454.033L547.843 443.63L564.667 426.805C565.527 425.929 566.009 424.751 566.009 423.524C566.009 422.297 565.527 421.119 564.667 420.243L551.544 407.12C550.677 406.255 549.502 405.77 548.277 405.77C547.053 405.77 545.878 406.255 545.011 407.12L538.449 413.682L524.232 399.493L529.7 394.025C530.858 392.863 531.508 391.29 531.508 389.651C531.508 388.011 530.858 386.438 529.7 385.276L412.292 267.868C409.495 265.066 406.173 262.844 402.516 261.328C398.859 259.812 394.939 259.031 390.98 259.031C387.022 259.031 383.102 259.812 379.445 261.328C375.788 262.844 372.466 265.066 369.669 267.868L357.668 279.869C354.867 282.664 352.645 285.984 351.129 289.638C349.613 293.293 348.833 297.21 348.833 301.167C348.833 305.123 349.613 309.041 351.129 312.695C352.645 316.35 354.867 319.669 357.668 322.464L475.076 439.9C476.237 441.058 477.81 441.708 479.45 441.708C481.09 441.708 482.663 441.058 483.825 439.9L489.293 434.432L503.482 448.649L496.948 455.183C496.516 455.613 496.172 456.124 495.938 456.687C495.704 457.25 495.584 457.854 495.584 458.464C495.584 459.073 495.704 459.677 495.938 460.24C496.172 460.803 496.516 461.314 496.948 461.744L510.043 474.868C510.919 475.727 512.097 476.209 513.324 476.209C514.551 476.209 515.729 475.727 516.605 474.868L533.43 458.043L543.637 468.25L454.41 555.178C443.32 550.865 431.276 549.606 419.534 551.532C407.793 553.459 396.783 558.499 387.652 566.129C378.521 573.759 371.605 583.698 367.623 594.911C363.641 606.124 362.741 618.2 365.014 629.879L406.712 588.21C407.884 587.036 409.276 586.104 410.808 585.468C412.341 584.833 413.984 584.506 415.643 584.506C417.302 584.506 418.945 584.833 420.477 585.468C422.01 586.104 423.402 587.036 424.574 588.21L459.345 622.645C460.519 623.817 461.451 625.209 462.086 626.741C462.722 628.274 463.049 629.917 463.049 631.576C463.049 633.235 462.722 634.878 462.086 636.41C461.451 637.943 460.519 639.335 459.345 640.507L417.676 682.176C429.354 684.453 441.429 683.556 452.643 679.578C463.856 675.6 473.797 668.687 481.43 659.559C489.062 650.432 494.107 639.424 496.037 627.684C497.968 615.943 496.713 603.9 492.405 592.809L581.632 505.881L703.303 627.412C701.555 631.918 701.154 636.835 702.15 641.564C703.145 646.294 705.495 650.632 708.911 654.051L738.27 683.41L773.49 648.162L744.131 618.831C740.712 615.414 736.374 613.065 731.644 612.07C726.915 611.074 721.998 611.474 717.492 613.223L596.017 491.748L703.724 386.734C715.747 391.412 728.871 392.492 741.497 389.844C754.123 387.195 765.706 380.932 774.836 371.816Z" fill="#2E353A" stroke="#2E353A" stroke-width="1.09543" stroke-linecap="round" stroke-linejoin="round"/>
<path d="M485.002 577.863L696.237 371.788C707.333 376.111 719.386 377.373 731.137 375.445C742.888 373.516 753.905 368.467 763.037 360.825C772.169 353.182 779.082 343.228 783.051 332.001C787.021 320.774 787.903 308.687 785.604 297.003L743.935 338.672C742.763 339.846 741.37 340.778 739.838 341.413C738.305 342.049 736.663 342.376 735.003 342.376C733.344 342.376 731.702 342.049 730.169 341.413C728.637 340.778 727.244 339.846 726.072 338.672L691.414 304.013C690.24 302.843 689.309 301.453 688.674 299.923C688.038 298.393 687.712 296.753 687.712 295.096C687.712 293.439 688.038 291.798 688.674 290.268C689.309 288.738 690.24 287.348 691.414 286.179L733.083 244.481C721.399 242.204 709.318 243.106 698.102 247.092C686.885 251.078 676.944 258.002 669.318 267.142C661.691 276.281 656.658 287.301 654.744 299.049C652.83 310.798 654.105 322.845 658.437 333.933L447.203 540.007C436.115 535.692 424.071 534.431 412.33 536.356C400.588 538.282 389.578 543.323 380.449 550.954C371.319 558.585 364.405 568.527 360.428 579.741C356.45 590.955 355.555 603.031 357.836 614.709L399.505 573.04C400.677 571.865 402.069 570.934 403.602 570.298C405.134 569.663 406.777 569.335 408.436 569.335C410.095 569.335 411.738 569.663 413.271 570.298C414.803 570.934 416.195 571.865 417.367 573.04L452.026 607.699C453.2 608.868 454.131 610.258 454.766 611.788C455.401 613.318 455.728 614.959 455.728 616.616C455.728 618.273 455.401 619.913 454.766 621.443C454.131 622.973 453.2 624.363 452.026 625.533L410.273 667.146C421.951 669.423 434.026 668.526 445.24 664.548C456.453 660.57 466.394 653.657 474.027 644.529C481.659 635.402 486.704 624.394 488.634 612.653C490.565 600.913 489.311 588.87 485.002 577.779V577.863Z" fill="white" stroke="#2E353A" stroke-miterlimit="10"/>
<path d="M468.739 556.243C467.124 554.624 466.217 552.431 466.217 550.144C466.217 547.858 467.124 545.664 468.739 544.045L658.661 359.282C660.285 357.666 662.483 356.758 664.774 356.758C667.066 356.758 669.264 357.666 670.887 359.282C672.504 360.906 673.411 363.104 673.411 365.395C673.411 367.686 672.504 369.884 670.887 371.508L480.965 556.243C479.341 557.86 477.143 558.767 474.852 558.767C472.56 558.767 470.362 557.86 468.739 556.243Z" fill="white" stroke="#2E353A" stroke-miterlimit="10"/>
<path d="M525.066 413.245L510.869 427.442L715.713 632.286L729.91 618.09L525.066 413.245Z" fill="white" stroke="#2E353A" stroke-miterlimit="10"/>
<path d="M766.059 633.216L730.839 668.436L701.48 639.105C696.807 634.43 694.182 628.091 694.182 621.481C694.182 614.871 696.807 608.532 701.48 603.857C703.793 601.544 706.538 599.709 709.559 598.457C712.581 597.206 715.82 596.561 719.09 596.561C722.361 596.561 725.599 597.206 728.621 598.457C731.642 599.709 734.388 601.544 736.7 603.857L766.059 633.216Z" fill="white" stroke="#2E353A" stroke-miterlimit="10"/>
<path d="M505.958 373.382L471.001 408.339L499.394 436.733L534.351 401.776L505.958 373.382Z" fill="white" stroke="#2E353A" stroke-miterlimit="10"/>
<path d="M350.301 264.693L362.317 252.678C365.114 249.881 368.434 247.663 372.087 246.149C375.741 244.636 379.658 243.857 383.612 243.857C387.567 243.857 391.484 244.636 395.137 246.149C398.791 247.663 402.111 249.881 404.908 252.678L522.33 370.1C523.487 371.256 524.137 372.826 524.137 374.462C524.137 376.098 523.487 377.667 522.33 378.824L476.448 424.706C475.291 425.863 473.722 426.513 472.085 426.513C470.449 426.513 468.88 425.863 467.723 424.706L350.301 307.284C344.653 301.636 341.48 293.976 341.48 285.989C341.48 278.001 344.653 270.341 350.301 264.693Z" fill="white" stroke="#2E353A" stroke-miterlimit="10"/>
<path d="M537.62 391.971L489.557 440.035C487.75 441.841 487.75 444.771 489.557 446.578L502.683 459.704C504.49 461.511 507.419 461.511 509.226 459.704L557.289 411.641C559.096 409.834 559.096 406.904 557.289 405.097L544.163 391.971C542.356 390.164 539.427 390.164 537.62 391.971Z" fill="white" stroke="#2E353A" stroke-miterlimit="10"/>
<path d="M483.012 407.26L473.365 416.935L358.06 301.629C356.778 300.346 356.057 298.606 356.057 296.792C356.057 294.978 356.778 293.238 358.06 291.955C358.694 291.317 359.447 290.81 360.277 290.464C361.107 290.118 361.998 289.94 362.897 289.94C363.797 289.94 364.687 290.118 365.517 290.464C366.347 290.81 367.101 291.317 367.734 291.955L483.012 407.26Z" fill="white" stroke="#2E353A" stroke-miterlimit="10"/>
<path d="M499.472 390.8L489.77 400.474L374.464 285.169C373.182 283.886 372.461 282.146 372.461 280.332C372.461 278.518 373.182 276.778 374.464 275.495C375.098 274.857 375.851 274.35 376.681 274.004C377.512 273.658 378.402 273.48 379.301 273.48C380.201 273.48 381.091 273.658 381.921 274.004C382.751 274.35 383.505 274.857 384.138 275.495L499.472 390.8Z" fill="white" stroke="#2E353A" stroke-miterlimit="10"/>
<path d="M515.932 374.34L506.23 383.93L390.924 268.709C389.642 267.426 388.921 265.686 388.921 263.872C388.921 262.058 389.642 260.318 390.924 259.035C391.558 258.396 392.311 257.89 393.142 257.544C393.972 257.198 394.862 257.02 395.761 257.02C396.661 257.02 397.551 257.198 398.381 257.544C399.212 257.89 399.965 258.396 400.599 259.035L515.932 374.34Z" fill="white" stroke="#2E353A" stroke-miterlimit="10"/>
<path d="M901.89 916.909H892.553L832.18 421.533H841.546L901.89 916.909Z" fill="white" stroke="#2E353A" stroke-miterlimit="10"/>
<path d="M974.797 916.909H965.46L905.087 421.533H914.453L974.797 916.909Z" fill="white" stroke="#2E353A" stroke-miterlimit="10"/>
<path d="M915.042 462.586H842.163L840.284 447.303H913.191L915.042 462.586Z" fill="white" stroke="#2E353A" stroke-miterlimit="10"/>
<path d="M921.912 519.004H849.033L847.182 503.722H920.061L921.912 519.004Z" fill="white" stroke="#2E353A" stroke-miterlimit="10"/>
<path d="M928.81 575.423H855.903L854.052 560.141H926.931L928.81 575.423Z" fill="white" stroke="#2E353A" stroke-miterlimit="10"/>
<path d="M935.68 631.87H862.801L860.922 616.588H933.801L935.68 631.87Z" fill="white" stroke="#2E353A" stroke-miterlimit="10"/>
<path d="M942.55 688.289H869.671L867.792 673.006H940.671L942.55 688.289Z" fill="white" stroke="#2E353A" stroke-miterlimit="10"/>
<path d="M949.42 744.708H876.541L874.69 729.425H947.569L949.42 744.708Z" fill="white" stroke="#2E353A" stroke-miterlimit="10"/>
<path d="M956.29 801.155H883.411L881.561 785.872H954.439L956.29 801.155Z" fill="white" stroke="#2E353A" stroke-miterlimit="10"/>
<path d="M963.188 857.573H890.281L888.431 842.291H961.31L963.188 857.573Z" fill="white" stroke="#2E353A" stroke-miterlimit="10"/>
<path d="M841.041 453.304H850.575" stroke="#2E353A" stroke-width="0.5" stroke-miterlimit="10"/>
<path d="M843.284 457.791H861.791" stroke="#2E353A" stroke-width="0.5" stroke-miterlimit="10"/>
<path d="M913.92 457.791H900.46" stroke="#2E353A" stroke-width="0.5" stroke-miterlimit="10"/>
<path d="M920.65 512.162H908.312" stroke="#2E353A" stroke-width="0.5" stroke-miterlimit="10"/>
<path d="M850.014 514.967H878.616" stroke="#2E353A" stroke-width="0.5" stroke-miterlimit="10"/>
<path d="M855.062 567.656H879.738" stroke="#2E353A" stroke-width="0.5" stroke-miterlimit="10"/>
<path d="M856.183 572.142H869.643" stroke="#2E353A" stroke-width="0.5" stroke-miterlimit="10"/>
<path d="M935.203 623.149H920.089" stroke="#2E353A" stroke-width="0.5" stroke-miterlimit="10"/>
<path d="M934.11 627.636H908.873" stroke="#2E353A" stroke-width="0.5" stroke-miterlimit="10"/>
<path d="M956.066 795.406H932.932" stroke="#2E353A" stroke-width="0.5" stroke-miterlimit="10"/>
<path d="M882.458 791.2H896.478" stroke="#2E353A" stroke-width="0.5" stroke-miterlimit="10"/>
<path d="M929.427 795.406H911.2" stroke="#2E353A" stroke-width="0.5" stroke-miterlimit="10"/>
<path d="M889.468 849.385H909.097" stroke="#2E353A" stroke-width="0.5" stroke-miterlimit="10"/>
<path d="M893.674 854.292H916.107" stroke="#2E353A" stroke-width="0.5" stroke-miterlimit="10"/>
<path d="M871.241 683.241H877.551" stroke="#2E353A" stroke-width="0.5" stroke-miterlimit="10"/>
<path d="M939.942 681.839H916.808" stroke="#2E353A" stroke-width="0.5" stroke-miterlimit="10"/>
<path d="M355.508 620.71L344.404 635.179L102.858 446.602L113.99 432.133L355.508 620.71Z" fill="#2E353A" stroke="#2E353A" stroke-width="1.09543" stroke-linecap="round" stroke-linejoin="round"/>
<path d="M102.858 620.71L113.99 635.179L355.508 446.602L344.404 432.133L102.858 620.71Z" fill="#2E353A" stroke="#2E353A" stroke-width="1.09543" stroke-linecap="round" stroke-linejoin="round"/>
<path d="M355.508 832.533L348.638 851.18L102.858 658.425L109.896 639.609L355.508 832.533Z" fill="#2E353A" stroke="#2E353A" stroke-width="1.09543" stroke-linecap="round" stroke-linejoin="round"/>
<path d="M102.858 832.533L104.54 854.405L355.508 658.425L344.404 643.984L102.858 832.533Z" fill="#2E353A" stroke="#2E353A" stroke-width="1.09543" stroke-linecap="round" stroke-linejoin="round"/>
<path d="M108.55 430.142H98.7355V916.936H108.55V430.142Z" fill="#2E353A" stroke="#2E353A" stroke-width="1.09543" stroke-linecap="round" stroke-linejoin="round"/>
<path d="M356.854 430.142H347.04V916.936H356.854V430.142Z" fill="#2E353A" stroke="#2E353A" stroke-width="1.09543" stroke-linecap="round" stroke-linejoin="round"/>
<path d="M308.259 620.71L297.127 635.179L55.6081 446.602L66.7124 432.133L308.259 620.71Z" fill="white" stroke="#2E353A" stroke-width="1.09543" stroke-linecap="round" stroke-linejoin="round"/>
<path d="M55.6081 620.71L66.7124 635.179L308.259 446.602L297.127 432.133L55.6081 620.71Z" fill="white" stroke="#2E353A" stroke-width="1.09543" stroke-linecap="round" stroke-linejoin="round"/>
<path d="M308.259 832.533L301.361 851.18L55.6081 658.425L59.1413 639.609L308.259 832.533Z" fill="white" stroke="#2E353A" stroke-width="1.09543" stroke-linecap="round" stroke-linejoin="round"/>
<path d="M55.6081 832.533L57.2906 854.405L308.259 658.425L297.127 643.984L55.6081 832.533Z" fill="white" stroke="#2E353A" stroke-width="1.09543" stroke-linecap="round" stroke-linejoin="round"/>
<path d="M61.2725 430.142H51.4581V916.936H61.2725V430.142Z" fill="white" stroke="#2E353A" stroke-width="1.09543" stroke-linecap="round" stroke-linejoin="round"/>
<path d="M309.577 430.142H299.763V916.936H309.577V430.142Z" fill="white" stroke="#2E353A" stroke-width="1.09543" stroke-linecap="round" stroke-linejoin="round"/>
<path d="M322.224 425.627H38.8395V441.05H322.224V425.627Z" fill="white" stroke="#2E353A" stroke-width="1.09543" stroke-linecap="round" stroke-linejoin="round"/>
<path d="M365.884 425.627H287.228V441.05H365.884V425.627Z" fill="#2E353A" stroke="#2E353A" stroke-width="1.09543" stroke-linecap="round" stroke-linejoin="round"/>
<path d="M322.224 627.636H38.8395V643.058H322.224V627.636Z" fill="white" stroke="#2E353A" stroke-width="1.09543" stroke-linecap="round" stroke-linejoin="round"/>
<path d="M365.884 627.636H287.228V643.058H365.884V627.636Z" fill="#2E353A" stroke="#2E353A" stroke-width="1.09543" stroke-linecap="round" stroke-linejoin="round"/>
<path d="M675.346 916.909H653.165L682.749 743.586H704.957L675.346 916.909Z" fill="#2E353A" stroke="#2E353A" stroke-width="0.972732" stroke-miterlimit="10"/>
<path d="M719.735 916.909H741.944L712.332 743.586H690.152L719.735 916.909Z" fill="white" stroke="#2E353A" stroke-width="0.972732" stroke-miterlimit="10"/>
<path d="M990.304 916.909H968.124L997.707 743.586H1019.89L990.304 916.909Z" fill="#2E353A" stroke="#2E353A" stroke-width="0.972732" stroke-miterlimit="10"/>
<path d="M1034.69 916.909H1056.9L1027.29 743.586H1005.11L1034.69 916.909Z" fill="white" stroke="#2E353A" stroke-width="0.972732" stroke-miterlimit="10"/>
<path d="M1050.23 693.477H626.891V752.279H1050.23V693.477Z" fill="#0072EF" stroke="#2E353A" stroke-width="0.972732" stroke-miterlimit="10"/>
<path d="M1060.55 693.477H637.21V752.279H1060.55V693.477Z" fill="#0072EF" stroke="#2E353A" stroke-width="0.972732" stroke-miterlimit="10"/>
<path d="M644.136 752.279H680.057L698.62 693.477H662.699L644.136 752.279Z" fill="#2E353A"/>
<path d="M786.361 693.477H750.412L731.849 752.279H767.797L786.361 693.477Z" fill="#2E353A"/>
<path d="M1049.53 693.477H1013.58L995.015 752.279H1030.96L1049.53 693.477Z" fill="#2E353A"/>
<path d="M961.786 693.477H925.866L907.302 752.279H943.223L961.786 693.477Z" fill="#2E353A"/>
<path d="M874.074 693.477H838.125L819.562 752.279H855.51L874.074 693.477Z" fill="#2E353A"/>
<path d="M1058.22 719.583H988.173" stroke="#2E353A" stroke-miterlimit="10"/>
<path d="M1056.99 729.397H1045.94" stroke="#2E353A" stroke-miterlimit="10"/>
<path d="M635.415 726.958H705.462" stroke="#2E353A" stroke-miterlimit="10"/>
<path d="M636.621 715.881H725.119" stroke="#2E353A" stroke-miterlimit="10"/>
</svg>
