<svg width="60" height="60" viewBox="0 0 60 60" fill="none" xmlns="http://www.w3.org/2000/svg">
<rect y="-0.5" width="60" height="60" rx="8" fill="#F90005"/>
<path d="M46.625 38.5V36.125H44.1301C43.9769 35.3817 43.6818 34.6748 43.2608 34.0433L45.0302 32.2739L43.3511 30.5948L41.5817 32.3642C40.9502 31.9432 40.2434 31.6481 39.5 31.4949V29H37.125V31.4949C36.3817 31.6481 35.6748 31.9432 35.0433 32.3642L33.2739 30.5948L31.5948 32.2739L33.3642 34.0433C32.9432 34.6748 32.6481 35.3817 32.4949 36.125H30V38.5H32.4949C32.6481 39.2434 32.9432 39.9502 33.3642 40.5817L31.5948 42.3511L33.2739 44.0302L35.0433 42.2608C35.6748 42.6818 36.3817 42.9769 37.125 43.1301V45.625H39.5V43.1301C40.2434 42.9769 40.9502 42.6818 41.5817 42.2608L43.3511 44.0302L45.0302 42.3511L43.2608 40.5817C43.6818 39.9502 43.9769 39.2434 44.1301 38.5H46.625ZM38.3125 40.875C37.6079 40.875 36.9191 40.6661 36.3333 40.2746C35.7474 39.8832 35.2908 39.3268 35.0212 38.6758C34.7515 38.0248 34.681 37.3085 34.8185 36.6175C34.9559 35.9264 35.2952 35.2917 35.7934 34.7934C36.2917 34.2952 36.9264 33.9559 37.6175 33.8185C38.3085 33.681 39.0248 33.7515 39.6758 34.0212C40.3268 34.2908 40.8832 34.7474 41.2746 35.3333C41.6661 35.9191 41.875 36.6079 41.875 37.3125C41.8741 38.257 41.4984 39.1626 40.8305 39.8305C40.1626 40.4984 39.257 40.8741 38.3125 40.875Z" fill="white"/>
<path d="M44.25 14.75H15.75C15.1203 14.7506 14.5166 15.0011 14.0713 15.4463C13.6261 15.8916 13.3756 16.4953 13.375 17.125V40.875C13.3756 41.5047 13.6261 42.1084 14.0713 42.5537C14.5166 42.9989 15.1203 43.2494 15.75 43.25H27.625V40.875H15.75V24.25H44.25V27.8125H46.625V17.125C46.6244 16.4953 46.3739 15.8916 45.9287 15.4463C45.4834 15.0011 44.8797 14.7506 44.25 14.75ZM44.25 21.875H15.75V17.125H44.25V21.875Z" fill="white"/>
<path d="M34.75 20.6875C35.4058 20.6875 35.9375 20.1558 35.9375 19.5C35.9375 18.8442 35.4058 18.3125 34.75 18.3125C34.0942 18.3125 33.5625 18.8442 33.5625 19.5C33.5625 20.1558 34.0942 20.6875 34.75 20.6875Z" fill="white"/>
<path d="M38.3125 20.6875C38.9683 20.6875 39.5 20.1558 39.5 19.5C39.5 18.8442 38.9683 18.3125 38.3125 18.3125C37.6567 18.3125 37.125 18.8442 37.125 19.5C37.125 20.1558 37.6567 20.6875 38.3125 20.6875Z" fill="white"/>
<path d="M41.875 20.6875C42.5308 20.6875 43.0625 20.1558 43.0625 19.5C43.0625 18.8442 42.5308 18.3125 41.875 18.3125C41.2192 18.3125 40.6875 18.8442 40.6875 19.5C40.6875 20.1558 41.2192 20.6875 41.875 20.6875Z" fill="white"/>
</svg>
