<svg width="33" height="20" viewBox="0 0 33 20" fill="none" xmlns="http://www.w3.org/2000/svg">
<path d="M20.8213 17.8537H12.1719V2.15039H20.8215L20.8213 17.8537Z" fill="#FF5F00"/>
<path d="M12.7257 10.0007C12.7257 6.81524 14.2021 3.97765 16.5011 2.14898C14.7609 0.762738 12.6085 0.0103747 10.3923 0.0136827C4.93312 0.0136827 0.507812 4.48494 0.507812 10.0007C0.507812 15.5164 4.93312 19.9876 10.3923 19.9876C12.6085 19.991 14.761 19.2386 16.5013 17.8523C14.2024 16.024 12.7257 13.1862 12.7257 10.0007Z" fill="#EB001B"/>
<path d="M32.4942 10.0007C32.4942 15.5164 28.0689 19.9876 22.6097 19.9876C20.3933 19.9909 18.2406 19.2386 16.5 17.8523C18.7997 16.0237 20.276 13.1862 20.276 10.0007C20.276 6.81508 18.7997 3.97765 16.5 2.14898C18.2406 0.762779 20.3932 0.0104327 22.6096 0.0136824C28.0688 0.0136824 32.4941 4.48494 32.4941 10.0007" fill="#F79E1B"/>
</svg>
