<svg width="123" height="27" viewBox="0 0 123 27" fill="none" xmlns="http://www.w3.org/2000/svg">
<g clip-path="url(#clip0)">
<path d="M43.5636 15.4748L42.8364 17.5306H42.7758C42.6546 17.0671 42.4324 16.3616 42.0689 15.5151L38.1705 5.73993H34.353V21.3198H36.8778V11.7058C36.8778 11.1012 36.8778 10.4159 36.8576 9.56939C36.8374 9.14613 36.797 8.82365 36.7768 8.58179H36.8374C36.9586 9.18644 37.1 9.62985 37.201 9.91202L41.8871 21.2795H43.6646L48.3102 9.81125C48.4112 9.54923 48.5122 9.0252 48.6132 8.58179H48.6738C48.6132 9.73063 48.5728 10.7585 48.5526 11.3833V21.2593H51.2391V5.69962H47.5629L43.5636 15.4748ZM53.7841 10.0934H56.4099V21.2593H53.7841V10.0934ZM55.1172 5.37714C54.6728 5.37714 54.3093 5.53838 54.0063 5.82055C53.7033 6.10272 53.5417 6.46551 53.5417 6.90892C53.5417 7.33218 53.7033 7.69497 54.0063 7.97714C54.3093 8.25931 54.6728 8.40039 55.1172 8.40039C55.5616 8.40039 55.9453 8.23915 56.2281 7.97714C56.5311 7.69497 56.6927 7.33218 56.6927 6.90892C56.6927 6.48566 56.5311 6.12287 56.2281 5.82055C55.9655 5.53838 55.5818 5.37714 55.1172 5.37714ZM65.7215 9.99264C65.2367 9.89187 64.7318 9.8314 64.247 9.8314C63.0553 9.8314 61.9645 10.0934 61.0556 10.6174C60.1467 11.1415 59.4195 11.8671 58.9549 12.774C58.4702 13.7012 58.2278 14.7694 58.2278 15.9988C58.2278 17.0671 58.4702 18.0143 58.9347 18.881C59.3993 19.7275 60.0457 20.4128 60.9142 20.8764C61.7424 21.3399 62.7119 21.5818 63.8026 21.5818C65.0549 21.5818 66.1255 21.3198 66.9738 20.8361L66.994 20.8159V18.3973L66.893 18.4779C66.5093 18.7601 66.0649 19.0019 65.6205 19.143C65.1559 19.3043 64.7318 19.3849 64.3682 19.3849C63.3179 19.3849 62.4897 19.0826 61.904 18.4174C61.298 17.7725 60.995 16.8857 60.995 15.7771C60.995 14.6283 61.298 13.7213 61.9242 13.0562C62.5503 12.3911 63.3785 12.0485 64.3884 12.0485C65.2367 12.0485 66.1053 12.3306 66.893 12.895L66.994 12.9756V10.4159L66.9738 10.3957C66.6304 10.2547 66.2467 10.0934 65.7215 9.99264ZM74.3867 9.91202C73.7404 9.91202 73.1344 10.1136 72.6093 10.5368C72.1649 10.8996 71.8619 11.4236 71.5993 12.0485H71.5791V10.0934H68.9533V21.2593H71.5791V15.5554C71.5791 14.588 71.7811 13.7818 72.2255 13.1973C72.6698 12.5926 73.2354 12.2903 73.9222 12.2903C74.1646 12.2903 74.4069 12.3508 74.7099 12.3911C74.9927 12.4717 75.1947 12.5523 75.3361 12.6531L75.4371 12.7337V10.1136L75.3765 10.0934C75.1947 9.97249 74.8311 9.91202 74.3867 9.91202ZM81.5371 9.85156C79.699 9.85156 78.2245 10.3957 77.1944 11.464C76.144 12.5322 75.6391 14.0035 75.6391 15.8578C75.6391 17.5911 76.1642 19.0019 77.1742 20.0299C78.1841 21.0376 79.5576 21.5616 81.2745 21.5616C83.0722 21.5616 84.5063 21.0174 85.5364 19.9291C86.5867 18.8407 87.0917 17.3895 87.0917 15.5957C87.0917 13.8221 86.6069 12.4112 85.6172 11.3833C84.6679 10.3554 83.2742 9.85156 81.5371 9.85156ZM83.6377 18.4376C83.153 19.0624 82.3854 19.3647 81.4361 19.3647C80.4867 19.3647 79.7192 19.0624 79.1738 18.3973C78.6285 17.7725 78.3659 16.8655 78.3659 15.7167C78.3659 14.5275 78.6487 13.6205 79.1738 12.9756C79.7192 12.3306 80.4665 12.0081 81.4159 12.0081C82.345 12.0081 83.0722 12.3105 83.5973 12.9353C84.1225 13.5601 84.4053 14.4671 84.4053 15.6562C84.3649 16.8655 84.1427 17.8128 83.6377 18.4376ZM92.9493 14.7291C92.1212 14.3864 91.596 14.1244 91.3536 13.9027C91.1516 13.7012 91.0506 13.419 91.0506 13.0562C91.0506 12.7539 91.1718 12.4516 91.4748 12.25C91.7778 12.0485 92.1212 11.9477 92.6261 11.9477C93.0705 11.9477 93.5351 12.0283 93.9794 12.1492C94.4238 12.2702 94.8278 12.4516 95.151 12.6934L95.252 12.774V10.3151L95.1914 10.295C94.8884 10.174 94.4844 10.0531 93.9996 9.95233C93.5149 9.87171 93.0705 9.8314 92.7069 9.8314C91.4546 9.8314 90.4245 10.1337 89.6165 10.7988C88.8086 11.4236 88.4248 12.2702 88.4248 13.2578C88.4248 13.7818 88.5056 14.2454 88.6874 14.6283C88.8692 15.0112 89.1318 15.374 89.4953 15.6764C89.8589 15.9585 90.3841 16.281 91.1112 16.5833C91.7172 16.8454 92.1818 17.0469 92.4645 17.2081C92.7473 17.3694 92.9291 17.5508 93.0705 17.6919C93.1715 17.8531 93.2321 18.0547 93.2321 18.3167C93.2321 19.0624 92.6665 19.4252 91.5152 19.4252C91.0708 19.4252 90.6063 19.3446 90.0609 19.1632C89.5155 18.9818 89.0106 18.7198 88.5864 18.4174L88.4854 18.3368V20.8965L88.546 20.9167C88.9298 21.0981 89.3943 21.219 89.9599 21.3601C90.5255 21.4609 91.0304 21.5415 91.4748 21.5415C92.8281 21.5415 93.939 21.2392 94.7268 20.574C95.5347 19.9291 95.9589 19.1027 95.9589 18.0345C95.9589 17.2888 95.7569 16.6237 95.3126 16.1198C94.7268 15.6361 93.9996 15.1322 92.9493 14.7291ZM102.887 9.85156C101.049 9.85156 99.5745 10.3957 98.5443 11.464C97.5142 12.5322 96.9891 14.0035 96.9891 15.8578C96.9891 17.5911 97.5142 19.0019 98.5241 20.0299C99.5341 21.0376 100.908 21.5616 102.624 21.5616C104.422 21.5616 105.856 21.0174 106.886 19.9291C107.937 18.8407 108.442 17.3895 108.442 15.5957C108.442 13.8221 107.957 12.4112 106.967 11.3833C106.018 10.3554 104.624 9.85156 102.887 9.85156ZM104.968 18.4376C104.483 19.0624 103.715 19.3647 102.766 19.3647C101.796 19.3647 101.049 19.0624 100.504 18.3973C99.9583 17.7725 99.6957 16.8655 99.6957 15.7167C99.6957 14.5275 99.9785 13.6205 100.504 12.9756C101.049 12.3306 101.796 12.0081 102.746 12.0081C103.655 12.0081 104.402 12.3105 104.927 12.9353C105.452 13.5601 105.735 14.4671 105.735 15.6562C105.735 16.8655 105.472 17.8128 104.968 18.4376ZM122.48 12.25V10.0934H119.834V6.78799L119.753 6.80815L117.248 7.55388L117.188 7.57404V10.0934H113.229V8.68256C113.229 8.0376 113.39 7.53373 113.673 7.21125C113.956 6.88877 114.38 6.72753 114.905 6.72753C115.269 6.72753 115.653 6.80815 116.077 6.98954L116.178 7.05001V4.77249L116.117 4.75233C115.754 4.6314 115.269 4.55078 114.643 4.55078C113.855 4.55078 113.168 4.73218 112.542 5.0345C111.916 5.37714 111.451 5.8407 111.108 6.46551C110.765 7.07016 110.583 7.75543 110.583 8.54148V10.0934H108.745V12.2299H110.583V21.2593H113.229V12.25H117.188V17.9942C117.188 20.3523 118.299 21.5415 120.521 21.5415C120.884 21.5415 121.268 21.481 121.631 21.4205C122.015 21.3399 122.298 21.2392 122.46 21.1585L122.48 21.1384V18.9818L122.379 19.0624C122.217 19.1632 122.076 19.2438 121.833 19.3043C121.631 19.3647 121.45 19.3849 121.308 19.3849C120.783 19.3849 120.42 19.264 120.157 18.9616C119.915 18.6795 119.793 18.2159 119.793 17.5306V12.25H122.48Z" fill="#BFBFBF"/>
<path d="M0.5 0.5H12.8818V12.855H0.5V0.5Z" fill="#BFBFBF"/>
<path d="M14.1744 0.5H26.5562V12.855H14.1744V0.5Z" fill="#BFBFBF"/>
<path d="M0.5 14.1445H12.8818V26.4996H0.5V14.1445Z" fill="#BFBFBF"/>
<path d="M14.1744 14.1445H26.5562V26.4996H14.1744V14.1445Z" fill="#BFBFBF"/>
</g>
<defs>
<clipPath id="clip0">
<rect width="122" height="26" fill="white" transform="translate(0.5 0.5)"/>
</clipPath>
</defs>
</svg>
