<svg width="61" height="61" viewBox="0 0 61 61" fill="none" xmlns="http://www.w3.org/2000/svg">
<circle cx="30.5" cy="30.5" r="30.5" fill="#0072EF"/>
<path d="M31.1011 14.2075C29.0869 14.2075 27.1542 14.5624 25.3615 15.2117L25.5978 15.4479C26.3119 16.1619 26.6307 17.1813 26.4507 18.1749L25.9115 21.1484C27.4646 20.3357 29.23 19.8752 31.1011 19.8752C37.2935 19.8752 42.3314 24.9123 42.3314 31.1037C42.3314 37.2952 37.2935 42.3323 31.1011 42.3323C24.9087 42.3323 19.8709 37.2952 19.8709 31.1037C19.8709 29.2329 20.3315 27.4679 21.1443 25.915L18.1705 26.454C17.9889 26.4868 17.8043 26.5034 17.621 26.5034C16.7981 26.5034 16.0244 26.1829 15.4427 25.6011L15.2066 25.365C14.5572 27.1575 14.2024 29.0899 14.2024 31.1037C14.2024 40.4204 21.7831 48 31.1012 48C40.4192 48 48 40.4204 48 31.1037C48 21.7871 40.4191 14.2075 31.1011 14.2075Z" fill="white"/>
<path d="M31.1048 32.1277C30.842 32.1277 30.5793 32.0274 30.3788 31.827L28.0077 29.4559C27.7459 29.947 27.5969 30.5068 27.5969 31.1009C27.5969 33.0351 29.1706 34.6087 31.1048 34.6087C33.0391 34.6087 34.6128 33.0351 34.6128 31.1009C34.6128 29.1668 33.0391 27.5931 31.1048 27.5931C30.5106 27.5931 29.9507 27.7422 29.4598 28.004L31.8309 30.375C32.2318 30.7759 32.2318 31.426 31.8309 31.827C31.6304 32.0274 31.3676 32.1277 31.1048 32.1277Z" fill="white"/>
<path d="M23.936 25.382C22.6817 26.9514 21.9305 28.9396 21.9305 31.1001C21.9305 36.1594 26.0471 40.2754 31.1072 40.2754C36.1672 40.2754 40.2838 36.1594 40.2838 31.1001C40.2838 26.0409 36.1672 21.9248 31.1072 21.9248C28.9463 21.9248 26.9578 22.676 25.3881 23.9301L27.97 26.5116C28.8636 25.8988 29.944 25.5393 31.1072 25.5393C34.1739 25.5393 36.6689 28.0339 36.6689 31.1001C36.6689 34.1664 34.1739 36.6609 31.1072 36.6609C28.0404 36.6609 25.5455 34.1664 25.5455 31.1001C25.5455 29.9372 25.905 28.8569 26.5179 27.9634L23.936 25.382Z" fill="white"/>
<path d="M24.4363 17.8058C24.4963 17.4745 24.3901 17.1348 24.152 16.8967L20.5556 13.3008C20.3085 13.0536 19.9526 12.9492 19.6111 13.0235C19.2697 13.0978 18.9894 13.3407 18.8674 13.6682L17.8511 16.3946L23.6423 22.1849L24.4363 17.8058Z" fill="white"/>
<path d="M17.6233 24.4473C17.6842 24.4473 17.7454 24.4419 17.8065 24.4309L22.1862 23.637L16.395 17.8469L13.6682 18.863C13.3408 18.985 13.0978 19.2652 13.0235 19.6066C12.9492 19.948 13.0536 20.3038 13.3008 20.5509L16.8972 24.1466C17.0915 24.3409 17.3534 24.4473 17.6233 24.4473Z" fill="white"/>
</svg>
