<svg width="393" height="308" viewBox="0 0 393 308" fill="none" xmlns="http://www.w3.org/2000/svg">
<g clip-path="url(#clip0_1755_11908)">
<path d="M136.018 29.6077C114.253 49.4551 119.695 83.185 105.618 107.464C101.686 114.246 96.7176 120.524 94.1124 127.916C88.6312 143.464 99.309 157.773 114.681 160.71C129.702 163.582 146.789 158.629 160.046 151.643C190.159 135.776 200.541 98.0464 204.38 66.6929C205.819 54.9517 205.131 42.5109 199.446 32.1332C186.724 8.91076 155.95 13.4356 138.149 27.7815C137.411 28.3762 136.702 28.9851 136.018 29.6076V29.6077Z" fill="#F4F7FD"/>
<path d="M15.9319 122.675C14.873 124.067 14.0051 125.639 13.3802 127.385C1.57142 160.399 67.8493 154.081 50.1244 124.004C42.9705 111.863 23.9605 112.121 15.9319 122.675Z" fill="#F4F7FD"/>
<path d="M-6.05146 306.917H439.214C442.053 281.214 440.247 257.205 436.438 231.68C434.56 219.061 431.849 206.524 427.203 194.963C422.041 182.104 414.584 170.7 406.25 160.47C386.875 136.684 362.102 118.672 334.91 111.627C307.718 104.582 278.146 109.016 254.329 126.155C224.184 147.847 202.661 189.07 167.925 196.008C154.537 198.68 140.863 195.7 127.503 192.836C106.419 188.314 84.7293 184.065 63.7019 188.956C42.4522 193.899 22.8746 208.419 9.77819 228.949C-3.31862 249.48 -7.75152 281.214 -6.05146 306.917Z" fill="#F4F7FD"/>
<path d="M56.0623 2.76661C56.0503 2.76661 56.0384 2.7656 56.0284 2.7628C55.9444 2.74376 55.8904 2.6603 55.9104 2.57628L56.4384 0.250916C56.4704 0.113122 56.5806 0.0153216 56.7225 0.00154216C56.8623 -0.0117891 56.9907 0.0621492 57.0486 0.190869L57.451 1.09314C57.4849 1.1719 57.451 1.26387 57.3708 1.29916C57.293 1.33445 57.2008 1.29871 57.165 1.2204L56.7626 0.318133L56.2146 2.6454C56.1983 2.71743 56.1344 2.7665 56.0623 2.7665V2.76661Z" fill="#102A54"/>
<path d="M23.5323 102.913L20.4344 103.376L11.4797 100.604C11.2352 100.528 10.9831 100.697 10.9593 100.952C10.9092 101.502 11.1674 102.034 11.6305 102.336L14.1775 103.991L6.05583 103.843C4.84844 103.767 3.85446 104.778 3.95192 105.983L4.15143 108.448C4.21782 109.264 4.78025 109.957 5.56652 110.19L11.2348 111.869C11.6067 111.98 12.003 111.979 12.3739 111.866L21.7455 109.038L24.3607 108.865L23.5324 102.913L23.5323 102.913Z" fill="#FFC0B1"/>
<path d="M15.3888 108.18C15.3396 108.18 15.29 108.162 15.2518 108.126C13.8415 106.796 13.9762 104.095 13.9828 103.981C13.989 103.871 14.0835 103.786 14.1933 103.792C14.3036 103.799 14.3881 103.893 14.3819 104.003C14.38 104.029 14.2515 106.634 15.5258 107.835C15.606 107.911 15.6098 108.038 15.5339 108.118C15.4947 108.159 15.4417 108.18 15.3887 108.18L15.3888 108.18Z" fill="#102A54"/>
<path d="M101.083 43.8603L108.657 44.8427C110.717 45.1102 112.302 46.8013 112.428 48.8744C112.578 51.3319 112.835 54.5141 113.239 56.5711C113.591 58.3676 113.74 60.5431 113.057 62.4045C111.72 66.0566 107.784 68.1191 104.071 66.9561C100.737 65.9126 95.3478 60.785 95.8625 48.2403C95.9723 45.5353 98.3937 43.5118 101.083 43.8604L101.083 43.8603Z" fill="#FFC0B1"/>
<path d="M97.9257 75.6505C95.4766 75.2961 93.85 72.9341 94.3942 70.5239L97.6497 56.082L103.587 56.9414L102.77 71.6888C102.634 74.1744 100.391 76.0076 97.9257 75.6504V75.6505Z" fill="#FFC0B1"/>
<path d="M106.372 57.4006C106.271 57.4006 106.185 57.3272 106.173 57.2265C106.16 57.1168 106.236 57.0171 106.345 57.0033L108.085 56.7806C108.235 56.7615 108.363 56.6752 108.439 56.5445C108.515 56.4134 108.525 56.2579 108.467 56.1187L106.26 50.8738C106.218 50.7717 106.266 50.6549 106.367 50.612C106.47 50.57 106.586 50.6173 106.629 50.7188L108.835 55.9641C108.941 56.2193 108.923 56.5034 108.785 56.7434C108.646 56.9838 108.411 57.1417 108.134 57.1768L106.396 57.3991C106.387 57.4001 106.38 57.4006 106.372 57.4006Z" fill="#102A54"/>
<path d="M104.224 51.6549C104.292 52.1823 103.917 52.6645 103.391 52.7317C102.863 52.7995 102.38 52.4265 102.313 51.8996C102.244 51.3721 102.619 50.89 103.145 50.8223C103.673 50.7551 104.156 51.1276 104.224 51.655V51.6549Z" fill="#102A54"/>
<path d="M111.013 50.5969C111.081 51.1239 110.706 51.6061 110.178 51.6737C109.652 51.7414 109.168 51.3685 109.102 50.8416C109.034 50.3142 109.406 49.832 109.934 49.7648C110.462 49.6971 110.945 50.0695 111.013 50.5969H111.013Z" fill="#102A54"/>
<path d="M104.277 50.2235L100.347 50.7261C100.057 50.7633 99.7923 50.5592 99.7541 50.2697C99.7183 49.9803 99.9226 49.7161 100.212 49.6789L104.142 49.1762C104.433 49.1391 104.697 49.3432 104.735 49.6327C104.771 49.9221 104.567 50.1863 104.277 50.2235Z" fill="#102A54"/>
<path d="M111.847 49.0526L107.917 49.5557C107.627 49.5929 107.361 49.3883 107.325 49.0988C107.287 48.8099 107.493 48.5452 107.781 48.5085L111.713 48.0053C112.001 47.9681 112.267 48.1727 112.303 48.4617C112.341 48.7508 112.135 49.0159 111.847 49.0527L111.847 49.0526Z" fill="#102A54"/>
<path d="M104.25 58.3789C104.25 58.3789 106.831 59.5882 109.613 59.4414C109.613 59.4414 106.576 62.8827 104.25 58.3789Z" fill="white"/>
<path d="M108.028 59.5907C108.022 59.5907 108.016 59.5902 108.01 59.5897C105.645 59.3751 103.984 58.3655 103.916 58.3226C103.822 58.2644 103.792 58.1419 103.85 58.0479C103.908 57.9539 104.03 57.9253 104.124 57.9826C104.142 57.9931 105.779 58.9865 108.046 59.1925C108.156 59.2024 108.236 59.2992 108.226 59.409C108.217 59.513 108.13 59.5907 108.028 59.5907Z" fill="#102A54"/>
<path d="M98.2055 39.8959C98.2055 39.8959 102.041 34.2586 106.972 36.9625C111.9 39.6669 118.216 44.9738 118.216 44.9738C118.216 44.9738 114.015 48.5663 112.427 48.8748C110.838 49.1838 99.4238 45.112 99.4238 45.112L96.3445 55.753C96.3445 55.753 91.6119 47.4321 92.2082 44.193C92.8026 40.9539 98.2055 39.8957 98.2055 39.8957V39.8959Z" fill="#102A54"/>
<path d="M98.3424 54.7036C98.8008 56.6179 98.2623 58.3866 97.138 58.6556C96.0131 58.924 94.7308 57.5902 94.2726 55.676C93.8142 53.7623 94.3547 51.993 95.477 51.7249C96.6013 51.4559 97.8842 52.7898 98.3424 54.7036Z" fill="#FFC0B1"/>
<path d="M103.055 66.8275C103.029 66.8275 103.001 66.8222 102.977 66.8112C102.891 66.775 100.884 65.8965 99.5533 63.3152C99.5032 63.2174 99.5414 63.0967 99.6392 63.0466C99.7375 62.9961 99.8573 63.0347 99.9075 63.1324C101.17 65.5794 103.113 66.4359 103.133 66.444C103.235 66.4873 103.281 66.6047 103.239 66.7058C103.205 66.7816 103.131 66.8273 103.055 66.8273L103.055 66.8275Z" fill="#102A54"/>
<path d="M97.24 56.657C97.2357 56.657 97.2319 56.657 97.2299 56.657C97.1197 56.6513 97.0338 56.5583 97.0399 56.4476C97.1397 54.3637 95.3953 52.5824 95.379 52.5647C95.3007 52.4865 95.3007 52.3602 95.379 52.2824C95.4569 52.2047 95.5853 52.2056 95.6612 52.2839C95.739 52.361 97.5459 54.2091 97.4381 56.4667C97.4342 56.5734 97.346 56.6569 97.2399 56.6569L97.24 56.657Z" fill="#102A54"/>
<path d="M170.958 94.8931L136.086 93.1471C135.302 93.0833 134.546 92.8281 133.885 92.4042L102.671 72.4079L102.679 72.4451L95.9996 70.5332L86.6328 135.102L112.036 140.9C112.036 140.9 114.817 116.872 114.491 100.117L127.796 104.874C130.809 105.952 134.025 106.345 137.211 106.023L171.046 102.611L170.958 94.8931Z" fill="#3C94F8"/>
<path d="M161.984 226.541L167.298 223.811L169.744 225.082L179.129 223.985C180.386 223.839 181.601 224.486 182.181 225.609L164.872 234.507C164.025 234.942 162.991 234.477 162.759 233.554L161.984 226.541L161.984 226.541Z" fill="#102A54"/>
<path d="M164.258 220.008L167.296 223.808L161.983 226.539L158.711 223.007L164.258 220.008Z" fill="#FFC0B1"/>
<path d="M39.8031 219.714L43.0471 224.727L42.0201 227.286L44.0372 236.504C44.3074 237.74 43.7832 239.011 42.7205 239.699L32.1512 223.37C31.6351 222.57 31.997 221.497 32.8936 221.173L39.8032 219.714H39.8031Z" fill="#102A54"/>
<path d="M46.5343 221.335L43.0487 224.728L39.8047 219.715L43.0024 216.115L46.5343 221.335Z" fill="#FFC0B1"/>
<path d="M71.581 131.813L73.2256 177.862L40.3125 216.524L47.348 222.839L86.6183 192.293C89.4761 190.07 91.7232 187.162 93.1516 183.838C93.9322 182.027 94.4563 180.116 94.7123 178.161L100.245 135.963L71.5808 131.813H71.581Z" fill="#102A54"/>
<path d="M108.16 134.805L139.138 170.507L167.527 219.591L156.419 226.218L125.623 182.804L88.0941 155.2C88.0941 155.2 70.175 151.972 72.9283 128.618L108.161 134.805L108.16 134.805Z" fill="#102A54"/>
<path d="M96.875 161.657L97.996 148.856C97.996 148.856 109.004 170.578 108.794 170.422C108.581 170.269 96.875 161.657 96.875 161.657V161.657Z" fill="#0C203F"/>
<path d="M94.4542 70.0684C94.4542 70.0684 100.131 72.6951 102.69 72.4109C102.69 72.4109 109.063 81.892 110.67 91.5683C112.63 103.352 108.167 134.805 108.167 134.805L77.9297 131.074L94.4542 70.0685V70.0684Z" fill="white"/>
<path d="M102.685 72.411C102.395 72.4153 93.8828 69.9121 93.8828 69.9121C93.8828 69.9121 98.6196 74.8337 100.356 74.857C102.093 74.8804 102.685 72.411 102.685 72.411H102.685Z" fill="#80C0FF"/>
<path d="M98.5759 73.1449C96.1264 69.3469 90.8276 68.6186 87.4799 71.6579C87.364 71.7638 87.2499 71.8725 87.1338 71.9836L58.8435 91.9884C57.9751 92.6022 57.0083 93.0604 55.9819 93.3433L21.3281 101.322L22.9465 109.76L59.8278 106.588C62.095 106.338 64.3122 105.757 66.4089 104.863L75.2238 101.107C74.2351 106.093 73.8169 109.623 73.8169 109.623L60.9263 136.373L94.0713 147.864C94.0713 147.864 100.749 112.404 102.88 100.184C104.373 91.625 102.543 79.2959 98.5758 73.1449H98.5759Z" fill="#3C94F8"/>
<path d="M75.2233 101.308C75.1512 101.308 75.0811 101.268 75.0452 101.198C74.995 101.1 75.0346 100.98 75.133 100.93L90.339 93.2763C90.4388 93.2267 90.559 93.2662 90.6068 93.365C90.6569 93.4633 90.6169 93.583 90.519 93.633L75.313 101.287C75.2853 101.302 75.2533 101.308 75.2232 101.308L75.2233 101.308Z" fill="#102A54"/>
<path d="M93.684 128.547L80.2774 123.842L79.7891 125.153L93.1379 129.945L93.684 128.547Z" fill="#102A54"/>
<path d="M102.094 72.2461C102.094 72.2461 106.858 95.9787 91.1641 111.143L90.0938 118.531L97.187 114.859C97.187 114.859 112.745 94.5863 102.688 72.4135L102.094 72.2461Z" fill="#102A54"/>
<path d="M114.497 100.317C114.385 100.316 114.297 100.227 114.297 100.116C114.297 100.037 114.313 92.1408 112.584 87.7333C112.544 87.6308 112.594 87.5149 112.696 87.4749C112.798 87.4343 112.916 87.4854 112.956 87.5875C114.713 92.0664 114.697 100.038 114.697 100.118C114.697 100.228 114.607 100.317 114.497 100.317Z" fill="#102A54"/>
<path d="M189.028 114.357L172.884 110.319C172.209 110.15 171.799 109.467 171.967 108.793L177.906 85.1021C178.076 84.4282 178.759 84.0187 179.435 84.1874L195.58 88.2257C196.254 88.3946 196.664 89.0775 196.496 89.7519L190.557 113.443C190.387 114.117 189.704 114.526 189.028 114.357V114.357Z" fill="#80C0FF"/>
<path d="M189.048 111.856L173.836 108.051L179.249 86.4541L194.46 90.2588L189.048 111.856Z" fill="white"/>
<path d="M192.527 92.8602L179.734 89.6602L180.006 88.5771L192.799 91.7771L192.527 92.8602Z" fill="#F4F7FD"/>
<path d="M191.943 95.1932L179.148 91.9932L179.421 90.9102L192.215 94.1101L191.943 95.1932Z" fill="#F4F7FD"/>
<path d="M191.357 97.5271L178.562 94.3267L178.835 93.2441L191.627 96.4435L191.357 97.5271Z" fill="#F4F7FD"/>
<path d="M190.769 99.8606L177.977 96.6607L178.247 95.5771L191.041 98.7775L190.769 99.8606Z" fill="#F4F7FD"/>
<path d="M190.185 102.198L177.391 98.998L177.663 97.915L190.455 101.115L190.185 102.198Z" fill="#F4F7FD"/>
<path d="M189.597 104.531L176.805 101.331L177.075 100.248L189.87 103.448L189.597 104.531Z" fill="#F4F7FD"/>
<path d="M189.013 106.865L176.219 103.665L176.491 102.582L189.285 105.782L189.013 106.865Z" fill="#F4F7FD"/>
<path d="M188.427 109.198L175.633 105.998L175.905 104.915L188.698 108.115L188.427 109.198Z" fill="#F4F7FD"/>
<path d="M189.546 89.615L184.089 88.2502C183.938 88.212 183.845 88.0589 183.884 87.9073L184.684 84.7159C184.722 84.5648 184.874 84.4727 185.026 84.5104L190.483 85.8758C190.635 85.9134 190.727 86.067 190.689 86.2181L189.888 89.4095C189.85 89.5606 189.696 89.6527 189.546 89.615H189.546Z" fill="#0C203F"/>
<path d="M170.969 95.7607L174.933 94.2942C175.409 94.1182 175.931 94.1154 176.407 94.2862L181.722 96.1842C182.032 96.2953 182.102 96.7012 181.848 96.91L181.51 97.1885C181.214 97.4312 180.846 97.57 180.463 97.5838L174.725 97.7908L173.542 102.505L171.033 101.381L170.969 95.7607Z" fill="#FFC0B1"/>
<path d="M474.463 307.999H-24.9149C-25.5142 307.999 -26 307.513 -26 306.916C-26 306.316 -25.5142 305.83 -24.9149 305.83H474.463C475.059 305.83 475.546 306.316 475.546 306.916C475.546 307.513 475.059 307.999 474.463 307.999Z" fill="#102A54"/>
<path d="M28.7656 254.673L46.5428 254.567L64.3178 254.505L99.8681 254.455L135.418 254.505L153.193 254.565L170.969 254.673L153.193 254.779L135.418 254.839L99.8681 254.889L64.3178 254.839L46.5428 254.777L28.7656 254.673Z" fill="#102A54"/>
<path d="M86.7344 212.262L109.732 212.156L132.732 212.096L178.727 212.044L224.723 212.094L247.721 212.156L270.721 212.262L247.721 212.368L224.723 212.428L178.727 212.477L132.732 212.428L109.732 212.368L86.7344 212.262Z" fill="#102A54"/>
<path d="M176.731 177.326L160.341 177.432L143.948 177.492L111.167 177.542L78.3842 177.492L61.992 177.432L45.6016 177.326L61.992 177.22L78.3842 177.16L111.167 177.11L143.948 177.16L160.341 177.22L176.731 177.326Z" fill="#102A54"/>
<path d="M-5.83594 72.3707C-2.89081 72.3216 0.0543275 72.301 2.99946 72.2649L11.8359 72.2048C17.7261 72.1691 23.6164 72.1723 29.5072 72.1543L47.179 72.2039L56.015 72.2645C58.9601 72.3003 61.9052 72.3218 64.8504 72.3708C61.9052 72.42 58.9601 72.441 56.015 72.4772L47.179 72.5378L29.5072 72.5874C23.6165 72.5692 17.7261 72.5726 11.8359 72.5369L2.99946 72.4767C0.0543275 72.441 -2.89081 72.4195 -5.83594 72.3708V72.3707Z" fill="#102A54"/>
<path d="M216.344 41.6677L227.261 41.5623L238.178 41.5023L260.011 41.4512L281.844 41.5012L292.762 41.5619L303.678 41.6677L292.762 41.774L281.844 41.8346L260.011 41.8847L238.178 41.8342L227.261 41.7736L216.344 41.6677Z" fill="#102A54"/>
<path d="M388.017 24.4211C358.198 19.1643 323.762 72.9634 311.111 144.584C298.46 216.205 312.376 278.526 342.2 283.783C372.019 289.04 406.45 235.241 419.101 163.621C431.753 91.9996 417.836 29.678 388.017 24.4211H388.017Z" fill="#102A54"/>
<path d="M409.505 161.925C396.853 233.547 362.423 287.345 332.604 282.088C302.78 276.831 288.865 214.51 301.52 142.888C314.171 71.2685 348.602 17.4699 378.421 22.7268C408.244 27.9835 422.161 90.3052 409.505 161.925Z" fill="#E6515C"/>
<path d="M384.08 157.211C376.356 200.926 355.34 233.763 337.136 230.555C318.937 227.345 310.444 189.306 318.164 145.591C325.889 101.876 346.904 69.0392 365.103 72.2477C383.307 75.4563 391.8 113.496 384.08 157.211Z" fill="white"/>
<path d="M363.282 153.241C359.482 174.767 349.132 190.938 340.171 189.357C331.205 187.778 327.023 169.046 330.828 147.521C334.628 125.994 344.979 109.824 353.939 111.404C362.905 112.984 367.087 131.715 363.282 153.241L363.282 153.241Z" fill="#E6515C"/>
<path d="M347.364 149.786C347.35 149.786 347.331 149.786 347.316 149.784L245.508 139.806C245.226 139.778 245.021 139.528 245.049 139.248C245.075 138.968 245.327 138.763 245.608 138.791L347.412 148.769C347.698 148.797 347.899 149.047 347.875 149.327C347.846 149.59 347.627 149.786 347.364 149.786V149.786Z" fill="#102A54"/>
<path d="M248.607 133.514L252.217 139.693L247.379 144.964L223.977 142.455L228.817 137.184L225.207 131.006L248.607 133.514Z" fill="#102A54"/>
<path d="M346.768 141.456C346.725 141.456 346.682 141.448 346.635 141.434L264.4 114.906C264.174 114.833 264.05 114.59 264.122 114.363C264.196 114.137 264.439 114.012 264.666 114.086L346.902 140.615C347.131 140.687 347.25 140.93 347.179 141.157C347.122 141.34 346.955 141.457 346.768 141.457V141.456Z" fill="#102A54"/>
<path d="M268.097 110.272L269.962 116.02L265.02 119.502L246.156 113.226L251.098 109.744L249.234 103.996L268.097 110.272Z" fill="#102A54"/>
<path d="M245.869 169.634C245.621 169.634 245.403 169.452 245.365 169.198C245.323 168.918 245.515 168.66 245.795 168.618L346.984 153.595C347.256 153.553 347.518 153.747 347.561 154.024C347.599 154.304 347.409 154.564 347.132 154.604L245.945 169.627C245.919 169.632 245.893 169.634 245.869 169.634Z" fill="#102A54"/>
<path d="M244.095 163.705L249.187 168.736L245.882 175.083L222.631 178.729L225.934 172.382L220.844 167.351L244.095 163.705Z" fill="#102A54"/>
<path d="M382.975 306.918C382.975 306.918 452.858 269.823 460.73 231.371C460.73 231.371 421.779 248.893 384.273 281.282C384.273 281.282 418.861 255.181 418.861 213.673C418.861 213.673 376.362 249.359 359.677 278.138C359.677 278.138 364.083 240.236 354.325 221.608C354.325 221.608 337.64 248.579 341.421 284.427C341.421 284.427 324.167 265.246 299.266 256.754C299.266 256.754 306.159 287.887 325.991 295.748C325.991 295.748 303.013 286.63 280.031 287.887C280.031 287.887 288.035 306.918 307.735 306.918C311.511 306.918 382.975 306.918 382.975 306.918H382.975Z" fill="#6CB597"/>
<path d="M341.59 306.914C341.59 306.914 333.403 302.563 326.781 284.773C326.781 284.773 342.531 290.058 349.281 295.843C349.281 295.843 358.839 282.151 373.276 270.539C373.276 270.539 377.587 286.644 367.652 298.255C367.652 298.255 385.488 289.051 415.942 285.788C415.942 285.788 404.398 303.211 387.15 306.914H341.59V306.914Z" fill="#102A54"/>
</g>
<defs>
<clipPath id="clip0_1755_11908">
<rect width="501.547" height="308" fill="white" transform="translate(-26)"/>
</clipPath>
</defs>
</svg>
