<svg width="320" height="61" viewBox="0 0 320 61" fill="none" xmlns="http://www.w3.org/2000/svg">
<g clip-path="url(#clip0_2185_27855)">
<path d="M129.131 32.4291V39.7626C128.804 39.8904 128.449 40.153 128.094 40.1495C120.942 40.0927 113.772 40.3341 106.648 39.8407C96.7479 39.1592 89.1588 30.6863 88.8181 20.6267C88.488 10.773 95.825 1.8919 105.565 0.393967C106.657 0.20922 107.762 0.105998 108.87 0.0851538C115.511 0.056757 122.152 0.0851538 129.007 0.0851538V7.81974C122.742 7.81974 116.43 7.76649 110.119 7.81974C104.795 7.87653 100.535 9.92109 98.1784 14.9899C94.753 22.3305 99.0906 30.8921 107.116 31.9712C111.578 32.5711 116.157 32.3262 120.683 32.4256C123.402 32.4753 126.121 32.4291 129.131 32.4291ZM218.187 0.00351988V7.79133C216.114 7.79133 214.044 7.75229 211.979 7.79133C206.551 7.91912 201.064 7.62806 195.718 8.35573C189.648 9.18279 185.825 14.5995 186.049 20.7012C186.121 23.5559 187.234 26.2858 189.178 28.3775C191.122 30.4692 193.764 31.7788 196.605 32.06C200.797 32.4788 205.05 32.3546 209.274 32.4149C212.17 32.4611 215.067 32.4149 218.098 32.4149V40.579C209.529 40.1672 200.904 40.5435 192.576 39.1414C183.44 37.6009 177.381 28.3968 177.924 19.2636C178.513 9.34961 185.456 1.63633 195.047 0.305227C196.644 0.0998617 198.253 0.000257238 199.864 0.00706211C205.887 -0.0142355 211.908 0.00351988 218.187 0.00351988ZM84.5905 0.241337V7.79133C79.1064 7.79133 73.608 7.74164 68.1133 7.81618C65.9125 7.84813 63.6656 7.91913 61.5288 8.38767C55.9985 9.60519 52.1436 14.9473 52.4205 20.6728C52.6974 26.3983 57.035 31.4459 62.6682 32.0032C67.162 32.4469 71.7126 32.3333 76.2383 32.4185C78.9396 32.4682 81.6408 32.4185 84.4982 32.4185V40.1992C82.4359 40.1992 80.3771 40.2205 78.3148 40.1992C73.0792 40.1282 67.8293 40.295 62.6185 39.901C57.7474 39.5736 53.1757 37.433 49.8049 33.9013C46.4342 30.3695 44.509 25.703 44.409 20.8219C44.1286 10.2938 51.3237 1.32041 61.7595 0.372671C69.2243 -0.305303 76.8027 0.241337 84.5905 0.241337Z" fill="#060606"/>
<path d="M303.53 33.675V40.0288H295.721V34.14C292.753 32.5391 289.949 31.3607 287.521 29.6462C285.178 28.0498 283.24 25.9286 281.861 23.4514C280.482 20.9742 279.7 18.2094 279.577 15.3768C279.279 10.3861 279.517 5.36339 279.517 0.177422H287.649C287.649 4.97648 287.479 9.6797 287.695 14.3758C287.944 19.7464 290.908 23.4237 295.888 25.2092C303.846 28.0489 311.506 21.9578 311.729 12.6507C311.832 8.54027 311.729 4.42629 311.729 0.159668H320C319.698 6.39986 320.089 12.704 318.935 18.7099C317.395 26.7142 311.431 31.1903 303.53 33.675Z" fill="#070707"/>
<path d="M250.953 7.87302H235.129V0.17749H275.062V7.76298H259.217V40.0643H250.953V7.87302Z" fill="#090909"/>
<path d="M40.0856 7.80203H24.0911V40.0643H16.0513V7.86947H0V0.131348H40.0856V7.80203Z" fill="#050505"/>
<path d="M141.409 23.9527V40.0005H133.532V0.17749H141.363V16.069H160.627V23.9492L141.409 23.9527Z" fill="#030303"/>
<path d="M173.664 40.0892H165.855V0.18457H173.664V40.0892Z" fill="#0F0F0F"/>
<path d="M230.334 40.0644H222.599V0.220093H230.348L230.334 40.0644Z" fill="#060606"/>
<path d="M63.8147 23.8036C63.7615 23.115 63.6834 22.5293 63.6763 21.9436V16.4027H84.5515V23.8036H63.8147Z" fill="#070707"/>
<path d="M189.282 60.9786C186.177 60.8792 183.628 58.3625 183.678 55.4483C183.734 52.3247 186.588 49.8896 190.038 50.0245C193.059 50.1416 195.633 52.8287 195.494 55.7252C195.349 58.7743 192.616 61.0851 189.282 60.9786Z" fill="#D9A80D"/>
<path d="M165.628 55.5264C165.596 58.6288 162.983 61.0247 159.697 60.9679C156.41 60.9112 153.879 58.4371 153.957 55.3276C154.031 52.4418 156.662 50.0032 159.739 50.0032C162.966 49.9713 165.656 52.4879 165.628 55.5264Z" fill="#18B2D3"/>
<path d="M129.986 50.0388C133.536 50.1026 135.63 52.2289 135.556 55.7181C135.488 58.9589 133.305 60.9644 129.844 60.9609C126.586 60.9609 124.041 58.4087 124.165 55.2815C124.275 52.2644 126.809 49.982 129.986 50.0388Z" fill="#86B203"/>
</g>
<defs>
<clipPath id="clip0_2185_27855">
<rect width="320" height="60.9821" fill="white"/>
</clipPath>
</defs>
</svg>
