<svg width="202" height="49" viewBox="0 0 202 49" fill="none" xmlns="http://www.w3.org/2000/svg">
<path d="M40 28.301C40 37.6628 33.265 45.8171 24.0401 47.6346C21.4611 48.1742 18.8008 48.1977 16.2127 47.7038C13.6246 47.2099 11.1599 46.2084 8.96088 44.757C6.76184 43.3056 4.87197 41.4332 3.40034 39.2476C1.9287 37.0621 0.904428 34.6068 0.38662 32.0233C-1.43096 23.2342 3.29973 14.0965 11.6407 10.287C12.4001 9.91354 12.4001 9.91354 12.6366 10.7725C13.3338 13.3246 14.0061 15.9016 14.7406 18.4413C14.8651 18.8645 14.8277 19.0762 14.4044 19.3127C12.5898 20.4195 11.1539 22.0511 10.287 23.9918C9.41997 25.9325 9.16272 28.0907 9.54924 30.1809C9.96036 32.3357 11.0303 34.3099 12.6113 35.8307C14.1924 37.3515 16.2065 38.344 18.3757 38.6712C24.3762 39.58 29.9535 35.3099 30.5884 29.297C30.8428 26.6586 30.0954 24.0212 28.4948 21.9085C26.8941 19.7959 24.5574 18.3626 21.9486 17.8935C21.3386 17.8063 20.7411 17.7192 20.1311 17.7192C19.8821 17.7192 19.7576 17.657 19.7078 17.3831L17.4296 8.97985C17.2802 8.46943 17.7035 8.59393 17.8902 8.59393C19.3202 8.41189 20.7676 8.41189 22.1976 8.59393C27.0528 9.16659 31.1984 11.1709 34.5597 14.7189C38.0568 18.3694 40.0024 23.2334 39.9876 28.2886L40 28.301Z" fill="#3099CF"/>
<path d="M13.1595 27.7533C13.2218 25.8735 14.28 23.9563 16.3465 22.5993C16.6702 22.3877 16.7325 22.201 16.6453 21.8399C15.5249 17.7192 14.4045 13.5986 13.3089 9.44052C13.2432 9.18727 13.0828 8.9689 12.8608 8.83051L10.6697 7.64784C10.5431 7.58948 10.4313 7.50313 10.3429 7.39531C10.2545 7.28748 10.1917 7.16099 10.1593 7.02538C9.74845 5.48168 9.36253 4.00022 8.93925 2.49387C8.81476 2.13284 8.93925 2.04569 9.27538 1.88385C9.79825 1.70956 10.1468 1.79671 10.5825 2.15774C11.3668 2.85489 12.2134 3.50225 13.035 4.16206C13.4957 4.53554 13.7695 4.43594 13.9812 3.91307L15.2261 0.67628C15.3506 0.377499 16.1598 -0.0457737 16.4337 0.00402311C16.5831 0.0413707 16.5831 0.190761 16.6204 0.315253L17.8902 5.04595C17.9141 5.1587 17.9155 5.27507 17.8941 5.38833C17.8727 5.50159 17.8291 5.60948 17.7657 5.70576C17.3176 6.44026 16.8943 7.16232 16.4337 7.85947C16.3606 7.97035 16.3147 8.09686 16.2995 8.22878C16.2844 8.3607 16.3005 8.49433 16.3465 8.61888L19.7078 21.0556C19.795 21.3793 19.9195 21.5038 20.2805 21.5038C21.9854 21.5488 23.6126 22.2262 24.8459 23.4042C26.0791 24.5822 26.8303 26.1768 26.9533 27.8778C27.0694 29.614 26.5201 31.3292 25.4171 32.675C24.3141 34.0208 22.7401 34.8962 21.015 35.1232C16.8569 35.7457 13.1595 32.5463 13.1595 27.7533Z" fill="#3199CF"/>
<path d="M55.5507 15.0728H48V11.4691H67.3229V15.0728H59.7722V34.2242H55.5507V15.0728ZM83.0078 26.8794H69.3136C69.7941 29.3848 71.922 30.998 74.9423 30.998C75.8124 31.038 76.6811 30.8935 77.4915 30.5741C78.3018 30.2547 79.0355 29.7675 79.6443 29.1446L81.8409 31.6501C80.2621 33.5034 77.8253 34.4644 74.8393 34.4644C69.0047 34.4644 65.2293 30.7234 65.2293 25.5409C65.2293 20.3583 69.142 16.7203 74.2902 16.7203C79.3697 16.7203 83.0764 20.2554 83.0764 25.6781L83.0078 26.9137V26.8794ZM69.2792 24.168H79.1638C78.8549 21.6625 76.9329 19.9465 74.2558 19.9465C73.053 19.9033 71.8778 20.3131 70.9626 21.0948C70.0474 21.8765 69.4589 22.9732 69.3136 24.168H69.2792ZM83.9002 25.5752C83.9002 20.3583 87.7785 16.7203 93.3042 16.7203C96.6677 16.7203 99.3791 18.0931 100.718 20.7359L97.5601 22.5549C96.5304 20.9075 94.986 20.1524 93.2699 20.1524C90.2496 20.1524 87.9844 22.2117 87.9844 25.5752C87.9844 28.973 90.2496 30.998 93.2699 30.998C94.986 30.998 96.5304 30.2429 97.5601 28.5955L100.718 30.4145C99.3448 32.9886 96.6677 34.4644 93.3042 34.4644C87.8128 34.4644 83.9002 30.792 83.9002 25.5752ZM119.526 24.3053V34.2585H115.476V24.8544C115.476 21.7655 113.966 20.2554 111.357 20.2554C108.44 20.2554 106.484 22.0057 106.484 25.4722V34.2585H102.434V10.1305H106.484V18.9168C107.822 17.4753 109.881 16.6859 112.284 16.6859C116.437 16.6859 119.526 19.0884 119.526 24.3053ZM141.526 25.5752C141.526 30.9979 137.75 34.4987 132.705 34.4987C130.474 34.4987 128.552 33.7437 127.145 32.1649V40.5736H123.095V16.8919H126.939V19.1571C128.312 17.5097 130.337 16.6859 132.705 16.6859C133.886 16.6364 135.063 16.8342 136.163 17.2665C137.262 17.6988 138.259 18.3561 139.09 19.1963C139.92 20.0365 140.566 21.0411 140.985 22.1455C141.405 23.2499 141.589 24.4298 141.526 25.6095V25.5752ZM137.407 25.5752C137.407 22.246 135.176 20.1524 132.259 20.1524C129.307 20.1524 127.111 22.2803 127.111 25.5752C127.111 28.87 129.307 30.998 132.259 30.998C135.211 30.998 137.407 28.87 137.407 25.5752ZM142.349 25.5752C142.349 20.3583 146.228 16.7203 151.548 16.7203C156.97 16.7203 160.814 20.3926 160.814 25.5752C160.814 30.792 156.97 34.4987 151.548 34.4987C146.228 34.4987 142.349 30.792 142.349 25.5752ZM156.764 25.5752C156.764 22.246 154.534 20.1524 151.582 20.1524C148.665 20.1524 146.434 22.2803 146.434 25.5752C146.434 28.87 148.665 30.998 151.582 30.998C154.534 30.998 156.73 28.87 156.73 25.5752H156.764ZM162.565 11.5721C162.565 10.1992 163.663 9.16956 165.139 9.16956C166.615 9.16956 167.747 10.1992 167.747 11.5034C167.747 12.9106 166.683 14.0432 165.139 14.0432C163.663 14.0432 162.565 12.9792 162.565 11.6064V11.5721ZM163.114 16.8919H167.164V34.2242H163.114V16.8919ZM188.031 24.3053V34.2585H183.913V24.8544C183.913 21.7655 182.402 20.2554 179.794 20.2554C176.911 20.2554 174.955 22.0057 174.955 25.4722V34.2585H170.871V16.8919H174.715V19.1571C175.468 18.3351 176.395 17.6903 177.427 17.2689C178.46 16.8476 179.573 16.6602 180.686 16.7203C184.874 16.6859 187.963 19.0541 187.963 24.3053H188.031ZM202 33.3318C200.858 34.1363 199.484 34.546 198.087 34.4987C194.312 34.4987 192.115 32.4395 192.115 28.6298V20.2554H189.232V17.0635H192.115V13.0822H196.165V17.0635H200.833V20.2897H196.165V28.5611C196.165 30.2772 197.023 31.1696 198.568 31.1696C199.426 31.1696 200.25 30.9293 200.867 30.4488L202 33.3318Z" fill="#1A1A1A"/>
<path d="M166.752 46.0307V47.8841H164.761V46.0307H166.752ZM174.371 47.7125L174.028 47.8841L173.685 47.987L173.479 48.0214H173.342C173.183 48.0236 173.026 47.9945 172.878 47.9356C172.731 47.8766 172.597 47.7892 172.484 47.6781L172.209 47.3349C172.106 47.1976 172.072 47.0604 172.003 46.8888C171.67 47.2758 171.261 47.591 170.802 47.8154L170.253 47.987C169.738 48.0941 169.204 48.0585 168.708 47.8841C168.434 47.7811 168.193 47.6095 167.953 47.4379C167.745 47.2472 167.58 47.0128 167.473 46.7515C167.335 46.4769 167.301 46.168 167.301 45.8248C167.301 45.5502 167.335 45.31 167.473 45.104C167.597 44.8727 167.774 44.6731 167.988 44.5206L168.708 44.143L169.532 43.8341L170.39 43.5939L171.076 43.3193C171.264 43.2315 171.438 43.1158 171.591 42.9761C171.729 42.8731 171.797 42.7359 171.797 42.5986C171.809 42.4555 171.776 42.3123 171.702 42.1891C171.628 42.066 171.517 41.9691 171.385 41.9121C171.282 41.8778 171.145 41.8092 170.974 41.8092L170.527 41.7749L170.081 41.8092L169.669 42.0151C169.566 42.0838 169.463 42.221 169.395 42.3583C169.292 42.4956 169.257 42.6672 169.223 42.8388H167.507C167.52 42.4532 167.626 42.0765 167.816 41.7405C167.992 41.4297 168.228 41.1572 168.511 40.9391C168.794 40.721 169.118 40.5617 169.463 40.4707C169.807 40.3677 170.15 40.2991 170.493 40.2991C170.905 40.2991 171.282 40.3677 171.66 40.4363C172.037 40.5393 172.346 40.6766 172.621 40.8825C172.896 41.0884 173.101 41.2944 173.273 41.5689C173.445 41.9121 173.513 42.2554 173.513 42.6672V46.2366C173.513 46.3396 173.548 46.4082 173.616 46.5112C173.685 46.6142 173.754 46.6142 173.891 46.6142H174.028C174.097 46.6142 174.268 46.5455 174.371 46.4426V47.6781V47.7125ZM171.763 44.349C171.66 44.4176 171.523 44.4863 171.317 44.5206L170.768 44.6922L170.115 44.8638L169.532 45.104C169.36 45.1727 169.223 45.2756 169.12 45.3786C169.017 45.4816 168.983 45.6532 168.983 45.7905C168.983 45.9278 168.983 46.065 169.052 46.1337C169.12 46.271 169.154 46.3396 169.257 46.4083L169.532 46.5799H169.807C170.15 46.5799 170.493 46.4769 170.836 46.271C171.179 46.065 171.523 45.6875 171.797 45.2413V44.349H171.763ZM175.538 40.505V39.0292C175.538 38.7889 175.573 38.583 175.676 38.4114C175.777 38.2042 175.922 38.0207 176.099 37.8729C176.277 37.7251 176.483 37.6162 176.705 37.5533C177.037 37.4446 177.388 37.4095 177.735 37.4504L178.078 37.4847C178.215 37.4847 178.353 37.5533 178.524 37.622L179.108 37.8279V39.2008L178.524 38.9948L178.147 38.8919L177.906 38.8575H177.803L177.598 38.8919L177.426 38.9948C177.357 39.0292 177.323 39.0978 177.323 39.1664C177.254 39.2008 177.254 39.3037 177.254 39.3724V40.4363H178.627V41.8778H177.254V47.8498H175.538V41.8778H174.371V40.4707L175.538 40.505ZM179.108 40.505H180.378L180.652 41.3973C180.858 41.0541 181.098 40.7795 181.339 40.6079C181.579 40.4363 181.853 40.3677 182.128 40.3677L182.574 40.402L183.261 40.6766V42.1867L182.78 42.0151L182.471 41.9465H182.197C181.956 41.9465 181.785 41.9465 181.613 42.0494L181.167 42.3926C180.93 42.7214 180.809 43.12 180.824 43.5252V47.9527H179.073V40.505H179.108ZM185.286 37.7593V39.4753H183.569V37.7593H185.286ZM185.286 40.505V47.8841H183.569V40.505H185.286ZM190.949 43.1477C190.811 42.6672 190.64 42.2897 190.434 42.0838C190.193 41.8435 189.919 41.7405 189.541 41.7405C189.301 41.7405 189.061 41.8092 188.855 41.9465C188.649 42.0838 188.477 42.2554 188.306 42.4613C188.016 42.9497 187.862 43.5066 187.86 44.0744C187.86 44.4176 187.928 44.7608 187.997 45.0354C188.123 45.5754 188.425 46.0582 188.855 46.4083C189.061 46.5799 189.301 46.6485 189.541 46.6485C189.713 46.6485 189.885 46.6142 190.056 46.5112C190.228 46.4082 190.365 46.3053 190.468 46.168C190.605 45.9964 190.708 45.8248 190.777 45.6189L190.949 44.9667H192.733C192.665 45.4472 192.562 45.8934 192.39 46.271C192.237 46.6324 192.012 46.9588 191.729 47.2303C191.446 47.5017 191.11 47.7125 190.743 47.8498C190.001 48.1146 189.192 48.1266 188.443 47.8841C187.843 47.6913 187.324 47.305 186.967 46.7858C186.796 46.5455 186.624 46.271 186.521 45.9964C186.275 45.3983 186.158 44.7551 186.178 44.1087C186.178 43.5596 186.247 43.0791 186.418 42.5986C186.59 42.1524 186.83 41.7405 187.105 41.3973C187.413 41.0541 187.791 40.8139 188.169 40.6423C189.008 40.282 189.954 40.2574 190.811 40.5736C191.154 40.7109 191.463 40.9168 191.738 41.1571C191.978 41.3973 192.218 41.7062 192.39 42.0494C192.562 42.3926 192.665 42.7359 192.733 43.1477H190.949ZM200.318 47.7125L199.941 47.8841L199.632 47.987L199.426 48.0214H199.254C199.096 48.0236 198.938 47.9945 198.791 47.9356C198.644 47.8766 198.51 47.7892 198.396 47.6781L198.122 47.3349L197.916 46.8888C197.592 47.2721 197.196 47.5871 196.749 47.8154L196.165 47.987C195.662 48.0878 195.14 48.0523 194.655 47.8841C194.312 47.7811 194.106 47.6095 193.9 47.4379C193.679 47.2508 193.503 47.0161 193.385 46.7515C193.282 46.4769 193.214 46.168 193.214 45.8248C193.214 45.5502 193.282 45.31 193.42 45.104C193.544 44.8727 193.721 44.6731 193.935 44.5206L194.621 44.143C194.93 44.0058 195.17 43.9028 195.479 43.8341L196.303 43.5939L196.989 43.3193C197.189 43.2346 197.374 43.1188 197.538 42.9761C197.641 42.8731 197.744 42.7359 197.744 42.5986C197.753 42.4514 197.715 42.3052 197.635 42.1816C197.554 42.0579 197.436 41.9635 197.298 41.9121C197.195 41.8778 197.058 41.8092 196.886 41.8092L196.44 41.7749L195.994 41.8092C195.857 41.8435 195.719 41.9122 195.616 42.0151C195.479 42.0838 195.376 42.221 195.307 42.3583C195.239 42.4956 195.17 42.6672 195.17 42.8388H193.42C193.433 42.4532 193.539 42.0765 193.729 41.7405C193.905 41.4297 194.141 41.1572 194.424 40.9391C194.707 40.721 195.031 40.5617 195.376 40.4707C195.719 40.3677 196.062 40.2991 196.44 40.2991C196.852 40.2991 197.229 40.3677 197.607 40.4363C197.95 40.5393 198.293 40.6766 198.534 40.8825C198.774 41.0884 199.048 41.2944 199.22 41.5689C199.357 41.9121 199.426 42.2554 199.426 42.6672V46.2366C199.426 46.3396 199.46 46.4082 199.529 46.5112C199.598 46.6142 199.701 46.6142 199.803 46.6142H199.975C200.078 46.6142 200.181 46.5455 200.318 46.4426V47.6781V47.7125ZM197.676 44.349L197.264 44.5206L196.68 44.6922L196.062 44.8638L195.479 45.104C195.307 45.1727 195.136 45.2756 195.067 45.3786C194.998 45.4816 194.896 45.6532 194.896 45.7905C194.896 45.9278 194.896 46.065 194.964 46.1337L195.17 46.4083L195.445 46.5799H195.754C196.097 46.5799 196.44 46.4769 196.783 46.271C197.126 46.065 197.435 45.6875 197.71 45.2413V44.349H197.676Z" fill="#3199D0"/>
</svg>
