<svg width="478" height="355" viewBox="0 0 478 355" fill="none" xmlns="http://www.w3.org/2000/svg">
<circle cx="260.991" cy="177.246" r="177.246" fill="#FAFCFF"/>
<circle opacity="0.2" cx="459.59" cy="62.1688" r="41.0047" fill="#00B140"/>
<circle opacity="0.2" cx="441.449" cy="276.451" r="25.5099" fill="#F90005"/>
<circle cx="260.991" cy="177.247" r="139.454" fill="#F3F6FB"/>
<circle opacity="0.5" cx="-4.87831" cy="263.979" r="56.1217" fill="#E6F7FF"/>
<circle cx="2.82482" cy="53.8873" r="2.11193" fill="#E6F7FF"/>
<circle cx="2.82482" cy="59.8014" r="2.11193" fill="#E6F7FF"/>
<circle cx="2.82482" cy="65.7154" r="2.11193" fill="#E6F7FF"/>
<circle cx="2.82482" cy="71.6276" r="2.11193" fill="#E6F7FF"/>
<circle cx="2.82482" cy="77.5416" r="2.11193" fill="#E6F7FF"/>
<circle cx="2.82482" cy="83.4537" r="2.11193" fill="#E6F7FF"/>
<circle cx="2.82482" cy="89.3678" r="2.11193" fill="#E6F7FF"/>
<circle cx="2.82482" cy="95.2819" r="2.11193" fill="#E6F7FF"/>
<circle cx="2.82482" cy="101.194" r="2.11193" fill="#E6F7FF"/>
<circle cx="2.82482" cy="107.108" r="2.11193" fill="#E6F7FF"/>
<circle cx="8.7379" cy="53.8873" r="2.11193" fill="#E6F7FF"/>
<circle cx="8.7379" cy="59.8014" r="2.11193" fill="#E6F7FF"/>
<circle cx="8.7379" cy="65.7154" r="2.11193" fill="#E6F7FF"/>
<circle cx="8.7379" cy="71.6276" r="2.11193" fill="#E6F7FF"/>
<circle cx="8.7379" cy="77.5416" r="2.11193" fill="#E6F7FF"/>
<circle cx="8.7379" cy="83.4537" r="2.11193" fill="#E6F7FF"/>
<circle cx="8.7379" cy="89.3678" r="2.11193" fill="#E6F7FF"/>
<circle cx="8.7379" cy="95.2819" r="2.11193" fill="#E6F7FF"/>
<circle cx="8.7379" cy="101.194" r="2.11193" fill="#E6F7FF"/>
<circle cx="8.7379" cy="107.108" r="2.11193" fill="#E6F7FF"/>
<circle cx="14.651" cy="53.8873" r="2.11193" fill="#E6F7FF"/>
<circle cx="14.651" cy="59.8014" r="2.11193" fill="#E6F7FF"/>
<circle cx="14.651" cy="65.7154" r="2.11193" fill="#E6F7FF"/>
<circle cx="14.651" cy="71.6276" r="2.11193" fill="#E6F7FF"/>
<circle cx="14.651" cy="77.5416" r="2.11193" fill="#E6F7FF"/>
<circle cx="14.651" cy="83.4537" r="2.11193" fill="#E6F7FF"/>
<circle cx="14.651" cy="89.3678" r="2.11193" fill="#E6F7FF"/>
<circle cx="14.651" cy="95.2819" r="2.11193" fill="#E6F7FF"/>
<circle cx="14.651" cy="101.194" r="2.11193" fill="#E6F7FF"/>
<circle cx="14.651" cy="107.108" r="2.11193" fill="#E6F7FF"/>
<circle cx="20.5651" cy="53.8873" r="2.11193" fill="#E6F7FF"/>
<circle cx="20.5651" cy="59.8014" r="2.11193" fill="#E6F7FF"/>
<circle cx="20.5651" cy="65.7154" r="2.11193" fill="#E6F7FF"/>
<circle cx="20.5651" cy="71.6276" r="2.11193" fill="#E6F7FF"/>
<circle cx="20.5651" cy="77.5416" r="2.11193" fill="#E6F7FF"/>
<circle cx="20.5651" cy="83.4537" r="2.11193" fill="#E6F7FF"/>
<circle cx="20.5651" cy="89.3678" r="2.11193" fill="#E6F7FF"/>
<circle cx="20.5651" cy="95.2819" r="2.11193" fill="#E6F7FF"/>
<circle cx="20.5651" cy="101.194" r="2.11193" fill="#E6F7FF"/>
<circle cx="20.5651" cy="107.108" r="2.11193" fill="#E6F7FF"/>
<path opacity="0.2" d="M152.412 94.4706L190.659 54.3054L136.751 41.2652L152.412 94.4706Z" stroke="#0072EF" stroke-width="0.377924"/>
</svg>
