<svg width="26" height="28" viewBox="0 0 26 28" fill="none" xmlns="http://www.w3.org/2000/svg">
<path d="M22.9065 15.306C22.9598 14.8793 22.9998 14.4527 22.9998 13.9993C22.9998 13.546 22.9598 13.1193 22.9065 12.6927L25.7198 10.4927C25.9731 10.2927 26.0398 9.93268 25.8798 9.63935L23.2131 5.02602C23.0931 4.81268 22.8665 4.69268 22.6265 4.69268C22.5465 4.69268 22.4665 4.70602 22.3998 4.73268L19.0798 6.06602C18.3865 5.53268 17.6398 5.09268 16.8265 4.75935L16.3198 1.22602C16.2798 0.906016 15.9998 0.666016 15.6665 0.666016H10.3331C9.99979 0.666016 9.71979 0.906016 9.67979 1.22602L9.17312 4.75935C8.35979 5.09268 7.61312 5.54602 6.91979 6.06602L3.59979 4.73268C3.51979 4.70602 3.43979 4.69268 3.35979 4.69268C3.13312 4.69268 2.90645 4.81268 2.78645 5.02602L0.119786 9.63935C-0.0535475 9.93268 0.0264527 10.2927 0.279786 10.4927L3.09312 12.6927C3.03979 13.1193 2.99979 13.5593 2.99979 13.9993C2.99979 14.4393 3.03979 14.8793 3.09312 15.306L0.279786 17.506C0.0264527 17.706 -0.0402142 18.066 0.119786 18.3594L2.78645 22.9727C2.90645 23.186 3.13312 23.306 3.37312 23.306C3.45312 23.306 3.53312 23.2927 3.59979 23.266L6.91979 21.9327C7.61312 22.466 8.35979 22.906 9.17312 23.2393L9.67979 26.7727C9.71979 27.0927 9.99979 27.3327 10.3331 27.3327H15.6665C15.9998 27.3327 16.2798 27.0927 16.3198 26.7727L16.8265 23.2393C17.6398 22.906 18.3865 22.4527 19.0798 21.9327L22.3998 23.266C22.4798 23.2927 22.5598 23.306 22.6398 23.306C22.8665 23.306 23.0931 23.186 23.2131 22.9727L25.8798 18.3594C26.0398 18.066 25.9731 17.706 25.7198 17.506L22.9065 15.306ZM20.2665 13.026C20.3198 13.4394 20.3331 13.7193 20.3331 13.9993C20.3331 14.2793 20.3065 14.5727 20.2665 14.9727L20.0798 16.4793L21.2665 17.4127L22.7065 18.5327L21.7731 20.146L20.0798 19.466L18.6931 18.906L17.4931 19.8127C16.9198 20.2394 16.3731 20.5593 15.8265 20.786L14.4131 21.3594L14.1998 22.866L13.9331 24.666H12.0665L11.8131 22.866L11.5998 21.3594L10.1865 20.786C9.61312 20.546 9.07979 20.2393 8.54645 19.8393L7.33312 18.906L5.91979 19.4794L4.22645 20.1594L3.29312 18.546L4.73312 17.426L5.91979 16.4927L5.73312 14.986C5.69312 14.5727 5.66645 14.266 5.66645 13.9993C5.66645 13.7327 5.69312 13.426 5.73312 13.026L5.91979 11.5194L4.73312 10.586L3.29312 9.46602L4.22645 7.85268L5.91979 8.53268L7.30645 9.09268L8.50645 8.18602C9.07979 7.75935 9.62645 7.43935 10.1731 7.21268L11.5865 6.63935L11.7998 5.13268L12.0665 3.33268H13.9198L14.1731 5.13268L14.3865 6.63935L15.7998 7.21268C16.3731 7.45268 16.9065 7.75935 17.4398 8.15935L18.6531 9.09268L20.0665 8.51935L21.7598 7.83935L22.6931 9.45268L21.2665 10.586L20.0798 11.5194L20.2665 13.026ZM12.9998 8.66602C10.0531 8.66602 7.66645 11.0527 7.66645 13.9993C7.66645 16.946 10.0531 19.3327 12.9998 19.3327C15.9465 19.3327 18.3331 16.946 18.3331 13.9993C18.3331 11.0527 15.9465 8.66602 12.9998 8.66602ZM12.9998 16.666C11.5331 16.666 10.3331 15.466 10.3331 13.9993C10.3331 12.5327 11.5331 11.3327 12.9998 11.3327C14.4665 11.3327 15.6665 12.5327 15.6665 13.9993C15.6665 15.466 14.4665 16.666 12.9998 16.666Z" fill="#00B140"/>
</svg>
