<svg width="309" height="240" viewBox="0 0 309 240" fill="none" xmlns="http://www.w3.org/2000/svg">
<g clip-path="url(#clip0_1708:28745)">
<path d="M186.445 63.6949C186.586 63.985 186.705 64.2858 186.799 64.5946L214.502 72.9442L219.632 68.1382L227.896 74.9313L219.643 84.322C218.976 85.0806 218.081 85.6025 217.093 85.8092C216.104 86.016 215.075 85.8965 214.16 85.4686L184.341 71.5245C183.305 72.2113 182.083 72.5662 180.84 72.5419C179.597 72.5176 178.39 72.1153 177.381 71.3886C176.371 70.6619 175.607 69.6451 175.19 68.4735C174.773 67.3019 174.722 66.0311 175.045 64.83C175.367 63.6289 176.048 62.5545 176.996 61.7497C177.944 60.9449 179.115 60.4478 180.353 60.3246C181.59 60.2014 182.836 60.4578 183.924 61.0599C185.012 61.6619 185.892 62.581 186.445 63.6949L186.445 63.6949Z" fill="#FFB6B6"/>
<path d="M215.489 73.2821L225.681 81.7641C225.971 82.0055 226.309 82.1814 226.673 82.2801C227.038 82.3788 227.419 82.3978 227.791 82.3359C228.163 82.274 228.518 82.1326 228.83 81.9214C229.143 81.7101 229.406 81.434 229.602 81.1118L236.478 69.8209C237.704 68.3301 238.288 66.4143 238.103 64.4934C237.919 62.5726 236.98 60.8032 235.493 59.5732C234.006 58.3431 232.092 57.7527 230.171 57.9312C228.249 58.1097 226.477 59.0427 225.242 60.5257L215.418 69.3072C215.136 69.5587 214.913 69.8679 214.762 70.2136C214.611 70.5594 214.536 70.9336 214.543 71.3109C214.55 71.6881 214.638 72.0594 214.801 72.3996C214.964 72.7398 215.199 73.0408 215.489 73.2821Z" fill="#3F3D56"/>
<path d="M188.109 214.505L183.673 211.679C183.469 209.198 183.405 206.708 183.482 204.219L185.783 204.807L183.512 203.36C183.637 200.284 183.915 198.255 183.915 198.255C183.915 198.255 192.885 204.082 198.605 211.979L197.63 218.658L199.956 213.987C200.551 214.939 201.086 215.928 201.556 216.948C206.27 227.245 206.728 237.131 202.579 239.03C198.431 240.929 191.248 234.121 186.534 223.824C185.113 220.513 184.207 217.003 183.849 213.417L188.109 214.505Z" fill="#E6E6E6"/>
<path d="M178.902 224.444L173.644 224.318C172.187 222.299 170.845 220.2 169.625 218.03L171.898 217.344L169.206 217.28C167.724 214.582 166.913 212.701 166.913 212.701C166.913 212.701 177.602 213.052 186.581 216.856L189.198 223.077L188.776 217.876C189.777 218.384 190.746 218.955 191.676 219.584C201.033 225.962 206.536 234.189 203.966 237.958C201.396 241.728 191.728 239.614 182.371 233.236C179.442 231.136 176.853 228.599 174.693 225.715L178.902 224.444Z" fill="#E6E6E6"/>
<path d="M210.015 233.731L204.274 233.73L202.12 211.4L210.016 211.587L210.015 233.731Z" fill="#FFB6B6"/>
<path d="M211.574 231.856L200.269 231.855H200.268C198.357 231.856 196.525 232.615 195.174 233.966C193.823 235.317 193.063 237.149 193.063 239.06V239.294L211.574 239.295L211.574 231.856Z" fill="#2F2E41"/>
<path d="M277.762 217.158L273.996 221.492L255.49 209.031L261.047 202.635L277.762 217.158Z" fill="#FFB6B6"/>
<path d="M277.414 214.823L269.999 223.358L269.999 223.358C268.745 224.8 268.117 226.682 268.25 228.588C268.384 230.494 269.27 232.269 270.712 233.522L270.889 233.676L283.029 219.703L277.414 214.823Z" fill="#2F2E41"/>
<path d="M307.55 240H151.014C150.866 240 150.725 239.942 150.62 239.837C150.515 239.732 150.457 239.591 150.457 239.443C150.457 239.295 150.515 239.153 150.62 239.049C150.725 238.944 150.866 238.885 151.014 238.885H307.55C307.624 238.885 307.696 238.899 307.764 238.927C307.832 238.955 307.894 238.996 307.945 239.048C307.997 239.1 308.039 239.161 308.067 239.229C308.095 239.297 308.109 239.369 308.109 239.443C308.109 239.516 308.095 239.589 308.067 239.657C308.039 239.724 307.997 239.786 307.945 239.838C307.894 239.889 307.832 239.93 307.764 239.958C307.696 239.986 307.624 240.001 307.55 240Z" fill="#CACACA"/>
<path d="M222.654 181.168L210.576 225.917H201.211L203.268 176.977L208.697 129.295L228.418 128.247L222.654 181.168Z" fill="#0050B3"/>
<path d="M243.553 129.295C243.553 129.295 244.601 136.107 240.409 143.442C236.218 150.778 238.838 175.405 238.838 175.405L274.199 210.932C274.199 210.932 268.704 220.466 266.084 219.942C263.464 219.418 222.071 185.884 222.071 185.884L208.637 131.391L243.553 129.295Z" fill="#0050B3"/>
<path d="M224.082 49.9749C217.426 49.9749 212.03 44.5793 212.03 37.9235C212.03 31.2677 217.426 25.8721 224.082 25.8721C230.737 25.8721 236.133 31.2677 236.133 37.9235C236.133 44.5793 230.737 49.9749 224.082 49.9749Z" fill="#FFB6B6"/>
<path d="M224.716 56.8726C224.716 56.8726 238.764 51.5546 238.764 53.1265C238.764 54.6984 252.613 67.9896 249.469 85.2808C246.325 102.572 242.658 110.955 244.23 120.387C245.802 129.818 244.754 131.914 244.754 131.914C244.754 131.914 208.266 135.058 207.742 131.39C207.218 127.723 209.264 122.129 209.264 120.557C209.264 118.985 223.742 60.9177 224.716 56.8726Z" fill="#80D89F"/>
<path d="M229.748 45.1649C228.773 44.649 227.639 44.5427 226.583 44.2221C222.805 43.075 220.274 38.804 221.082 34.9392C221.232 34.4435 221.299 33.9266 221.281 33.4093C221.14 32.2646 219.968 31.526 218.845 31.2638C217.722 31.0015 216.527 31.0396 215.454 30.6179C213.796 29.9667 212.695 28.2634 212.457 26.4987C212.285 24.7121 212.683 22.9171 213.593 21.3702L213.999 22.5376C214.618 22.0139 215.077 21.327 215.324 20.5551C215.785 20.6326 216.219 20.8271 216.583 21.1201C216.948 21.4131 217.231 21.7947 217.405 22.2283C218.056 22.6123 218.15 21.0354 218.869 20.8028C219.186 20.7633 219.505 20.8422 219.767 21.0242C221.216 21.7002 222.9 21.1222 224.455 20.7475C227.147 20.1018 229.954 20.0984 232.647 20.7379C234.437 21.1648 236.208 21.9081 237.489 23.2291C238.491 24.3662 239.26 25.6884 239.754 27.121C241.127 30.5777 242.035 34.3179 241.581 38.0098C241.204 41.0309 239.94 43.8725 237.949 46.1761C236.912 47.3709 233.529 51.5394 231.673 50.8287C229.342 49.9357 232.495 46.6171 229.748 45.1649Z" fill="#2F2E41"/>
<path opacity="0.2" d="M209.063 149.701L222.852 185.853L222.155 186.118L208.367 149.966L209.063 149.701Z" fill="black"/>
<path d="M179.401 58.2783C180.278 58.2794 181.119 58.6282 181.739 59.2485C182.359 59.8687 182.708 60.7096 182.709 61.5868V98.3652C182.708 99.2423 182.359 100.083 181.739 100.703C181.119 101.324 180.278 101.673 179.401 101.674H3.3089C2.43178 101.673 1.59088 101.324 0.970657 100.703C0.350433 100.083 0.0015564 99.2423 0.000534058 98.3652V61.5868C0.0015564 60.7096 0.350433 59.8687 0.970657 59.2485C1.59088 58.6283 2.43178 58.2794 3.3089 58.2783L179.401 58.2783Z" fill="#E6E6E6"/>
<path d="M178.193 60.8574C178.701 60.8579 179.189 61.0602 179.549 61.4198C179.908 61.7794 180.111 62.267 180.111 62.7756V97.1748C180.111 97.6834 179.908 98.171 179.549 98.5306C179.189 98.8902 178.701 99.0925 178.193 99.093H4.48036C3.97185 99.0925 3.48433 98.8902 3.12479 98.5306C2.76523 98.171 2.56302 97.6834 2.56255 97.1748V62.7756C2.56302 62.2671 2.76523 61.7795 3.12479 61.4199C3.48433 61.0603 3.97185 60.858 4.48036 60.8574H178.193Z" fill="white"/>
<path d="M15.4599 89.6607C14.6354 89.6587 13.8453 89.33 13.2626 88.7466C12.6798 88.1632 12.3521 87.3727 12.351 86.5482C12.3498 85.7236 12.6755 84.9322 13.2566 84.3473C13.8377 83.7624 14.627 83.4315 15.4515 83.4272C15.4543 83.4272 15.4571 83.4272 15.4599 83.4272H162.39C163.214 83.4306 164.004 83.7604 164.586 84.3446C165.168 84.9287 165.494 85.7196 165.494 86.544C165.494 87.3684 165.168 88.1593 164.586 88.7434C164.004 89.3275 163.214 89.6574 162.39 89.6607H15.4599Z" fill="#E6E6E6"/>
<path d="M99.1473 76.1197C98.7377 76.1202 98.332 76.04 97.9534 75.8836C97.5748 75.7272 97.2308 75.4977 96.941 75.2082C96.6511 74.9187 96.4212 74.575 96.2644 74.1966C96.1075 73.8182 96.0268 73.4126 96.0268 73.003C96.0268 72.5934 96.1075 72.1878 96.2644 71.8094C96.4212 71.431 96.6511 71.0872 96.941 70.7978C97.2308 70.5083 97.5748 70.2788 97.9534 70.1224C98.332 69.966 98.7377 69.8857 99.1473 69.8862H162.372C162.781 69.8857 163.187 69.966 163.566 70.1224C163.944 70.2788 164.288 70.5083 164.578 70.7978C164.868 71.0872 165.098 71.431 165.255 71.8094C165.411 72.1878 165.492 72.5934 165.492 73.003C165.492 73.4126 165.411 73.8182 165.255 74.1966C165.098 74.575 164.868 74.9187 164.578 75.2082C164.288 75.4977 163.944 75.7272 163.566 75.8836C163.187 76.04 162.781 76.1202 162.372 76.1197H99.1473Z" fill="#0050B3"/>
<path d="M153.579 129.241C154.199 129.242 154.794 129.489 155.233 129.928C155.672 130.367 155.919 130.962 155.92 131.583V157.61C155.919 158.231 155.672 158.826 155.233 159.265C154.794 159.704 154.199 159.951 153.579 159.951H28.9611C28.3403 159.951 27.7453 159.704 27.3063 159.265C26.8674 158.826 26.6205 158.231 26.6198 157.61V131.583C26.6205 130.962 26.8674 130.367 27.3063 129.928C27.7453 129.489 28.3403 129.242 28.9611 129.241H153.579Z" fill="#E6E6E6"/>
<path d="M152.931 131.067C153.291 131.068 153.636 131.211 153.891 131.465C154.145 131.72 154.289 132.065 154.289 132.425V156.769C154.289 157.129 154.145 157.474 153.891 157.728C153.636 157.983 153.291 158.126 152.931 158.126H29.9983C29.6385 158.126 29.2934 157.983 29.039 157.728C28.7845 157.474 28.6415 157.129 28.6411 156.769V132.425C28.6415 132.065 28.7845 131.72 29.039 131.465C29.2934 131.211 29.6385 131.068 29.9983 131.067H152.931Z" fill="white"/>
<path d="M37.6435 151.45C37.0587 151.451 36.4977 151.219 36.0837 150.806C35.6698 150.393 35.4368 149.833 35.436 149.248C35.4352 148.663 35.6667 148.102 36.0795 147.688C36.4923 147.273 37.0527 147.04 37.6375 147.039C37.6395 147.039 37.6415 147.039 37.6435 147.039H141.624C142.208 147.04 142.768 147.273 143.181 147.686C143.594 148.1 143.826 148.66 143.826 149.245C143.826 149.829 143.594 150.39 143.181 150.803C142.768 151.217 142.208 151.45 141.624 151.45H37.6435Z" fill="#E6E6E6"/>
<path d="M96.8736 141.868C96.5836 141.868 96.2965 141.812 96.0285 141.701C95.7605 141.59 95.517 141.428 95.3118 141.223C95.1067 141.018 94.9439 140.775 94.8329 140.507C94.7218 140.239 94.6647 139.952 94.6647 139.662C94.6647 139.372 94.7218 139.085 94.8329 138.817C94.9439 138.55 95.1067 138.306 95.3118 138.101C95.517 137.897 95.7605 137.734 96.0285 137.624C96.2965 137.513 96.5836 137.456 96.8736 137.457H141.617C141.907 137.456 142.194 137.513 142.462 137.624C142.73 137.734 142.974 137.897 143.179 138.101C143.384 138.306 143.547 138.55 143.658 138.817C143.769 139.085 143.826 139.372 143.826 139.662C143.826 139.952 143.769 140.239 143.658 140.507C143.547 140.775 143.384 141.018 143.179 141.223C142.974 141.428 142.73 141.59 142.462 141.701C142.194 141.812 141.907 141.868 141.617 141.868H96.8736Z" fill="#E4E4E4"/>
<path d="M153.579 0C154.199 0.000728699 154.794 0.247638 155.233 0.686564C155.672 1.12549 155.919 1.72059 155.92 2.34133V28.3689C155.919 28.9896 155.672 29.5847 155.233 30.0237C154.794 30.4626 154.199 30.7095 153.579 30.7102H28.9611C28.3403 30.7095 27.7453 30.4626 27.3063 30.0237C26.8674 29.5847 26.6205 28.9896 26.6198 28.3689V2.34133C26.6205 1.72059 26.8674 1.12549 27.3063 0.686564C27.7453 0.247638 28.3403 0.000728699 28.9611 0H153.579Z" fill="#E6E6E6"/>
<path d="M152.931 1.82568C153.291 1.82605 153.636 1.96917 153.891 2.22365C154.145 2.47814 154.289 2.82321 154.289 3.18315V27.527C154.289 27.8869 154.145 28.232 153.891 28.4865C153.636 28.741 153.291 28.8841 152.931 28.8845H29.9983C29.6385 28.8841 29.2934 28.7409 29.039 28.4864C28.7845 28.2319 28.6415 27.8869 28.6411 27.527V3.18315C28.6415 2.82327 28.7845 2.47822 29.039 2.22372C29.2934 1.96922 29.6385 1.82608 29.9983 1.82568H152.931Z" fill="white"/>
<path d="M37.6435 22.2092C37.0587 22.2097 36.4977 21.9779 36.0837 21.5649C35.6698 21.1518 35.4368 20.5913 35.436 20.0065C35.4352 19.4217 35.6667 18.8606 36.0795 18.4464C36.4923 18.0322 37.0527 17.799 37.6375 17.7979C37.6395 17.7979 37.6415 17.7979 37.6435 17.7979H141.624C142.208 17.7987 142.768 18.0315 143.181 18.445C143.594 18.8586 143.826 19.4191 143.826 20.0035C143.826 20.588 143.594 21.1485 143.181 21.562C142.768 21.9756 142.208 22.2084 141.624 22.2092H37.6435Z" fill="#E6E6E6"/>
<path d="M96.8736 12.6262C96.5836 12.6266 96.2965 12.5699 96.0285 12.4592C95.7605 12.3486 95.517 12.1862 95.3118 11.9813C95.1067 11.7765 94.9439 11.5332 94.8329 11.2653C94.7218 10.9975 94.6647 10.7104 94.6647 10.4205C94.6647 10.1306 94.7218 9.84351 94.8329 9.5757C94.9439 9.30788 95.1067 9.06459 95.3118 8.85973C95.517 8.65487 95.7605 8.49247 96.0285 8.38181C96.2965 8.27116 96.5836 8.21442 96.8736 8.21485H141.617C141.907 8.21442 142.194 8.27116 142.462 8.38181C142.73 8.49247 142.974 8.65487 143.179 8.85973C143.384 9.06459 143.547 9.30788 143.658 9.5757C143.769 9.84351 143.826 10.1306 143.826 10.4205C143.826 10.7104 143.769 10.9975 143.658 11.2653C143.547 11.5332 143.384 11.7765 143.179 11.9813C142.974 12.1862 142.73 12.3486 142.462 12.4592C142.194 12.5699 141.907 12.6266 141.617 12.6262H96.8736Z" fill="#E4E4E4"/>
<path d="M190.458 84.8094C190.691 85.0327 190.906 85.2741 191.102 85.5313L219.984 83.8034L223.138 77.522L233.24 81.0441L228.736 92.7068C228.372 93.649 227.712 94.4478 226.856 94.9831C226 95.5185 224.993 95.7616 223.986 95.6759L191.187 92.8836C190.451 93.8862 189.428 94.6409 188.252 95.0474C187.077 95.4539 185.806 95.4929 184.608 95.1592C183.41 94.8256 182.342 94.1351 181.546 93.1796C180.749 92.2241 180.263 91.0489 180.151 89.8103C180.039 88.5717 180.307 87.3283 180.919 86.2457C181.531 85.163 182.458 84.2923 183.577 83.7494C184.696 83.2065 185.954 83.0172 187.183 83.2065C188.412 83.3958 189.555 83.9549 190.458 84.8093L190.458 84.8094Z" fill="#FFB6B6"/>
<path d="M220.934 83.8023L233.427 88.244C233.783 88.3704 234.161 88.4187 234.537 88.3856C234.913 88.3525 235.277 88.2387 235.605 88.0522C235.933 87.8656 236.217 87.6105 236.437 87.3043C236.658 86.9982 236.81 86.6481 236.883 86.2779L239.438 73.3075C240.073 71.4853 239.959 69.4858 239.123 67.747C238.286 66.0082 236.795 64.6719 234.975 64.0308C233.155 63.3898 231.155 63.4963 229.413 64.3271C227.672 65.1578 226.331 66.645 225.683 68.4629L219.495 80.0962C219.318 80.4293 219.215 80.7967 219.192 81.1734C219.17 81.55 219.229 81.927 219.366 82.2787C219.502 82.6304 219.713 82.9485 219.984 83.2115C220.254 83.4744 220.578 83.6759 220.934 83.8023H220.934Z" fill="#3F3D56"/>
<path d="M177.792 70.0612C173.395 70.0612 169.831 66.4971 169.831 62.1007C169.831 57.7042 173.395 54.1401 177.792 54.1401C182.188 54.1401 185.752 57.7042 185.752 62.1007C185.752 66.4971 182.188 70.0612 177.792 70.0612Z" fill="#0050B3"/>
</g>
<defs>
<clipPath id="clip0_1708:28745">
<rect width="308.11" height="240" fill="white" transform="matrix(-1 0 0 1 308.109 0)"/>
</clipPath>
</defs>
</svg>
