<svg width="18" height="18" viewBox="0 0 18 18" fill="none" xmlns="http://www.w3.org/2000/svg">
<path d="M9.00033 0.666992C4.40033 0.666992 0.666992 4.40033 0.666992 9.00033C0.666992 13.6003 4.40033 17.3337 9.00033 17.3337C13.6003 17.3337 17.3337 13.6003 17.3337 9.00033C17.3337 4.40033 13.6003 0.666992 9.00033 0.666992ZM9.00033 15.667C5.32533 15.667 2.33366 12.6753 2.33366 9.00033C2.33366 5.32533 5.32533 2.33366 9.00033 2.33366C12.6753 2.33366 15.667 5.32533 15.667 9.00033C15.667 12.6753 12.6753 15.667 9.00033 15.667ZM9.25866 8.28366C7.78366 7.90866 7.30866 7.50033 7.30866 6.89199C7.30866 6.19199 7.96699 5.70033 9.05866 5.70033C10.2087 5.70033 10.642 6.25033 10.6753 7.06699H12.1003C12.0587 5.95033 11.3753 4.92533 10.0253 4.59199V3.16699H8.08366V4.57533C6.82533 4.84199 5.81699 5.65866 5.81699 6.91699C5.81699 8.40866 7.05866 9.15866 8.86699 9.59199C10.492 9.97533 10.817 10.5503 10.817 11.1503C10.817 11.592 10.492 12.3087 9.06699 12.3087C7.73366 12.3087 7.20866 11.7087 7.13366 10.942H5.70033C5.78366 12.3587 6.83366 13.1587 8.08366 13.417V14.8337H10.0337V13.442C11.3003 13.2003 12.3003 12.4753 12.3087 11.1337C12.3003 9.30033 10.7253 8.66699 9.25866 8.28366Z" fill="#323232"/>
</svg>
