<svg width="20" height="20" viewBox="0 0 20 20" fill="none" xmlns="http://www.w3.org/2000/svg">
<path d="M18 19.9998H2C0.89543 19.9998 0 19.1043 0 17.9998V7.04875C0.0337512 6.37761 0.397279 5.76662 0.971 5.41675L8.971 0.616751C9.60412 0.237125 10.3949 0.237125 11.028 0.616751L19.028 5.41675C19.6292 5.77952 19.9976 6.42959 20 7.13175V17.9998C20 19.1043 19.1046 19.9998 18 19.9998ZM2 7.86775V17.9998H18V7.86775L10 13.2008L2 7.86775ZM10 2.33175L3.316 6.34175L10 10.7978L16.683 6.34175L10 2.33175Z" fill="#8C8C8C"/>
</svg>
