<svg width="60" height="61" viewBox="0 0 60 61" fill="none" xmlns="http://www.w3.org/2000/svg">
<rect y="0.5" width="60" height="60" rx="8" fill="#00B140"/>
<path d="M32.672 28.6591C32.5452 28.6582 32.4233 28.7076 32.3328 28.7963C32.2422 28.885 32.1905 29.006 32.1888 29.1327V32.6719C32.1905 32.7989 32.2425 32.9201 32.3333 33.0089C32.4242 33.0977 32.5466 33.1468 32.6736 33.1455H43.3344C43.4614 33.1468 43.5838 33.0977 43.6747 33.0089C43.7655 32.9201 43.8175 32.7989 43.8192 32.6719V29.1327C43.8175 29.0057 43.7655 28.8845 43.6747 28.7957C43.5838 28.7069 43.4614 28.6578 43.3344 28.6591H32.6736H32.672ZM39.2096 17.4015C40.6848 17.4719 41.7456 17.7631 42.4176 18.3807C43.0816 18.9919 43.4224 19.8767 43.4896 21.0479V24.4031C43.4862 24.6888 43.3696 24.9616 43.1653 25.1613C42.961 25.3611 42.6857 25.4717 42.4 25.4687C42.2584 25.4704 42.1178 25.4442 41.9863 25.3915C41.8548 25.3389 41.735 25.2609 41.6337 25.1619C41.5324 25.063 41.4515 24.945 41.3958 24.8148C41.34 24.6846 41.3105 24.5447 41.3088 24.4031L41.3104 21.1087C41.2752 20.5007 41.1296 20.1231 40.9216 19.9311C40.72 19.7455 40.1056 19.5791 39.1568 19.5311H18.2352C17.376 19.5631 16.8176 19.7263 16.5472 19.9583C16.3392 20.1359 16.1824 20.6255 16.1808 21.4719L16.176 40.3039C16.256 41.1263 16.4368 41.6751 16.6688 41.9487C16.8448 42.1567 17.3904 42.3647 18.1936 42.4671H39.1792C40.1616 42.4863 40.7408 42.3391 40.936 42.1423C41.152 41.9231 41.3088 41.3471 41.3088 40.4047V37.1327C41.3088 36.5455 41.7968 36.0671 42.4 36.0671C43.0016 36.0671 43.4896 36.5455 43.4896 37.1327V40.4047C43.4896 41.8447 43.1952 42.9215 42.5056 43.6207C41.7952 44.3407 40.6656 44.6287 39.1568 44.5967L18.064 44.5919C16.6288 44.4255 15.6 44.0319 14.9872 43.3071C14.432 42.6511 14.1232 41.7151 14 40.4063V21.4703C14.0032 20.0687 14.3392 19.0143 15.1104 18.3551C15.8176 17.7471 16.8384 17.4511 18.1936 17.3999H39.2096V17.4015ZM43.3344 26.5279C44.8064 26.5279 46 27.6943 46 29.1327V32.6719C46 34.1103 44.8064 35.2767 43.3344 35.2767H32.6736C31.2016 35.2767 30.008 34.1087 30.008 32.6719V29.1327C30.008 27.6943 31.2016 26.5279 32.6736 26.5279H43.3344ZM35.3392 29.6319C34.6032 29.6319 34.0064 30.2079 34.0064 30.9167C34.0064 31.6271 34.6032 32.2015 35.3392 32.2015C36.0752 32.2015 36.672 31.6255 36.672 30.9167C36.672 30.2063 36.0752 29.6303 35.3392 29.6303V29.6319Z" fill="white"/>
</svg>
