<svg width="120" height="22" viewBox="0 0 120 22" fill="none" xmlns="http://www.w3.org/2000/svg">
<path fill-rule="evenodd" clip-rule="evenodd" d="M17.0789 2.33008H0.999825C0.459869 2.33008 0 2.78995 0 3.3502V5.1701C0 5.72999 0.459869 6.19022 0.999825 6.19022H17.0789C17.6388 6.19022 18.0787 5.73035 18.099 5.1701V3.37013C18.099 2.78995 17.6392 2.33008 17.0789 2.33008ZM17.0789 12.4298H0.999825C0.739631 12.4298 0.4798 12.5298 0.300056 12.7299C0.100019 12.9299 0 13.1698 0 13.4499V15.2698C0 15.8297 0.459869 16.2899 0.999825 16.2899H17.0789C17.6388 16.2899 18.0787 15.85 18.099 15.2698V13.4499C18.0791 12.8701 17.6392 12.4298 17.0789 12.4298ZM10.0595 17.4695H0.999825C0.739631 17.4695 0.4798 17.5695 0.300056 17.7696C0.11995 17.9696 0 18.2095 0 18.4896V20.3095C0 20.8694 0.459869 21.3297 0.999825 21.3297H10.0396C10.5994 21.3297 11.0394 20.8698 11.0394 20.3298V18.5099C11.0593 17.9098 10.6194 17.4702 10.0595 17.4702V17.4695ZM18.099 7.36979H0.999825C0.739631 7.36979 0.4798 7.46981 0.300056 7.66985C0.11995 7.86988 0 8.10978 0 8.38991V10.2098C0 10.7697 0.459869 11.2299 0.999825 11.2299H18.0791C18.639 11.2299 19.0789 10.7701 19.0789 10.2098V8.38991C19.0989 7.84995 18.639 7.39008 18.099 7.36979V7.36979Z" fill="#2DBDEF"/>
<path fill-rule="evenodd" clip-rule="evenodd" d="M36.8006 6.41024C36.3005 5.89021 35.7207 5.49014 35.0608 5.21038C34.4008 4.93025 33.7007 4.79037 32.981 4.79037C32.2812 4.77044 31.601 4.93025 30.9611 5.23031C30.5411 5.43035 30.1613 5.71011 29.8409 6.05039V5.7304C29.8409 5.57059 29.7811 5.41041 29.6811 5.29046C29.5811 5.17051 29.4213 5.09043 29.2412 5.09043H27.0212C26.8614 5.09043 26.7012 5.15058 26.6012 5.29046C26.4812 5.41041 26.4211 5.57023 26.4414 5.7304V20.6897C26.4414 20.8495 26.5012 21.0097 26.6012 21.1297C26.7211 21.2496 26.8614 21.3098 27.0212 21.3098H29.3013C29.4611 21.3098 29.6014 21.25 29.7213 21.13C29.8413 21.03 29.9214 20.8698 29.9015 20.6897V15.5699C30.2214 15.9298 30.6414 16.19 31.1013 16.3498C31.7014 16.5697 32.3215 16.6897 32.9614 16.6897C33.6815 16.6897 34.4012 16.5495 35.0615 16.2697C35.7214 15.9899 36.3211 15.5899 36.8212 15.0698C37.3412 14.5299 37.7413 13.8899 38.0211 13.1898C38.3411 12.4099 38.481 11.5699 38.4614 10.7299C38.4813 9.88988 38.3211 9.04986 38.0211 8.25008C37.721 7.59017 37.3213 6.95019 36.8009 6.41024H36.8006ZM34.7607 11.8301C34.6407 12.1501 34.4606 12.4302 34.2207 12.69C33.7609 13.1901 33.1006 13.4699 32.4208 13.4699C32.0808 13.4699 31.7409 13.4097 31.4209 13.2499C31.1209 13.11 30.8411 12.9299 30.6009 12.69C30.361 12.4501 30.1809 12.1501 30.0609 11.8301C29.8007 11.1503 29.8007 10.4099 30.0609 9.73006C30.1809 9.41008 30.3809 9.12995 30.6009 8.89005C30.8408 8.65015 31.1209 8.45012 31.4209 8.31023C31.7409 8.17035 32.0808 8.09026 32.4208 8.09026C32.7806 8.09026 33.1006 8.15006 33.4409 8.31023C33.7409 8.45012 34.0207 8.63022 34.2407 8.87012C34.4806 9.11002 34.6407 9.39015 34.7806 9.71013C35.0205 10.4099 35.0006 11.1503 34.7607 11.8301V11.8301ZM50.68 5.11036H48.4201C48.2603 5.11036 48.1001 5.17051 48.0001 5.29046C47.8802 5.41041 47.8204 5.57023 47.8204 5.75033V6.0301C47.5403 5.69018 47.1804 5.42998 46.8003 5.25024C46.1802 4.95018 45.5004 4.80994 44.8202 4.80994C43.3601 4.80994 41.9802 5.39012 40.9405 6.40988C40.4005 6.94983 39.9805 7.58981 39.7004 8.28958C39.3804 9.06943 39.2206 9.90945 39.2405 10.7694C39.2206 11.6094 39.3804 12.4494 39.7004 13.2492C40.0004 13.949 40.4002 14.5893 40.9405 15.1289C41.9606 16.1689 43.3605 16.7488 44.8003 16.7488C45.4801 16.7687 46.1603 16.6085 46.78 16.3085C47.1598 16.1084 47.5399 15.8486 47.82 15.5286V15.8287C47.82 15.9885 47.8798 16.1487 47.9998 16.2686C48.1197 16.3686 48.26 16.4484 48.4198 16.4484H50.6796C50.8394 16.4484 50.9996 16.3886 51.0996 16.2686C51.2196 16.1487 51.2794 15.9885 51.2794 15.8287V5.76918C51.2794 5.60937 51.2196 5.44919 51.1196 5.32924C50.9996 5.18936 50.8394 5.10927 50.6796 5.10927L50.68 5.11036ZM47.62 11.8301C47.5 12.1501 47.3199 12.4302 47.08 12.69C46.8401 12.9299 46.5799 13.13 46.2802 13.2699C45.6403 13.5699 44.9003 13.5699 44.2603 13.2699C43.9602 13.13 43.6805 12.9299 43.4402 12.69C43.2003 12.4501 43.0202 12.1501 42.9003 11.8301C42.6604 11.1503 42.6604 10.4099 42.9003 9.73006C43.0202 9.41008 43.2003 9.15025 43.4402 8.89005C43.6801 8.65015 43.9403 8.45012 44.2603 8.31023C44.9003 8.01018 45.6403 8.01018 46.2603 8.31023C46.5604 8.45012 46.8405 8.63022 47.0601 8.87012C47.2801 9.11002 47.4602 9.39015 47.6001 9.71013C47.8798 10.4099 47.8798 11.1503 47.62 11.8301ZM73.1991 10.4701C72.8791 10.1899 72.4993 9.95003 72.0992 9.79022C71.6792 9.61011 71.2193 9.49016 70.7794 9.39014L69.0595 9.05023C68.6196 8.97014 68.2996 8.85019 68.1394 8.71031C67.9995 8.61029 67.8995 8.45048 67.8995 8.27037C67.8995 8.09063 67.9995 7.93045 68.2195 7.79057C68.5196 7.63076 68.8395 7.55067 69.1795 7.5706C69.6194 7.5706 70.0593 7.67062 70.4594 7.8308C70.8595 8.01054 71.2393 8.19064 71.5995 8.43091C72.0996 8.75089 72.5395 8.69074 72.8396 8.33089L73.6597 7.39086C73.8195 7.23105 73.8996 7.03101 73.9195 6.81104C73.8996 6.57114 73.7796 6.3711 73.5995 6.21093C73.2596 5.91087 72.6997 5.59088 71.9597 5.2709C71.2197 4.95091 70.2797 4.7911 69.1798 4.7911C68.5 4.77117 67.8397 4.87082 67.2001 5.07086C66.6602 5.25096 66.1401 5.5108 65.6803 5.85072C65.2603 6.1707 64.9403 6.57078 64.7004 7.05058C64.4804 7.51045 64.3604 8.01054 64.3604 8.51064C64.3604 9.45067 64.6406 10.2106 65.2005 10.7705C65.7603 11.3304 66.5003 11.7105 67.4204 11.8906L69.2204 12.2907C69.6002 12.3505 70.0003 12.4704 70.3605 12.6505C70.5605 12.7306 70.6805 12.9303 70.6805 13.1506C70.6805 13.3507 70.5805 13.5304 70.3605 13.6906C70.1405 13.8508 69.7803 13.9508 69.3005 13.9508C68.8207 13.9508 68.3206 13.8508 67.8807 13.6308C67.4607 13.4308 67.0809 13.1709 66.7207 12.8709C66.5609 12.7509 66.4007 12.6509 66.2007 12.5708C66.0006 12.511 65.7408 12.5708 65.4806 12.7908L64.5007 13.5308C64.2209 13.7308 64.0807 14.0707 64.1608 14.3907C64.2206 14.7306 64.4808 15.0506 64.9809 15.4308C66.2209 16.2708 67.7009 16.7107 69.2005 16.6705C69.9003 16.6705 70.6004 16.5908 71.2603 16.3907C71.8405 16.2106 72.3804 15.9508 72.8602 15.5909C73.3002 15.271 73.66 14.851 73.9003 14.3509C74.1402 13.8711 74.2601 13.351 74.2601 12.8107C74.2801 12.3309 74.18 11.8508 73.9804 11.4108C73.7803 11.0908 73.5201 10.7505 73.2001 10.4708L73.1991 10.4701ZM83.0788 13.2101C82.9788 13.03 82.7987 12.91 82.5787 12.8701C82.3787 12.8701 82.1587 12.9303 81.9989 13.0503C81.7191 13.2304 81.3988 13.33 81.0788 13.3503C80.9788 13.3503 80.8588 13.3304 80.7588 13.3101C80.6389 13.2902 80.5388 13.2304 80.4588 13.1503C80.3587 13.0503 80.2786 12.9303 80.2189 12.8104C80.1388 12.6103 80.0989 12.4103 80.1188 12.2102V8.11056H83.0386C83.2187 8.11056 83.3785 8.03047 83.4985 7.91052C83.6184 7.79057 83.6985 7.65033 83.6985 7.47022V5.7304C83.6985 5.55029 83.6387 5.39048 83.4985 5.29046C83.3785 5.17051 83.2187 5.11036 83.0585 5.11036H80.1185V2.31056C80.1185 2.15074 80.0587 1.97064 79.9387 1.87062C79.8188 1.7706 79.6785 1.71045 79.5187 1.69051H77.2389C77.0791 1.69051 76.919 1.75067 76.799 1.87062C76.6791 1.99057 76.599 2.15074 76.599 2.31056V5.11036H75.2991C75.1393 5.11036 74.9791 5.17051 74.8592 5.3104C74.7591 5.43035 74.6993 5.59016 74.6993 5.75033V7.49015C74.6993 7.65033 74.7591 7.81014 74.8592 7.93045C74.9592 8.07033 75.119 8.13049 75.2991 8.13049H76.599V13.0104C76.579 13.5902 76.699 14.1704 76.9389 14.6904C77.1589 15.1304 77.439 15.5105 77.8188 15.8305C78.1786 16.1305 78.5986 16.3505 79.0585 16.4705C79.5187 16.6103 79.9985 16.6904 80.4787 16.6904C81.0987 16.6904 81.7387 16.5904 82.3388 16.3904C82.8987 16.2103 83.3988 15.8903 83.7989 15.4703C84.0587 15.2101 84.0786 14.7904 83.879 14.4904L83.0792 13.2104L83.0788 13.2101ZM95.4384 5.11036H93.1785C93.0187 5.11036 92.8785 5.17051 92.7585 5.29046C92.6386 5.41041 92.5784 5.57023 92.5784 5.75033V6.0301C92.2987 5.69018 91.9584 5.42998 91.5587 5.25024C90.9386 4.95018 90.2588 4.80994 89.5786 4.80994C88.1185 4.80994 86.7386 5.39012 85.6989 6.40988C85.1589 6.94983 84.7389 7.58981 84.4588 8.28958C84.1388 9.06943 83.979 9.90944 83.9989 10.7495C83.979 11.5895 84.1388 12.4295 84.4588 13.2293C84.7385 13.929 85.1788 14.5694 85.6989 15.1093C86.719 16.1494 88.0986 16.7292 89.5586 16.7292C90.2385 16.7491 90.9187 16.589 91.5384 16.3092C91.9384 16.1092 92.2983 15.8493 92.5784 15.5293V15.8294C92.5784 15.9892 92.6386 16.1494 92.7585 16.2494C92.8785 16.3694 93.0187 16.4291 93.1785 16.4291H95.4384C95.7783 16.4291 96.0385 16.1693 96.0385 15.829V5.76954C96.0385 5.60937 95.9783 5.44955 95.8787 5.32924C95.7787 5.18936 95.6185 5.10927 95.4384 5.10927V5.11036ZM92.3987 11.85C92.2787 12.17 92.0986 12.4501 91.8587 12.71C91.6188 12.9499 91.3586 13.1499 91.0589 13.2898C90.7389 13.4297 90.399 13.5098 90.0388 13.5098C89.679 13.5098 89.359 13.4297 89.039 13.2898C88.7389 13.1499 88.4592 12.9499 88.2189 12.71C87.979 12.4697 87.7989 12.17 87.6989 11.85C87.459 11.1702 87.459 10.4298 87.6989 9.75C87.8188 9.43001 87.9989 9.14988 88.2189 8.90998C88.4588 8.67008 88.7389 8.47004 89.039 8.33016C89.359 8.18992 89.6989 8.1102 90.0388 8.1102C90.3791 8.1102 90.7187 8.16999 91.0589 8.33016C91.359 8.47004 91.6188 8.65015 91.8587 8.89005C92.0986 9.12995 92.2787 9.41008 92.3987 9.73006C92.6585 10.39 92.6585 11.1702 92.3987 11.85V11.85ZM107.838 13.0702L106.538 12.0704C106.298 11.8703 106.058 11.8102 105.858 11.8902C105.679 11.9703 105.519 12.0903 105.379 12.2302C105.099 12.5701 104.759 12.8701 104.399 13.13C103.999 13.3499 103.579 13.4699 103.139 13.43C102.619 13.43 102.139 13.2901 101.719 12.9901C101.299 12.69 100.979 12.2903 100.819 11.7902C100.699 11.4503 100.639 11.1104 100.639 10.7705C100.639 10.4103 100.699 10.0707 100.819 9.7105C100.939 9.39051 101.099 9.11038 101.339 8.87048C101.579 8.63058 101.839 8.43055 102.139 8.3106C102.459 8.17072 102.798 8.09063 103.158 8.09063C103.598 8.07069 104.038 8.19065 104.418 8.41062C104.798 8.65052 105.118 8.95057 105.398 9.31042C105.518 9.4503 105.678 9.57061 105.858 9.65034C106.058 9.73043 106.298 9.67027 106.538 9.47023L107.838 8.49034C107.998 8.39032 108.118 8.23015 108.178 8.0504C108.258 7.85036 108.238 7.6304 108.118 7.45029C107.618 6.67043 106.938 6.0301 106.118 5.57023C105.258 5.09043 104.238 4.83023 103.098 4.83023C102.298 4.83023 101.498 4.99004 100.738 5.2901C100.018 5.59016 99.3782 6.01016 98.8383 6.54976C98.2983 7.08971 97.8584 7.72969 97.5583 8.44975C96.9383 9.94967 96.9383 11.6297 97.5583 13.1296C97.8584 13.8294 98.2784 14.4896 98.8383 15.0097C99.9784 16.1294 101.498 16.7296 103.098 16.7296C104.238 16.7296 105.258 16.4694 106.118 15.9896C106.938 15.5297 107.638 14.8897 108.138 14.0896C108.238 13.9095 108.258 13.6895 108.198 13.5094C108.118 13.3496 107.998 13.1894 107.838 13.0695L107.838 13.0702ZM119.878 15.4101L116.298 10.1704L119.358 6.13048C119.498 5.95037 119.558 5.69054 119.478 5.47057C119.418 5.31076 119.278 5.15058 118.898 5.15058H116.478C116.338 5.15058 116.198 5.19044 116.078 5.2506C115.918 5.33033 115.798 5.45064 115.718 5.59052L113.278 9.01036H112.698V0.93059C112.698 0.770415 112.638 0.610602 112.518 0.490289C112.398 0.370339 112.258 0.310547 112.098 0.310547H109.838C109.678 0.310547 109.518 0.370702 109.398 0.490652C109.278 0.610602 109.218 0.750484 109.218 0.93059V15.8301C109.218 16.0099 109.278 16.1501 109.398 16.2701C109.518 16.39 109.678 16.4498 109.838 16.4498H112.098C112.258 16.4498 112.418 16.39 112.518 16.2701C112.638 16.1501 112.698 15.9899 112.698 15.8301V11.8902H113.338L115.998 15.97C116.158 16.2701 116.458 16.4498 116.778 16.4498H119.318C119.698 16.4498 119.858 16.2701 119.938 16.1099C120.038 15.8501 120.018 15.5899 119.878 15.4101V15.4101ZM63.5197 5.13065H60.9797C60.7797 5.13065 60.5996 5.19045 60.4597 5.33069C60.3398 5.45064 60.2597 5.59088 60.2198 5.7507L58.3401 12.7107H57.8799L55.8799 5.7507C55.84 5.61082 55.7799 5.47094 55.6798 5.33069C55.5599 5.19081 55.3997 5.11072 55.22 5.11072H52.6401C52.3002 5.11072 52.1002 5.21074 52.0002 5.45064C51.9404 5.65068 51.9404 5.87064 52.0002 6.07068L55.2 15.8703C55.2598 16.0106 55.32 16.1704 55.4399 16.2704C55.5599 16.3904 55.74 16.4505 55.9197 16.4505H57.2798L57.1598 16.7705L56.8598 17.6703C56.7597 17.9504 56.5996 18.1903 56.3597 18.3701C56.1397 18.5299 55.8799 18.6303 55.5997 18.61C55.3598 18.61 55.1399 18.5502 54.9199 18.4701C54.6999 18.3701 54.4999 18.2501 54.3198 18.1103C54.16 17.9903 53.9599 17.9302 53.74 17.9302H53.72C53.4801 17.9501 53.2602 18.07 53.1399 18.29L52.3401 19.4699C52.0201 19.99 52.1998 20.3099 52.3999 20.4897C52.8398 20.8898 53.3399 21.1895 53.8998 21.3696C54.5198 21.5895 55.1598 21.6896 55.7998 21.6896C56.9598 21.6896 57.9197 21.3696 58.6597 20.7495C59.4197 20.0697 59.9998 19.1894 60.2796 18.1896L63.9995 6.06996C64.0796 5.84999 64.0995 5.63002 64.0194 5.42999C63.9995 5.28974 63.8596 5.11 63.5193 5.12993L63.5197 5.13065Z" fill="#131E32"/>
</svg>
