<svg width="14" height="14" viewBox="0 0 14 14" fill="none" xmlns="http://www.w3.org/2000/svg">
<path d="M7.2155 13.3753C3.5336 13.3753 0.548828 10.3906 0.548828 6.70866C0.548828 3.02676 3.5336 0.0419922 7.2155 0.0419922C10.8974 0.0419922 13.8822 3.02676 13.8822 6.70866C13.8781 10.3889 10.8957 13.3713 7.2155 13.3753ZM1.88216 6.82333C1.91371 9.75749 4.30957 12.115 7.24385 12.0993C10.1781 12.0835 12.5485 9.70032 12.5485 6.76599C12.5485 3.83166 10.1781 1.44851 7.24385 1.43266C4.30957 1.41696 1.91371 3.7745 1.88216 6.70866V6.82333ZM7.88216 10.042H6.54883V7.37533H3.88216V6.04199H6.54883V3.37533H7.88216V6.04199H10.5488V7.37533H7.88216V10.042Z" fill="#BFBFBF"/>
</svg>
