<svg width="120" height="120" viewBox="0 0 120 120" fill="none" xmlns="http://www.w3.org/2000/svg">
<path d="M15.5992 32.4004C14.9627 32.4004 14.3523 32.6532 13.9022 33.1033C13.4521 33.5534 13.1992 34.1639 13.1992 34.8004C13.1992 35.4369 13.4521 36.0474 13.9022 36.4974C14.3523 36.9475 14.9627 37.2004 15.5992 37.2004C16.2357 37.2004 16.8462 36.9475 17.2963 36.4974C17.7464 36.0474 17.9992 35.4369 17.9992 34.8004C17.9992 34.1639 17.7464 33.5534 17.2963 33.1033C16.8462 32.6532 16.2357 32.4004 15.5992 32.4004Z" fill="#0072EF"/>
<path d="M92.3992 14.4004C92.081 14.4004 91.7757 14.5268 91.5507 14.7519C91.3256 14.9769 91.1992 15.2821 91.1992 15.6004C91.1992 15.9187 91.3256 16.2239 91.5507 16.4489C91.7757 16.674 92.081 16.8004 92.3992 16.8004C92.7175 16.8004 93.0227 16.674 93.2477 16.4489C93.4728 16.2239 93.5992 15.9187 93.5992 15.6004C93.5992 15.2821 93.4728 14.9769 93.2477 14.7519C93.0227 14.5268 92.7175 14.4004 92.3992 14.4004Z" fill="#E6F7FF"/>
<path d="M60.0016 15.5996C48.226 15.5996 36.9326 20.2775 28.606 28.6041C20.2794 36.9307 15.6016 48.224 15.6016 59.9996C15.6016 71.7752 20.2794 83.0685 28.606 91.3951C36.9326 99.7218 48.226 104.4 60.0016 104.4C71.7772 104.4 83.0705 99.7218 91.3971 91.3951C99.7237 83.0685 104.402 71.7752 104.402 59.9996C104.402 48.224 99.7237 36.9307 91.3971 28.6041C83.0705 20.2775 71.7772 15.5996 60.0016 15.5996Z" fill="#E6F7FF"/>
<path d="M99.6008 13.1992C98.3277 13.1992 97.1068 13.7049 96.2067 14.6051C95.3065 15.5053 94.8008 16.7262 94.8008 17.9992C94.8008 19.2723 95.3065 20.4932 96.2067 21.3933C97.1068 22.2935 98.3277 22.7992 99.6008 22.7992C100.874 22.7992 102.095 22.2935 102.995 21.3933C103.895 20.4932 104.401 19.2723 104.401 17.9992C104.401 16.7262 103.895 15.5053 102.995 14.6051C102.095 13.7049 100.874 13.1992 99.6008 13.1992Z" fill="#E6F7FF"/>
<path d="M104.4 26.4004C103.763 26.4004 103.153 26.6532 102.703 27.1033C102.253 27.5534 102 28.1639 102 28.8004C102 29.4369 102.253 30.0474 102.703 30.4974C103.153 30.9475 103.763 31.2004 104.4 31.2004C105.037 31.2004 105.647 30.9475 106.097 30.4974C106.547 30.0474 106.8 29.4369 106.8 28.8004C106.8 28.1639 106.547 27.5534 106.097 27.1033C105.647 26.6532 105.037 26.4004 104.4 26.4004Z" fill="#0072EF"/>
<path d="M97.1992 88.8008C96.5627 88.8008 95.9522 89.0536 95.5022 89.5037C95.0521 89.9538 94.7992 90.5643 94.7992 91.2008C94.7992 91.8373 95.0521 92.4478 95.5022 92.8978C95.9522 93.3479 96.5627 93.6008 97.1992 93.6008C97.8357 93.6008 98.4462 93.3479 98.8963 92.8978C99.3464 92.4478 99.5992 91.8373 99.5992 91.2008C99.5992 90.5643 99.3464 89.9538 98.8963 89.5037C98.4462 89.0536 97.8357 88.8008 97.1992 88.8008ZM17.9992 70.8008C16.7262 70.8008 15.5053 71.3065 14.6051 72.2067C13.7049 73.1068 13.1992 74.3277 13.1992 75.6008C13.1992 76.8738 13.7049 78.0947 14.6051 78.9949C15.5053 79.8951 16.7262 80.4008 17.9992 80.4008C19.2723 80.4008 20.4932 79.8951 21.3933 78.9949C22.2935 78.0947 22.7992 76.8738 22.7992 75.6008C22.7992 74.3277 22.2935 73.1068 21.3933 72.2067C20.4932 71.3065 19.2723 70.8008 17.9992 70.8008Z" fill="#E6F7FF"/>
<path d="M30.0016 102C29.365 102 28.7546 102.253 28.3045 102.703C27.8544 103.153 27.6016 103.763 27.6016 104.4C27.6016 105.037 27.8544 105.647 28.3045 106.097C28.7546 106.547 29.365 106.8 30.0016 106.8C30.6381 106.8 31.2485 106.547 31.6986 106.097C32.1487 105.647 32.4016 105.037 32.4016 104.4C32.4016 103.763 32.1487 103.153 31.6986 102.703C31.2485 102.253 30.6381 102 30.0016 102Z" fill="#0072EF"/>
<path d="M22.1992 61.1992C21.4036 61.1992 20.6405 61.5153 20.0779 62.0779C19.5153 62.6405 19.1992 63.4036 19.1992 64.1992C19.1992 64.9949 19.5153 65.7579 20.0779 66.3205C20.6405 66.8832 21.4036 67.1992 22.1992 67.1992C22.9949 67.1992 23.7579 66.8832 24.3205 66.3205C24.8831 65.7579 25.1992 64.9949 25.1992 64.1992C25.1992 63.4036 24.8831 62.6405 24.3205 62.0779C23.7579 61.5153 22.9949 61.1992 22.1992 61.1992Z" fill="white"/>
<path d="M25.2 79.1992C24.8817 79.1992 24.5765 79.3256 24.3515 79.5507C24.1264 79.7757 24 80.081 24 80.3992C24 80.7175 24.1264 81.0227 24.3515 81.2477C24.5765 81.4728 24.8817 81.5992 25.2 81.5992C25.5183 81.5992 25.8235 81.4728 26.0485 81.2477C26.2736 81.0227 26.4 80.7175 26.4 80.3992C26.4 80.081 26.2736 79.7757 26.0485 79.5507C25.8235 79.3256 25.5183 79.1992 25.2 79.1992Z" fill="#E6F7FF"/>
<path d="M96.0008 39.5996C95.6825 39.5996 95.3773 39.726 95.1523 39.9511C94.9272 40.1761 94.8008 40.4813 94.8008 40.7996C94.8008 41.1179 94.9272 41.4231 95.1523 41.6481C95.3773 41.8732 95.6825 41.9996 96.0008 41.9996C96.319 41.9996 96.6243 41.8732 96.8493 41.6481C97.0744 41.4231 97.2008 41.1179 97.2008 40.7996C97.2008 40.4813 97.0744 40.1761 96.8493 39.9511C96.6243 39.726 96.319 39.5996 96.0008 39.5996Z" fill="white"/>
<path d="M41.9983 86.7602C37.1683 86.7602 33.2383 82.8314 33.2383 78.0002V42.0002C33.2383 37.1702 37.1671 33.2402 41.9983 33.2402H77.9983C82.8283 33.2402 86.7583 37.169 86.7583 42.0002V78.0002C86.7583 82.8302 82.8295 86.7602 77.9983 86.7602H41.9983Z" fill="#0072EF"/>
<path d="M77.9984 34.0804C82.3652 34.0804 85.9184 37.6336 85.9184 42.0004V78.0004C85.9184 82.3672 82.3652 85.9204 77.9984 85.9204H41.9984C37.6316 85.9204 34.0784 82.3672 34.0784 78.0004V42.0004C34.0784 37.6336 37.6316 34.0804 41.9984 34.0804H77.9984ZM77.9984 32.4004H41.9984C36.7184 32.4004 32.3984 36.7204 32.3984 42.0004V78.0004C32.3984 83.2804 36.7184 87.6004 41.9984 87.6004H77.9984C83.2784 87.6004 87.5984 83.2804 87.5984 78.0004V42.0004C87.5984 36.7204 83.2784 32.4004 77.9984 32.4004Z" fill="#472B29"/>
<path d="M82.2016 56.85C81.8704 56.85 81.6016 56.5812 81.6016 56.25V51.6C81.6016 51.2688 81.8704 51 82.2016 51C82.5328 51 82.8016 51.2688 82.8016 51.6V56.25C82.8016 56.5812 82.5328 56.85 82.2016 56.85Z" fill="#472B29"/>
<path d="M82.2016 48.6C81.8704 48.6 81.6016 48.3312 81.6016 48V45.6C81.6016 45.2688 81.8704 45 82.2016 45C82.5328 45 82.8016 45.2688 82.8016 45.6V48C82.8016 48.3312 82.5328 48.6 82.2016 48.6Z" fill="#472B29"/>
<path d="M76.7992 82.7992H43.1992C39.8908 82.7992 37.1992 80.1076 37.1992 76.7992V43.1992C37.1992 39.8908 39.8908 37.1992 43.1992 37.1992H73.6492C73.9804 37.1992 74.2492 37.468 74.2492 37.7992C74.2492 38.1304 73.9804 38.3992 73.6492 38.3992H43.1992C40.552 38.3992 38.3992 40.552 38.3992 43.1992V76.7992C38.3992 79.4464 40.552 81.5992 43.1992 81.5992H76.7992C79.4464 81.5992 81.5992 79.4464 81.5992 76.7992V59.5492C81.5992 59.218 81.868 58.9492 82.1992 58.9492C82.5304 58.9492 82.7992 59.218 82.7992 59.5492V76.7992C82.7992 80.1076 80.1076 82.7992 76.7992 82.7992Z" fill="#472B29"/>
<path d="M59.9999 44.4023C51.3995 44.4023 44.4023 51.3995 44.4023 59.9999C44.4023 64.2515 46.1159 68.1083 48.8855 70.9259C48.9143 70.9607 48.9383 70.9979 48.9707 71.0303C49.0043 71.0639 49.0415 71.0867 49.0763 71.1155C51.8927 73.8851 55.7495 75.5987 60.0011 75.5987C68.6015 75.5987 75.5999 68.6015 75.5999 59.9999C75.5975 51.3995 68.6003 44.4023 59.9999 44.4023ZM59.9999 47.4431C62.9147 47.4431 65.5943 48.4511 67.7279 50.1239L50.1227 67.7279C48.4499 65.5943 47.4419 62.9147 47.4419 59.9999C47.4419 53.0759 53.0759 47.4431 59.9999 47.4431ZM59.9999 72.5591C57.0851 72.5591 54.4055 71.5511 52.2719 69.8783L69.8783 52.2731C71.5511 54.4067 72.5591 57.0863 72.5591 60.0011C72.5579 66.9251 66.9251 72.5591 59.9999 72.5591Z" fill="#E6F7FF"/>
<path d="M60.0004 75.8992C55.8172 75.8992 51.8632 74.2756 48.8656 71.3296C48.8224 71.2984 48.7888 71.272 48.7588 71.242C48.7288 71.2132 48.7024 71.1784 48.676 71.1448C45.7252 68.1376 44.1016 64.1824 44.1016 60.0004C44.1016 51.2332 51.2332 44.1016 59.9992 44.1016C68.764 44.1016 75.8968 51.2332 75.8992 60.0004C75.8992 68.7676 68.7676 75.8992 60.0004 75.8992ZM59.9992 44.7016C51.5644 44.7016 44.7016 51.5644 44.7016 60.0004C44.7016 64.0252 46.2628 67.8292 49.0984 70.7164L49.2868 70.9012C52.1716 73.7368 55.9756 75.2992 60.0004 75.2992C68.4364 75.2992 75.2992 68.4364 75.2992 60.0004C75.2968 51.5644 68.4328 44.7016 59.9992 44.7016ZM59.9992 72.8584C57.1132 72.8584 54.3772 71.9092 52.0864 70.114L51.82 69.9052L69.904 51.8212L70.1128 52.0876C71.908 54.3784 72.8572 57.1144 72.8572 60.0016C72.8572 67.09 67.09 72.8584 59.9992 72.8584ZM52.726 69.8476C54.8524 71.4256 57.3604 72.2584 59.9992 72.2584C66.7588 72.2584 72.2572 66.76 72.2572 60.0004C72.2572 57.3616 71.4244 54.8536 69.8464 52.726L52.726 69.8476ZM50.0944 68.1784L49.8856 67.912C48.0904 65.6224 47.1412 62.8864 47.1412 59.9992C47.1412 52.9084 52.9096 47.14 59.9992 47.14C62.8876 47.14 65.6236 48.0892 67.912 49.8856L68.1784 50.0944L50.0944 68.1784ZM59.9992 47.7412C53.2408 47.7412 47.7412 53.2408 47.7412 60.0004C47.7412 62.6392 48.5728 65.146 50.152 67.2736L67.2724 50.1532C65.1472 48.5752 62.6392 47.7412 59.9992 47.7412Z" fill="#472B29"/>
</svg>
