<svg width="400" height="300" viewBox="0 0 400 300" fill="none" xmlns="http://www.w3.org/2000/svg">
<circle cx="200" cy="149.526" r="140" fill="#F5F5F5"/>
<g clip-path="url(#clip0)">
<path d="M21.2595 299.739L20.8178 298.922C26.7404 295.719 34.1115 291.733 37.9614 285.191C41.7567 278.742 41.8418 269.986 38.1837 262.338C35.0705 255.829 29.3519 249.998 21.646 245.474C20.126 244.582 18.5305 243.736 16.9874 242.918C13.2576 240.942 9.40084 238.898 6.2207 235.998C1.84068 232.003 -1.47335 225.3 0.996715 219.33C1.80906 217.424 3.13946 215.784 4.83684 214.597C6.53423 213.409 8.53059 212.721 10.5993 212.611L10.6516 213.539C8.7565 213.639 6.92747 214.269 5.37213 215.356C3.81678 216.444 2.59741 217.946 1.85238 219.691C-0.44296 225.239 2.70623 231.535 6.84657 235.311C9.93975 238.132 13.7437 240.148 17.4223 242.098C18.9742 242.92 20.5789 243.771 22.1163 244.673C29.9825 249.291 35.8282 255.26 39.0215 261.937C42.8112 269.86 42.7118 278.951 38.7619 285.662C34.7807 292.427 27.2836 296.481 21.2595 299.739Z" fill="#F1F1F1"/>
<path d="M16.4863 217.506C20.9747 217.506 24.6132 215.739 24.6132 213.559C24.6132 211.379 20.9747 209.611 16.4863 209.611C11.9979 209.611 8.35938 211.379 8.35938 213.559C8.35938 215.739 11.9979 217.506 16.4863 217.506Z" fill="#F1F1F1"/>
<path d="M22.9883 243.514C27.4766 243.514 31.1152 241.747 31.1152 239.567C31.1152 237.386 27.4766 235.619 22.9883 235.619C18.4999 235.619 14.8613 237.386 14.8613 239.567C14.8613 241.747 18.4999 243.514 22.9883 243.514Z" fill="#F1F1F1"/>
<path d="M8.12693 247.692C12.6153 247.692 16.2539 245.924 16.2539 243.744C16.2539 241.564 12.6153 239.797 8.12693 239.797C3.63855 239.797 0 241.564 0 243.744C0 245.924 3.63855 247.692 8.12693 247.692Z" fill="#F1F1F1"/>
<path d="M31.3476 269.52C35.836 269.52 39.4746 267.752 39.4746 265.572C39.4746 263.392 35.836 261.625 31.3476 261.625C26.8593 261.625 23.2207 263.392 23.2207 265.572C23.2207 267.752 26.8593 269.52 31.3476 269.52Z" fill="#F1F1F1"/>
<path d="M47.5996 269.52C52.088 269.52 55.7265 267.752 55.7265 265.572C55.7265 263.392 52.088 261.625 47.5996 261.625C43.1112 261.625 39.4727 263.392 39.4727 265.572C39.4727 267.752 43.1112 269.52 47.5996 269.52Z" fill="#F1F1F1"/>
<path d="M102.387 203.358H121.568C122.877 195.791 122.877 188.055 121.568 180.488H102.387C104.548 187.958 104.548 195.888 102.387 203.358Z" fill="#0072EF"/>
<path d="M43.1923 294.15H48.4595L50.9654 273.834L43.1914 273.834L43.1923 294.15Z" fill="#FFB7B7"/>
<path d="M41.8496 292.43L52.2225 292.43H52.223C53.9761 292.43 55.6574 293.126 56.8971 294.366C58.1368 295.606 58.8333 297.287 58.8334 299.04V299.255L41.8499 299.255L41.8496 292.43Z" fill="#262626"/>
<path d="M106.474 293.978L111.589 292.719L109.168 272.393L101.619 274.251L106.474 293.978Z" fill="#FFB7B7"/>
<path d="M104.758 292.627L114.83 290.149L114.831 290.148C116.533 289.73 118.332 290.004 119.832 290.912C121.332 291.819 122.41 293.285 122.829 294.988L122.88 295.196L106.389 299.255L104.758 292.627Z" fill="#262626"/>
<path d="M39.9531 289.307L41.0473 283.708C41.0473 283.708 43.0614 262.093 57.5158 240.521L62.2207 217.087C62.2207 217.087 60.8234 199.349 74.3096 189.747L78.4674 186.883L93.0448 187.718L96.4116 206.151L103.195 249.764C103.195 249.764 104.946 249.928 105.602 254.972C106.937 257.09 107.726 259.505 107.9 262.002C107.9 262.002 111.372 271.579 112.302 278.631L112.193 285.531L104.862 289.437L89.5824 246.226L78.654 222.068C78.654 222.068 73.3941 239.089 65.3375 253.67C65.3375 253.67 54.3028 277.554 52.0983 282.407L49.6911 290.348L39.9531 289.307Z" fill="#0050B3"/>
<path d="M88.6929 149.792C94.4473 149.792 99.1123 145.127 99.1123 139.373C99.1123 133.618 94.4473 128.953 88.6929 128.953C82.9384 128.953 78.2734 133.618 78.2734 139.373C78.2734 145.127 82.9384 149.792 88.6929 149.792Z" fill="#FFB7B7"/>
<path d="M88.6929 149.792C94.4473 149.792 99.1123 145.127 99.1123 139.373C99.1123 133.618 94.4473 128.953 88.6929 128.953C82.9384 128.953 78.2734 133.618 78.2734 139.373C78.2734 145.127 82.9384 149.792 88.6929 149.792Z" fill="#FFB8B8"/>
<path d="M74.3398 189.856L77.7794 181.264C75.3492 173.393 75.4982 164.951 78.2046 157.17L78.8626 156.628C84.5956 151.907 89.6274 152.766 94.2968 158.542C95.0486 159.48 95.9281 160.31 96.9095 161.005C98.9689 162.45 102.236 170.3 97.9222 174.901L94.4711 195.033C94.8345 206.147 86.7691 201.962 74.3398 189.856Z" fill="#80D89F"/>
<path d="M104.883 201.725C104.813 201.172 104.623 200.64 104.326 200.169C104.028 199.697 103.631 199.296 103.162 198.994C102.693 198.692 102.164 198.497 101.611 198.422C101.059 198.347 100.496 198.394 99.9638 198.56L86.881 179.752H79.8906L97.5027 203.61C97.8406 204.486 98.4882 205.208 99.3226 205.638C100.157 206.069 101.12 206.178 102.03 205.946C102.94 205.713 103.733 205.155 104.259 204.377C104.784 203.6 105.007 202.656 104.883 201.725Z" fill="#FFB7B7"/>
<path d="M79.0742 180.681L83.1173 165.485C83.7838 164.114 84.9676 163.063 86.4084 162.565C87.8492 162.066 89.4291 162.159 90.8009 162.825C92.1727 163.49 93.2241 164.673 93.7241 166.114C94.224 167.554 94.1315 169.134 93.467 170.507L88.6262 180.506V180.681H79.0742Z" fill="#0050B3"/>
<path d="M70.1211 137.092C75.6419 137.092 80.1173 132.616 80.1173 127.096C80.1173 121.575 75.6419 117.1 70.1211 117.1C64.6004 117.1 60.125 121.575 60.125 127.096C60.125 132.616 64.6004 137.092 70.1211 137.092Z" fill="#262626"/>
<path d="M61.4981 135.374C62.7919 136.309 64.2909 136.92 65.8695 137.157C67.4482 137.394 69.0607 137.25 70.5721 136.736C72.0835 136.222 73.4498 135.354 74.5568 134.204C75.6638 133.053 76.4792 131.655 76.9348 130.125C76.7624 131.496 76.3076 132.816 75.5991 134.003C74.8906 135.189 73.9438 136.216 72.8185 137.018C71.6932 137.82 70.4139 138.38 69.0612 138.663C67.7085 138.945 66.312 138.945 64.9596 138.66C63.6073 138.376 62.3286 137.814 61.2043 137.011C60.0799 136.208 59.1344 135.18 58.4273 133.993C57.7202 132.805 57.267 131.484 57.0962 130.113C56.9254 128.742 57.0408 127.35 57.435 126.025C57.2111 127.805 57.4702 129.612 58.1851 131.256C58.9 132.901 60.0443 134.323 61.4981 135.374Z" fill="#262626"/>
<path d="M100.948 135.382C99.2033 132.258 98.5356 130.953 96.2855 129.053C94.2958 127.373 91.8484 126.88 89.8743 128.472C87.539 127.463 84.9405 127.234 82.4649 127.819C79.9892 128.405 77.7684 129.773 76.1324 131.721C74.4963 133.669 73.5323 136.093 73.3835 138.633C73.2347 141.172 73.9091 143.692 75.3065 145.818C76.7038 147.944 78.7496 149.562 81.14 150.432C83.5304 151.303 86.1378 151.379 88.5749 150.65C91.012 149.92 93.1489 148.424 94.668 146.384C96.1872 144.343 97.0076 141.867 97.0074 139.323C97.0056 138.876 96.9788 138.43 96.9269 137.986C98.6428 137.745 99.2325 135.623 100.948 135.382Z" fill="#262626"/>
<path d="M151.082 299.999H9.44096C9.31779 299.999 9.19967 299.95 9.11258 299.863C9.02549 299.776 8.97656 299.658 8.97656 299.535C8.97656 299.412 9.02549 299.293 9.11258 299.206C9.19967 299.119 9.31779 299.07 9.44096 299.07H151.082C151.205 299.07 151.323 299.119 151.41 299.206C151.497 299.293 151.546 299.412 151.546 299.535C151.546 299.658 151.497 299.776 151.41 299.863C151.323 299.95 151.205 299.999 151.082 299.999Z" fill="#CBCBCB"/>
<path d="M367.077 37.4506H366.644V25.5932C366.644 24.692 366.466 23.7996 366.122 22.967C365.777 22.1343 365.271 21.3778 364.634 20.7405C363.997 20.1033 363.24 19.5978 362.407 19.2529C361.575 18.908 360.682 18.7305 359.781 18.7305H334.66C333.758 18.7305 332.866 18.908 332.033 19.2529C331.201 19.5977 330.444 20.1032 329.807 20.7405C329.17 21.3778 328.664 22.1343 328.319 22.9669C327.974 23.7996 327.797 24.692 327.797 25.5932V90.6438C327.797 92.4639 328.52 94.2095 329.807 95.4965C331.094 96.7835 332.839 97.5065 334.66 97.5065H359.781C361.601 97.5066 363.347 96.7835 364.634 95.4965C365.921 94.2095 366.644 92.4639 366.644 90.6438V45.8909H367.077V37.4506Z" fill="#E5E5E5"/>
<path d="M359.772 20.5156H356.493C356.643 20.8853 356.701 21.2865 356.66 21.6837C356.619 22.0809 356.482 22.462 356.259 22.7934C356.036 23.1248 355.735 23.3963 355.383 23.5841C355.031 23.7718 354.638 23.8701 354.238 23.8701H339.846C339.447 23.8701 339.054 23.7719 338.702 23.5841C338.349 23.3963 338.048 23.1248 337.826 22.7934C337.603 22.462 337.465 22.0809 337.424 21.6837C337.384 21.2865 337.441 20.8853 337.592 20.5156H334.529C333.17 20.5156 331.867 21.0556 330.905 22.0167C329.944 22.9778 329.404 24.2814 329.404 25.6406V90.5958C329.404 91.9551 329.944 93.2586 330.905 94.2198C331.867 95.1809 333.17 95.7208 334.529 95.7208H359.772C360.445 95.7208 361.111 95.5883 361.733 95.3307C362.355 95.0732 362.92 94.6957 363.396 94.2198C363.872 93.7439 364.249 93.1789 364.507 92.5571C364.764 91.9353 364.897 91.2689 364.897 90.5958V25.6407C364.897 24.9676 364.764 24.3012 364.507 23.6794C364.249 23.0576 363.872 22.4926 363.396 22.0167C362.92 21.5408 362.355 21.1633 361.733 20.9058C361.111 20.6482 360.445 20.5156 359.772 20.5156Z" fill="white"/>
<path d="M360.553 44.332H344.902V45.572H360.553V44.332Z" fill="#E5E5E5"/>
<path d="M360.553 48.2578H344.902V49.4978H360.553V48.2578Z" fill="#E5E5E5"/>
<path d="M360.553 52.1836H344.902V53.4236H360.553V52.1836Z" fill="#E5E5E5"/>
<path d="M341.881 45.0977H334.32V52.6583H341.881V45.0977Z" fill="#E5E5E5"/>
<path d="M339.489 71.9066C341.307 71.9066 342.78 70.4335 342.78 68.6164C342.78 66.7992 341.307 65.3262 339.489 65.3262C337.672 65.3262 336.199 66.7992 336.199 68.6164C336.199 70.4335 337.672 71.9066 339.489 71.9066Z" fill="#0072EF"/>
<path d="M348.265 71.3048C349.75 71.3048 350.953 70.1011 350.953 68.6163C350.953 67.1314 349.75 65.9277 348.265 65.9277C346.78 65.9277 345.576 67.1314 345.576 68.6163C345.576 70.1011 346.78 71.3048 348.265 71.3048Z" fill="#0072EF"/>
<path d="M357.038 70.2519C357.941 70.2519 358.674 69.5195 358.674 68.6162C358.674 67.7128 357.941 66.9805 357.038 66.9805C356.135 66.9805 355.402 67.7128 355.402 68.6162C355.402 69.5195 356.135 70.2519 357.038 70.2519Z" fill="#0072EF"/>
<path d="M252.412 93.9439H194.743C193.377 93.9424 192.066 93.3987 191.1 92.4322C190.133 91.4657 189.589 90.1552 189.588 88.7884V5.15555C189.589 3.78868 190.133 2.47824 191.1 1.51173C192.066 0.545207 193.377 0.00154258 194.743 0H252.412C253.779 0.00154258 255.09 0.545207 256.056 1.51173C257.023 2.47824 257.566 3.78868 257.568 5.15555V88.7884C257.566 90.1552 257.023 91.4657 256.056 92.4322C255.09 93.3987 253.779 93.9424 252.412 93.9439Z" fill="#E5E5E5"/>
<path d="M252.514 90.6543H194.642C194.221 90.6538 193.817 90.4862 193.519 90.1882C193.221 89.8903 193.053 89.4864 193.053 89.065V4.87832C193.053 4.45697 193.221 4.05302 193.519 3.75508C193.817 3.45714 194.221 3.28954 194.642 3.28906H252.514C252.935 3.28954 253.339 3.45714 253.637 3.75508C253.935 4.05302 254.103 4.45697 254.103 4.87832V89.065C254.103 89.4864 253.935 89.8903 253.637 90.1882C253.339 90.4862 252.935 90.6538 252.514 90.6543Z" fill="white"/>
<path d="M223.359 2.01899C223.602 2.01899 223.798 1.82236 223.798 1.57981C223.798 1.33725 223.602 1.14062 223.359 1.14062C223.117 1.14062 222.92 1.33725 222.92 1.57981C222.92 1.82236 223.117 2.01899 223.359 2.01899Z" fill="white"/>
<path d="M247.563 29.1074H215.375V30.9568H247.563V29.1074Z" fill="#E5E5E5"/>
<path d="M247.563 34.9648H215.375V36.8143H247.563V34.9648Z" fill="#E5E5E5"/>
<path d="M247.563 40.8223H215.375V42.6717H247.563V40.8223Z" fill="#E5E5E5"/>
<path d="M210.87 30.252H199.594V41.5284H210.87V30.252Z" fill="#E5E5E5"/>
<path d="M212.756 64.8362C215.231 64.8362 217.237 62.8302 217.237 60.3556C217.237 57.881 215.231 55.875 212.756 55.875C210.281 55.875 208.275 57.881 208.275 60.3556C208.275 62.8302 210.281 64.8362 212.756 64.8362Z" fill="#0072EF"/>
<path d="M224.704 64.0159C226.726 64.0159 228.366 62.3767 228.366 60.3546C228.366 58.3326 226.726 56.6934 224.704 56.6934C222.682 56.6934 221.043 58.3326 221.043 60.3546C221.043 62.3767 222.682 64.0159 224.704 64.0159Z" fill="#0072EF"/>
<path d="M236.653 62.5839C237.883 62.5839 238.881 61.5866 238.881 60.3564C238.881 59.1262 237.883 58.1289 236.653 58.1289C235.423 58.1289 234.426 59.1262 234.426 60.3564C234.426 61.5866 235.423 62.5839 236.653 62.5839Z" fill="#0072EF"/>
<path d="M362.067 101.682H191.918C191.303 101.682 190.694 101.803 190.125 102.038C189.557 102.273 189.041 102.618 188.606 103.053C188.171 103.488 187.826 104.004 187.591 104.573C187.356 105.141 187.234 105.75 187.234 106.365V201.169C187.234 202.411 187.728 203.602 188.606 204.481C189.484 205.359 190.676 205.852 191.918 205.852H362.067C363.309 205.852 364.5 205.359 365.379 204.481C366.257 203.602 366.75 202.411 366.75 201.169V106.365C366.75 105.123 366.257 103.932 365.379 103.053C364.5 102.175 363.309 101.682 362.067 101.682Z" fill="#3F3D56"/>
<path d="M360.472 109.957H193.514V204.139H360.472V109.957Z" fill="white"/>
<path d="M276.851 107.388C277.797 107.388 278.563 106.621 278.563 105.675C278.563 104.73 277.797 103.963 276.851 103.963C275.905 103.963 275.139 104.73 275.139 105.675C275.139 106.621 275.905 107.388 276.851 107.388Z" fill="white"/>
<path d="M371.438 202.426H355.144V201.252C355.144 201.222 355.138 201.192 355.127 201.163C355.115 201.135 355.098 201.109 355.076 201.088C355.055 201.066 355.029 201.049 355.001 201.037C354.972 201.026 354.942 201.02 354.912 201.02H349.325C349.294 201.02 349.264 201.026 349.236 201.037C349.208 201.049 349.182 201.066 349.16 201.088C349.139 201.109 349.122 201.135 349.11 201.163C349.098 201.191 349.092 201.222 349.092 201.252V202.426H345.601V201.252C345.601 201.222 345.595 201.191 345.583 201.163C345.571 201.135 345.554 201.109 345.532 201.088C345.511 201.066 345.485 201.049 345.457 201.037C345.429 201.026 345.398 201.02 345.368 201.02H339.781C339.751 201.02 339.721 201.026 339.692 201.037C339.664 201.049 339.638 201.066 339.617 201.088C339.595 201.109 339.578 201.135 339.566 201.163C339.555 201.191 339.549 201.222 339.549 201.252V202.426H336.057V201.252C336.057 201.222 336.051 201.191 336.039 201.163C336.028 201.135 336.01 201.109 335.989 201.088C335.967 201.066 335.942 201.049 335.913 201.037C335.885 201.026 335.855 201.02 335.824 201.02H330.238C330.207 201.02 330.177 201.026 330.149 201.037C330.12 201.049 330.095 201.066 330.073 201.088C330.051 201.109 330.034 201.135 330.023 201.163C330.011 201.191 330.005 201.222 330.005 201.252V202.426H326.513V201.252C326.513 201.222 326.507 201.191 326.496 201.163C326.484 201.135 326.467 201.109 326.445 201.088C326.424 201.066 326.398 201.049 326.37 201.037C326.341 201.026 326.311 201.02 326.281 201.02H320.694C320.663 201.02 320.633 201.026 320.605 201.037C320.577 201.049 320.551 201.066 320.529 201.088C320.508 201.109 320.491 201.135 320.479 201.163C320.467 201.191 320.461 201.222 320.461 201.252V202.426H316.97V201.252C316.97 201.222 316.964 201.191 316.952 201.163C316.94 201.135 316.923 201.109 316.902 201.088C316.88 201.066 316.854 201.049 316.826 201.037C316.798 201.026 316.767 201.02 316.737 201.02H311.15C311.12 201.02 311.09 201.026 311.061 201.037C311.033 201.049 311.007 201.066 310.986 201.088C310.964 201.109 310.947 201.135 310.935 201.163C310.924 201.191 310.918 201.222 310.918 201.252V202.426H307.426V201.252C307.426 201.222 307.42 201.191 307.408 201.163C307.397 201.135 307.379 201.109 307.358 201.088C307.336 201.066 307.311 201.049 307.282 201.037C307.254 201.026 307.224 201.02 307.193 201.02H301.607C301.576 201.02 301.546 201.026 301.518 201.037C301.489 201.049 301.464 201.066 301.442 201.088C301.42 201.109 301.403 201.135 301.392 201.163C301.38 201.191 301.374 201.222 301.374 201.252V202.426H297.882V201.252C297.882 201.222 297.876 201.191 297.865 201.163C297.853 201.135 297.836 201.109 297.814 201.088C297.793 201.066 297.767 201.049 297.739 201.037C297.71 201.026 297.68 201.02 297.65 201.02H253.888C253.858 201.02 253.828 201.026 253.799 201.037C253.771 201.049 253.745 201.066 253.724 201.088C253.702 201.109 253.685 201.135 253.673 201.163C253.662 201.191 253.656 201.222 253.656 201.252V202.426H250.164V201.252C250.164 201.222 250.158 201.191 250.146 201.163C250.135 201.135 250.118 201.109 250.096 201.088C250.074 201.066 250.049 201.049 250.02 201.037C249.992 201.026 249.962 201.02 249.931 201.02H244.345C244.314 201.02 244.284 201.026 244.256 201.037C244.227 201.049 244.202 201.066 244.18 201.088C244.159 201.109 244.141 201.135 244.13 201.163C244.118 201.191 244.112 201.222 244.112 201.252V202.426H240.62V201.252C240.62 201.222 240.614 201.191 240.603 201.163C240.591 201.135 240.574 201.109 240.552 201.088C240.531 201.066 240.505 201.049 240.477 201.037C240.448 201.026 240.418 201.02 240.388 201.02H234.801C234.771 201.02 234.74 201.026 234.712 201.037C234.684 201.049 234.658 201.066 234.636 201.088C234.615 201.109 234.598 201.135 234.586 201.163C234.574 201.191 234.568 201.222 234.568 201.252V202.426H231.077V201.252C231.077 201.222 231.071 201.191 231.059 201.163C231.047 201.135 231.03 201.109 231.009 201.088C230.987 201.066 230.961 201.049 230.933 201.037C230.905 201.026 230.875 201.02 230.844 201.02H225.257C225.227 201.02 225.197 201.026 225.168 201.037C225.14 201.049 225.114 201.066 225.093 201.088C225.071 201.109 225.054 201.135 225.042 201.163C225.031 201.191 225.025 201.222 225.025 201.252V202.426H221.533V201.252C221.533 201.222 221.527 201.191 221.515 201.163C221.504 201.135 221.486 201.109 221.465 201.088C221.443 201.066 221.418 201.049 221.389 201.037C221.361 201.026 221.331 201.02 221.3 201.02H215.714C215.683 201.02 215.653 201.026 215.625 201.037C215.596 201.049 215.571 201.066 215.549 201.088C215.528 201.109 215.51 201.135 215.499 201.163C215.487 201.191 215.481 201.222 215.481 201.252V202.426H211.989V201.252C211.989 201.222 211.983 201.191 211.972 201.163C211.96 201.135 211.943 201.109 211.921 201.088C211.9 201.066 211.874 201.049 211.846 201.037C211.817 201.026 211.787 201.02 211.757 201.02H206.17C206.108 201.02 206.049 201.044 206.006 201.088C205.962 201.131 205.937 201.191 205.937 201.252V202.426H202.446V201.252C202.446 201.222 202.44 201.191 202.428 201.163C202.416 201.135 202.399 201.109 202.378 201.088C202.356 201.066 202.33 201.049 202.302 201.037C202.274 201.026 202.244 201.02 202.213 201.02H196.626C196.565 201.02 196.505 201.044 196.462 201.088C196.418 201.131 196.394 201.191 196.394 201.252V202.426H185.686C184.953 202.426 184.226 202.571 183.548 202.852C182.87 203.132 182.255 203.544 181.736 204.063C181.217 204.581 180.806 205.197 180.525 205.875C180.244 206.553 180.1 207.279 180.1 208.013V210.539C180.1 212.021 180.688 213.442 181.736 214.489C182.784 215.537 184.205 216.125 185.686 216.125H371.438C372.92 216.125 374.341 215.537 375.389 214.489C376.436 213.442 377.025 212.021 377.025 210.539V208.013C377.025 207.279 376.88 206.553 376.6 205.875C376.319 205.197 375.907 204.581 375.389 204.063C374.87 203.544 374.254 203.132 373.576 202.852C372.898 202.571 372.172 202.426 371.438 202.426Z" fill="#3F3D56"/>
<path d="M314.209 118.924H260.219V120.93H314.209V118.924Z" fill="#CBCBCB"/>
<path d="M314.209 125.277H260.219V127.284H314.209V125.277Z" fill="#CBCBCB"/>
<path d="M314.209 131.631H260.219V133.637H314.209V131.631Z" fill="#CBCBCB"/>
<path d="M255.33 120.164H243.098V132.396H255.33V120.164Z" fill="#CBCBCB"/>
<path d="M276.864 186.594C288.686 186.594 298.27 177.01 298.27 165.188C298.27 153.365 288.686 143.781 276.864 143.781C265.041 143.781 255.457 153.365 255.457 165.188C255.457 177.01 265.041 186.594 276.864 186.594Z" fill="#0072EF"/>
<path d="M273.387 168.38H268.898L276.841 152.238L284.826 168.365H280.334V175.076H273.387V168.38Z" fill="white"/>
<path d="M163.862 87.7787C166.908 84.2122 171.092 81.8078 175.707 80.9729L173.656 79.2505L175.849 79.0605L178.656 81.4193L176.297 84.2256L174.104 84.4156L175.684 82.5363C171.032 83.4603 166.899 86.1025 164.107 89.9368C161.315 93.7712 160.07 98.5164 160.619 103.228C161.168 107.939 163.472 112.27 167.071 115.36C170.67 118.449 175.3 120.069 180.04 119.898L180.095 121.427C176.135 121.569 172.22 120.555 168.827 118.509C165.434 116.463 162.711 113.473 160.989 109.904C159.268 106.336 158.623 102.343 159.133 98.4139C159.643 94.4848 161.286 90.7892 163.862 87.7787Z" fill="#E5E5E5"/>
<path d="M394.724 101.774C394.53 107.181 392.196 112.289 388.235 115.974C384.275 119.66 379.012 121.621 373.605 121.427L373.66 119.898C378.4 120.069 383.031 118.449 386.63 115.36C390.229 112.27 392.532 107.939 393.082 103.228C393.631 98.5164 392.386 93.7712 389.594 89.9368C386.802 86.1025 382.668 83.4603 378.016 82.5363L379.597 84.4156L377.404 84.2256L375.045 81.4193L377.851 79.0605L380.044 79.2505L377.994 80.9729C382.817 81.8509 387.162 84.4364 390.235 88.2564C393.307 92.0763 394.901 96.8749 394.725 101.774H394.724Z" fill="#E5E5E5"/>
<path d="M398.987 216.409H154.714C154.591 216.409 154.473 216.36 154.386 216.273C154.299 216.186 154.25 216.068 154.25 215.945C154.25 215.822 154.299 215.704 154.386 215.616C154.473 215.529 154.591 215.48 154.714 215.48H398.987C399.11 215.48 399.228 215.529 399.315 215.616C399.402 215.704 399.451 215.822 399.451 215.945C399.451 216.068 399.402 216.186 399.315 216.273C399.228 216.36 399.11 216.409 398.987 216.409Z" fill="#CBCBCB"/>
</g>
<defs>
<clipPath id="clip0">
<rect width="399.451" height="300" fill="white"/>
</clipPath>
</defs>
</svg>
