<svg width="198" height="220" viewBox="0 0 198 220" fill="none" xmlns="http://www.w3.org/2000/svg">
<g clip-path="url(#clip0_31199_142607)">
<path d="M96.6353 167.828C112.185 167.828 124.79 155.223 124.79 139.673C124.79 124.124 112.185 111.519 96.6353 111.519C81.0858 111.519 68.4805 124.124 68.4805 139.673C68.4805 155.223 81.0858 167.828 96.6353 167.828Z" fill="#FF4D4F" fill-opacity="0.3"/>
<path d="M28.1583 208.182C27.5618 207.897 27.0532 207.455 26.6859 206.905C26.3186 206.355 26.1061 205.716 26.0708 205.056L25.6612 197.302C25.6107 196.327 25.949 195.372 26.602 194.646C27.255 193.92 28.1693 193.483 29.1443 193.431L93.7678 190.017C94.7428 189.966 95.6981 190.305 96.4239 190.957C97.1497 191.61 97.5869 192.525 97.6395 193.5L98.0491 201.253C98.0995 202.228 97.7611 203.183 97.1082 203.909C96.4552 204.635 95.541 205.072 94.5661 205.125L29.9425 208.539C29.3272 208.572 28.7136 208.449 28.1583 208.182Z" fill="#FF4D4F" fill-opacity="0.3"/>
<path d="M72.7071 208.334C72.0784 208.03 71.5487 207.554 71.1795 206.961C70.8104 206.368 70.6169 205.683 70.6215 204.984L70.5449 190.386C70.5484 189.902 70.6473 189.423 70.8359 188.978C71.0244 188.532 71.2989 188.128 71.6438 187.789C71.9886 187.449 72.397 187.181 72.8455 186.999C73.2941 186.818 73.774 186.727 74.2579 186.731L103.739 189.33C104.52 189.334 105.505 190.543 106.297 191.514C106.545 191.819 106.76 192.082 106.917 192.241C106.985 192.311 107.051 192.383 107.113 192.457C107.676 193.128 107.981 193.978 107.973 194.854L107.909 202.618C107.899 203.594 107.503 204.527 106.807 205.212C106.111 205.896 105.172 206.277 104.196 206.27L74.2962 208.696C73.7462 208.695 73.2034 208.571 72.7071 208.334Z" fill="#0072EF"/>
<path d="M100.384 150.109L100.413 149.057C98.4561 149.003 96.7304 148.88 95.4338 147.933C95.0661 147.649 94.764 147.289 94.5478 146.878C94.3316 146.467 94.2065 146.014 94.181 145.55C94.1582 145.267 94.2011 144.982 94.3063 144.718C94.4115 144.454 94.5761 144.218 94.7875 144.028C95.6483 143.301 97.0333 143.536 98.0428 143.999L98.9134 144.398L97.244 132.198L96.2016 132.341L97.6216 142.719C97.0403 142.503 96.4143 142.436 95.8007 142.525C95.187 142.613 94.6052 142.853 94.1084 143.224C93.7741 143.516 93.5118 143.881 93.342 144.291C93.1723 144.701 93.0996 145.145 93.1297 145.587C93.1604 146.21 93.327 146.819 93.6178 147.371C93.9086 147.923 94.3166 148.405 94.8132 148.782C96.4792 150 98.6444 150.06 100.384 150.109Z" fill="#2F2E41"/>
<path d="M91.0454 133.235H85.3789V134.288H91.0454V133.235Z" fill="#2F2E41"/>
<path d="M108.932 133.235H103.266V134.288H108.932V133.235Z" fill="#2F2E41"/>
<path d="M97.8518 193.344L156.47 165.926C157.355 165.513 158.367 165.468 159.285 165.801C160.203 166.134 160.951 166.817 161.366 167.701L164.655 174.734C165.068 175.619 165.113 176.631 164.78 177.549C164.447 178.467 163.764 179.215 162.88 179.63L104.262 207.048C103.377 207.461 102.365 207.506 101.447 207.173C100.529 206.84 99.7807 206.157 99.3661 205.273L96.0765 198.24C95.8706 197.802 95.7535 197.328 95.7321 196.845C95.7107 196.362 95.7854 195.879 95.9518 195.425C96.0818 195.065 96.2669 194.727 96.5005 194.424C96.8582 193.961 97.3216 193.591 97.8518 193.344Z" fill="#FF4D4F" fill-opacity="0.3"/>
<path d="M95.8409 193.175L121.648 177.792C122.528 177.37 123.539 177.314 124.46 177.637C125.381 177.959 126.137 178.633 126.561 179.512L133.07 192.587C133.28 193.025 133.402 193.499 133.428 193.984C133.455 194.468 133.385 194.953 133.223 195.411C133.061 195.869 132.81 196.29 132.485 196.65C132.16 197.01 131.767 197.302 131.328 197.51L103.76 208.16C103.038 208.507 101.62 207.857 100.482 207.335C100.124 207.171 99.816 207.029 99.6052 206.956C99.5125 206.923 99.4217 206.887 99.3334 206.848C98.5321 206.494 97.8835 205.866 97.5045 205.076L94.1391 198.079C93.843 197.462 93.7241 196.775 93.7957 196.095C93.8672 195.414 94.1265 194.767 94.5445 194.225C94.8887 193.779 95.3327 193.419 95.8409 193.175Z" fill="#0072EF"/>
<path d="M74.3977 125.03C74.0211 125.029 73.6602 124.879 73.3939 124.612C73.1277 124.346 72.9777 123.985 72.9767 123.608C72.975 123.496 72.9876 123.385 73.0141 123.276L80.3731 90.8616C80.4288 90.6174 80.5476 90.3923 80.7177 90.2085C80.8878 90.0248 81.1032 89.8889 81.3423 89.8145C81.5814 89.7401 81.8358 89.7299 82.0801 89.7847C82.3244 89.8396 82.55 89.9576 82.7344 90.127L107.131 112.719C107.315 112.889 107.45 113.105 107.525 113.344C107.599 113.583 107.609 113.837 107.554 114.081C107.499 114.326 107.381 114.551 107.212 114.735C107.042 114.92 106.828 115.056 106.589 115.131L74.8255 124.966C74.6868 125.008 74.5427 125.03 74.3977 125.03Z" fill="#0072EF"/>
<path d="M94.352 101.334L79.0273 98.284L79.2685 97.2197L92.8167 99.9132L94.352 101.334Z" fill="white"/>
<path d="M106.419 112.513L77.1191 106.683L77.3603 105.613L104.883 111.087L106.419 112.513Z" fill="white"/>
<path d="M95.9384 118.085L93.7391 118.765L75.2168 115.079L75.4579 114.01L95.9384 118.085Z" fill="white"/>
<path d="M167.379 125.526C169.933 125.526 172.003 123.455 172.003 120.901C172.003 118.347 169.933 116.276 167.379 116.276C164.824 116.276 162.754 118.347 162.754 120.901C162.754 123.455 164.824 125.526 167.379 125.526Z" fill="#0072EF"/>
<path d="M107.92 6.60661C109.745 6.60661 111.224 5.12767 111.224 3.3033C111.224 1.47894 109.745 0 107.92 0C106.096 0 104.617 1.47894 104.617 3.3033C104.617 5.12767 106.096 6.60661 107.92 6.60661Z" fill="#00B140"/>
<path d="M35.9068 109.009C37.7312 109.009 39.2101 107.53 39.2101 105.706C39.2101 103.881 37.7312 102.402 35.9068 102.402C34.0825 102.402 32.6035 103.881 32.6035 105.706C32.6035 107.53 34.0825 109.009 35.9068 109.009Z" fill="#00B140"/>
<path d="M151.524 97.7775C153.348 97.7775 154.827 96.2986 154.827 94.4742C154.827 92.6498 153.348 91.1709 151.524 91.1709C149.7 91.1709 148.221 92.6498 148.221 94.4742C148.221 96.2986 149.7 97.7775 151.524 97.7775Z" fill="#0072EF"/>
<path d="M51.1021 142.702C52.9265 142.702 54.4054 141.223 54.4054 139.399C54.4054 137.575 52.9265 136.096 51.1021 136.096C49.2778 136.096 47.7988 137.575 47.7988 139.399C47.7988 141.223 49.2778 142.702 51.1021 142.702Z" fill="#0072EF"/>
<path d="M155.487 151.952C157.311 151.952 158.79 150.473 158.79 148.649C158.79 146.825 157.311 145.346 155.487 145.346C153.663 145.346 152.184 146.825 152.184 148.649C152.184 150.473 153.663 151.952 155.487 151.952Z" fill="#E6E6E6"/>
<path d="M126.419 34.3547C128.243 34.3547 129.722 32.8757 129.722 31.0514C129.722 29.227 128.243 27.748 126.419 27.748C124.594 27.748 123.115 29.227 123.115 31.0514C123.115 32.8757 124.594 34.3547 126.419 34.3547Z" fill="#CCCCCC"/>
<path d="M1.5643 70.6753C5.0232 70.8932 8.38122 71.9277 11.3631 73.694C14.345 75.4603 16.8658 77.9081 18.719 80.8368C19.2384 81.667 19.9163 82.5794 19.5568 83.6014C19.4316 83.9932 19.1771 84.331 18.835 84.5594C18.4929 84.7879 18.0834 84.8936 17.6735 84.8592C17.1624 84.7491 16.7017 84.474 16.3625 84.0762C16.0232 83.6784 15.8243 83.1801 15.7963 82.658C15.7683 82.136 15.9129 81.6192 16.2077 81.1875C16.5025 80.7557 16.9312 80.4329 17.4276 80.2689C19.8265 79.2456 22.2469 80.8271 24.201 82.0892C28.6536 84.965 33.551 87.5659 38.9463 87.8936C43.9381 88.1968 49.2912 86.2395 52.0677 81.9106C52.5535 81.1533 51.3474 80.4534 50.864 81.207C48.1104 85.5002 42.5436 87.0422 37.7034 86.3786C34.819 85.9234 32.0338 84.9778 29.4685 83.5828C28.1381 82.8923 26.8478 82.127 25.5836 81.3225C24.3806 80.483 23.1055 79.7521 21.7733 79.1381C19.5515 78.2254 16.6102 78.2968 15.0582 80.3981C13.6103 82.3585 14.7293 85.6222 17.1509 86.1734C17.6822 86.2781 18.2311 86.2493 18.7485 86.0897C19.2659 85.9301 19.7356 85.6446 20.1155 85.2588C20.4954 84.873 20.7736 84.3989 20.9252 83.8791C21.0768 83.3593 21.0971 82.81 20.9841 82.2805C20.7425 81.126 19.8732 79.9963 19.2004 79.0527C17.1787 76.2086 14.5447 73.8544 11.4925 72.1633C8.44024 70.4722 5.04753 69.4873 1.56422 69.2813C0.667528 69.237 0.669866 70.631 1.56422 70.6753L1.5643 70.6753Z" fill="#CCCCCC"/>
<path d="M196.928 112.872C194.611 111.379 192.68 109.359 191.293 106.977C189.907 104.594 189.105 101.917 188.953 99.1648C188.914 98.3869 188.797 97.4905 189.443 96.9201C189.682 96.6965 189.99 96.5606 190.316 96.5345C190.642 96.5084 190.967 96.5938 191.239 96.7766C191.551 97.0511 191.764 97.4207 191.846 97.8285C191.927 98.2363 191.872 98.6595 191.689 99.0329C191.506 99.4063 191.205 99.7092 190.833 99.8947C190.461 100.08 190.038 100.138 189.63 100.06C187.567 99.8406 186.499 97.8041 185.632 96.1701C183.654 92.4469 181.261 88.7422 177.641 86.4233C174.292 84.2777 169.815 83.5621 166.209 85.4922C165.578 85.8299 166.144 86.7834 166.772 86.4474C170.349 84.5332 174.813 85.6201 177.917 87.9572C179.744 89.3914 181.311 91.1277 182.552 93.0909C183.209 94.0861 183.808 95.1178 184.374 96.1666C184.884 97.2159 185.486 98.2178 186.174 99.1606C187.363 100.656 189.433 101.746 191.326 100.889C191.747 100.67 192.112 100.356 192.391 99.9721C192.669 99.5877 192.854 99.1435 192.931 98.6749C193.007 98.2063 192.973 97.7263 192.83 97.2734C192.688 96.8205 192.442 96.4071 192.111 96.0664C191.783 95.7877 191.39 95.5949 190.969 95.5052C190.548 95.4155 190.111 95.4317 189.698 95.5524C189.284 95.6731 188.907 95.8945 188.6 96.1967C188.294 96.499 188.067 96.8726 187.94 97.2841C187.745 98.2517 187.741 99.248 187.927 100.217C188.229 102.976 189.146 105.632 190.61 107.99C192.074 110.347 194.049 112.346 196.388 113.84C196.994 114.218 197.532 113.249 196.928 112.872L196.928 112.872Z" fill="#CCCCCC"/>
<path d="M82.9395 21.4092C80.1884 21.2359 77.5177 20.4131 75.146 19.0083C72.7744 17.6035 70.7694 15.6566 69.2955 13.3273C68.8825 12.667 68.3432 11.9413 68.6292 11.1285C68.7288 10.8169 68.9312 10.5482 69.2033 10.3665C69.4753 10.1848 69.801 10.1007 70.127 10.1281C70.5335 10.2156 70.9 10.4344 71.1698 10.7508C71.4396 11.0672 71.5978 11.4636 71.6201 11.8788C71.6423 12.294 71.5273 12.705 71.2929 13.0484C71.0584 13.3918 70.7175 13.6485 70.3226 13.779C68.4147 14.5928 66.4896 13.335 64.9354 12.3312C61.3941 10.0439 57.4989 7.97533 53.2078 7.71466C49.2375 7.47352 44.98 9.03023 42.7716 12.4732C42.3853 13.0756 43.3446 13.6322 43.729 13.0328C45.9191 9.61821 50.3466 8.39184 54.1963 8.91961C56.4904 9.28163 58.7056 10.0337 60.7459 11.1433C61.804 11.6924 62.8302 12.3011 63.8357 12.941C64.7925 13.6086 65.8067 14.19 66.8663 14.6783C68.6334 15.4042 70.9727 15.3475 72.2071 13.6762C72.4689 13.2802 72.6344 12.8284 72.6904 12.3569C72.7465 11.8855 72.6914 11.4074 72.5296 10.9611C72.3679 10.5147 72.1039 10.1124 71.7589 9.78625C71.4139 9.46012 70.9974 9.21923 70.5426 9.08285C70.1201 8.99955 69.6835 9.02241 69.272 9.14936C68.8605 9.27631 68.4869 9.5034 68.1848 9.81025C67.8826 10.1171 67.6613 10.4941 67.5408 10.9076C67.4202 11.321 67.4041 11.7579 67.4939 12.179C67.7954 13.1189 68.2774 13.9909 68.9126 14.7463C70.5206 17.0083 72.6155 18.8807 75.0431 20.2257C77.4707 21.5708 80.1691 22.354 82.9395 22.5179C83.6527 22.5532 83.6508 21.4444 82.9395 21.4092L82.9395 21.4092Z" fill="#CCCCCC"/>
<path d="M85.4576 56.5332H82.1543V67.3869H85.4576V56.5332Z" fill="#CCCCCC"/>
<path d="M32.048 48.9588L34.3438 46.6631L26.8007 39.12L24.505 41.4157L32.048 48.9588Z" fill="#B3B3B3"/>
<path d="M124.925 71.7688L127.221 74.0645L134.764 66.5214L132.468 64.2257L124.925 71.7688Z" fill="#B3B3B3"/>
<path d="M31.1105 165.582L33.4062 167.878L40.9493 160.335L38.6536 158.039L31.1105 165.582Z" fill="#00B140"/>
</g>
<defs>
<clipPath id="clip0_31199_142607">
<rect width="196.216" height="220" fill="white" transform="translate(0.892578)"/>
</clipPath>
</defs>
</svg>
