<svg width="112" height="112" viewBox="0 0 112 112" fill="none" xmlns="http://www.w3.org/2000/svg">
<g filter="url(#filter0_d_4270_6726)">
<circle cx="56" cy="46" r="26" fill="#0072EF"/>
</g>
<path d="M61.0506 48.3358C60.7901 48.202 59.4925 47.5663 59.2511 47.4803C59.0098 47.3895 58.8329 47.3465 58.6585 47.6141C58.4816 47.8794 57.9798 48.4696 57.8221 48.6488C57.6691 48.8257 57.5138 48.8472 57.2533 48.7158C55.7048 47.9415 54.6892 47.3345 53.6688 45.5829C53.3987 45.1169 53.9388 45.1503 54.443 44.1442C54.5291 43.9674 54.4861 43.8169 54.4191 43.683C54.3522 43.5492 53.8265 42.254 53.6066 41.7259C53.394 41.2121 53.1741 41.2838 53.014 41.2742C52.8611 41.2646 52.6866 41.2646 52.5098 41.2646C52.3329 41.2646 52.0486 41.3316 51.8072 41.592C51.5658 41.8573 50.8848 42.4953 50.8848 43.7906C50.8848 45.0858 51.8287 46.3404 51.9577 46.5172C52.0916 46.6941 53.8145 49.3514 56.46 50.4961C58.1327 51.2178 58.7875 51.2799 59.6239 51.1557C60.1329 51.0792 61.182 50.52 61.3995 49.9011C61.6169 49.2845 61.6169 48.7564 61.5524 48.6465C61.4879 48.5294 61.3111 48.4625 61.0506 48.3358Z" fill="white"/>
<path d="M66.1106 42.0867C65.5705 40.8034 64.7962 39.6515 63.8093 38.6622C62.8223 37.6753 61.6705 36.8986 60.3848 36.3609C59.0705 35.8089 57.6749 35.5293 56.2363 35.5293H56.1885C54.7403 35.5365 53.3376 35.8232 52.0185 36.3872C50.7447 36.9321 49.6025 37.7063 48.6251 38.6933C47.6477 39.6802 46.8806 40.8273 46.3501 42.1058C45.8004 43.4297 45.5232 44.8372 45.5304 46.2854C45.5376 47.9438 45.9343 49.5903 46.6775 51.0624V54.6947C46.6775 55.3017 47.1697 55.794 47.7767 55.794H51.4115C52.8835 56.5372 54.53 56.9339 56.1885 56.9411H56.2387C57.6701 56.9411 59.0585 56.6639 60.3657 56.1214C61.6442 55.5885 62.7936 54.8238 63.7782 53.8464C64.7652 52.869 65.5418 51.7267 66.0843 50.453C66.6482 49.1339 66.935 47.7311 66.9422 46.283C66.9493 44.8276 66.6674 43.4153 66.1106 42.0867V42.0867ZM62.4997 52.5536C60.8245 54.212 58.6021 55.1249 56.2363 55.1249H56.1957C54.7547 55.1177 53.3232 54.7593 52.0591 54.0854L51.8584 53.9778H48.4936V50.6131L48.3861 50.4124C47.7122 49.1482 47.3538 47.7168 47.3466 46.2758C47.337 43.8933 48.2475 41.6565 49.9179 39.9718C51.5859 38.287 53.8155 37.355 56.1981 37.3455H56.2387C57.4335 37.3455 58.5925 37.5773 59.6846 38.0361C60.7504 38.483 61.7063 39.1258 62.5284 39.9479C63.3481 40.7675 63.9933 41.7258 64.4402 42.7916C64.9038 43.8957 65.1356 45.0666 65.1308 46.2758C65.1164 48.656 64.1821 50.8856 62.4997 52.5536V52.5536Z" fill="white"/>
<defs>
<filter id="filter0_d_4270_6726" x="0" y="0" width="112" height="112" filterUnits="userSpaceOnUse" color-interpolation-filters="sRGB">
<feFlood flood-opacity="0" result="BackgroundImageFix"/>
<feColorMatrix in="SourceAlpha" type="matrix" values="0 0 0 0 0 0 0 0 0 0 0 0 0 0 0 0 0 0 127 0" result="hardAlpha"/>
<feOffset dy="10"/>
<feGaussianBlur stdDeviation="15"/>
<feColorMatrix type="matrix" values="0 0 0 0 0 0 0 0 0 0.447059 0 0 0 0 0.937255 0 0 0 0.2 0"/>
<feBlend mode="normal" in2="BackgroundImageFix" result="effect1_dropShadow_4270_6726"/>
<feBlend mode="normal" in="SourceGraphic" in2="effect1_dropShadow_4270_6726" result="shape"/>
</filter>
</defs>
</svg>
