<svg width="520" height="443" viewBox="0 0 520 443" fill="none" xmlns="http://www.w3.org/2000/svg">
<path fill-rule="evenodd" clip-rule="evenodd" d="M0.289246 373.811C78.1302 335.373 117.05 290.208 117.05 238.317C83.872 234.473 56.4366 220.859 34.7433 197.476C13.0499 174.093 2.20337 147.026 2.20337 116.275C2.20337 83.6029 12.7309 56.0558 33.7862 33.6334C54.8416 11.211 81.3199 -3.05176e-05 113.222 -3.05176e-05C148.952 -3.05176e-05 179.897 14.5743 206.056 43.7234C232.216 72.8725 245.296 108.267 245.296 149.909C245.296 274.834 175.75 372.53 36.6574 443L0.289246 373.811ZM274.993 373.811C353.473 335.373 392.711 290.208 392.711 238.317C358.895 234.473 331.141 220.859 309.448 197.476C287.754 174.093 276.908 147.026 276.908 116.275C276.908 83.6029 287.595 56.0558 308.969 33.6334C330.343 11.211 356.981 -3.05176e-05 388.883 -3.05176e-05C424.614 -3.05176e-05 455.399 14.5743 481.239 43.7234C507.08 72.8725 520 108.267 520 149.909C520 274.834 450.774 372.53 312.319 443L274.993 373.811Z" fill="#0072EF"/>
</svg>
