<svg width="22" height="22" viewBox="0 0 22 22" fill="none" xmlns="http://www.w3.org/2000/svg">
<path d="M19.1709 18.1227C19.1756 18.1155 19.1828 18.1083 19.1876 18.1012C20.7507 16.2422 21.6909 13.8462 21.6909 11.2283C21.6909 8.61037 20.7507 6.21441 19.19 4.35538C19.1852 4.34823 19.178 4.34345 19.1733 4.33629C19.147 4.30527 19.1231 4.27663 19.0969 4.248C19.0873 4.23606 19.0778 4.22652 19.0683 4.21459L18.9704 4.10242L18.968 4.10004C18.9322 4.05947 18.894 4.0189 18.8583 3.97833L18.8559 3.97594C18.7795 3.89481 18.7031 3.81367 18.6244 3.73491L18.622 3.73253L18.5074 3.61798L18.5003 3.61082C18.4645 3.57502 18.4287 3.54161 18.3929 3.5082C18.381 3.49627 18.369 3.48434 18.3547 3.47241C18.3309 3.44854 18.307 3.42707 18.2831 3.40559C18.276 3.39843 18.2664 3.39127 18.2593 3.38172C16.3549 1.61577 13.8038 0.537109 10.9998 0.537109C8.19572 0.537109 5.64463 1.61577 3.73788 3.38172C3.73072 3.38888 3.72118 3.39604 3.71402 3.40559C3.69015 3.42707 3.66629 3.45093 3.64243 3.47479C3.63049 3.48673 3.61856 3.49866 3.60424 3.51059C3.56845 3.544 3.53265 3.5798 3.49685 3.61321L3.48969 3.62037L3.37515 3.73491L3.37276 3.7373C3.29401 3.81605 3.21764 3.89719 3.14128 3.97833L3.13889 3.98072C3.10071 4.02129 3.06491 4.06185 3.02911 4.10242L3.02673 4.10481C2.99332 4.14061 2.95991 4.17879 2.92888 4.21697C2.91934 4.2289 2.90979 4.23845 2.90025 4.25038C2.874 4.27902 2.85013 4.31004 2.82388 4.33868C2.81911 4.34584 2.81195 4.35061 2.80718 4.35777C1.24884 6.21441 0.308594 8.61037 0.308594 11.2283C0.308594 13.8462 1.24884 16.2422 2.80956 18.1012C2.81434 18.1083 2.8215 18.1155 2.82627 18.1227L2.90025 18.2109C2.90979 18.2229 2.91934 18.2324 2.92888 18.2444L3.02673 18.3565C3.02673 18.3589 3.02911 18.3589 3.02911 18.3613C3.06491 18.4019 3.10071 18.4424 3.13889 18.4806L3.14128 18.483C3.21764 18.5641 3.29401 18.6453 3.37037 18.724L3.37276 18.7264C3.41094 18.7646 3.44674 18.8028 3.48492 18.8386L3.49208 18.8457C3.57083 18.9245 3.65197 19.0009 3.73311 19.0748C5.64463 20.8408 8.19572 21.9194 10.9998 21.9194C13.8038 21.9194 16.3549 20.8408 18.2616 19.0748C18.3429 19.0003 18.4225 18.9239 18.5003 18.8457L18.5074 18.8386C18.5456 18.8004 18.5838 18.7646 18.6196 18.7264L18.622 18.724C18.7007 18.6453 18.7771 18.5641 18.8511 18.483L18.8535 18.4806C18.8893 18.44 18.9275 18.4019 18.9633 18.3613C18.9633 18.3589 18.9656 18.3589 18.9656 18.3565C18.9991 18.3207 19.0325 18.2825 19.0635 18.2444C19.073 18.2324 19.0826 18.2229 19.0921 18.2109C19.1191 18.1822 19.1454 18.1527 19.1709 18.1227ZM19.2687 14.7196C18.9394 15.4976 18.5051 16.2183 17.9753 16.8722C17.3786 16.3565 16.7263 15.9091 16.0303 15.5382C16.3072 14.4189 16.479 13.1899 16.5243 11.8965H19.9488C19.8773 12.8725 19.6482 13.8199 19.2687 14.7196ZM19.9488 10.5601H16.5243C16.479 9.26664 16.3072 8.03763 16.0303 6.9184C16.7296 6.54612 17.3811 6.09747 17.9753 5.58439C19.1269 7.00187 19.8158 8.73861 19.9488 10.5601ZM14.4911 2.95933C15.4385 3.36025 16.3 3.9139 17.0589 4.61073C16.618 4.9861 16.1435 5.32002 15.6414 5.60826C15.2667 4.53437 14.787 3.60128 14.2286 2.85433C14.3169 2.88774 14.4052 2.92353 14.4911 2.95933ZM12.329 19.6786C12.1095 19.8504 11.8899 19.9817 11.668 20.07V15.6432C12.6149 15.7092 13.5461 15.9201 14.4291 16.2684C14.231 16.8555 14.0019 17.3972 13.737 17.8864C13.3218 18.6596 12.8349 19.2777 12.329 19.6786ZM13.737 4.57016C13.9995 5.06177 14.231 5.60348 14.4291 6.18816C13.5461 6.53647 12.6149 6.74734 11.668 6.8134V2.38897C11.8875 2.47727 12.1095 2.60614 12.329 2.78035C12.8349 3.17888 13.3218 3.79696 13.737 4.57016ZM11.668 14.3044V11.8965H15.1879C15.1498 12.9513 15.0185 13.9751 14.7989 14.9463L14.7918 14.975C13.7903 14.5952 12.7371 14.3691 11.668 14.3044ZM11.668 10.5601V8.15218C12.7609 8.08536 13.811 7.85388 14.7918 7.4816L14.7989 7.51023C15.0185 8.48151 15.1498 9.5029 15.1879 10.5601H11.668ZM10.3316 11.8965V14.3044C9.23858 14.3712 8.18856 14.6027 7.20774 14.975L7.20058 14.9463C6.98103 13.9751 6.84978 12.9537 6.81159 11.8965H10.3316ZM6.81159 10.5601C6.84978 9.50528 6.98103 8.48151 7.20058 7.51023L7.20774 7.4816C8.18856 7.85388 9.2362 8.08536 10.3316 8.15218V10.5601H6.81159ZM10.3316 15.6432V20.0676C10.112 19.9793 9.89008 19.8504 9.67053 19.6762C9.16461 19.2777 8.67539 18.6572 8.26015 17.884C7.99765 17.3924 7.76616 16.8507 7.56809 16.266C8.45584 15.9176 9.37938 15.71 10.3316 15.6432ZM10.3316 6.8134C9.38465 6.74734 8.45347 6.53647 7.57048 6.18816C7.76855 5.6011 7.99764 5.05938 8.26254 4.57016C8.67778 3.79696 9.16461 3.17649 9.67291 2.77796C9.89246 2.60614 10.112 2.47488 10.334 2.38659V6.8134H10.3316ZM7.50843 2.95933C7.59673 2.92353 7.68264 2.88774 7.77094 2.85433C7.21251 3.60128 6.73284 4.53437 6.35817 5.60826C5.85702 5.32189 5.38213 4.98779 4.94064 4.61073C5.69952 3.9139 6.56102 3.36025 7.50843 2.95933ZM2.73081 7.73694C3.06014 6.95897 3.49447 6.23827 4.02425 5.58439C4.61847 6.09747 5.26997 6.54612 5.96919 6.9184C5.69236 8.03763 5.52054 9.26664 5.4752 10.5601H2.05068C2.12227 9.58403 2.35137 8.63663 2.73081 7.73694ZM2.05068 11.8965H5.4752C5.52054 13.1899 5.69236 14.4189 5.96919 15.5382C5.27326 15.9091 4.62091 16.3565 4.02425 16.8722C2.87264 15.4547 2.18377 13.7179 2.05068 11.8965ZM7.50843 19.4972C6.56102 19.0963 5.69952 18.5427 4.94064 17.8458C5.38213 17.4688 5.85702 17.1371 6.35817 16.8483C6.73284 17.9222 7.21251 18.8553 7.77094 19.6022C7.68264 19.5688 7.59434 19.533 7.50843 19.4972ZM14.4911 19.4972C14.4028 19.533 14.3169 19.5688 14.2286 19.6022C14.787 18.8553 15.2667 17.9222 15.6414 16.8483C16.1425 17.1347 16.6174 17.4688 17.0589 17.8458C16.3042 18.5398 15.4356 19.0984 14.4911 19.4972Z" fill="#0072EF"/>
</svg>
