<svg width="13" height="11" viewBox="0 0 13 11" fill="none" xmlns="http://www.w3.org/2000/svg">
<path fill-rule="evenodd" clip-rule="evenodd" d="M0.97144 4.72573C0.705203 4.76238 0.5 4.99398 0.5 5.27422C0.5 5.57993 0.744208 5.82776 1.04545 5.82776L10.6333 5.82776L7.1698 9.32852L7.11686 9.39049C6.95797 9.60686 6.97495 9.91442 7.1682 10.1114C7.38077 10.328 7.72613 10.3287 7.93959 10.113L12.3318 5.67402C12.358 5.64858 12.3816 5.62052 12.4024 5.59026C12.5511 5.37409 12.5301 5.07424 12.3396 4.88166L7.93955 0.435579L7.87826 0.382116C7.66439 0.221793 7.3614 0.240322 7.16817 0.437265C6.95561 0.653904 6.95636 1.00439 7.16983 1.2201L10.6342 4.72067L1.04545 4.72067L0.97144 4.72573Z" fill="white"/>
</svg>
