<svg width="60" height="60" viewBox="0 0 60 60" fill="none" xmlns="http://www.w3.org/2000/svg">
<rect width="60" height="60" rx="8" fill="#F90005"/>
<path d="M27.375 30.7744L23.9756 27.375L22.125 29.2256L27.375 34.4756L37.875 23.9756L36.0244 22.125L27.375 30.7744Z" fill="white"/>
<path d="M30 48.375L21.894 44.0529C19.5831 42.8235 17.6507 40.9881 16.304 38.7435C14.9573 36.499 14.2472 33.9301 14.25 31.3125V14.25C14.2507 13.554 14.5275 12.8867 15.0196 12.3946C15.5118 11.9025 16.179 11.6257 16.875 11.625H43.125C43.821 11.6257 44.4883 11.9025 44.9804 12.3946C45.4725 12.8867 45.7493 13.554 45.75 14.25V31.3125C45.7528 33.9301 45.0427 36.499 43.696 38.7435C42.3494 40.9881 40.4169 42.8235 38.106 44.0529L30 48.375ZM16.875 14.25V31.3125C16.8728 33.4542 17.454 35.5561 18.556 37.3926C19.6581 39.229 21.2394 40.7307 23.1304 41.7364L30 45.3996L36.8696 41.7377C38.7608 40.7319 40.3423 39.23 41.4443 37.3933C42.5464 35.5566 43.1274 33.4545 43.125 31.3125V14.25H16.875Z" fill="white"/>
</svg>
