<svg width="60" height="60" viewBox="0 0 60 60" fill="none" xmlns="http://www.w3.org/2000/svg">
<rect width="60" height="60" rx="8" fill="#0072EF"/>
<path d="M44.8992 29.0662L30.9184 15.0853C30.3326 14.4995 29.5251 14.167 28.6859 14.167H17.3334C15.5917 14.167 14.1667 15.592 14.1667 17.3337V28.6862C14.1667 29.5253 14.4992 30.3328 15.1009 30.9187L29.0817 44.8995C30.3167 46.1345 32.3276 46.1345 33.5626 44.8995L44.9151 33.547C46.1501 32.312 46.1501 30.317 44.8992 29.0662ZM31.3142 42.667L17.3334 28.6862V17.3337H28.6859L42.6667 31.3145L31.3142 42.667Z" fill="white"/>
<path d="M21.2917 23.667C22.6034 23.667 23.6667 22.6037 23.6667 21.292C23.6667 19.9803 22.6034 18.917 21.2917 18.917C19.9801 18.917 18.9167 19.9803 18.9167 21.292C18.9167 22.6037 19.9801 23.667 21.2917 23.667Z" fill="white"/>
</svg>
