<svg width="24" height="24" viewBox="0 0 24 24" fill="none" xmlns="http://www.w3.org/2000/svg">
<g clip-path="url(#clip0_34980_83710)">
<path d="M14.368 12.6673C14.868 12.6673 15.308 12.394 15.5346 11.9807L17.9213 7.65398C18.168 7.21398 17.848 6.66732 17.3413 6.66732H7.47464L6.84797 5.33398H4.66797V6.66732H6.0013L8.4013 11.7273L7.5013 13.354C7.01464 14.2473 7.65464 15.334 8.66797 15.334H16.668V14.0007H8.66797L9.4013 12.6673H14.368ZM8.10797 8.00065H16.208L14.368 11.334H9.68797L8.10797 8.00065ZM8.66797 16.0007C7.93464 16.0007 7.3413 16.6007 7.3413 17.334C7.3413 18.0673 7.93464 18.6673 8.66797 18.6673C9.4013 18.6673 10.0013 18.0673 10.0013 17.334C10.0013 16.6007 9.4013 16.0007 8.66797 16.0007ZM15.3346 16.0007C14.6013 16.0007 14.008 16.6007 14.008 17.334C14.008 18.0673 14.6013 18.6673 15.3346 18.6673C16.068 18.6673 16.668 18.0673 16.668 17.334C16.668 16.6007 16.068 16.0007 15.3346 16.0007Z" fill="#8C8C8C"/>
</g>
<rect x="0.25" y="0.25" width="23.5" height="23.5" rx="1.75" stroke="#D9D9D9" stroke-width="0.5"/>
<defs>
<clipPath id="clip0_34980_83710">
<rect width="16" height="16" fill="white" transform="translate(4 4)"/>
</clipPath>
</defs>
</svg>
