<svg width="64" height="27" viewBox="0 0 64 27" fill="none" xmlns="http://www.w3.org/2000/svg">
<path d="M4.49775 10.4355C4.49775 9.74225 5.06662 9.4755 6.009 9.4755C7.36 9.4755 9.06663 9.8845 10.4178 10.6134V6.4355C8.94225 5.84887 7.4845 5.61775 6.009 5.61775C2.4 5.61775 0 7.50225 0 10.649C0 15.5555 6.7555 14.7734 6.7555 16.889C6.7555 17.7066 6.0445 17.9734 5.04887 17.9734C3.57337 17.9734 1.68887 17.3689 0.1955 16.5511V20.7822C1.84888 21.4934 3.52 21.7955 5.04887 21.7955C8.74662 21.7955 11.2889 19.9645 11.2889 16.7822C11.2711 11.4845 4.49775 12.4266 4.49775 10.4355ZM16.5155 2.06225L12.1777 2.98662L12.16 17.2266C12.16 19.8579 14.1334 21.7955 16.7645 21.7955C18.2222 21.7955 19.2889 21.5289 19.8755 21.2089V17.6C19.3067 17.8311 16.4977 18.6489 16.4977 16.0177V9.70662H19.8755V5.92H16.4977L16.5155 2.06225ZM25.4045 7.2355L25.12 5.92H21.28V21.4755H25.7245V10.9334C26.7733 9.5645 28.5511 9.81337 29.1022 10.0089V5.92C28.5334 5.70662 26.4534 5.3155 25.4045 7.2355ZM30.1866 5.92H34.6489V21.4755H30.1866V5.92ZM30.1866 4.56887L34.6489 3.60887V0L30.1866 0.94225V4.56875V4.56887ZM43.9289 5.61775C42.1866 5.61775 41.0666 6.4355 40.4445 7.0045L40.2132 5.90225H36.3022V26.631L40.7466 25.6889L40.7645 20.6577C41.4045 21.12 42.3466 21.7777 43.9111 21.7777C47.0934 21.7777 49.9911 19.2177 49.9911 13.5822C49.9734 8.42662 47.04 5.61775 43.9289 5.61775ZM42.8623 17.8666C41.8134 17.8666 41.191 17.4934 40.7645 17.0311L40.7466 10.4355C41.2089 9.92 41.8489 9.5645 42.8623 9.5645C44.48 9.5645 45.6 11.3777 45.6 13.7066C45.6 16.0889 44.4977 17.8666 42.8623 17.8666ZM64 13.76C64 9.20887 61.7955 5.61775 57.5822 5.61775C53.351 5.61775 50.791 9.209 50.791 13.7245C50.791 19.0755 53.8134 21.7777 58.151 21.7777C60.2666 21.7777 61.8666 21.2977 63.0755 20.6222V17.0666C61.8667 17.6711 60.48 18.0445 58.72 18.0445C56.9955 18.0445 55.4666 17.44 55.2711 15.3422H63.9645C63.9645 15.111 64 14.1866 64 13.76ZM55.2178 12.0711C55.2178 10.0622 56.4445 9.22662 57.5645 9.22662C58.6489 9.22662 59.8045 10.0622 59.8045 12.0711H55.2178Z" fill="#6772E5"/>
</svg>
