<svg width="14" height="14" viewBox="0 0 14 14" fill="none" xmlns="http://www.w3.org/2000/svg">
<path d="M6.99967 1.99967C7.91634 1.99967 8.66634 2.74967 8.66634 3.66634C8.66634 4.58301 7.91634 5.33301 6.99967 5.33301C6.08301 5.33301 5.33301 4.58301 5.33301 3.66634C5.33301 2.74967 6.08301 1.99967 6.99967 1.99967ZM6.99967 10.333C9.24967 10.333 11.833 11.408 11.9997 11.9997H1.99967C2.19134 11.3997 4.75801 10.333 6.99967 10.333ZM6.99967 0.333008C5.15801 0.333008 3.66634 1.82467 3.66634 3.66634C3.66634 5.50801 5.15801 6.99967 6.99967 6.99967C8.84134 6.99967 10.333 5.50801 10.333 3.66634C10.333 1.82467 8.84134 0.333008 6.99967 0.333008ZM6.99967 8.66634C4.77467 8.66634 0.333008 9.78301 0.333008 11.9997V13.6663H13.6663V11.9997C13.6663 9.78301 9.22467 8.66634 6.99967 8.66634Z" fill="#8C8C8C"/>
</svg>
