<svg width="60" height="60" viewBox="0 0 60 60" fill="none" xmlns="http://www.w3.org/2000/svg">
<rect width="60" height="60" rx="8" fill="#F90005"/>
<path d="M21.9423 18.519C22.9445 16.7733 24.5031 15.4139 26.3688 14.6582C28.2346 13.9026 30.2998 13.7942 32.2344 14.3505C34.169 14.9067 35.8612 16.0955 37.0407 17.7268C38.2201 19.358 38.8186 21.3376 38.7405 23.3491C38.6623 25.3606 37.9121 27.2878 36.6098 28.8227C35.3074 30.3576 33.528 31.4115 31.5561 31.8161C29.5842 32.2206 27.5336 31.9524 25.7321 31.0543C23.9306 30.1562 22.4821 28.6801 21.6183 26.8619C21.0412 27.2841 20.3444 27.5111 19.6293 27.5099H18.5044V28.0836C18.5044 28.5111 18.6664 28.9003 18.9318 29.1951C19.1587 28.9386 19.4584 28.7573 19.7908 28.6754C20.1233 28.5935 20.4728 28.6147 20.7929 28.7364C21.113 28.8581 21.3884 29.0744 21.5825 29.3565C21.7766 29.6386 21.8801 29.9732 21.8793 30.3156C21.8791 30.5507 21.8298 30.7833 21.7345 30.9982C21.6392 31.2132 21.5 31.4059 21.3259 31.564C21.1517 31.722 20.9465 31.8419 20.7233 31.916C20.5001 31.99 20.2639 32.0166 20.0298 31.994C19.0165 31.9585 18.0565 31.5309 17.3522 30.8014C16.6479 30.072 16.2544 29.0976 16.2544 28.0836V19.6417C16.2544 19.3434 16.3729 19.0572 16.5839 18.8463C16.7949 18.6353 17.081 18.5168 17.3794 18.5168H21.8793L21.9423 18.519ZM23.0043 23.2687C23.0744 25.0343 23.834 26.702 25.1201 27.9137C26.4062 29.1255 28.1161 29.7846 29.8828 29.7495C31.6494 29.7144 33.3319 28.988 34.5689 27.7263C35.8058 26.4645 36.4987 24.7679 36.4987 23.0009C36.4987 21.234 35.8058 19.5374 34.5689 18.2756C33.3319 17.0138 31.6494 16.2874 29.8828 16.2524C28.1161 16.2173 26.4062 16.8764 25.1201 18.0882C23.834 19.2999 23.0744 20.9676 23.0043 22.7332V23.2687ZM20.7543 22.6904V20.7667H18.5044V25.2599H19.6293C19.9277 25.2599 20.2138 25.1414 20.4248 24.9304C20.6358 24.7194 20.7543 24.4333 20.7543 24.1349V23.3114C20.7473 23.1045 20.7473 22.8974 20.7543 22.6904Z" fill="white"/>
<path d="M14 38.7509C14 36.2467 16.0317 34.251 18.5202 34.251H40.9995C42.193 34.251 43.3376 34.7251 44.1815 35.569C45.0254 36.4129 45.4995 37.5574 45.4995 38.7509C45.4995 42.5556 43.6252 45.4243 40.6958 47.294C37.8113 49.1322 33.9234 50.0007 29.7497 50.0007C25.5761 50.0007 21.6881 49.1322 18.8037 47.294C15.8742 45.4265 14 42.5533 14 38.7509ZM18.5202 36.5009C17.2579 36.5009 16.25 37.5067 16.25 38.7509C16.25 41.6961 17.6494 43.8898 20.0141 45.395C22.4216 46.9318 25.8461 47.7507 29.7497 47.7507C33.6534 47.7507 37.0779 46.9318 39.4853 45.395C41.8478 43.8876 43.2495 41.6984 43.2495 38.7509C43.2495 38.1542 43.0125 37.5819 42.5905 37.1599C42.1686 36.738 41.5963 36.5009 40.9995 36.5009H18.5202Z" fill="white"/>
</svg>
