<svg width="150" height="100" viewBox="0 0 150 100" fill="none" xmlns="http://www.w3.org/2000/svg">
<g clip-path="url(#clip0_33734_83034)">
<path d="M28.6067 68.2691C28.4152 68.336 28.2004 68.3579 27.9915 68.3316C27.7825 68.3053 27.5896 68.2322 27.4388 68.1222C27.288 68.0121 27.1866 67.8704 27.1483 67.7164C27.11 67.5623 27.1368 67.4033 27.2249 67.2608C27.209 67.1827 27.1975 67.1266 27.1816 67.0486C27.1644 67.0359 27.147 67.0232 27.1296 67.0105C25.3768 65.7342 22.4074 66.6641 22.4131 68.4827C22.4181 70.0969 22.2134 71.7786 22.7935 73.3078C23.0502 73.9836 23.4637 74.6214 24.0153 75.1928C20.5464 72.8273 17.8061 69.9381 15.9803 66.7211C15.5232 65.9135 15.1276 65.0876 14.7953 64.2473C14.5237 63.5582 14.2937 62.8618 14.1051 62.1581C13.0878 58.3378 13.311 54.3937 14.7562 50.6496C15.8892 49.6043 16.5615 48.3274 16.6825 46.9909C16.7281 46.5098 16.6792 46.0264 16.5374 45.5557C16.381 45.6229 16.2183 45.6849 16.0573 45.7441C16.0069 45.762 15.9537 45.7808 15.9033 45.7987L15.8842 45.8054C15.7057 45.8676 15.5066 45.8904 15.3109 45.871C15.1153 45.8515 14.9314 45.7907 14.7815 45.6958C14.6315 45.6009 14.5218 45.476 14.4657 45.3361C14.4095 45.1962 14.4093 45.0473 14.465 44.9073C14.4997 44.8202 14.5345 44.7331 14.5693 44.646C14.6212 44.5121 14.6769 44.3794 14.7287 44.2456C14.7358 44.2322 14.7419 44.2185 14.747 44.2046C14.8072 44.0517 14.8685 43.9007 14.9287 43.7478C14.553 43.5568 14.1226 43.4324 13.6712 43.3845C12.1137 43.2293 10.5996 44.1378 10.1688 45.2536C9.73526 46.3702 10.2278 47.5967 11.1336 48.5448C11.9082 49.3565 12.9584 49.996 14.0591 50.5727C14.0276 50.6579 13.9922 50.7419 13.9606 50.827C13.3868 52.3892 13.0215 53.9892 12.8699 55.604C12.2448 54.0405 11.1265 52.609 9.60696 51.4272C8.13172 50.3442 6.13103 49.6662 4.2782 48.9083C2.05265 47.998 -0.59838 49.5143 0.119916 51.3179C0.126872 51.3354 0.133882 51.3528 0.140948 51.3702C0.363518 51.3897 0.584893 51.415 0.805065 51.446C1.08227 51.4861 1.33664 51.5871 1.53483 51.7359C1.73302 51.8847 1.8658 52.0742 1.91576 52.2797C1.96572 52.4852 1.93054 52.6971 1.81483 52.8876C1.69912 53.078 1.50827 53.2382 1.26729 53.3471L1.24261 53.3583C1.57804 53.8183 1.9603 54.2588 2.38607 54.676C3.59182 55.8353 5.10857 56.7979 6.84122 57.5036C8.57388 58.2093 10.4851 58.6428 12.455 58.777C12.5835 58.7844 12.7094 58.7926 12.8368 58.7981C13.0046 60.9867 13.5567 63.15 14.4793 65.2334C15.0287 66.461 15.7116 67.6537 16.5211 68.7999L16.4891 68.7603C15.3944 67.5458 13.7662 66.6478 11.8796 66.218C9.08787 65.598 5.88898 66.0403 3.07344 65.7186C1.71813 65.5637 0.69186 66.6219 1.40314 67.4887C1.41449 67.5025 1.42589 67.5163 1.43735 67.5301C1.82846 67.5275 2.21941 67.5429 2.60793 67.5762C2.83051 67.5957 3.05189 67.6209 3.27205 67.652C3.54926 67.692 3.80363 67.7931 4.00183 67.9419C4.20002 68.0906 4.33279 68.2802 4.38276 68.4857C4.43272 68.6912 4.39754 68.9031 4.28183 69.0935C4.16611 69.284 3.97526 69.4442 3.73428 69.5531L3.70957 69.5643C3.69172 69.5722 3.67656 69.5792 3.65873 69.5871C4.79963 70.4186 6.12565 71.0987 7.5787 71.5977C9.36237 72.1941 11.292 72.5148 13.2494 72.5403C15.2067 72.5658 17.1505 72.2956 18.9615 71.746L18.9642 71.7452C20.3449 73.1687 21.922 74.4822 23.6701 75.6647L31.2425 73.3255C31.2345 73.2549 31.2226 73.1831 31.2119 73.1134C30.5294 73.3625 29.8082 73.5489 29.0644 73.6684C29.3381 72.9852 29.6096 72.2981 29.8833 71.6149C29.8905 71.6015 29.8966 71.5878 29.9016 71.5739C30.0391 71.2251 30.1805 70.8774 30.318 70.5285L30.318 70.5282C29.8812 69.724 29.3062 68.9647 28.6071 68.2691L28.6067 68.2691ZM12.8065 58.3384L12.8082 58.3332L12.8088 58.3424L12.8065 58.3384ZM17.4481 70.0336L17.3218 69.9454C17.2802 69.8663 17.236 69.7881 17.1879 69.7087C17.1754 69.6866 17.1575 69.6662 17.145 69.6441C17.2477 69.775 17.3477 69.9067 17.4531 70.0368L17.4481 70.0336Z" fill="#F2F2F2"/>
<path d="M98.0947 29.8044C97.8125 30.6455 97.678 31.5099 97.6945 32.3764L97.6946 32.3768C98.0035 32.6594 98.3153 32.9399 98.6242 33.2226C98.6361 33.234 98.6488 33.2449 98.6624 33.2552C99.2713 33.8075 99.8803 34.3642 100.489 34.9165C99.7405 35.0182 98.9779 35.0518 98.2182 35.0165C98.2447 35.0839 98.2712 35.1535 98.3006 35.2209H106.508C107.504 33.6316 108.274 31.9701 108.805 30.2632H108.808C110.766 30.254 112.7 29.9494 114.493 29.368C116.285 28.7865 117.899 27.9406 119.233 26.882C120.314 26.0074 121.182 25.0019 121.801 23.9095C121.781 23.9073 121.763 23.9052 121.742 23.903L121.714 23.8997C121.435 23.8679 121.175 23.7745 120.969 23.6317C120.763 23.489 120.62 23.3035 120.559 23.0997C120.498 22.8958 120.521 22.6831 120.626 22.4893C120.732 22.2956 120.914 22.1298 121.149 22.0138C121.335 21.9225 121.526 21.8361 121.722 21.7546C122.063 21.6132 122.416 21.4875 122.778 21.3785C122.781 21.3625 122.785 21.3465 122.788 21.3305C122.992 20.328 121.493 19.6441 120.323 20.1733C117.893 21.2727 114.711 21.7764 112.459 23.1441C110.942 24.0785 109.908 25.3711 109.532 26.8037L109.523 26.8494C109.672 25.561 109.68 24.2659 109.546 22.9767C109.311 20.7914 108.692 18.6381 107.705 16.5708C107.82 16.5295 107.931 16.486 108.046 16.4425C109.794 15.7573 111.331 14.8126 112.562 13.6676C113.792 12.5226 114.69 11.2021 115.197 9.78875C115.373 9.28248 115.495 8.7671 115.565 8.24706L115.536 8.2438C115.257 8.21199 114.998 8.11858 114.791 7.97582C114.585 7.83306 114.442 7.6476 114.381 7.44375C114.32 7.2399 114.344 7.02716 114.449 6.8334C114.554 6.63965 114.736 6.47392 114.971 6.35792C115.158 6.26661 115.349 6.18021 115.544 6.09872C115.542 6.08063 115.539 6.06254 115.537 6.04445C115.258 4.17554 112.021 3.53211 110.443 5.00642C109.129 6.23384 107.636 7.4296 106.84 8.84939C106.055 10.3728 105.769 12.0124 106.008 13.6332C105.026 12.1864 103.854 10.8143 102.51 9.53651C102.437 9.46692 102.36 9.39951 102.287 9.32992C103.001 8.48408 103.637 7.59474 103.928 6.62494C104.269 5.49207 104.084 4.22 103.101 3.31328C102.122 2.40654 100.251 1.99993 98.8948 2.58702C98.5033 2.75989 98.1711 2.99726 97.9241 3.28065C98.0594 3.40459 98.1947 3.52636 98.33 3.6503C98.3419 3.66171 98.3547 3.67261 98.3683 3.68293C98.4859 3.79165 98.6065 3.89819 98.7242 4.00692C98.8018 4.07731 98.8793 4.14776 98.9568 4.21825C99.0812 4.33156 99.1586 4.46902 99.1798 4.6141C99.201 4.75919 99.1649 4.9057 99.0761 5.036C98.9872 5.1663 98.8493 5.27484 98.6789 5.34855C98.5086 5.42225 98.313 5.45799 98.1158 5.45144L98.0947 5.45075C98.0388 5.44857 97.98 5.44638 97.9241 5.44422C97.7446 5.43553 97.5623 5.42466 97.3828 5.40726C97.4975 5.88199 97.7046 6.34194 97.9976 6.77281C98.8064 7.97144 100.093 8.95802 101.683 9.59958C104.97 12.6422 107.233 16.2177 108.287 20.0325C108.482 20.7349 108.633 21.443 108.74 22.1569C108.872 23.0269 108.938 23.9017 108.938 24.7771C108.931 28.2658 107.91 31.7126 105.943 34.8839C106.154 34.1995 106.203 33.4932 106.087 32.7964C105.825 31.2202 104.758 29.7269 103.921 28.2361C102.978 26.5564 99.7528 26.5449 98.8013 28.222C98.7919 28.2387 98.7825 28.2553 98.7732 28.272C98.7993 28.3485 98.818 28.4035 98.844 28.4801C98.9996 28.5864 99.1073 28.7256 99.1523 28.8786C99.1974 29.0317 99.1777 29.1913 99.096 29.3358C99.0142 29.4804 98.8743 29.6028 98.6953 29.6866C98.5162 29.7704 98.3066 29.8115 98.095 29.8043L98.0947 29.8044ZM107.493 16.1424L107.489 16.1338L107.493 16.1381V16.1424ZM109.308 28.2562C109.338 28.1062 109.361 27.9561 109.388 27.8061C109.388 27.83 109.382 27.8539 109.382 27.8779C109.379 27.9648 109.379 28.0497 109.382 28.1345L109.311 28.2519L109.308 28.2562Z" fill="#F2F2F2"/>
<path d="M89.8292 67.1875H64.7205C64.3653 67.1879 64.0248 67.2925 63.774 67.4784C63.5231 67.6643 63.3824 67.9163 63.3828 68.1788V97.4984H91.1703V68.1788C91.1703 68.0486 91.1357 67.9197 91.0684 67.7994C91.001 67.6791 90.9022 67.5698 90.7777 67.4777C90.6531 67.3856 90.5052 67.3126 90.3425 67.2628C90.1797 67.213 90.0053 67.1874 89.8292 67.1875ZM77.3593 83.8465C76.5741 83.8438 75.8221 83.6121 75.2668 83.2016C74.7116 82.7912 74.398 82.2353 74.3944 81.6549V78.2731C74.3944 77.6919 74.7067 77.1344 75.2628 76.7234C75.8188 76.3124 76.5729 76.0815 77.3593 76.0815C78.1456 76.0815 78.8998 76.3124 79.4558 76.7234C80.0118 77.1344 80.3242 77.6919 80.3242 78.2731V81.6549C80.3205 82.2353 80.007 82.7912 79.4517 83.2016C78.8965 83.6121 78.1445 83.8438 77.3593 83.8465Z" fill="#E6E6E6"/>
<path d="M63.2969 96.5586V99.3874C63.2973 99.5339 63.3762 99.6744 63.5164 99.7781C63.6567 99.8817 63.8467 99.9401 64.045 99.9404H90.5086C90.7067 99.9396 90.8964 99.8811 91.0365 99.7776C91.1766 99.674 91.2557 99.5338 91.2567 99.3874V96.5586L63.2969 96.5586Z" fill="#CCCCCC"/>
<path d="M131.402 21.4297H24.0724C23.1502 21.4308 22.2663 21.702 21.6142 22.184C20.9622 22.666 20.5952 23.3194 20.5938 24.001V77.5384C20.5946 78.2201 20.9614 78.8738 21.6136 79.3559C22.2658 79.8379 23.15 80.1091 24.0724 80.1097H131.402C132.324 80.1091 133.209 79.8379 133.861 79.3559C134.513 78.8738 134.88 78.2201 134.881 77.5384V24.001C134.879 23.3194 134.512 22.666 133.86 22.184C133.208 21.702 132.324 21.4308 131.402 21.4297Z" fill="#E6E6E6"/>
<path d="M130.506 23.2852H24.9701C24.4762 23.286 24.0029 23.4317 23.6541 23.6901C23.3053 23.9486 23.1094 24.2987 23.1094 24.6638V76.8737C23.1099 77.2383 23.3062 77.5879 23.655 77.8458C24.0038 78.1036 24.4768 78.2487 24.9701 78.2491H130.506C131 78.2487 131.473 78.1036 131.822 77.8458C132.17 77.5879 132.367 77.2383 132.367 76.8737V24.6638C132.367 24.2987 132.171 23.9485 131.822 23.6901C131.474 23.4316 131 23.286 130.506 23.2852Z" fill="white"/>
<path d="M36.5457 75.2566C36.548 76.2785 36.3017 77.2924 35.8185 78.2499H24.9697C24.4766 78.2493 24.0039 78.1042 23.6552 77.8464C23.3065 77.5887 23.1102 77.2393 23.1094 76.8747V66.7883C23.7155 66.7159 24.3286 66.6795 24.9426 66.6797C26.4664 66.6796 27.9753 66.9014 29.383 67.3324C30.7908 67.7634 32.07 68.3952 33.1474 69.1916C34.2249 69.9881 35.0796 70.9336 35.6626 71.9743C36.2457 73.0149 36.5458 74.1302 36.5457 75.2566Z" fill="#0072EF"/>
<path d="M132.367 24.6638V70.1074C124.247 71.8571 115.576 71.6034 107.668 69.3848C99.7605 67.1661 93.0458 63.1034 88.541 57.8117C84.0362 52.5199 81.9864 46.2873 82.7021 40.0574C83.4178 33.8275 86.8599 27.9396 92.5073 23.2852H130.506C131 23.286 131.473 23.4317 131.822 23.6901C132.171 23.9486 132.367 24.2987 132.367 24.6638Z" fill="#E6E6E6"/>
<path d="M125.205 30.479H26.4547C26.352 30.4774 26.2543 30.4461 26.1824 30.3918C26.1106 30.3376 26.0703 30.2647 26.0703 30.1887C26.0703 30.1128 26.1106 30.0399 26.1824 29.9856C26.2543 29.9313 26.352 29.9001 26.4547 29.8984H125.205C125.308 29.9001 125.406 29.9313 125.478 29.9856C125.55 30.0399 125.59 30.1128 125.59 30.1887C125.59 30.2647 125.55 30.3376 125.478 30.3918C125.406 30.4461 125.308 30.4774 125.205 30.479Z" fill="#CACACA"/>
<path d="M33.1764 28.4196C34.4475 28.4196 35.4779 27.641 35.4779 26.6805C35.4779 25.72 34.4475 24.9414 33.1764 24.9414C31.9054 24.9414 30.875 25.72 30.875 26.6805C30.875 27.641 31.9054 28.4196 33.1764 28.4196Z" fill="#3F3D56"/>
<path d="M41.1256 28.4196C42.3967 28.4196 43.4271 27.641 43.4271 26.6805C43.4271 25.72 42.3967 24.9414 41.1256 24.9414C39.8546 24.9414 38.8242 25.72 38.8242 26.6805C38.8242 27.641 39.8546 28.4196 41.1256 28.4196Z" fill="#3F3D56"/>
<path d="M49.0749 28.4196C50.3459 28.4196 51.3763 27.641 51.3763 26.6805C51.3763 25.72 50.3459 24.9414 49.0749 24.9414C47.8038 24.9414 46.7734 25.72 46.7734 26.6805C46.7734 27.641 47.8038 28.4196 49.0749 28.4196Z" fill="#3F3D56"/>
<path d="M120.418 25.3711H114.771C114.659 25.3727 114.552 25.4068 114.474 25.4659C114.395 25.525 114.352 25.6044 114.352 25.6872C114.352 25.7699 114.395 25.8494 114.474 25.9085C114.552 25.9676 114.659 26.0016 114.771 26.0033H120.418C120.53 26.0016 120.637 25.9676 120.715 25.9085C120.794 25.8494 120.837 25.7699 120.837 25.6872C120.837 25.6044 120.794 25.525 120.715 25.4659C120.637 25.4068 120.53 25.3727 120.418 25.3711Z" fill="#3F3D56"/>
<path d="M120.418 26.5586H114.771C114.659 26.5602 114.552 26.5943 114.474 26.6534C114.395 26.7125 114.352 26.7919 114.352 26.8747C114.352 26.9575 114.395 27.0369 114.474 27.096C114.552 27.1551 114.659 27.1891 114.771 27.1908H120.418C120.53 27.1891 120.637 27.1551 120.715 27.096C120.794 27.0369 120.837 26.9575 120.837 26.8747C120.837 26.7919 120.794 26.7125 120.715 26.6534C120.637 26.5943 120.53 26.5602 120.418 26.5586Z" fill="#3F3D56"/>
<path d="M120.418 27.7422H114.771C114.659 27.7438 114.552 27.7779 114.474 27.837C114.395 27.8961 114.352 27.9755 114.352 28.0583C114.352 28.141 114.395 28.2205 114.474 28.2796C114.552 28.3387 114.659 28.3727 114.771 28.3744H120.418C120.53 28.3727 120.637 28.3387 120.715 28.2796C120.794 28.2205 120.837 28.141 120.837 28.0583C120.837 27.9755 120.794 27.8961 120.715 27.837C120.637 27.7779 120.53 27.7438 120.418 27.7422Z" fill="#3F3D56"/>
<path d="M67.8148 10.4098C68.1626 9.86779 66.551 8.76456 64.2152 7.94568C61.8795 7.12679 59.704 6.90234 59.3563 7.44436C59.0085 7.98638 60.6201 9.08962 62.9558 9.90851C65.2916 10.7274 67.467 10.9518 67.8148 10.4098Z" fill="#2F2E41"/>
<path d="M87.0896 15.9914C87.7119 15.6063 86.871 14.1063 85.2114 12.6411C83.5518 11.176 81.7021 10.3004 81.0798 10.6855C80.4576 11.0706 81.2985 12.5706 82.958 14.0357C84.6176 15.5009 86.4674 16.3765 87.0896 15.9914Z" fill="#2F2E41"/>
<path d="M74.1273 19.0589C79.2975 19.0589 83.4889 15.9607 83.4889 12.1388C83.4889 8.31697 79.2975 5.21875 74.1273 5.21875C68.957 5.21875 64.7656 8.31697 64.7656 12.1388C64.7656 15.9607 68.957 19.0589 74.1273 19.0589Z" fill="#2F2E41"/>
<path d="M78.094 17.5664H75.25V21.333H78.094V17.5664Z" fill="#2F2E41"/>
<path d="M72.4065 17.5664H69.5625V21.333H72.4065V17.5664Z" fill="#2F2E41"/>
<path d="M75.7216 22.0366C77.0305 22.0366 78.0916 21.7425 78.0916 21.3796C78.0916 21.0168 77.0305 20.7227 75.7216 20.7227C74.4127 20.7227 73.3516 21.0168 73.3516 21.3796C73.3516 21.7425 74.4127 22.0366 75.7216 22.0366Z" fill="#2F2E41"/>
<path d="M70.0341 21.9468C71.343 21.9468 72.4041 21.6526 72.4041 21.2898C72.4041 20.9269 71.343 20.6328 70.0341 20.6328C68.7252 20.6328 67.6641 20.9269 67.6641 21.2898C67.6641 21.6526 68.7252 21.9468 70.0341 21.9468Z" fill="#2F2E41"/>
<path d="M71.191 3.43818C72.0269 0.949721 75.7168 -0.514683 79.4326 0.167341C83.1484 0.849365 85.483 3.41957 84.6471 5.90802C83.8112 8.39648 81.0378 8.40452 77.3221 7.72248C73.6063 7.04045 70.3551 5.92664 71.191 3.43818Z" fill="#E6E6E6"/>
<path d="M72.7305 12.9854C74.4543 12.9854 75.8517 11.9525 75.8517 10.6782C75.8517 9.40404 74.4543 8.37109 72.7305 8.37109C71.0068 8.37109 69.6094 9.40404 69.6094 10.6782C69.6094 11.9525 71.0068 12.9854 72.7305 12.9854Z" fill="white"/>
<path d="M72.5326 12.3858C73.1072 12.3858 73.573 12.0414 73.573 11.6167C73.573 11.192 73.1072 10.8477 72.5326 10.8477C71.958 10.8477 71.4922 11.192 71.4922 11.6167C71.4922 12.0414 71.958 12.3858 72.5326 12.3858Z" fill="#3F3D56"/>
<path d="M76.6953 14.8558C76.9011 15.6915 74.1435 17.1221 73.0129 17.2742C72.47 17.3473 71.91 17.2579 71.4562 17.0258C71.0024 16.7937 70.6919 16.4378 70.5931 16.0365L70.5924 16.0335C70.3877 15.1976 71.262 14.9018 72.3928 14.7505C73.5236 14.5992 76.4906 14.0199 76.6953 14.8558Z" fill="white"/>
<path d="M109.858 63.3306C111.434 61.8156 112.189 60.291 111.546 59.9254C110.903 59.5598 109.104 60.4916 107.528 62.0067C105.953 63.5218 105.197 65.0464 105.841 65.412C106.484 65.7775 108.283 64.8457 109.858 63.3306Z" fill="#2F2E41"/>
<path d="M118.432 68.387C123.602 68.387 127.794 65.2888 127.794 61.4669C127.794 57.6451 123.602 54.5469 118.432 54.5469C113.262 54.5469 109.07 57.6451 109.07 61.4669C109.07 65.2888 113.262 68.387 118.432 68.387Z" fill="#2F2E41"/>
<path d="M122.696 66.8984H119.852V70.6651H122.696V66.8984Z" fill="#2F2E41"/>
<path d="M117.008 66.8984H114.164V70.6651H117.008V66.8984Z" fill="#2F2E41"/>
<path d="M120.331 71.3647C121.64 71.3647 122.701 71.0706 122.701 70.7078C122.701 70.3449 121.64 70.0508 120.331 70.0508C119.022 70.0508 117.961 70.3449 117.961 70.7078C117.961 71.0706 119.022 71.3647 120.331 71.3647Z" fill="#2F2E41"/>
<path d="M114.64 71.2749C115.949 71.2749 117.01 70.9807 117.01 70.6179C117.01 70.2551 115.949 69.9609 114.64 69.9609C113.331 69.9609 112.27 70.2551 112.27 70.6179C112.27 70.9807 113.331 71.2749 114.64 71.2749Z" fill="#2F2E41"/>
<path d="M118.196 62.0779C119.963 62.0779 121.395 61.019 121.395 59.7128C121.395 58.4065 119.963 57.3477 118.196 57.3477C116.429 57.3477 114.996 58.4065 114.996 59.7128C114.996 61.019 116.429 62.0779 118.196 62.0779Z" fill="white"/>
<path d="M117.977 61.6275C118.566 61.6275 119.043 61.2745 119.043 60.8391C119.043 60.4037 118.566 60.0508 117.977 60.0508C117.388 60.0508 116.91 60.4037 116.91 60.8391C116.91 61.2745 117.388 61.6275 117.977 61.6275Z" fill="#3F3D56"/>
<path d="M127.511 55.0305C128.267 52.5281 125.851 49.9995 122.114 49.3828C118.377 48.766 114.736 50.2947 113.98 52.797C113.224 55.2994 115.7 56.2224 119.437 56.8391C123.173 57.4559 126.755 57.5329 127.511 55.0305Z" fill="#0072EF"/>
<path d="M129.497 67.4752C130.227 67.2134 129.905 65.6074 128.777 63.888C127.649 62.1686 126.142 60.9869 125.412 61.2487C124.682 61.5105 125.004 63.1165 126.132 64.8359C127.26 66.5553 128.767 67.737 129.497 67.4752Z" fill="#2F2E41"/>
<path d="M123.03 63.9608C123.03 64.6381 120.671 65.9755 118.053 65.9755C115.435 65.9755 112.98 64.0687 112.98 63.3914C112.98 62.7142 115.435 63.5228 118.053 63.5228C120.671 63.5228 123.03 63.2835 123.03 63.9608Z" fill="white"/>
<path d="M111.416 91.6839C116.587 91.6839 120.778 88.5857 120.778 84.7638C120.778 80.942 116.587 77.8438 111.416 77.8438C106.246 77.8438 102.055 80.942 102.055 84.7638C102.055 88.5857 106.246 91.6839 111.416 91.6839Z" fill="#2F2E41"/>
<path d="M109.993 90.1953H107.148V93.9619H109.993V90.1953Z" fill="#2F2E41"/>
<path d="M115.68 90.1953H112.836V93.9619H115.68V90.1953Z" fill="#2F2E41"/>
<path d="M111.443 95.2341C111.653 94.906 110.863 94.3051 109.679 93.8919C108.496 93.4788 107.366 93.4099 107.157 93.738C106.947 94.0661 107.737 94.6669 108.92 95.0801C110.104 95.4932 111.233 95.5622 111.443 95.2341Z" fill="#2F2E41"/>
<path d="M117.184 95.0586C117.368 94.7224 116.534 94.1552 115.321 93.7918C114.108 93.4284 112.975 93.4064 112.791 93.7427C112.606 94.079 113.44 94.6461 114.654 95.0095C115.867 95.3729 117 95.3949 117.184 95.0586Z" fill="#2F2E41"/>
<path d="M102.334 78.3274C101.578 75.825 103.994 73.2964 107.731 72.6796C111.467 72.0629 115.109 73.5915 115.865 76.0939C116.621 78.5963 114.145 79.5193 110.408 80.136C106.671 80.7528 103.09 80.8298 102.334 78.3274Z" fill="#0072EF"/>
<path d="M122.541 81.9253C123.475 79.9208 123.543 78.12 122.691 77.9031C121.84 77.6862 120.392 79.1354 119.458 81.14C118.523 83.1445 118.456 84.9453 119.307 85.1622C120.158 85.3791 121.606 83.9299 122.541 81.9253Z" fill="#2F2E41"/>
<path d="M103.87 84.0873C104.507 83.6168 103.38 82.0196 101.353 80.5197C99.3252 79.0199 97.1653 78.1855 96.5283 78.6559C95.8914 79.1264 97.0186 80.7237 99.046 82.2235C101.073 83.7233 103.233 84.5577 103.87 84.0873Z" fill="#2F2E41"/>
<path d="M40.5648 97.0199C45.735 97.0199 49.9264 93.9216 49.9264 90.0998C49.9264 86.2779 45.735 83.1797 40.5648 83.1797C35.3945 83.1797 31.2031 86.2779 31.2031 90.0998C31.2031 93.9216 35.3945 97.0199 40.5648 97.0199Z" fill="#2F2E41"/>
<path d="M39.1448 95.5312H36.3008V99.2979H39.1448V95.5312Z" fill="#2F2E41"/>
<path d="M44.8362 95.5312H41.9922V99.2979H44.8362V95.5312Z" fill="#2F2E41"/>
<path d="M38.6708 100.001C39.9798 100.001 41.0409 99.7073 41.0409 99.3445C41.0409 98.9816 39.9798 98.6875 38.6708 98.6875C37.3619 98.6875 36.3008 98.9816 36.3008 99.3445C36.3008 99.7073 37.3619 100.001 38.6708 100.001Z" fill="#2F2E41"/>
<path d="M44.3622 99.9116C45.6712 99.9116 46.7323 99.6175 46.7323 99.2546C46.7323 98.8918 45.6712 98.5977 44.3622 98.5977C43.0533 98.5977 41.9922 98.8918 41.9922 99.2546C41.9922 99.6175 43.0533 99.9116 44.3622 99.9116Z" fill="#2F2E41"/>
<path d="M31.4861 83.6672C30.7302 81.1648 33.1465 78.6362 36.8831 78.0195C40.6197 77.4027 44.2616 78.9314 45.0176 81.4338C45.7735 83.9362 43.2971 84.8591 39.5605 85.4759C35.8238 86.0926 32.242 86.1697 31.4861 83.6672Z" fill="#3F3D56"/>
<path d="M52.569 91.8765C52.99 91.2881 51.276 90.0074 48.7405 89.016C46.2051 88.0246 43.8084 87.6979 43.3874 88.2862C42.9663 88.8746 44.6804 90.1553 47.2158 91.1467C49.7512 92.1381 52.1479 92.4648 52.569 91.8765Z" fill="#2F2E41"/>
<path d="M39.2699 55.3239C41.6057 54.505 43.2172 53.4017 42.8695 52.8597C42.5217 52.3177 40.3463 52.5421 38.0105 53.361C35.6747 54.1799 34.0632 55.2831 34.411 55.8252C34.7587 56.3672 36.9342 56.1427 39.2699 55.3239Z" fill="#2F2E41"/>
<path d="M19.2661 59.4526C20.9257 57.9874 21.7666 56.4875 21.1443 56.1024C20.5221 55.7173 18.6723 56.5928 17.0127 58.058C15.3532 59.5232 14.5122 61.0231 15.1345 61.4082C15.7567 61.7934 17.6065 60.9178 19.2661 59.4526Z" fill="#2F2E41"/>
<path d="M28.096 64.473C33.2663 64.473 37.4577 61.3748 37.4577 57.5529C37.4577 53.731 33.2663 50.6328 28.096 50.6328C22.9257 50.6328 18.7344 53.731 18.7344 57.5529C18.7344 61.3748 22.9257 64.473 28.096 64.473Z" fill="#2F2E41"/>
<path d="M26.9769 62.9844H24.1328V66.751H26.9769V62.9844Z" fill="#2F2E41"/>
<path d="M32.6644 62.9844H29.8203V66.751H32.6644V62.9844Z" fill="#2F2E41"/>
<path d="M26.5028 67.4507C27.8118 67.4507 28.8729 67.1565 28.8729 66.7937C28.8729 66.4309 27.8118 66.1367 26.5028 66.1367C25.1939 66.1367 24.1328 66.4309 24.1328 66.7937C24.1328 67.1565 25.1939 67.4507 26.5028 67.4507Z" fill="#2F2E41"/>
<path d="M32.1904 67.3608C33.4993 67.3608 34.5604 67.0667 34.5604 66.7038C34.5604 66.341 33.4993 66.0469 32.1904 66.0469C30.8814 66.0469 29.8203 66.341 29.8203 66.7038C29.8203 67.0667 30.8814 67.3608 32.1904 67.3608Z" fill="#2F2E41"/>
<path d="M31.032 48.8522C30.1961 46.3638 26.5062 44.8994 22.7904 45.5814C19.0746 46.2634 16.74 48.8336 17.5759 51.3221C18.4118 53.8105 21.1851 53.8186 24.9009 53.1365C28.6167 52.4545 31.8679 51.3407 31.032 48.8522Z" fill="#0072EF"/>
<path d="M29.4962 58.3995C31.2199 58.3995 32.6173 57.3665 32.6173 56.0923C32.6173 54.8181 31.2199 53.7852 29.4962 53.7852C27.7724 53.7852 26.375 54.8181 26.375 56.0923C26.375 57.3665 27.7724 58.3995 29.4962 58.3995Z" fill="white"/>
<path d="M29.6888 57.7998C30.2634 57.7998 30.7292 57.4555 30.7292 57.0308C30.7292 56.606 30.2634 56.2617 29.6888 56.2617C29.1142 56.2617 28.6484 56.606 28.6484 57.0308C28.6484 57.4555 29.1142 57.7998 29.6888 57.7998Z" fill="#3F3D56"/>
<path d="M27.5336 60.8996C27.4847 61.0983 27.4892 61.3022 27.5469 61.4997C27.6045 61.6971 27.7142 61.8842 27.8697 62.0503C28.0252 62.2164 28.2234 62.3582 28.4531 62.4677C28.6827 62.5772 28.9393 62.6521 29.2081 62.6883C29.477 62.7245 29.7528 62.7212 30.0199 62.6786C30.287 62.6359 30.5401 62.5548 30.7648 62.4399C30.9895 62.325 31.1814 62.1784 31.3295 62.0087C31.4776 61.8389 31.579 61.6493 31.6279 61.4506L31.6287 61.4476C31.8334 60.6117 30.9591 60.3159 29.8283 60.1646C28.6975 60.0133 27.7383 60.0638 27.5336 60.8996Z" fill="white"/>
<path d="M149.739 99.9412L4.80645 99.9906C4.7724 99.9907 4.73866 99.9858 4.70717 99.9762C4.67568 99.9666 4.64706 99.9525 4.62295 99.9348C4.59884 99.917 4.5797 99.8959 4.56665 99.8726C4.5536 99.8494 4.54688 99.8245 4.54688 99.7993C4.54688 99.7741 4.5536 99.7492 4.56665 99.726C4.5797 99.7027 4.59884 99.6816 4.62295 99.6638C4.64706 99.646 4.67568 99.632 4.70717 99.6224C4.73866 99.6128 4.7724 99.6079 4.80645 99.608L149.739 99.5586C149.808 99.5587 149.874 99.579 149.922 99.6148C149.97 99.6507 149.997 99.6993 149.997 99.7499C149.997 99.8006 149.97 99.8491 149.922 99.885C149.874 99.9209 149.808 99.9411 149.739 99.9412Z" fill="#CACACA"/>
</g>
<defs>
<clipPath id="clip0_33734_83034">
<rect width="150" height="100" fill="white"/>
</clipPath>
</defs>
</svg>
