<svg width="40" height="40" viewBox="0 0 40 40" fill="none" xmlns="http://www.w3.org/2000/svg">
<g clip-path="url(#clip0_39669_111832)">
<path d="M20 40C31.0457 40 40 31.0457 40 20C40 8.9543 31.0457 0 20 0C8.9543 0 0 8.9543 0 20C0 31.0457 8.9543 40 20 40Z" fill="#2DAAE1"/>
<path d="M32.8232 12.0441C31.8798 12.4627 30.8666 12.7457 29.8012 12.8729C30.8885 12.2218 31.7215 11.1901 32.1147 9.96217C31.0819 10.5756 29.9516 11.0075 28.7729 11.239C27.8136 10.2165 26.4457 9.57812 24.9324 9.57812C22.0276 9.57812 19.6718 11.933 19.6718 14.8394C19.6718 15.2513 19.7182 15.653 19.8074 16.0388C15.4346 15.819 11.5579 13.7244 8.96295 10.5417C8.50984 11.319 8.25048 12.2227 8.25048 13.187C8.25048 15.0121 9.17945 16.6225 10.591 17.5658C9.75538 17.5399 8.93811 17.3143 8.2075 16.908V16.9745C8.2075 19.5239 10.0208 21.6496 12.4279 22.1331C11.9857 22.2543 11.5217 22.3175 11.0416 22.3175C10.7022 22.3175 10.3729 22.2854 10.0512 22.2249C10.7207 24.3145 12.6638 25.8355 14.9655 25.8785C13.1648 27.29 10.8958 28.1315 8.43154 28.1315C8.00709 28.1315 7.5876 28.1061 7.17578 28.0565C9.50454 29.5497 12.2696 30.4215 15.2409 30.4215C24.9181 30.4215 30.2106 22.4043 30.2106 15.4518C30.2106 15.2236 30.2055 14.997 30.1945 14.7713C31.2257 14.0254 32.1158 13.102 32.8232 12.0441Z" fill="white"/>
</g>
<defs>
<clipPath id="clip0_39669_111832">
<rect width="40" height="40" fill="white"/>
</clipPath>
</defs>
</svg>
