<svg width="30" height="30" viewBox="0 0 30 30" fill="none" xmlns="http://www.w3.org/2000/svg">
<path d="M25.4371 3.69824H4.2119C3.70145 3.69824 3.28906 4.11063 3.28906 4.62108V25.8463C3.28906 26.3568 3.70145 26.7691 4.2119 26.7691H25.4371C25.9476 26.7691 26.36 26.3568 26.36 25.8463V4.62108C26.36 4.11063 25.9476 3.69824 25.4371 3.69824ZM21.0335 12.0528C21.0421 12.1883 21.0421 12.3296 21.0421 12.4681C21.0421 16.7016 17.818 21.5782 11.9262 21.5782C10.1094 21.5782 8.42522 21.0504 7.00636 20.142C7.26591 20.1709 7.51392 20.1824 7.77924 20.1824C9.27885 20.1824 10.6573 19.6748 11.7561 18.8155C10.3488 18.7866 9.16638 17.8638 8.76263 16.5949C9.25578 16.667 9.69989 16.667 10.2075 16.5372C9.48281 16.39 8.83149 15.9964 8.36413 15.4234C7.89678 14.8504 7.64222 14.1332 7.6437 13.3938V13.3534C8.06762 13.5928 8.56653 13.7399 9.08851 13.76C8.64971 13.4676 8.28985 13.0714 8.04084 12.6066C7.79182 12.1418 7.66136 11.6227 7.661 11.0954C7.661 10.4984 7.81673 9.95334 8.09646 9.48039C8.90078 10.4705 9.90445 11.2803 11.0422 11.8572C12.18 12.434 13.4264 12.765 14.7005 12.8286C14.2477 10.6512 15.8742 8.8892 17.8295 8.8892C18.7523 8.8892 19.5829 9.27563 20.1683 9.89855C20.8922 9.76301 21.5843 9.49192 22.2014 9.12856C21.9621 9.86971 21.4603 10.4955 20.7941 10.8906C21.4401 10.8214 22.063 10.6426 22.6398 10.3917C22.2043 11.0319 21.6593 11.6 21.0335 12.0528Z" fill="white"/>
</svg>
