<svg width="10" height="14" viewBox="0 0 10 14" fill="none" xmlns="http://www.w3.org/2000/svg">
<path d="M2.4987 13.6663C1.57822 13.6663 0.832031 12.9201 0.832031 11.9997C0.832031 11.0792 1.57822 10.333 2.4987 10.333C3.41917 10.333 4.16537 11.0792 4.16537 11.9997C4.16537 12.9201 3.41917 13.6663 2.4987 13.6663ZM2.4987 8.66634C1.57822 8.66634 0.832031 7.92015 0.832031 6.99967C0.832031 6.0792 1.57822 5.33301 2.4987 5.33301C3.41917 5.33301 4.16537 6.0792 4.16537 6.99967C4.16537 7.4417 3.98977 7.86562 3.67721 8.17818C3.36465 8.49075 2.94073 8.66634 2.4987 8.66634ZM2.4987 3.66634C1.57822 3.66634 0.832031 2.92015 0.832031 1.99967C0.832031 1.0792 1.57822 0.333008 2.4987 0.333008C3.41917 0.333008 4.16537 1.0792 4.16537 1.99967C4.16537 2.4417 3.98977 2.86562 3.67721 3.17819C3.36465 3.49075 2.94073 3.66634 2.4987 3.66634Z" fill="#8C8C8C"/>
<path d="M7.83268 13.6663C6.91221 13.6663 6.16602 12.9201 6.16602 11.9997C6.16602 11.0792 6.91221 10.333 7.83268 10.333C8.75316 10.333 9.49935 11.0792 9.49935 11.9997C9.49935 12.9201 8.75316 13.6663 7.83268 13.6663ZM7.83268 8.66634C6.91221 8.66634 6.16602 7.92015 6.16602 6.99967C6.16602 6.0792 6.91221 5.33301 7.83268 5.33301C8.75316 5.33301 9.49935 6.0792 9.49935 6.99967C9.49935 7.4417 9.32375 7.86562 9.01119 8.17818C8.69863 8.49075 8.27471 8.66634 7.83268 8.66634ZM7.83268 3.66634C6.91221 3.66634 6.16602 2.92015 6.16602 1.99967C6.16602 1.0792 6.91221 0.333008 7.83268 0.333008C8.75316 0.333008 9.49935 1.0792 9.49935 1.99967C9.49935 2.4417 9.32375 2.86562 9.01119 3.17819C8.69863 3.49075 8.27471 3.66634 7.83268 3.66634Z" fill="#8C8C8C"/>
</svg>
