<svg width="198" height="220" viewBox="0 0 198 220" fill="none" xmlns="http://www.w3.org/2000/svg">
<g clip-path="url(#clip0_31199_142643)">
<path d="M107.44 126.305C107.578 123.552 108.366 120.87 109.74 118.481C111.114 116.091 113.035 114.061 115.345 112.557C116 112.136 116.718 111.587 117.535 111.863C117.848 111.958 118.119 112.157 118.304 112.427C118.489 112.697 118.578 113.021 118.555 113.348C118.472 113.755 118.258 114.124 117.945 114.398C117.632 114.672 117.238 114.836 116.823 114.863C116.408 114.891 115.996 114.781 115.65 114.551C115.303 114.321 115.042 113.983 114.907 113.59C114.068 111.693 115.301 109.752 116.285 108.185C118.526 104.614 120.544 100.693 120.749 96.3986C120.939 92.4255 119.328 88.1885 115.856 86.0248C115.249 85.6462 114.705 86.6126 115.309 86.9893C118.752 89.1351 120.035 93.5464 119.557 97.4026C119.225 99.7012 118.501 101.926 117.418 103.98C116.883 105.045 116.287 106.079 115.661 107.093C115.005 108.058 114.437 109.08 113.963 110.146C113.26 111.922 113.346 114.261 115.034 115.473C115.433 115.73 115.887 115.89 116.359 115.94C116.831 115.99 117.308 115.928 117.753 115.761C118.197 115.593 118.596 115.324 118.917 114.975C119.239 114.626 119.475 114.206 119.605 113.75C119.683 113.326 119.654 112.89 119.522 112.48C119.39 112.07 119.158 111.7 118.847 111.401C118.537 111.103 118.157 110.887 117.742 110.772C117.327 110.656 116.89 110.646 116.47 110.741C115.534 111.055 114.668 111.548 113.921 112.193C111.68 113.83 109.835 115.949 108.521 118.394C107.208 120.838 106.459 123.547 106.331 126.319C106.305 127.033 107.414 127.016 107.44 126.305L107.44 126.305Z" fill="#2F2E41"/>
<path d="M96.6353 167.828C112.185 167.828 124.79 155.223 124.79 139.673C124.79 124.124 112.185 111.519 96.6353 111.519C81.0858 111.519 68.4805 124.124 68.4805 139.673C68.4805 155.223 81.0858 167.828 96.6353 167.828Z" fill="#FF4D4F" fill-opacity="0.3"/>
<path d="M33.3976 209.37C32.745 209.262 32.1334 208.98 31.6272 208.554C31.1209 208.129 30.7385 207.575 30.5201 206.95L27.9621 199.619C27.6414 198.697 27.6996 197.685 28.1239 196.806C28.5483 195.927 29.3042 195.252 30.2257 194.929L91.3264 173.609C92.2485 173.288 93.2602 173.346 94.1395 173.77C95.0188 174.195 95.6938 174.951 96.0165 175.872L98.5746 183.203C98.8952 184.125 98.837 185.137 98.4126 186.016C97.9882 186.895 97.2324 187.57 96.311 187.893L35.2103 209.214C34.6288 209.418 34.0053 209.471 33.3976 209.37Z" fill="#FF4D4F" fill-opacity="0.3"/>
<path d="M76.217 197.076C75.5284 196.96 74.8869 196.65 74.3669 196.184C73.8469 195.718 73.4698 195.114 73.2792 194.442L69.1299 180.445C68.9982 179.98 68.9595 179.493 69.0162 179.012C69.0728 178.532 69.2236 178.067 69.4599 177.645C69.6963 177.223 70.0136 176.851 70.3936 176.551C70.7736 176.252 71.2089 176.03 71.6747 175.899L100.709 170.164C101.46 169.95 102.744 170.836 103.775 171.547C104.099 171.77 104.378 171.963 104.573 172.072C104.659 172.12 104.742 172.171 104.822 172.225C105.55 172.712 106.081 173.443 106.317 174.287L108.423 181.76C108.687 182.7 108.567 183.706 108.09 184.558C107.612 185.409 106.817 186.037 105.877 186.303L77.8442 196.981C77.3156 197.133 76.7598 197.165 76.217 197.076Z" fill="#0072EF"/>
<path d="M100.384 150.109L100.413 149.057C98.4561 149.003 96.7304 148.88 95.4338 147.933C95.0661 147.649 94.764 147.289 94.5478 146.878C94.3316 146.467 94.2065 146.014 94.181 145.55C94.1582 145.267 94.2011 144.982 94.3063 144.718C94.4115 144.454 94.5761 144.218 94.7875 144.028C95.6483 143.301 97.0333 143.536 98.0428 143.999L98.9134 144.398L97.244 132.198L96.2016 132.341L97.6216 142.719C97.0403 142.503 96.4143 142.436 95.8007 142.525C95.187 142.613 94.6052 142.853 94.1084 143.224C93.7741 143.516 93.5118 143.881 93.342 144.291C93.1723 144.701 93.0996 145.145 93.1297 145.587C93.1604 146.21 93.327 146.819 93.6178 147.371C93.9086 147.923 94.3166 148.405 94.8132 148.782C96.4792 150 98.6444 150.06 100.384 150.109Z" fill="#2F2E41"/>
<path d="M91.0454 133.235H85.3789V134.288H91.0454V133.235Z" fill="#2F2E41"/>
<path d="M108.932 133.235H103.266V134.288H108.932V133.235Z" fill="#2F2E41"/>
<path d="M95.6513 185.021L153.737 213.55C154.614 213.979 155.625 214.043 156.549 213.728C157.473 213.413 158.234 212.744 158.666 211.868L162.089 204.899C162.518 204.022 162.582 203.011 162.267 202.087C161.952 201.163 161.283 200.401 160.407 199.97L102.321 171.441C101.444 171.012 100.433 170.947 99.5088 171.263C98.5848 171.578 97.8236 172.247 97.3923 173.123L93.9695 180.092C93.7553 180.526 93.6292 180.998 93.5986 181.48C93.568 181.963 93.6334 182.447 93.7912 182.904C93.9143 183.267 94.093 183.608 94.3208 183.916C94.6696 184.385 95.1258 184.764 95.6513 185.021Z" fill="#FF4D4F" fill-opacity="0.3"/>
<path d="M93.6363 185.153L119.146 201.024C120.018 201.463 121.028 201.538 121.955 201.234C122.882 200.929 123.65 200.269 124.091 199.399L130.847 186.449C131.066 186.016 131.197 185.544 131.232 185.06C131.268 184.576 131.207 184.09 131.054 183.629C130.901 183.169 130.658 182.743 130.34 182.376C130.022 182.01 129.634 181.71 129.199 181.494L101.839 170.322C101.123 169.961 99.694 170.584 98.5455 171.085C98.1854 171.242 97.8743 171.377 97.6621 171.447C97.5688 171.477 97.4774 171.512 97.3883 171.549C96.5804 171.888 95.92 172.504 95.526 173.286L92.028 180.218C91.7203 180.829 91.5883 181.514 91.647 182.195C91.7056 182.877 91.9524 183.529 92.36 184.079C92.6957 184.532 93.1328 184.9 93.6363 185.153Z" fill="#0072EF"/>
<path d="M94.352 101.334L79.0273 98.284L79.2685 97.2197L92.8167 99.9132L94.352 101.334Z" fill="white"/>
<path d="M106.419 112.513L77.1191 106.683L77.3603 105.613L104.883 111.087L106.419 112.513Z" fill="white"/>
<path d="M155.487 151.952C157.311 151.952 158.79 150.473 158.79 148.649C158.79 146.825 157.311 145.346 155.487 145.346C153.663 145.346 152.184 146.825 152.184 148.649C152.184 150.473 153.663 151.952 155.487 151.952Z" fill="#E6E6E6"/>
<path d="M126.419 34.3547C128.243 34.3547 129.722 32.8757 129.722 31.0514C129.722 29.227 128.243 27.748 126.419 27.748C124.594 27.748 123.115 29.227 123.115 31.0514C123.115 32.8757 124.594 34.3547 126.419 34.3547Z" fill="#CCCCCC"/>
<path d="M46.1581 103.797C49.6169 104.015 52.975 105.05 55.9569 106.816C58.9387 108.582 61.4596 111.03 63.3128 113.959C63.8321 114.789 64.5101 115.701 64.1506 116.723C64.0253 117.115 63.7708 117.453 63.4288 117.682C63.0867 117.91 62.6772 118.016 62.2673 117.981C61.7562 117.871 61.2955 117.596 60.9562 117.198C60.6169 116.801 60.418 116.302 60.39 115.78C60.3621 115.258 60.5066 114.741 60.8014 114.31C61.0962 113.878 61.5249 113.555 62.0213 113.391C64.4203 112.368 66.8406 113.949 68.7947 115.211C73.2473 118.087 78.1447 120.688 83.54 121.016C88.5319 121.319 93.8849 119.362 96.6615 115.033C97.1473 114.275 95.9412 113.575 95.4578 114.329C92.7041 118.622 87.1374 120.164 82.2971 119.501C79.4127 119.046 76.6275 118.1 74.0622 116.705C72.7318 116.014 71.4415 115.249 70.1773 114.445C68.9743 113.605 67.6992 112.874 66.367 112.26C64.1452 111.348 61.2039 111.419 59.6519 113.52C58.2041 115.481 59.323 118.744 61.7447 119.295C62.2759 119.4 62.8248 119.371 63.3422 119.212C63.8596 119.052 64.3293 118.767 64.7092 118.381C65.0891 117.995 65.3673 117.521 65.5189 117.001C65.6706 116.481 65.6908 115.932 65.5779 115.403C65.3363 114.248 64.467 113.118 63.7941 112.175C61.7724 109.331 59.1384 106.976 56.0862 105.285C53.034 103.594 49.6413 102.609 46.158 102.403C45.2613 102.359 45.2636 103.753 46.158 103.797L46.1581 103.797Z" fill="#2F2E41"/>
<path d="M85.4576 56.5332H82.1543V67.3869H85.4576V56.5332Z" fill="#CCCCCC"/>
<path d="M32.048 48.9588L34.3438 46.6631L26.8007 39.12L24.505 41.4157L32.048 48.9588Z" fill="#B3B3B3"/>
<path d="M124.925 71.7688L127.221 74.0645L134.764 66.5214L132.468 64.2257L124.925 71.7688Z" fill="#B3B3B3"/>
<path d="M31.1105 165.582L33.4062 167.878L40.9493 160.335L38.6536 158.039L31.1105 165.582Z" fill="#D9D9D9"/>
</g>
<defs>
<clipPath id="clip0_31199_142643">
<rect width="196.216" height="220" fill="white" transform="translate(0.892578)"/>
</clipPath>
</defs>
</svg>
