<svg width="52" height="52" viewBox="0 0 52 52" fill="none" xmlns="http://www.w3.org/2000/svg">
<path fill-rule="evenodd" clip-rule="evenodd" d="M50.9282 22.9631L47.4204 18.6109C46.8682 17.8963 46.5109 17.0518 46.4135 16.1099L45.7964 10.5884C45.6712 9.48585 45.1758 8.45836 44.3912 7.67374C43.6066 6.88913 42.5791 6.39377 41.4766 6.26858L35.955 5.65147C34.9806 5.55403 34.1362 5.13179 33.4216 4.57964L29.0693 1.07183C27.2829 -0.357277 24.7495 -0.357277 22.9631 1.07183L18.6109 4.57964C17.8963 5.13179 17.0518 5.48907 16.1099 5.58651L10.5884 6.20362C8.3148 6.46346 6.52842 8.24984 6.26858 10.5234L5.65147 16.045C5.55403 17.0194 5.13179 17.8638 4.57964 18.5784L1.07183 22.9307C-0.357277 24.7171 -0.357277 27.2505 1.07183 29.0369L4.57964 33.3891C5.13179 34.1037 5.48907 34.9482 5.58651 35.8901L6.20362 41.4116C6.46346 43.6852 8.24984 45.4716 10.5234 45.7314L16.045 46.3485C17.0194 46.446 17.8638 46.8682 18.5784 47.4204L22.9307 50.9282C24.7171 52.3573 27.2505 52.3573 29.0369 50.9282L33.3891 47.4204C34.1037 46.8682 34.9482 46.5109 35.8901 46.4135L41.4116 45.7964C43.6852 45.5365 45.4716 43.7502 45.7314 41.4766L46.3485 35.955C46.446 34.9806 46.8682 34.1362 47.4204 33.4216L50.9282 29.0693C52.3573 27.2829 52.3573 24.7495 50.9282 22.9631ZM21.1443 39.0081L9.77639 27.6402L14.6483 22.7683L21.1443 29.2642L37.3841 13.0244L42.2561 18.0587L21.1443 39.0081Z" fill="#0072EF"/>
</svg>
