<svg width="72" height="71" viewBox="0 0 72 71" fill="none" xmlns="http://www.w3.org/2000/svg">
<path fill-rule="evenodd" clip-rule="evenodd" d="M69.9961 31.3566L65.175 25.4542C64.4161 24.4851 63.925 23.3399 63.7911 22.0625L62.9429 14.5744C62.7709 13.0792 62.09 11.6857 61.0117 10.6217C59.9333 9.55761 58.5211 8.88582 57.0058 8.71605L49.4169 7.87914C48.0777 7.747 46.917 7.17438 45.9349 6.42557L39.9531 1.66842C37.4979 -0.269681 34.016 -0.269681 31.5607 1.66842L25.5789 6.42557C24.5968 7.17438 23.4362 7.6589 22.1416 7.79105L14.5528 8.62795C11.4279 8.98033 8.97272 11.403 8.61559 14.4863L7.76743 21.9744C7.6335 23.2958 7.05318 24.4411 6.29429 25.4101L1.47313 31.3125C-0.491044 33.7351 -0.491044 37.1709 1.47313 39.5935L6.29429 45.4959C7.05318 46.4649 7.54422 47.6102 7.67815 48.8875L8.52631 56.3757C8.88344 59.459 11.3387 61.8816 14.4635 62.234L22.0523 63.0709C23.3916 63.203 24.5522 63.7757 25.5343 64.5245L31.5161 69.2816C33.9713 71.2197 37.4533 71.2197 39.9085 69.2816L45.8903 64.5245C46.8724 63.7757 48.0331 63.2911 49.3276 63.159L56.9165 62.3221C60.0413 61.9697 62.4965 59.5471 62.8537 56.4638L63.7018 48.9756C63.8357 47.6542 64.4161 46.509 65.175 45.5399L69.9961 39.6375C71.9603 37.2149 71.9603 33.7792 69.9961 31.3566ZM29.0609 53.1161L13.4368 37.6994L20.1328 31.0923L29.0609 39.9018L51.3811 17.878L58.0771 24.7054L29.0609 53.1161Z" fill="#0072EF"/>
</svg>
