<svg width="16" height="17" viewBox="0 0 16 17" fill="none" xmlns="http://www.w3.org/2000/svg">
<path fill-rule="evenodd" clip-rule="evenodd" d="M15.6702 7.07977L14.5902 5.73977C14.4202 5.51977 14.3102 5.25977 14.2802 4.96977L14.0902 3.26977C14.0517 2.93031 13.8992 2.61396 13.6576 2.37239C13.416 2.13082 13.0997 1.97831 12.7602 1.93977L11.0602 1.74977C10.7602 1.71977 10.5002 1.58977 10.2802 1.41977L8.94023 0.339766C8.39023 -0.100234 7.61023 -0.100234 7.06023 0.339766L5.72023 1.41977C5.50023 1.58977 5.24023 1.69977 4.95023 1.72977L3.25023 1.91977C2.55023 1.99977 2.00023 2.54977 1.92023 3.24977L1.73023 4.94977C1.70023 5.24977 1.57023 5.50977 1.40023 5.72977L0.320234 7.06977C-0.119766 7.61977 -0.119766 8.39977 0.320234 8.94977L1.40023 10.2898C1.57023 10.5098 1.68023 10.7698 1.71023 11.0598L1.90023 12.7598C1.98023 13.4598 2.53023 14.0098 3.23023 14.0898L4.93023 14.2798C5.23023 14.3098 5.49023 14.4398 5.71023 14.6098L7.05023 15.6898C7.60023 16.1298 8.38023 16.1298 8.93023 15.6898L10.2702 14.6098C10.4902 14.4398 10.7502 14.3298 11.0402 14.2998L12.7402 14.1098C13.4402 14.0298 13.9902 13.4798 14.0702 12.7798L14.2602 11.0798C14.2902 10.7798 14.4202 10.5198 14.5902 10.2998L15.6702 8.95977C16.1102 8.40977 16.1102 7.62977 15.6702 7.07977ZM6.50023 12.0198L3.00023 8.51977L4.50023 7.01977L6.50023 9.01977L11.5002 4.01977L13.0002 5.56977L6.50023 12.0198Z" fill="#0072EF"/>
</svg>
