<svg width="61" height="61" viewBox="0 0 61 61" fill="none" xmlns="http://www.w3.org/2000/svg">
<circle cx="30.5" cy="30.5" r="30.5" fill="#00B140"/>
<path d="M47.4573 35.2178L41.4926 20.2988C41.4911 20.2959 41.4911 20.2929 41.4895 20.2901L41.488 20.2886C40.7017 18.321 38.6714 17 36.4375 17C34.2036 17 32.1733 18.3209 31.3855 20.2901C31.1573 20.8614 31.0417 21.4631 31.0417 22.075V28.6H27.9583V22.075C27.9583 19.2765 25.5379 17 22.5625 17C20.3286 17 18.2983 18.3209 17.5105 20.2901C17.5089 20.2929 17.5089 20.2959 17.5074 20.2988L11.5427 35.2135C11.5427 35.2149 11.5411 35.2149 11.5411 35.2149C11.1819 36.1154 11 37.0593 11 38.025C11 42.4228 14.8048 46 19.4792 46C24.1535 46 27.9583 42.4228 27.9583 38.025V37.3H31.0417V38.025C31.0417 42.4228 34.8465 46 39.5208 46C44.1952 46 48 42.4228 48 38.025C48 37.0593 47.8181 36.1154 47.4573 35.2178ZM19.4792 43.1C16.5038 43.1 14.0833 40.8235 14.0833 38.025C14.0833 37.4102 14.199 36.8084 14.4271 36.2386C15.2134 34.2724 17.2438 32.95 19.4792 32.95C22.4546 32.95 24.875 35.2265 24.875 38.025C24.875 40.8235 22.4546 43.1 19.4792 43.1ZM39.5208 43.1C36.5454 43.1 34.125 40.8235 34.125 38.025C34.125 35.2265 36.5454 32.95 39.5208 32.95C41.7563 32.95 43.7866 34.2724 44.5729 36.2386C44.801 36.8084 44.9167 37.4102 44.9167 38.025C44.9167 40.8235 42.4963 43.1 39.5208 43.1Z" fill="white"/>
</svg>
