<svg width="407" height="401" viewBox="0 0 407 401" fill="none" xmlns="http://www.w3.org/2000/svg">
<path d="M454 352.663H-79V352.395H454V352.663Z" fill="#EDEDEB"/>
<path d="M9.71875 369.988H-25.5895V369.719H9.71875V369.988Z" fill="#EDEDEB"/>
<path d="M110.188 372.906H100.92V372.637H110.188V372.906Z" fill="#EDEDEB"/>
<path d="M31.2344 359.995H10.7753V359.727H31.2344V359.995Z" fill="#EDEDEB"/>
<path d="M398.078 361.801H352.034V361.531H398.078V361.801Z" fill="#EDEDEB"/>
<path d="M342.547 361.801H335.796V361.531H342.547V361.801Z" fill="#EDEDEB"/>
<path d="M313.852 366.347H213.993V366.078H313.852V366.347Z" fill="#EDEDEB"/>
<path d="M407.181 0.269651C410.389 0.269651 412.999 2.90417 412.999 6.14231V298.256C412.999 301.495 410.389 304.129 407.181 304.129H201.338C198.13 304.129 195.521 301.495 195.521 298.256V6.14231C195.521 2.90417 198.13 0.269651 201.338 0.269651H407.181ZM201.338 304.398H407.181C410.536 304.398 413.266 301.643 413.266 298.255V6.14154C413.266 2.7554 410.536 0 407.181 0H201.338C197.984 0 195.255 2.75618 195.255 6.14154V298.255C195.255 301.643 197.985 304.398 201.338 304.398Z" fill="#EDEDEB"/>
<path d="M176.612 0.269651C179.819 0.269651 182.429 2.90417 182.429 6.14231V298.256C182.429 301.495 179.819 304.129 176.612 304.129H-29.2302C-32.4392 304.129 -35.0495 301.495 -35.0495 298.256V6.14231C-35.0495 2.90417 -32.4384 0.269651 -29.2302 0.269651H176.612ZM-29.2302 304.398H176.612C179.967 304.398 182.695 301.643 182.695 298.255V6.14154C182.695 2.7554 179.966 0 176.612 0H-29.2302C-32.5858 0 -35.3166 2.75618 -35.3166 6.14154V298.255C-35.3166 301.643 -32.5865 304.398 -29.2302 304.398Z" fill="#EDEDEB"/>
<path d="M-12.781 351.692V301.306H-8.5144V277.297H-2.27597V193.82H6.7424V183.049L25.9979 173.983V163.122H28.6651V193.82H32.399V277.297H36.133V233.404H46.2689V210.785H49.0964V277.297H56.7954V251.984H61.8634V245.522H73.5988V223.44H80.026V207.823H87.9261V185.069H90.7452V207.823H98.646V223.44H105.072V245.522H116.809V251.984H121.877V277.297H127.887V245.522H139.624V177.125H143.358V169.586H168.431V177.125H173.765V226.672H195.103V231.519H203.104V235.289H195.103V254.677H217.507V190.05H222.309V176.317H232.711V127.578H235.646V176.317H243.113V190.05H286.898V185.531H289.565V216.228H293.299V216.766H295.542V247.464H299.277V255.811H307.169V233.192H309.997V287.047H313.146V264.428H315.974V299.703H317.695V274.392H322.764V267.929H334.499V245.847H340.926V230.23H348.826V207.476H351.645V230.23H359.546V245.847H365.973V267.929H377.709V274.392H382.777V299.165H383.686V299.703H386.195V351.692H-12.781Z" fill="#E8E7E8"/>
<path d="M262.469 196.119H259.447V193.066H262.469V196.119Z" fill="#F1F1F0"/>
<path d="M262.469 201.236H259.447V198.184H262.469V201.236Z" fill="#F1F1F0"/>
<path d="M262.469 221.701H259.447V218.648H262.469V221.701Z" fill="#F1F1F0"/>
<path d="M262.469 226.818H259.447V223.766H262.469V226.818Z" fill="#F1F1F0"/>
<path d="M262.469 231.933H259.447V228.883H262.469V231.933Z" fill="#F1F1F0"/>
<path d="M262.469 247.282H259.447V244.23H262.469V247.282Z" fill="#F1F1F0"/>
<path d="M262.469 252.398H259.447V249.348H262.469V252.398Z" fill="#F1F1F0"/>
<path d="M257.664 216.587H254.641V213.535H257.664V216.587Z" fill="#F1F1F0"/>
<path d="M257.664 221.701H254.641V218.648H257.664V221.701Z" fill="#F1F1F0"/>
<path d="M257.664 226.818H254.641V223.766H257.664V226.818Z" fill="#F1F1F0"/>
<path d="M257.664 231.933H254.641V228.883H257.664V231.933Z" fill="#F1F1F0"/>
<path d="M257.664 237.051H254.641V234H257.664V237.051Z" fill="#F1F1F0"/>
<path d="M257.664 247.282H254.641V244.23H257.664V247.282Z" fill="#F1F1F0"/>
<path d="M257.664 252.398H254.641V249.348H257.664V252.398Z" fill="#F1F1F0"/>
<path d="M252.859 196.119H249.837V193.066H252.859V196.119Z" fill="#F1F1F0"/>
<path d="M252.859 201.236H249.837V198.184H252.859V201.236Z" fill="#F1F1F0"/>
<path d="M252.859 206.352H249.837V203.301H252.859V206.352Z" fill="#F1F1F0"/>
<path d="M252.859 211.47H249.837V208.418H252.859V211.47Z" fill="#F1F1F0"/>
<path d="M252.859 216.587H249.837V213.535H252.859V216.587Z" fill="#F1F1F0"/>
<path d="M252.859 221.701H249.837V218.648H252.859V221.701Z" fill="#F1F1F0"/>
<path d="M252.859 226.818H249.837V223.766H252.859V226.818Z" fill="#F1F1F0"/>
<path d="M252.859 231.933H249.837V228.883H252.859V231.933Z" fill="#F1F1F0"/>
<path d="M252.859 237.051H249.837V234H252.859V237.051Z" fill="#F1F1F0"/>
<path d="M252.859 242.169H249.837V239.117H252.859V242.169Z" fill="#F1F1F0"/>
<path d="M252.859 252.398H249.837V249.348H252.859V252.398Z" fill="#F1F1F0"/>
<path d="M248.062 196.119H245.039V193.066H248.062V196.119Z" fill="#F1F1F0"/>
<path d="M248.062 201.236H245.039V198.184H248.062V201.236Z" fill="#F1F1F0"/>
<path d="M248.062 206.352H245.039V203.301H248.062V206.352Z" fill="#F1F1F0"/>
<path d="M248.062 211.47H245.039V208.418H248.062V211.47Z" fill="#F1F1F0"/>
<path d="M248.062 216.587H245.039V213.535H248.062V216.587Z" fill="#F1F1F0"/>
<path d="M248.062 221.701H245.039V218.648H248.062V221.701Z" fill="#F1F1F0"/>
<path d="M248.062 226.818H245.039V223.766H248.062V226.818Z" fill="#F1F1F0"/>
<path d="M248.062 272.865H245.039V269.812H248.062V272.865Z" fill="#F1F1F0"/>
<path d="M243.266 196.119H240.242V193.066H243.266V196.119Z" fill="#F1F1F0"/>
<path d="M243.266 201.236H240.242V198.184H243.266V201.236Z" fill="#F1F1F0"/>
<path d="M243.266 206.352H240.242V203.301H243.266V206.352Z" fill="#F1F1F0"/>
<path d="M243.266 211.47H240.242V208.418H243.266V211.47Z" fill="#F1F1F0"/>
<path d="M243.266 216.587H240.242V213.535H243.266V216.587Z" fill="#F1F1F0"/>
<path d="M243.266 221.701H240.242V218.648H243.266V221.701Z" fill="#F1F1F0"/>
<path d="M243.266 226.818H240.242V223.766H243.266V226.818Z" fill="#F1F1F0"/>
<path d="M243.266 231.933H240.242V228.883H243.266V231.933Z" fill="#F1F1F0"/>
<path d="M243.266 262.634H240.242V259.582H243.266V262.634Z" fill="#F1F1F0"/>
<path d="M243.266 267.747H240.242V264.695H243.266V267.747Z" fill="#F1F1F0"/>
<path d="M243.266 272.865H240.242V269.812H243.266V272.865Z" fill="#F1F1F0"/>
<path d="M243.266 277.982H240.242V274.93H243.266V277.982Z" fill="#F1F1F0"/>
<path d="M243.266 298.447H240.242V295.395H243.266V298.447Z" fill="#F1F1F0"/>
<path d="M238.461 196.119H235.438V193.066H238.461V196.119Z" fill="#F1F1F0"/>
<path d="M238.461 201.236H235.438V198.184H238.461V201.236Z" fill="#F1F1F0"/>
<path d="M238.461 206.352H235.438V203.301H238.461V206.352Z" fill="#F1F1F0"/>
<path d="M238.461 211.47H235.438V208.418H238.461V211.47Z" fill="#F1F1F0"/>
<path d="M238.461 216.587H235.438V213.535H238.461V216.587Z" fill="#F1F1F0"/>
<path d="M238.461 221.701H235.438V218.648H238.461V221.701Z" fill="#F1F1F0"/>
<path d="M238.461 226.818H235.438V223.766H238.461V226.818Z" fill="#F1F1F0"/>
<path d="M238.461 231.933H235.438V228.883H238.461V231.933Z" fill="#F1F1F0"/>
<path d="M238.461 237.051H235.438V234H238.461V237.051Z" fill="#F1F1F0"/>
<path d="M238.461 242.169H235.438V239.117H238.461V242.169Z" fill="#F1F1F0"/>
<path d="M238.461 257.515H235.438V254.465H238.461V257.515Z" fill="#F1F1F0"/>
<path d="M238.461 262.634H235.438V259.582H238.461V262.634Z" fill="#F1F1F0"/>
<path d="M238.461 267.747H235.438V264.695H238.461V267.747Z" fill="#F1F1F0"/>
<path d="M238.461 272.865H235.438V269.812H238.461V272.865Z" fill="#F1F1F0"/>
<path d="M238.461 277.982H235.438V274.93H238.461V277.982Z" fill="#F1F1F0"/>
<path d="M238.461 298.447H235.438V295.395H238.461V298.447Z" fill="#F1F1F0"/>
<path d="M233.656 196.119H230.635V193.066H233.656V196.119Z" fill="#F1F1F0"/>
<path d="M233.656 201.236H230.635V198.184H233.656V201.236Z" fill="#F1F1F0"/>
<path d="M233.656 206.352H230.635V203.301H233.656V206.352Z" fill="#F1F1F0"/>
<path d="M233.656 211.47H230.635V208.418H233.656V211.47Z" fill="#F1F1F0"/>
<path d="M233.656 216.587H230.635V213.535H233.656V216.587Z" fill="#F1F1F0"/>
<path d="M233.656 221.701H230.635V218.648H233.656V221.701Z" fill="#F1F1F0"/>
<path d="M233.656 226.818H230.635V223.766H233.656V226.818Z" fill="#F1F1F0"/>
<path d="M233.656 231.933H230.635V228.883H233.656V231.933Z" fill="#F1F1F0"/>
<path d="M233.656 237.051H230.635V234H233.656V237.051Z" fill="#F1F1F0"/>
<path d="M233.656 242.169H230.635V239.117H233.656V242.169Z" fill="#F1F1F0"/>
<path d="M233.656 247.282H230.635V244.23H233.656V247.282Z" fill="#F1F1F0"/>
<path d="M233.656 252.398H230.635V249.348H233.656V252.398Z" fill="#F1F1F0"/>
<path d="M233.656 257.515H230.635V254.465H233.656V257.515Z" fill="#F1F1F0"/>
<path d="M233.656 262.634H230.635V259.582H233.656V262.634Z" fill="#F1F1F0"/>
<path d="M233.656 267.747H230.635V264.695H233.656V267.747Z" fill="#F1F1F0"/>
<path d="M233.656 272.865H230.635V269.812H233.656V272.865Z" fill="#F1F1F0"/>
<path d="M233.656 277.982H230.635V274.93H233.656V277.982Z" fill="#F1F1F0"/>
<path d="M233.656 283.099H230.635V280.047H233.656V283.099Z" fill="#F1F1F0"/>
<path d="M228.859 196.119H225.837V193.066H228.859V196.119Z" fill="#F1F1F0"/>
<path d="M228.859 201.236H225.837V198.184H228.859V201.236Z" fill="#F1F1F0"/>
<path d="M228.859 206.352H225.837V203.301H228.859V206.352Z" fill="#F1F1F0"/>
<path d="M228.859 211.47H225.837V208.418H228.859V211.47Z" fill="#F1F1F0"/>
<path d="M228.859 216.587H225.837V213.535H228.859V216.587Z" fill="#F1F1F0"/>
<path d="M228.859 221.701H225.837V218.648H228.859V221.701Z" fill="#F1F1F0"/>
<path d="M228.859 226.818H225.837V223.766H228.859V226.818Z" fill="#F1F1F0"/>
<path d="M228.859 231.933H225.837V228.883H228.859V231.933Z" fill="#F1F1F0"/>
<path d="M228.859 237.051H225.837V234H228.859V237.051Z" fill="#F1F1F0"/>
<path d="M228.859 242.169H225.837V239.117H228.859V242.169Z" fill="#F1F1F0"/>
<path d="M228.859 257.515H225.837V254.465H228.859V257.515Z" fill="#F1F1F0"/>
<path d="M228.859 262.634H225.837V259.582H228.859V262.634Z" fill="#F1F1F0"/>
<path d="M228.859 267.747H225.837V264.695H228.859V267.747Z" fill="#F1F1F0"/>
<path d="M228.859 272.865H225.837V269.812H228.859V272.865Z" fill="#F1F1F0"/>
<path d="M224.062 196.119H221.039V193.066H224.062V196.119Z" fill="#F1F1F0"/>
<path d="M224.062 201.236H221.039V198.184H224.062V201.236Z" fill="#F1F1F0"/>
<path d="M224.062 206.352H221.039V203.301H224.062V206.352Z" fill="#F1F1F0"/>
<path d="M224.062 211.47H221.039V208.418H224.062V211.47Z" fill="#F1F1F0"/>
<path d="M224.062 216.587H221.039V213.535H224.062V216.587Z" fill="#F1F1F0"/>
<path d="M224.062 221.701H221.039V218.648H224.062V221.701Z" fill="#F1F1F0"/>
<path d="M224.062 226.818H221.039V223.766H224.062V226.818Z" fill="#F1F1F0"/>
<path d="M224.062 231.933H221.039V228.883H224.062V231.933Z" fill="#F1F1F0"/>
<path d="M224.062 237.051H221.039V234H224.062V237.051Z" fill="#F1F1F0"/>
<path d="M224.062 242.169H221.039V239.117H224.062V242.169Z" fill="#F1F1F0"/>
<path d="M224.062 257.515H221.039V254.465H224.062V257.515Z" fill="#F1F1F0"/>
<path d="M224.062 262.634H221.039V259.582H224.062V262.634Z" fill="#F1F1F0"/>
<path d="M224.062 267.747H221.039V264.695H224.062V267.747Z" fill="#F1F1F0"/>
<path d="M170 182.837H166.977V179.785H170V182.837Z" fill="#F1F1F0"/>
<path d="M170 187.951H166.977V184.898H170V187.951Z" fill="#F1F1F0"/>
<path d="M170 193.068H166.977V190.016H170V193.068Z" fill="#F1F1F0"/>
<path d="M170 198.184H166.977V195.133H170V198.184Z" fill="#F1F1F0"/>
<path d="M170 203.301H166.977V200.25H170V203.301Z" fill="#F1F1F0"/>
<path d="M170 208.418H166.977V205.367H170V208.418Z" fill="#F1F1F0"/>
<path d="M170 213.535H166.977V210.484H170V213.535Z" fill="#F1F1F0"/>
<path d="M170 218.649H166.977V215.598H170V218.649Z" fill="#F1F1F0"/>
<path d="M170 234.001H166.977V230.949H170V234.001Z" fill="#F1F1F0"/>
<path d="M170 239.115H166.977V236.062H170V239.115Z" fill="#F1F1F0"/>
<path d="M165.203 182.837H162.181V179.785H165.203V182.837Z" fill="#F1F1F0"/>
<path d="M165.203 187.951H162.181V184.898H165.203V187.951Z" fill="#F1F1F0"/>
<path d="M165.203 193.068H162.181V190.016H165.203V193.068Z" fill="#F1F1F0"/>
<path d="M165.203 198.184H162.181V195.133H165.203V198.184Z" fill="#F1F1F0"/>
<path d="M165.203 203.301H162.181V200.25H165.203V203.301Z" fill="#F1F1F0"/>
<path d="M165.203 208.418H162.181V205.367H165.203V208.418Z" fill="#F1F1F0"/>
<path d="M165.203 213.535H162.181V210.484H165.203V213.535Z" fill="#F1F1F0"/>
<path d="M165.203 218.649H162.181V215.598H165.203V218.649Z" fill="#F1F1F0"/>
<path d="M165.203 239.115H162.181V236.062H165.203V239.115Z" fill="#F1F1F0"/>
<path d="M160.398 182.837H157.375V179.785H160.398V182.837Z" fill="#F1F1F0"/>
<path d="M160.398 187.951H157.375V184.898H160.398V187.951Z" fill="#F1F1F0"/>
<path d="M160.398 193.068H157.375V190.016H160.398V193.068Z" fill="#F1F1F0"/>
<path d="M160.398 198.184H157.375V195.133H160.398V198.184Z" fill="#F1F1F0"/>
<path d="M160.398 203.301H157.375V200.25H160.398V203.301Z" fill="#F1F1F0"/>
<path d="M160.398 208.418H157.375V205.367H160.398V208.418Z" fill="#F1F1F0"/>
<path d="M160.398 213.535H157.375V210.484H160.398V213.535Z" fill="#F1F1F0"/>
<path d="M160.398 218.649H157.375V215.598H160.398V218.649Z" fill="#F1F1F0"/>
<path d="M155.594 182.837H152.571V179.785H155.594V182.837Z" fill="#F1F1F0"/>
<path d="M155.594 187.951H152.571V184.898H155.594V187.951Z" fill="#F1F1F0"/>
<path d="M155.594 193.068H152.571V190.016H155.594V193.068Z" fill="#F1F1F0"/>
<path d="M155.594 198.184H152.571V195.133H155.594V198.184Z" fill="#F1F1F0"/>
<path d="M155.594 203.302H152.571V200.25H155.594V203.302Z" fill="#F1F1F0"/>
<path d="M155.594 208.415H152.571V205.363H155.594V208.415Z" fill="#F1F1F0"/>
<path d="M155.594 218.649H152.571V215.598H155.594V218.649Z" fill="#F1F1F0"/>
<path d="M155.594 223.766H152.571V220.715H155.594V223.766Z" fill="#F1F1F0"/>
<path d="M155.594 239.115H152.571V236.062H155.594V239.115Z" fill="#F1F1F0"/>
<path d="M155.594 244.232H152.571V241.18H155.594V244.232Z" fill="#F1F1F0"/>
<path d="M155.594 249.349H152.571V246.297H155.594V249.349Z" fill="#F1F1F0"/>
<path d="M155.594 254.466H152.571V251.414H155.594V254.466Z" fill="#F1F1F0"/>
<path d="M155.594 259.58H152.571V256.527H155.594V259.58Z" fill="#F1F1F0"/>
<path d="M155.594 264.697H152.571V261.645H155.594V264.697Z" fill="#F1F1F0"/>
<path d="M155.594 269.814H152.571V266.762H155.594V269.814Z" fill="#F1F1F0"/>
<path d="M150.797 182.837H147.774V179.785H150.797V182.837Z" fill="#F1F1F0"/>
<path d="M150.797 187.951H147.774V184.898H150.797V187.951Z" fill="#F1F1F0"/>
<path d="M150.797 193.068H147.774V190.016H150.797V193.068Z" fill="#F1F1F0"/>
<path d="M150.797 198.184H147.774V195.133H150.797V198.184Z" fill="#F1F1F0"/>
<path d="M150.797 203.302H147.774V200.25H150.797V203.302Z" fill="#F1F1F0"/>
<path d="M150.797 208.415H147.774V205.363H150.797V208.415Z" fill="#F1F1F0"/>
<path d="M150.797 223.766H147.774V220.715H150.797V223.766Z" fill="#F1F1F0"/>
<path d="M150.797 228.883H147.774V225.832H150.797V228.883Z" fill="#F1F1F0"/>
<path d="M150.797 234.001H147.774V230.949H150.797V234.001Z" fill="#F1F1F0"/>
<path d="M150.797 239.115H147.774V236.062H150.797V239.115Z" fill="#F1F1F0"/>
<path d="M150.797 244.232H147.774V241.18H150.797V244.232Z" fill="#F1F1F0"/>
<path d="M150.797 249.349H147.774V246.297H150.797V249.349Z" fill="#F1F1F0"/>
<path d="M150.797 254.466H147.774V251.414H150.797V254.466Z" fill="#F1F1F0"/>
<path d="M150.797 259.58H147.774V256.527H150.797V259.58Z" fill="#F1F1F0"/>
<path d="M150.797 264.697H147.774V261.645H150.797V264.697Z" fill="#F1F1F0"/>
<path d="M150.797 269.814H147.774V266.762H150.797V269.814Z" fill="#F1F1F0"/>
<path d="M150.797 274.931H147.774V271.879H150.797V274.931Z" fill="#F1F1F0"/>
<path d="M150.797 285.161H147.774V282.109H150.797V285.161Z" fill="#F1F1F0"/>
<path d="M146 182.837H142.977V179.785H146V182.837Z" fill="#F1F1F0"/>
<path d="M146 187.951H142.977V184.898H146V187.951Z" fill="#F1F1F0"/>
<path d="M146 193.068H142.977V190.016H146V193.068Z" fill="#F1F1F0"/>
<path d="M146 198.184H142.977V195.133H146V198.184Z" fill="#F1F1F0"/>
<path d="M146 203.302H142.977V200.25H146V203.302Z" fill="#F1F1F0"/>
<path d="M146 208.415H142.977V205.363H146V208.415Z" fill="#F1F1F0"/>
<path d="M146 223.766H142.977V220.715H146V223.766Z" fill="#F1F1F0"/>
<path d="M146 228.883H142.977V225.832H146V228.883Z" fill="#F1F1F0"/>
<path d="M146 234.001H142.977V230.949H146V234.001Z" fill="#F1F1F0"/>
<path d="M146 239.115H142.977V236.062H146V239.115Z" fill="#F1F1F0"/>
<path d="M146 254.466H142.977V251.414H146V254.466Z" fill="#F1F1F0"/>
<path d="M146 259.58H142.977V256.527H146V259.58Z" fill="#F1F1F0"/>
<path d="M146 264.697H142.977V261.645H146V264.697Z" fill="#F1F1F0"/>
<path d="M146 269.814H142.977V266.762H146V269.814Z" fill="#F1F1F0"/>
<path d="M146 274.931H142.977V271.879H146V274.931Z" fill="#F1F1F0"/>
<path d="M146 285.161H142.977V282.109H146V285.161Z" fill="#F1F1F0"/>
<path d="M146 290.279H142.977V287.227H146V290.279Z" fill="#F1F1F0"/>
<path d="M102.43 230.407H99.408V227.355H102.43V230.407Z" fill="#F1F1F0"/>
<path d="M102.43 235.523H99.408V232.473H102.43V235.523Z" fill="#F1F1F0"/>
<path d="M102.43 240.642H99.408V237.59H102.43V240.642Z" fill="#F1F1F0"/>
<path d="M102.43 245.759H99.408V242.707H102.43V245.759Z" fill="#F1F1F0"/>
<path d="M102.43 250.872H99.408V247.82H102.43V250.872Z" fill="#F1F1F0"/>
<path d="M102.43 255.989H99.408V252.938H102.43V255.989Z" fill="#F1F1F0"/>
<path d="M102.43 261.107H99.408V258.055H102.43V261.107Z" fill="#F1F1F0"/>
<path d="M102.43 276.454H99.408V273.402H102.43V276.454Z" fill="#F1F1F0"/>
<path d="M102.43 281.572H99.408V278.52H102.43V281.572Z" fill="#F1F1F0"/>
<path d="M102.43 286.689H99.408V283.637H102.43V286.689Z" fill="#F1F1F0"/>
<path d="M97.625 230.407H94.6017V227.355H97.625V230.407Z" fill="#F1F1F0"/>
<path d="M97.625 235.523H94.6017V232.473H97.625V235.523Z" fill="#F1F1F0"/>
<path d="M97.625 240.642H94.6017V237.59H97.625V240.642Z" fill="#F1F1F0"/>
<path d="M97.625 245.759H94.6017V242.707H97.625V245.759Z" fill="#F1F1F0"/>
<path d="M97.625 250.872H94.6017V247.82H97.625V250.872Z" fill="#F1F1F0"/>
<path d="M97.625 255.989H94.6017V252.938H97.625V255.989Z" fill="#F1F1F0"/>
<path d="M97.625 261.107H94.6017V258.055H97.625V261.107Z" fill="#F1F1F0"/>
<path d="M92.8281 230.407H89.8048V227.355H92.8281V230.407Z" fill="#F1F1F0"/>
<path d="M92.8281 235.523H89.8048V232.473H92.8281V235.523Z" fill="#F1F1F0"/>
<path d="M92.8281 240.642H89.8048V237.59H92.8281V240.642Z" fill="#F1F1F0"/>
<path d="M92.8281 245.759H89.8048V242.707H92.8281V245.759Z" fill="#F1F1F0"/>
<path d="M92.8281 250.872H89.8048V247.82H92.8281V250.872Z" fill="#F1F1F0"/>
<path d="M92.8281 255.989H89.8048V252.938H92.8281V255.989Z" fill="#F1F1F0"/>
<path d="M92.8281 261.107H89.8048V258.055H92.8281V261.107Z" fill="#F1F1F0"/>
<path d="M88.0312 230.407H85.008V227.355H88.0312V230.407Z" fill="#F1F1F0"/>
<path d="M88.0312 235.523H85.008V232.473H88.0312V235.523Z" fill="#F1F1F0"/>
<path d="M88.0312 240.642H85.008V237.59H88.0312V240.642Z" fill="#F1F1F0"/>
<path d="M88.0312 245.759H85.008V242.707H88.0312V245.759Z" fill="#F1F1F0"/>
<path d="M88.0312 250.872H85.008V247.82H88.0312V250.872Z" fill="#F1F1F0"/>
<path d="M88.0312 255.989H85.008V252.938H88.0312V255.989Z" fill="#F1F1F0"/>
<path d="M88.0312 261.107H85.008V258.055H88.0312V261.107Z" fill="#F1F1F0"/>
<path d="M88.0312 266.224H85.008V263.172H88.0312V266.224Z" fill="#F1F1F0"/>
<path d="M88.0312 271.337H85.008V268.285H88.0312V271.337Z" fill="#F1F1F0"/>
<path d="M88.0312 276.454H85.008V273.402H88.0312V276.454Z" fill="#F1F1F0"/>
<path d="M88.0312 281.572H85.008V278.52H88.0312V281.572Z" fill="#F1F1F0"/>
<path d="M83.2266 230.407H80.2032V227.355H83.2266V230.407Z" fill="#F1F1F0"/>
<path d="M83.2266 235.523H80.2032V232.473H83.2266V235.523Z" fill="#F1F1F0"/>
<path d="M83.2266 240.642H80.2032V237.59H83.2266V240.642Z" fill="#F1F1F0"/>
<path d="M83.2266 245.759H80.2032V242.707H83.2266V245.759Z" fill="#F1F1F0"/>
<path d="M83.2266 250.872H80.2032V247.82H83.2266V250.872Z" fill="#F1F1F0"/>
<path d="M83.2266 255.989H80.2032V252.938H83.2266V255.989Z" fill="#F1F1F0"/>
<path d="M83.2266 261.107H80.2032V258.055H83.2266V261.107Z" fill="#F1F1F0"/>
<path d="M83.2266 266.224H80.2032V263.172H83.2266V266.224Z" fill="#F1F1F0"/>
<path d="M83.2266 271.337H80.2032V268.285H83.2266V271.337Z" fill="#F1F1F0"/>
<path d="M83.2266 276.454H80.2032V273.402H83.2266V276.454Z" fill="#F1F1F0"/>
<path d="M83.2266 281.572H80.2032V278.52H83.2266V281.572Z" fill="#F1F1F0"/>
<path d="M83.2266 286.689H80.2032V283.637H83.2266V286.689Z" fill="#F1F1F0"/>
<path d="M83.2266 302.037H80.2032V298.984H83.2266V302.037Z" fill="#F1F1F0"/>
<path d="M83.2266 307.154H80.2032V304.102H83.2266V307.154Z" fill="#F1F1F0"/>
<path d="M78.4219 230.407H75.3986V227.355H78.4219V230.407Z" fill="#F1F1F0"/>
<path d="M78.4219 235.523H75.3986V232.473H78.4219V235.523Z" fill="#F1F1F0"/>
<path d="M78.4219 240.642H75.3986V237.59H78.4219V240.642Z" fill="#F1F1F0"/>
<path d="M78.4219 255.989H75.3986V252.938H78.4219V255.989Z" fill="#F1F1F0"/>
<path d="M78.4219 261.107H75.3986V258.055H78.4219V261.107Z" fill="#F1F1F0"/>
<path d="M78.4219 266.224H75.3986V263.172H78.4219V266.224Z" fill="#F1F1F0"/>
<path d="M78.4219 271.337H75.3986V268.285H78.4219V271.337Z" fill="#F1F1F0"/>
<path d="M78.4219 276.454H75.3986V273.402H78.4219V276.454Z" fill="#F1F1F0"/>
<path d="M78.4219 281.572H75.3986V278.52H78.4219V281.572Z" fill="#F1F1F0"/>
<path d="M78.4219 286.689H75.3986V283.637H78.4219V286.689Z" fill="#F1F1F0"/>
<path d="M78.4219 302.037H75.3986V298.984H78.4219V302.037Z" fill="#F1F1F0"/>
<path d="M78.4219 307.154H75.3986V304.102H78.4219V307.154Z" fill="#F1F1F0"/>
<path d="M78.4219 312.271H75.3986V309.219H78.4219V312.271Z" fill="#F1F1F0"/>
<path d="M28.1016 199.712H25.0783V196.66H28.1016V199.712Z" fill="#F1F1F0"/>
<path d="M28.1016 204.826H25.0783V201.773H28.1016V204.826Z" fill="#F1F1F0"/>
<path d="M28.1016 209.943H25.0783V206.891H28.1016V209.943Z" fill="#F1F1F0"/>
<path d="M28.1016 215.06H25.0783V212.008H28.1016V215.06Z" fill="#F1F1F0"/>
<path d="M28.1016 220.177H25.0783V217.125H28.1016V220.177Z" fill="#F1F1F0"/>
<path d="M28.1016 225.294H25.0783V222.242H28.1016V225.294Z" fill="#F1F1F0"/>
<path d="M28.1016 230.407H25.0783V227.355H28.1016V230.407Z" fill="#F1F1F0"/>
<path d="M28.1016 235.523H25.0783V232.473H28.1016V235.523Z" fill="#F1F1F0"/>
<path d="M28.1016 240.642H25.0783V237.59H28.1016V240.642Z" fill="#F1F1F0"/>
<path d="M28.1016 245.759H25.0783V242.707H28.1016V245.759Z" fill="#F1F1F0"/>
<path d="M28.1016 250.872H25.0783V247.82H28.1016V250.872Z" fill="#F1F1F0"/>
<path d="M28.1016 255.989H25.0783V252.938H28.1016V255.989Z" fill="#F1F1F0"/>
<path d="M28.1016 261.107H25.0783V258.055H28.1016V261.107Z" fill="#F1F1F0"/>
<path d="M28.1016 266.224H25.0783V263.172H28.1016V266.224Z" fill="#F1F1F0"/>
<path d="M28.1016 271.337H25.0783V268.285H28.1016V271.337Z" fill="#F1F1F0"/>
<path d="M28.1016 276.454H25.0783V273.402H28.1016V276.454Z" fill="#F1F1F0"/>
<path d="M28.1016 281.572H25.0783V278.52H28.1016V281.572Z" fill="#F1F1F0"/>
<path d="M28.1016 286.689H25.0783V283.637H28.1016V286.689Z" fill="#F1F1F0"/>
<path d="M28.1016 291.803H25.0783V288.75H28.1016V291.803Z" fill="#F1F1F0"/>
<path d="M28.1016 296.919H25.0783V293.867H28.1016V296.919Z" fill="#F1F1F0"/>
<path d="M28.1016 302.037H25.0783V298.984H28.1016V302.037Z" fill="#F1F1F0"/>
<path d="M28.1016 307.154H25.0783V304.102H28.1016V307.154Z" fill="#F1F1F0"/>
<path d="M28.1016 312.271H25.0783V309.219H28.1016V312.271Z" fill="#F1F1F0"/>
<path d="M23.2969 199.712H20.2743V196.66H23.2969V199.712Z" fill="#F1F1F0"/>
<path d="M23.2969 204.826H20.2743V201.773H23.2969V204.826Z" fill="#F1F1F0"/>
<path d="M23.2969 209.943H20.2743V206.891H23.2969V209.943Z" fill="#F1F1F0"/>
<path d="M23.2969 215.06H20.2743V212.008H23.2969V215.06Z" fill="#F1F1F0"/>
<path d="M23.2969 220.177H20.2743V217.125H23.2969V220.177Z" fill="#F1F1F0"/>
<path d="M23.2969 225.294H20.2743V222.242H23.2969V225.294Z" fill="#F1F1F0"/>
<path d="M23.2969 230.407H20.2743V227.355H23.2969V230.407Z" fill="#F1F1F0"/>
<path d="M23.2969 235.523H20.2743V232.473H23.2969V235.523Z" fill="#F1F1F0"/>
<path d="M23.2969 240.642H20.2743V237.59H23.2969V240.642Z" fill="#F1F1F0"/>
<path d="M23.2969 245.759H20.2743V242.707H23.2969V245.759Z" fill="#F1F1F0"/>
<path d="M23.2969 250.872H20.2743V247.82H23.2969V250.872Z" fill="#F1F1F0"/>
<path d="M23.2969 255.989H20.2743V252.938H23.2969V255.989Z" fill="#F1F1F0"/>
<path d="M23.2969 261.107H20.2743V258.055H23.2969V261.107Z" fill="#F1F1F0"/>
<path d="M23.2969 266.224H20.2743V263.172H23.2969V266.224Z" fill="#F1F1F0"/>
<path d="M23.2969 271.337H20.2743V268.285H23.2969V271.337Z" fill="#F1F1F0"/>
<path d="M23.2969 276.454H20.2743V273.402H23.2969V276.454Z" fill="#F1F1F0"/>
<path d="M23.2969 281.572H20.2743V278.52H23.2969V281.572Z" fill="#F1F1F0"/>
<path d="M23.2969 286.689H20.2743V283.637H23.2969V286.689Z" fill="#F1F1F0"/>
<path d="M23.2969 291.803H20.2743V288.75H23.2969V291.803Z" fill="#F1F1F0"/>
<path d="M18.5 199.712H15.4767V196.66H18.5V199.712Z" fill="#F1F1F0"/>
<path d="M18.5 204.826H15.4767V201.773H18.5V204.826Z" fill="#F1F1F0"/>
<path d="M18.5 209.943H15.4767V206.891H18.5V209.943Z" fill="#F1F1F0"/>
<path d="M18.5 215.06H15.4767V212.008H18.5V215.06Z" fill="#F1F1F0"/>
<path d="M18.5 220.177H15.4767V217.125H18.5V220.177Z" fill="#F1F1F0"/>
<path d="M18.5 225.294H15.4767V222.242H18.5V225.294Z" fill="#F1F1F0"/>
<path d="M18.5 230.407H15.4767V227.355H18.5V230.407Z" fill="#F1F1F0"/>
<path d="M18.5 235.523H15.4767V232.473H18.5V235.523Z" fill="#F1F1F0"/>
<path d="M18.5 240.642H15.4767V237.59H18.5V240.642Z" fill="#F1F1F0"/>
<path d="M18.5 245.759H15.4767V242.707H18.5V245.759Z" fill="#F1F1F0"/>
<path d="M18.5 250.872H15.4767V247.82H18.5V250.872Z" fill="#F1F1F0"/>
<path d="M18.5 255.989H15.4767V252.938H18.5V255.989Z" fill="#F1F1F0"/>
<path d="M18.5 261.107H15.4767V258.055H18.5V261.107Z" fill="#F1F1F0"/>
<path d="M18.5 266.224H15.4767V263.172H18.5V266.224Z" fill="#F1F1F0"/>
<path d="M18.5 271.337H15.4767V268.285H18.5V271.337Z" fill="#F1F1F0"/>
<path d="M18.5 276.454H15.4767V273.402H18.5V276.454Z" fill="#F1F1F0"/>
<path d="M18.5 281.572H15.4767V278.52H18.5V281.572Z" fill="#F1F1F0"/>
<path d="M18.5 286.689H15.4767V283.637H18.5V286.689Z" fill="#F1F1F0"/>
<path d="M18.5 291.803H15.4767V288.75H18.5V291.803Z" fill="#F1F1F0"/>
<path d="M13.7031 199.712H10.6798V196.66H13.7031V199.712Z" fill="#F1F1F0"/>
<path d="M13.7031 204.826H10.6798V201.773H13.7031V204.826Z" fill="#F1F1F0"/>
<path d="M13.7031 209.943H10.6798V206.891H13.7031V209.943Z" fill="#F1F1F0"/>
<path d="M13.7031 215.06H10.6798V212.008H13.7031V215.06Z" fill="#F1F1F0"/>
<path d="M13.7031 220.177H10.6798V217.125H13.7031V220.177Z" fill="#F1F1F0"/>
<path d="M13.7031 225.294H10.6798V222.242H13.7031V225.294Z" fill="#F1F1F0"/>
<path d="M13.7031 230.407H10.6798V227.355H13.7031V230.407Z" fill="#F1F1F0"/>
<path d="M13.7031 235.523H10.6798V232.473H13.7031V235.523Z" fill="#F1F1F0"/>
<path d="M13.7031 240.642H10.6798V237.59H13.7031V240.642Z" fill="#F1F1F0"/>
<path d="M13.7031 245.759H10.6798V242.707H13.7031V245.759Z" fill="#F1F1F0"/>
<path d="M13.7031 250.872H10.6798V247.82H13.7031V250.872Z" fill="#F1F1F0"/>
<path d="M13.7031 255.989H10.6798V252.938H13.7031V255.989Z" fill="#F1F1F0"/>
<path d="M13.7031 261.107H10.6798V258.055H13.7031V261.107Z" fill="#F1F1F0"/>
<path d="M13.7031 266.224H10.6798V263.172H13.7031V266.224Z" fill="#F1F1F0"/>
<path d="M13.7031 271.337H10.6798V268.285H13.7031V271.337Z" fill="#F1F1F0"/>
<path d="M8.89844 199.712H5.87521V196.66H8.89844V199.712Z" fill="#F1F1F0"/>
<path d="M8.89844 204.826H5.87521V201.773H8.89844V204.826Z" fill="#F1F1F0"/>
<path d="M8.89844 209.943H5.87521V206.891H8.89844V209.943Z" fill="#F1F1F0"/>
<path d="M8.89844 215.06H5.87521V212.008H8.89844V215.06Z" fill="#F1F1F0"/>
<path d="M8.89844 220.177H5.87521V217.125H8.89844V220.177Z" fill="#F1F1F0"/>
<path d="M8.89844 225.294H5.87521V222.242H8.89844V225.294Z" fill="#F1F1F0"/>
<path d="M8.89844 230.407H5.87521V227.355H8.89844V230.407Z" fill="#F1F1F0"/>
<path d="M8.89844 235.523H5.87521V232.473H8.89844V235.523Z" fill="#F1F1F0"/>
<path d="M8.89844 240.642H5.87521V237.59H8.89844V240.642Z" fill="#F1F1F0"/>
<path d="M8.89844 245.759H5.87521V242.707H8.89844V245.759Z" fill="#F1F1F0"/>
<path d="M8.89844 250.872H5.87521V247.82H8.89844V250.872Z" fill="#F1F1F0"/>
<path d="M8.89844 255.989H5.87521V252.938H8.89844V255.989Z" fill="#F1F1F0"/>
<path d="M8.89844 261.107H5.87521V258.055H8.89844V261.107Z" fill="#F1F1F0"/>
<path d="M4.09375 199.712H1.07053V196.66H4.09375V199.712Z" fill="#F1F1F0"/>
<path d="M4.09375 204.826H1.07053V201.773H4.09375V204.826Z" fill="#F1F1F0"/>
<path d="M4.09375 209.943H1.07053V206.891H4.09375V209.943Z" fill="#F1F1F0"/>
<path d="M4.09375 215.06H1.07053V212.008H4.09375V215.06Z" fill="#F1F1F0"/>
<path d="M4.09375 220.177H1.07053V217.125H4.09375V220.177Z" fill="#F1F1F0"/>
<path d="M4.09375 225.294H1.07053V222.242H4.09375V225.294Z" fill="#F1F1F0"/>
<path d="M4.09375 230.407H1.07053V227.355H4.09375V230.407Z" fill="#F1F1F0"/>
<path d="M4.09375 235.523H1.07053V232.473H4.09375V235.523Z" fill="#F1F1F0"/>
<path d="M4.09375 240.642H1.07053V237.59H4.09375V240.642Z" fill="#F1F1F0"/>
<path d="M4.09375 245.759H1.07053V242.707H4.09375V245.759Z" fill="#F1F1F0"/>
<path d="M4.09375 250.872H1.07053V247.82H4.09375V250.872Z" fill="#F1F1F0"/>
<path d="M4.09375 255.989H1.07053V252.938H4.09375V255.989Z" fill="#F1F1F0"/>
<path d="M356.891 237.051H353.868V234H356.891V237.051Z" fill="#F1F1F0"/>
<path d="M356.891 242.169H353.868V239.117H356.891V242.169Z" fill="#F1F1F0"/>
<path d="M356.891 247.282H353.868V244.23H356.891V247.282Z" fill="#F1F1F0"/>
<path d="M356.891 252.398H353.868V249.348H356.891V252.398Z" fill="#F1F1F0"/>
<path d="M356.891 257.515H353.868V254.465H356.891V257.515Z" fill="#F1F1F0"/>
<path d="M356.891 262.634H353.868V259.582H356.891V262.634Z" fill="#F1F1F0"/>
<path d="M356.891 267.747H353.868V264.695H356.891V267.747Z" fill="#F1F1F0"/>
<path d="M356.891 272.865H353.868V269.812H356.891V272.865Z" fill="#F1F1F0"/>
<path d="M356.891 277.982H353.868V274.93H356.891V277.982Z" fill="#F1F1F0"/>
<path d="M356.891 283.099H353.868V280.047H356.891V283.099Z" fill="#F1F1F0"/>
<path d="M356.891 288.212H353.868V285.16H356.891V288.212Z" fill="#F1F1F0"/>
<path d="M356.891 293.33H353.868V290.277H356.891V293.33Z" fill="#F1F1F0"/>
<path d="M356.891 298.447H353.868V295.395H356.891V298.447Z" fill="#F1F1F0"/>
<path d="M356.891 303.564H353.868V300.512H356.891V303.564Z" fill="#F1F1F0"/>
<path d="M356.891 308.677H353.868V305.625H356.891V308.677Z" fill="#F1F1F0"/>
<path d="M356.891 313.794H353.868V310.742H356.891V313.794Z" fill="#F1F1F0"/>
<path d="M356.891 318.912H353.868V315.859H356.891V318.912Z" fill="#F1F1F0"/>
<path d="M356.891 324.029H353.868V320.977H356.891V324.029Z" fill="#F1F1F0"/>
<path d="M356.891 329.142H353.868V326.09H356.891V329.142Z" fill="#F1F1F0"/>
<path d="M356.891 334.262H353.868V331.211H356.891V334.262Z" fill="#F1F1F0"/>
<path d="M352.086 237.051H349.063V234H352.086V237.051Z" fill="#F1F1F0"/>
<path d="M352.086 242.169H349.063V239.117H352.086V242.169Z" fill="#F1F1F0"/>
<path d="M352.086 247.283H349.063V244.23H352.086V247.283Z" fill="#F1F1F0"/>
<path d="M352.086 252.398H349.063V249.348H352.086V252.398Z" fill="#F1F1F0"/>
<path d="M352.086 257.517H349.063V254.465H352.086V257.517Z" fill="#F1F1F0"/>
<path d="M352.086 262.634H349.063V259.582H352.086V262.634Z" fill="#F1F1F0"/>
<path d="M352.086 267.747H349.063V264.695H352.086V267.747Z" fill="#F1F1F0"/>
<path d="M352.086 272.865H349.063V269.812H352.086V272.865Z" fill="#F1F1F0"/>
<path d="M352.086 277.982H349.063V274.93H352.086V277.982Z" fill="#F1F1F0"/>
<path d="M352.086 283.099H349.063V280.047H352.086V283.099Z" fill="#F1F1F0"/>
<path d="M352.086 288.212H349.063V285.16H352.086V288.212Z" fill="#F1F1F0"/>
<path d="M352.086 293.33H349.063V290.277H352.086V293.33Z" fill="#F1F1F0"/>
<path d="M352.086 298.447H349.063V295.395H352.086V298.447Z" fill="#F1F1F0"/>
<path d="M352.086 303.564H349.063V300.512H352.086V303.564Z" fill="#F1F1F0"/>
<path d="M352.086 308.677H349.063V305.625H352.086V308.677Z" fill="#F1F1F0"/>
<path d="M352.086 313.794H349.063V310.742H352.086V313.794Z" fill="#F1F1F0"/>
<path d="M352.086 318.912H349.063V315.859H352.086V318.912Z" fill="#F1F1F0"/>
<path d="M352.086 324.029H349.063V320.977H352.086V324.029Z" fill="#F1F1F0"/>
<path d="M347.281 237.051H344.259V234H347.281V237.051Z" fill="#F1F1F0"/>
<path d="M347.281 242.169H344.259V239.117H347.281V242.169Z" fill="#F1F1F0"/>
<path d="M347.281 247.283H344.259V244.23H347.281V247.283Z" fill="#F1F1F0"/>
<path d="M347.281 252.398H344.259V249.348H347.281V252.398Z" fill="#F1F1F0"/>
<path d="M347.281 257.517H344.259V254.465H347.281V257.517Z" fill="#F1F1F0"/>
<path d="M347.281 262.634H344.259V259.582H347.281V262.634Z" fill="#F1F1F0"/>
<path d="M347.281 267.747H344.259V264.695H347.281V267.747Z" fill="#F1F1F0"/>
<path d="M347.281 272.865H344.259V269.812H347.281V272.865Z" fill="#F1F1F0"/>
<path d="M347.281 277.982H344.259V274.93H347.281V277.982Z" fill="#F1F1F0"/>
<path d="M347.281 283.099H344.259V280.047H347.281V283.099Z" fill="#F1F1F0"/>
<path d="M347.281 288.212H344.259V285.16H347.281V288.212Z" fill="#F1F1F0"/>
<path d="M347.281 293.33H344.259V290.277H347.281V293.33Z" fill="#F1F1F0"/>
<path d="M347.281 298.447H344.259V295.395H347.281V298.447Z" fill="#F1F1F0"/>
<path d="M347.281 303.564H344.259V300.512H347.281V303.564Z" fill="#F1F1F0"/>
<path d="M347.281 308.677H344.259V305.625H347.281V308.677Z" fill="#F1F1F0"/>
<path d="M347.281 313.794H344.259V310.742H347.281V313.794Z" fill="#F1F1F0"/>
<path d="M347.281 318.912H344.259V315.859H347.281V318.912Z" fill="#F1F1F0"/>
<path d="M347.281 324.029H344.259V320.977H347.281V324.029Z" fill="#F1F1F0"/>
<path d="M374.844 274.391H371.82V271.34H374.844V274.391Z" fill="#F1F1F0"/>
<path d="M374.844 279.508H371.82V276.457H374.844V279.508Z" fill="#F1F1F0"/>
<path d="M374.844 284.622H371.82V281.57H374.844V284.622Z" fill="#F1F1F0"/>
<path d="M374.844 289.74H371.82V286.688H374.844V289.74Z" fill="#F1F1F0"/>
<path d="M374.844 294.857H371.82V291.805H374.844V294.857Z" fill="#F1F1F0"/>
<path d="M374.844 299.973H371.82V296.922H374.844V299.973Z" fill="#F1F1F0"/>
<path d="M374.844 305.087H371.82V302.035H374.844V305.087Z" fill="#F1F1F0"/>
<path d="M374.844 310.205H371.82V307.152H374.844V310.205Z" fill="#F1F1F0"/>
<path d="M374.844 315.322H371.82V312.27H374.844V315.322Z" fill="#F1F1F0"/>
<path d="M374.844 320.438H371.82V317.387H374.844V320.438Z" fill="#F1F1F0"/>
<path d="M374.844 325.552H371.82V322.5H374.844V325.552Z" fill="#F1F1F0"/>
<path d="M374.844 330.669H371.82V327.617H374.844V330.669Z" fill="#F1F1F0"/>
<path d="M374.844 335.787H371.82V332.734H374.844V335.787Z" fill="#F1F1F0"/>
<path d="M370.047 274.391H367.024V271.34H370.047V274.391Z" fill="#F1F1F0"/>
<path d="M370.047 279.508H367.024V276.457H370.047V279.508Z" fill="#F1F1F0"/>
<path d="M370.047 284.622H367.024V281.57H370.047V284.622Z" fill="#F1F1F0"/>
<path d="M370.047 289.74H367.024V286.688H370.047V289.74Z" fill="#F1F1F0"/>
<path d="M370.047 294.857H367.024V291.805H370.047V294.857Z" fill="#F1F1F0"/>
<path d="M370.047 299.973H367.024V296.922H370.047V299.973Z" fill="#F1F1F0"/>
<path d="M370.047 305.087H367.024V302.035H370.047V305.087Z" fill="#F1F1F0"/>
<path d="M370.047 310.205H367.024V307.152H370.047V310.205Z" fill="#F1F1F0"/>
<path d="M370.047 315.322H367.024V312.27H370.047V315.322Z" fill="#F1F1F0"/>
<path d="M370.047 320.438H367.024V317.387H370.047V320.438Z" fill="#F1F1F0"/>
<path d="M370.047 325.552H367.024V322.5H370.047V325.552Z" fill="#F1F1F0"/>
<path d="M370.047 330.669H367.024V327.617H370.047V330.669Z" fill="#F1F1F0"/>
<path d="M370.047 335.787H367.024V332.734H370.047V335.787Z" fill="#F1F1F0"/>
<path d="M365.25 274.391H362.228V271.34H365.25V274.391Z" fill="#F1F1F0"/>
<path d="M365.25 279.508H362.228V276.457H365.25V279.508Z" fill="#F1F1F0"/>
<path d="M365.25 284.622H362.228V281.57H365.25V284.622Z" fill="#F1F1F0"/>
<path d="M365.25 289.74H362.228V286.688H365.25V289.74Z" fill="#F1F1F0"/>
<path d="M365.25 294.857H362.228V291.805H365.25V294.857Z" fill="#F1F1F0"/>
<path d="M365.25 299.973H362.228V296.922H365.25V299.973Z" fill="#F1F1F0"/>
<path d="M365.25 305.087H362.228V302.035H365.25V305.087Z" fill="#F1F1F0"/>
<path d="M365.25 310.205H362.228V307.152H365.25V310.205Z" fill="#F1F1F0"/>
<path d="M365.25 315.322H362.228V312.27H365.25V315.322Z" fill="#F1F1F0"/>
<path d="M365.25 320.438H362.228V317.387H365.25V320.438Z" fill="#F1F1F0"/>
<path d="M365.25 325.552H362.228V322.5H365.25V325.552Z" fill="#F1F1F0"/>
<path d="M365.25 330.669H362.228V327.617H365.25V330.669Z" fill="#F1F1F0"/>
<path d="M365.25 335.787H362.228V332.734H365.25V335.787Z" fill="#F1F1F0"/>
<path d="M365.25 340.903H362.228V337.852H365.25V340.903Z" fill="#F1F1F0"/>
<path d="M338.578 275.918H335.555V272.867H338.578V275.918Z" fill="#F1F1F0"/>
<path d="M338.578 281.032H335.555V277.98H338.578V281.032Z" fill="#F1F1F0"/>
<path d="M338.578 286.15H335.555V283.098H338.578V286.15Z" fill="#F1F1F0"/>
<path d="M338.578 291.267H335.555V288.215H338.578V291.267Z" fill="#F1F1F0"/>
<path d="M338.578 296.384H335.555V293.332H338.578V296.384Z" fill="#F1F1F0"/>
<path d="M338.578 301.497H335.555V298.445H338.578V301.497Z" fill="#F1F1F0"/>
<path d="M338.578 306.614H335.555V303.562H338.578V306.614Z" fill="#F1F1F0"/>
<path d="M338.578 311.733H335.555V308.68H338.578V311.733Z" fill="#F1F1F0"/>
<path d="M338.578 316.849H335.555V313.797H338.578V316.849Z" fill="#F1F1F0"/>
<path d="M338.578 321.962H335.555V318.91H338.578V321.962Z" fill="#F1F1F0"/>
<path d="M338.578 337.31H335.555V334.258H338.578V337.31Z" fill="#F1F1F0"/>
<path d="M333.773 275.918H330.75V272.867H333.773V275.918Z" fill="#F1F1F0"/>
<path d="M333.773 281.032H330.75V277.98H333.773V281.032Z" fill="#F1F1F0"/>
<path d="M333.773 286.15H330.75V283.098H333.773V286.15Z" fill="#F1F1F0"/>
<path d="M333.773 291.267H330.75V288.215H333.773V291.267Z" fill="#F1F1F0"/>
<path d="M333.773 296.384H330.75V293.332H333.773V296.384Z" fill="#F1F1F0"/>
<path d="M333.773 301.497H330.75V298.445H333.773V301.497Z" fill="#F1F1F0"/>
<path d="M333.773 306.614H330.75V303.562H333.773V306.614Z" fill="#F1F1F0"/>
<path d="M333.773 311.733H330.75V308.68H333.773V311.733Z" fill="#F1F1F0"/>
<path d="M333.773 316.849H330.75V313.797H333.773V316.849Z" fill="#F1F1F0"/>
<path d="M333.773 332.197H330.75V329.145H333.773V332.197Z" fill="#F1F1F0"/>
<path d="M333.773 337.31H330.75V334.258H333.773V337.31Z" fill="#F1F1F0"/>
<path d="M328.969 275.918H325.945V272.867H328.969V275.918Z" fill="#F1F1F0"/>
<path d="M328.969 281.033H325.945V277.98H328.969V281.033Z" fill="#F1F1F0"/>
<path d="M328.969 286.15H325.945V283.098H328.969V286.15Z" fill="#F1F1F0"/>
<path d="M328.969 291.267H325.945V288.215H328.969V291.267Z" fill="#F1F1F0"/>
<path d="M328.969 296.384H325.945V293.332H328.969V296.384Z" fill="#F1F1F0"/>
<path d="M328.969 301.497H325.945V298.445H328.969V301.497Z" fill="#F1F1F0"/>
<path d="M328.969 306.614H325.945V303.562H328.969V306.614Z" fill="#F1F1F0"/>
<path d="M328.969 311.733H325.945V308.68H328.969V311.733Z" fill="#F1F1F0"/>
<path d="M328.969 327.079H325.945V324.027H328.969V327.079Z" fill="#F1F1F0"/>
<path d="M328.969 332.197H325.945V329.145H328.969V332.197Z" fill="#F1F1F0"/>
<path d="M328.969 337.31H325.945V334.258H328.969V337.31Z" fill="#F1F1F0"/>
<path d="M284.344 198.184H281.321V195.133H284.344V198.184Z" fill="#F1F1F0"/>
<path d="M284.344 203.301H281.321V200.25H284.344V203.301Z" fill="#F1F1F0"/>
<path d="M284.344 208.418H281.321V205.367H284.344V208.418Z" fill="#F1F1F0"/>
<path d="M284.344 213.535H281.321V210.484H284.344V213.535Z" fill="#F1F1F0"/>
<path d="M284.344 218.649H281.321V215.598H284.344V218.649Z" fill="#F1F1F0"/>
<path d="M284.344 223.766H281.321V220.715H284.344V223.766Z" fill="#F1F1F0"/>
<path d="M284.344 228.884H281.321V225.832H284.344V228.884Z" fill="#F1F1F0"/>
<path d="M284.344 234.001H281.321V230.949H284.344V234.001Z" fill="#F1F1F0"/>
<path d="M284.344 239.115H281.321V236.062H284.344V239.115Z" fill="#F1F1F0"/>
<path d="M284.344 244.232H281.321V241.18H284.344V244.232Z" fill="#F1F1F0"/>
<path d="M284.344 249.349H281.321V246.297H284.344V249.349Z" fill="#F1F1F0"/>
<path d="M284.344 254.466H281.321V251.414H284.344V254.466Z" fill="#F1F1F0"/>
<path d="M284.344 259.58H281.321V256.527H284.344V259.58Z" fill="#F1F1F0"/>
<path d="M284.344 264.697H281.321V261.645H284.344V264.697Z" fill="#F1F1F0"/>
<path d="M284.344 269.814H281.321V266.762H284.344V269.814Z" fill="#F1F1F0"/>
<path d="M284.344 274.931H281.321V271.879H284.344V274.931Z" fill="#F1F1F0"/>
<path d="M284.344 280.044H281.321V276.992H284.344V280.044Z" fill="#F1F1F0"/>
<path d="M284.344 290.279H281.321V287.227H284.344V290.279Z" fill="#F1F1F0"/>
<path d="M284.344 295.395H281.321V292.344H284.344V295.395Z" fill="#F1F1F0"/>
<path d="M284.344 300.509H281.321V297.457H284.344V300.509Z" fill="#F1F1F0"/>
<path d="M284.344 305.626H281.321V302.574H284.344V305.626Z" fill="#F1F1F0"/>
<path d="M284.344 310.742H281.321V307.691H284.344V310.742Z" fill="#F1F1F0"/>
<path d="M279.539 198.184H276.516V195.133H279.539V198.184Z" fill="#F1F1F0"/>
<path d="M279.539 203.301H276.516V200.25H279.539V203.301Z" fill="#F1F1F0"/>
<path d="M279.539 208.418H276.516V205.367H279.539V208.418Z" fill="#F1F1F0"/>
<path d="M279.539 213.535H276.516V210.484H279.539V213.535Z" fill="#F1F1F0"/>
<path d="M279.539 218.649H276.516V215.598H279.539V218.649Z" fill="#F1F1F0"/>
<path d="M279.539 223.766H276.516V220.715H279.539V223.766Z" fill="#F1F1F0"/>
<path d="M279.539 228.884H276.516V225.832H279.539V228.884Z" fill="#F1F1F0"/>
<path d="M279.539 234.001H276.516V230.949H279.539V234.001Z" fill="#F1F1F0"/>
<path d="M279.539 239.115H276.516V236.062H279.539V239.115Z" fill="#F1F1F0"/>
<path d="M279.539 244.232H276.516V241.18H279.539V244.232Z" fill="#F1F1F0"/>
<path d="M279.539 249.349H276.516V246.297H279.539V249.349Z" fill="#F1F1F0"/>
<path d="M279.539 254.466H276.516V251.414H279.539V254.466Z" fill="#F1F1F0"/>
<path d="M279.539 259.58H276.516V256.527H279.539V259.58Z" fill="#F1F1F0"/>
<path d="M279.539 264.697H276.516V261.645H279.539V264.697Z" fill="#F1F1F0"/>
<path d="M279.539 269.814H276.516V266.762H279.539V269.814Z" fill="#F1F1F0"/>
<path d="M279.539 274.931H276.516V271.879H279.539V274.931Z" fill="#F1F1F0"/>
<path d="M279.539 305.626H276.516V302.574H279.539V305.626Z" fill="#F1F1F0"/>
<path d="M279.539 310.742H276.516V307.691H279.539V310.742Z" fill="#F1F1F0"/>
<path d="M274.734 198.184H271.71V195.133H274.734V198.184Z" fill="#F1F1F0"/>
<path d="M274.734 203.301H271.71V200.25H274.734V203.301Z" fill="#F1F1F0"/>
<path d="M274.734 208.418H271.71V205.367H274.734V208.418Z" fill="#F1F1F0"/>
<path d="M274.734 213.535H271.71V210.484H274.734V213.535Z" fill="#F1F1F0"/>
<path d="M274.734 218.649H271.71V215.598H274.734V218.649Z" fill="#F1F1F0"/>
<path d="M274.734 223.766H271.71V220.715H274.734V223.766Z" fill="#F1F1F0"/>
<path d="M274.734 228.884H271.71V225.832H274.734V228.884Z" fill="#F1F1F0"/>
<path d="M274.734 234.001H271.71V230.949H274.734V234.001Z" fill="#F1F1F0"/>
<path d="M274.734 239.115H271.71V236.062H274.734V239.115Z" fill="#F1F1F0"/>
<path d="M274.734 244.232H271.71V241.18H274.734V244.232Z" fill="#F1F1F0"/>
<path d="M274.734 249.349H271.71V246.297H274.734V249.349Z" fill="#F1F1F0"/>
<path d="M274.734 254.466H271.71V251.414H274.734V254.466Z" fill="#F1F1F0"/>
<path d="M274.734 259.58H271.71V256.527H274.734V259.58Z" fill="#F1F1F0"/>
<path d="M274.734 264.697H271.71V261.645H274.734V264.697Z" fill="#F1F1F0"/>
<path d="M274.734 269.814H271.71V266.762H274.734V269.814Z" fill="#F1F1F0"/>
<path d="M274.734 274.931H271.71V271.879H274.734V274.931Z" fill="#F1F1F0"/>
<path d="M274.734 285.161H271.71V282.109H274.734V285.161Z" fill="#F1F1F0"/>
<path d="M274.734 290.279H271.71V287.227H274.734V290.279Z" fill="#F1F1F0"/>
<path d="M274.734 295.395H271.71V292.344H274.734V295.395Z" fill="#F1F1F0"/>
<path d="M274.734 300.509H271.71V297.457H274.734V300.509Z" fill="#F1F1F0"/>
<path d="M274.734 310.742H271.71V307.691H274.734V310.742Z" fill="#F1F1F0"/>
<path d="M301.766 262.634H298.742V259.582H301.766V262.634Z" fill="#F1F1F0"/>
<path d="M301.766 267.747H298.742V264.695H301.766V267.747Z" fill="#F1F1F0"/>
<path d="M301.766 272.865H298.742V269.812H301.766V272.865Z" fill="#F1F1F0"/>
<path d="M301.766 277.982H298.742V274.93H301.766V277.982Z" fill="#F1F1F0"/>
<path d="M301.766 283.099H298.742V280.047H301.766V283.099Z" fill="#F1F1F0"/>
<path d="M301.766 288.212H298.742V285.16H301.766V288.212Z" fill="#F1F1F0"/>
<path d="M301.766 293.33H298.742V290.277H301.766V293.33Z" fill="#F1F1F0"/>
<path d="M301.766 303.564H298.742V300.512H301.766V303.564Z" fill="#F1F1F0"/>
<path d="M301.766 308.677H298.742V305.625H301.766V308.677Z" fill="#F1F1F0"/>
<path d="M301.766 313.794H298.742V310.742H301.766V313.794Z" fill="#F1F1F0"/>
<path d="M301.766 318.912H298.742V315.859H301.766V318.912Z" fill="#F1F1F0"/>
<path d="M301.766 324.029H298.742V320.977H301.766V324.029Z" fill="#F1F1F0"/>
<path d="M301.766 329.142H298.742V326.09H301.766V329.142Z" fill="#F1F1F0"/>
<path d="M301.766 334.262H298.742V331.211H301.766V334.262Z" fill="#F1F1F0"/>
<path d="M301.766 339.376H298.742V336.324H301.766V339.376Z" fill="#F1F1F0"/>
<path d="M296.969 262.634H293.945V259.582H296.969V262.634Z" fill="#F1F1F0"/>
<path d="M296.969 267.747H293.945V264.695H296.969V267.747Z" fill="#F1F1F0"/>
<path d="M296.969 272.865H293.945V269.812H296.969V272.865Z" fill="#F1F1F0"/>
<path d="M296.969 277.982H293.945V274.93H296.969V277.982Z" fill="#F1F1F0"/>
<path d="M296.969 283.099H293.945V280.047H296.969V283.099Z" fill="#F1F1F0"/>
<path d="M296.969 288.212H293.945V285.16H296.969V288.212Z" fill="#F1F1F0"/>
<path d="M296.969 303.564H293.945V300.512H296.969V303.564Z" fill="#F1F1F0"/>
<path d="M296.969 308.677H293.945V305.625H296.969V308.677Z" fill="#F1F1F0"/>
<path d="M296.969 313.794H293.945V310.742H296.969V313.794Z" fill="#F1F1F0"/>
<path d="M296.969 318.912H293.945V315.859H296.969V318.912Z" fill="#F1F1F0"/>
<path d="M296.969 324.029H293.945V320.977H296.969V324.029Z" fill="#F1F1F0"/>
<path d="M296.969 329.142H293.945V326.09H296.969V329.142Z" fill="#F1F1F0"/>
<path d="M296.969 334.262H293.945V331.211H296.969V334.262Z" fill="#F1F1F0"/>
<path d="M296.969 339.376H293.945V336.324H296.969V339.376Z" fill="#F1F1F0"/>
<path d="M292.156 262.634H289.135V259.582H292.156V262.634Z" fill="#F1F1F0"/>
<path d="M292.156 267.747H289.135V264.695H292.156V267.747Z" fill="#F1F1F0"/>
<path d="M292.156 272.865H289.135V269.812H292.156V272.865Z" fill="#F1F1F0"/>
<path d="M292.156 277.982H289.135V274.93H292.156V277.982Z" fill="#F1F1F0"/>
<path d="M292.156 283.099H289.135V280.047H292.156V283.099Z" fill="#F1F1F0"/>
<path d="M292.156 288.212H289.135V285.16H292.156V288.212Z" fill="#F1F1F0"/>
<path d="M292.156 298.447H289.135V295.395H292.156V298.447Z" fill="#F1F1F0"/>
<path d="M292.156 303.564H289.135V300.512H292.156V303.564Z" fill="#F1F1F0"/>
<path d="M292.156 308.677H289.135V305.625H292.156V308.677Z" fill="#F1F1F0"/>
<path d="M292.156 313.794H289.135V310.742H292.156V313.794Z" fill="#F1F1F0"/>
<path d="M292.156 318.912H289.135V315.859H292.156V318.912Z" fill="#F1F1F0"/>
<path d="M292.156 324.029H289.135V320.977H292.156V324.029Z" fill="#F1F1F0"/>
<path d="M292.156 329.142H289.135V326.09H292.156V329.142Z" fill="#F1F1F0"/>
<path d="M292.156 334.262H289.135V331.211H292.156V334.262Z" fill="#F1F1F0"/>
<path d="M292.156 339.376H289.135V336.324H292.156V339.376Z" fill="#F1F1F0"/>
<path d="M190.984 234.001H187.961V230.949H190.984V234.001Z" fill="#F1F1F0"/>
<path d="M190.984 239.115H187.961V236.062H190.984V239.115Z" fill="#F1F1F0"/>
<path d="M190.984 244.232H187.961V241.18H190.984V244.232Z" fill="#F1F1F0"/>
<path d="M190.984 249.349H187.961V246.297H190.984V249.349Z" fill="#F1F1F0"/>
<path d="M190.984 254.466H187.961V251.414H190.984V254.466Z" fill="#F1F1F0"/>
<path d="M190.984 259.58H187.961V256.527H190.984V259.58Z" fill="#F1F1F0"/>
<path d="M190.984 264.697H187.961V261.645H190.984V264.697Z" fill="#F1F1F0"/>
<path d="M190.984 269.814H187.961V266.762H190.984V269.814Z" fill="#F1F1F0"/>
<path d="M190.984 274.931H187.961V271.879H190.984V274.931Z" fill="#F1F1F0"/>
<path d="M190.984 280.044H187.961V276.992H190.984V280.044Z" fill="#F1F1F0"/>
<path d="M190.984 285.161H187.961V282.109H190.984V285.161Z" fill="#F1F1F0"/>
<path d="M190.984 290.279H187.961V287.227H190.984V290.279Z" fill="#F1F1F0"/>
<path d="M190.984 295.395H187.961V292.344H190.984V295.395Z" fill="#F1F1F0"/>
<path d="M190.984 305.626H187.961V302.574H190.984V305.626Z" fill="#F1F1F0"/>
<path d="M190.984 310.742H187.961V307.691H190.984V310.742Z" fill="#F1F1F0"/>
<path d="M190.984 315.86H187.961V312.809H190.984V315.86Z" fill="#F1F1F0"/>
<path d="M190.984 320.977H187.961V317.926H190.984V320.977Z" fill="#F1F1F0"/>
<path d="M190.984 331.208H187.961V328.156H190.984V331.208Z" fill="#F1F1F0"/>
<path d="M190.984 336.326H187.961V333.273H190.984V336.326Z" fill="#F1F1F0"/>
<path d="M190.984 341.443H187.961V338.391H190.984V341.443Z" fill="#F1F1F0"/>
<path d="M186.188 234.001H183.165V230.949H186.188V234.001Z" fill="#F1F1F0"/>
<path d="M186.188 239.115H183.165V236.062H186.188V239.115Z" fill="#F1F1F0"/>
<path d="M186.188 244.232H183.165V241.18H186.188V244.232Z" fill="#F1F1F0"/>
<path d="M186.188 249.349H183.165V246.297H186.188V249.349Z" fill="#F1F1F0"/>
<path d="M186.188 254.466H183.165V251.414H186.188V254.466Z" fill="#F1F1F0"/>
<path d="M186.188 259.58H183.165V256.527H186.188V259.58Z" fill="#F1F1F0"/>
<path d="M186.188 264.697H183.165V261.645H186.188V264.697Z" fill="#F1F1F0"/>
<path d="M186.188 269.814H183.165V266.762H186.188V269.814Z" fill="#F1F1F0"/>
<path d="M186.188 274.931H183.165V271.879H186.188V274.931Z" fill="#F1F1F0"/>
<path d="M186.188 280.044H183.165V276.992H186.188V280.044Z" fill="#F1F1F0"/>
<path d="M186.188 285.161H183.165V282.109H186.188V285.161Z" fill="#F1F1F0"/>
<path d="M186.188 290.279H183.165V287.227H186.188V290.279Z" fill="#F1F1F0"/>
<path d="M186.188 295.395H183.165V292.344H186.188V295.395Z" fill="#F1F1F0"/>
<path d="M186.188 310.742H183.165V307.691H186.188V310.742Z" fill="#F1F1F0"/>
<path d="M186.188 315.86H183.165V312.809H186.188V315.86Z" fill="#F1F1F0"/>
<path d="M186.188 326.09H183.165V323.039H186.188V326.09Z" fill="#F1F1F0"/>
<path d="M186.188 331.208H183.165V328.156H186.188V331.208Z" fill="#F1F1F0"/>
<path d="M186.188 336.326H183.165V333.273H186.188V336.326Z" fill="#F1F1F0"/>
<path d="M186.188 341.443H183.165V338.391H186.188V341.443Z" fill="#F1F1F0"/>
<path d="M181.383 234.001H178.36V230.949H181.383V234.001Z" fill="#F1F1F0"/>
<path d="M181.383 239.115H178.36V236.062H181.383V239.115Z" fill="#F1F1F0"/>
<path d="M181.383 244.232H178.36V241.18H181.383V244.232Z" fill="#F1F1F0"/>
<path d="M181.383 249.349H178.36V246.297H181.383V249.349Z" fill="#F1F1F0"/>
<path d="M181.383 254.466H178.36V251.414H181.383V254.466Z" fill="#F1F1F0"/>
<path d="M181.383 259.58H178.36V256.527H181.383V259.58Z" fill="#F1F1F0"/>
<path d="M181.383 264.697H178.36V261.645H181.383V264.697Z" fill="#F1F1F0"/>
<path d="M181.383 269.814H178.36V266.762H181.383V269.814Z" fill="#F1F1F0"/>
<path d="M181.383 274.931H178.36V271.879H181.383V274.931Z" fill="#F1F1F0"/>
<path d="M181.383 280.044H178.36V276.992H181.383V280.044Z" fill="#F1F1F0"/>
<path d="M181.383 285.161H178.36V282.109H181.383V285.161Z" fill="#F1F1F0"/>
<path d="M181.383 290.279H178.36V287.227H181.383V290.279Z" fill="#F1F1F0"/>
<path d="M181.383 295.395H178.36V292.344H181.383V295.395Z" fill="#F1F1F0"/>
<path d="M181.383 300.509H178.36V297.457H181.383V300.509Z" fill="#F1F1F0"/>
<path d="M181.383 310.742H178.36V307.691H181.383V310.742Z" fill="#F1F1F0"/>
<path d="M181.383 320.977H178.36V317.926H181.383V320.977Z" fill="#F1F1F0"/>
<path d="M181.383 326.09H178.36V323.039H181.383V326.09Z" fill="#F1F1F0"/>
<path d="M181.383 331.208H178.36V328.156H181.383V331.208Z" fill="#F1F1F0"/>
<path d="M181.383 336.326H178.36V333.273H181.383V336.326Z" fill="#F1F1F0"/>
<path d="M181.383 341.443H178.36V338.391H181.383V341.443Z" fill="#F1F1F0"/>
<path d="M210.547 263.169H207.524V260.117H210.547V263.169Z" fill="#F1F1F0"/>
<path d="M210.547 268.287H207.524V265.234H210.547V268.287Z" fill="#F1F1F0"/>
<path d="M210.547 273.404H207.524V270.352H210.547V273.404Z" fill="#F1F1F0"/>
<path d="M210.547 278.521H207.524V275.469H210.547V278.521Z" fill="#F1F1F0"/>
<path d="M210.547 283.637H207.524V280.586H210.547V283.637Z" fill="#F1F1F0"/>
<path d="M210.547 288.751H207.524V285.699H210.547V288.751Z" fill="#F1F1F0"/>
<path d="M210.547 304.102H207.524V301.051H210.547V304.102Z" fill="#F1F1F0"/>
<path d="M210.547 309.215H207.524V306.164H210.547V309.215Z" fill="#F1F1F0"/>
<path d="M210.547 314.333H207.524V311.281H210.547V314.333Z" fill="#F1F1F0"/>
<path d="M210.547 319.45H207.524V316.398H210.547V319.45Z" fill="#F1F1F0"/>
<path d="M210.547 324.569H207.524V321.516H210.547V324.569Z" fill="#F1F1F0"/>
<path d="M210.547 329.681H207.524V326.629H210.547V329.681Z" fill="#F1F1F0"/>
<path d="M210.547 334.798H207.524V331.746H210.547V334.798Z" fill="#F1F1F0"/>
<path d="M205.742 263.169H202.719V260.117H205.742V263.169Z" fill="#F1F1F0"/>
<path d="M205.742 268.287H202.719V265.234H205.742V268.287Z" fill="#F1F1F0"/>
<path d="M205.742 273.404H202.719V270.352H205.742V273.404Z" fill="#F1F1F0"/>
<path d="M205.742 278.521H202.719V275.469H205.742V278.521Z" fill="#F1F1F0"/>
<path d="M205.742 283.637H202.719V280.586H205.742V283.637Z" fill="#F1F1F0"/>
<path d="M205.742 288.751H202.719V285.699H205.742V288.751Z" fill="#F1F1F0"/>
<path d="M205.742 304.102H202.719V301.051H205.742V304.102Z" fill="#F1F1F0"/>
<path d="M205.742 309.215H202.719V306.164H205.742V309.215Z" fill="#F1F1F0"/>
<path d="M205.742 314.333H202.719V311.281H205.742V314.333Z" fill="#F1F1F0"/>
<path d="M205.742 319.45H202.719V316.398H205.742V319.45Z" fill="#F1F1F0"/>
<path d="M205.742 324.569H202.719V321.516H205.742V324.569Z" fill="#F1F1F0"/>
<path d="M205.742 329.681H202.719V326.629H205.742V329.681Z" fill="#F1F1F0"/>
<path d="M205.742 339.915H202.719V336.863H205.742V339.915Z" fill="#F1F1F0"/>
<path d="M46.2344 240.642H43.2111V237.59H46.2344V240.642Z" fill="#F1F1F0"/>
<path d="M46.2344 245.759H43.2111V242.707H46.2344V245.759Z" fill="#F1F1F0"/>
<path d="M46.2344 250.872H43.2111V247.82H46.2344V250.872Z" fill="#F1F1F0"/>
<path d="M46.2344 255.989H43.2111V252.938H46.2344V255.989Z" fill="#F1F1F0"/>
<path d="M46.2344 261.107H43.2111V258.055H46.2344V261.107Z" fill="#F1F1F0"/>
<path d="M46.2344 266.224H43.2111V263.172H46.2344V266.224Z" fill="#F1F1F0"/>
<path d="M46.2344 271.337H43.2111V268.285H46.2344V271.337Z" fill="#F1F1F0"/>
<path d="M46.2344 276.454H43.2111V273.402H46.2344V276.454Z" fill="#F1F1F0"/>
<path d="M46.2344 281.572H43.2111V278.52H46.2344V281.572Z" fill="#F1F1F0"/>
<path d="M46.2344 286.689H43.2111V283.637H46.2344V286.689Z" fill="#F1F1F0"/>
<path d="M46.2344 291.803H43.2111V288.75H46.2344V291.803Z" fill="#F1F1F0"/>
<path d="M46.2344 302.037H43.2111V298.984H46.2344V302.037Z" fill="#F1F1F0"/>
<path d="M46.2344 307.154H43.2111V304.102H46.2344V307.154Z" fill="#F1F1F0"/>
<path d="M46.2344 312.271H43.2111V309.219H46.2344V312.271Z" fill="#F1F1F0"/>
<path d="M46.2344 317.384H43.2111V314.332H46.2344V317.384Z" fill="#F1F1F0"/>
<path d="M46.2344 322.501H43.2111V319.449H46.2344V322.501Z" fill="#F1F1F0"/>
<path d="M46.2344 327.617H43.2111V324.566H46.2344V327.617Z" fill="#F1F1F0"/>
<path d="M46.2344 332.736H43.2111V329.684H46.2344V332.736Z" fill="#F1F1F0"/>
<path d="M46.2344 337.853H43.2111V334.801H46.2344V337.853Z" fill="#F1F1F0"/>
<path d="M41.4375 240.642H38.4142V237.59H41.4375V240.642Z" fill="#F1F1F0"/>
<path d="M41.4375 245.759H38.4142V242.707H41.4375V245.759Z" fill="#F1F1F0"/>
<path d="M41.4375 250.872H38.4142V247.82H41.4375V250.872Z" fill="#F1F1F0"/>
<path d="M41.4375 255.989H38.4142V252.938H41.4375V255.989Z" fill="#F1F1F0"/>
<path d="M41.4375 261.107H38.4142V258.055H41.4375V261.107Z" fill="#F1F1F0"/>
<path d="M41.4375 266.224H38.4142V263.172H41.4375V266.224Z" fill="#F1F1F0"/>
<path d="M41.4375 271.337H38.4142V268.285H41.4375V271.337Z" fill="#F1F1F0"/>
<path d="M41.4375 276.454H38.4142V273.402H41.4375V276.454Z" fill="#F1F1F0"/>
<path d="M41.4375 281.572H38.4142V278.52H41.4375V281.572Z" fill="#F1F1F0"/>
<path d="M41.4375 286.689H38.4142V283.637H41.4375V286.689Z" fill="#F1F1F0"/>
<path d="M41.4375 291.803H38.4142V288.75H41.4375V291.803Z" fill="#F1F1F0"/>
<path d="M41.4375 296.919H38.4142V293.867H41.4375V296.919Z" fill="#F1F1F0"/>
<path d="M41.4375 302.037H38.4142V298.984H41.4375V302.037Z" fill="#F1F1F0"/>
<path d="M41.4375 307.154H38.4142V304.102H41.4375V307.154Z" fill="#F1F1F0"/>
<path d="M41.4375 312.271H38.4142V309.219H41.4375V312.271Z" fill="#F1F1F0"/>
<path d="M41.4375 317.384H38.4142V314.332H41.4375V317.384Z" fill="#F1F1F0"/>
<path d="M41.4375 322.501H38.4142V319.449H41.4375V322.501Z" fill="#F1F1F0"/>
<path d="M41.4375 327.617H38.4142V324.566H41.4375V327.617Z" fill="#F1F1F0"/>
<path d="M41.4375 332.736H38.4142V329.684H41.4375V332.736Z" fill="#F1F1F0"/>
<path d="M41.4375 337.853H38.4142V334.801H41.4375V337.853Z" fill="#F1F1F0"/>
<path d="M69.8906 260.568H66.8681V257.516H69.8906V260.568Z" fill="#F1F1F0"/>
<path d="M69.8906 265.684H66.8681V262.633H69.8906V265.684Z" fill="#F1F1F0"/>
<path d="M69.8906 270.801H66.8681V267.75H69.8906V270.801Z" fill="#F1F1F0"/>
<path d="M69.8906 275.918H66.8681V272.867H69.8906V275.918Z" fill="#F1F1F0"/>
<path d="M69.8906 281.032H66.8681V277.98H69.8906V281.032Z" fill="#F1F1F0"/>
<path d="M69.8906 286.15H66.8681V283.098H69.8906V286.15Z" fill="#F1F1F0"/>
<path d="M69.8906 291.267H66.8681V288.215H69.8906V291.267Z" fill="#F1F1F0"/>
<path d="M69.8906 296.384H66.8681V293.332H69.8906V296.384Z" fill="#F1F1F0"/>
<path d="M69.8906 301.497H66.8681V298.445H69.8906V301.497Z" fill="#F1F1F0"/>
<path d="M69.8906 306.614H66.8681V303.562H69.8906V306.614Z" fill="#F1F1F0"/>
<path d="M65.0938 260.568H62.0705V257.516H65.0938V260.568Z" fill="#F1F1F0"/>
<path d="M65.0938 265.684H62.0705V262.633H65.0938V265.684Z" fill="#F1F1F0"/>
<path d="M65.0938 270.801H62.0705V267.75H65.0938V270.801Z" fill="#F1F1F0"/>
<path d="M65.0938 275.918H62.0705V272.867H65.0938V275.918Z" fill="#F1F1F0"/>
<path d="M65.0938 281.032H62.0705V277.98H65.0938V281.032Z" fill="#F1F1F0"/>
<path d="M65.0938 286.15H62.0705V283.098H65.0938V286.15Z" fill="#F1F1F0"/>
<path d="M65.0938 291.267H62.0705V288.215H65.0938V291.267Z" fill="#F1F1F0"/>
<path d="M65.0938 296.384H62.0705V293.332H65.0938V296.384Z" fill="#F1F1F0"/>
<path d="M65.0938 301.497H62.0705V298.445H65.0938V301.497Z" fill="#F1F1F0"/>
<path d="M297.15 135.145C297.15 129.905 301.358 125.656 306.549 125.656C307.489 125.656 308.393 125.8 309.249 126.058C309.11 125.107 309.038 124.134 309.038 123.145C309.038 112.047 317.948 103.051 328.941 103.051C330.193 103.051 331.418 103.173 332.607 103.397C335.666 98.3432 341.166 94.957 347.462 94.957C356.992 94.957 364.723 102.689 364.864 112.275C364.961 112.273 365.056 112.26 365.154 112.26C374.009 112.26 381.188 119.507 381.188 128.447C381.188 137.386 374.009 144.633 365.154 144.633H306.274L306.285 144.62C301.217 144.477 297.151 140.295 297.151 135.144L297.15 135.145Z" fill="#F1F1F0"/>
<path d="M220.688 118.084C220.688 114.738 218.001 112.026 214.687 112.026C214.088 112.026 213.51 112.117 212.963 112.282C213.051 111.676 213.098 111.054 213.098 110.423C213.098 103.337 207.409 97.5933 200.39 97.5933C199.59 97.5933 198.809 97.6708 198.049 97.8141C196.097 94.5869 192.586 92.4258 188.565 92.4258C182.48 92.4258 177.544 97.3624 177.455 103.482L177.269 103.472C171.615 103.472 167.032 108.1 167.032 113.808C167.032 119.515 171.615 124.142 177.269 124.142H214.862L214.855 124.134C218.09 124.042 220.687 121.372 220.687 118.084H220.688Z" fill="#F1F1F0"/>
<path d="M46.4523 133.162C46.4523 129.816 43.766 127.104 40.4519 127.104C39.8517 127.104 39.2737 127.195 38.728 127.36C38.8155 126.754 38.8624 126.132 38.8624 125.501C38.8624 118.415 33.1727 112.671 26.1545 112.671C25.3547 112.671 24.5742 112.749 23.8151 112.892C21.861 109.665 18.3496 107.504 14.3301 107.504C8.24518 107.504 3.30928 112.439 3.21947 118.56L3.03449 118.552C-2.61983 118.552 -7.20193 123.179 -7.20193 128.886C-7.20193 134.593 -2.61906 139.22 3.03449 139.22H40.6284L40.6207 139.212C43.8558 139.12 46.4531 136.45 46.4531 133.162H46.4523Z" fill="#F1F1F0"/>
<path d="M285.655 57.5844C285.655 55.5357 284.008 53.8736 281.979 53.8736C281.612 53.8736 281.258 53.9294 280.924 54.0309C280.977 53.659 281.006 53.2786 281.006 52.8911C281.006 48.5511 277.521 45.0333 273.222 45.0333C272.731 45.0333 272.253 45.0805 271.787 45.1681C270.591 43.1907 268.44 41.8672 265.978 41.8672C262.25 41.8672 259.227 44.8915 259.171 48.641L259.059 48.634C255.595 48.634 252.787 51.4693 252.787 54.9654C252.787 58.4624 255.595 61.2968 259.059 61.2968H282.088L282.083 61.2914C284.064 61.2356 285.656 59.5999 285.656 57.5852L285.655 57.5844Z" fill="#F1F1F0"/>
<path d="M129.008 60.2923C129.008 58.242 127.362 56.5815 125.332 56.5815C124.965 56.5815 124.611 56.6372 124.276 56.7372C124.331 56.366 124.359 55.9848 124.359 55.5989C124.359 51.2582 120.873 47.7395 116.574 47.7395C116.084 47.7395 115.605 47.7883 115.14 47.8751C113.944 45.8977 111.793 44.5742 109.331 44.5742C105.603 44.5742 102.58 47.5977 102.525 51.3473L102.41 51.3418C98.9478 51.3418 96.1403 54.1763 96.1403 57.6732C96.1403 61.1702 98.9478 64.0031 102.41 64.0031H125.44L125.435 63.9976C127.417 63.9426 129.007 62.3069 129.007 60.2923H129.008Z" fill="#F1F1F0"/>
<path d="M-19.1837 388.815C-19.1837 395.546 73.3524 401.002 187.502 401.002C301.651 401.002 394.188 395.546 394.188 388.815C394.188 382.085 301.651 376.629 187.502 376.629C73.3524 376.629 -19.1837 382.085 -19.1837 388.815Z" fill="#F3F4F4"/>
<path d="M375.891 372.965H363.16V187.547H375.891V372.965Z" fill="#4B7ABC"/>
<path d="M351.406 372.966H338.675V226.836H351.406V372.966Z" fill="#4B7ABC"/>
<path d="M326.914 372.968H314.183V257.5H326.914V372.968Z" fill="#4B7ABC"/>
<path d="M302.43 372.965H289.698V284.652H302.43V372.965Z" fill="#4B7ABC"/>
<path d="M277.945 372.966H265.215V308.398H277.945V372.966Z" fill="#4B7ABC"/>
<path d="M253.461 372.965H240.729V325.578H253.461V372.965Z" fill="#4B7ABC"/>
<path d="M228.969 372.966H216.238V339.699H228.969V372.966Z" fill="#4B7ABC"/>
<path d="M363.16 372.965H375.891V187.547H363.16V372.965Z" fill="#C3D7EF"/>
<path d="M338.675 372.966H351.406V226.836H338.675V372.966Z" fill="#C3D7EF"/>
<path d="M314.183 372.968H326.914V257.5H314.183V372.968Z" fill="#C3D7EF"/>
<path d="M294.822 372.968H296.76C294.961 368.679 293.468 364.279 294.51 363.48C294.616 363.398 294.728 363.36 294.844 363.36C295.903 363.36 297.331 366.591 298.529 369.823C298.933 370.913 299.31 372.003 299.64 372.969H300.868C300.928 368.589 301.206 360.959 302.43 357.051V284.656H289.699V370.41L293.701 371.926L294.822 372.969V372.968Z" fill="#C3D7EF"/>
<path d="M277.945 365.958V308.398H265.215V361.141L277.945 365.958Z" fill="#C3D7EF"/>
<path d="M253.461 356.693V355.127C252.704 355.401 251.937 355.64 251.222 355.845L253.461 356.693V356.693ZM244.061 354.191C242.784 351.218 239.763 343.589 242.353 343.46C242.383 343.458 242.411 343.458 242.439 343.458C245.592 343.458 246.616 352.388 246.616 352.388C246.616 352.388 248.209 341.734 252.359 341.734C252.646 341.734 252.945 341.784 253.256 341.894C253.327 341.918 253.396 341.945 253.461 341.972V325.582H240.73V353.918L244.061 354.191V354.191ZM249.569 353.281C249.569 353.281 251.429 352.092 253.461 351.138V348.027C251.896 350.739 249.569 353.281 249.569 353.281Z" fill="#C3D7EF"/>
<path d="M228.969 352.949V339.699H216.238V351.902L228.969 352.949Z" fill="#C3D7EF"/>
<path d="M377.645 137.375L380.219 151.892L365.855 146.081L377.645 137.375Z" fill="#4B7ABC"/>
<path d="M377.562 149.631C377.471 149.87 365.186 183.024 336.662 224.031C322.398 244.532 304.071 266.999 281.158 288.275C258.245 309.549 230.741 329.633 198.151 345.326L194.48 337.555C226.198 322.282 253.005 302.718 275.385 281.939C308.954 250.773 332.549 216.869 347.721 190.781C355.307 177.739 360.788 166.653 364.363 158.851C366.151 154.948 367.462 151.868 368.322 149.774C368.752 148.727 369.069 147.927 369.277 147.394C369.381 147.128 369.457 146.927 369.507 146.797L369.56 146.654L369.574 146.617L377.562 149.631V149.631Z" fill="#4B7ABC"/>
<path d="M71.9909 377.126C71.9909 377.126 80.4673 360.427 78.3359 358.791C77.2568 357.963 75.645 361.548 74.3172 365.134C73.0209 368.631 71.9932 372.129 71.9909 371.531C71.9878 370.319 72.2288 349.085 68.3121 349.927C64.3963 350.768 68.3121 370.319 68.3121 370.319C68.3121 370.319 63.0439 360.329 60.9793 361.084C58.9146 361.838 67.068 373.718 67.068 373.718C67.068 373.718 62.2004 370.746 60.9793 370.974C59.7574 371.204 67.068 377.126 67.068 377.126H71.9909Z" fill="#4B7ABC"/>
<path d="M300.86 381.813C300.86 381.813 292.384 365.114 294.515 363.479C295.594 362.649 297.206 366.236 298.535 369.821C299.831 373.319 300.859 376.816 300.859 376.217C300.864 375.006 300.623 353.773 304.538 354.614C308.455 355.456 304.538 375.006 304.538 375.006C304.538 375.006 311.868 360.893 313.812 364.492C315.5 367.614 305.783 378.406 305.783 378.406C305.783 378.406 315.448 371.798 315.5 374.709C315.554 377.831 305.783 381.814 305.783 381.814H300.859L300.86 381.813Z" fill="#4B7ABC"/>
<path d="M170.892 367.766C170.892 367.766 178.938 357.666 175.848 356.738C174.319 356.279 173.028 358.108 172.046 359.935C171.046 361.8 170.368 363.665 170.091 363.103C169.542 361.992 169.904 350.89 164.762 352.557C159.621 354.224 166.678 363.702 166.678 363.702C166.678 363.702 162.04 360.119 160.79 361.028C159.539 361.935 166.364 368.559 166.364 368.559L170.893 367.766H170.892Z" fill="#4B7ABC"/>
<path d="M244.578 355.356C244.578 355.356 239.134 343.618 242.353 343.457C245.572 343.294 246.615 352.385 246.615 352.385C246.615 352.385 248.436 340.206 253.255 341.89C258.359 343.674 249.568 353.278 249.568 353.278C249.568 353.278 258.002 347.885 258.564 350.866C259.253 354.523 247.65 356.71 247.65 356.71L244.577 355.355L244.578 355.356Z" fill="#4B7ABC"/>
<path d="M329.781 389.542H42.651L54.4585 376.629L139.989 367.542H169.907L191.515 349.871L247.627 354.483L293.705 371.925L303.189 380.748H317.906L329.781 389.542Z" fill="#313F44"/>
<path d="M42.651 389.542L54.4593 376.629L85.385 385.942L112.238 378.933L88.3323 389.542H329.781L317.906 380.748H303.189L293.705 371.925L247.627 354.483L208.723 351.286L209.257 354.77L201.79 356.899L200.831 350.637L191.515 349.871L179.463 359.727L198.966 363.517L212.46 376.981L186.216 367.542H139.989L91.1613 372.729L88.8887 379.445L81.2964 377.833L82.7209 373.626L54.4593 376.629L42.651 389.542V389.542ZM293.705 371.925L303.189 380.748L272.968 385.942H256.6L275.155 382.7L293.705 371.924V371.925Z" fill="#949CA0"/>
<path d="M256.599 385.939H272.966L303.188 380.744L293.704 371.922L275.154 382.697L256.599 385.939Z" fill="#7B8183"/>
<path d="M172.846 365.131L179.453 359.727L172.846 365.131Z" fill="#CECFCF"/>
<path d="M169.904 367.539L172.852 365.129L169.904 367.539Z" fill="#3B6BB2"/>
<path d="M212.453 376.981L198.959 363.517L179.456 359.727L169.9 367.542H186.209L212.453 376.981Z" fill="#7B8183"/>
<path d="M42.6471 389.542H88.3284L112.234 378.933L85.3811 385.942L54.4547 376.629L42.6471 389.542Z" fill="#7B8183"/>
<path d="M201.784 356.896L209.25 354.767L206.483 336.707L199.018 338.837L201.784 356.896Z" fill="#F58E82"/>
<path d="M209.42 348.445H199.961C199.644 348.445 199.367 348.667 199.295 348.98L197.694 355.942C197.528 356.664 198.083 357.347 198.816 357.334C201.859 357.282 204.082 357.102 207.915 357.102C210.273 357.102 217.383 357.349 220.638 357.349C223.823 357.349 224.353 354.099 223.022 353.803C217.057 352.485 212.571 350.664 210.675 348.926C210.333 348.613 209.884 348.445 209.42 348.445Z" fill="#313F44"/>
<path d="M81.2897 377.832L88.882 379.444L94.7344 362.152L87.1421 360.539L81.2897 377.832Z" fill="#F58E82"/>
<path d="M147.75 206.992C147.75 206.992 183.193 246.465 192.771 262.083C202.349 277.704 210.688 343.77 210.688 343.77L196.565 347.212C196.565 347.212 180.151 282.796 175.778 276.345C171.407 269.893 124.992 226.168 124.992 226.168L147.75 206.992Z" fill="#313F44"/>
<path d="M196.572 347.215L200.172 346.335L196.571 347.212C196.571 347.212 196.31 346.19 195.847 344.391C196.31 346.19 196.571 347.214 196.571 347.214L196.572 347.215Z" fill="#EAEAEA"/>
<path d="M200.163 346.337L201.078 346.113L200.163 346.337Z" fill="#F6988D"/>
<path d="M169.844 269.709C165.843 265.561 160.335 260.106 154.545 254.464H154.535C160.327 260.105 165.841 265.563 169.844 269.709ZM152.572 252.556V252.545C151.475 251.48 150.372 250.41 149.273 249.348H149.26C150.363 250.414 151.471 251.486 152.572 252.556ZM147.772 247.91V247.897C147.018 247.169 146.267 246.447 145.523 245.73C145.525 245.737 145.527 245.744 145.53 245.751C146.272 246.464 147.021 247.185 147.772 247.909V247.91Z" fill="#EAEAEA"/>
<path d="M154.537 254.465H154.547C153.893 253.827 153.234 253.187 152.574 252.547V252.558C153.232 253.195 153.886 253.831 154.537 254.466V254.465Z" fill="#F1F3F4"/>
<path d="M149.26 249.349H149.273C148.771 248.864 148.271 248.38 147.772 247.898V247.912C148.266 248.39 148.764 248.869 149.26 249.35V249.349Z" fill="#F1F3F4"/>
<path d="M196.569 347.212L200.17 346.334L201.085 346.111L210.688 343.764C210.688 343.764 202.347 277.704 192.77 262.088C186.51 251.871 169.199 231.472 157.96 218.568L146.121 225.343L141.276 214.293L133.152 226.168L133.146 226.167C133.051 226.845 132.955 227.54 132.856 228.247C135.802 230.768 142.365 237.087 145.527 245.731C146.271 246.447 147.021 247.169 147.776 247.897C148.275 248.379 148.775 248.863 149.277 249.348C150.377 250.41 151.479 251.479 152.576 252.545C153.236 253.185 153.895 253.826 154.549 254.463C160.339 260.106 165.847 265.561 169.848 269.708C172.844 272.81 174.996 275.178 175.783 276.34C179.607 281.978 192.625 331.901 195.845 344.391C196.309 346.19 196.569 347.212 196.569 347.212V347.212Z" fill="#425055"/>
<path d="M139.625 240.074V240.068C136.886 237.448 134.351 235.035 132.19 232.98C132.188 232.983 132.188 232.983 132.188 232.985C134.351 235.039 136.884 237.452 139.625 240.075V240.074Z" fill="#CECECE"/>
<path d="M145.531 245.753C145.528 245.745 145.526 245.739 145.524 245.733C143.493 243.779 141.509 241.876 139.621 240.07V240.077C141.51 241.886 143.498 243.794 145.531 245.753Z" fill="#BCBDBD"/>
<path d="M145.523 245.733C142.362 237.09 135.798 230.771 132.852 228.25C132.639 229.766 132.416 231.349 132.186 232.982C134.347 235.036 136.882 237.449 139.621 240.07C141.509 241.875 143.493 243.778 145.523 245.732V245.733Z" fill="#394447"/>
<path d="M135.405 209.822C135.405 209.822 126.292 276.997 121.889 299.545C117.069 324.236 95.6149 370.047 95.6149 370.047L81.709 367.094C81.709 367.094 96.3287 324.754 99.5646 299.964C103.182 272.241 108.61 209.621 108.61 209.621L135.406 209.821L135.405 209.822Z" fill="#313F44"/>
<path d="M95.6089 370.046C95.6089 370.046 117.063 324.234 121.883 299.544C123.482 291.355 125.703 277.279 127.882 262.674C128.74 256.929 129.589 251.104 130.394 245.52C131.025 241.137 131.629 236.904 132.184 232.98C132.414 231.347 132.636 229.764 132.85 228.248C132.949 227.54 133.046 226.845 133.141 226.167L107.613 220.797C105.878 240.085 102.226 279.517 99.5585 299.963C96.3234 324.753 81.703 367.093 81.703 367.093L84.707 367.731L92.2994 369.344L95.6097 370.046H95.6089Z" fill="#425055"/>
<path d="M189.454 125.848L190.062 117.887L181.882 121.08C181.882 121.08 181.763 128.215 185.407 128.123L189.455 125.848H189.454Z" fill="#F58E82"/>
<path d="M186.88 113.293L179.155 113.783L181.882 121.078L190.062 117.885L186.88 113.293Z" fill="#F58E82"/>
<path d="M189.734 127.247L189.516 125.043L182.912 126.403L183.433 128.726L189.734 127.247Z" fill="#4B7ABC"/>
<path d="M183.174 127.582L189.609 125.995L189.514 125.043L182.91 126.403L183.174 127.582Z" fill="#C3D7EF"/>
<path d="M158.208 115.422H175.313C175.917 115.422 176.406 116.739 176.406 118.363C176.406 119.988 175.917 121.305 175.313 121.305H158.208C157.605 121.305 157.115 119.988 157.115 118.363C157.115 116.739 157.605 115.422 158.208 115.422Z" fill="#4B7ABC"/>
<path d="M158.208 121.305H174.703C174.381 120.618 174.174 119.556 174.174 118.363C174.174 117.171 174.381 116.109 174.703 115.422H158.208C157.605 115.422 157.115 116.739 157.115 118.363C157.115 119.988 157.605 121.305 158.208 121.305Z" fill="#8BAFDC"/>
<path d="M175.571 114.613H195.982C196.752 114.613 197.375 116.292 197.375 118.364C197.375 120.436 196.752 122.115 195.982 122.115H175.571C174.801 122.115 174.177 120.436 174.177 118.364C174.177 116.292 174.801 114.613 175.571 114.613Z" fill="#4B7ABC"/>
<path d="M175.566 122.115H194.766C194.316 121.307 194.02 119.929 194.02 118.364C194.02 116.8 194.316 115.421 194.766 114.613H175.566C174.796 114.613 174.172 116.292 174.172 118.364C174.172 119.556 174.378 120.618 174.7 121.305C174.938 121.812 175.238 122.115 175.566 122.115Z" fill="#6790CA"/>
<path d="M195.7 113.855H217.028C217.952 113.855 218.703 115.875 218.703 118.364C218.703 120.854 217.952 122.872 217.028 122.872H195.7C194.774 122.872 194.024 120.854 194.024 118.364C194.024 115.875 194.775 113.855 195.7 113.855Z" fill="#4B7ABC"/>
<path d="M195.703 122.872H217.031C216.106 122.872 215.356 120.854 215.356 118.364C215.356 115.875 216.106 113.855 217.031 113.855H195.703C194.777 113.855 194.027 115.875 194.027 118.364C194.027 119.929 194.323 121.306 194.773 122.115C195.039 122.594 195.359 122.872 195.703 122.872Z" fill="#8BAFDC"/>
<path d="M217.028 122.872C217.953 122.872 218.703 120.854 218.703 118.364C218.703 120.854 217.953 122.872 217.028 122.872ZM218.699 118.031C218.635 115.697 217.911 113.855 217.028 113.855C217.911 113.855 218.635 115.697 218.699 118.031Z" fill="#F3F4F4"/>
<path d="M217.028 122.872C217.952 122.872 218.703 120.854 218.703 118.364C218.703 118.252 218.701 118.141 218.699 118.031C218.635 115.697 217.911 113.855 217.028 113.855C216.103 113.855 215.353 115.875 215.353 118.364C215.353 120.854 216.104 122.872 217.028 122.872Z" fill="#A1C0E5"/>
<path d="M217.029 122.358C217.44 122.358 218.195 120.841 218.195 118.362C218.195 115.884 217.439 114.367 217.029 114.367C216.617 114.367 215.861 115.884 215.861 118.362C215.861 120.841 216.617 122.358 217.029 122.358Z" fill="#282828"/>
<path d="M91.646 371.633H82.1871C81.8701 371.633 81.5931 371.855 81.5217 372.168L79.9199 379.13C79.7533 379.852 80.309 380.536 81.0427 380.522C84.086 380.469 86.3087 380.29 90.1425 380.29C92.5003 380.29 99.6083 380.538 102.865 380.538C106.05 380.538 106.579 377.286 105.249 376.991C99.2844 375.672 94.7974 373.85 92.9017 372.114C92.5593 371.801 92.1119 371.633 91.6468 371.633H91.646Z" fill="#313F44"/>
<path d="M161.218 145.795C161.218 145.795 165.428 146.818 169.883 147.499C172.116 147.825 174.34 148.139 176.484 148.36C177.554 148.47 178.601 148.539 179.555 148.585C179.753 148.594 179.941 148.597 180.122 148.6C180.371 147.913 180.602 147.108 180.806 146.273C181.306 144.226 181.724 142.003 182.083 139.756C182.797 135.26 183.014 127.624 183.014 127.624L189.877 125.93C190.521 130.769 190.877 135.545 190.867 140.464C190.848 142.925 190.776 145.402 190.465 148.006C190.301 149.316 190.098 150.648 189.708 152.14C189.505 152.891 189.267 153.684 188.836 154.61C188.596 155.095 188.356 155.576 187.923 156.176C187.491 156.759 186.939 157.442 185.912 158.122C185.635 158.296 185.349 158.454 185.051 158.595C184.721 158.74 184.358 158.87 184.029 158.963L183.287 159.146C182.789 159.263 182.409 159.314 181.977 159.385C181.191 159.49 180.456 159.559 179.766 159.598C178.382 159.684 177.09 159.676 175.826 159.643C173.301 159.582 170.871 159.403 168.461 159.156C163.635 158.67 158.975 157.951 154.223 156.989L161.218 145.792V145.795Z" fill="#313F44"/>
<path d="M116.814 143.239C117.091 151.982 116.515 159.509 115.561 167.766C114.857 173.824 113.938 179.571 112.984 184.768C110.747 196.973 108.318 206.145 107.923 209.349C113.789 210.221 136.576 213.6 149.474 215.508C166.011 170.835 160.246 145.62 160.246 145.62C160.246 145.62 155.753 144.003 150.408 142.903C149.71 142.755 148.995 142.626 148.27 142.505C143.594 141.727 135.87 141.337 130.585 141.207C129.48 141.181 128.361 141.183 127.268 141.202C121.748 141.312 116.814 143.239 116.814 143.239Z" fill="#4B7ABC"/>
<path d="M143.306 177.777C142.656 175.91 141.865 173.57 141.274 172.242C141.955 174.066 142.635 175.916 143.306 177.777ZM145.175 176.632C147.051 171.843 150.424 162.021 150.422 153.282C150.421 149.225 149.694 145.403 147.752 142.423C147.056 142.317 146.301 142.218 145.504 142.125C146.19 142.628 147.034 143.364 147.905 144.41C148.646 145.404 149.542 153.781 147.022 155.061C145.755 152.217 143.555 149.806 143.555 149.806C143.555 149.805 143.555 149.806 143.555 149.806C143.555 149.806 143.555 149.805 143.555 149.806C143.555 149.806 141.37 151.884 138.873 153.889C135.943 151.721 129.155 146.074 130.052 141.893C130.184 141.632 130.372 141.404 130.584 141.207C130.024 141.194 129.459 141.188 128.898 141.188C128.835 141.188 128.774 141.188 128.712 141.188C128.827 141.45 135.104 155.732 141.272 172.238C141.994 164.406 143.369 156.555 142.945 152.445L144.594 152.643C145.112 155.897 146.755 164.26 146.683 172.5C146.244 173.413 145.719 175.077 145.175 176.631V176.632Z" fill="#C3D7EF"/>
<path d="M144.597 152.644C145.115 155.899 146.757 164.261 146.685 172.501C145.918 174.1 144.885 177.996 143.952 179.578C143.27 177.773 142.086 174.059 141.275 172.24C141.997 164.408 143.372 156.556 142.948 152.445L144.597 152.644V152.644Z" fill="#4B7ABC"/>
<path d="M144.106 155.119L146.141 151.458L143.557 149.805L141.275 150.763L144.106 155.119Z" fill="#4B7ABC"/>
<path d="M135.767 122.816C135.956 128.637 135.382 139.161 130.845 142.326C133.243 145.755 137.098 148.954 143.428 149.79C148.276 150.43 148.11 146.331 147.337 144.282C142.292 142.118 143.193 137.898 144.992 133.675L135.766 122.816H135.767Z" fill="#F58E82"/>
<path d="M143.555 149.807C143.555 149.807 141.37 151.885 138.873 153.89C135.942 151.721 129.154 146.074 130.052 141.893C130.642 140.722 132.365 140.211 132.365 140.211C132.365 140.211 136.421 145.407 143.555 149.806V149.807Z" fill="#FEFEFE"/>
<path d="M143.555 149.806C143.555 149.806 145.756 152.217 147.022 155.061C149.544 153.781 148.647 145.404 147.906 144.41C145.836 141.926 143.922 141.188 143.922 141.188C143.922 141.188 145.553 145.683 143.555 149.805V149.806Z" fill="#FEFEFE"/>
<path d="M143.943 136.706C144.063 136.2 144.215 135.693 144.392 135.185C144.208 135.694 144.046 136.199 143.916 136.697C143.924 136.699 143.934 136.702 143.943 136.705V136.706ZM144.984 133.673C144.984 133.671 144.984 133.671 144.984 133.671L143.923 132.422L144.984 133.673Z" fill="#CECFCF"/>
<path d="M143.916 136.695C144.046 136.196 144.208 135.692 144.392 135.183C144.568 134.675 144.769 134.169 144.984 133.67L143.923 132.419L139.523 127.246C139.226 127.799 138.978 129 138.902 130.277C138.749 132.826 141.585 135.962 143.916 136.695Z" fill="#CD7468"/>
<path d="M155.696 109.371C156.885 112.295 156.891 118.511 152.565 116.861C148.239 115.212 153.651 104.346 155.696 109.371Z" fill="#313F44"/>
<path d="M134.592 115.269C134.784 123.029 134.507 127.586 138.246 131.666C143.871 137.804 153.49 134.51 155.604 126.825C157.505 119.907 156.87 108.378 149.456 105.094C142.15 101.858 134.398 107.509 134.591 115.269H134.592Z" fill="#F58E82"/>
<path d="M139.242 102.091C139.511 102.104 139.731 102.21 139.953 102.218C139.953 102.218 139.291 117.392 135.835 120.707C127.004 118.188 122.464 101.28 139.242 102.091Z" fill="#313F44"/>
<path d="M131.402 121.617C131.944 123.634 133.361 125.2 134.855 126.018C137.103 127.251 138.818 125.352 138.688 122.905C138.573 120.702 137.262 117.406 134.769 117.182C132.31 116.963 130.783 119.312 131.402 121.616V121.617Z" fill="#F58E82"/>
<path d="M153.252 117.935C153.23 118.565 153.543 119.086 153.952 119.097C154.36 119.108 154.711 118.605 154.733 117.975C154.757 117.343 154.443 116.824 154.034 116.813C153.625 116.802 153.274 117.305 153.252 117.935Z" fill="#313F44"/>
<path d="M150.99 118.188C150.99 118.188 152.323 121.73 153.844 123.473C152.715 124.43 150.85 123.901 150.85 123.901L150.99 118.188Z" fill="#F15F5C"/>
<path d="M147.411 126.225C147.666 126.266 147.937 126.294 148.223 126.301C148.325 126.304 148.41 126.222 148.414 126.121C148.418 126.018 148.336 125.933 148.237 125.932C145.487 125.856 144.275 123.889 144.264 123.87L144.012 123.809L143.949 124.064C143.996 124.143 145.041 125.84 147.411 126.225V126.225Z" fill="#313F44"/>
<path d="M145.671 116.08C145.781 116.149 145.923 116.157 146.044 116.09C147.489 115.296 148.693 115.922 148.706 115.929C148.884 116.025 149.108 115.957 149.206 115.777C149.303 115.597 149.234 115.373 149.057 115.278C148.994 115.244 147.486 114.459 145.692 115.444C145.513 115.542 145.446 115.767 145.543 115.946L145.672 116.081L145.671 116.08Z" fill="#313F44"/>
<path d="M156.78 115.098L156.967 114.998C157.112 114.853 157.116 114.617 156.974 114.472C155.556 113.009 153.899 113.349 153.824 113.355C153.625 113.397 153.495 113.593 153.535 113.794C153.574 113.995 153.765 114.124 153.963 114.084C154.032 114.068 155.311 113.821 156.449 114.997C156.538 115.088 156.664 115.123 156.78 115.099V115.098Z" fill="#313F44"/>
<path d="M147.797 118.069L147.727 118.008C147.581 117.891 147.226 117.657 146.798 117.658C146.626 117.658 146.439 117.695 146.24 117.792L146.026 117.717L146.1 117.502C146.343 117.382 146.58 117.336 146.798 117.336C147.521 117.341 148.007 117.828 148.02 117.837L148.023 118.065L147.798 118.067L147.797 118.069Z" fill="#313F44"/>
<path d="M137.179 112.148C137.179 112.148 140.567 111.978 141.942 108.668C143.317 105.358 144.495 108.055 144.495 108.055C144.495 108.055 144.947 107.054 147.903 106.461C150.86 105.866 152.818 113.889 156.014 112.595C159.209 111.3 158.281 108.055 158.281 108.055C158.281 108.055 156.88 107.363 155.305 102.982C153.529 98.0465 144.998 95.8513 137.599 99.5862C130.2 103.322 137.179 112.15 137.179 112.15V112.148Z" fill="#313F44"/>
<path d="M102.123 219.64L133.15 226.168L141.274 214.293L146.119 225.343L159.637 217.606L152.445 206.997C165.771 174.308 161.219 145.791 161.219 145.791C155.315 142.894 147.752 142.418 147.752 142.418C155.493 154.288 143.952 179.574 143.952 179.574C137.015 160.044 128.713 141.182 128.713 141.182C121.661 140.654 115.578 142.56 115.578 142.56C115.578 142.56 112.555 187.106 108.551 198.423C104.559 209.727 102.123 219.64 102.123 219.64H102.123Z" fill="#313F44"/>
<path d="M146.346 194.677L144.751 184.068L157.198 166.417L151.472 159.194L158.281 154.097C158.281 154.097 152.428 144.144 147.747 142.419C149.69 145.399 150.419 149.222 150.42 153.28C150.422 165.389 143.947 179.576 143.947 179.576C137.01 160.045 128.709 141.184 128.709 141.184C128.709 141.184 123.224 145.111 120.279 153.337L133.236 157.329L126.757 165.568C126.757 165.568 141.896 176.511 146.346 194.678V194.677Z" fill="#425055"/>
<path d="M66.8623 212.281L67.4818 212.434L67.4541 212.677C67.4518 212.997 67.6046 213.419 67.973 213.896C68.521 214.611 69.5249 215.4 70.8458 216.102C72.1644 216.806 73.7961 217.431 75.6021 217.874C77.3559 218.306 79.0406 218.509 80.5035 218.509C81.908 218.51 83.11 218.317 83.9458 217.987C84.3626 217.823 84.6857 217.627 84.9037 217.425C85.1232 217.22 85.2383 217.023 85.2905 216.811L85.3189 216.569C85.3212 216.248 85.1685 215.826 84.8001 215.349C84.2521 214.635 83.2466 213.844 81.9272 213.143C80.6086 212.439 78.9753 211.815 77.1709 211.371C75.4171 210.94 73.7317 210.736 72.2695 210.736C70.8634 210.735 69.663 210.928 68.8272 211.259C68.4097 211.422 68.0866 211.619 67.8686 211.82C67.6491 212.025 67.5332 212.222 67.4802 212.434L66.8608 212.281L66.2414 212.129C66.3596 211.637 66.639 211.208 67.0074 210.87C67.5646 210.36 68.3153 210.02 69.2048 209.791C70.0951 209.563 71.1298 209.449 72.2688 209.449C73.8476 209.449 75.6259 209.667 77.4718 210.121C80.0069 210.746 82.2243 211.702 83.8476 212.8C84.6588 213.351 85.3228 213.936 85.8048 214.559C86.2822 215.179 86.5914 215.853 86.5938 216.569C86.5938 216.752 86.5723 216.936 86.53 217.116C86.4118 217.608 86.1325 218.036 85.7625 218.376C85.2061 218.885 84.4547 219.225 83.5667 219.455C82.6771 219.682 81.6417 219.795 80.5035 219.795C78.9247 219.795 77.1464 219.578 75.2997 219.123C72.7646 218.499 70.548 217.543 68.9239 216.444C68.1127 215.894 67.4472 215.309 66.9668 214.686C66.4878 214.067 66.18 213.392 66.1777 212.675C66.177 212.492 66.1977 212.308 66.2414 212.128L66.8608 212.28L66.8623 212.281Z" fill="#313F44"/>
<path d="M52.1825 209.644L43.9747 243.668C43.7061 244.782 44.3776 245.914 45.4928 246.189L94.6587 258.277C95.7608 258.549 96.886 257.857 97.1547 256.744L105.363 222.72C105.634 221.594 104.947 220.47 103.844 220.199L54.6785 208.111C53.5633 207.837 52.455 208.518 52.1833 209.644H52.1825Z" fill="#313F44"/>
<path d="M94.6581 258.279L93.8407 258.078C92.737 257.806 92.0532 256.671 92.3218 255.557L100.53 221.534C100.761 220.574 101.609 219.941 102.536 219.941C102.605 219.941 102.676 219.945 102.746 219.951L102.484 219.896C102.349 219.863 102.214 219.848 102.08 219.848C101.182 219.848 100.334 220.551 100.114 221.459L96.3099 237.233C96.1279 237.989 95.4571 238.496 94.7195 238.496C94.5914 238.496 94.4609 238.481 94.3304 238.449L49.1664 227.345C48.6975 227.229 48.3244 226.92 48.1118 226.522L43.9749 243.67C43.935 243.836 43.9166 244.002 43.9166 244.165C43.9166 244.783 44.1898 245.366 44.6488 245.759C44.8852 245.96 45.1715 246.111 45.4931 246.191L49.092 247.075L75.398 253.542L78.4213 254.286L80.1996 254.723L83.2229 255.467L85.0012 255.904L85.3543 255.992L94.6605 258.28L94.6581 258.279ZM105.422 222.223C105.421 221.282 104.783 220.433 103.844 220.201L103.3 220.068H103.298L103.844 220.201C104.783 220.433 105.42 221.281 105.422 222.223Z" fill="#425055"/>
<path d="M100.53 221.534L92.3223 255.557C92.0537 256.671 92.7375 257.806 93.8412 258.078L94.6586 258.279C95.7608 258.55 96.886 257.859 97.1546 256.746L105.363 222.722C105.634 221.596 104.947 220.472 103.844 220.201L103.027 220.001C101.924 219.73 100.803 220.408 100.53 221.534Z" fill="#313F44"/>
<path d="M102.485 219.894C101.451 219.64 100.367 220.414 100.116 221.457L96.3111 237.232C96.0969 238.118 95.2112 238.663 94.3316 238.447L49.1676 227.343C48.2881 227.127 47.75 226.233 47.9642 225.345L51.7818 209.519C52.0497 208.41 53.1557 207.731 54.2525 208L103.438 220.094L102.486 219.894H102.485Z" fill="#313F44"/>
<path d="M94.7208 238.498C95.4584 238.498 96.1292 237.991 96.3111 237.235L100.116 221.46C100.335 220.553 101.183 219.849 102.081 219.849C102.216 219.849 102.351 219.865 102.485 219.898L102.748 219.953L103.299 220.07H103.301L103.438 220.098L54.2525 208.004C54.0906 207.964 53.9271 207.945 53.7674 207.945C52.8464 207.945 52.0098 208.579 51.7819 209.523L47.9642 225.349C47.932 225.481 47.9174 225.612 47.9174 225.742C47.9174 226.486 48.4194 227.163 49.1677 227.347L94.3317 238.451C94.4614 238.483 94.5926 238.498 94.7208 238.498Z" fill="#566267"/>
<path d="M67.3336 239.846L70.99 240.745C71.317 240.825 71.6471 240.623 71.7261 240.293L73.9297 231.158L69.0889 229.969L66.8861 239.102C66.8063 239.432 67.0066 239.765 67.3336 239.845V239.846Z" fill="#313F44"/>
<path d="M67.6681 237.22L67.7425 236.907L71.97 237.946L72.1189 237.964C72.4006 237.964 72.6585 237.771 72.7275 237.481L73.2203 235.439L73.2387 235.289C73.2387 235.004 73.0468 234.744 72.7598 234.674L68.5315 233.634L68.3826 233.617C68.1009 233.617 67.843 233.811 67.774 234.101L67.2812 236.143L67.2628 236.292C67.2628 236.577 67.4547 236.837 67.7425 236.907L67.6665 237.22L67.5913 237.533C67.0134 237.389 66.6258 236.869 66.6258 236.291C66.6258 236.191 66.6373 236.091 66.6619 235.989L67.1546 233.947C67.2966 233.364 67.8124 232.973 68.3826 232.973C68.4816 232.973 68.5829 232.984 68.682 233.009L72.9095 234.049C73.4882 234.192 73.875 234.713 73.875 235.289C73.875 235.389 73.8635 235.491 73.8389 235.592L73.3462 237.633C73.2057 238.217 72.6892 238.607 72.1181 238.607C72.0191 238.607 71.9194 238.596 71.8188 238.571L67.5913 237.533L67.6665 237.22H67.6681Z" fill="#FEFEFE"/>
<path d="M81.6547 201.633L83.0078 209.456L73.4 206.828C73.4 206.828 73.7201 199.923 77.3842 199.715L81.6554 201.633H81.6547Z" fill="#F58E82"/>
<path d="M79.9754 215.201L72.1328 212.656L73.4 206.828L83.0078 209.456L79.9754 215.201Z" fill="#F58E82"/>
<path d="M82.2578 198.485L82.0114 201.997L75.6479 200.672L76.1483 197.375L82.2578 198.485Z" fill="#4B7ABC"/>
<path d="M82.0114 201.997L82.2578 198.485L76.1483 197.375L75.6479 200.672L81.7083 201.934L82.0114 201.997Z" fill="#C3D7EF"/>
<path d="M115.736 142.461C110.076 144.722 104.766 147.221 99.4393 150.172C96.7921 151.655 94.1618 153.232 91.5699 155.069C90.2728 155.987 88.9772 156.976 87.6839 158.091C86.3976 159.232 85.1097 160.455 83.8318 162.228C83.5109 162.707 83.2016 163.124 82.8946 163.729C82.7488 164.005 82.5853 164.312 82.4663 164.569L82.2223 165.184L81.7418 166.416L81.3557 167.57C81.0894 168.345 80.876 169.101 80.6719 169.842C80.457 170.591 80.2544 171.335 80.074 172.069C79.3011 175.014 78.7032 177.934 78.1252 180.85C77.0047 186.69 76.1443 192.515 75.5379 198.429L82.3873 199.715C82.3873 199.715 84.9569 188.626 86.7875 183.16C87.6839 180.421 88.6372 177.707 89.5905 175.069C89.8269 174.404 90.074 173.758 90.328 173.124C90.5729 172.475 90.8346 171.85 91.0902 171.259L91.4693 170.363L91.8531 169.583L92.0419 169.193L92.1386 169.074C92.1571 169.024 92.3106 168.872 92.4027 168.75C92.8762 168.191 93.7427 167.425 94.6883 166.713C95.6416 165.983 96.6969 165.26 97.8129 164.562C100.056 163.178 102.454 161.842 104.921 160.582C109.835 158.067 115.057 155.668 120.109 153.481L115.736 142.461Z" fill="#313F44"/>
<path d="M2.35504 94.4345C2.35504 122.629 24.9939 145.484 52.9193 145.484C80.8456 145.484 103.484 122.629 103.484 94.4345C103.484 66.2412 80.8456 43.3867 52.9193 43.3867C24.9931 43.3867 2.35504 66.242 2.35504 94.4345Z" fill="#4B7ABC"/>
<path d="M52.9201 145.483C73.9134 145.483 91.9163 132.57 99.5631 114.181C99.557 114.073 99.5532 113.965 99.5532 113.855C99.5532 112.396 100.126 111.074 101.058 110.104C102.634 105.166 103.484 99.9011 103.484 94.4345C103.484 66.2412 80.8456 43.3867 52.9194 43.3867C24.9931 43.3867 2.35513 66.242 2.35513 94.4345C2.35513 100.61 3.44041 106.527 5.42982 112.004C9.66193 123.658 17.9819 133.32 28.6343 139.221C35.8428 143.213 44.1182 145.484 52.9201 145.484V145.483Z" fill="#C3D7EF"/>
<path d="M99.5551 113.856C99.5551 116.833 101.946 119.248 104.895 119.248C107.844 119.248 110.234 116.834 110.234 113.856C110.234 110.879 107.844 108.465 104.895 108.465C101.946 108.465 99.5551 110.879 99.5551 113.856Z" fill="#4B7ABC"/>
<path d="M104.895 119.248C107.844 119.248 110.234 116.834 110.234 113.856C110.234 110.879 107.844 108.465 104.895 108.465C101.946 108.465 99.5551 110.879 99.5551 113.856C99.5551 113.966 99.5582 114.074 99.5651 114.182C99.7324 117.008 102.054 119.248 104.895 119.248Z" fill="#C3D7EF"/>
<path d="M113.274 117.561C113.39 119.264 114.852 120.55 116.538 120.434C118.225 120.317 119.499 118.841 119.383 117.138C119.267 115.434 117.805 114.149 116.119 114.265C114.432 114.383 113.158 115.858 113.274 117.561Z" fill="#4B7ABC"/>
<path d="M116.326 120.44C116.397 120.44 116.466 120.438 116.538 120.434C118.153 120.321 119.388 118.965 119.391 117.356C119.391 117.284 119.388 117.212 119.383 117.138C119.272 115.506 117.927 114.258 116.331 114.258C116.261 114.258 116.191 114.261 116.119 114.266C114.505 114.377 113.269 115.735 113.267 117.343C113.267 117.415 113.269 117.489 113.274 117.562C113.385 119.192 114.73 120.44 116.326 120.44Z" fill="#C3D7EF"/>
<path d="M122.474 116.734C122.531 117.585 123.263 118.228 124.105 118.17C124.949 118.112 125.586 117.373 125.528 116.522C125.47 115.671 124.739 115.028 123.896 115.086C123.053 115.145 122.415 115.882 122.474 116.735V116.734Z" fill="#4B7ABC"/>
<path d="M123.999 118.173C124.034 118.173 124.069 118.171 124.105 118.17C124.913 118.114 125.53 117.436 125.531 116.631C125.531 116.595 125.53 116.559 125.527 116.522C125.471 115.706 124.799 115.082 124.002 115.082C123.966 115.082 123.931 115.084 123.895 115.085C123.088 115.141 122.47 115.82 122.469 116.624C122.469 116.66 122.47 116.697 122.473 116.734C122.529 117.55 123.202 118.173 123.999 118.173Z" fill="#C3D7EF"/>
<path d="M35.561 88.8223C31.0112 101.663 35.6193 115.068 45.8542 118.764C56.0876 122.459 68.0724 115.045 72.6215 102.204C77.1713 89.3632 72.5616 75.9581 62.3283 72.262C52.0949 68.5675 40.1093 75.9814 35.561 88.8223Z" fill="#4B7ABC"/>
<path d="M37.6789 89.5865C34.0078 99.9503 37.7265 110.77 45.9873 113.754C54.2481 116.736 63.9205 110.752 67.593 100.387C71.2641 90.0228 67.5447 79.2026 59.2846 76.2194C51.0238 73.2377 41.3515 79.2212 37.6789 89.5873V89.5865Z" fill="#FEFEFE"/>
<path d="M39.4023 90.2062C36.4612 98.5073 39.4407 107.173 46.056 109.561C52.672 111.95 60.4186 107.157 63.3589 98.8552C66.2993 90.5557 63.3206 81.8889 56.7053 79.5007C50.0893 77.1118 42.3419 81.9051 39.4023 90.2054V90.2062Z" fill="#4B7ABC"/>
<path d="M41.6575 91.0185C39.3995 97.3925 41.5256 103.989 46.4055 105.752C51.2854 107.514 57.0732 103.774 59.332 97.3995C61.5901 91.0255 59.4641 84.4291 54.5842 82.6663C49.7043 80.9043 43.9171 84.6437 41.6583 91.0193L41.6575 91.0185Z" fill="#FEFEFE"/>
<path d="M43.3141 92.0114C41.7046 96.5575 43.0953 101.216 46.4225 102.417C49.7482 103.618 53.7516 100.907 55.3611 96.3615C56.9713 91.8154 55.5806 87.1577 52.2534 85.9567C48.9277 84.7549 44.9251 87.4669 43.3141 92.0114Z" fill="#4B7ABC"/>
<path d="M44.4829 92.4303C43.3201 95.7134 44.2035 99.0337 46.457 99.8473C48.7112 100.662 51.4811 98.6594 52.6439 95.3771C53.8067 92.0941 52.9233 88.7722 50.6699 87.9586C48.4165 87.145 45.6457 89.1465 44.4829 92.4303Z" fill="#FEFEFE"/>
<path d="M17.6307 77.5977L23.6865 79.7843L24.8516 85.3447L20.4583 88.8959L14.4026 86.7092L18.8956 83.1929L17.6307 77.5977Z" fill="#4B7ABC"/>
<path d="M47.2634 94.5767L17.6148 83.872C17.0606 83.6713 16.7713 83.0553 16.9693 82.4959C17.1673 81.9364 17.7783 81.6443 18.3324 81.8442L47.981 92.5504C48.5352 92.7504 48.823 93.3664 48.625 93.9266C48.4269 94.4853 47.8168 94.7766 47.2626 94.5767H47.2634Z" fill="#313F44"/>
</svg>
