<svg width="31" height="30" viewBox="0 0 31 30" fill="none" xmlns="http://www.w3.org/2000/svg">
<path d="M21.4965 17.7687C21.1821 17.6072 19.6162 16.8401 19.3249 16.7363C19.0337 16.6267 18.8202 16.5748 18.6097 16.8978C18.3963 17.2179 17.7907 17.9302 17.6004 18.1465C17.4158 18.3599 17.2284 18.3859 16.914 18.2272C15.0453 17.2929 13.8196 16.5604 12.5882 14.4465C12.2623 13.8841 12.9141 13.9245 13.5226 12.7104C13.6264 12.497 13.5745 12.3153 13.4937 12.1538C13.413 11.9923 12.7786 10.4293 12.5132 9.79194C12.2566 9.17191 11.9913 9.25842 11.798 9.24689C11.6135 9.23535 11.4029 9.23535 11.1895 9.23535C10.9761 9.23535 10.633 9.3161 10.3417 9.63044C10.0504 9.95055 9.22852 10.7205 9.22852 12.2836C9.22852 13.8467 10.3676 15.3607 10.5234 15.5741C10.6849 15.7875 12.7641 18.9944 15.9566 20.3757C17.9753 21.2467 18.7655 21.3216 19.7748 21.1717C20.3891 21.0794 21.6551 20.4046 21.9175 19.6576C22.1799 18.9136 22.1799 18.2763 22.1021 18.1436C22.0242 18.0023 21.8108 17.9216 21.4965 17.7687Z" fill="white"/>
<path d="M27.6016 10.2278C26.9499 8.67914 26.0155 7.28912 24.8245 6.0952C23.6334 4.90416 22.2434 3.96691 20.6919 3.31804C19.1058 2.65187 17.4216 2.31445 15.6855 2.31445H15.6278C13.8802 2.3231 12.1874 2.66917 10.5955 3.34976C9.05838 4.00728 7.67989 4.94165 6.50039 6.13269C5.32089 7.32372 4.39517 8.70798 3.75495 10.2508C3.09167 11.8485 2.75714 13.5471 2.76579 15.2947C2.77444 17.2961 3.25316 19.2831 4.15004 21.0596V25.443C4.15004 26.1755 4.74412 26.7696 5.47662 26.7696H9.86298C11.6394 27.6665 13.6264 28.1452 15.6278 28.1539H15.6884C17.4158 28.1539 19.0913 27.8193 20.6688 27.1647C22.2117 26.5216 23.5988 25.5988 24.787 24.4193C25.978 23.2398 26.9153 21.8613 27.5699 20.3242C28.2505 18.7323 28.5966 17.0395 28.6052 15.2918C28.6139 13.5356 28.2736 11.8312 27.6016 10.2278ZM23.2441 22.8591C21.2225 24.8605 18.5405 25.9621 15.6855 25.9621H15.6365C13.8975 25.9535 12.1701 25.5209 10.6445 24.7077L10.4023 24.5779H6.34178V20.5174L6.21201 20.2752C5.39876 18.7496 4.96618 17.0222 4.95752 15.2832C4.94599 12.408 6.04474 9.70868 8.06056 7.67556C10.0735 5.64243 12.7641 4.51772 15.6394 4.50619H15.6884C17.1303 4.50619 18.529 4.78592 19.8469 5.33963C21.1331 5.87891 22.2867 6.65467 23.2787 7.64672C24.2679 8.63588 25.0465 9.79231 25.5858 11.0785C26.1453 12.4109 26.425 13.824 26.4192 15.2832C26.4019 18.1555 25.2743 20.8462 23.2441 22.8591Z" fill="white"/>
</svg>
