<svg width="14" height="11" viewBox="0 0 14 11" fill="none" xmlns="http://www.w3.org/2000/svg">
<path d="M13.7215 5.0334C12.2402 1.91309 10.0012 0.342773 6.9996 0.342773C3.99648 0.342773 1.75898 1.91309 0.277727 5.03496C0.218314 5.16077 0.1875 5.29817 0.1875 5.4373C0.1875 5.57644 0.218314 5.71384 0.277727 5.83965C1.75898 8.95996 3.99804 10.5303 6.9996 10.5303C10.0027 10.5303 12.2402 8.95996 13.7215 5.83809C13.8418 5.58496 13.8418 5.29121 13.7215 5.0334ZM6.9996 9.40527C4.47929 9.40527 2.63398 8.12715 1.33241 5.43652C2.63398 2.7459 4.47929 1.46777 6.9996 1.46777C9.51991 1.46777 11.3652 2.7459 12.6668 5.43652C11.3668 8.12715 9.52148 9.40527 6.9996 9.40527ZM6.9371 2.68652C5.41835 2.68652 4.1871 3.91777 4.1871 5.43652C4.1871 6.95527 5.41835 8.18652 6.9371 8.18652C8.45585 8.18652 9.6871 6.95527 9.6871 5.43652C9.6871 3.91777 8.45585 2.68652 6.9371 2.68652ZM6.9371 7.18652C5.96991 7.18652 5.1871 6.40371 5.1871 5.43652C5.1871 4.46934 5.96991 3.68652 6.9371 3.68652C7.90429 3.68652 8.6871 4.46934 8.6871 5.43652C8.6871 6.40371 7.90429 7.18652 6.9371 7.18652Z" fill="white"/>
</svg>
