<svg width="80" height="80" viewBox="0 0 80 80" fill="none" xmlns="http://www.w3.org/2000/svg">
<rect width="80" height="80" rx="40" fill="#3A416F"/>
<path d="M20.3636 31.5455L24.2074 37.9375H24.3438L28.2045 31.5455H31.8097L26.4318 40.2727L31.8949 49H28.2301L24.3438 42.6506H24.2074L20.321 49H16.6733L22.1875 40.2727L16.7415 31.5455H20.3636ZM49.2557 40.2727C49.2557 42.1534 48.9034 43.7642 48.1989 45.1051C47.5 46.4403 46.5455 47.4631 45.3352 48.1733C44.1307 48.8835 42.7642 49.2386 41.2358 49.2386C39.7074 49.2386 38.3381 48.8835 37.1278 48.1733C35.9233 47.4574 34.9688 46.4318 34.2642 45.0966C33.5653 43.7557 33.2159 42.1477 33.2159 40.2727C33.2159 38.392 33.5653 36.7841 34.2642 35.4489C34.9688 34.108 35.9233 33.0824 37.1278 32.3722C38.3381 31.6619 39.7074 31.3068 41.2358 31.3068C42.7642 31.3068 44.1307 31.6619 45.3352 32.3722C46.5455 33.0824 47.5 34.108 48.1989 35.4489C48.9034 36.7841 49.2557 38.392 49.2557 40.2727ZM46.0767 40.2727C46.0767 38.9489 45.8693 37.8324 45.4545 36.9233C45.0455 36.0085 44.4773 35.3182 43.75 34.8523C43.0227 34.3807 42.1847 34.1449 41.2358 34.1449C40.2869 34.1449 39.4489 34.3807 38.7216 34.8523C37.9943 35.3182 37.4233 36.0085 37.0085 36.9233C36.5994 37.8324 36.3949 38.9489 36.3949 40.2727C36.3949 41.5966 36.5994 42.7159 37.0085 43.6307C37.4233 44.5398 37.9943 45.2301 38.7216 45.7017C39.4489 46.1676 40.2869 46.4006 41.2358 46.4006C42.1847 46.4006 43.0227 46.1676 43.75 45.7017C44.4773 45.2301 45.0455 44.5398 45.4545 43.6307C45.8693 42.7159 46.0767 41.5966 46.0767 40.2727ZM52.245 49V31.5455H63.4268V34.196H55.407V38.9347H62.6598V41.5852H55.407V49H52.245Z" fill="white"/>
</svg>
