<svg width="48" height="48" viewBox="0 0 48 48" fill="none" xmlns="http://www.w3.org/2000/svg">
<rect width="48" height="48" rx="8" fill="#595959"/>
<path d="M34.7062 17.0219C34.8937 17.2094 35 17.4625 35 17.7281V37C35 37.5531 34.5531 38 34 38H14C13.4469 38 13 37.5531 13 37V11C13 10.4469 13.4469 10 14 10H27.2719C27.5375 10 27.7938 10.1063 27.9813 10.2938L34.7062 17.0219ZM32.6938 18.1875L26.8125 12.3063V18.1875H32.6938ZM17.25 12.25V14.25H19.25V12.25H17.25ZM19.25 14.25V16.25H21.25V14.25H19.25ZM17.25 16.25V18.25H19.25V16.25H17.25ZM19.25 18.25V20.25H21.25V18.25H19.25ZM17.25 20.25V22.25H19.25V20.25H17.25ZM19.25 22.25V24.25H21.25V22.25H19.25ZM17.25 24.25V26.25H19.25V24.25H17.25ZM17.25 26.25V31.25H21.25V26.25H17.25ZM18.75 27.75H19.75V29.75H18.75V27.75Z" fill="white"/>
</svg>
