<svg width="80" height="80" viewBox="0 0 80 80" fill="none" xmlns="http://www.w3.org/2000/svg">
<path d="M46 34H50V38H46V34ZM50 26H46V30H50V26ZM38 46H42V42H38V46ZM42 26H38V30H42V26ZM38 38H42V34H38V38ZM34 26H30V30H34V26ZM34 34H30V38H34V34ZM45.1 58H42V51H38V58H26V22H54V38.06C55.42 38.18 56.78 38.62 58 39.26V18H22V62H47.82C47 60.88 46 59.52 45.1 58ZM30 54H34V50H30V54ZM34 42H30V46H34V42ZM60 49C60 54.2 53 62 53 62C53 62 46 54.2 46 49C46 45.2 49.2 42 53 42C56.8 42 60 45.2 60 49ZM55.4 49.2C55.4 48 54.2 46.8 53 46.8C51.8 46.8 50.6 47.8 50.6 49.2C50.6 50.4 51.6 51.6 53 51.6C54.4 51.6 55.6 50.4 55.4 49.2Z" fill="#003A8C"/>
<circle opacity="0.15" cx="40" cy="40" r="40" fill="#002766"/>
</svg>
