<svg width="40" height="40" viewBox="0 0 40 40" fill="none" xmlns="http://www.w3.org/2000/svg">
<path d="M19.9987 36.6668C10.794 36.6668 3.33203 29.2049 3.33203 20.0002C3.33203 10.7954 10.794 3.3335 19.9987 3.3335C29.2034 3.3335 36.6654 10.7954 36.6654 20.0002C36.6553 29.2007 29.1993 36.6567 19.9987 36.6668ZM19.9987 6.66683C12.6744 6.66868 6.7228 12.5783 6.6691 19.9024C6.6154 27.2265 12.4797 33.2228 19.8032 33.332C27.1267 33.4413 33.1672 27.6226 33.332 20.3002V23.2718V20.0002C33.3238 12.6398 27.3591 6.6751 19.9987 6.66683ZM19.9987 28.3335L11.6654 20.0002L19.9987 11.6668L22.3487 14.0168L18.0487 18.3335H28.332V21.6668H18.0487L22.3487 25.9835L19.9987 28.3335Z" fill="#0072EF"/>
</svg>
