<svg width="20" height="20" viewBox="0 0 20 20" fill="none" xmlns="http://www.w3.org/2000/svg">
<path opacity="0.4" d="M13.3947 1.66699H16.2164C17.3849 1.66699 18.3318 2.62187 18.3318 3.80029V6.64576C18.3318 7.82419 17.3849 8.77907 16.2164 8.77907H13.3947C12.2262 8.77907 11.2793 7.82419 11.2793 6.64576V3.80029C11.2793 2.62187 12.2262 1.66699 13.3947 1.66699Z" fill="#3A416F"/>
<path fillRule="evenodd" clipRule="evenodd" d="M3.78145 1.66699H6.60309C7.77165 1.66699 8.71853 2.62187 8.71853 3.80029V6.64576C8.71853 7.82419 7.77165 8.77907 6.60309 8.77907H3.78145C2.6129 8.77907 1.66602 7.82419 1.66602 6.64576V3.80029C1.66602 2.62187 2.6129 1.66699 3.78145 1.66699ZM3.78145 11.2216H6.60309C7.77165 11.2216 8.71853 12.1765 8.71853 13.3549V16.2003C8.71853 17.378 7.77165 18.3336 6.60309 18.3336H3.78145C2.6129 18.3336 1.66602 17.378 1.66602 16.2003V13.3549C1.66602 12.1765 2.6129 11.2216 3.78145 11.2216ZM16.2172 11.2216H13.3956C12.227 11.2216 11.2801 12.1765 11.2801 13.3549V16.2003C11.2801 17.378 12.227 18.3336 13.3956 18.3336H16.2172C17.3858 18.3336 18.3327 17.378 18.3327 16.2003V13.3549C18.3327 12.1765 17.3858 11.2216 16.2172 11.2216Z" fill="#3A416F"/>
</svg>
