<svg width="80" height="80" viewBox="0 0 80 80" fill="none" xmlns="http://www.w3.org/2000/svg">
<path d="M37 20.5938C36.22 20.5938 35.41 20.8694 34.84 21.4512C34.27 22.0331 34 22.86 34 23.6562V25.1875H20.5V55.8125H37.3C37.105 54.8325 37 53.8066 37 52.75H23.5V42.705C24.385 43.2256 25.405 43.5625 26.5 43.5625H40.015C40.855 42.3988 41.875 41.3575 43.015 40.5H26.5C24.715 40.5 23.5 39.2597 23.5 37.4375V28.25H56.5V37.4375C56.5 37.6825 56.485 37.9122 56.44 38.1266C57.52 38.4634 58.54 38.9228 59.5 39.4894V25.1875H46V23.6562C46 22.86 45.73 22.0331 45.16 21.4512C44.59 20.8694 43.78 20.5938 43 20.5938H37ZM37 23.6562H43V25.1875H37V23.6562ZM29.5 34.375V38.9688H32.5V34.375H29.5ZM47.5 34.375V38.1419C48.4768 37.8302 49.4819 37.6199 50.5 37.5141V34.375H47.5ZM52 40.5C45.385 40.5 40 45.9972 40 52.75C40 59.5028 45.385 65 52 65C58.615 65 64 59.5028 64 52.75C64 45.9972 58.615 40.5 52 40.5ZM52 43.5625C56.98 43.5625 61 47.6663 61 52.75C61 57.8338 56.98 61.9375 52 61.9375C47.02 61.9375 43 57.8338 43 52.75C43 47.6663 47.02 43.5625 52 43.5625ZM50.5 45.0938V54.2812H58V51.2188H53.5V45.0938H50.5Z" fill="#F90005"/>
<circle cx="40" cy="40" r="40" fill="#FF4D4F" fill-opacity="0.1"/>
</svg>
