<svg width="80" height="80" viewBox="0 0 80 80" fill="none" xmlns="http://www.w3.org/2000/svg">
<circle opacity="0.4" cx="40" cy="40" r="40" fill="#FCDDEC"/>
<path d="M21.9996 42.0004H23.9996V56.0004C23.9996 58.2064 25.7936 60.0004 27.9996 60.0004H51.9996C54.2056 60.0004 55.9996 58.2064 55.9996 56.0004V42.0004H57.9996C58.3951 42.0003 58.7817 41.883 59.1105 41.6632C59.4393 41.4434 59.6956 41.1311 59.8469 40.7657C59.9983 40.4003 60.0379 39.9982 59.9607 39.6103C59.8836 39.2224 59.6932 38.8661 59.4136 38.5864L41.4136 20.5864C41.228 20.4005 41.0076 20.253 40.765 20.1524C40.5223 20.0518 40.2622 20 39.9996 20C39.7369 20 39.4768 20.0518 39.2342 20.1524C38.9916 20.253 38.7712 20.4005 38.5856 20.5864L20.5856 38.5864C20.306 38.8661 20.1155 39.2224 20.0384 39.6103C19.9613 39.9982 20.0009 40.4003 20.1522 40.7657C20.3036 41.1311 20.5598 41.4434 20.8887 41.6632C21.2175 41.883 21.6041 42.0003 21.9996 42.0004ZM39.9996 24.8284L51.9996 36.8284V46.0004L52.0016 56.0004H27.9996V36.8284L39.9996 24.8284Z" fill="#EF5DA8"/>
<path d="M40.0016 51.9997C47.4076 51.9997 49.8036 44.9217 49.9016 44.6217L46.1016 43.3797C46.0856 43.4257 44.5396 47.9997 40.0016 47.9997C35.5256 47.9997 33.9616 43.5577 33.8996 43.3677L30.1016 44.6217C30.1996 44.9217 32.5956 51.9997 40.0016 51.9997Z" fill="#EF5DA8"/>
</svg>
