<svg width="18" height="18" viewBox="0 0 18 18" fill="none" xmlns="http://www.w3.org/2000/svg">
<path fill-rule="evenodd" clip-rule="evenodd" d="M8.43283 17.3337H4.36116C2.32449 17.3337 0.666992 15.6762 0.666992 13.6378V4.36366C0.666992 2.32533 2.32449 0.666992 4.36116 0.666992H8.42366C10.462 0.666992 12.1203 2.32533 12.1203 4.36366V5.14033C12.1203 5.48533 11.8403 5.76533 11.4953 5.76533C11.1503 5.76533 10.8703 5.48533 10.8703 5.14033V4.36366C10.8703 3.01366 9.77283 1.91699 8.42366 1.91699H4.36116C3.01366 1.91699 1.91699 3.01366 1.91699 4.36366V13.6378C1.91699 14.987 3.01366 16.0837 4.36116 16.0837H8.43283C9.77616 16.0837 10.8703 14.9903 10.8703 13.647V12.8612C10.8703 12.5162 11.1503 12.2362 11.4953 12.2362C11.8403 12.2362 12.1203 12.5162 12.1203 12.8612V13.647C12.1203 15.6803 10.4653 17.3337 8.43283 17.3337Z" fill="#8C8C8C"/>
<mask id="mask0_34288_8825" style="mask-type:alpha" maskUnits="userSpaceOnUse" x="6" y="8" width="12" height="2">
<path fill-rule="evenodd" clip-rule="evenodd" d="M6.49683 8.375H17.7809V9.625H6.49683V8.375Z" fill="white"/>
</mask>
<g mask="url(#mask0_34288_8825)">
<path fill-rule="evenodd" clip-rule="evenodd" d="M17.156 9.625H7.12183C6.77683 9.625 6.49683 9.345 6.49683 9C6.49683 8.655 6.77683 8.375 7.12183 8.375H17.156C17.501 8.375 17.781 8.655 17.781 9C17.781 9.345 17.501 9.625 17.156 9.625Z" fill="#8C8C8C"/>
</g>
<mask id="mask1_34288_8825" style="mask-type:alpha" maskUnits="userSpaceOnUse" x="14" y="5" width="4" height="8">
<path fill-rule="evenodd" clip-rule="evenodd" d="M14.0916 5.94629H17.781V12.0552H14.0916V5.94629Z" fill="white"/>
</mask>
<g mask="url(#mask1_34288_8825)">
<path fill-rule="evenodd" clip-rule="evenodd" d="M14.7163 12.0552C14.5563 12.0552 14.3955 11.9944 14.2738 11.8711C14.0305 11.6261 14.0313 11.2311 14.2755 10.9877L16.2705 9.00025L14.2755 7.01358C14.0313 6.77025 14.0297 6.37525 14.2738 6.13025C14.5172 5.88525 14.9122 5.88525 15.1572 6.12858L17.5972 8.55775C17.7155 8.67441 17.7813 8.83441 17.7813 9.00025C17.7813 9.16608 17.7155 9.32608 17.5972 9.44275L15.1572 11.8727C15.0355 11.9944 14.8755 12.0552 14.7163 12.0552Z" fill="#8C8C8C"/>
</g>
</svg>
