<svg width="20" height="19" viewBox="0 0 20 19" fill="none" xmlns="http://www.w3.org/2000/svg">
<path opacity="0.4" fillRule="evenodd" clipRule="evenodd" d="M4.41797 16.8728C4.41797 16.1028 5.0413 15.4795 5.8113 15.4795C6.57214 15.4795 7.19547 16.1028 7.19547 16.8728C7.19547 17.6337 6.57214 18.257 5.8113 18.257C5.0413 18.257 4.41797 17.6337 4.41797 16.8728ZM14.7305 16.8728C14.7305 16.1028 15.3538 15.4795 16.1238 15.4795C16.8846 15.4795 17.508 16.1028 17.508 16.8728C17.508 17.6337 16.8846 18.257 16.1238 18.257C15.3538 18.257 14.7305 17.6337 14.7305 16.8728Z" fill="#3A416F"/>
<path fillRule="evenodd" clipRule="evenodd" d="M17.5088 3.81957C18.068 3.81957 18.4347 4.01207 18.8013 4.43374C19.168 4.8554 19.2322 5.4604 19.1497 6.00949L18.2788 12.0228C18.1138 13.1787 17.1238 14.0303 15.9597 14.0303H5.95883C4.73966 14.0303 3.73133 13.0953 3.6305 11.8862L2.78716 1.89365L1.403 1.65532C1.03633 1.59115 0.779665 1.23365 0.843831 0.866985C0.907998 0.491152 1.2655 0.243652 1.64133 0.298652L3.82758 0.628652C4.13925 0.684569 4.36841 0.940319 4.39591 1.25199L4.57008 3.30532C4.59758 3.59957 4.83592 3.81957 5.12925 3.81957H17.5088ZM11.9538 8.58532H14.493C14.878 8.58532 15.1805 8.27365 15.1805 7.89782C15.1805 7.51282 14.878 7.21032 14.493 7.21032H11.9538C11.5688 7.21032 11.2663 7.51282 11.2663 7.89782C11.2663 8.27365 11.5688 8.58532 11.9538 8.58532Z" fill="#3A416F"/>
</svg>
