<svg width="18" height="19" viewBox="0 0 18 19" fill="none" xmlns="http://www.w3.org/2000/svg">
<path opacity="0.598982" d="M17.8927 4.15064L15.6427 0.367012C15.5072 0.139342 15.2632 0 15 0H3C2.73677 0 2.49282 0.139342 2.35726 0.367012L0.107259 4.15064C0.0371268 4.26832 4.70335e-06 4.40304 4.70335e-06 4.54035C-0.00289371 6.20825 1.33418 7.56308 2.98725 7.56725H2.99325C3.73406 7.56916 4.44902 7.29264 4.99875 6.79161C6.13423 7.82706 7.86227 7.82706 8.99774 6.79161C10.1338 7.82934 11.8644 7.82934 13.0005 6.79161C13.88 7.59215 15.1445 7.79428 16.2262 7.30721C17.3078 6.82014 18.0032 5.73546 18 4.54035C18 4.40304 17.9629 4.26832 17.8927 4.15064Z" fill="white"/>
<path d="M15.012 8.69084C14.3148 8.69143 13.627 8.50677 13.0027 8.15137L12.9915 8.15738C11.9271 8.76524 10.6949 8.8611 9.56849 8.42368C9.37341 8.34855 9.18297 8.25844 8.99849 8.15394L8.99024 8.15824C7.92619 8.76652 6.69393 8.86209 5.56799 8.42368C5.37316 8.34855 5.18297 8.25844 4.99874 8.15394C4.37556 8.50837 3.68903 8.69217 2.99325 8.69084C2.74408 8.68811 2.49552 8.66226 2.25 8.61352V17.2811C2.25 17.7555 2.58579 18.1401 3 18.1401H7.49999V12.986H10.5V18.1401H15C15.4142 18.1401 15.75 17.7555 15.75 17.2811V8.61009C15.5063 8.66008 15.2595 8.68708 15.012 8.69084Z" fill="white"/>
</svg>
